<?xml version="1.0" encoding="utf-8"?>
<!-- Generator: Adobe Illustrator 16.0.0, SVG Export Plug-In . SVG Version: 6.00 Build 0)  -->
<!DOCTYPE svg PUBLIC "-//W3C//DTD SVG 1.1//EN" "http://www.w3.org/Graphics/SVG/1.1/DTD/svg11.dtd">
<svg version="1.1" id="Layer_1" xmlns="http://www.w3.org/2000/svg" xmlns:xlink="http://www.w3.org/1999/xlink" x="0px" y="0px"
	 width="200px" height="200px" viewBox="0 0 200 200" enable-background="new 0 0 200 200" xml:space="preserve">
<circle fill="#C8D6D3" cx="102.456" cy="95.466" r="88.326"/>
<g>
	<g>
		<defs>
			<path id="SVGID_1_" d="M96.663,132.793l-69.239,23.004c-2.009,0.667-4.178-0.421-4.846-2.43l-13.169-39.64
				c-0.667-2.008,0.42-4.177,2.429-4.845l69.238-23.004c2.009-0.667,4.178,0.42,4.846,2.429l13.169,39.639
				C99.758,129.957,98.671,132.125,96.663,132.793z"/>
		</defs>
		<clipPath id="SVGID_2_">
			<use xlink:href="#SVGID_1_"  overflow="visible"/>
		</clipPath>
	</g>
	<g>
		<defs>
			<path id="SVGID_3_" d="M96.663,132.793l-69.239,23.004c-2.009,0.667-4.178-0.421-4.846-2.43l-13.169-39.64
				c-0.667-2.008,0.42-4.177,2.429-4.845l69.238-23.004c2.009-0.667,4.178,0.42,4.846,2.429l13.169,39.639
				C99.758,129.957,98.671,132.125,96.663,132.793z"/>
		</defs>
		<use xlink:href="#SVGID_3_"  overflow="visible" fill="#A3B3D6"/>
		<clipPath id="SVGID_4_">
			<use xlink:href="#SVGID_3_"  overflow="visible"/>
		</clipPath>
		<circle clip-path="url(#SVGID_4_)" fill="#A3B3D6" cx="81.122" cy="111.91" r="40.438"/>
	</g>
	<g>
		<defs>
			<path id="SVGID_5_" d="M96.663,132.793l-69.239,23.004c-2.009,0.667-4.178-0.421-4.846-2.43l-13.169-39.64
				c-0.667-2.008,0.42-4.177,2.429-4.845l69.238-23.004c2.009-0.667,4.178,0.42,4.846,2.429l13.169,39.639
				C99.758,129.957,98.671,132.125,96.663,132.793z"/>
		</defs>
		<clipPath id="SVGID_6_">
			<use xlink:href="#SVGID_5_"  overflow="visible"/>
		</clipPath>
	</g>
</g>
<rect x="9.266" y="102.436" transform="matrix(0.949 -0.3153 0.3153 0.949 -31.1365 21.0771)" fill="#333333" width="80.625" height="8.684"/>
<rect x="17.2" y="112.78" transform="matrix(0.949 -0.3153 0.3153 0.949 -34.0279 22.5876)" fill="#F1F8FC" width="71.192" height="7.362"/>
<rect x="21.2" y="129.037" transform="matrix(0.949 -0.3153 0.3153 0.949 -39.1032 19.9989)" fill="#455E7C" width="42.116" height="3.635"/>
<rect x="20.711" y="120.474" transform="matrix(0.949 -0.3153 0.3153 0.949 -36.7576 17.3504)" fill="#5C5C5C" width="29.079" height="3.635"/>
<rect x="23.421" y="136.776" transform="matrix(0.949 -0.3153 0.3153 0.949 -41.7586 19.0361)" fill="#0776AB" width="29.08" height="3.635"/>
<polygon opacity="0.1" fill="#A3B3D6" points="78.648,138.777 58.296,145.539 61.165,92.494 81.517,85.733 "/>
<g opacity="0.1">
	<g>
		<rect x="91.871" y="129.893" fill="none" width="53.81" height="6.631"/>
		<text transform="matrix(1 0 0 1 91.8711 133.9863)" fill="#231F20" font-family="'OpenSans-Bold'" font-size="5.7653">total</text>
	</g>
	<g>
		<rect x="78.611" y="33.522" fill="none" width="53.809" height="13.26"/>
		<text transform="matrix(1 0 0 1 94.5059 38.1611)" fill="#231F20" font-family="'OpenSans-Bold'" font-size="6.534">receipt</text>
	</g>
</g>
<g opacity="0.1">
	<g>
		<rect x="82.499" y="127.85" fill="none" width="53.809" height="6.632"/>
		<text transform="matrix(1 0 0 1 82.4985 131.9434)" fill="#231F20" font-family="'OpenSans-Bold'" font-size="5.7653">total</text>
	</g>
	<g>
		<rect x="75.945" y="31.48" fill="none" width="53.81" height="13.26"/>
		<text transform="matrix(1 0 0 1 91.8403 36.1191)" fill="#231F20" font-family="'OpenSans-Bold'" font-size="6.534">receipt</text>
	</g>
</g>
<polygon opacity="0.1" fill="#231F20" points="139.36,57.438 139.36,18.683 139.36,15.351 136.97,13.814 134.579,15.351 
	132.19,13.814 129.801,15.351 127.409,13.814 125.02,15.351 122.629,13.814 120.238,15.351 117.848,13.814 115.455,15.351 
	113.065,13.814 110.674,15.351 108.283,13.814 105.892,15.351 103.5,13.814 101.109,15.351 98.717,13.814 96.325,15.351 
	93.933,13.814 91.541,15.351 89.151,13.814 86.76,15.351 84.368,13.814 81.976,15.351 79.583,13.814 77.19,15.351 74.799,13.814 
	72.405,15.351 70.01,13.814 67.615,15.351 67.615,18.683 67.615,57.438 67.615,80.435 67.615,86.648 67.615,86.648 72.035,86.648 
	78.588,86.648 78.588,153.279 78.588,153.621 78.588,156.609 80.979,158.146 83.369,156.609 85.758,158.146 88.149,156.609 
	90.54,158.146 92.929,156.609 95.32,158.146 97.711,156.609 100.102,158.146 102.492,156.609 104.883,158.146 107.273,156.609 
	109.665,158.146 112.057,156.609 114.447,158.146 116.84,156.609 119.232,158.146 121.624,156.609 124.016,158.146 126.408,156.609 
	128.797,158.146 131.189,156.609 133.581,158.146 135.973,156.609 138.365,158.146 140.759,156.609 143.149,158.146 
	145.544,156.609 147.938,158.146 150.334,156.609 150.334,153.621 150.334,153.279 150.334,57.438 "/>
<g>
	<path fill="#F1F8FC" d="M71.113,83.295v-29.21h8.84v24.791c0,2.43-1.989,4.419-4.42,4.419H71.113z"/>
	<rect x="71.113" y="15.329" fill="#F1F8FC" width="71.746" height="61.753"/>
	<polygon fill="#F1F8FC" points="142.858,11.998 140.467,10.46 138.077,11.998 135.688,10.46 133.298,11.998 130.907,10.46 
		128.517,11.998 126.127,10.46 123.735,11.998 121.346,10.46 118.954,11.998 116.563,10.46 114.172,11.998 111.781,10.46 
		109.389,11.998 106.998,10.46 104.606,11.998 102.215,10.46 99.822,11.998 97.432,10.46 95.039,11.998 92.649,10.46 90.257,11.998 
		87.865,10.46 85.473,11.998 83.081,10.46 80.688,11.998 78.296,10.46 75.903,11.998 73.507,10.46 71.113,11.998 71.113,15.329 
		142.858,15.329 	"/>
	<g>
		<rect x="105.832" y="57.159" fill="#A9D3E1" width="12.048" height="2.563"/>
		<rect x="129.15" y="43.707" fill="#A9D3E1" width="8.839" height="2.563"/>
		<rect x="75.981" y="43.707" fill="#A9D3E1" width="20.499" height="2.563"/>
		<rect x="125.691" y="50.433" fill="#A9D3E1" width="12.298" height="2.562"/>
		<rect x="75.981" y="50.433" fill="#A9D3E1" width="31.003" height="2.562"/>
		<rect x="125.691" y="57.159" fill="#A9D3E1" width="12.298" height="2.563"/>
		<rect x="75.981" y="57.159" fill="#A9D3E1" width="27.166" height="2.563"/>
		<rect x="125.691" y="63.885" fill="#A9D3E1" width="12.298" height="2.563"/>
		<rect x="75.981" y="63.885" fill="#A9D3E1" width="20.499" height="2.563"/>
		<rect x="98.914" y="43.707" fill="#A9D3E1" width="20.498" height="2.563"/>
		<rect x="98.914" y="63.885" fill="#A9D3E1" width="20.498" height="2.563"/>
		<rect x="129.15" y="70.611" fill="#A9D3E1" width="8.839" height="2.563"/>
		<rect x="75.981" y="70.611" fill="#A9D3E1" width="31.003" height="2.563"/>
	</g>
	<rect x="82.085" y="54.084" fill="#FFFFFF" width="71.746" height="96.184"/>
	<polygon fill="#FFFFFF" points="82.085,153.256 84.477,154.793 86.867,153.256 89.256,154.793 91.646,153.256 94.037,154.793 
		96.427,153.256 98.817,154.793 101.209,153.256 103.599,154.793 105.99,153.256 108.381,154.793 110.772,153.256 113.162,154.793 
		115.555,153.256 117.945,154.793 120.338,153.256 122.73,154.793 125.121,153.256 127.514,154.793 129.905,153.256 
		132.295,154.793 134.688,153.256 137.079,154.793 139.471,153.256 141.863,154.793 144.256,153.256 146.647,154.793 
		149.041,153.256 151.437,154.793 153.831,153.256 153.831,149.926 82.085,149.926 	"/>
	<rect x="110.824" y="21.671" fill="#A9D3E1" width="27.165" height="2.562"/>
	<rect x="104.376" y="138.428" fill="#A9D3E1" width="27.165" height="2.563"/>
	<rect x="136.664" y="60.554" fill="#A9D3E1" width="12.299" height="2.563"/>
	<rect x="86.954" y="60.554" fill="#A9D3E1" width="27.167" height="2.563"/>
	<rect x="116.805" y="60.554" fill="#A9D3E1" width="12.049" height="2.563"/>
	<rect x="116.805" y="80.733" fill="#A9D3E1" width="12.049" height="2.562"/>
	<rect x="140.123" y="67.28" fill="#A9D3E1" width="8.84" height="2.562"/>
	<rect x="86.954" y="67.28" fill="#A9D3E1" width="20.5" height="2.562"/>
	<rect x="136.664" y="74.006" fill="#A9D3E1" width="12.299" height="2.563"/>
	<rect x="86.954" y="74.006" fill="#A9D3E1" width="31.005" height="2.563"/>
	<rect x="136.664" y="80.733" fill="#A9D3E1" width="12.299" height="2.562"/>
	<rect x="86.954" y="80.733" fill="#A9D3E1" width="27.167" height="2.562"/>
	<rect x="136.664" y="87.459" fill="#A9D3E1" width="12.299" height="2.563"/>
	<rect x="86.954" y="87.459" fill="#A9D3E1" width="20.5" height="2.563"/>
	<rect x="109.887" y="67.28" fill="#A9D3E1" width="20.5" height="2.562"/>
	<rect x="109.887" y="87.459" fill="#A9D3E1" width="20.5" height="2.563"/>
	<rect x="140.123" y="94.185" fill="#A9D3E1" width="8.84" height="2.563"/>
	<rect x="136.664" y="126.24" fill="#A9D3E1" width="12.299" height="2.563"/>
	<rect x="86.954" y="94.185" fill="#A9D3E1" width="31.005" height="2.563"/>
	<rect x="116.805" y="100.26" fill="#A9D3E1" width="12.049" height="2.562"/>
	<rect x="136.664" y="100.26" fill="#A9D3E1" width="12.299" height="2.562"/>
	<rect x="86.954" y="100.26" fill="#A9D3E1" width="27.167" height="2.562"/>
	<rect x="136.664" y="106.986" fill="#A9D3E1" width="12.299" height="2.562"/>
	<rect x="86.954" y="106.986" fill="#A9D3E1" width="20.5" height="2.562"/>
	<rect x="109.887" y="106.986" fill="#A9D3E1" width="20.5" height="2.562"/>
	<rect x="140.123" y="113.713" fill="#A9D3E1" width="8.84" height="2.563"/>
	<rect x="86.954" y="113.713" fill="#A9D3E1" width="31.005" height="2.563"/>
	<g>
		<rect x="86.954" y="124.976" fill="none" width="53.81" height="6.631"/>
		<text transform="matrix(1 0 0 1 86.9541 129.0693)" fill="#4B6F89" font-family="'OpenSans-Bold'" font-size="5.7653">total</text>
	</g>
	<g>
		<g>
			<rect x="80.401" y="28.605" fill="none" width="53.81" height="13.26"/>
			<text transform="matrix(1 0 0 1 96.2959 33.2441)" fill="#4B6F89" font-family="'OpenSans-Bold'" font-size="6.534">receipt</text>
		</g>
		<line fill="none" stroke="#A9D3E1" stroke-width="2" stroke-miterlimit="10" x1="76.173" y1="37.253" x2="138.182" y2="37.253"/>
	</g>
	<line fill="none" stroke="#A9D3E1" stroke-width="2" stroke-miterlimit="10" x1="86.954" y1="121.725" x2="148.963" y2="121.725"/>
	<line fill="none" stroke="#A9D3E1" stroke-width="2" stroke-miterlimit="10" x1="86.954" y1="133.319" x2="148.963" y2="133.319"/>
	<polygon fill="#BAD2DB" points="82.085,54.084 82.085,83.295 71.113,83.295 	"/>
</g>
<g opacity="0.1">
	<circle fill="#231F20" cx="154.853" cy="37.361" r="10.765"/>
	<circle fill="#231F20" cx="166.35" cy="71.124" r="10.765"/>
	<circle fill="#231F20" cx="179.375" cy="50.147" r="10.765"/>
</g>
<circle fill="#455E7C" cx="157.518" cy="35.235" r="10.765"/>
<circle fill="#678EB5" cx="157.518" cy="35.235" r="8.74"/>
<g>
	<path fill="#8BBCE5" d="M153.395,40.901l0.902-1.546c-0.879-0.534-1.637-1.346-1.949-2.042l0.967-0.811
		c0.336,0.689,0.963,1.445,1.819,1.945c1.088,0.635,2.189,0.437,2.699-0.436c0.491-0.842,0.198-1.712-0.666-2.833
		c-1.204-1.525-1.759-2.792-0.98-4.125c0.741-1.271,2.209-1.708,3.752-1.115l0.902-1.546l0.949,0.554l-0.867,1.485
		c0.901,0.567,1.386,1.179,1.679,1.698l-0.974,0.787c-0.214-0.371-0.646-1.075-1.625-1.647c-1.18-0.688-2.035-0.243-2.393,0.369
		c-0.465,0.796-0.131,1.526,0.88,2.854c1.201,1.564,1.532,2.825,0.737,4.188c-0.706,1.21-2.211,1.851-3.939,1.19l-0.93,1.593
		L153.395,40.901z"/>
</g>
<circle fill="#455E7C" cx="169.016" cy="68.998" r="10.765"/>
<circle fill="#678EB5" cx="169.016" cy="68.998" r="8.74"/>
<g>
	<path fill="#8BBCE5" d="M170.888,75.751l-0.649-1.668c-0.965,0.356-2.072,0.444-2.812,0.256l-0.034-1.261
		c0.749,0.165,1.731,0.144,2.656-0.216c1.173-0.457,1.702-1.443,1.336-2.384c-0.354-0.909-1.217-1.22-2.632-1.239
		c-1.943-0.006-3.28-0.36-3.84-1.798c-0.533-1.371,0.036-2.792,1.46-3.631l-0.65-1.668l1.024-0.4l0.624,1.603
		c1.005-0.353,1.784-0.352,2.373-0.257l0.012,1.251c-0.425-0.063-1.243-0.164-2.301,0.248c-1.272,0.495-1.455,1.442-1.198,2.104
		c0.335,0.858,1.113,1.051,2.782,1.086c1.972,0.031,3.166,0.556,3.738,2.026c0.508,1.306,0.075,2.882-1.518,3.826l0.669,1.719
		L170.888,75.751z"/>
</g>
<circle fill="#455E7C" cx="182.04" cy="48.021" r="10.765"/>
<circle fill="#678EB5" cx="182.041" cy="48.021" r="8.74"/>
<g>
	<path fill="#8BBCE5" d="M183.913,54.774l-0.649-1.669c-0.965,0.356-2.072,0.444-2.812,0.257l-0.035-1.262
		c0.75,0.166,1.73,0.145,2.656-0.215c1.173-0.457,1.703-1.443,1.336-2.385c-0.354-0.908-1.216-1.219-2.632-1.239
		c-1.943-0.005-3.279-0.36-3.84-1.798c-0.533-1.372,0.037-2.792,1.46-3.632l-0.649-1.668l1.025-0.399l0.623,1.603
		c1.005-0.353,1.785-0.352,2.374-0.258l0.011,1.251c-0.424-0.063-1.243-0.163-2.302,0.249c-1.271,0.495-1.455,1.442-1.198,2.103
		c0.335,0.858,1.114,1.05,2.783,1.086c1.972,0.031,3.166,0.556,3.738,2.027c0.507,1.306,0.075,2.882-1.518,3.825l0.669,1.719
		L183.913,54.774z"/>
</g>
<g>
	<g>
		<defs>
			<path id="SVGID_7_" d="M83.055,188.363l-71.67-13.654c-2.08-0.396-3.444-2.404-3.048-4.484l7.818-41.03
				c0.396-2.079,2.403-3.444,4.482-3.048l71.67,13.655c2.079,0.396,3.443,2.403,3.047,4.481l-7.818,41.033
				C87.141,187.395,85.134,188.76,83.055,188.363z"/>
		</defs>
		<clipPath id="SVGID_8_">
			<use xlink:href="#SVGID_7_"  overflow="visible"/>
		</clipPath>
	</g>
	<g>
		<defs>
			<path id="SVGID_9_" d="M83.055,188.363l-71.67-13.654c-2.08-0.396-3.444-2.404-3.048-4.484l7.818-41.03
				c0.396-2.079,2.403-3.444,4.482-3.048l71.67,13.655c2.079,0.396,3.443,2.403,3.047,4.481l-7.818,41.033
				C87.141,187.395,85.134,188.76,83.055,188.363z"/>
		</defs>
		<use xlink:href="#SVGID_9_"  overflow="visible" fill="#455E7C"/>
		<clipPath id="SVGID_10_">
			<use xlink:href="#SVGID_9_"  overflow="visible"/>
		</clipPath>
		<circle clip-path="url(#SVGID_10_)" fill="#455E7C" cx="79.662" cy="162.554" r="40.439"/>
	</g>
	<g>
		<defs>
			<path id="SVGID_11_" d="M83.055,188.363l-71.67-13.654c-2.08-0.396-3.444-2.404-3.048-4.484l7.818-41.03
				c0.396-2.079,2.403-3.444,4.482-3.048l71.67,13.655c2.079,0.396,3.443,2.403,3.047,4.481l-7.818,41.033
				C87.141,187.395,85.134,188.76,83.055,188.363z"/>
		</defs>
		<clipPath id="SVGID_12_">
			<use xlink:href="#SVGID_11_"  overflow="visible"/>
		</clipPath>
	</g>
</g>
<polygon opacity="0.1" fill="#A3B3D6" points="64.407,184.811 43.34,180.797 71.696,135.875 92.763,139.889 "/>
<rect x="16.172" y="153.101" transform="matrix(0.9823 0.1872 -0.1872 0.9823 29.4501 -1.7807)" fill="#455E7C" width="15.965" height="3.908"/>
<rect x="61.292" y="168.265" transform="matrix(0.9824 0.187 -0.187 0.9824 32.9802 -9.2479)" fill="#F1F8FC" width="8.451" height="3.909"/>
<rect x="50.29" y="166.17" transform="matrix(0.9824 0.187 -0.187 0.9824 32.3962 -7.2281)" fill="#F1F8FC" width="8.451" height="3.909"/>
<rect x="33.859" y="156.471" transform="matrix(0.9823 0.1872 -0.1872 0.9823 30.3943 -5.0319)" fill="#F1F8FC" width="15.964" height="3.907"/>
<rect x="70.383" y="163.43" transform="matrix(0.9823 0.1872 -0.1872 0.9823 32.3425 -11.7455)" fill="#F1F8FC" width="15.964" height="3.907"/>
<rect x="51.547" y="159.84" transform="matrix(0.9823 0.1872 -0.1872 0.9823 31.3367 -8.2831)" fill="#F1F8FC" width="15.965" height="3.907"/>
<rect x="54.242" y="142.464" transform="matrix(0.9823 0.1872 -0.1872 0.9823 28.2801 -10.9158)" fill="#A3B3D6" width="35.391" height="3.635"/>
<rect x="13.409" y="168.359" transform="matrix(0.9823 0.1871 -0.1871 0.9823 32.3385 -2.2239)" fill="#A3B3D6" width="29.079" height="3.636"/>
<path fill="#A3B3D6" d="M28.138,151.049l-7.616-1.451c-1.833-0.349-3.048-2.135-2.698-3.969l0.89-4.668
	c0.349-1.834,2.135-3.049,3.968-2.699l7.616,1.451c1.833,0.35,3.048,2.136,2.698,3.969l-0.89,4.67
	C31.757,150.186,29.972,151.398,28.138,151.049z"/>
<circle fill="#A3B3D6" cx="79.607" cy="180.879" r="3.767"/>
<circle fill="#A9D3E1" cx="75.116" cy="180.023" r="3.767"/>
</svg>
