<?xml version="1.0" encoding="utf-8"?>
<!-- Generator: Adobe Illustrator 16.0.0, SVG Export Plug-In . SVG Version: 6.00 Build 0)  -->
<!DOCTYPE svg PUBLIC "-//W3C//DTD SVG 1.1//EN" "http://www.w3.org/Graphics/SVG/1.1/DTD/svg11.dtd">
<svg version="1.1" id="Layer_1" xmlns="http://www.w3.org/2000/svg" xmlns:xlink="http://www.w3.org/1999/xlink" x="0px" y="0px"
	 width="200px" height="185.667px" viewBox="0 0 200 185.667" enable-background="new 0 0 200 185.667" xml:space="preserve">
<path opacity="0.23" fill="#1D1D1B" enable-background="new    " d="M143.066,174.591h-2.074c-0.021-0.821-0.159-0.891-0.159-0.891
	l-6.624-0.533c-0.171-0.647-0.42-0.713-0.42-0.713l-24.671-1.154v-0.424h-1.772h-0.941H73.119h-0.834H70.59
	c-0.593,0-1.073,0.48-1.073,1.074v0.414H66.11c-0.622,0-1.127,0.504-1.127,1.127v2.801c0,0.621,0.505,1.127,1.127,1.127h3.406v0.414
	c0,0.594,0.48,1.074,1.073,1.074h1.695h0.834h33.286h0.941h1.771v-0.426l24.671-1.152c0,0,0.196-0.151,0.36-0.709l6.684-0.539
	c0,0,0.122-0.164,0.154-0.891h2.078c0.166,0,0.302-0.133,0.302-0.299S143.232,174.591,143.066,174.591z"/>
<path opacity="0.23" fill="#1D1D1B" enable-background="new    " d="M62.548,153.289c0,0,91.283,12.688,105.134,12.58
	c8.133-26.914,12.411-103.3,26.846-134.926c-1.83-0.29-11.844-1.746-11.844-1.746L62.548,153.289z"/>
<path fill="#EAEAEA" d="M165.143,162.998c-30.721,2.907-102.594-9.709-102.594-9.709L84.726,13.514l106.56,16.908
	C191.286,30.422,166.348,155.405,165.143,162.998z"/>
<text transform="matrix(0.9876 0.1567 -0.1567 0.9876 108.7285 37.6377)" fill="#465F7D" font-family="'Raleway'" font-size="9.1851">REGISTRATION</text>
<g>
	<g>
		<g>
			<path fill="#51BD89" d="M102.764,58.935l-3.65-4.804l1.875-1.424l2.228,2.928l10.671-8.037l1.424,1.875L102.764,58.935z"/>
		</g>
	</g>
	<path fill="#595A5A" d="M106.495,63.966l-10.532-1.672c-1.394-0.221-2.348-1.535-2.127-2.93l1.688-10.639
		c0.222-1.394,1.536-2.349,2.93-2.127l10.532,1.67l-0.213,1.342l-10.531-1.672c-0.655-0.104-1.272,0.345-1.376,0.999l-1.688,10.64
		c-0.104,0.655,0.344,1.272,1,1.376l10.533,1.671c0.654,0.104,1.271-0.344,1.375-0.999l0.666-4.193l1.34,0.212l-0.665,4.194
		C109.203,63.232,107.889,64.187,106.495,63.966z"/>
	
		<rect x="116.638" y="57.475" transform="matrix(-0.9876 -0.1567 0.1567 -0.9876 273.449 138.7195)" fill="#BEBFBF" width="51.11" height="2.21"/>
	
		<rect x="115.619" y="63.889" transform="matrix(-0.9876 -0.1567 0.1567 -0.9876 270.4194 151.3087)" fill="#BEBFBF" width="51.11" height="2.211"/>
</g>
<g>
	<g>
		<g>
			<path fill="#51BD89" d="M98.57,85.362l-3.65-4.803l1.875-1.425l2.226,2.929l10.67-8.037l1.425,1.875L98.57,85.362z"/>
		</g>
	</g>
	<path fill="#595A5A" d="M102.302,90.393l-10.532-1.67c-1.395-0.223-2.349-1.537-2.127-2.93l1.688-10.64
		c0.221-1.394,1.535-2.349,2.929-2.127l10.533,1.671l-0.214,1.341l-10.531-1.671c-0.655-0.104-1.272,0.345-1.376,0.999l-1.688,10.64
		c-0.104,0.654,0.344,1.272,0.999,1.375l10.533,1.672c0.654,0.104,1.271-0.346,1.375-1l0.666-4.194l1.34,0.213l-0.664,4.194
		C105.01,89.661,103.695,90.614,102.302,90.393z"/>
	
		<rect x="112.591" y="82.045" transform="matrix(-0.9876 -0.1567 0.1567 -0.9876 237.9809 185.0639)" fill="#BEBFBF" width="27.39" height="2.21"/>
	
		<rect x="111.426" y="90.316" transform="matrix(-0.9876 -0.1567 0.1567 -0.9876 257.944 203.1774)" fill="#BEBFBF" width="51.109" height="2.211"/>
</g>
<g>
	<g>
		<g>
			<path fill="#51BD89" d="M94.376,111.792l-3.649-4.803l1.875-1.425l2.225,2.927l10.671-8.035l1.424,1.875L94.376,111.792z"/>
		</g>
	</g>
	<path fill="#595A5A" d="M98.109,116.821l-10.532-1.67c-1.394-0.221-2.349-1.534-2.127-2.93l1.688-10.64
		c0.221-1.395,1.535-2.35,2.93-2.127l10.532,1.67l-0.212,1.34l-10.532-1.67c-0.654-0.104-1.272,0.345-1.375,1l-1.688,10.64
		c-0.104,0.653,0.345,1.271,0.999,1.377l10.532,1.67c0.654,0.104,1.272-0.345,1.376-0.998l0.665-4.194l1.341,0.213l-0.666,4.192
		C100.816,116.087,99.503,117.042,98.109,116.821z"/>
	
		<rect x="108.315" y="109.507" transform="matrix(-0.9876 -0.1567 0.1567 -0.9876 238.3093 240.0125)" fill="#BEBFBF" width="40.601" height="2.211"/>
	
		<rect x="107.232" y="116.743" transform="matrix(-0.9876 -0.1567 0.1567 -0.9876 245.4673 255.0488)" fill="#BEBFBF" width="51.11" height="2.211"/>
</g>
<g>
	<g>
		<g>
			<path fill="#51BD89" d="M90.184,138.218l-3.651-4.803l1.875-1.424l2.226,2.928l10.671-8.037l1.424,1.875L90.184,138.218z"/>
		</g>
	</g>
	<path fill="#595A5A" d="M93.915,143.25l-10.532-1.672c-1.394-0.221-2.348-1.535-2.127-2.93l1.688-10.639
		c0.222-1.395,1.536-2.348,2.93-2.127l10.532,1.672l-0.213,1.34l-10.532-1.672c-0.655-0.104-1.272,0.344-1.376,1l-1.688,10.639
		c-0.104,0.654,0.344,1.273,0.999,1.377l10.531,1.67c0.655,0.104,1.272-0.344,1.376-0.998l0.666-4.193l1.341,0.211l-0.666,4.195
		C96.624,142.518,95.31,143.471,93.915,143.25z"/>
	
		<rect x="104.267" y="134.152" transform="matrix(-0.9877 -0.1566 0.1566 -0.9877 203.6514 286.5583)" fill="#BEBFBF" width="17.689" height="2.213"/>
	
		<rect x="103.161" y="141.663" transform="matrix(-0.9876 -0.1567 0.1567 -0.9876 214.3387 302.4353)" fill="#BEBFBF" width="31.865" height="2.209"/>
</g>
<rect x="98.435" y="32.92" transform="matrix(-0.9885 -0.1514 0.1514 -0.9885 267.8409 100.4153)" fill="none" stroke="#215375" stroke-width="2" stroke-miterlimit="10" width="78.616" height="14.182"/>
<path opacity="0.23" fill="#1D1D1B" enable-background="new    " d="M30.691,166.962l5.623,0.24c0,0,70.807-12.436,96.336-20.268
	c-8.055-30.916-25.754-103.371-22.572-137.988c-1.823,0.33-6.963,1.216-6.963,1.216L30.691,166.962z"/>
<path fill="#EAEAEA" d="M130.738,142.251c-28.039,12.888-100.047,24.711-100.047,24.711L5.473,27.707L111.639,8.48
	C111.639,8.48,129.367,134.688,130.738,142.251z"/>
<text transform="matrix(0.984 -0.1782 0.1782 0.984 36.4453 44.5161)" fill="#465F7D" font-family="'Raleway'" font-size="9.1855">REGISTRATION</text>
<rect x="20.373" y="28.532" transform="matrix(-0.9846 0.175 -0.175 -0.9846 124.6748 60.2536)" fill="none" stroke="#215375" stroke-width="2" stroke-miterlimit="10" width="78.616" height="14.183"/>
<g>
	<g>
		<path fill="#688FB5" d="M37.496,64.623l-5.031-3.328l1.299-1.964l3.068,2.029l7.418-11.109l1.964,1.3L37.496,64.623z"/>
	</g>
</g>
<path fill="#595A5A" d="M42.68,68.14l-10.493,1.9c-1.39,0.252-2.724-0.674-2.975-2.063l-1.92-10.601
	c-0.251-1.389,0.674-2.724,2.063-2.975l10.493-1.9l0.243,1.336l-10.494,1.9c-0.652,0.118-1.087,0.745-0.969,1.397l1.919,10.6
	c0.118,0.652,0.745,1.087,1.397,0.969l10.493-1.9c0.652-0.118,1.086-0.745,0.968-1.396l-0.757-4.178l1.337-0.242l0.756,4.179
	C44.994,66.554,44.069,67.889,42.68,68.14z"/>
<rect x="49.048" y="50.17" transform="matrix(-0.984 0.1782 -0.1782 -0.984 157.1505 88.4351)" fill="#BEBFBF" width="51.112" height="2.21"/>
<rect x="50.203" y="56.559" transform="matrix(-0.984 0.1782 -0.1782 -0.984 160.5819 100.9045)" fill="#BEBFBF" width="51.112" height="2.21"/>
<g>
	<g>
		<path fill="#688FB5" d="M42.265,90.954l-5.032-3.328l1.299-1.963l3.069,2.03l7.418-11.11l1.963,1.299L42.265,90.954z"/>
	</g>
</g>
<path fill="#595A5A" d="M47.448,94.471l-10.493,1.899c-1.389,0.252-2.723-0.672-2.976-2.063L32.06,83.708
	c-0.252-1.39,0.674-2.724,2.063-2.976l10.493-1.9l0.242,1.336l-10.494,1.9c-0.652,0.118-1.086,0.745-0.968,1.397l1.919,10.599
	c0.118,0.652,0.746,1.088,1.398,0.971l10.493-1.9c0.652-0.119,1.087-0.746,0.969-1.398l-0.757-4.178l1.335-0.242l0.757,4.18
	C49.762,92.883,48.836,94.218,47.448,94.471z"/>
<rect x="54.006" y="78.612" transform="matrix(-0.984 0.1782 -0.1782 -0.984 148.526 146.0939)" fill="#BEBFBF" width="27.391" height="2.21"/>
<rect x="54.972" y="82.888" transform="matrix(-0.984 0.1782 -0.1782 -0.984 174.7344 152.2935)" fill="#BEBFBF" width="51.111" height="2.211"/>
<g>
	<g>
		<path fill="#688FB5" d="M47.033,117.285l-5.031-3.328l1.299-1.963l3.068,2.028l7.418-11.108l1.964,1.299L47.033,117.285z"/>
	</g>
</g>
<path fill="#595A5A" d="M52.216,120.8l-10.493,1.9c-1.39,0.252-2.724-0.674-2.975-2.063l-1.92-10.602
	c-0.251-1.39,0.674-2.724,2.063-2.976l10.494-1.899l0.241,1.336l-10.492,1.899c-0.653,0.117-1.088,0.746-0.97,1.397l1.92,10.601
	c0.118,0.651,0.745,1.088,1.397,0.97l10.493-1.9c0.652-0.117,1.087-0.746,0.969-1.398l-0.757-4.178l1.336-0.242l0.756,4.178
	C54.531,119.214,53.604,120.548,52.216,120.8z"/>
<rect x="58.671" y="103.766" transform="matrix(-0.984 0.1782 -0.1782 -0.984 175.3706 193.9878)" fill="#BEBFBF" width="40.603" height="2.209"/>
<rect x="59.742" y="109.219" transform="matrix(-0.984 0.1782 -0.1782 -0.984 188.8898 203.683)" fill="#BEBFBF" width="51.112" height="2.209"/>
<g>
	<g>
		<path fill="#688FB5" d="M51.801,143.617l-5.032-3.328l1.299-1.965l3.068,2.028l7.418-11.108l1.963,1.301L51.801,143.617z"/>
	</g>
</g>
<path fill="#595A5A" d="M56.984,147.13l-10.493,1.9c-1.389,0.252-2.724-0.674-2.975-2.063l-1.92-10.6
	c-0.251-1.392,0.674-2.726,2.063-2.976l10.493-1.901l0.242,1.336L43.9,134.727c-0.652,0.119-1.086,0.746-0.968,1.397l1.919,10.601
	c0.118,0.651,0.745,1.086,1.398,0.969l10.493-1.899c0.652-0.117,1.087-0.744,0.969-1.396l-0.757-4.18l1.336-0.242l0.757,4.18
	C59.298,145.544,58.374,146.88,56.984,147.13z"/>
<rect x="63.618" y="132.142" transform="matrix(-0.984 0.1782 -0.1782 -0.984 167.5039 251.4501)" fill="#BEBFBF" width="17.688" height="2.209"/>
<rect x="64.666" y="137.263" transform="matrix(-0.984 0.1782 -0.1782 -0.984 184.5702 260.1541)" fill="#BEBFBF" width="31.866" height="2.209"/>
<path opacity="0.23" fill="#1D1D1B" enable-background="new    " d="M48.537,155.044c0,0,98.711,4.414,112.375,2.138
	c-2.418-31.856-8.26-105.435-2.197-142.885c-2.311-0.289-10.973-0.635-10.973-0.635L48.537,155.044z"/>
<path fill="#EAEAEA" d="M151.385,148.559c-29.885,7.687-102.848,6.485-102.848,6.485V13.524H156.43
	C156.43,13.524,151.385,140.873,151.385,148.559z"/>
<text transform="matrix(1 0 0 1 68.0815 34.5039)" fill="#465F7D" font-family="'Raleway'" font-size="9.1854">REGISTRATIONS</text>
<g>
	<g>
		<path fill="#688FB5" d="M73.469,55.557l-4.358-4.172l1.628-1.7l2.658,2.543l9.279-9.609l1.701,1.629L73.469,55.557z"/>
	</g>
</g>
<path fill="#595A5A" d="M77.943,59.94H67.28c-1.412,0-2.561-1.148-2.561-2.56V46.608c0-1.412,1.148-2.56,2.561-2.56h10.664v1.357
	H67.28c-0.664,0-1.203,0.54-1.203,1.203V57.38c0,0.663,0.539,1.202,1.203,1.202h10.664c0.663,0,1.202-0.539,1.202-1.202v-4.246
	h1.357v4.246C80.503,58.792,79.355,59.94,77.943,59.94z"/>
<rect x="86.805" y="47.929" fill="#BEBFBF" width="51.111" height="2.21"/>
<rect x="86.805" y="54.421" fill="#BEBFBF" width="51.111" height="2.211"/>
<g>
	<g>
		<path fill="#688FB5" d="M73.469,82.315l-4.358-4.172l1.628-1.7l2.658,2.543l9.279-9.609l1.701,1.629L73.469,82.315z"/>
	</g>
</g>
<path fill="#595A5A" d="M77.943,86.7H67.28c-1.412,0-2.561-1.149-2.561-2.56V73.367c0-1.411,1.148-2.56,2.561-2.56h10.664v1.357
	H67.28c-0.664,0-1.203,0.539-1.203,1.202V84.14c0,0.663,0.539,1.202,1.203,1.202h10.664c0.663,0,1.202-0.539,1.202-1.202v-4.246
	h1.357v4.246C80.503,85.551,79.355,86.7,77.943,86.7z"/>
<rect x="86.805" y="74.688" fill="#BEBFBF" width="27.39" height="2.211"/>
<rect x="86.805" y="81.181" fill="#BEBFBF" width="51.111" height="2.21"/>
<g>
	<g>
		<path fill="#688FB5" d="M73.469,109.076l-4.358-4.173l1.628-1.7l2.658,2.545l9.279-9.611l1.701,1.629L73.469,109.076z"/>
	</g>
</g>
<path fill="#595A5A" d="M77.943,113.458H67.28c-1.412,0-2.561-1.147-2.561-2.561v-10.771c0-1.412,1.148-2.563,2.561-2.563h10.664
	v1.359H67.28c-0.664,0-1.203,0.539-1.203,1.203v10.771c0,0.662,0.539,1.201,1.203,1.201h10.664c0.663,0,1.202-0.539,1.202-1.201
	v-4.246h1.357v4.246C80.503,112.311,79.355,113.458,77.943,113.458z"/>
<rect x="86.805" y="101.446" fill="#BEBFBF" width="40.604" height="2.212"/>
<rect x="86.805" y="107.94" fill="#BEBFBF" width="51.111" height="2.209"/>
<g>
	<g>
		<path fill="#688FB5" d="M73.469,135.833l-4.358-4.172l1.628-1.701l2.658,2.543l9.279-9.608l1.701,1.629L73.469,135.833z"/>
	</g>
</g>
<path fill="#595A5A" d="M77.943,140.216H67.28c-1.412,0-2.561-1.147-2.561-2.561v-10.771c0-1.411,1.148-2.561,2.561-2.561h10.664
	v1.357H67.28c-0.664,0-1.203,0.539-1.203,1.203v10.771c0,0.664,0.539,1.203,1.203,1.203h10.664c0.663,0,1.202-0.539,1.202-1.203
	v-4.245h1.357v4.245C80.503,139.069,79.355,140.216,77.943,140.216z"/>
<rect x="86.805" y="128.207" fill="#BEBFBF" width="17.688" height="2.211"/>
<rect x="86.805" y="134.699" fill="#BEBFBF" width="31.865" height="2.211"/>
<path fill="#3C3C3B" d="M141.6,173.126L141.6,173.126c0,0.166-0.134,0.299-0.299,0.299h-2.146c-0.165,0-0.301-0.133-0.301-0.299l0,0
	c0-0.166,0.136-0.301,0.301-0.301h2.146C141.466,172.828,141.6,172.96,141.6,173.126z"/>
<path fill="#688FB5" d="M139.066,171.936c0,0,0.164,0.067,0.164,1.117c0,1.049-0.164,1.264-0.164,1.264l-7.156,0.576v-3.533
	L139.066,171.936z"/>
<path fill="#3C3C3B" d="M63.217,174.526v-2.799c0-0.623,0.504-1.127,1.127-1.127h3.859v5.055h-3.859
	C63.721,175.655,63.217,175.149,63.217,174.526z"/>
<rect x="70.519" y="169.112" fill="#3C3C3B" width="35.061" height="8.031"/>
<path fill="#3C3C3B" d="M132.021,170.69c0,0,0.58,0.14,0.58,2.287s-0.58,2.588-0.58,2.588l-25.289,1.183v-7.24L132.021,170.69z"/>
<path fill="#688FB5" d="M71.353,169.112v8.031h-2.53c-0.593,0-1.073-0.481-1.073-1.074v-5.885c0-0.593,0.48-1.072,1.073-1.072
	H71.353z"/>
<polygon fill="#688FB5" points="128.299,175.74 131.221,175.602 131.221,170.651 128.299,170.514 "/>
<path fill="#688FB5" d="M97.59,173.126L97.59,173.126c0-0.793-0.643-1.436-1.435-1.436H74.331v2.869h21.824
	C96.947,174.561,97.59,173.917,97.59,173.126z"/>
<rect x="104.639" y="169.112" fill="#688FB5" width="2.715" height="8.031"/>
<path opacity="0.51" fill="#5D5E5E" enable-background="new    " d="M63.217,173.11v1.416c0,0.623,0.504,1.129,1.127,1.129h3.405
	v0.414c0,0.593,0.48,1.074,1.073,1.074h1.696h0.833h33.286h0.941h1.771v-0.427l24.67-1.151c0,0,0.198-0.153,0.362-0.709l6.683-0.539
	c0,0,0.123-0.161,0.156-0.892h2.077c0.165,0,0.3-0.133,0.3-0.299c0-0.008-0.002-0.012-0.004-0.018L63.217,173.11L63.217,173.11z"/>
<rect x="64.19" y="24.022" fill="none" stroke="#215375" stroke-width="2" stroke-miterlimit="10" width="78.615" height="14.183"/>
</svg>
