<?xml version="1.0" encoding="utf-8"?>
<!-- Generator: Adobe Illustrator 16.0.0, SVG Export Plug-In . SVG Version: 6.00 Build 0)  -->
<!DOCTYPE svg PUBLIC "-//W3C//DTD SVG 1.1//EN" "http://www.w3.org/Graphics/SVG/1.1/DTD/svg11.dtd">
<svg version="1.1" id="Layer_1" xmlns="http://www.w3.org/2000/svg" xmlns:xlink="http://www.w3.org/1999/xlink" x="0px" y="0px"
	 width="189px" height="200px" viewBox="0 0 189 200" enable-background="new 0 0 189 200" xml:space="preserve">
<path fill="#778EB0" d="M45.176,151.816h73.153c2.64,0,4.78-2.14,4.78-4.779v-16.364c0-2.639-2.142-4.778-4.78-4.778H45.176V151.816
	z"/>
<path fill="#6D6D6D" d="M22.099,190.659h89.148c1.897,0,3.437-1.539,3.437-3.437v-10.871c0-1.897-1.537-3.436-3.437-3.436H22.099
	V190.659z"/>
<path fill="#636363" d="M12.6,174.855v13.862h-2.354v1.938h41.831c1.308,0,2.374-1.063,2.374-2.372V175.29
	c0-1.312-1.064-2.374-2.374-2.374H10.245v1.938L12.6,174.855L12.6,174.855z"/>
<path fill="#FDFCF1" d="M12.601,188.719h37.446c1.26,0,2.281-1.021,2.281-2.281v-9.299c0-1.261-1.021-2.281-2.281-2.281H12.601
	V188.719z"/>
<path fill="#6C839E" d="M32.702,128.563v20.588h-1.273v2.666h53.006c2.729,0,4.94-2.209,4.94-4.939v-16.044
	c0-2.729-2.211-4.938-4.94-4.938H31.429v2.666h1.273V128.563z"/>
<path fill="#FDFCF1" d="M32.702,149.148h49.021c2.729,0,4.942-2.213,4.942-4.94v-10.706c0-2.73-2.213-4.941-4.942-4.941H32.702
	V149.148z"/>
<path fill="#5D81A5" d="M60.976,172.917h71.827c3.372,0,6.106-2.735,6.106-6.11v-8.879c0-3.373-2.735-6.109-6.106-6.109H60.976
	V172.917z"/>
<path fill="#46607E" d="M48.5,153.99v16.755h-1.273v2.174h51.841c3.373,0,6.105-2.735,6.105-6.108v-8.883
	c0-3.373-2.734-6.107-6.105-6.107H47.227v2.171L48.5,153.99L48.5,153.99z"/>
<path fill="#FDFCF1" d="M48.502,170.745H96.52c3.375,0,6.108-2.734,6.108-6.108V160.1c0-3.373-2.733-6.106-6.108-6.106H48.502
	V170.745z"/>
<rect x="56.972" y="159.333" fill="#DECCC5" width="20.569" height="0.53"/>
<rect x="68.522" y="160.943" fill="#DECCC5" width="20.569" height="0.531"/>
<rect x="24.607" y="184.764" fill="#DECCC5" width="20.569" height="0.529"/>
<rect x="25.794" y="180.055" fill="#FDFCF1" width="21.964" height="0.528"/>
<rect x="40.869" y="181.521" fill="#DECCC5" width="9.086" height="0.529"/>
<rect x="56.75" y="142.482" fill="#DECCC5" width="21.963" height="0.529"/>
<rect x="55.025" y="139.221" fill="#DECCC5" width="21.963" height="0.529"/>
<rect x="54.941" y="143.953" fill="#DECCC5" width="9.086" height="0.527"/>
<rect x="19.539" y="175.814" fill="#DECCC5" width="10.583" height="0.617"/>
<rect x="54.619" y="164.379" fill="#FDFCF1" width="21.963" height="0.527"/>
<rect x="65.219" y="160.943" fill="#C4C4C4" width="21.963" height="0.529"/>
<rect x="18.779" y="183.191" fill="#C4C4C4" width="21.964" height="0.527"/>
<rect x="63.824" y="164.643" fill="#C4C4C4" width="21.964" height="0.527"/>
<rect x="58.92" y="162.672" fill="#C4C4C4" width="21.963" height="0.528"/>
<rect x="20.158" y="179.525" fill="#C4C4C4" width="21.964" height="0.527"/>
<rect x="45.868" y="141.366" fill="#C4C4C4" width="21.964" height="0.528"/>
<rect x="40.59" y="137.503" fill="#C4C4C4" width="21.963" height="0.528"/>
<circle fill="#99999A" cx="127.543" cy="42.649" r="11.218"/>
<g>
	<path fill="#FFFFFF" d="M123.635,51.203c-4.715-2.156-6.799-7.745-4.645-12.46c2.154-4.715,7.744-6.799,12.459-4.645
		c4.715,2.154,6.801,7.745,4.645,12.459C133.939,51.273,128.352,53.357,123.635,51.203z M131.188,34.675
		c-4.397-2.008-9.608-0.064-11.619,4.331c-2.01,4.398-0.063,9.609,4.33,11.618c4.4,2.009,9.609,0.065,11.619-4.332
		S135.582,36.684,131.188,34.675z"/>
</g>
<g>
	<path fill="#FFFFFF" d="M122.4,51.845c-0.103-0.058-0.135-0.193-0.08-0.289l0,0c0.055-0.105,0.184-0.142,0.287-0.083l0,0
		c0.1,0.053,0.141,0.184,0.084,0.29l0,0c-0.055,0.096-0.174,0.135-0.273,0.089l0,0C122.408,51.848,122.4,51.845,122.4,51.845z
		 M123.854,52.292c0.041-0.111,0.16-0.168,0.273-0.126l0,0c0.113,0.034,0.168,0.161,0.131,0.265l0,0
		c-0.043,0.111-0.162,0.167-0.273,0.126l0,0c-0.008-0.003-0.02,0.001-0.02,0.001l0,0C123.865,52.513,123.816,52.396,123.854,52.292z
		 M120.959,50.868L120.959,50.868L120.959,50.868c-0.092-0.069-0.102-0.205-0.033-0.295l0,0c0.066-0.088,0.207-0.11,0.293-0.032l0,0
		c0.098,0.072,0.111,0.208,0.033,0.293l0,0c-0.059,0.085-0.166,0.103-0.252,0.063l0,0C120.984,50.891,120.971,50.883,120.959,50.868
		z M125.488,52.77c0.025-0.118,0.135-0.19,0.248-0.175l0,0c0.111,0.022,0.188,0.133,0.176,0.248l0,0
		c-0.027,0.116-0.135,0.19-0.256,0.173l0,0c-0.018-0.008-0.031-0.016-0.047-0.022l0,0C125.523,52.955,125.473,52.866,125.488,52.77z
		 M119.695,49.676c-0.078-0.091-0.074-0.22,0.018-0.299l0,0c0.084-0.083,0.217-0.068,0.299,0.015l0,0
		c0.07,0.089,0.068,0.218-0.016,0.3l0,0c-0.064,0.056-0.16,0.067-0.23,0.036l0,0C119.736,49.713,119.715,49.695,119.695,49.676z
		 M127.184,52.969c0-0.122,0.096-0.208,0.211-0.214l0.008,0.004c0.111-0.004,0.207,0.097,0.199,0.214l0,0
		c0,0.122-0.096,0.208-0.207,0.21l0,0l0,0l0,0c-0.035-0.006-0.063-0.009-0.084-0.019l0,0
		C127.232,53.129,127.184,53.051,127.184,52.969z M118.646,48.286c-0.06-0.093-0.035-0.231,0.065-0.287l0,0
		c0.095-0.069,0.229-0.034,0.289,0.058l0,0c0.063,0.104,0.035,0.23-0.062,0.297l0,0c-0.063,0.038-0.139,0.039-0.2,0.012l0,0
		C118.701,48.348,118.668,48.322,118.646,48.286z M128.881,52.886c-0.014-0.117,0.064-0.223,0.178-0.245l0,0
		c0.119-0.019,0.229,0.068,0.242,0.178l0,0c0.021,0.119-0.063,0.221-0.178,0.244l0,0c-0.039,0.008-0.082-0.002-0.121-0.019l0,0
		C128.941,53.017,128.895,52.957,128.881,52.886z M117.843,46.744c-0.045-0.104,0.003-0.23,0.108-0.275l0,0
		c0.111-0.042,0.238,0.006,0.283,0.109l0,0c0.043,0.112-0.006,0.239-0.119,0.282l0,0c-0.055,0.02-0.113,0.022-0.166-0.002l0,0
		C117.902,46.837,117.863,46.801,117.843,46.744z M130.545,52.52c-0.033-0.109,0.031-0.228,0.139-0.262l0,0
		c0.109-0.035,0.232,0.021,0.269,0.13l0,0c0.041,0.112-0.022,0.232-0.138,0.274l0,0c-0.051,0.014-0.104,0.007-0.151-0.013l0,0
		C130.609,52.625,130.563,52.584,130.545,52.52z M117.299,45.101c-0.025-0.125,0.043-0.233,0.158-0.263l0,0
		c0.115-0.022,0.221,0.045,0.254,0.16l0,0c0.029,0.117-0.039,0.226-0.156,0.256l0,0c-0.049,0.006-0.094,0.003-0.141-0.018l0,0
		C117.359,45.213,117.318,45.164,117.299,45.101z M132.135,51.896c-0.055-0.108-0.018-0.229,0.084-0.287l0,0
		c0.107-0.052,0.23-0.016,0.283,0.092l0,0c0.057,0.102,0.016,0.232-0.084,0.288l0,0c-0.061,0.029-0.133,0.024-0.186-0.001l0,0
		C132.193,51.97,132.15,51.94,132.135,51.896z M117.035,43.378L117.035,43.378L117.035,43.378c-0.014-0.116,0.078-0.215,0.197-0.227
		l0,0c0.115-0.012,0.215,0.08,0.227,0.197l0,0c0.004,0.114-0.081,0.215-0.197,0.227l0,0c-0.039,0.001-0.072-0.005-0.104-0.02l0,0
		C117.09,43.524,117.045,43.457,117.035,43.378z M133.59,51.015c-0.068-0.096-0.047-0.226,0.041-0.296l0,0
		c0.096-0.068,0.23-0.053,0.297,0.043l0,0c0.072,0.086,0.053,0.228-0.041,0.296l0,0c-0.061,0.047-0.148,0.055-0.217,0.023l0,0
		C133.641,51.067,133.613,51.045,133.59,51.015z M117.057,41.638c0.017-0.113,0.119-0.196,0.236-0.189l0,0
		c0.113,0.015,0.197,0.118,0.182,0.231l0,0c-0.007,0.119-0.108,0.202-0.227,0.194l0,0c-0.027-0.002-0.051-0.013-0.066-0.02l0,0
		C117.098,41.815,117.05,41.738,117.057,41.638z M134.887,49.904c-0.086-0.075-0.086-0.216-0.01-0.302l0,0
		c0.084-0.083,0.215-0.087,0.297-0.003l0,0c0.088,0.077,0.09,0.216,0.012,0.303l0,0l0,0l0,0c-0.063,0.063-0.16,0.084-0.244,0.047
		l0,0C134.918,49.938,134.906,49.922,134.887,49.904z M117.365,39.926c0.029-0.107,0.145-0.175,0.262-0.149l0,0
		c0.109,0.031,0.178,0.144,0.15,0.263l0,0c-0.03,0.107-0.148,0.185-0.264,0.15l0,0c-0.009-0.004-0.023-0.011-0.029-0.015l0,0
		C117.391,40.133,117.338,40.027,117.365,39.926z M135.977,48.598c-0.094-0.062-0.123-0.197-0.053-0.294l0,0
		c0.063-0.093,0.193-0.118,0.287-0.056l0,0c0.102,0.064,0.125,0.197,0.061,0.296l0,0c-0.059,0.086-0.176,0.118-0.268,0.075l0,0
		C135.998,48.616,135.994,48.606,135.977,48.598z M117.951,38.295c0.049-0.108,0.173-0.153,0.279-0.105l0,0
		c0.108,0.051,0.153,0.173,0.104,0.281l0,0c-0.045,0.1-0.174,0.154-0.278,0.106l0,0C117.949,38.526,117.902,38.404,117.951,38.295z
		 M136.738,46.851L136.738,46.851c0.004-0.009,0.004-0.009,0.006-0.016l0,0c0.006-0.008,0.008-0.015,0.012-0.024l0,0
		c0.049-0.107,0.172-0.153,0.281-0.105l0,0c0.1,0.046,0.154,0.174,0.104,0.282l0,0c-0.004,0.007-0.004,0.007-0.006,0.016l0,0
		c-0.004,0.007-0.008,0.015-0.014,0.023l0,0c-0.047,0.107-0.17,0.154-0.277,0.105l0,0C136.734,47.082,136.689,46.958,136.738,46.851
		z M118.857,37.07c-0.092-0.069-0.125-0.198-0.063-0.298l0,0c0.074-0.097,0.205-0.119,0.297-0.059l0,0
		c0.099,0.072,0.127,0.195,0.063,0.297l0,0c-0.062,0.083-0.176,0.115-0.268,0.074l0,0C118.879,37.082,118.871,37.078,118.857,37.07z
		 M137.316,45.243c0.022-0.12,0.146-0.184,0.254-0.154l0,0c0.119,0.028,0.186,0.15,0.152,0.257l0,0
		c-0.033,0.115-0.148,0.184-0.255,0.153l0,0c-0.016-0.007-0.022-0.009-0.038-0.017l0,0
		C137.336,45.439,137.289,45.342,137.316,45.243z M119.891,35.718c-0.082-0.083-0.086-0.215-0.01-0.301l0,0
		c0.086-0.082,0.217-0.088,0.303-0.01l0,0c0.084,0.083,0.088,0.215,0.01,0.303l0,0c-0.063,0.063-0.166,0.081-0.243,0.045l0,0
		C119.926,35.744,119.912,35.737,119.891,35.718z M137.609,43.6L137.609,43.6c0.008-0.118,0.108-0.201,0.227-0.193l0,0
		c0.117,0.008,0.203,0.109,0.195,0.227l0,0c-0.006,0.118-0.115,0.208-0.229,0.194l0,0c-0.026-0.003-0.055-0.005-0.077-0.016l0,0
		C137.65,43.776,137.598,43.687,137.609,43.6z M121.143,34.549c-0.078-0.091-0.057-0.221,0.033-0.292l0,0
		c0.1-0.075,0.229-0.053,0.299,0.036l0,0c0.076,0.1,0.055,0.229-0.041,0.296l0,0c-0.063,0.055-0.147,0.054-0.217,0.023l0,0
		C121.186,34.597,121.16,34.575,121.143,34.549z M137.627,41.932c-0.01-0.118,0.084-0.223,0.197-0.227l0,0
		c0.117-0.011,0.215,0.081,0.227,0.197l0,0l0,0l0,0c0.004,0.114-0.08,0.215-0.197,0.227l0,0c-0.039,0.001-0.071-0.006-0.104-0.02
		l0,0C137.682,42.078,137.637,42.01,137.627,41.932z M122.559,33.614c-0.053-0.108-0.014-0.24,0.092-0.284l0,0
		c0.101-0.056,0.23-0.016,0.287,0.084l0,0c0.049,0.098,0.015,0.231-0.094,0.285l0,0c-0.064,0.037-0.127,0.035-0.189,0.007l0,0
		C122.617,33.687,122.586,33.654,122.559,33.614z M137.367,40.277c-0.023-0.111,0.047-0.221,0.162-0.251l0,0
		c0.104-0.026,0.221,0.045,0.256,0.154l0,0c0.023,0.113-0.049,0.23-0.164,0.26l0,0c-0.043,0.01-0.096,0.002-0.135-0.013l0,0
		C137.434,40.4,137.383,40.348,137.367,40.277z M124.113,32.919c-0.037-0.121,0.025-0.241,0.135-0.274l0,0
		c0.109-0.035,0.23,0.023,0.273,0.134l0,0c0.028,0.117-0.029,0.229-0.144,0.271l0,0c-0.051,0.013-0.104,0.008-0.151-0.014l0,0
		C124.182,33.014,124.133,32.975,124.113,32.919z M136.842,38.698L136.842,38.698c-0.041-0.114,0.004-0.232,0.115-0.273l0,0
		c0.109-0.055,0.232,0.002,0.277,0.105l0,0c0.045,0.104-0.004,0.233-0.107,0.277l0,0c-0.061,0.028-0.121,0.019-0.176-0.004l0,0
		C136.904,38.782,136.865,38.744,136.842,38.698z M125.766,32.481c-0.022-0.113,0.058-0.226,0.172-0.237l0,0c0,0,0,0,0.004-0.008
		l0,0c0.109-0.015,0.224,0.065,0.234,0.181l0,0c0.021,0.113-0.057,0.225-0.174,0.238l0,0c-0.041,0.008-0.082-0.001-0.115-0.015l0,0
		C125.818,32.609,125.771,32.549,125.766,32.481z M136.066,37.216c-0.06-0.092-0.035-0.23,0.065-0.287l0,0
		c0.104-0.064,0.229-0.036,0.298,0.063l0,0c0.057,0.099,0.034,0.229-0.068,0.293l0,0c-0.064,0.037-0.139,0.039-0.201,0.012l0,0
		C136.123,37.279,136.094,37.257,136.066,37.216z M127.459,32.323c0.002-0.108,0.092-0.208,0.213-0.207l0,0
		c0.119,0.005,0.209,0.094,0.209,0.217l0,0c0,0.119-0.096,0.208-0.215,0.208l0,0c-0.027-0.003-0.055-0.006-0.084-0.02l0,0
		C127.512,32.488,127.457,32.407,127.459,32.323z M135.063,35.891c-0.08-0.092-0.076-0.221,0.017-0.299l0,0
		c0.084-0.083,0.217-0.067,0.299,0.016l0,0l0,0l0,0c0.072,0.089,0.07,0.218-0.017,0.301l0,0c-0.063,0.055-0.159,0.066-0.229,0.035
		l0,0C135.1,35.926,135.08,35.91,135.063,35.891z M129.158,32.45c0.023-0.111,0.135-0.19,0.244-0.168l0,0l0,0l0,0
		c0.111,0.024,0.19,0.134,0.168,0.245l0,0c-0.016,0.114-0.125,0.194-0.244,0.167l0,0c-0.02,0.002-0.035-0.006-0.049-0.011l0,0
		C129.191,32.641,129.141,32.553,129.158,32.45z M133.842,34.748c-0.086-0.078-0.102-0.205-0.027-0.302l0,0
		c0.066-0.09,0.203-0.101,0.293-0.034l0,0l0,0l0,0c0.099,0.073,0.111,0.208,0.033,0.295l0,0c-0.057,0.084-0.168,0.1-0.25,0.062l0,0
		C133.873,34.763,133.857,34.755,133.842,34.748z M130.814,32.861c0.033-0.115,0.158-0.168,0.264-0.131l0,0l0,0l0,0
		c0.111,0.042,0.17,0.162,0.129,0.272l0,0c-0.033,0.107-0.158,0.162-0.264,0.123l0,0c-0.012,0.004-0.019,0.001-0.027-0.002l0,0
		C130.826,33.082,130.775,32.965,130.814,32.861z M132.463,33.819c-0.105-0.058-0.141-0.184-0.084-0.289l0,0
		c0.057-0.104,0.186-0.139,0.289-0.082l0,0l0,0l0,0c0.098,0.053,0.139,0.186,0.082,0.288l0,0c-0.063,0.093-0.18,0.132-0.273,0.09
		l0,0C132.469,33.823,132.463,33.819,132.463,33.819z"/>
</g>
<path fill="#FFFFFF" d="M128.896,42.278l1.438-3.154c0.188,0.181,0.334,0.393,0.442,0.641c0.127,0.269,0.009,0.102-0.008,0.312
	c-0.01,0.18,0.293,0.746,0.472,0.771l0.639,0.092c0.099,0.013,0.199-0.016,0.272-0.084c0.076-0.065,0.117-0.161,0.117-0.263
	c-0.022-1.125-0.496-2.008-1.406-2.623l0.216-0.473c0.078-0.173-0.027-0.75-0.199-0.83l-0.905-0.053
	c-0.173-0.078-0.375-0.002-0.453,0.171l-0.205,0.45c-0.824-0.259-1.574-0.291-2.234-0.094c-0.77,0.229-1.332,0.726-1.674,1.476
	c-0.336,0.735-0.295,1.461,0.117,2.146c0.094,0.175,0.342,0.538,1.401,1.695l-2.03,4.448c-0.734-0.438-1.158-1.012-1.293-1.744
	c-0.062-0.333-0.076-0.558,0.014-0.962c0.02-0.092,0.012-0.326-0.021-0.416c-0.084-0.241-0.164-0.595-0.26-0.608l-0.58,0.365
	c-0.17-0.026-0.332,0.077-0.383,0.241c-0.156,0.527-0.191,1.035-0.104,1.513c0.205,1.066,0.922,1.969,2.137,2.682l-0.371,0.073
	c-0.08,0.172,0.193,0.689,0.365,0.767l0.936,0.427c0.172,0.078,0.375,0.002,0.453-0.17l0.182-0.393
	c2.01,0.612,3.543-0.093,4.436-2.049C130.908,45.533,130.414,44.106,128.896,42.278z M126.953,39.358
	c0.201-0.44,0.49-0.734,0.883-0.896c0.297-0.122,0.613-0.156,0.965-0.101l-1.158,2.534c-0.475-0.495-0.617-0.665-0.651-0.714
	C126.826,39.924,126.814,39.662,126.953,39.358z M128.854,45.912c-0.547,1.195-1.297,1.704-2.342,1.582l1.629-3.567
	C128.957,45.034,128.99,45.613,128.854,45.912z"/>
<path fill="#E5DAD3" d="M128.697,41.733l1.443-3.155c0.188,0.183,0.334,0.393,0.44,0.641c0.127,0.269,0.185,0.511,0.172,0.721
	c-0.012,0.179,0.113,0.336,0.293,0.361l0.636,0.091c0.1,0.017,0.202-0.015,0.274-0.081c0.076-0.067,0.121-0.163,0.119-0.265
	c-0.023-1.126-0.496-2.006-1.408-2.622l0.215-0.474c0.078-0.173,0.002-0.376-0.168-0.455l-0.938-0.428
	c-0.172-0.078-0.375-0.002-0.453,0.17l-0.206,0.451c-0.822-0.259-1.572-0.292-2.232-0.092c-0.768,0.227-1.332,0.724-1.674,1.474
	c-0.336,0.735-0.293,1.462,0.119,2.146c0.094,0.174,0.34,0.539,1.401,1.695l-2.033,4.448c-0.733-0.438-1.157-1.011-1.295-1.742
	c-0.059-0.333-0.043-0.708,0.048-1.112c0.02-0.092,0-0.188-0.052-0.267c-0.053-0.079-0.135-0.131-0.229-0.146l-0.608-0.097
	c-0.17-0.028-0.334,0.076-0.381,0.24c-0.16,0.527-0.197,1.035-0.107,1.513c0.205,1.065,0.924,1.968,2.139,2.681l-0.176,0.387
	c-0.08,0.172-0.004,0.376,0.168,0.455l0.936,0.427c0.172,0.081,0.377,0.003,0.455-0.169l0.18-0.394
	c2.013,0.613,3.543-0.092,4.437-2.047C130.713,44.988,130.219,43.56,128.697,41.733z M126.756,38.813
	c0.201-0.44,0.492-0.734,0.885-0.896c0.295-0.122,0.611-0.155,0.963-0.102l-1.158,2.536c-0.475-0.494-0.614-0.665-0.649-0.713
	C126.631,39.379,126.617,39.117,126.756,38.813z M128.656,45.365c-0.547,1.194-1.295,1.706-2.34,1.584l1.629-3.568
	C128.762,44.489,128.791,45.068,128.656,45.365z"/>
<path opacity="0.4" fill="#E5DAD3" d="M122.881,52.854c-5.637-2.576-8.117-9.231-5.541-14.868c2.574-5.635,9.229-8.117,14.865-5.541
	L122.881,52.854z"/>
<g>
	<circle fill="#FFFFFF" cx="102.75" cy="55.548" r="1.492"/>
	<path fill="#FFFFFF" d="M82.254,55.548c0,1.165,0.946,2.111,2.111,2.111h13.542c1.166,0,2.11-0.946,2.11-2.111l0,0
		c0-1.167-0.944-2.113-2.11-2.113H84.366C83.201,53.436,82.254,54.381,82.254,55.548L82.254,55.548z"/>
</g>
<circle fill="#99999A" cx="146.993" cy="73.361" r="11.218"/>
<g>
	<path fill="#FFFFFF" d="M151.941,81.356c-4.41,2.728-10.217,1.361-12.943-3.049c-2.729-4.41-1.359-10.215,3.049-12.943
		c4.408-2.729,10.215-1.36,12.943,3.048C157.719,72.822,156.35,78.628,151.941,81.356z M142.381,65.904
		c-4.109,2.544-5.385,7.958-2.844,12.069c2.543,4.111,7.959,5.386,12.07,2.843c4.11-2.544,5.385-7.958,2.842-12.069
		C151.906,64.636,146.49,63.362,142.381,65.904z"/>
</g>
<g>
	<path fill="#FFFFFF" d="M151.791,82.739c-0.105,0.055-0.236,0.006-0.287-0.092l0,0c-0.055-0.104-0.014-0.231,0.092-0.285l0,0
		c0.1-0.051,0.23-0.015,0.285,0.091l0,0c0.053,0.098,0.018,0.219-0.076,0.276l0,0C151.799,82.735,151.791,82.739,151.791,82.739z
		 M152.969,81.779c-0.07-0.095-0.051-0.226,0.047-0.296l0,0c0.092-0.077,0.228-0.051,0.293,0.039l0,0
		c0.07,0.096,0.051,0.228-0.047,0.297l0,0c-0.006,0.004-0.01,0.015-0.01,0.015l0,0C153.158,81.893,153.033,81.87,152.969,81.779z
		 M150.178,83.399L150.178,83.399L150.178,83.399c-0.107,0.036-0.227-0.029-0.264-0.137l0,0c-0.037-0.106,0.023-0.234,0.135-0.263
		l0,0c0.115-0.04,0.234,0.025,0.264,0.136l0,0c0.041,0.096-0.008,0.195-0.088,0.244l0,0
		C150.211,83.388,150.195,83.397,150.178,83.399z M154.275,80.685c-0.088-0.087-0.088-0.216-0.012-0.303l0,0
		c0.082-0.08,0.219-0.084,0.305-0.008l0,0c0.084,0.085,0.084,0.215,0.002,0.308l0,0c-0.016,0.01-0.027,0.017-0.043,0.026l0,0
		C154.447,80.758,154.344,80.751,154.275,80.685z M148.486,83.788c-0.119,0.015-0.228-0.06-0.24-0.18l0,0
		c-0.021-0.115,0.064-0.219,0.178-0.24l0,0c0.115-0.009,0.221,0.064,0.242,0.18l0,0c0.01,0.083-0.035,0.17-0.1,0.211l0,0
		C148.539,83.775,148.512,83.781,148.486,83.788z M155.379,79.384c-0.102-0.067-0.119-0.195-0.061-0.292l0.008-0.004
		c0.059-0.096,0.193-0.121,0.289-0.048l0,0c0.102,0.067,0.119,0.195,0.061,0.29l0,0l0,0l0,0c-0.025,0.026-0.043,0.045-0.064,0.06
		l0,0C155.539,79.434,155.449,79.43,155.379,79.384z M146.746,83.888c-0.111-0.002-0.211-0.098-0.201-0.212l0,0
		c-0.004-0.119,0.1-0.212,0.207-0.21l0,0c0.125,0.004,0.213,0.099,0.217,0.216l0,0c-0.006,0.074-0.045,0.137-0.104,0.173l0,0
		C146.828,83.877,146.789,83.892,146.746,83.888z M156.252,77.928c-0.105-0.055-0.15-0.177-0.107-0.283l0,0
		c0.054-0.112,0.187-0.154,0.285-0.104l0,0c0.111,0.049,0.148,0.176,0.105,0.282l0,0c-0.016,0.04-0.049,0.069-0.084,0.092l0,0
		C156.395,77.95,156.32,77.956,156.252,77.928z M145.018,83.703c-0.11-0.02-0.188-0.131-0.168-0.243l0,0
		c0.025-0.116,0.14-0.194,0.248-0.175l0,0c0.115,0.027,0.195,0.137,0.168,0.255l0,0c-0.014,0.058-0.043,0.106-0.092,0.138l0,0
		C145.129,83.704,145.078,83.716,145.018,83.703z M156.871,76.34c-0.109-0.033-0.172-0.152-0.143-0.261l0,0
		c0.033-0.109,0.147-0.181,0.258-0.15l0,0c0.115,0.028,0.182,0.148,0.154,0.265l0,0c-0.021,0.05-0.054,0.092-0.097,0.119l0,0
		C156.994,76.343,156.936,76.36,156.871,76.34z M143.348,83.242c-0.117-0.047-0.17-0.163-0.129-0.276l0,0
		c0.045-0.107,0.16-0.159,0.273-0.121l0,0c0.115,0.04,0.166,0.157,0.127,0.271l0,0c-0.023,0.044-0.049,0.081-0.092,0.108l0,0
		C143.477,83.254,143.412,83.262,143.348,83.242z M157.234,74.671c-0.119-0.016-0.201-0.114-0.191-0.229l0,0
		c0.014-0.12,0.113-0.201,0.234-0.186l0,0c0.115,0.009,0.199,0.115,0.19,0.229l0,0c-0.01,0.064-0.055,0.124-0.104,0.154l0,0
		C157.328,74.664,157.279,74.682,157.234,74.671z M141.77,82.506L141.77,82.506L141.77,82.506c-0.104-0.054-0.135-0.185-0.08-0.29
		l0,0c0.058-0.103,0.187-0.134,0.289-0.079l0,0c0.099,0.061,0.135,0.186,0.08,0.289l0,0c-0.02,0.033-0.043,0.059-0.072,0.075l0,0
		C141.922,82.543,141.842,82.542,141.77,82.506z M157.309,72.972c-0.119,0.004-0.215-0.087-0.225-0.199l0,0
		c-0.002-0.118,0.084-0.221,0.201-0.224l0,0c0.113-0.011,0.221,0.083,0.225,0.201l0,0c0.006,0.074-0.037,0.152-0.102,0.19l0,0
		C157.379,72.959,157.346,72.97,157.309,72.972z M140.334,81.523c-0.088-0.075-0.098-0.208-0.027-0.302l0,0
		c0.076-0.087,0.209-0.099,0.295-0.023l0,0c0.097,0.072,0.105,0.204,0.033,0.297l0,0c-0.016,0.022-0.037,0.035-0.051,0.044l0,0
		C140.504,81.587,140.414,81.584,140.334,81.523z M157.104,71.276c-0.108,0.029-0.227-0.047-0.256-0.159l0,0
		c-0.022-0.115,0.047-0.229,0.162-0.25l0,0c0.111-0.03,0.229,0.046,0.26,0.16l0,0l0,0l0,0c0.015,0.089-0.02,0.179-0.098,0.229l0,0
		C157.148,71.269,157.129,71.27,157.104,71.276z M139.08,80.316c-0.072-0.084-0.064-0.217,0.023-0.302l0,0
		c0.084-0.072,0.217-0.066,0.301,0.022l0,0c0.072,0.083,0.07,0.226-0.021,0.303l0,0c-0.008,0.004-0.021,0.014-0.027,0.017l0,0
		C139.268,80.41,139.15,80.395,139.08,80.316z M156.623,69.645c-0.104,0.042-0.232-0.007-0.275-0.121l0,0
		c-0.041-0.104,0.01-0.226,0.113-0.269l0,0c0.109-0.048,0.234,0.005,0.281,0.115l0,0c0.039,0.094,0,0.209-0.088,0.263l0,0
		C156.648,69.638,156.637,69.636,156.623,69.645z M138.049,78.924c-0.063-0.102-0.031-0.229,0.068-0.292l0,0
		c0.102-0.062,0.23-0.032,0.291,0.068l0,0c0.059,0.094,0.033,0.229-0.066,0.292l0,0C138.24,79.055,138.111,79.024,138.049,78.924z
		 M155.59,68.042L155.59,68.042c-0.004-0.008-0.004-0.008-0.008-0.014l0,0c-0.004-0.009-0.008-0.015-0.012-0.023l0,0
		c-0.064-0.1-0.033-0.229,0.066-0.292l0,0c0.094-0.059,0.229-0.031,0.293,0.069l0,0c0.004,0.006,0.004,0.006,0.008,0.014l0,0
		c0.006,0.007,0.01,0.015,0.014,0.023l0,0c0.063,0.099,0.033,0.228-0.068,0.291l0,0C155.781,68.172,155.652,68.142,155.59,68.042z
		 M137.531,77.491c-0.107,0.037-0.232-0.005-0.279-0.115l0,0c-0.041-0.114,0.014-0.237,0.115-0.279l0,0
		c0.113-0.041,0.232,0.005,0.279,0.115l0,0c0.039,0.095,0,0.209-0.086,0.263l0,0C137.555,77.478,137.547,77.484,137.531,77.491z
		 M154.574,66.669c-0.086-0.086-0.072-0.225,0.014-0.297l0,0c0.088-0.084,0.227-0.07,0.297,0.015l0,0
		c0.08,0.092,0.07,0.225-0.014,0.297l0,0c-0.014,0.009-0.02,0.015-0.037,0.023l0,0C154.748,66.76,154.641,66.748,154.574,66.669z
		 M136.982,75.88c-0.117,0.022-0.229-0.047-0.258-0.16l0,0c-0.021-0.115,0.047-0.228,0.157-0.257l0,0
		c0.117-0.023,0.229,0.048,0.261,0.16l0,0c0.016,0.089-0.027,0.184-0.099,0.229l0,0C137.021,75.865,137.01,75.874,136.982,75.88z
		 M153.369,65.513L153.369,65.513c-0.094-0.071-0.105-0.204-0.033-0.296l0,0c0.07-0.094,0.201-0.107,0.297-0.036l0,0
		c0.094,0.071,0.109,0.212,0.033,0.298l0,0c-0.018,0.021-0.033,0.042-0.055,0.056l0,0C153.537,65.578,153.436,65.571,153.369,65.513
		z M136.705,74.19c-0.121,0.016-0.219-0.075-0.227-0.188l0,0c-0.008-0.125,0.082-0.22,0.194-0.23l0,0
		c0.125-0.007,0.222,0.083,0.224,0.2l0,0c0.012,0.082-0.037,0.151-0.101,0.192l0,0C136.768,74.181,136.734,74.191,136.705,74.19z
		 M151.992,64.573c-0.105-0.055-0.141-0.192-0.078-0.29l0,0c0.053-0.104,0.184-0.134,0.287-0.079l0,0l0,0l0,0
		c0.098,0.059,0.135,0.186,0.078,0.29l0,0c-0.018,0.033-0.043,0.056-0.072,0.075l0,0C152.145,64.608,152.063,64.608,151.992,64.573z
		 M136.709,72.495c-0.117-0.017-0.205-0.123-0.184-0.234l0,0c0.008-0.115,0.115-0.202,0.229-0.194l0,0
		c0.107,0.014,0.201,0.116,0.186,0.235l0,0c-0.006,0.074-0.041,0.125-0.1,0.162l0,0C136.805,72.485,136.76,72.493,136.709,72.495z
		 M150.473,63.87c-0.106-0.043-0.16-0.161-0.119-0.273l0,0c0.035-0.104,0.158-0.16,0.269-0.127l0,0
		c0.106,0.042,0.164,0.167,0.125,0.28l0,0c-0.017,0.041-0.049,0.082-0.086,0.104l0,0C150.609,63.885,150.539,63.898,150.473,63.87z
		 M136.996,70.814c-0.121-0.035-0.186-0.154-0.154-0.264l0,0c0.033-0.108,0.148-0.18,0.264-0.153l0,0
		c0.113,0.04,0.174,0.151,0.146,0.268l0,0c-0.02,0.052-0.053,0.093-0.096,0.12l0,0C137.111,70.811,137.055,70.829,136.996,70.814z
		 M148.865,63.431L148.865,63.431c-0.117-0.029-0.191-0.131-0.162-0.249l0,0c0.016-0.119,0.131-0.19,0.24-0.17l0,0
		c0.113,0.021,0.19,0.132,0.174,0.244l0,0c-0.012,0.066-0.053,0.111-0.104,0.143l0,0C148.971,63.425,148.918,63.438,148.865,63.431z
		 M137.547,69.198c-0.105-0.044-0.154-0.172-0.1-0.276l0,0c0,0,0,0-0.006-0.008l0,0c0.049-0.099,0.18-0.148,0.281-0.093l0,0
		c0.106,0.043,0.155,0.171,0.102,0.275l0,0c-0.016,0.04-0.047,0.069-0.076,0.087l0,0C137.684,69.224,137.607,69.231,137.547,69.198z
		 M147.203,63.255c-0.111-0.002-0.211-0.099-0.201-0.214l0,0c0.004-0.123,0.098-0.21,0.215-0.212l0,0
		c0.115,0.008,0.211,0.098,0.207,0.218l0,0c-0.004,0.074-0.045,0.14-0.102,0.174l0,0C147.285,63.243,147.252,63.253,147.203,63.255z
		 M138.355,67.702c-0.088-0.063-0.121-0.194-0.056-0.294l0,0c0.072-0.096,0.195-0.121,0.298-0.053l0,0
		c0.1,0.065,0.12,0.193,0.055,0.294l0,0c-0.021,0.021-0.035,0.041-0.064,0.059l0,0C138.523,67.748,138.424,67.75,138.355,67.702z
		 M145.543,63.355c-0.121,0.015-0.227-0.059-0.242-0.18l0,0c-0.021-0.115,0.066-0.219,0.18-0.24l0,0l0,0l0,0
		c0.115-0.01,0.222,0.063,0.242,0.179l0,0c0.012,0.083-0.033,0.17-0.1,0.211l0,0C145.596,63.343,145.57,63.349,145.543,63.355z
		 M139.404,66.355c-0.08-0.08-0.084-0.215-0.004-0.296l0,0l0,0l0,0c0.082-0.079,0.217-0.084,0.297-0.003l0,0
		c0.086,0.075,0.092,0.211,0.004,0.295l0,0c-0.01,0.017-0.025,0.026-0.039,0.035l0,0C139.582,66.436,139.48,66.429,139.404,66.355z
		 M143.916,63.736c-0.113,0.028-0.229-0.03-0.268-0.145l0,0c-0.035-0.107,0.028-0.227,0.137-0.263l0,0l0,0l0,0
		c0.113-0.041,0.232,0.022,0.262,0.135l0,0c0.039,0.095-0.01,0.195-0.088,0.244l0,0C143.945,63.717,143.93,63.727,143.916,63.736z
		 M140.666,65.208c-0.078-0.092-0.051-0.227,0.037-0.292l0,0l0,0l0,0c0.096-0.069,0.229-0.051,0.297,0.045l0,0
		c0.072,0.084,0.049,0.219-0.043,0.286l0,0c-0.002,0.011-0.01,0.014-0.016,0.021l0,0C140.855,65.32,140.73,65.296,140.666,65.208z
		 M142.377,64.368c-0.107,0.057-0.23,0.015-0.287-0.09l0,0c-0.055-0.106-0.014-0.231,0.092-0.287l0,0l0,0l0,0
		c0.101-0.05,0.23-0.012,0.287,0.091l0,0c0.043,0.104,0.008,0.224-0.078,0.278l0,0C142.385,64.365,142.377,64.368,142.377,64.368z"
		/>
</g>
<path fill="#FFFFFF" d="M147.436,72.029l-1.826-2.95c0.257-0.056,0.515-0.06,0.779-0.013c0.293,0.044,0.09,0.051,0.256,0.179
	c0.144,0.109,0.781,0.17,0.902,0.035l0.432-0.479c0.064-0.073,0.097-0.175,0.082-0.275c-0.014-0.099-0.067-0.187-0.153-0.242
	c-0.949-0.607-1.947-0.702-2.964-0.285l-0.274-0.442c-0.099-0.161-0.637-0.394-0.799-0.294l-0.547,0.724
	c-0.162,0.1-0.212,0.311-0.109,0.472l0.261,0.422c-0.672,0.542-1.115,1.147-1.318,1.807c-0.236,0.764-0.133,1.508,0.299,2.21
	c0.426,0.687,1.053,1.055,1.852,1.092c0.197,0.02,0.637,0.014,2.189-0.226l2.572,4.158c-0.771,0.368-1.484,0.402-2.168,0.109
	c-0.312-0.134-0.506-0.248-0.793-0.547c-0.064-0.067-0.267-0.189-0.357-0.213c-0.248-0.062-0.588-0.193-0.65-0.122l-0.018,0.686
	c-0.115,0.126-0.121,0.319-0.014,0.452c0.352,0.423,0.756,0.735,1.201,0.926c1.002,0.421,2.149,0.324,3.418-0.291l-0.146,0.352
	c0.1,0.161,0.682,0.22,0.842,0.121l0.875-0.541c0.16-0.099,0.209-0.312,0.109-0.473l-0.227-0.367
	c1.625-1.334,1.889-2.999,0.758-4.828C151.26,72.16,149.799,71.78,147.436,72.029z M143.93,72.025
	c-0.256-0.413-0.34-0.816-0.258-1.232c0.064-0.314,0.211-0.596,0.453-0.858l1.465,2.37c-0.674,0.12-0.895,0.142-0.955,0.145
	C144.328,72.444,144.104,72.308,143.93,72.025z M150.434,74.081c0.691,1.118,0.699,2.023,0.019,2.825l-2.062-3.334
	C149.762,73.506,150.262,73.802,150.434,74.081z"/>
<path fill="#E5DAD3" d="M146.871,71.89l-1.824-2.95c0.256-0.055,0.514-0.059,0.779-0.011c0.295,0.043,0.527,0.13,0.695,0.256
	c0.143,0.11,0.342,0.092,0.461-0.042l0.432-0.479c0.066-0.074,0.098-0.176,0.084-0.274c-0.014-0.101-0.07-0.189-0.154-0.244
	c-0.949-0.606-1.945-0.702-2.963-0.284l-0.273-0.441c-0.1-0.162-0.313-0.212-0.473-0.112l-0.875,0.542
	c-0.162,0.1-0.211,0.311-0.111,0.471l0.261,0.422c-0.67,0.542-1.113,1.147-1.313,1.806c-0.236,0.766-0.138,1.508,0.297,2.21
	c0.426,0.688,1.055,1.055,1.852,1.092c0.197,0.019,0.639,0.015,2.188-0.226l2.572,4.159c-0.771,0.367-1.482,0.403-2.166,0.109
	c-0.311-0.134-0.613-0.354-0.9-0.654c-0.063-0.068-0.155-0.105-0.25-0.105c-0.096,0-0.184,0.04-0.248,0.11l-0.42,0.454
	c-0.117,0.125-0.121,0.32-0.012,0.452c0.35,0.424,0.754,0.736,1.199,0.926c1,0.422,2.148,0.324,3.416-0.292l0.225,0.362
	c0.101,0.161,0.312,0.212,0.474,0.112l0.872-0.542c0.162-0.098,0.212-0.311,0.111-0.472l-0.229-0.368
	c1.627-1.334,1.891-2.998,0.76-4.826C150.697,72.021,149.236,71.64,146.871,71.89z M143.365,71.885
	c-0.254-0.411-0.338-0.815-0.256-1.231c0.063-0.313,0.213-0.596,0.453-0.858l1.463,2.37c-0.672,0.12-0.894,0.144-0.955,0.146
	C143.766,72.305,143.541,72.17,143.365,71.885z M149.871,73.94c0.691,1.118,0.699,2.025,0.018,2.826l-2.063-3.335
	C149.199,73.367,149.699,73.663,149.871,73.94z"/>
<path opacity="0.4" fill="#E5DAD3" d="M152.896,82.901c-5.271,3.26-12.185,1.631-15.443-3.638c-3.26-5.27-1.631-12.184,3.637-15.443
	L152.896,82.901z"/>
<circle fill="#99999A" cx="110.125" cy="25.769" r="11.219"/>
<g>
	<path fill="#FFFFFF" d="M115.313,33.612c-4.324,2.859-10.17,1.668-13.028-2.657c-2.86-4.324-1.668-10.169,2.655-13.028
		c4.324-2.86,10.17-1.669,13.029,2.656C120.828,24.907,119.639,30.751,115.313,33.612z M105.289,18.455
		c-4.031,2.668-5.143,8.118-2.477,12.15c2.668,4.032,8.117,5.143,12.147,2.476c4.033-2.667,5.146-8.117,2.478-12.149
		C114.771,16.899,109.322,15.79,105.289,18.455z"/>
</g>
<g>
	<path fill="#FFFFFF" d="M115.203,34.999c-0.104,0.058-0.234,0.013-0.288-0.084l0,0c-0.06-0.104-0.021-0.23,0.084-0.288l0,0
		c0.097-0.054,0.229-0.021,0.288,0.083l0,0c0.053,0.097,0.023,0.219-0.068,0.279l0,0C115.211,34.993,115.203,34.999,115.203,34.999z
		 M116.354,34.003c-0.072-0.094-0.059-0.225,0.035-0.297l0,0c0.09-0.08,0.228-0.058,0.295,0.029l0,0
		c0.072,0.096,0.058,0.227-0.037,0.299l0,0c-0.006,0.004-0.008,0.016-0.008,0.016l0,0C116.547,34.11,116.421,34.091,116.354,34.003z
		 M113.611,35.706L113.611,35.706L113.611,35.706c-0.106,0.04-0.229-0.022-0.269-0.128l0,0c-0.038-0.105,0.019-0.235,0.13-0.267l0,0
		c0.11-0.044,0.233,0.018,0.266,0.127l0,0c0.043,0.096-0.002,0.196-0.08,0.248l0,0C113.645,35.695,113.631,35.705,113.611,35.706z
		 M117.623,32.869c-0.088-0.083-0.09-0.213-0.018-0.302l0,0c0.08-0.083,0.213-0.091,0.305-0.018l0,0
		c0.084,0.084,0.09,0.214,0.01,0.308l0,0c-0.014,0.009-0.027,0.018-0.043,0.028l0,0C117.801,32.937,117.697,32.934,117.623,32.869z
		 M111.934,36.146c-0.121,0.019-0.227-0.052-0.246-0.172l0,0c-0.024-0.115,0.058-0.221,0.172-0.246l0,0
		c0.111-0.013,0.222,0.058,0.246,0.173l0,0c0.015,0.082-0.028,0.172-0.092,0.213l0,0C111.984,36.132,111.959,36.139,111.934,36.146z
		 M118.689,31.536c-0.103-0.064-0.125-0.191-0.07-0.291l0.008-0.004c0.057-0.097,0.193-0.125,0.287-0.058l0,0
		c0.104,0.064,0.125,0.192,0.07,0.29l0,0l0,0l0,0c-0.023,0.026-0.041,0.047-0.062,0.062l0,0
		C118.852,31.581,118.76,31.581,118.689,31.536z M110.197,36.299c-0.11,0.001-0.215-0.092-0.209-0.207l0,0
		c-0.008-0.118,0.094-0.214,0.203-0.216l0,0c0.123,0.001,0.213,0.093,0.221,0.209l0,0c-0.002,0.074-0.041,0.139-0.098,0.177l0,0
		C110.279,36.286,110.238,36.301,110.197,36.299z M119.518,30.054c-0.104-0.052-0.154-0.173-0.113-0.279l0,0
		c0.048-0.114,0.179-0.16,0.279-0.113l0,0c0.113,0.046,0.154,0.171,0.113,0.278l0,0c-0.014,0.04-0.043,0.07-0.08,0.094l0,0
		C119.66,30.071,119.584,30.08,119.518,30.054z M108.463,36.166c-0.111-0.016-0.191-0.125-0.176-0.237l0,0
		c0.023-0.117,0.133-0.2,0.244-0.183l0,0c0.117,0.024,0.199,0.132,0.176,0.25l0,0c-0.012,0.059-0.041,0.108-0.09,0.14l0,0
		C108.574,36.164,108.523,36.178,108.463,36.166z M120.088,28.447c-0.109-0.028-0.176-0.146-0.146-0.255l0,0
		c0.027-0.111,0.142-0.187,0.25-0.158l0,0c0.117,0.023,0.187,0.142,0.162,0.26l0,0c-0.016,0.051-0.051,0.093-0.092,0.122l0,0
		C120.213,28.447,120.152,28.467,120.088,28.447z M106.781,35.756c-0.119-0.043-0.176-0.158-0.139-0.272l0,0
		c0.041-0.108,0.153-0.164,0.27-0.13l0,0c0.115,0.037,0.172,0.153,0.136,0.267l0,0c-0.022,0.045-0.047,0.082-0.089,0.11l0,0
		C106.909,35.764,106.846,35.774,106.781,35.756z M120.4,26.769c-0.119-0.011-0.203-0.107-0.199-0.223l0,0
		c0.014-0.12,0.107-0.205,0.23-0.193l0,0c0.114,0.007,0.202,0.11,0.196,0.224l0,0c-0.008,0.066-0.049,0.126-0.101,0.158l0,0
		C120.494,26.759,120.447,26.779,120.4,26.769z M105.182,35.069L105.182,35.069L105.182,35.069c-0.104-0.052-0.142-0.181-0.09-0.287
		l0,0c0.053-0.105,0.182-0.141,0.287-0.088l0,0c0.1,0.058,0.141,0.18,0.09,0.287l0,0c-0.02,0.033-0.043,0.06-0.072,0.078l0,0
		C105.334,35.1,105.254,35.101,105.182,35.069z M120.424,25.069c-0.119,0.008-0.217-0.081-0.23-0.192l0,0
		c-0.006-0.119,0.078-0.224,0.193-0.229l0,0c0.113-0.015,0.223,0.076,0.23,0.192l0,0c0.008,0.076-0.031,0.153-0.094,0.195l0,0
		C120.494,25.054,120.461,25.065,120.424,25.069z M103.717,34.129c-0.09-0.073-0.105-0.205-0.037-0.301l0,0
		c0.074-0.088,0.205-0.104,0.293-0.033l0,0c0.098,0.069,0.113,0.201,0.045,0.297l0,0c-0.018,0.022-0.037,0.035-0.053,0.045l0,0
		C103.889,34.188,103.797,34.188,103.717,34.129z M120.168,23.379c-0.109,0.033-0.23-0.041-0.26-0.151l0,0
		c-0.025-0.115,0.039-0.23,0.154-0.254l0,0c0.11-0.034,0.229,0.04,0.264,0.151l0,0l0,0l0,0c0.018,0.089-0.016,0.18-0.092,0.232l0,0
		C120.215,23.37,120.193,23.372,120.168,23.379z M102.426,32.961c-0.074-0.082-0.072-0.216,0.014-0.302l0,0
		c0.084-0.076,0.215-0.073,0.304,0.013l0,0c0.073,0.082,0.075,0.223-0.013,0.303l0,0c-0.008,0.004-0.021,0.014-0.028,0.018l0,0
		C102.616,33.049,102.498,33.038,102.426,32.961z M119.637,21.763c-0.1,0.046-0.232,0.001-0.275-0.112l0,0
		c-0.047-0.102,0.002-0.225,0.104-0.272l0,0c0.107-0.051,0.232-0.001,0.283,0.107l0,0c0.041,0.094,0.008,0.21-0.078,0.265l0,0
		C119.664,21.756,119.652,21.754,119.637,21.763z M101.354,31.6c-0.065-0.099-0.037-0.228,0.062-0.293l0,0
		c0.099-0.065,0.229-0.039,0.293,0.06l0,0c0.062,0.092,0.039,0.229-0.06,0.293l0,0C101.549,31.726,101.42,31.7,101.354,31.6z
		 M118.559,20.192L118.559,20.192c-0.004-0.006-0.004-0.006-0.01-0.014l0,0c-0.004-0.007-0.01-0.014-0.014-0.021l0,0
		c-0.064-0.099-0.039-0.229,0.061-0.293l0,0c0.09-0.061,0.229-0.039,0.293,0.061l0,0c0.006,0.006,0.006,0.006,0.01,0.013l0,0
		c0.004,0.008,0.009,0.014,0.013,0.022l0,0c0.065,0.098,0.041,0.228-0.06,0.294l0,0C118.754,20.318,118.623,20.291,118.559,20.192z
		 M100.793,30.184c-0.105,0.04-0.232,0.001-0.284-0.106l0,0c-0.044-0.112,0.007-0.237,0.106-0.283l0,0
		c0.113-0.045,0.232-0.002,0.285,0.105l0,0c0.041,0.095,0.006,0.209-0.08,0.266l0,0C100.814,30.17,100.809,30.176,100.793,30.184z
		 M117.5,18.851c-0.088-0.084-0.079-0.222,0.004-0.298l0,0c0.086-0.085,0.225-0.076,0.299,0.006l0,0
		c0.08,0.089,0.078,0.223-0.005,0.298l0,0c-0.015,0.009-0.021,0.014-0.036,0.024l0,0C117.678,18.937,117.568,18.927,117.5,18.851z
		 M100.195,28.59c-0.115,0.025-0.229-0.04-0.262-0.151l0,0c-0.025-0.115,0.039-0.23,0.149-0.262l0,0
		c0.115-0.027,0.229,0.04,0.265,0.15l0,0c0.018,0.089-0.021,0.186-0.093,0.231l0,0C100.234,28.574,100.221,28.582,100.195,28.59z
		 M116.262,17.731L116.262,17.731c-0.097-0.067-0.113-0.2-0.043-0.295l0,0c0.068-0.096,0.199-0.113,0.295-0.044l0,0
		c0.098,0.068,0.116,0.208,0.045,0.296l0,0c-0.018,0.021-0.033,0.043-0.055,0.057l0,0C116.432,17.791,116.328,17.788,116.262,17.731
		z M99.866,26.91c-0.12,0.019-0.218-0.069-0.231-0.182l0,0c-0.012-0.125,0.076-0.223,0.189-0.236l0,0
		c0.123-0.012,0.221,0.077,0.229,0.194l0,0c0.012,0.082-0.033,0.152-0.096,0.193l0,0C99.93,26.898,99.896,26.911,99.866,26.91z
		 M114.855,16.833c-0.105-0.052-0.146-0.188-0.088-0.287l0,0c0.051-0.104,0.182-0.139,0.287-0.088l0,0l0,0l0,0
		c0.098,0.057,0.141,0.183,0.088,0.289l0,0c-0.021,0.033-0.043,0.058-0.07,0.077l0,0C115.008,16.865,114.928,16.867,114.855,16.833z
		 M99.82,25.213c-0.118-0.013-0.209-0.116-0.191-0.227l0,0c0.005-0.115,0.107-0.205,0.223-0.2l0,0
		c0.109,0.009,0.205,0.11,0.193,0.229l0,0c-0.004,0.074-0.039,0.126-0.096,0.165l0,0C99.914,25.202,99.869,25.211,99.82,25.213z
		 M113.314,16.178c-0.105-0.04-0.164-0.155-0.127-0.271l0,0c0.033-0.104,0.154-0.164,0.266-0.135l0,0
		c0.107,0.039,0.168,0.163,0.133,0.276l0,0c-0.016,0.041-0.048,0.083-0.082,0.105l0,0C113.453,16.188,113.383,16.203,113.314,16.178
		z M100.055,23.526c-0.121-0.032-0.188-0.149-0.16-0.259l0,0c0.027-0.111,0.142-0.184,0.258-0.161l0,0
		c0.115,0.037,0.18,0.146,0.154,0.263l0,0c-0.016,0.053-0.051,0.095-0.093,0.123l0,0C100.172,23.52,100.113,23.539,100.055,23.526z
		 M111.697,15.787L111.697,15.787c-0.119-0.025-0.195-0.125-0.172-0.242l0,0c0.012-0.12,0.125-0.195,0.238-0.178l0,0
		c0.111,0.017,0.192,0.125,0.178,0.237l0,0c-0.008,0.066-0.047,0.112-0.099,0.146l0,0C111.801,15.778,111.75,15.792,111.697,15.787z
		 M100.559,21.893c-0.108-0.04-0.162-0.167-0.108-0.271l0,0c0,0,0,0-0.007-0.009l0,0c0.048-0.099,0.175-0.152,0.277-0.101l0,0
		c0.109,0.041,0.162,0.167,0.11,0.272l0,0c-0.015,0.04-0.046,0.07-0.073,0.089l0,0C100.695,21.917,100.619,21.925,100.559,21.893z
		 M110.029,15.661c-0.109,0.001-0.215-0.092-0.207-0.208l0,0c-0.002-0.121,0.091-0.212,0.209-0.219l0,0
		c0.115,0.005,0.212,0.092,0.212,0.214l0,0c-0.002,0.072-0.04,0.139-0.097,0.177l0,0C110.111,15.647,110.079,15.658,110.029,15.661z
		 M101.32,20.374c-0.092-0.06-0.127-0.189-0.063-0.292l0,0c0.068-0.097,0.19-0.126,0.293-0.062l0,0
		c0.104,0.062,0.127,0.189,0.063,0.292l0,0c-0.018,0.022-0.033,0.043-0.063,0.061l0,0C101.488,20.415,101.391,20.42,101.32,20.374z
		 M108.373,15.812c-0.121,0.019-0.227-0.054-0.246-0.173l0,0c-0.025-0.114,0.057-0.22,0.172-0.245l0,0l0,0l0,0
		c0.113-0.014,0.221,0.057,0.246,0.172l0,0c0.014,0.083-0.027,0.172-0.092,0.215l0,0C108.424,15.799,108.398,15.805,108.373,15.812z
		 M102.328,18.998c-0.082-0.077-0.092-0.213-0.014-0.296l0,0l0,0l0,0c0.078-0.082,0.215-0.09,0.297-0.013l0,0
		c0.088,0.073,0.098,0.209,0.012,0.295l0,0c-0.008,0.018-0.023,0.026-0.037,0.036l0,0C102.508,19.071,102.404,19.069,102.328,18.998
		z M106.758,16.242c-0.111,0.031-0.229-0.023-0.271-0.136l0,0c-0.038-0.106,0.022-0.227,0.13-0.267l0,0l0,0l0,0
		c0.11-0.044,0.231,0.017,0.266,0.127l0,0c0.043,0.093-0.004,0.195-0.08,0.248l0,0C106.785,16.222,106.771,16.231,106.758,16.242z
		 M103.555,17.812c-0.08-0.09-0.059-0.226,0.028-0.293l0,0l0,0l0,0c0.093-0.072,0.226-0.059,0.298,0.035l0,0
		c0.074,0.083,0.055,0.218-0.035,0.288l0,0c-0.002,0.011-0.008,0.014-0.015,0.021l0,0C103.746,17.918,103.621,17.899,103.555,17.812
		z M105.238,16.919c-0.104,0.06-0.23,0.022-0.289-0.082l0,0c-0.059-0.104-0.02-0.23,0.084-0.288l0,0l0,0l0,0
		c0.096-0.055,0.23-0.02,0.289,0.082l0,0c0.046,0.102,0.016,0.223-0.069,0.279l0,0C105.246,16.917,105.238,16.919,105.238,16.919z"
		/>
</g>
<path fill="#FFFFFF" d="M110.527,24.425l-1.914-2.893c0.254-0.063,0.51-0.076,0.777-0.036c0.295,0.035,0.092,0.049,0.262,0.171
	c0.146,0.105,0.787,0.147,0.902,0.009l0.416-0.491c0.063-0.077,0.092-0.179,0.074-0.278c-0.018-0.098-0.074-0.186-0.161-0.238
	c-0.968-0.577-1.967-0.643-2.971-0.195l-0.287-0.434c-0.104-0.158-0.649-0.375-0.81-0.27l-0.524,0.739
	c-0.157,0.104-0.201,0.317-0.097,0.476l0.273,0.414c-0.656,0.562-1.08,1.18-1.264,1.846c-0.211,0.772-0.088,1.512,0.367,2.199
	c0.445,0.675,1.084,1.023,1.883,1.036c0.197,0.015,0.638-0.004,2.182-0.292l2.697,4.079c-0.762,0.39-1.473,0.448-2.164,0.175
	c-0.314-0.125-0.514-0.233-0.809-0.523c-0.066-0.065-0.271-0.181-0.365-0.201c-0.25-0.054-0.592-0.175-0.652-0.103l0.002,0.688
	c-0.111,0.127-0.111,0.321,0.002,0.45c0.363,0.413,0.777,0.713,1.228,0.891c1.015,0.391,2.159,0.259,3.407-0.395l-0.135,0.355
	c0.104,0.159,0.688,0.201,0.844,0.096l0.857-0.568c0.158-0.104,0.201-0.317,0.098-0.476l-0.237-0.36
	c1.584-1.382,1.795-3.055,0.61-4.848C114.354,24.439,112.883,24.104,110.527,24.425z M107.021,24.527
	c-0.269-0.405-0.363-0.805-0.293-1.224c0.053-0.315,0.192-0.603,0.426-0.872l1.535,2.324c-0.67,0.141-0.89,0.17-0.949,0.175
	C107.434,24.933,107.205,24.805,107.021,24.527z M113.586,26.385c0.727,1.096,0.76,2.001,0.104,2.822l-2.162-3.271
	C112.896,25.831,113.406,26.11,113.586,26.385z"/>
<path fill="#E5DAD3" d="M109.96,24.302l-1.913-2.893c0.254-0.062,0.51-0.074,0.777-0.036c0.297,0.036,0.531,0.115,0.703,0.236
	c0.145,0.105,0.346,0.081,0.461-0.057l0.414-0.492c0.065-0.075,0.094-0.178,0.078-0.276c-0.019-0.1-0.076-0.187-0.162-0.239
	c-0.969-0.578-1.967-0.642-2.971-0.194l-0.287-0.434c-0.105-0.158-0.318-0.202-0.478-0.098l-0.856,0.568
	c-0.158,0.104-0.201,0.316-0.097,0.474l0.272,0.414c-0.655,0.561-1.079,1.18-1.262,1.845c-0.215,0.772-0.091,1.512,0.364,2.2
	c0.446,0.675,1.086,1.022,1.884,1.036c0.197,0.013,0.637-0.006,2.18-0.293l2.697,4.079c-0.76,0.391-1.471,0.448-2.162,0.175
	c-0.313-0.124-0.623-0.337-0.92-0.626c-0.065-0.066-0.158-0.101-0.252-0.098c-0.096,0.002-0.184,0.045-0.246,0.116l-0.406,0.467
	c-0.11,0.128-0.11,0.323,0.003,0.452c0.362,0.414,0.774,0.712,1.229,0.889c1.012,0.392,2.155,0.259,3.405-0.394l0.233,0.354
	c0.104,0.158,0.317,0.201,0.476,0.097l0.856-0.567c0.158-0.104,0.203-0.318,0.099-0.476l-0.239-0.361
	c1.585-1.383,1.799-3.053,0.61-4.846C113.787,24.319,112.314,23.982,109.96,24.302z M106.455,24.405
	c-0.268-0.404-0.363-0.805-0.293-1.224c0.053-0.315,0.193-0.604,0.426-0.872l1.535,2.324c-0.67,0.142-0.889,0.17-0.949,0.175
	C106.867,24.812,106.639,24.684,106.455,24.405z M113.02,26.261c0.726,1.097,0.76,2.003,0.104,2.824l-2.164-3.271
	C112.33,25.708,112.838,25.99,113.02,26.261z"/>
<path opacity="0.4" fill="#E5DAD3" d="M116.314,35.126c-5.168,3.418-12.129,2-15.547-3.169c-3.418-5.168-2-12.129,3.17-15.546
	L116.314,35.126z"/>
<circle fill="#99999A" cx="142.168" cy="18.266" r="11.219"/>
<g>
	<path fill="#FFFFFF" d="M147.115,26.261c-4.41,2.729-10.217,1.361-12.943-3.048c-2.729-4.41-1.361-10.215,3.049-12.942
		c4.408-2.729,10.215-1.362,12.943,3.048C152.891,17.727,151.523,23.533,147.115,26.261z M137.555,10.809
		c-4.111,2.544-5.387,7.959-2.844,12.068c2.545,4.113,7.957,5.388,12.068,2.844c4.111-2.544,5.387-7.958,2.844-12.069
		C147.08,9.542,141.664,8.267,137.555,10.809z"/>
</g>
<g>
	<path fill="#FFFFFF" d="M146.965,27.645c-0.107,0.054-0.236,0.005-0.287-0.092l0,0c-0.055-0.105-0.014-0.23,0.092-0.286l0,0
		c0.099-0.052,0.23-0.015,0.285,0.092l0,0c0.053,0.098,0.019,0.219-0.076,0.276l0,0C146.971,27.639,146.965,27.645,146.965,27.645z
		 M148.143,26.684c-0.069-0.094-0.051-0.226,0.045-0.295l0,0c0.092-0.078,0.229-0.051,0.295,0.039l0,0
		c0.068,0.097,0.052,0.229-0.047,0.297l0,0c-0.008,0.004-0.01,0.016-0.01,0.016l0,0C148.332,26.797,148.207,26.774,148.143,26.684z
		 M145.352,28.304L145.352,28.304L145.352,28.304c-0.108,0.035-0.229-0.03-0.264-0.137l0,0c-0.035-0.105,0.023-0.233,0.137-0.264
		l0,0c0.113-0.04,0.232,0.025,0.262,0.137l0,0c0.039,0.096-0.01,0.196-0.088,0.244l0,0
		C145.385,28.293,145.369,28.303,145.352,28.304z M149.447,25.59c-0.086-0.087-0.086-0.217-0.01-0.303l0,0
		c0.082-0.08,0.217-0.083,0.305-0.008l0,0c0.082,0.085,0.084,0.216,0.002,0.308l0,0c-0.016,0.009-0.029,0.017-0.043,0.027l0,0
		C149.621,25.663,149.518,25.656,149.447,25.59z M143.658,28.692c-0.119,0.016-0.225-0.059-0.24-0.18l0,0
		c-0.02-0.115,0.064-0.219,0.18-0.24l0,0c0.113-0.009,0.221,0.063,0.24,0.18l0,0c0.012,0.082-0.033,0.171-0.098,0.21l0,0
		C143.713,28.68,143.686,28.687,143.658,28.692z M150.553,24.289c-0.102-0.067-0.121-0.195-0.061-0.292l0.008-0.003
		c0.059-0.097,0.195-0.121,0.289-0.049l0,0c0.102,0.067,0.119,0.195,0.061,0.291l0,0l0,0l0,0c-0.024,0.026-0.043,0.045-0.063,0.059
		l0,0C150.713,24.339,150.621,24.336,150.553,24.289z M141.92,28.794c-0.111-0.003-0.211-0.1-0.201-0.214l0,0
		c-0.004-0.117,0.1-0.211,0.209-0.209l0,0c0.123,0.004,0.211,0.099,0.213,0.216l0,0c-0.006,0.074-0.045,0.137-0.104,0.174l0,0
		C142.002,28.783,141.963,28.797,141.92,28.794z M151.426,22.833c-0.105-0.055-0.15-0.177-0.107-0.283l0,0
		c0.052-0.112,0.185-0.153,0.285-0.104l0,0c0.111,0.049,0.148,0.176,0.105,0.282l0,0c-0.018,0.039-0.049,0.068-0.084,0.091l0,0
		C151.568,22.854,151.492,22.861,151.426,22.833z M140.191,28.608c-0.111-0.02-0.189-0.131-0.17-0.243l0,0
		c0.026-0.116,0.139-0.195,0.25-0.175l0,0c0.117,0.027,0.194,0.138,0.168,0.255l0,0c-0.015,0.058-0.043,0.106-0.094,0.137l0,0
		C140.303,28.609,140.25,28.621,140.191,28.608z M152.043,21.245c-0.105-0.033-0.172-0.152-0.139-0.261l0,0
		c0.033-0.109,0.146-0.182,0.254-0.149l0,0c0.117,0.027,0.182,0.146,0.156,0.264l0,0c-0.021,0.05-0.053,0.092-0.097,0.119l0,0
		C152.168,21.249,152.107,21.266,152.043,21.245z M138.523,28.146c-0.119-0.046-0.172-0.163-0.133-0.276l0,0
		c0.045-0.107,0.161-0.158,0.274-0.122l0,0c0.112,0.041,0.166,0.158,0.127,0.271l0,0c-0.022,0.044-0.051,0.081-0.094,0.106l0,0
		C138.65,28.159,138.584,28.167,138.523,28.146z M152.408,19.577c-0.119-0.016-0.201-0.115-0.193-0.229l0,0
		c0.016-0.12,0.115-0.201,0.234-0.186l0,0c0.115,0.009,0.201,0.115,0.191,0.229l0,0c-0.009,0.066-0.054,0.124-0.103,0.154l0,0
		C152.502,19.568,152.453,19.587,152.408,19.577z M136.943,27.412L136.943,27.412L136.943,27.412
		c-0.104-0.055-0.135-0.185-0.082-0.29l0,0c0.059-0.103,0.188-0.135,0.291-0.08l0,0c0.098,0.061,0.137,0.186,0.08,0.29l0,0
		c-0.021,0.032-0.045,0.058-0.074,0.076l0,0C137.094,27.448,137.016,27.447,136.943,27.412z M152.482,17.878
		c-0.119,0.003-0.215-0.087-0.226-0.2l0,0c-0.004-0.118,0.082-0.221,0.199-0.223l0,0c0.112-0.01,0.221,0.083,0.226,0.2l0,0
		c0.008,0.075-0.035,0.152-0.103,0.191l0,0C152.553,17.864,152.52,17.875,152.482,17.878z M135.506,26.427
		c-0.086-0.075-0.096-0.207-0.025-0.301l0,0c0.076-0.086,0.207-0.099,0.295-0.023l0,0c0.095,0.072,0.105,0.204,0.035,0.296l0,0
		c-0.018,0.022-0.039,0.035-0.055,0.044l0,0C135.676,26.493,135.588,26.49,135.506,26.427z M152.277,16.182
		c-0.109,0.028-0.229-0.048-0.256-0.161l0,0c-0.023-0.115,0.047-0.227,0.162-0.249l0,0c0.11-0.029,0.229,0.047,0.258,0.159l0,0l0,0
		l0,0c0.016,0.089-0.021,0.18-0.099,0.229l0,0C152.324,16.173,152.305,16.176,152.277,16.182z M134.254,25.222
		c-0.072-0.083-0.064-0.218,0.021-0.302l0,0c0.086-0.073,0.219-0.065,0.303,0.022l0,0c0.072,0.083,0.07,0.225-0.021,0.302l0,0
		c-0.008,0.004-0.021,0.013-0.027,0.018l0,0C134.439,25.315,134.322,25.301,134.254,25.222z M151.797,14.55
		c-0.104,0.043-0.232-0.006-0.273-0.121l0,0c-0.043-0.102,0.009-0.225,0.111-0.269l0,0c0.107-0.048,0.232,0.005,0.281,0.115l0,0
		c0.039,0.095,0,0.21-0.088,0.263l0,0C151.82,14.542,151.811,14.541,151.797,14.55z M133.223,23.829
		c-0.063-0.101-0.031-0.229,0.068-0.292l0,0c0.102-0.062,0.23-0.032,0.291,0.068l0,0c0.059,0.094,0.033,0.229-0.066,0.292l0,0
		C133.414,23.961,133.285,23.93,133.223,23.829z M150.766,12.947L150.766,12.947c-0.006-0.007-0.006-0.007-0.01-0.014l0,0
		c-0.006-0.008-0.01-0.014-0.014-0.023l0,0c-0.063-0.099-0.031-0.229,0.07-0.291l0,0c0.09-0.058,0.229-0.031,0.291,0.069l0,0
		c0.004,0.007,0.004,0.007,0.01,0.015l0,0c0.004,0.007,0.008,0.014,0.012,0.022l0,0c0.063,0.1,0.031,0.229-0.068,0.291l0,0
		C150.955,13.077,150.826,13.048,150.766,12.947z M132.705,22.397c-0.107,0.037-0.232-0.006-0.281-0.115l0,0
		c-0.041-0.114,0.014-0.237,0.115-0.28l0,0c0.115-0.042,0.232,0.005,0.283,0.114l0,0c0.037,0.095-0.002,0.209-0.09,0.263l0,0
		C132.729,22.383,132.721,22.388,132.705,22.397z M149.748,11.575c-0.086-0.087-0.072-0.226,0.012-0.298l0,0
		c0.088-0.084,0.229-0.07,0.299,0.014l0,0c0.078,0.093,0.072,0.227-0.014,0.298l0,0c-0.016,0.009-0.021,0.014-0.037,0.024l0,0
		C149.922,11.666,149.814,11.652,149.748,11.575z M132.154,20.785c-0.115,0.022-0.228-0.047-0.256-0.159l0,0
		c-0.023-0.115,0.047-0.229,0.158-0.256l0,0c0.116-0.023,0.229,0.047,0.26,0.159l0,0c0.014,0.089-0.027,0.185-0.099,0.229l0,0
		C132.195,20.77,132.182,20.778,132.154,20.785z M148.543,10.417L148.543,10.417c-0.094-0.07-0.105-0.202-0.033-0.296l0,0
		c0.07-0.093,0.201-0.106,0.297-0.036l0,0c0.094,0.071,0.109,0.211,0.033,0.297l0,0c-0.018,0.021-0.033,0.043-0.055,0.056l0,0
		C148.711,10.482,148.607,10.476,148.543,10.417z M131.879,19.095c-0.123,0.016-0.217-0.075-0.227-0.188l0,0
		c-0.01-0.124,0.082-0.22,0.195-0.23l0,0c0.125-0.007,0.221,0.083,0.225,0.2l0,0c0.008,0.083-0.039,0.152-0.104,0.192l0,0
		C131.941,19.086,131.908,19.097,131.879,19.095z M147.166,9.478c-0.105-0.056-0.141-0.193-0.08-0.29l0,0
		c0.055-0.103,0.186-0.135,0.289-0.079l0,0l0,0l0,0c0.096,0.06,0.135,0.187,0.08,0.291l0,0c-0.021,0.032-0.045,0.057-0.074,0.074
		l0,0C147.316,9.514,147.236,9.514,147.166,9.478z M131.885,17.399c-0.119-0.015-0.207-0.122-0.186-0.233l0,0
		c0.008-0.115,0.115-0.201,0.229-0.193l0,0c0.109,0.014,0.201,0.117,0.186,0.235l0,0c-0.006,0.073-0.04,0.126-0.1,0.161l0,0
		C131.979,17.391,131.934,17.398,131.885,17.399z M145.645,8.775c-0.104-0.043-0.158-0.159-0.119-0.273l0,0
		c0.037-0.104,0.16-0.16,0.271-0.128l0,0c0.106,0.043,0.164,0.167,0.125,0.282l0,0c-0.017,0.04-0.051,0.081-0.086,0.103l0,0
		C145.783,8.79,145.713,8.803,145.645,8.775z M132.168,15.719c-0.119-0.034-0.186-0.154-0.152-0.264l0,0
		c0.033-0.108,0.148-0.179,0.264-0.152l0,0c0.113,0.04,0.175,0.151,0.146,0.267l0,0c-0.018,0.052-0.051,0.093-0.096,0.12l0,0
		C132.285,15.717,132.227,15.733,132.168,15.719z M144.039,8.336L144.039,8.336c-0.117-0.028-0.191-0.13-0.162-0.248l0,0
		c0.014-0.12,0.131-0.19,0.24-0.17l0,0c0.113,0.02,0.191,0.131,0.172,0.243l0,0c-0.01,0.066-0.051,0.111-0.102,0.143l0,0
		C144.145,8.331,144.092,8.342,144.039,8.336z M132.723,14.103c-0.108-0.042-0.156-0.171-0.104-0.275l0,0c0,0,0,0-0.004-0.008l0,0
		c0.049-0.098,0.18-0.148,0.279-0.093l0,0c0.106,0.044,0.158,0.173,0.104,0.276l0,0c-0.016,0.039-0.047,0.068-0.076,0.087l0,0
		C132.857,14.129,132.781,14.136,132.723,14.103z M142.377,8.16c-0.111-0.002-0.211-0.099-0.201-0.215l0,0
		c0.002-0.122,0.098-0.209,0.215-0.213l0,0c0.115,0.009,0.209,0.1,0.207,0.22l0,0c-0.006,0.073-0.045,0.138-0.102,0.174l0,0
		C142.459,8.147,142.428,8.159,142.377,8.16z M133.529,12.608c-0.09-0.064-0.121-0.195-0.055-0.295l0,0
		c0.071-0.094,0.194-0.121,0.295-0.053l0,0c0.102,0.065,0.123,0.193,0.055,0.295l0,0c-0.016,0.021-0.033,0.041-0.063,0.059l0,0
		C133.697,12.653,133.598,12.655,133.529,12.608z M140.717,8.26c-0.121,0.015-0.227-0.06-0.242-0.18l0,0
		c-0.021-0.115,0.066-0.218,0.18-0.24l0,0l0,0l0,0c0.115-0.01,0.222,0.064,0.24,0.18l0,0c0.015,0.083-0.033,0.17-0.098,0.211l0,0
		C140.768,8.248,140.742,8.254,140.717,8.26z M134.578,11.262c-0.08-0.081-0.084-0.217-0.006-0.296l0,0l0,0l0,0
		c0.082-0.08,0.219-0.084,0.299-0.004l0,0c0.086,0.077,0.092,0.213,0.004,0.296l0,0c-0.01,0.017-0.025,0.025-0.039,0.035l0,0
		C134.756,11.34,134.652,11.335,134.578,11.262z M139.09,8.641c-0.111,0.028-0.229-0.03-0.27-0.143l0,0
		c-0.035-0.108,0.031-0.228,0.137-0.264l0,0l0,0l0,0c0.113-0.04,0.234,0.024,0.264,0.136l0,0c0.039,0.094-0.01,0.194-0.088,0.244
		l0,0C139.117,8.622,139.104,8.631,139.09,8.641z M135.84,10.112c-0.078-0.091-0.053-0.226,0.035-0.291l0,0l0,0l0,0
		c0.098-0.07,0.229-0.051,0.299,0.044l0,0c0.072,0.086,0.049,0.22-0.043,0.286l0,0c-0.002,0.012-0.008,0.016-0.016,0.021l0,0
		C136.029,10.226,135.904,10.202,135.84,10.112z M137.551,9.272c-0.105,0.057-0.232,0.015-0.287-0.09l0,0
		c-0.055-0.105-0.014-0.23,0.092-0.286l0,0l0,0l0,0c0.101-0.052,0.232-0.014,0.287,0.09l0,0c0.043,0.103,0.008,0.224-0.078,0.278
		l0,0C137.557,9.27,137.551,9.272,137.551,9.272z"/>
</g>
<path fill="#FFFFFF" d="M142.609,16.934l-1.826-2.949c0.256-0.057,0.512-0.061,0.779-0.014c0.293,0.044,0.09,0.051,0.256,0.179
	c0.143,0.109,0.781,0.17,0.902,0.037l0.43-0.479c0.065-0.075,0.098-0.176,0.084-0.276c-0.015-0.099-0.07-0.188-0.154-0.243
	c-0.949-0.606-1.945-0.701-2.965-0.285l-0.273-0.442c-0.1-0.162-0.637-0.394-0.799-0.295l-0.547,0.725
	c-0.16,0.099-0.211,0.311-0.109,0.472l0.26,0.421c-0.674,0.542-1.114,1.148-1.317,1.807c-0.236,0.766-0.136,1.51,0.299,2.21
	c0.427,0.688,1.054,1.056,1.853,1.092c0.196,0.02,0.637,0.015,2.188-0.226l2.574,4.159c-0.771,0.367-1.484,0.403-2.17,0.109
	c-0.311-0.134-0.504-0.248-0.791-0.547c-0.064-0.067-0.268-0.188-0.357-0.212c-0.248-0.063-0.588-0.194-0.65-0.122l-0.02,0.686
	c-0.115,0.126-0.119,0.32-0.012,0.452c0.352,0.424,0.756,0.735,1.201,0.926c1,0.422,2.149,0.324,3.416-0.29l-0.146,0.351
	c0.099,0.162,0.681,0.221,0.843,0.121l0.875-0.541c0.159-0.1,0.209-0.311,0.108-0.473l-0.229-0.367c1.627-1.335,1.892-3,0.76-4.828
	C146.434,17.065,144.973,16.685,142.609,16.934z M139.102,16.93c-0.254-0.411-0.338-0.815-0.256-1.232
	c0.064-0.313,0.211-0.596,0.451-0.857l1.467,2.369c-0.674,0.121-0.895,0.144-0.955,0.146
	C139.502,17.349,139.277,17.213,139.102,16.93z M145.607,18.985c0.69,1.118,0.699,2.025,0.018,2.825l-2.063-3.334
	C144.936,18.411,145.436,18.707,145.607,18.985z"/>
<path fill="#E5DAD3" d="M142.047,16.794l-1.826-2.95c0.256-0.054,0.512-0.059,0.779-0.011c0.293,0.044,0.527,0.129,0.695,0.257
	c0.141,0.109,0.342,0.091,0.463-0.042l0.428-0.479c0.068-0.075,0.1-0.177,0.086-0.275c-0.014-0.1-0.07-0.188-0.156-0.244
	c-0.949-0.606-1.942-0.701-2.961-0.283l-0.275-0.443c-0.1-0.162-0.311-0.212-0.473-0.112l-0.873,0.542
	c-0.162,0.1-0.211,0.311-0.11,0.471l0.262,0.422c-0.674,0.542-1.117,1.147-1.317,1.807c-0.236,0.765-0.138,1.509,0.299,2.209
	c0.424,0.688,1.053,1.055,1.852,1.094c0.197,0.019,0.637,0.014,2.188-0.227l2.574,4.159c-0.772,0.368-1.484,0.402-2.168,0.109
	c-0.311-0.134-0.615-0.355-0.9-0.653c-0.065-0.068-0.155-0.106-0.25-0.106c-0.096,0-0.186,0.04-0.25,0.11l-0.418,0.455
	c-0.116,0.124-0.123,0.319-0.014,0.45c0.353,0.424,0.754,0.736,1.201,0.927c1,0.421,2.15,0.323,3.416-0.292l0.225,0.361
	c0.101,0.161,0.312,0.211,0.474,0.112l0.873-0.542c0.162-0.099,0.211-0.312,0.112-0.473l-0.229-0.368
	c1.625-1.334,1.889-2.997,0.758-4.826C145.871,16.927,144.408,16.545,142.047,16.794z M138.539,16.791
	c-0.256-0.412-0.338-0.816-0.256-1.231c0.063-0.313,0.211-0.597,0.451-0.859l1.465,2.37c-0.672,0.121-0.893,0.143-0.955,0.146
	C138.939,17.21,138.715,17.075,138.539,16.791z M145.043,18.846c0.691,1.118,0.701,2.025,0.02,2.825l-2.063-3.335
	C144.373,18.271,144.871,18.569,145.043,18.846z"/>
<path opacity="0.4" fill="#E5DAD3" d="M148.07,27.806c-5.271,3.261-12.187,1.631-15.443-3.638c-3.26-5.27-1.633-12.184,3.639-15.444
	L148.07,27.806z"/>
<g>
	<path fill="#FFFFFF" d="M152.113,126.184c0,1.137-0.92,2.062-2.057,2.062c-1.136,0-2.058-0.925-2.058-2.062
		c0-1.135,0.922-2.057,2.058-2.057C151.193,124.127,152.113,125.049,152.113,126.184z"/>
	<path fill="#FFFFFF" d="M127.543,126.184c0,1.137-0.922,2.062-2.059,2.062c-1.135,0-2.06-0.925-2.06-2.062
		c0-1.135,0.925-2.057,2.06-2.057C126.621,124.127,127.543,125.049,127.543,126.184z"/>
	<path fill="#FFFFFF" d="M126.646,125.943c0-0.949,0-18.262,0-18.262c0-6.414,4.949-11.615,11.059-11.615
		c6.105,0,11.059,5.201,11.059,11.615c0,0,0,17.684,0,18.262c0,0.576,0.193,1.276,1.154,1.276c0.959,0,1.32-0.36,1.32-1.276
		c0-0.918,0-18.9,0-18.9c0-7.475-6.059-13.534-13.533-13.534c-7.477,0-13.537,6.059-13.537,13.534c0,0,0,18.207,0,18.9
		c0,0.69,0.375,1.276,1.178,1.276C126.15,127.221,126.646,126.893,126.646,125.943z"/>
</g>
<rect x="116.41" y="99.771" transform="matrix(0.3423 0.9396 -0.9396 0.3423 195.0547 -57.0617)" fill="#778EB0" width="43.752" height="22.052"/>
<path fill="#97B8E0" d="M137.832,89.811l-12.719,4.636c0.496,1.36-0.203,2.865-1.564,3.359l11.811,32.407
	c1.359-0.494,2.863,0.205,3.359,1.564l12.719-4.635c-0.496-1.359,0.205-2.863,1.564-3.359l-11.811-32.408
	C139.834,91.872,138.328,91.17,137.832,89.811z"/>
<circle fill="#778EB0" cx="138.275" cy="110.795" r="10.209"/>
<g>
	<path fill="#FFFFFF" d="M136.695,110.086l-3.668,1.324c-0.002-0.297,0.053-0.578,0.166-0.861c0.115-0.314,0.266-0.549,0.445-0.703
		c0.151-0.131,0.18-0.356,0.061-0.521l-0.428-0.584c-0.066-0.089-0.17-0.146-0.283-0.154c-0.111-0.01-0.223,0.031-0.303,0.113
		c-0.89,0.901-1.224,1.977-1,3.192l-0.552,0.199c-0.2,0.072-0.303,0.295-0.231,0.494l0.395,1.088c0.07,0.199,0.293,0.305,0.492,0.23
		l0.523-0.188c0.438,0.865,1.004,1.492,1.684,1.867c0.789,0.438,1.629,0.5,2.502,0.185c0.852-0.308,1.404-0.914,1.631-1.783
		c0.066-0.211,0.162-0.697,0.258-2.459l5.172-1.867c0.228,0.934,0.099,1.725-0.381,2.41c-0.221,0.311-0.535,0.592-0.93,0.838
		c-0.09,0.055-0.152,0.148-0.174,0.252s0,0.211,0.064,0.299l0.401,0.566c0.11,0.156,0.321,0.207,0.492,0.117
		c0.549-0.285,0.983-0.658,1.299-1.105c0.692-1.004,0.854-2.289,0.472-3.828l0.448-0.162c0.201-0.07,0.306-0.291,0.231-0.494
		l-0.393-1.084c-0.072-0.203-0.293-0.305-0.494-0.234l-0.457,0.166c-1.092-2.098-2.858-2.774-5.135-1.953
		C137.727,105.906,136.969,107.428,136.695,110.086z M135.877,113.943c-0.512,0.184-0.977,0.184-1.414-0.006
		c-0.33-0.144-0.607-0.369-0.84-0.695l2.947-1.063c-0.023,0.77-0.049,1.016-0.063,1.081
		C136.432,113.6,136.23,113.814,135.877,113.943z M139.646,107.262c1.391-0.502,2.391-0.301,3.112,0.635l-4.147,1.498
		C138.859,107.867,139.301,107.387,139.646,107.262z"/>
</g>
<g>
	<path fill="#FCFDFF" d="M122.877,95.596l-0.604,0.218c0-0.049,0.01-0.095,0.026-0.142c0.021-0.052,0.043-0.09,0.074-0.115
		c0.022-0.022,0.028-0.059,0.008-0.086l-0.069-0.095c-0.011-0.016-0.027-0.024-0.047-0.027c-0.019-0.001-0.035,0.006-0.05,0.019
		c-0.146,0.148-0.2,0.326-0.164,0.527l-0.09,0.033c-0.032,0.012-0.051,0.048-0.039,0.08l0.063,0.18
		c0.013,0.033,0.048,0.049,0.082,0.039l0.086-0.032c0.072,0.143,0.166,0.245,0.275,0.308c0.131,0.072,0.271,0.082,0.412,0.03
		c0.141-0.051,0.232-0.151,0.27-0.294c0.011-0.034,0.027-0.115,0.041-0.405l0.853-0.307c0.037,0.155,0.017,0.284-0.063,0.397
		c-0.033,0.05-0.086,0.098-0.152,0.137c-0.014,0.01-0.023,0.024-0.025,0.042c-0.006,0.017,0,0.034,0.01,0.049l0.064,0.093
		c0.02,0.026,0.053,0.035,0.082,0.019c0.09-0.048,0.16-0.108,0.211-0.181c0.117-0.165,0.143-0.377,0.08-0.628l0.074-0.028
		c0.031-0.01,0.051-0.048,0.039-0.081l-0.064-0.179c-0.014-0.034-0.049-0.05-0.084-0.039l-0.074,0.028
		c-0.18-0.345-0.471-0.457-0.844-0.321C123.047,94.908,122.922,95.159,122.877,95.596z M122.742,96.23
		c-0.084,0.03-0.16,0.03-0.232-0.001c-0.055-0.023-0.102-0.061-0.139-0.114l0.486-0.174c-0.006,0.126-0.008,0.167-0.012,0.177
		C122.834,96.174,122.801,96.209,122.742,96.23z M123.361,95.131c0.229-0.083,0.395-0.049,0.512,0.104l-0.682,0.246
		C123.232,95.23,123.307,95.152,123.361,95.131z"/>
</g>
<g>
	<path fill="#FFFFFF" d="M139.645,89.486l-0.604,0.218c0-0.049,0.008-0.095,0.026-0.143c0.021-0.052,0.045-0.09,0.074-0.116
		c0.025-0.021,0.029-0.058,0.01-0.085l-0.069-0.096c-0.011-0.014-0.029-0.024-0.047-0.025c-0.019-0.001-0.035,0.005-0.052,0.019
		c-0.145,0.148-0.2,0.325-0.164,0.525l-0.09,0.033c-0.033,0.012-0.051,0.048-0.037,0.081l0.063,0.179
		c0.015,0.034,0.05,0.05,0.082,0.038l0.086-0.03c0.072,0.143,0.166,0.245,0.277,0.307c0.131,0.072,0.268,0.083,0.411,0.03
		c0.142-0.05,0.23-0.149,0.269-0.294c0.011-0.034,0.027-0.113,0.043-0.404l0.851-0.306c0.039,0.153,0.018,0.284-0.063,0.396
		c-0.035,0.05-0.088,0.098-0.151,0.139c-0.017,0.008-0.025,0.023-0.027,0.041c-0.004,0.018,0,0.035,0.01,0.051l0.066,0.092
		c0.018,0.026,0.053,0.034,0.08,0.018c0.09-0.047,0.162-0.107,0.213-0.181c0.115-0.165,0.141-0.377,0.078-0.629l0.074-0.028
		c0.032-0.011,0.051-0.049,0.038-0.08l-0.063-0.18c-0.014-0.034-0.049-0.05-0.082-0.039l-0.076,0.027
		c-0.18-0.344-0.471-0.456-0.844-0.321C139.813,88.798,139.689,89.047,139.645,89.486z M139.508,90.121
		c-0.084,0.03-0.16,0.03-0.232-0.001c-0.055-0.023-0.1-0.062-0.137-0.114l0.484-0.175c-0.002,0.126-0.01,0.167-0.01,0.178
		C139.6,90.064,139.566,90.099,139.508,90.121z M140.129,89.021c0.229-0.083,0.393-0.049,0.51,0.105l-0.68,0.246
		C140,89.122,140.072,89.042,140.129,89.021z"/>
</g>
<g>
	<path fill="#8BA247" d="M136.305,132.445l-0.602,0.219c0-0.049,0.008-0.096,0.025-0.143c0.02-0.052,0.045-0.09,0.073-0.115
		c0.025-0.021,0.029-0.059,0.011-0.084l-0.07-0.098c-0.012-0.015-0.027-0.025-0.047-0.025c-0.021-0.002-0.035,0.006-0.051,0.018
		c-0.146,0.15-0.201,0.326-0.162,0.527l-0.092,0.031c-0.033,0.014-0.05,0.049-0.037,0.082l0.063,0.178
		c0.013,0.033,0.047,0.051,0.08,0.039l0.086-0.031c0.074,0.143,0.166,0.244,0.276,0.307c0.129,0.072,0.269,0.082,0.412,0.031
		c0.142-0.051,0.23-0.15,0.271-0.293c0.01-0.035,0.024-0.115,0.041-0.406l0.853-0.307c0.035,0.154,0.016,0.285-0.064,0.398
		c-0.035,0.049-0.088,0.096-0.152,0.137c-0.014,0.008-0.025,0.023-0.027,0.041c-0.004,0.016,0,0.035,0.013,0.051l0.063,0.092
		c0.019,0.025,0.053,0.033,0.08,0.021c0.092-0.049,0.162-0.109,0.215-0.184c0.113-0.166,0.142-0.378,0.078-0.632l0.074-0.024
		c0.031-0.015,0.049-0.049,0.035-0.082l-0.063-0.178c-0.013-0.033-0.049-0.054-0.082-0.039l-0.076,0.024
		c-0.18-0.344-0.469-0.455-0.842-0.317C136.475,131.76,136.35,132.008,136.305,132.445z M136.172,133.08
		c-0.086,0.031-0.16,0.031-0.232,0c-0.057-0.025-0.102-0.061-0.139-0.115l0.484-0.174c-0.004,0.125-0.008,0.166-0.01,0.178
		C136.264,133.023,136.23,133.059,136.172,133.08z M136.791,131.98c0.229-0.082,0.395-0.049,0.512,0.104l-0.682,0.246
		C136.662,132.08,136.734,132.002,136.791,131.98z"/>
</g>
<g>
	<path fill="#8BA247" d="M153.072,126.336l-0.604,0.217c0-0.047,0.011-0.096,0.027-0.141c0.021-0.051,0.045-0.09,0.071-0.117
		c0.025-0.02,0.029-0.057,0.011-0.084l-0.068-0.098c-0.012-0.014-0.028-0.023-0.047-0.023c-0.021-0.002-0.037,0.006-0.051,0.018
		c-0.146,0.15-0.201,0.326-0.166,0.527l-0.091,0.031c-0.03,0.012-0.049,0.047-0.036,0.082l0.063,0.178
		c0.012,0.033,0.047,0.049,0.082,0.039l0.086-0.031c0.072,0.144,0.164,0.246,0.275,0.308c0.131,0.071,0.27,0.082,0.412,0.03
		c0.141-0.051,0.232-0.149,0.27-0.295c0.01-0.033,0.025-0.112,0.041-0.403l0.853-0.308c0.036,0.154,0.018,0.283-0.063,0.396
		c-0.035,0.051-0.088,0.098-0.152,0.137c-0.016,0.012-0.024,0.025-0.028,0.043s0,0.033,0.01,0.049l0.066,0.094
		c0.02,0.025,0.055,0.033,0.081,0.021c0.091-0.047,0.162-0.108,0.214-0.182c0.114-0.166,0.141-0.377,0.077-0.632l0.074-0.024
		c0.033-0.015,0.049-0.049,0.039-0.084l-0.065-0.176c-0.013-0.033-0.05-0.054-0.082-0.039l-0.074,0.024
		c-0.18-0.344-0.471-0.455-0.844-0.319C153.242,125.648,153.115,125.898,153.072,126.336z M152.938,126.971
		c-0.084,0.029-0.16,0.029-0.231-0.002c-0.056-0.023-0.103-0.061-0.14-0.113l0.484-0.176c-0.004,0.129-0.008,0.168-0.01,0.18
		C153.027,126.914,152.996,126.949,152.938,126.971z M153.557,125.871c0.229-0.082,0.396-0.049,0.512,0.105l-0.682,0.246
		C153.428,125.971,153.502,125.893,153.557,125.871z"/>
</g>
<path opacity="0.3" fill="#FFFFFF" enable-background="new    " d="M133.469,93.987c3.594,2.43,7.578,3.444,11.742,3.655
	l-4.07-11.176l-11.471,4.178C130.793,91.909,132.074,93.044,133.469,93.987z"/>
<path opacity="0.5" fill="#D1D2D3" enable-background="new    " d="M151.572,119.621c-6.793-6.396-14.646-11.729-23.646-14.436
	c-1.26-0.379-2.528-0.728-3.805-1.052l11.721,32.164l20.72-7.551l-2.308-6.332C153.422,121.426,152.506,120.5,151.572,119.621z"/>
<rect x="121.671" y="100.769" transform="matrix(-0.1035 0.9946 -0.9946 -0.1035 269.5982 -19.4106)" fill="#778EB0" width="43.752" height="22.051"/>
<path fill="#97B8E0" d="M152.336,92.728l-13.465-1.401c-0.15,1.44-1.438,2.484-2.877,2.334l-3.57,34.308
	c1.439,0.148,2.484,1.438,2.336,2.877l13.463,1.402c0.15-1.439,1.438-2.484,2.879-2.336l3.568-34.308
	C153.23,95.456,152.186,94.167,152.336,92.728z"/>
<circle fill="#778EB0" cx="143.547" cy="111.787" r="10.208"/>
<g>
	<path fill="#FFFFFF" d="M142.436,110.457l-3.877-0.416c0.129-0.266,0.301-0.496,0.527-0.699c0.24-0.232,0.48-0.377,0.707-0.439
		c0.195-0.051,0.318-0.239,0.283-0.44l-0.129-0.711c-0.021-0.11-0.088-0.207-0.186-0.265c-0.101-0.057-0.218-0.067-0.322-0.03
		c-1.195,0.424-1.969,1.242-2.299,2.435l-0.582-0.063c-0.211-0.022-0.402,0.133-0.427,0.344l-0.12,1.149
		c-0.023,0.212,0.129,0.4,0.342,0.423l0.555,0.062c0.016,0.971,0.248,1.782,0.693,2.415c0.518,0.738,1.246,1.16,2.17,1.261
		c0.901,0.098,1.662-0.207,2.246-0.89c0.153-0.161,0.453-0.555,1.311-2.1l5.467,0.586c-0.207,0.938-0.668,1.596-1.4,2
		c-0.332,0.184-0.735,0.301-1.199,0.348c-0.104,0.015-0.202,0.066-0.268,0.15c-0.064,0.084-0.092,0.188-0.074,0.295l0.115,0.688
		c0.029,0.188,0.199,0.327,0.391,0.321c0.619-0.019,1.175-0.162,1.65-0.426c1.066-0.597,1.77-1.685,2.1-3.234l0.478,0.052
		c0.211,0.022,0.399-0.131,0.424-0.342l0.123-1.148c0.023-0.213-0.131-0.404-0.342-0.428l-0.483-0.052
		c-0.063-2.362-1.355-3.745-3.761-4.004C145.193,107.152,143.848,108.186,142.436,110.457z M140.012,113.566
		c-0.541-0.058-0.957-0.262-1.27-0.621c-0.234-0.273-0.385-0.601-0.449-0.994l3.113,0.334c-0.357,0.682-0.488,0.895-0.527,0.947
		C140.66,113.5,140.387,113.607,140.012,113.566z M146.326,109.213c1.469,0.156,2.281,0.773,2.52,1.932l-4.383-0.469
		C145.354,109.41,145.961,109.172,146.326,109.213z"/>
</g>
<g>
	<path fill="#FCFDFF" d="M136.357,91.38l-0.64-0.068c0.021-0.043,0.052-0.082,0.089-0.115c0.041-0.039,0.077-0.063,0.114-0.071
		c0.033-0.009,0.054-0.041,0.047-0.073l-0.021-0.117c-0.002-0.018-0.016-0.034-0.031-0.043c-0.016-0.01-0.035-0.012-0.053-0.007
		c-0.195,0.07-0.322,0.206-0.377,0.401l-0.096-0.01c-0.035-0.003-0.066,0.022-0.07,0.057l-0.021,0.188
		c-0.002,0.035,0.023,0.067,0.057,0.07l0.093,0.01c0.004,0.158,0.04,0.292,0.114,0.397c0.084,0.121,0.205,0.191,0.355,0.208
		c0.148,0.016,0.275-0.035,0.371-0.146c0.025-0.027,0.074-0.093,0.215-0.347l0.898,0.096c-0.033,0.155-0.107,0.263-0.229,0.33
		c-0.057,0.031-0.123,0.049-0.196,0.059c-0.021,0.001-0.035,0.01-0.045,0.024c-0.011,0.013-0.015,0.03-0.013,0.048l0.019,0.113
		c0.006,0.03,0.033,0.053,0.063,0.053c0.104-0.004,0.192-0.027,0.271-0.07c0.176-0.099,0.293-0.277,0.347-0.532l0.077,0.008
		c0.035,0.003,0.066-0.022,0.07-0.056l0.021-0.19c0.002-0.034-0.023-0.065-0.057-0.069l-0.08-0.008
		c-0.012-0.39-0.224-0.617-0.619-0.66C136.811,90.836,136.59,91.006,136.357,91.38z M135.957,91.893
		c-0.088-0.011-0.156-0.043-0.207-0.103c-0.039-0.045-0.063-0.099-0.076-0.164l0.514,0.054c-0.059,0.113-0.08,0.147-0.086,0.157
		C136.066,91.881,136.02,91.899,135.957,91.893z M136.996,91.176c0.242,0.025,0.377,0.126,0.416,0.317l-0.721-0.078
		C136.838,91.208,136.938,91.168,136.996,91.176z"/>
</g>
<g>
	<path fill="#8BA247" d="M154.107,93.228l-0.642-0.069c0.022-0.044,0.054-0.081,0.089-0.114c0.041-0.039,0.079-0.063,0.116-0.072
		c0.031-0.009,0.052-0.04,0.045-0.073l-0.021-0.115c-0.002-0.019-0.014-0.037-0.029-0.045c-0.016-0.009-0.035-0.01-0.053-0.004
		c-0.195,0.069-0.324,0.204-0.379,0.4l-0.096-0.01c-0.033-0.004-0.064,0.021-0.068,0.057l-0.021,0.188
		c-0.004,0.036,0.021,0.066,0.057,0.069l0.09,0.012c0.005,0.158,0.044,0.292,0.115,0.396c0.086,0.122,0.205,0.192,0.355,0.208
		c0.148,0.016,0.275-0.035,0.371-0.148c0.025-0.025,0.074-0.09,0.215-0.344l0.9,0.096c-0.033,0.155-0.109,0.263-0.23,0.329
		c-0.055,0.03-0.121,0.049-0.199,0.057c-0.016,0.001-0.031,0.011-0.043,0.025c-0.01,0.012-0.014,0.031-0.012,0.048l0.02,0.113
		c0.006,0.031,0.033,0.054,0.063,0.053c0.104-0.003,0.194-0.026,0.272-0.07c0.177-0.098,0.293-0.277,0.347-0.532l0.078,0.009
		c0.032,0.003,0.065-0.022,0.067-0.057l0.021-0.188c0.004-0.037-0.023-0.067-0.057-0.071l-0.08-0.008
		c-0.01-0.39-0.224-0.616-0.617-0.659C154.559,92.684,154.338,92.854,154.107,93.228z M153.709,93.739
		c-0.09-0.009-0.16-0.043-0.211-0.102c-0.037-0.046-0.063-0.098-0.074-0.165l0.514,0.056c-0.059,0.111-0.082,0.148-0.088,0.156
		C153.814,93.728,153.77,93.747,153.709,93.739z M154.746,93.022c0.242,0.027,0.375,0.128,0.414,0.318l-0.721-0.077
		C154.586,93.055,154.686,93.016,154.746,93.022z"/>
</g>
<g>
	<path fill="#8BA247" d="M132.295,130.391l-0.637-0.067c0.021-0.046,0.051-0.084,0.088-0.115c0.039-0.039,0.078-0.063,0.115-0.072
		c0.033-0.008,0.053-0.038,0.047-0.071l-0.021-0.117c-0.002-0.019-0.016-0.035-0.031-0.043c-0.014-0.012-0.032-0.014-0.053-0.006
		c-0.195,0.069-0.322,0.203-0.377,0.399l-0.096-0.01c-0.035-0.004-0.066,0.021-0.07,0.057l-0.02,0.188
		c-0.004,0.035,0.02,0.066,0.057,0.07l0.09,0.01c0.004,0.16,0.041,0.293,0.113,0.396c0.086,0.123,0.207,0.193,0.357,0.207
		c0.147,0.019,0.272-0.03,0.371-0.146c0.024-0.023,0.074-0.09,0.215-0.344l0.897,0.096c-0.032,0.154-0.108,0.264-0.229,0.33
		c-0.053,0.029-0.121,0.049-0.195,0.057c-0.02,0.002-0.033,0.01-0.045,0.025c-0.01,0.014-0.014,0.031-0.012,0.049l0.018,0.113
		c0.006,0.028,0.033,0.053,0.064,0.053c0.102-0.004,0.192-0.027,0.272-0.07c0.175-0.1,0.289-0.277,0.345-0.531l0.078,0.008
		c0.036,0.002,0.065-0.021,0.069-0.057l0.021-0.189c0.006-0.034-0.021-0.065-0.056-0.069l-0.08-0.008
		c-0.01-0.39-0.225-0.617-0.618-0.658C132.75,129.846,132.529,130.018,132.295,130.391z M131.898,130.902
		c-0.088-0.01-0.158-0.043-0.211-0.104c-0.037-0.045-0.062-0.098-0.072-0.162l0.512,0.056c-0.059,0.11-0.08,0.145-0.088,0.156
		C132.006,130.891,131.961,130.908,131.898,130.902z M132.936,130.186c0.242,0.025,0.375,0.127,0.416,0.316l-0.721-0.078
		C132.775,130.219,132.877,130.18,132.936,130.186z"/>
</g>
<g>
	<path fill="#8BA247" d="M150.045,132.236l-0.639-0.066c0.021-0.045,0.051-0.082,0.088-0.115c0.041-0.037,0.078-0.063,0.117-0.072
		c0.031-0.008,0.051-0.041,0.045-0.071l-0.021-0.117c-0.002-0.021-0.014-0.033-0.029-0.045c-0.016-0.008-0.035-0.01-0.055-0.004
		c-0.195,0.067-0.32,0.205-0.377,0.399l-0.096-0.01c-0.033-0.004-0.066,0.021-0.068,0.057l-0.021,0.188
		c-0.005,0.035,0.021,0.065,0.057,0.07l0.093,0.01c0.004,0.158,0.039,0.293,0.112,0.397c0.086,0.121,0.205,0.191,0.356,0.205
		c0.148,0.019,0.273-0.033,0.371-0.145c0.023-0.027,0.072-0.092,0.213-0.346l0.9,0.098c-0.035,0.152-0.109,0.262-0.23,0.328
		c-0.055,0.029-0.118,0.049-0.196,0.057c-0.019,0.002-0.033,0.012-0.043,0.025c-0.013,0.014-0.017,0.031-0.015,0.047l0.021,0.113
		c0.006,0.031,0.033,0.055,0.063,0.053c0.103-0.002,0.193-0.025,0.271-0.07c0.176-0.098,0.291-0.277,0.346-0.531l0.076,0.011
		c0.037,0.002,0.068-0.021,0.072-0.06l0.02-0.188c0.004-0.033-0.021-0.063-0.057-0.068l-0.08-0.008
		c-0.01-0.392-0.223-0.614-0.619-0.658C150.5,131.693,150.277,131.863,150.045,132.236z M149.646,132.75
		c-0.088-0.01-0.156-0.043-0.207-0.104c-0.041-0.043-0.063-0.099-0.076-0.162l0.514,0.053c-0.061,0.113-0.082,0.146-0.088,0.158
		C149.754,132.738,149.709,132.756,149.646,132.75z M150.686,132.033c0.242,0.025,0.375,0.127,0.416,0.316l-0.723-0.076
		C150.525,132.066,150.627,132.025,150.686,132.033z"/>
</g>
<path opacity="0.3" fill="#FFFFFF" enable-background="new    " d="M146.59,94.574c2.166,3.758,5.305,6.415,8.959,8.428
	l1.229-11.833l-12.141-1.264C145.096,91.535,145.748,93.117,146.59,94.574z"/>
<path opacity="0.5" fill="#D1D2D3" enable-background="new    " d="M151.76,124.297c-3.307-8.727-8.031-16.959-14.938-23.332
	c-0.967-0.892-1.955-1.761-2.963-2.608l-3.543,34.048l21.934,2.282l0.697-6.703C152.633,126.729,152.215,125.494,151.76,124.297z"/>
<rect x="136.741" y="93.825" transform="matrix(-0.4385 0.8987 -0.8987 -0.4385 322.4061 8.2781)" fill="#778EB0" width="43.752" height="22.051"/>
<path fill="#97B8E0" d="M173.422,89.968l-12.168-5.938c-0.633,1.301-2.203,1.842-3.504,1.206l-15.125,31
	c1.301,0.635,1.84,2.201,1.205,3.502l12.166,5.938c0.635-1.303,2.203-1.842,3.506-1.207l15.125-30.999
	C173.326,92.837,172.787,91.269,173.422,89.968z"/>
<path fill="#778EB0" d="M154.15,114.027c5.065,2.473,11.178,0.369,13.647-4.697c2.474-5.066,0.371-11.178-4.694-13.65
	c-5.068-2.473-11.181-0.37-13.652,4.697C146.98,105.443,149.082,111.555,154.15,114.027z"/>
<g>
	<path fill="#FFFFFF" d="M158.039,103.223l-3.5-1.721c0.211-0.207,0.453-0.361,0.736-0.477c0.305-0.135,0.58-0.189,0.815-0.168
		c0.201,0.019,0.382-0.118,0.416-0.319l0.121-0.712c0.021-0.11-0.012-0.225-0.08-0.313c-0.073-0.085-0.182-0.137-0.295-0.138
		c-1.269-0.012-2.274,0.491-2.994,1.497l-0.524-0.258c-0.191-0.093-0.422-0.015-0.517,0.177l-0.51,1.037
		c-0.097,0.191-0.019,0.422,0.176,0.516l0.5,0.246c-0.317,0.918-0.379,1.76-0.178,2.508c0.231,0.869,0.772,1.519,1.604,1.928
		c0.815,0.402,1.635,0.377,2.418-0.063c0.196-0.098,0.614-0.364,1.948-1.521l4.935,2.427c-0.514,0.812-1.172,1.271-2,1.397
		c-0.375,0.058-0.795,0.027-1.246-0.088c-0.104-0.025-0.213-0.006-0.303,0.049c-0.09,0.058-0.15,0.148-0.172,0.254l-0.127,0.685
		c-0.037,0.188,0.073,0.377,0.256,0.438c0.588,0.194,1.158,0.25,1.696,0.166c1.205-0.195,2.242-0.976,3.082-2.318l0.431,0.213
		c0.188,0.094,0.422,0.016,0.518-0.176l0.508-1.039c0.096-0.189,0.016-0.422-0.174-0.518l-0.439-0.214
		c0.752-2.241,0.015-3.983-2.156-5.051C161.762,101.064,160.143,101.574,158.039,103.223z M154.695,105.313
		c-0.488-0.239-0.812-0.573-0.979-1.021c-0.127-0.336-0.155-0.692-0.082-1.086l2.812,1.383c-0.57,0.517-0.766,0.67-0.824,0.707
		C155.326,105.473,155.033,105.479,154.695,105.313z M162.121,103.387c1.324,0.654,1.875,1.512,1.703,2.682l-3.955-1.944
		C161.139,103.242,161.791,103.225,162.121,103.387z"/>
</g>
<g>
	<path fill="#FCFDFF" d="M158.875,83.219l-0.576-0.284c0.035-0.032,0.076-0.059,0.121-0.077c0.051-0.023,0.096-0.032,0.135-0.028
		c0.031,0.003,0.063-0.019,0.068-0.052l0.02-0.117c0.004-0.018-0.002-0.037-0.012-0.052c-0.014-0.014-0.029-0.022-0.051-0.023
		c-0.207-0.001-0.373,0.081-0.49,0.248l-0.088-0.043c-0.031-0.016-0.07-0.004-0.084,0.029l-0.084,0.171
		c-0.016,0.032-0.004,0.069,0.029,0.084l0.08,0.041c-0.051,0.151-0.062,0.289-0.027,0.413c0.039,0.143,0.127,0.25,0.264,0.317
		c0.133,0.066,0.271,0.063,0.398-0.011c0.031-0.016,0.102-0.06,0.32-0.249l0.811,0.399c-0.084,0.133-0.193,0.208-0.33,0.229
		c-0.061,0.009-0.129,0.005-0.203-0.014c-0.018-0.005-0.035-0.001-0.049,0.008s-0.025,0.024-0.029,0.041l-0.021,0.113
		c-0.007,0.03,0.014,0.062,0.043,0.072c0.099,0.031,0.188,0.041,0.278,0.027c0.197-0.033,0.369-0.16,0.509-0.382l0.069,0.036
		c0.029,0.016,0.068,0.002,0.084-0.029l0.084-0.171c0.015-0.032,0.002-0.069-0.026-0.084l-0.074-0.036
		c0.125-0.368,0.004-0.655-0.354-0.831C159.488,82.862,159.223,82.947,158.875,83.219z M158.324,83.563
		c-0.08-0.04-0.133-0.095-0.16-0.168c-0.021-0.055-0.025-0.113-0.014-0.18l0.463,0.229c-0.094,0.085-0.125,0.11-0.137,0.116
		C158.43,83.588,158.381,83.589,158.324,83.563z M159.547,83.246c0.217,0.106,0.309,0.248,0.279,0.44l-0.65-0.32
		C159.385,83.222,159.492,83.219,159.547,83.246z"/>
</g>
<g>
	<path fill="#FCFDFF" d="M174.914,91.045l-0.576-0.284c0.033-0.035,0.074-0.06,0.119-0.078c0.051-0.022,0.096-0.032,0.135-0.029
		c0.033,0.002,0.064-0.02,0.068-0.052l0.021-0.117c0.002-0.019-0.005-0.038-0.017-0.051c-0.011-0.015-0.029-0.023-0.047-0.023
		c-0.207-0.002-0.373,0.081-0.494,0.247l-0.084-0.042c-0.033-0.016-0.07-0.003-0.084,0.029l-0.086,0.171
		c-0.017,0.03-0.004,0.069,0.028,0.083l0.082,0.041c-0.053,0.151-0.063,0.291-0.026,0.413c0.037,0.144,0.125,0.25,0.262,0.318
		c0.134,0.064,0.271,0.062,0.396-0.012c0.035-0.016,0.103-0.061,0.322-0.25l0.813,0.4c-0.088,0.133-0.192,0.208-0.33,0.229
		c-0.063,0.01-0.131,0.004-0.205-0.014c-0.019-0.003-0.035-0.001-0.049,0.008c-0.017,0.009-0.024,0.025-0.026,0.042l-0.023,0.112
		c-0.004,0.031,0.014,0.062,0.043,0.072c0.098,0.033,0.191,0.041,0.279,0.027c0.198-0.032,0.367-0.159,0.506-0.38l0.07,0.035
		c0.032,0.015,0.069,0.002,0.086-0.029l0.084-0.171c0.016-0.031,0.004-0.068-0.029-0.085l-0.072-0.036
		c0.125-0.367,0.002-0.653-0.354-0.831C175.525,90.688,175.258,90.772,174.914,91.045z M174.363,91.387
		c-0.08-0.039-0.135-0.094-0.162-0.167c-0.02-0.055-0.025-0.114-0.014-0.179l0.463,0.229c-0.092,0.084-0.127,0.111-0.137,0.116
		C174.467,91.415,174.418,91.416,174.363,91.387z M175.586,91.071c0.215,0.108,0.307,0.249,0.277,0.441l-0.65-0.319
		C175.422,91.048,175.529,91.045,175.586,91.071z"/>
</g>
<g>
	<path fill="#8BA247" d="M141.676,118.467l-0.576-0.283c0.035-0.035,0.074-0.059,0.121-0.078c0.049-0.022,0.096-0.03,0.133-0.026
		c0.033,0.002,0.064-0.021,0.07-0.054l0.02-0.116c0.005-0.019-0.002-0.037-0.014-0.054c-0.012-0.014-0.029-0.021-0.049-0.021
		c-0.209-0.002-0.373,0.08-0.492,0.246l-0.086-0.043c-0.031-0.017-0.07-0.002-0.086,0.028l-0.084,0.173
		c-0.016,0.03-0.002,0.069,0.029,0.084l0.082,0.041c-0.051,0.147-0.063,0.288-0.029,0.411c0.039,0.144,0.129,0.25,0.266,0.316
		c0.133,0.064,0.269,0.063,0.396-0.01c0.031-0.018,0.102-0.061,0.32-0.25l0.814,0.398c-0.087,0.135-0.195,0.209-0.332,0.229
		c-0.062,0.011-0.13,0.004-0.203-0.015c-0.019-0.006-0.035-0.004-0.052,0.009c-0.016,0.008-0.024,0.024-0.026,0.041l-0.023,0.11
		c-0.006,0.031,0.014,0.063,0.043,0.072c0.098,0.033,0.191,0.041,0.281,0.029c0.197-0.033,0.367-0.162,0.506-0.383l0.07,0.035
		c0.031,0.016,0.07,0.004,0.086-0.027l0.082-0.174c0.018-0.031,0.004-0.07-0.027-0.082l-0.072-0.037
		c0.123-0.369,0.002-0.654-0.354-0.832C142.287,118.111,142.021,118.195,141.676,118.467z M141.125,118.811
		c-0.08-0.039-0.133-0.096-0.16-0.168c-0.021-0.055-0.027-0.115-0.014-0.18l0.461,0.229c-0.092,0.086-0.125,0.109-0.135,0.117
		C141.229,118.836,141.18,118.838,141.125,118.811z M142.346,118.494c0.221,0.105,0.312,0.248,0.279,0.441l-0.648-0.32
		C142.186,118.471,142.293,118.467,142.346,118.494z"/>
</g>
<g>
	<path fill="#8BA247" d="M157.711,126.293l-0.574-0.283c0.035-0.033,0.074-0.061,0.121-0.078c0.051-0.021,0.094-0.031,0.135-0.029
		c0.033,0.007,0.063-0.018,0.068-0.053l0.02-0.117c0.004-0.018-0.002-0.034-0.014-0.051c-0.012-0.016-0.029-0.021-0.047-0.021
		c-0.209-0.002-0.375,0.078-0.494,0.246l-0.088-0.043c-0.029-0.017-0.068-0.003-0.084,0.028l-0.082,0.17
		c-0.018,0.031-0.004,0.07,0.029,0.086l0.082,0.039c-0.055,0.15-0.064,0.289-0.031,0.412c0.039,0.146,0.129,0.252,0.266,0.318
		c0.133,0.066,0.269,0.063,0.396-0.012c0.033-0.014,0.102-0.059,0.32-0.248l0.811,0.396c-0.082,0.135-0.191,0.211-0.326,0.231
		c-0.063,0.01-0.131,0.004-0.205-0.017c-0.018-0.002-0.035,0-0.051,0.008c-0.014,0.011-0.025,0.025-0.027,0.041l-0.021,0.113
		c-0.006,0.031,0.012,0.063,0.043,0.072c0.097,0.033,0.188,0.041,0.276,0.027c0.199-0.031,0.369-0.16,0.509-0.381l0.069,0.035
		c0.031,0.014,0.07,0.002,0.086-0.029l0.084-0.172c0.015-0.029,0.002-0.068-0.028-0.084l-0.072-0.035
		c0.125-0.369,0.004-0.654-0.354-0.832C158.324,125.938,158.059,126.021,157.711,126.293z M157.162,126.637
		c-0.08-0.041-0.133-0.096-0.162-0.168c-0.02-0.057-0.023-0.115-0.014-0.18l0.465,0.229c-0.096,0.084-0.127,0.111-0.137,0.117
		C157.266,126.662,157.217,126.664,157.162,126.637z M158.385,126.32c0.219,0.106,0.309,0.248,0.279,0.438l-0.65-0.319
		C158.223,126.295,158.33,126.293,158.385,126.32z"/>
</g>
<path opacity="0.3" fill="#FFFFFF" enable-background="new    " d="M167.287,89.737c0.746,4.274,2.781,7.846,5.521,10.99
	l5.217-10.691l-10.971-5.353C166.928,86.37,166.998,88.08,167.287,89.737z"/>
<path opacity="0.5" fill="#D1D2D3" enable-background="new    " d="M162.049,119.234c-0.111-9.332-1.727-18.686-6.025-27.042
	c-0.602-1.17-1.233-2.326-1.887-3.467l-15.014,30.765l19.818,9.67l2.957-6.057C162.033,121.816,162.064,120.514,162.049,119.234z"/>
<path fill="#606061" d="M184.793,104.877c1.027,0.82,1.035,2.52,0.02,3.789l-20.858,26.102c-1.017,1.271-2.675,1.64-3.701,0.816
	l-16.049-12.828c-1.026-0.82-1.037-2.516-0.021-3.789l20.86-26.101c1.017-1.271,2.672-1.637,3.701-0.817L184.793,104.877z"/>
<path fill="#90908F" d="M184.143,105.51c0.988,0.791,1,2.424,0.021,3.646l-20.082,25.131c-0.979,1.225-2.576,1.576-3.563,0.785
	l-15.453-12.348c-0.988-0.791-0.998-2.427-0.021-3.648l20.086-25.13c0.979-1.226,2.572-1.577,3.563-0.787L184.143,105.51z"/>
<path fill="#7D98B6" d="M180.293,106.088c0.443,0.355,0.514,1,0.162,1.441l-4.277,5.352c-0.354,0.441-0.996,0.512-1.438,0.16
	l-5.552-4.436c-0.44-0.355-0.512-0.998-0.16-1.439l4.275-5.352c0.354-0.442,0.998-0.515,1.441-0.162L180.293,106.088z"/>
<rect x="173.348" y="104.075" transform="matrix(-0.6236 0.7817 -0.7817 -0.6236 366.9362 40.641)" fill="#FFFFFF" width="0.673" height="9.156"/>
<rect x="171.009" y="106.787" transform="matrix(-0.7817 -0.6236 0.6236 -0.7817 237.728 299.88)" fill="#FFFFFF" width="0.673" height="3.096"/>
<rect x="174.076" y="109.255" transform="matrix(-0.782 -0.6233 0.6233 -0.782 241.7404 306.1584)" fill="#FFFFFF" width="0.671" height="3.098"/>
<rect x="174.623" y="102.265" transform="matrix(-0.7804 -0.6252 0.6252 -0.7804 246.599 294.2224)" fill="#FFFFFF" width="0.673" height="3.095"/>
<rect x="177.689" y="104.722" transform="matrix(-0.7786 -0.6275 0.6275 -0.7786 249.9485 300.726)" fill="#FFFFFF" width="0.672" height="3.095"/>
<rect x="175.457" y="101.467" transform="matrix(-0.6258 0.78 -0.78 -0.6258 368.5122 35.2809)" fill="#FFFFFF" width="0.671" height="9.154"/>
<g>
	<g>
		<path fill="#FFFFFF" d="M148.729,118.73c-0.819,1.026-0.653,2.528,0.373,3.348c1.025,0.82,2.527,0.652,3.349-0.373
			s0.651-2.527-0.375-3.348S149.547,117.705,148.729,118.73z M151.293,119.18c-0.223-0.17-0.449-0.313-0.672-0.426
			c0.482-0.324,0.951-0.447,1.248-0.297L151.293,119.18z M151.168,119.334l-0.596,0.746l-0.746-0.596
			c0.193-0.23,0.402-0.435,0.613-0.596C150.682,119.002,150.93,119.15,151.168,119.334z M149.672,119.361l-0.721-0.578
			c0.256-0.215,0.742-0.195,1.281,0.016C150.039,118.959,149.852,119.148,149.672,119.361z M148.826,118.938l0.723,0.576
			c-0.168,0.221-0.311,0.447-0.424,0.67C148.799,119.705,148.676,119.234,148.826,118.938z M149.703,119.639l0.746,0.596
			l-0.596,0.744c-0.23-0.192-0.433-0.399-0.597-0.61C149.371,120.125,149.521,119.877,149.703,119.639z M149.73,121.133
			l-0.576,0.723c-0.217-0.256-0.195-0.739,0.014-1.28C149.328,120.766,149.518,120.955,149.73,121.133z M149.885,121.256
			c0.221,0.168,0.447,0.313,0.668,0.426c-0.479,0.324-0.949,0.451-1.246,0.297L149.885,121.256z M150.006,121.104l0.598-0.746
			l0.746,0.597c-0.192,0.229-0.401,0.432-0.61,0.596C150.494,121.434,150.246,121.285,150.006,121.104z M151.502,121.076
			l0.723,0.576c-0.256,0.215-0.74,0.197-1.281-0.014C151.135,121.479,151.324,121.291,151.502,121.076z M152.348,121.5l-0.723-0.578
			c0.172-0.223,0.314-0.447,0.426-0.67C152.377,120.732,152.502,121.201,152.348,121.5z M151.473,120.801l-0.746-0.598l0.597-0.746
			c0.229,0.191,0.432,0.402,0.596,0.613C151.805,120.313,151.654,120.559,151.473,120.801z M151.445,119.303l0.576-0.723
			c0.215,0.256,0.196,0.742-0.015,1.281C151.848,119.67,151.66,119.482,151.445,119.303z M151.43,118.203
			c-0.311,0.037-0.664,0.195-1.018,0.453c-0.398-0.174-0.779-0.25-1.088-0.219C149.936,118.004,150.736,117.914,151.43,118.203z
			 M148.574,119.377c0.035,0.311,0.195,0.664,0.451,1.016c-0.172,0.4-0.248,0.779-0.217,1.092
			C148.373,120.871,148.283,120.07,148.574,119.377z M149.746,122.234c0.311-0.039,0.664-0.197,1.016-0.453
			c0.4,0.172,0.781,0.248,1.09,0.217C151.24,122.434,150.441,122.521,149.746,122.234z M152.602,121.059
			c-0.035-0.311-0.192-0.662-0.451-1.014c0.175-0.402,0.25-0.781,0.218-1.092C152.803,119.566,152.893,120.367,152.602,121.059z"/>
		<path fill="#FFFFFF" d="M149.313,122.225c0,0,0.095,0.861,0.693,0.918c0.598,0.058,1.258-0.914,1.449-2.539
			c0.193-1.641-0.469-2.963-0.469-2.963l-0.43,0.07l0.409-1.041l0.804,0.984l-0.349-0.055c0,0,0.937,1.262,0.668,3.186
			c-0.303,2.176-1.416,3.178-2.192,3.002C149.119,123.609,149.313,122.225,149.313,122.225z"/>
	</g>
	<g>
		<path fill="#FFFFFF" d="M152.734,117.428l-1.123-0.897l0.125-0.158l0.856,0.094c0.197,0.023,0.369,0.054,0.527,0.091v-0.005
			c-0.16-0.106-0.302-0.213-0.476-0.352l-0.471-0.377l0.109-0.138l1.123,0.898l-0.115,0.146l-0.857-0.099
			c-0.188-0.021-0.375-0.051-0.541-0.09l-0.004,0.006c0.148,0.104,0.287,0.209,0.473,0.359l0.48,0.383L152.734,117.428z"/>
		<path fill="#FFFFFF" d="M153.404,115.865l0.26,0.398l-0.119,0.149l-0.818-1.279l0.142-0.176l1.428,0.517l-0.123,0.153
			l-0.448-0.162L153.404,115.865z M153.584,115.406l-0.41-0.148c-0.094-0.033-0.174-0.07-0.25-0.105l-0.004,0.002
			c0.053,0.07,0.107,0.146,0.158,0.222l0.236,0.369L153.584,115.406z"/>
		<path fill="#FFFFFF" d="M154.686,113.975c-0.162-0.117-0.358-0.258-0.498-0.373l-0.004,0.006c0.103,0.146,0.203,0.304,0.314,0.482
			l0.387,0.635l-0.088,0.109l-0.682-0.246c-0.199-0.074-0.381-0.145-0.539-0.219l-0.004,0.002c0.139,0.117,0.32,0.275,0.479,0.42
			l0.457,0.414l-0.11,0.139l-1.06-0.977l0.146-0.184l0.697,0.241c0.176,0.064,0.33,0.125,0.469,0.189l0.004-0.007
			c-0.09-0.118-0.182-0.258-0.284-0.42l-0.384-0.635l0.148-0.186l1.18,0.828l-0.112,0.143L154.686,113.975z"/>
		<path fill="#FFFFFF" d="M155.434,112.971l-0.348,0.438l0.404,0.319l0.389-0.483l0.121,0.098l-0.504,0.632l-1.125-0.898
			l0.486-0.607l0.121,0.098l-0.369,0.463l0.356,0.283l0.349-0.436L155.434,112.971z"/>
		<path fill="#FFFFFF" d="M155.326,111.91c0.037-0.072,0.107-0.18,0.188-0.283c0.115-0.145,0.217-0.217,0.33-0.242
			c0.09-0.023,0.184-0.004,0.271,0.066c0.109,0.084,0.146,0.232,0.096,0.387l0.004,0.002c0.111-0.086,0.299-0.141,0.467-0.006
			c0.096,0.076,0.139,0.174,0.148,0.275c0.008,0.135-0.061,0.287-0.205,0.471c-0.082,0.1-0.146,0.17-0.193,0.215L155.326,111.91z
			 M155.902,112.133l0.104-0.131c0.125-0.152,0.115-0.307,0.008-0.395c-0.133-0.104-0.264-0.045-0.381,0.102
			c-0.053,0.068-0.078,0.109-0.092,0.137L155.902,112.133z M156.441,112.564c0.026-0.025,0.063-0.064,0.102-0.117
			c0.123-0.148,0.176-0.332,0.014-0.461c-0.154-0.123-0.322-0.043-0.449,0.115l-0.096,0.119L156.441,112.564z"/>
		<path fill="#FFFFFF" d="M156.949,111.428l0.26,0.4l-0.119,0.148l-0.818-1.279l0.142-0.174l1.43,0.514l-0.122,0.156l-0.451-0.162
			L156.949,111.428z M157.129,110.969l-0.41-0.148c-0.092-0.032-0.174-0.067-0.25-0.104l-0.002,0.002
			c0.053,0.07,0.105,0.146,0.156,0.221l0.238,0.369L157.129,110.969z"/>
		<path fill="#FFFFFF" d="M157.975,110.871l-1.123-0.898l0.125-0.158l0.857,0.095c0.197,0.021,0.369,0.053,0.525,0.092v-0.004
			c-0.16-0.106-0.299-0.213-0.476-0.354l-0.469-0.375l0.106-0.137l1.125,0.896l-0.117,0.146l-0.854-0.098
			c-0.189-0.021-0.377-0.052-0.545-0.091l-0.004,0.007c0.15,0.104,0.287,0.209,0.475,0.356l0.479,0.385L157.975,110.871z"/>
		<path fill="#FFFFFF" d="M157.729,108.875l0.115-0.145l0.543,0.434l0.004-0.008c-0.02-0.062-0.035-0.125-0.051-0.182l-0.146-0.681
			l0.144-0.18l0.154,0.784l0.995,0.08l-0.137,0.17l-0.85-0.069l0.039,0.205l0.428,0.342l-0.115,0.146L157.729,108.875z"/>
	</g>
	
		<rect x="150.813" y="112.204" transform="matrix(-0.6245 0.781 -0.781 -0.6245 344.6525 59.6122)" fill="#FFFFFF" width="14.365" height="0.911"/>
</g>
<g>
	<path fill="#FFFFFF" d="M157.412,126.729c0.635,0.508,0.797,1.023,0.467,1.435c-0.291,0.364-0.83,0.338-1.451-0.147
		c-0.623-0.498-0.754-1.046-0.451-1.423C156.291,126.199,156.82,126.256,157.412,126.729z M156.633,127.764
		c0.484,0.387,0.879,0.457,1.063,0.229c0.207-0.259,0.005-0.621-0.473-1.002c-0.459-0.367-0.854-0.488-1.063-0.229
		C155.984,126.982,156.125,127.359,156.633,127.764z"/>
	<path fill="#FFFFFF" d="M158.588,125.258c0.635,0.506,0.797,1.023,0.467,1.434c-0.291,0.365-0.83,0.341-1.451-0.146
		c-0.625-0.502-0.754-1.047-0.449-1.424C157.467,124.729,157.996,124.783,158.588,125.258z M157.809,126.293
		c0.484,0.387,0.877,0.459,1.062,0.229c0.207-0.258,0.004-0.621-0.472-1.002c-0.459-0.367-0.854-0.487-1.063-0.229
		C157.16,125.512,157.301,125.887,157.809,126.293z"/>
	<path fill="#FFFFFF" d="M159.764,123.787c0.633,0.506,0.797,1.021,0.465,1.434c-0.289,0.365-0.828,0.34-1.449-0.147
		c-0.625-0.5-0.754-1.046-0.45-1.423C158.641,123.258,159.17,123.313,159.764,123.787z M158.984,124.822
		c0.483,0.387,0.877,0.457,1.063,0.229c0.205-0.258,0.002-0.621-0.473-1.002c-0.459-0.367-0.854-0.488-1.063-0.229
		C158.334,124.041,158.477,124.416,158.984,124.822z"/>
	<path fill="#FFFFFF" d="M161.426,121.709c0.635,0.506,0.795,1.021,0.465,1.434c-0.291,0.363-0.83,0.338-1.451-0.147
		c-0.623-0.5-0.752-1.045-0.448-1.425C160.303,121.18,160.832,121.234,161.426,121.709z M160.645,122.744
		c0.484,0.385,0.879,0.455,1.063,0.229c0.207-0.258,0.004-0.623-0.472-1.002c-0.461-0.367-0.854-0.49-1.063-0.229
		C159.996,121.961,160.137,122.336,160.645,122.744z"/>
	<path fill="#FFFFFF" d="M162.6,120.238c0.635,0.506,0.797,1.02,0.467,1.434c-0.291,0.363-0.828,0.336-1.448-0.148
		c-0.627-0.5-0.755-1.045-0.451-1.424C161.479,119.709,162.008,119.764,162.6,120.238z M161.82,121.271
		c0.484,0.387,0.879,0.457,1.063,0.229c0.205-0.26,0.002-0.623-0.471-1.002c-0.459-0.367-0.855-0.49-1.064-0.229
		C161.172,120.49,161.314,120.865,161.82,121.271z"/>
	<path fill="#FFFFFF" d="M164.262,118.158c0.635,0.508,0.795,1.021,0.465,1.436c-0.289,0.363-0.828,0.336-1.449-0.15
		c-0.625-0.5-0.754-1.043-0.45-1.422C163.139,117.629,163.668,117.684,164.262,118.158z M163.482,119.193
		c0.483,0.387,0.877,0.457,1.061,0.229c0.207-0.258,0.004-0.621-0.471-1c-0.457-0.367-0.854-0.49-1.063-0.229
		C162.834,118.412,162.975,118.787,163.482,119.193z"/>
	<path fill="#FFFFFF" d="M165.438,116.688c0.633,0.506,0.795,1.021,0.467,1.437c-0.291,0.36-0.829,0.336-1.448-0.149
		c-0.627-0.5-0.756-1.043-0.453-1.423C164.316,116.156,164.844,116.213,165.438,116.688z M164.656,117.723
		c0.484,0.387,0.879,0.457,1.063,0.229c0.207-0.259,0.004-0.621-0.471-1.002c-0.459-0.365-0.855-0.49-1.063-0.228
		C164.01,116.941,164.15,117.316,164.656,117.723z"/>
	<path fill="#FFFFFF" d="M167.1,114.609c0.633,0.506,0.795,1.021,0.465,1.434c-0.293,0.363-0.83,0.338-1.448-0.148
		c-0.625-0.5-0.755-1.045-0.453-1.424C165.977,114.078,166.506,114.135,167.1,114.609z M166.318,115.643
		c0.483,0.39,0.879,0.459,1.063,0.229c0.207-0.258,0.004-0.619-0.473-1c-0.459-0.365-0.854-0.49-1.061-0.229
		C165.67,114.861,165.813,115.238,166.318,115.643z"/>
	<path fill="#FFFFFF" d="M168.273,113.139c0.635,0.506,0.797,1.021,0.465,1.435c-0.289,0.362-0.828,0.338-1.449-0.148
		c-0.625-0.5-0.754-1.045-0.451-1.424C167.152,112.607,167.68,112.664,168.273,113.139z M167.494,114.172
		c0.484,0.389,0.879,0.459,1.063,0.229c0.205-0.258,0.002-0.618-0.473-1c-0.459-0.366-0.854-0.489-1.063-0.229
		C166.846,113.391,166.986,113.768,167.494,114.172z"/>
	<path fill="#FFFFFF" d="M169.449,111.668c0.635,0.506,0.797,1.021,0.467,1.434c-0.291,0.363-0.832,0.338-1.451-0.147
		c-0.623-0.5-0.754-1.045-0.451-1.425C168.328,111.137,168.855,111.193,169.449,111.668z M168.668,112.701
		c0.486,0.387,0.881,0.459,1.063,0.229c0.207-0.258,0.004-0.621-0.471-1c-0.459-0.367-0.854-0.49-1.063-0.229
		C168.021,111.922,168.162,112.297,168.668,112.701z"/>
	<path fill="#FFFFFF" d="M170.625,110.197c0.635,0.506,0.795,1.021,0.465,1.434c-0.289,0.363-0.826,0.338-1.449-0.148
		c-0.625-0.5-0.754-1.045-0.451-1.424C169.504,109.666,170.033,109.721,170.625,110.197z M169.846,111.23
		c0.484,0.387,0.879,0.459,1.062,0.229c0.206-0.258,0.006-0.621-0.472-1.002c-0.459-0.367-0.854-0.488-1.063-0.227
		C169.197,110.451,169.338,110.824,169.846,111.23z"/>
</g>
<rect x="155.679" y="122.908" transform="matrix(-0.6242 0.7813 -0.7813 -0.6242 363.5054 71.8906)" fill="#FFFFFF" width="17.567" height="0.932"/>
<rect x="158.782" y="127.081" transform="matrix(-0.6241 0.7813 -0.7813 -0.6241 366.0451 78.9952)" fill="#FFFFFF" width="10.479" height="0.93"/>
<rect x="132.092" y="117.193" fill="#97B8E0" width="53.477" height="75.762"/>
<rect x="114.76" y="117.193" fill="#97B8E0" width="17.332" height="75.762"/>
<rect x="123.426" y="117.193" fill="#778EB0" width="8.666" height="75.762"/>
<polygon fill="#627A8D" points="114.76,192.955 132.092,192.955 123.426,180.576 "/>
<circle fill="#7D7D7D" cx="145.605" cy="123.818" r="2.057"/>
<circle fill="#7D7D7D" cx="170.178" cy="123.818" r="2.059"/>
<path fill="#FFFFFF" d="M169.016,124.061c0,0.949,0,18.26,0,18.26c0,6.414-4.951,11.615-11.057,11.615
	c-6.109,0-11.059-5.201-11.059-11.615c0,0,0-17.684,0-18.26s-0.195-1.278-1.154-1.278c-0.963,0-1.322,0.36-1.322,1.278
	s0,18.898,0,18.898c0,7.475,6.059,13.533,13.535,13.533c7.475,0,13.533-6.059,13.533-13.533c0,0,0-18.209,0-18.898
	c0-0.69-0.373-1.278-1.176-1.278S169.016,123.111,169.016,124.061z"/>
</svg>
