<?xml version="1.0" encoding="utf-8"?>
<!-- Generator: Adobe Illustrator 16.0.0, SVG Export Plug-In . SVG Version: 6.00 Build 0)  -->
<!DOCTYPE svg PUBLIC "-//W3C//DTD SVG 1.1//EN" "http://www.w3.org/Graphics/SVG/1.1/DTD/svg11.dtd">
<svg version="1.1" id="Capa_1" xmlns="http://www.w3.org/2000/svg" xmlns:xlink="http://www.w3.org/1999/xlink" x="0px" y="0px"
	 width="158.4px" height="200px" viewBox="0 0 158.4 200" enable-background="new 0 0 158.4 200" xml:space="preserve">
<circle fill="#9B9B9B" cx="88.74" cy="38.653" r="11.218"/>
<g>
	<path fill="#FFFFFF" d="M84.833,47.207c-4.716-2.156-6.8-7.745-4.645-12.46c2.153-4.716,7.743-6.799,12.458-4.645
		c4.716,2.154,6.801,7.745,4.646,12.459C95.137,47.277,89.549,49.361,84.833,47.207z M92.384,30.679
		c-4.396-2.008-9.608-0.064-11.618,4.331c-2.01,4.398-0.064,9.609,4.331,11.618c4.398,2.009,9.608,0.065,11.617-4.332
		C98.724,37.899,96.779,32.688,92.384,30.679z"/>
</g>
<g>
	<path fill="#FFFFFF" d="M83.598,47.849c-0.104-0.058-0.136-0.193-0.081-0.289l0,0c0.056-0.105,0.184-0.142,0.288-0.083l0,0
		c0.099,0.053,0.141,0.184,0.083,0.29l0,0c-0.055,0.096-0.174,0.135-0.273,0.089l0,0C83.606,47.852,83.598,47.849,83.598,47.849z
		 M85.051,48.296c0.04-0.111,0.16-0.168,0.272-0.126l0,0c0.113,0.034,0.168,0.161,0.131,0.265l0,0
		c-0.042,0.111-0.162,0.167-0.271,0.126l0,0c-0.01-0.003-0.021,0.001-0.021,0.001l0,0C85.062,48.517,85.013,48.399,85.051,48.296z
		 M82.157,46.872L82.157,46.872L82.157,46.872c-0.092-0.069-0.103-0.205-0.034-0.295l0,0c0.066-0.088,0.207-0.11,0.294-0.032l0,0
		c0.098,0.072,0.11,0.208,0.033,0.293l0,0c-0.059,0.085-0.167,0.103-0.252,0.063l0,0C82.182,46.895,82.167,46.887,82.157,46.872z
		 M86.685,48.773c0.024-0.118,0.135-0.19,0.248-0.175l0,0c0.11,0.022,0.189,0.133,0.176,0.248l0,0
		c-0.027,0.116-0.134,0.19-0.256,0.173l0,0c-0.018-0.008-0.03-0.016-0.047-0.022l0,0C86.721,48.959,86.669,48.87,86.685,48.773z
		 M80.893,45.68c-0.079-0.091-0.075-0.22,0.017-0.299l0,0c0.084-0.083,0.217-0.068,0.299,0.015l0,0
		c0.07,0.089,0.068,0.218-0.016,0.3l0,0c-0.063,0.056-0.16,0.067-0.229,0.036l0,0C80.933,45.717,80.912,45.699,80.893,45.68z
		 M88.381,48.973c0-0.122,0.097-0.208,0.21-0.214l0.009,0.004c0.111-0.004,0.207,0.097,0.199,0.214l0,0
		c0,0.122-0.096,0.208-0.208,0.21l0,0l0,0l0,0c-0.034-0.006-0.063-0.009-0.084-0.019l0,0C88.429,49.133,88.381,49.055,88.381,48.973
		z M79.843,44.29c-0.059-0.093-0.034-0.231,0.066-0.287l0,0c0.095-0.069,0.23-0.034,0.29,0.058l0,0
		c0.064,0.104,0.035,0.23-0.062,0.297l0,0c-0.064,0.038-0.14,0.039-0.2,0.012l0,0C79.899,44.352,79.865,44.326,79.843,44.29z
		 M90.078,48.89c-0.013-0.117,0.064-0.223,0.178-0.245l0,0c0.119-0.019,0.229,0.068,0.243,0.178l0,0
		c0.021,0.119-0.063,0.221-0.178,0.244l0,0c-0.04,0.008-0.083-0.002-0.122-0.019l0,0C90.138,49.021,90.091,48.961,90.078,48.89z
		 M79.04,42.748c-0.045-0.104,0.003-0.23,0.108-0.275l0,0c0.11-0.042,0.238,0.006,0.283,0.109l0,0
		c0.043,0.112-0.006,0.239-0.119,0.282l0,0c-0.056,0.02-0.112,0.021-0.166-0.002l0,0C79.099,42.841,79.061,42.805,79.04,42.748z
		 M91.742,48.524c-0.033-0.109,0.031-0.228,0.139-0.262l0,0c0.11-0.035,0.232,0.021,0.269,0.13l0,0
		c0.041,0.112-0.023,0.232-0.136,0.274l0,0c-0.053,0.014-0.105,0.007-0.152-0.013l0,0C91.807,48.629,91.76,48.588,91.742,48.524z
		 M78.496,41.104c-0.023-0.125,0.043-0.233,0.158-0.263l0,0c0.115-0.022,0.221,0.045,0.254,0.16l0,0
		c0.029,0.117-0.039,0.226-0.155,0.256l0,0c-0.049,0.006-0.095,0.003-0.141-0.018l0,0C78.557,41.217,78.515,41.167,78.496,41.104z
		 M93.332,47.9c-0.054-0.108-0.017-0.229,0.084-0.287l0,0c0.107-0.052,0.23-0.016,0.284,0.092l0,0
		c0.056,0.102,0.016,0.232-0.085,0.288l0,0c-0.06,0.029-0.133,0.024-0.186-0.001l0,0C93.39,47.974,93.348,47.944,93.332,47.9z
		 M78.233,39.382L78.233,39.382L78.233,39.382c-0.014-0.116,0.077-0.215,0.196-0.227l0,0c0.115-0.012,0.215,0.08,0.227,0.197l0,0
		c0.004,0.114-0.081,0.215-0.197,0.227l0,0c-0.039,0.001-0.072-0.005-0.103-0.02l0,0C78.287,39.528,78.243,39.461,78.233,39.382z
		 M94.787,47.019c-0.067-0.096-0.046-0.226,0.041-0.296l0,0c0.097-0.068,0.23-0.053,0.297,0.043l0,0
		c0.072,0.086,0.054,0.228-0.041,0.296l0,0c-0.06,0.047-0.146,0.055-0.217,0.023l0,0C94.837,47.071,94.81,47.049,94.787,47.019z
		 M78.254,37.642c0.016-0.113,0.118-0.196,0.236-0.189l0,0c0.112,0.015,0.197,0.118,0.182,0.231l0,0
		c-0.007,0.119-0.109,0.202-0.228,0.194l0,0c-0.026-0.002-0.05-0.013-0.065-0.02l0,0C78.295,37.819,78.247,37.742,78.254,37.642z
		 M96.083,45.908c-0.085-0.075-0.086-0.216-0.01-0.302l0,0c0.084-0.083,0.216-0.087,0.298-0.003l0,0
		c0.087,0.077,0.089,0.216,0.011,0.303l0,0l0,0l0,0c-0.063,0.063-0.159,0.084-0.242,0.047l0,0
		C96.116,45.942,96.104,45.926,96.083,45.908z M78.562,35.93c0.028-0.107,0.145-0.175,0.263-0.149l0,0
		c0.109,0.031,0.177,0.144,0.149,0.263l0,0c-0.03,0.107-0.148,0.185-0.263,0.15l0,0c-0.008-0.004-0.023-0.011-0.03-0.015l0,0
		C78.588,36.137,78.535,36.031,78.562,35.93z M97.174,44.602c-0.094-0.062-0.124-0.197-0.053-0.294l0,0
		c0.063-0.093,0.193-0.118,0.286-0.056l0,0c0.102,0.064,0.125,0.197,0.061,0.296l0,0c-0.058,0.086-0.176,0.118-0.268,0.075l0,0
		C97.195,44.62,97.191,44.61,97.174,44.602z M79.148,34.299c0.05-0.108,0.173-0.153,0.28-0.105l0,0
		c0.108,0.051,0.153,0.173,0.104,0.281l0,0c-0.046,0.1-0.174,0.154-0.279,0.106l0,0C79.146,34.53,79.099,34.408,79.148,34.299z
		 M97.935,42.855L97.935,42.855c0.004-0.009,0.004-0.009,0.007-0.016l0,0c0.005-0.008,0.007-0.015,0.011-0.024l0,0
		c0.05-0.107,0.173-0.153,0.281-0.105l0,0c0.1,0.046,0.154,0.174,0.104,0.282l0,0C98.334,43,98.334,43,98.333,43.008l0,0
		c-0.004,0.007-0.009,0.015-0.014,0.023l0,0c-0.048,0.107-0.171,0.154-0.278,0.104l0,0C97.932,43.085,97.886,42.961,97.935,42.855z
		 M80.054,33.074c-0.093-0.069-0.125-0.198-0.063-0.298l0,0c0.073-0.097,0.205-0.119,0.297-0.059l0,0
		c0.099,0.072,0.126,0.195,0.063,0.297l0,0c-0.061,0.083-0.176,0.115-0.269,0.074l0,0C80.076,33.085,80.068,33.082,80.054,33.074z
		 M98.514,41.247c0.022-0.12,0.146-0.184,0.253-0.154l0,0c0.119,0.028,0.186,0.15,0.152,0.257l0,0
		c-0.032,0.115-0.147,0.184-0.254,0.153l0,0c-0.017-0.007-0.023-0.009-0.04-0.017l0,0C98.533,41.443,98.486,41.346,98.514,41.247z
		 M81.088,31.722c-0.082-0.083-0.086-0.215-0.01-0.301l0,0c0.085-0.082,0.216-0.088,0.302-0.01l0,0
		c0.084,0.083,0.088,0.215,0.012,0.303l0,0c-0.065,0.063-0.167,0.081-0.244,0.045l0,0C81.124,31.748,81.109,31.741,81.088,31.722z
		 M98.807,39.604L98.807,39.604c0.007-0.118,0.108-0.201,0.227-0.193l0,0c0.117,0.008,0.202,0.109,0.195,0.227l0,0
		c-0.007,0.118-0.116,0.208-0.229,0.194l0,0c-0.026-0.003-0.054-0.005-0.077-0.016l0,0C98.847,39.78,98.795,39.69,98.807,39.604z
		 M82.34,30.553c-0.078-0.091-0.058-0.221,0.032-0.292l0,0c0.101-0.075,0.229-0.053,0.3,0.036l0,0
		c0.075,0.1,0.055,0.229-0.042,0.296l0,0c-0.063,0.055-0.146,0.054-0.217,0.023l0,0C82.383,30.601,82.357,30.579,82.34,30.553z
		 M98.825,37.936c-0.011-0.118,0.083-0.223,0.196-0.227l0,0c0.117-0.011,0.215,0.081,0.227,0.197l0,0l0,0l0,0
		c0.004,0.114-0.08,0.215-0.197,0.227l0,0c-0.037,0.001-0.071-0.006-0.103-0.02l0,0C98.878,38.082,98.833,38.014,98.825,37.936z
		 M83.755,29.618c-0.053-0.108-0.013-0.24,0.093-0.284l0,0c0.101-0.056,0.229-0.016,0.286,0.084l0,0
		c0.05,0.098,0.015,0.231-0.093,0.285l0,0c-0.063,0.037-0.128,0.035-0.188,0.007l0,0C83.814,29.691,83.784,29.658,83.755,29.618z
		 M98.565,36.281c-0.023-0.111,0.046-0.221,0.161-0.251l0,0c0.105-0.026,0.222,0.045,0.256,0.154l0,0
		c0.022,0.113-0.048,0.23-0.164,0.26l0,0c-0.043,0.01-0.096,0.002-0.134-0.013l0,0C98.63,36.404,98.58,36.352,98.565,36.281z
		 M85.31,28.923c-0.036-0.121,0.024-0.241,0.135-0.274l0,0c0.109-0.035,0.229,0.023,0.272,0.134l0,0
		c0.03,0.117-0.028,0.229-0.142,0.271l0,0c-0.052,0.013-0.105,0.008-0.152-0.014l0,0C85.378,29.018,85.331,28.979,85.31,28.923z
		 M98.039,34.702L98.039,34.702c-0.041-0.114,0.004-0.232,0.115-0.273l0,0c0.109-0.055,0.232,0.002,0.277,0.105l0,0
		c0.046,0.105-0.003,0.233-0.107,0.277l0,0c-0.061,0.028-0.121,0.019-0.175-0.004l0,0C98.102,34.786,98.063,34.748,98.039,34.702z
		 M86.962,28.485c-0.022-0.113,0.058-0.226,0.172-0.237l0,0c0,0,0,0,0.006-0.008l0,0c0.107-0.015,0.222,0.065,0.233,0.181l0,0
		c0.021,0.113-0.058,0.225-0.175,0.238l0,0c-0.041,0.008-0.082-0.001-0.115-0.015l0,0C87.015,28.613,86.968,28.553,86.962,28.485z
		 M97.263,33.22c-0.06-0.092-0.035-0.229,0.066-0.287l0,0c0.104-0.064,0.229-0.036,0.297,0.063l0,0
		c0.058,0.099,0.034,0.229-0.067,0.293l0,0c-0.064,0.037-0.141,0.039-0.201,0.012l0,0C97.32,33.283,97.292,33.261,97.263,33.22z
		 M88.656,28.327c0.002-0.108,0.093-0.208,0.214-0.207l0,0c0.118,0.005,0.209,0.094,0.209,0.217l0,0
		c0,0.119-0.096,0.208-0.216,0.208l0,0c-0.027-0.003-0.055-0.006-0.084-0.02l0,0C88.708,28.492,88.654,28.411,88.656,28.327z
		 M96.259,31.895c-0.079-0.092-0.075-0.221,0.017-0.299l0,0c0.084-0.083,0.218-0.067,0.299,0.016l0,0l0,0l0,0
		c0.072,0.089,0.07,0.218-0.016,0.301l0,0c-0.063,0.055-0.16,0.066-0.229,0.035l0,0C96.296,31.93,96.278,31.914,96.259,31.895z
		 M90.356,28.454c0.021-0.111,0.134-0.19,0.244-0.168l0,0l0,0l0,0c0.109,0.024,0.189,0.134,0.167,0.245l0,0
		c-0.016,0.114-0.124,0.194-0.243,0.167l0,0c-0.021,0.002-0.036-0.006-0.05-0.011l0,0C90.388,28.645,90.337,28.557,90.356,28.454z
		 M95.039,30.752c-0.085-0.078-0.101-0.205-0.026-0.302l0,0c0.066-0.09,0.203-0.101,0.294-0.034l0,0l0,0l0,0
		c0.097,0.073,0.109,0.208,0.031,0.295l0,0c-0.056,0.084-0.167,0.1-0.25,0.062l0,0C95.071,30.767,95.055,30.759,95.039,30.752z
		 M92.011,28.865c0.032-0.115,0.157-0.168,0.264-0.131l0,0l0,0l0,0c0.111,0.042,0.17,0.162,0.129,0.272l0,0
		c-0.032,0.107-0.158,0.162-0.263,0.123l0,0c-0.013,0.004-0.02,0.001-0.027-0.002l0,0C92.023,29.085,91.972,28.969,92.011,28.865z
		 M93.66,29.823c-0.104-0.058-0.141-0.184-0.083-0.289l0,0c0.057-0.104,0.186-0.139,0.289-0.082l0,0l0,0l0,0
		c0.097,0.053,0.138,0.186,0.082,0.288l0,0c-0.063,0.093-0.181,0.132-0.273,0.09l0,0C93.667,29.827,93.66,29.823,93.66,29.823z"/>
</g>
<path fill="#FFFFFF" d="M90.093,38.282l1.44-3.154c0.188,0.181,0.333,0.393,0.442,0.641c0.127,0.269,0.009,0.102-0.008,0.312
	c-0.011,0.18,0.292,0.746,0.472,0.771l0.638,0.092c0.098,0.013,0.199-0.016,0.274-0.084c0.074-0.065,0.116-0.161,0.115-0.263
	c-0.021-1.125-0.494-2.008-1.405-2.623l0.215-0.473c0.078-0.173-0.026-0.75-0.198-0.83l-0.906-0.053
	c-0.173-0.078-0.376-0.002-0.454,0.171l-0.204,0.45c-0.823-0.259-1.574-0.291-2.234-0.094c-0.77,0.229-1.332,0.726-1.674,1.476
	c-0.336,0.735-0.294,1.461,0.118,2.146c0.093,0.175,0.342,0.538,1.401,1.695l-2.032,4.448c-0.733-0.438-1.157-1.012-1.293-1.744
	c-0.061-0.333-0.074-0.558,0.016-0.962c0.02-0.092,0.011-0.326-0.022-0.416c-0.084-0.241-0.164-0.595-0.259-0.608l-0.581,0.365
	c-0.169-0.026-0.332,0.077-0.382,0.241c-0.157,0.527-0.192,1.035-0.104,1.513c0.205,1.066,0.924,1.969,2.139,2.682l-0.372,0.073
	c-0.079,0.172,0.192,0.689,0.366,0.767l0.935,0.427c0.172,0.078,0.375,0.002,0.454-0.17l0.181-0.393
	c2.012,0.612,3.543-0.093,4.437-2.049C92.106,41.537,91.612,40.11,90.093,38.282z M88.15,35.362c0.202-0.44,0.491-0.734,0.883-0.896
	c0.297-0.122,0.613-0.156,0.965-0.101L88.839,36.9c-0.475-0.495-0.615-0.665-0.65-0.714C88.023,35.928,88.011,35.666,88.15,35.362z
	 M90.05,41.916c-0.546,1.195-1.297,1.704-2.341,1.582l1.629-3.567C90.155,41.038,90.187,41.617,90.05,41.916z"/>
<path fill="#E6DBD5" d="M89.895,37.737l1.442-3.155c0.188,0.183,0.333,0.393,0.441,0.641c0.127,0.269,0.184,0.511,0.171,0.721
	c-0.011,0.179,0.114,0.336,0.293,0.361l0.636,0.091c0.101,0.017,0.202-0.015,0.275-0.081c0.075-0.067,0.12-0.163,0.118-0.265
	c-0.023-1.126-0.495-2.006-1.408-2.622l0.216-0.474c0.077-0.173,0.002-0.376-0.169-0.455l-0.937-0.428
	c-0.172-0.078-0.376-0.002-0.453,0.17l-0.207,0.451c-0.823-0.259-1.573-0.292-2.233-0.092c-0.768,0.227-1.331,0.724-1.674,1.474
	c-0.336,0.735-0.292,1.462,0.119,2.146c0.095,0.174,0.341,0.539,1.402,1.695l-2.033,4.448c-0.733-0.438-1.157-1.011-1.294-1.742
	c-0.061-0.333-0.044-0.708,0.046-1.112c0.021-0.092,0-0.188-0.051-0.267c-0.054-0.079-0.136-0.131-0.23-0.146L83.757,39
	c-0.17-0.028-0.334,0.076-0.381,0.24c-0.159,0.527-0.195,1.035-0.105,1.513c0.204,1.065,0.923,1.968,2.138,2.681l-0.176,0.387
	c-0.079,0.172-0.003,0.376,0.168,0.455l0.936,0.427c0.172,0.081,0.377,0.003,0.456-0.169l0.18-0.394
	c2.013,0.613,3.543-0.092,4.436-2.047C91.91,40.992,91.416,39.564,89.895,37.737z M87.954,34.816c0.2-0.44,0.491-0.734,0.884-0.896
	c0.295-0.122,0.611-0.155,0.964-0.102l-1.158,2.536c-0.475-0.494-0.614-0.665-0.65-0.713C87.828,35.383,87.815,35.121,87.954,34.816
	z M89.853,41.369c-0.546,1.194-1.295,1.706-2.34,1.584l1.63-3.568C89.958,40.493,89.989,41.072,89.853,41.369z"/>
<path opacity="0.4" fill="#E6DBD5" d="M84.078,48.858c-5.636-2.576-8.118-9.231-5.541-14.868c2.574-5.635,9.229-8.117,14.865-5.541
	L84.078,48.858z"/>
<ellipse fill="#C1C3C3" cx="78.97" cy="188.958" rx="75.586" ry="7.485"/>
<path fill="#52617D" d="M10.731,175.359c0,6.84,5.544,12.384,12.383,12.384h63.032c6.839,0,12.384-5.544,12.384-12.384V55.252
	c0-6.838-5.545-12.383-12.384-12.383H23.115c-6.839,0-12.383,5.544-12.383,12.383L10.731,175.359L10.731,175.359z"/>
<path fill="#F5F5F5" d="M18.128,156.88c0,4.909,4.609,8.89,10.296,8.89h52.413c5.688,0,10.296-3.979,10.296-8.89V70.664
	c0-4.909-4.607-8.887-10.296-8.887H28.424c-5.687,0-10.296,3.978-10.296,8.887V156.88z"/>
<g>
	<circle fill="#FFFFFF" cx="63.947" cy="51.552" r="1.493"/>
	<path fill="#FFFFFF" d="M43.452,51.552c0,1.165,0.946,2.111,2.111,2.111h13.542c1.166,0,2.11-0.946,2.11-2.111l0,0
		c0-1.167-0.944-2.113-2.11-2.113H45.563C44.398,49.439,43.452,50.385,43.452,51.552L43.452,51.552z"/>
</g>
<path fill="#455268" d="M41.531,176.669c0,1.828,1.289,3.313,2.879,3.313h18.47c1.592,0,2.88-1.484,2.88-3.313l0,0
	c0-1.83-1.288-3.313-2.88-3.313H44.41C42.82,173.357,41.531,174.839,41.531,176.669L41.531,176.669z"/>
<path fill="#FFFFFF" d="M43.664,176.669c0,1.335,1.083,2.418,2.417,2.418h15.507c1.335,0,2.419-1.083,2.419-2.418l0,0
	c0-1.334-1.084-2.418-2.419-2.418H46.081C44.747,174.251,43.664,175.335,43.664,176.669L43.664,176.669z"/>
<circle fill="#9B9B9B" cx="108.19" cy="69.365" r="11.219"/>
<g>
	<path fill="#FFFFFF" d="M113.138,77.36c-4.409,2.728-10.217,1.361-12.943-3.049c-2.728-4.41-1.359-10.215,3.049-12.943
		s10.215-1.36,12.943,3.048C118.916,68.826,117.547,74.632,113.138,77.36z M103.578,61.908c-4.108,2.544-5.385,7.958-2.843,12.069
		c2.543,4.111,7.958,5.386,12.069,2.843c4.11-2.544,5.385-7.958,2.842-12.069S107.688,59.366,103.578,61.908z"/>
</g>
<g>
	<path fill="#FFFFFF" d="M112.988,78.743c-0.105,0.055-0.235,0.006-0.286-0.092l0,0c-0.055-0.104-0.015-0.231,0.092-0.285l0,0
		c0.1-0.051,0.23-0.015,0.285,0.091l0,0c0.052,0.098,0.018,0.219-0.076,0.276l0,0C112.996,78.739,112.988,78.743,112.988,78.743z
		 M114.167,77.783c-0.069-0.095-0.052-0.226,0.046-0.296l0,0c0.093-0.077,0.228-0.051,0.293,0.039l0,0
		c0.07,0.096,0.052,0.228-0.047,0.297l0,0c-0.006,0.004-0.01,0.015-0.01,0.015l0,0C114.355,77.896,114.231,77.874,114.167,77.783z
		 M111.375,79.403L111.375,79.403L111.375,79.403c-0.106,0.036-0.227-0.029-0.264-0.137l0,0c-0.036-0.106,0.022-0.234,0.136-0.263
		l0,0c0.114-0.04,0.234,0.025,0.263,0.136l0,0c0.041,0.096-0.008,0.195-0.088,0.244l0,0
		C111.408,79.392,111.393,79.401,111.375,79.403z M115.472,76.688c-0.088-0.087-0.088-0.216-0.013-0.303l0,0
		c0.082-0.08,0.22-0.084,0.306-0.008l0,0c0.084,0.085,0.084,0.215,0.002,0.308l0,0c-0.016,0.01-0.027,0.017-0.043,0.026l0,0
		C115.644,76.762,115.541,76.755,115.472,76.688z M109.683,79.792c-0.119,0.015-0.227-0.06-0.24-0.18l0,0
		c-0.021-0.115,0.063-0.219,0.179-0.24l0,0c0.114-0.009,0.22,0.064,0.241,0.18l0,0c0.011,0.083-0.034,0.17-0.099,0.211l0,0
		C109.736,79.779,109.709,79.785,109.683,79.792z M116.577,75.388c-0.102-0.067-0.12-0.195-0.061-0.292l0.007-0.004
		c0.059-0.096,0.193-0.121,0.289-0.048l0,0c0.102,0.067,0.119,0.195,0.061,0.29l0,0l0,0l0,0c-0.024,0.026-0.043,0.045-0.063,0.06
		l0,0C116.737,75.438,116.646,75.434,116.577,75.388z M107.944,79.892c-0.111-0.002-0.212-0.098-0.202-0.212l0,0
		c-0.004-0.119,0.101-0.212,0.208-0.21l0,0c0.125,0.004,0.212,0.099,0.216,0.216l0,0c-0.006,0.074-0.045,0.137-0.104,0.173l0,0
		C108.025,79.881,107.986,79.896,107.944,79.892z M117.45,73.932c-0.104-0.055-0.15-0.177-0.107-0.283l0,0
		c0.053-0.112,0.186-0.154,0.284-0.104l0,0c0.112,0.049,0.149,0.176,0.105,0.282l0,0c-0.017,0.04-0.048,0.069-0.084,0.092l0,0
		C117.592,73.954,117.517,73.96,117.45,73.932z M106.215,79.707c-0.111-0.02-0.189-0.131-0.169-0.243l0,0
		c0.026-0.116,0.14-0.194,0.248-0.175l0,0c0.116,0.027,0.196,0.137,0.168,0.255l0,0c-0.013,0.058-0.042,0.106-0.092,0.138l0,0
		C106.327,79.708,106.275,79.72,106.215,79.707z M118.068,72.344c-0.109-0.033-0.172-0.152-0.143-0.261l0,0
		c0.032-0.109,0.147-0.181,0.258-0.15l0,0c0.115,0.028,0.182,0.148,0.153,0.265l0,0c-0.019,0.05-0.053,0.092-0.096,0.119l0,0
		C118.191,72.347,118.132,72.364,118.068,72.344z M104.545,79.246c-0.116-0.047-0.17-0.163-0.13-0.276l0,0
		c0.045-0.107,0.16-0.159,0.273-0.121l0,0c0.115,0.04,0.167,0.157,0.127,0.27l0,0c-0.022,0.044-0.049,0.081-0.092,0.108l0,0
		C104.674,79.258,104.609,79.266,104.545,79.246z M118.431,70.675c-0.119-0.016-0.201-0.114-0.191-0.229l0,0
		c0.015-0.12,0.113-0.201,0.234-0.186l0,0c0.114,0.009,0.198,0.115,0.19,0.229l0,0c-0.01,0.063-0.055,0.124-0.104,0.154l0,0
		C118.526,70.667,118.477,70.686,118.431,70.675z M102.966,78.51L102.966,78.51L102.966,78.51c-0.103-0.054-0.134-0.185-0.079-0.29
		l0,0c0.057-0.103,0.187-0.134,0.288-0.079l0,0c0.1,0.06,0.136,0.185,0.081,0.289l0,0c-0.02,0.033-0.044,0.059-0.072,0.075l0,0
		C103.119,78.547,103.039,78.545,102.966,78.51z M118.505,68.976c-0.117,0.004-0.214-0.087-0.225-0.199l0,0
		c-0.002-0.118,0.084-0.221,0.201-0.224l0,0c0.112-0.011,0.221,0.083,0.225,0.201l0,0c0.006,0.074-0.036,0.152-0.102,0.19l0,0
		C118.577,68.963,118.543,68.974,118.505,68.976z M101.531,77.527c-0.087-0.075-0.097-0.208-0.026-0.302l0,0
		c0.075-0.087,0.208-0.099,0.294-0.023l0,0c0.097,0.072,0.106,0.204,0.034,0.297l0,0c-0.017,0.022-0.038,0.035-0.052,0.044l0,0
		C101.701,77.591,101.611,77.588,101.531,77.527z M118.3,67.28c-0.108,0.029-0.227-0.047-0.256-0.159l0,0
		c-0.021-0.115,0.048-0.229,0.163-0.25l0,0c0.111-0.03,0.229,0.046,0.259,0.16l0,0l0,0l0,0c0.016,0.089-0.02,0.179-0.098,0.229l0,0
		C118.346,67.273,118.327,67.274,118.3,67.28z M100.277,76.32c-0.072-0.084-0.064-0.217,0.022-0.302l0,0
		c0.085-0.072,0.218-0.066,0.302,0.022l0,0c0.072,0.083,0.07,0.226-0.021,0.303l0,0c-0.007,0.004-0.021,0.014-0.026,0.017l0,0
		C100.464,76.414,100.347,76.398,100.277,76.32z M117.821,65.649c-0.104,0.042-0.232-0.007-0.275-0.121l0,0
		c-0.042-0.104,0.011-0.226,0.113-0.269l0,0c0.108-0.048,0.233,0.005,0.281,0.115l0,0c0.038,0.094,0,0.209-0.089,0.263l0,0
		C117.845,65.642,117.834,65.64,117.821,65.649z M99.247,74.928c-0.063-0.102-0.031-0.229,0.068-0.292l0,0
		c0.101-0.062,0.229-0.032,0.29,0.068l0,0c0.06,0.094,0.033,0.229-0.065,0.292l0,0C99.438,75.059,99.309,75.028,99.247,74.928z
		 M116.787,64.045L116.787,64.045c-0.003-0.008-0.003-0.008-0.008-0.014l0,0c-0.004-0.009-0.008-0.015-0.012-0.023l0,0
		c-0.063-0.1-0.032-0.229,0.065-0.292l0,0c0.094-0.059,0.23-0.031,0.293,0.069l0,0c0.004,0.006,0.004,0.006,0.009,0.014l0,0
		c0.006,0.007,0.01,0.015,0.014,0.023l0,0c0.063,0.099,0.033,0.228-0.067,0.291l0,0C116.978,64.176,116.85,64.146,116.787,64.045z
		 M98.729,73.495c-0.108,0.037-0.233-0.005-0.28-0.115l0,0c-0.041-0.114,0.014-0.237,0.115-0.279l0,0
		c0.114-0.041,0.231,0.005,0.279,0.115l0,0c0.038,0.095-0.001,0.209-0.087,0.263l0,0C98.751,73.482,98.744,73.488,98.729,73.495z
		 M115.771,62.673c-0.086-0.086-0.072-0.225,0.014-0.297l0,0c0.088-0.084,0.228-0.07,0.297,0.015l0,0
		c0.08,0.092,0.071,0.225-0.014,0.297l0,0c-0.014,0.009-0.021,0.015-0.036,0.023l0,0C115.945,62.764,115.837,62.751,115.771,62.673z
		 M98.179,71.884c-0.116,0.022-0.229-0.047-0.259-0.16l0,0c-0.021-0.115,0.048-0.228,0.159-0.257l0,0
		c0.117-0.023,0.229,0.048,0.259,0.16l0,0c0.017,0.089-0.025,0.184-0.098,0.229l0,0C98.219,71.869,98.207,71.877,98.179,71.884z
		 M114.567,61.517L114.567,61.517c-0.095-0.071-0.106-0.204-0.034-0.296l0,0c0.071-0.094,0.202-0.107,0.297-0.036l0,0
		c0.094,0.071,0.109,0.212,0.034,0.298l0,0c-0.018,0.021-0.034,0.042-0.056,0.056l0,0C114.735,61.582,114.632,61.575,114.567,61.517
		z M97.902,70.194c-0.121,0.016-0.218-0.075-0.227-0.188l0,0c-0.009-0.125,0.081-0.22,0.195-0.23l0,0
		c0.124-0.007,0.22,0.083,0.224,0.2l0,0c0.011,0.082-0.037,0.151-0.102,0.192l0,0C97.964,70.185,97.932,70.195,97.902,70.194z
		 M113.189,60.577c-0.105-0.055-0.141-0.192-0.078-0.29l0,0c0.054-0.104,0.184-0.134,0.288-0.079l0,0l0,0l0,0
		c0.097,0.059,0.135,0.186,0.077,0.29l0,0c-0.019,0.033-0.043,0.056-0.071,0.075l0,0C113.341,60.612,113.259,60.612,113.189,60.577z
		 M97.906,68.499c-0.117-0.017-0.204-0.123-0.183-0.234l0,0c0.008-0.115,0.113-0.202,0.228-0.194l0,0
		c0.108,0.014,0.201,0.116,0.187,0.235l0,0c-0.006,0.074-0.04,0.125-0.101,0.162l0,0C98.001,68.489,97.958,68.497,97.906,68.499z
		 M111.669,59.874c-0.105-0.043-0.16-0.161-0.119-0.273l0,0c0.036-0.104,0.158-0.16,0.269-0.127l0,0
		c0.106,0.042,0.164,0.167,0.125,0.28l0,0c-0.017,0.041-0.049,0.082-0.085,0.104l0,0C111.807,59.889,111.736,59.902,111.669,59.874z
		 M98.193,66.818c-0.121-0.035-0.187-0.154-0.154-0.264l0,0c0.033-0.108,0.148-0.18,0.265-0.153l0,0
		c0.112,0.04,0.175,0.151,0.146,0.268l0,0c-0.019,0.052-0.052,0.093-0.096,0.12l0,0C98.309,66.814,98.251,66.833,98.193,66.818z
		 M110.063,59.435L110.063,59.435c-0.118-0.029-0.191-0.131-0.163-0.249l0,0c0.016-0.119,0.131-0.19,0.241-0.17l0,0
		c0.112,0.021,0.189,0.132,0.173,0.244l0,0c-0.013,0.066-0.053,0.111-0.104,0.143l0,0C110.167,59.429,110.115,59.441,110.063,59.435
		z M98.744,65.202c-0.104-0.044-0.154-0.172-0.1-0.276l0,0c0,0,0,0-0.005-0.008l0,0c0.049-0.099,0.179-0.148,0.279-0.093l0,0
		c0.107,0.043,0.156,0.171,0.103,0.275l0,0c-0.017,0.04-0.047,0.069-0.076,0.087l0,0C98.88,65.228,98.805,65.235,98.744,65.202z
		 M108.4,59.259c-0.11-0.002-0.211-0.099-0.201-0.214l0,0c0.004-0.123,0.098-0.21,0.216-0.212l0,0
		c0.114,0.008,0.21,0.098,0.206,0.218l0,0c-0.004,0.074-0.045,0.14-0.102,0.174l0,0C108.482,59.247,108.45,59.257,108.4,59.259z
		 M99.553,63.706c-0.09-0.063-0.121-0.194-0.056-0.294l0,0c0.071-0.096,0.195-0.121,0.296-0.053l0,0
		c0.102,0.065,0.122,0.193,0.056,0.294l0,0c-0.02,0.021-0.035,0.041-0.063,0.059l0,0C99.72,63.752,99.622,63.754,99.553,63.706z
		 M106.74,59.359c-0.12,0.015-0.226-0.059-0.241-0.18l0,0c-0.021-0.115,0.065-0.219,0.181-0.24l0,0l0,0l0,0
		c0.113-0.01,0.22,0.063,0.24,0.179l0,0c0.014,0.083-0.032,0.17-0.099,0.211l0,0C106.792,59.347,106.767,59.353,106.74,59.359z
		 M100.601,62.359c-0.079-0.08-0.084-0.215-0.004-0.296l0,0l0,0l0,0c0.082-0.079,0.218-0.084,0.298-0.003l0,0
		c0.085,0.075,0.092,0.211,0.004,0.295l0,0c-0.011,0.017-0.025,0.026-0.039,0.035l0,0C100.779,62.439,100.677,62.433,100.601,62.359
		z M105.113,59.74c-0.112,0.028-0.229-0.03-0.268-0.146l0,0c-0.035-0.107,0.028-0.227,0.137-0.263l0,0l0,0l0,0
		c0.113-0.041,0.231,0.022,0.263,0.135l0,0c0.039,0.095-0.01,0.195-0.089,0.244l0,0C105.142,59.721,105.126,59.73,105.113,59.74z
		 M101.863,61.212c-0.077-0.092-0.051-0.227,0.037-0.292l0,0l0,0l0,0c0.097-0.069,0.229-0.051,0.298,0.045l0,0
		c0.072,0.084,0.048,0.219-0.043,0.286l0,0c-0.002,0.011-0.011,0.014-0.017,0.021l0,0C102.052,61.324,101.927,61.3,101.863,61.212z
		 M103.574,60.372c-0.106,0.057-0.23,0.015-0.287-0.09l0,0c-0.054-0.106-0.013-0.231,0.092-0.287l0,0l0,0l0,0
		c0.101-0.05,0.231-0.012,0.287,0.091l0,0c0.043,0.104,0.009,0.224-0.077,0.278l0,0C103.582,60.369,103.574,60.372,103.574,60.372z"
		/>
</g>
<path fill="#FFFFFF" d="M108.632,68.033l-1.825-2.95c0.257-0.056,0.514-0.06,0.779-0.013c0.292,0.044,0.089,0.051,0.256,0.179
	c0.144,0.109,0.781,0.17,0.901,0.035l0.432-0.479c0.065-0.073,0.098-0.175,0.082-0.275c-0.013-0.099-0.067-0.188-0.153-0.242
	c-0.949-0.607-1.946-0.702-2.963-0.285l-0.274-0.442c-0.099-0.161-0.638-0.394-0.799-0.294l-0.548,0.724
	c-0.161,0.1-0.21,0.311-0.109,0.472l0.261,0.422c-0.673,0.542-1.114,1.147-1.318,1.807c-0.235,0.764-0.133,1.508,0.3,2.21
	c0.426,0.687,1.052,1.055,1.851,1.092c0.197,0.02,0.639,0.014,2.189-0.226l2.572,4.158c-0.771,0.368-1.484,0.402-2.168,0.109
	c-0.312-0.134-0.506-0.248-0.793-0.547c-0.063-0.067-0.267-0.189-0.357-0.213c-0.248-0.062-0.587-0.193-0.65-0.122l-0.018,0.686
	c-0.115,0.126-0.121,0.319-0.013,0.452c0.352,0.423,0.755,0.735,1.199,0.926c1.002,0.421,2.15,0.324,3.418-0.291l-0.146,0.352
	c0.099,0.161,0.681,0.22,0.841,0.121l0.875-0.541c0.16-0.099,0.209-0.312,0.11-0.473l-0.229-0.367
	c1.626-1.334,1.89-2.999,0.758-4.828C112.458,68.164,110.997,67.784,108.632,68.033z M105.126,68.029
	c-0.256-0.413-0.34-0.816-0.257-1.232c0.063-0.314,0.211-0.596,0.452-0.858l1.465,2.37c-0.674,0.12-0.894,0.142-0.955,0.145
	C105.525,68.448,105.301,68.312,105.126,68.029z M111.631,70.084c0.691,1.118,0.698,2.023,0.018,2.825l-2.062-3.334
	C110.958,69.51,111.458,69.806,111.631,70.084z"/>
<path fill="#E6DBD5" d="M108.068,67.894l-1.823-2.95c0.256-0.055,0.513-0.059,0.778-0.011c0.295,0.043,0.526,0.13,0.694,0.256
	c0.144,0.11,0.344,0.092,0.463-0.042l0.431-0.479c0.065-0.074,0.098-0.176,0.084-0.274c-0.013-0.101-0.069-0.189-0.154-0.244
	c-0.949-0.606-1.943-0.702-2.963-0.284l-0.272-0.441c-0.101-0.162-0.313-0.212-0.474-0.112l-0.875,0.542
	c-0.161,0.1-0.211,0.311-0.109,0.471l0.259,0.422c-0.67,0.542-1.113,1.147-1.314,1.806c-0.235,0.766-0.137,1.508,0.298,2.21
	c0.426,0.688,1.055,1.055,1.852,1.092c0.197,0.019,0.639,0.015,2.188-0.226l2.572,4.159c-0.771,0.367-1.482,0.403-2.166,0.109
	c-0.311-0.134-0.613-0.354-0.898-0.654c-0.065-0.068-0.157-0.105-0.25-0.105c-0.097,0-0.186,0.04-0.249,0.11l-0.421,0.454
	c-0.116,0.125-0.12,0.32-0.012,0.452c0.352,0.424,0.754,0.736,1.199,0.926c1,0.422,2.147,0.324,3.417-0.292l0.224,0.362
	c0.102,0.161,0.313,0.212,0.475,0.112l0.872-0.542c0.162-0.098,0.212-0.311,0.111-0.472l-0.229-0.368
	c1.627-1.334,1.89-2.998,0.759-4.826C111.894,68.025,110.433,67.644,108.068,67.894z M104.562,67.889
	c-0.254-0.411-0.338-0.815-0.255-1.231c0.063-0.313,0.212-0.596,0.451-0.858l1.465,2.37c-0.674,0.12-0.895,0.144-0.955,0.146
	C104.962,68.309,104.738,68.174,104.562,67.889z M111.068,69.944c0.69,1.118,0.699,2.025,0.019,2.826l-2.063-3.335
	C110.397,69.371,110.896,69.667,111.068,69.944z"/>
<path opacity="0.4" fill="#E6DBD5" d="M114.093,78.905c-5.269,3.26-12.184,1.631-15.442-3.638c-3.26-5.27-1.631-12.184,3.637-15.443
	L114.093,78.905z"/>
<circle fill="#9B9B9B" cx="71.322" cy="21.773" r="11.219"/>
<g>
	<path fill="#FFFFFF" d="M76.51,29.616c-4.324,2.859-10.17,1.668-13.028-2.657c-2.861-4.324-1.669-10.169,2.655-13.028
		c4.324-2.86,10.17-1.669,13.028,2.656C82.025,20.911,80.835,26.755,76.51,29.616z M66.487,14.459
		c-4.032,2.668-5.143,8.118-2.478,12.15c2.667,4.032,8.117,5.143,12.148,2.476c4.033-2.667,5.144-8.117,2.476-12.149
		C75.968,12.903,70.519,11.794,66.487,14.459z"/>
</g>
<g>
	<path fill="#FFFFFF" d="M76.401,31.002c-0.104,0.058-0.234,0.013-0.289-0.084l0,0c-0.059-0.104-0.021-0.23,0.084-0.288l0,0
		c0.097-0.054,0.229-0.021,0.288,0.083l0,0c0.054,0.097,0.022,0.219-0.068,0.279l0,0C76.409,30.997,76.401,31.002,76.401,31.002z
		 M77.55,30.007c-0.071-0.094-0.057-0.225,0.037-0.297l0,0c0.09-0.08,0.228-0.058,0.295,0.029l0,0
		c0.072,0.096,0.058,0.227-0.037,0.299l0,0c-0.007,0.004-0.009,0.016-0.009,0.016l0,0C77.744,30.114,77.618,30.095,77.55,30.007z
		 M74.809,31.709L74.809,31.709L74.809,31.709c-0.107,0.04-0.229-0.022-0.269-0.128l0,0c-0.039-0.105,0.018-0.235,0.128-0.267l0,0
		c0.112-0.044,0.234,0.018,0.267,0.127l0,0c0.042,0.096-0.002,0.196-0.08,0.248l0,0C74.842,31.699,74.828,31.708,74.809,31.709z
		 M78.821,28.873c-0.088-0.083-0.091-0.213-0.018-0.302l0,0c0.078-0.083,0.213-0.091,0.304-0.018l0,0
		c0.084,0.084,0.089,0.214,0.01,0.308l0,0c-0.015,0.009-0.029,0.018-0.043,0.028l0,0C78.998,28.941,78.894,28.938,78.821,28.873z
		 M73.13,32.149c-0.12,0.019-0.227-0.052-0.246-0.172l0,0c-0.024-0.115,0.058-0.221,0.173-0.246l0,0
		c0.111-0.013,0.22,0.058,0.245,0.173l0,0c0.014,0.082-0.029,0.172-0.092,0.213l0,0C73.182,32.136,73.156,32.143,73.13,32.149z
		 M79.887,27.54c-0.104-0.064-0.126-0.191-0.07-0.291l0.008-0.004c0.056-0.097,0.192-0.125,0.286-0.058l0,0
		c0.104,0.064,0.126,0.192,0.07,0.29l0,0l0,0l0,0c-0.023,0.026-0.041,0.047-0.062,0.062l0,0
		C80.049,27.584,79.958,27.584,79.887,27.54z M71.395,32.303c-0.11,0.001-0.215-0.092-0.208-0.207l0,0
		c-0.008-0.118,0.093-0.214,0.202-0.216l0,0c0.123,0.001,0.214,0.093,0.222,0.209l0,0c-0.003,0.074-0.042,0.139-0.098,0.177l0,0
		C71.476,32.29,71.436,32.305,71.395,32.303z M80.714,26.058c-0.104-0.052-0.153-0.173-0.112-0.279l0,0
		c0.047-0.114,0.179-0.16,0.278-0.113l0,0c0.113,0.046,0.155,0.171,0.114,0.278l0,0c-0.015,0.04-0.044,0.07-0.081,0.094l0,0
		C80.857,26.075,80.782,26.083,80.714,26.058z M69.661,32.169c-0.112-0.016-0.193-0.125-0.176-0.237l0,0
		c0.021-0.117,0.132-0.2,0.244-0.183l0,0c0.117,0.024,0.199,0.132,0.176,0.25l0,0c-0.013,0.059-0.041,0.108-0.09,0.14l0,0
		C69.772,32.167,69.72,32.182,69.661,32.169z M81.286,24.451c-0.109-0.028-0.177-0.146-0.146-0.255l0,0
		c0.026-0.111,0.141-0.187,0.25-0.158l0,0c0.116,0.023,0.186,0.142,0.162,0.26l0,0c-0.017,0.051-0.051,0.093-0.093,0.122l0,0
		C81.41,24.451,81.349,24.471,81.286,24.451z M67.979,31.76c-0.119-0.043-0.176-0.158-0.141-0.272l0,0
		c0.042-0.108,0.155-0.164,0.271-0.13l0,0c0.115,0.037,0.171,0.153,0.135,0.267l0,0c-0.021,0.045-0.047,0.082-0.089,0.11l0,0
		C68.106,31.768,68.042,31.778,67.979,31.76z M81.598,22.773c-0.12-0.011-0.204-0.107-0.199-0.223l0,0
		c0.013-0.12,0.106-0.205,0.229-0.193l0,0c0.115,0.007,0.203,0.11,0.198,0.224l0,0c-0.008,0.066-0.05,0.126-0.1,0.158l0,0
		C81.692,22.763,81.644,22.783,81.598,22.773z M66.378,31.073L66.378,31.073L66.378,31.073c-0.104-0.052-0.141-0.181-0.088-0.287
		l0,0c0.052-0.105,0.182-0.141,0.287-0.088l0,0c0.099,0.058,0.14,0.18,0.089,0.287l0,0c-0.02,0.033-0.043,0.06-0.07,0.078l0,0
		C66.531,31.104,66.451,31.105,66.378,31.073z M81.621,21.073c-0.118,0.008-0.216-0.081-0.229-0.192l0,0
		c-0.006-0.119,0.077-0.224,0.191-0.229l0,0c0.113-0.015,0.225,0.076,0.23,0.192l0,0c0.009,0.076-0.03,0.153-0.094,0.195l0,0
		C81.691,21.058,81.658,21.069,81.621,21.073z M64.914,30.133c-0.09-0.073-0.104-0.205-0.037-0.301l0,0
		c0.074-0.088,0.206-0.104,0.293-0.033l0,0c0.098,0.069,0.113,0.201,0.044,0.297l0,0c-0.017,0.022-0.037,0.035-0.052,0.045l0,0
		C65.085,30.192,64.995,30.191,64.914,30.133z M81.366,19.383c-0.11,0.033-0.229-0.041-0.261-0.151l0,0
		c-0.025-0.115,0.039-0.23,0.154-0.254l0,0c0.11-0.034,0.229,0.04,0.265,0.151l0,0l0,0l0,0c0.017,0.089-0.017,0.18-0.092,0.232l0,0
		C81.412,19.374,81.391,19.375,81.366,19.383z M63.624,28.965c-0.074-0.082-0.072-0.216,0.015-0.302l0,0
		c0.083-0.076,0.215-0.073,0.302,0.013l0,0c0.075,0.082,0.077,0.223-0.011,0.303l0,0c-0.009,0.004-0.021,0.014-0.029,0.018l0,0
		C63.813,29.053,63.695,29.042,63.624,28.965z M80.833,17.767c-0.1,0.046-0.231,0.001-0.274-0.112l0,0
		c-0.047-0.103,0.002-0.225,0.104-0.272l0,0c0.107-0.051,0.232-0.001,0.282,0.107l0,0c0.042,0.094,0.008,0.21-0.078,0.265l0,0
		C80.861,17.76,80.849,17.758,80.833,17.767z M62.55,27.604c-0.064-0.099-0.036-0.228,0.062-0.293l0,0
		c0.099-0.065,0.229-0.039,0.293,0.06l0,0c0.06,0.092,0.039,0.229-0.059,0.293l0,0C62.747,27.73,62.617,27.704,62.55,27.604z
		 M79.755,16.196L79.755,16.196c-0.004-0.006-0.004-0.006-0.01-0.014l0,0c-0.004-0.007-0.01-0.014-0.014-0.022l0,0
		c-0.064-0.099-0.039-0.229,0.061-0.293l0,0c0.091-0.061,0.229-0.039,0.293,0.061l0,0c0.006,0.006,0.006,0.006,0.012,0.013l0,0
		c0.003,0.008,0.007,0.014,0.012,0.022l0,0c0.064,0.098,0.04,0.228-0.06,0.294l0,0C79.951,16.322,79.821,16.295,79.755,16.196z
		 M61.991,26.188c-0.106,0.04-0.233,0.001-0.285-0.106l0,0c-0.044-0.112,0.007-0.237,0.107-0.283l0,0
		c0.112-0.045,0.231-0.002,0.284,0.105l0,0c0.041,0.095,0.006,0.209-0.079,0.266l0,0C62.012,26.174,62.005,26.18,61.991,26.188z
		 M78.698,14.855c-0.088-0.084-0.08-0.222,0.004-0.298l0,0c0.086-0.085,0.224-0.076,0.299,0.006l0,0
		c0.08,0.089,0.078,0.223-0.005,0.298l0,0c-0.015,0.009-0.021,0.014-0.036,0.024l0,0C78.875,14.941,78.766,14.931,78.698,14.855z
		 M61.393,24.594c-0.115,0.025-0.229-0.04-0.263-0.151l0,0c-0.025-0.115,0.04-0.23,0.151-0.262l0,0
		c0.115-0.027,0.229,0.04,0.263,0.15l0,0c0.019,0.089-0.021,0.186-0.091,0.231l0,0C61.431,24.578,61.418,24.586,61.393,24.594z
		 M77.458,13.735L77.458,13.735c-0.096-0.067-0.111-0.2-0.043-0.295l0,0c0.068-0.096,0.2-0.113,0.295-0.044l0,0
		c0.098,0.068,0.116,0.208,0.044,0.296l0,0c-0.017,0.021-0.032,0.043-0.054,0.057l0,0C77.629,13.795,77.525,13.792,77.458,13.735z
		 M61.063,22.914c-0.12,0.019-0.218-0.069-0.231-0.182l0,0c-0.012-0.125,0.075-0.223,0.188-0.236l0,0
		c0.124-0.012,0.221,0.077,0.229,0.194l0,0c0.014,0.082-0.032,0.152-0.095,0.193l0,0C61.126,22.902,61.094,22.915,61.063,22.914z
		 M76.054,12.837c-0.107-0.052-0.146-0.188-0.089-0.287l0,0c0.052-0.104,0.182-0.139,0.286-0.088l0,0l0,0l0,0
		c0.1,0.057,0.142,0.183,0.088,0.289l0,0c-0.019,0.033-0.043,0.058-0.069,0.077l0,0C76.206,12.869,76.125,12.871,76.054,12.837z
		 M61.018,21.217c-0.118-0.013-0.208-0.116-0.192-0.227l0,0c0.005-0.115,0.109-0.205,0.224-0.2l0,0
		c0.109,0.009,0.204,0.11,0.192,0.229l0,0c-0.003,0.074-0.039,0.126-0.095,0.165l0,0C61.111,21.206,61.067,21.215,61.018,21.217z
		 M74.512,12.182c-0.106-0.04-0.164-0.155-0.129-0.271l0,0c0.033-0.104,0.156-0.164,0.267-0.135l0,0
		c0.107,0.039,0.168,0.163,0.134,0.276l0,0c-0.016,0.041-0.048,0.083-0.083,0.105l0,0C74.651,12.192,74.58,12.207,74.512,12.182z
		 M61.252,19.53c-0.123-0.032-0.189-0.149-0.161-0.259l0,0c0.028-0.111,0.143-0.184,0.259-0.161l0,0
		c0.114,0.037,0.179,0.146,0.154,0.263l0,0c-0.016,0.053-0.05,0.095-0.093,0.123l0,0C61.369,19.523,61.31,19.542,61.252,19.53z
		 M72.894,11.791L72.894,11.791c-0.119-0.025-0.195-0.125-0.171-0.242l0,0c0.012-0.12,0.125-0.195,0.237-0.178l0,0
		c0.113,0.017,0.194,0.125,0.179,0.237l0,0c-0.009,0.066-0.048,0.112-0.098,0.146l0,0C72.999,11.782,72.947,11.796,72.894,11.791z
		 M61.755,17.897c-0.107-0.04-0.16-0.167-0.108-0.271l0,0c0,0,0,0-0.006-0.009l0,0c0.047-0.099,0.175-0.152,0.277-0.101l0,0
		c0.108,0.041,0.162,0.167,0.11,0.272l0,0c-0.014,0.04-0.045,0.07-0.074,0.089l0,0C61.892,17.92,61.816,17.929,61.755,17.897z
		 M71.226,11.665c-0.109,0.001-0.214-0.092-0.207-0.208l0,0c0-0.121,0.091-0.212,0.209-0.219l0,0
		c0.115,0.005,0.212,0.092,0.212,0.214l0,0c-0.002,0.072-0.041,0.139-0.097,0.177l0,0C71.309,11.651,71.276,11.662,71.226,11.665z
		 M62.518,16.378c-0.093-0.06-0.127-0.189-0.063-0.292l0,0c0.068-0.097,0.191-0.126,0.294-0.062l0,0
		c0.104,0.062,0.127,0.189,0.063,0.292l0,0c-0.017,0.022-0.033,0.043-0.062,0.061l0,0C62.686,16.419,62.587,16.424,62.518,16.378z
		 M69.57,11.816c-0.12,0.019-0.228-0.054-0.245-0.173l0,0c-0.026-0.114,0.057-0.22,0.171-0.245l0,0l0,0l0,0
		c0.114-0.014,0.222,0.057,0.247,0.172l0,0c0.014,0.083-0.029,0.172-0.092,0.215l0,0C69.621,11.803,69.596,11.809,69.57,11.816z
		 M63.525,15.001c-0.082-0.077-0.091-0.213-0.013-0.296l0,0l0,0l0,0c0.078-0.082,0.214-0.09,0.296-0.013l0,0
		c0.089,0.073,0.098,0.209,0.013,0.295l0,0c-0.008,0.018-0.023,0.026-0.037,0.036l0,0C63.706,15.075,63.603,15.073,63.525,15.001z
		 M67.955,12.246c-0.109,0.031-0.228-0.023-0.271-0.136l0,0c-0.04-0.106,0.021-0.227,0.128-0.267l0,0l0,0l0,0
		c0.11-0.044,0.232,0.017,0.266,0.127l0,0c0.042,0.093-0.003,0.195-0.08,0.248l0,0C67.983,12.226,67.969,12.235,67.955,12.246z
		 M64.751,13.816c-0.08-0.09-0.059-0.226,0.029-0.293l0,0l0,0l0,0c0.093-0.072,0.226-0.059,0.298,0.035l0,0
		c0.074,0.083,0.054,0.218-0.035,0.288l0,0c-0.002,0.011-0.008,0.014-0.015,0.021l0,0C64.944,13.922,64.818,13.903,64.751,13.816z
		 M66.436,12.923c-0.104,0.06-0.23,0.022-0.29-0.082l0,0c-0.059-0.104-0.021-0.23,0.083-0.288l0,0l0,0l0,0
		c0.097-0.055,0.23-0.02,0.289,0.082l0,0c0.046,0.102,0.016,0.223-0.069,0.279l0,0C66.443,12.92,66.436,12.923,66.436,12.923z"/>
</g>
<path fill="#FFFFFF" d="M71.724,20.429l-1.914-2.893c0.254-0.063,0.51-0.076,0.777-0.036c0.295,0.035,0.092,0.049,0.262,0.171
	c0.146,0.105,0.787,0.147,0.902,0.009l0.416-0.491c0.063-0.077,0.092-0.179,0.075-0.278c-0.016-0.098-0.076-0.186-0.162-0.238
	c-0.967-0.577-1.966-0.643-2.971-0.195l-0.287-0.434c-0.105-0.158-0.65-0.375-0.809-0.27l-0.524,0.739
	c-0.158,0.104-0.202,0.317-0.097,0.476l0.272,0.414c-0.654,0.562-1.08,1.18-1.263,1.846c-0.211,0.772-0.089,1.512,0.366,2.199
	c0.445,0.675,1.084,1.023,1.884,1.036c0.197,0.015,0.637-0.004,2.18-0.292l2.698,4.079c-0.761,0.39-1.472,0.448-2.164,0.175
	c-0.313-0.125-0.514-0.233-0.809-0.523c-0.066-0.065-0.271-0.181-0.364-0.201c-0.25-0.054-0.593-0.175-0.653-0.103l0.002,0.688
	c-0.11,0.127-0.109,0.321,0.002,0.45c0.364,0.413,0.777,0.713,1.229,0.891c1.014,0.391,2.16,0.259,3.407-0.395l-0.136,0.355
	c0.104,0.159,0.688,0.201,0.846,0.096l0.856-0.568c0.157-0.104,0.201-0.317,0.096-0.476l-0.237-0.36
	c1.584-1.382,1.796-3.055,0.611-4.848C75.552,20.443,74.08,20.108,71.724,20.429z M68.219,20.531
	c-0.269-0.405-0.363-0.805-0.294-1.224c0.054-0.315,0.192-0.603,0.426-0.872l1.536,2.324c-0.671,0.141-0.89,0.17-0.949,0.175
	C68.63,20.937,68.403,20.809,68.219,20.531z M74.784,22.389c0.725,1.096,0.759,2.001,0.104,2.822l-2.163-3.271
	C74.095,21.834,74.603,22.114,74.784,22.389z"/>
<path fill="#E6DBD5" d="M71.157,20.306l-1.913-2.893c0.254-0.062,0.51-0.074,0.778-0.036c0.296,0.036,0.531,0.115,0.702,0.236
	c0.145,0.105,0.346,0.081,0.462-0.057l0.414-0.492c0.064-0.075,0.094-0.178,0.076-0.276c-0.017-0.1-0.075-0.187-0.161-0.239
	c-0.969-0.578-1.966-0.642-2.971-0.194l-0.287-0.434c-0.104-0.158-0.317-0.202-0.476-0.098l-0.857,0.568
	c-0.157,0.104-0.2,0.316-0.097,0.474l0.273,0.414c-0.656,0.561-1.08,1.18-1.262,1.845c-0.214,0.772-0.09,1.512,0.365,2.2
	c0.446,0.675,1.086,1.022,1.884,1.036c0.196,0.013,0.638-0.006,2.181-0.293l2.696,4.079c-0.761,0.391-1.471,0.448-2.162,0.175
	c-0.314-0.124-0.624-0.337-0.92-0.626c-0.066-0.066-0.158-0.101-0.253-0.098c-0.095,0.002-0.183,0.045-0.246,0.116l-0.405,0.467
	c-0.112,0.128-0.111,0.323,0.001,0.452c0.363,0.414,0.775,0.712,1.228,0.889c1.014,0.392,2.157,0.259,3.406-0.394l0.234,0.354
	c0.104,0.158,0.317,0.201,0.476,0.097l0.856-0.567c0.158-0.104,0.202-0.318,0.098-0.476l-0.239-0.361
	c1.585-1.383,1.798-3.053,0.611-4.846C74.984,20.323,73.512,19.986,71.157,20.306z M67.652,20.409
	c-0.268-0.404-0.363-0.805-0.292-1.224c0.053-0.315,0.193-0.604,0.425-0.872l1.536,2.324c-0.67,0.142-0.89,0.17-0.95,0.175
	C68.065,20.815,67.836,20.688,67.652,20.409z M74.216,22.265c0.726,1.097,0.762,2.003,0.104,2.824l-2.163-3.271
	C73.528,21.712,74.036,21.994,74.216,22.265z"/>
<path opacity="0.4" fill="#E6DBD5" d="M77.511,31.13c-5.169,3.418-12.129,2-15.548-3.169c-3.417-5.168-1.999-12.129,3.17-15.546
	L77.511,31.13z"/>
<circle fill="#9B9B9B" cx="103.365" cy="14.27" r="11.219"/>
<g>
	<path fill="#FFFFFF" d="M108.312,22.265c-4.409,2.728-10.216,1.361-12.943-3.048c-2.729-4.41-1.361-10.215,3.049-12.942
		c4.408-2.729,10.216-1.362,12.943,3.048C114.087,13.731,112.72,19.537,108.312,22.265z M98.752,6.813
		c-4.111,2.544-5.387,7.959-2.844,12.068c2.544,4.113,7.957,5.388,12.067,2.844c4.111-2.544,5.387-7.958,2.844-12.069
		C108.277,5.545,102.862,4.271,98.752,6.813z"/>
</g>
<g>
	<path fill="#FFFFFF" d="M108.162,23.649c-0.105,0.054-0.236,0.005-0.287-0.092l0,0c-0.055-0.106-0.014-0.231,0.093-0.286l0,0
		c0.099-0.052,0.23-0.015,0.284,0.092l0,0c0.054,0.098,0.019,0.219-0.076,0.276l0,0C108.168,23.643,108.162,23.649,108.162,23.649z
		 M109.339,22.688c-0.068-0.094-0.05-0.226,0.046-0.295l0,0c0.093-0.078,0.229-0.051,0.295,0.039l0,0
		c0.067,0.097,0.051,0.228-0.048,0.297l0,0c-0.007,0.004-0.009,0.016-0.009,0.016l0,0C109.529,22.801,109.405,22.778,109.339,22.688
		z M106.548,24.308L106.548,24.308L106.548,24.308c-0.108,0.035-0.229-0.03-0.264-0.137l0,0c-0.035-0.105,0.023-0.233,0.137-0.264
		l0,0c0.113-0.04,0.233,0.025,0.263,0.137l0,0c0.04,0.096-0.011,0.196-0.087,0.244l0,0
		C106.582,24.297,106.567,24.307,106.548,24.308z M110.645,21.594c-0.087-0.087-0.087-0.217-0.012-0.303l0,0
		c0.082-0.08,0.219-0.083,0.306-0.008l0,0c0.083,0.085,0.084,0.216,0.002,0.308l0,0c-0.017,0.009-0.029,0.017-0.043,0.027l0,0
		C110.818,21.667,110.714,21.66,110.645,21.594z M104.856,24.696c-0.12,0.016-0.226-0.059-0.24-0.18l0,0
		c-0.021-0.115,0.064-0.219,0.18-0.24l0,0c0.113-0.009,0.221,0.063,0.24,0.18l0,0c0.012,0.082-0.033,0.171-0.099,0.21l0,0
		C104.91,24.684,104.883,24.691,104.856,24.696z M111.75,20.292c-0.101-0.067-0.12-0.195-0.061-0.292l0.008-0.003
		c0.059-0.097,0.195-0.121,0.289-0.049l0,0c0.102,0.067,0.119,0.195,0.061,0.291l0,0l0,0l0,0c-0.024,0.026-0.042,0.045-0.063,0.059
		l0,0C111.911,20.343,111.819,20.34,111.75,20.292z M103.117,24.798c-0.11-0.003-0.211-0.1-0.201-0.214l0,0
		c-0.004-0.117,0.101-0.211,0.209-0.209l0,0c0.123,0.004,0.211,0.099,0.213,0.216l0,0c-0.005,0.074-0.045,0.137-0.103,0.174l0,0
		C103.199,24.787,103.16,24.801,103.117,24.798z M112.623,18.836c-0.104-0.055-0.149-0.177-0.105-0.283l0,0
		c0.051-0.112,0.184-0.153,0.283-0.104l0,0c0.111,0.049,0.149,0.176,0.105,0.282l0,0c-0.017,0.039-0.049,0.068-0.084,0.091l0,0
		C112.765,18.858,112.689,18.865,112.623,18.836z M101.388,24.612c-0.11-0.02-0.189-0.131-0.169-0.243l0,0
		c0.026-0.116,0.138-0.195,0.248-0.175l0,0c0.117,0.027,0.196,0.138,0.169,0.255l0,0c-0.014,0.058-0.044,0.106-0.095,0.137l0,0
		C101.5,24.613,101.447,24.625,101.388,24.612z M113.241,17.249c-0.106-0.033-0.172-0.152-0.14-0.261l0,0
		c0.032-0.109,0.146-0.182,0.255-0.149l0,0c0.116,0.027,0.182,0.146,0.155,0.264l0,0c-0.02,0.05-0.054,0.092-0.097,0.119l0,0
		C113.365,17.252,113.305,17.27,113.241,17.249z M99.72,24.15c-0.119-0.046-0.172-0.163-0.133-0.276l0,0
		c0.045-0.107,0.161-0.158,0.274-0.122l0,0c0.113,0.041,0.166,0.158,0.127,0.271l0,0c-0.022,0.044-0.05,0.081-0.093,0.106l0,0
		C99.847,24.163,99.782,24.171,99.72,24.15z M113.605,15.581c-0.119-0.016-0.201-0.115-0.193-0.229l0,0
		c0.018-0.12,0.115-0.201,0.235-0.186l0,0c0.114,0.009,0.2,0.115,0.19,0.229l0,0c-0.009,0.066-0.054,0.124-0.103,0.154l0,0
		C113.699,15.572,113.651,15.591,113.605,15.581z M98.141,23.416L98.141,23.416L98.141,23.416c-0.104-0.055-0.137-0.185-0.082-0.29
		l0,0c0.058-0.103,0.188-0.135,0.29-0.08l0,0c0.099,0.061,0.137,0.186,0.081,0.29l0,0c-0.021,0.032-0.046,0.058-0.074,0.076l0,0
		C98.292,23.452,98.212,23.451,98.141,23.416z M113.679,13.882c-0.118,0.003-0.216-0.087-0.226-0.2l0,0
		c-0.003-0.118,0.083-0.221,0.2-0.223l0,0c0.113-0.01,0.22,0.083,0.224,0.2l0,0c0.009,0.075-0.035,0.152-0.101,0.191l0,0
		C113.75,13.868,113.716,13.879,113.679,13.882z M96.704,22.431c-0.086-0.075-0.097-0.207-0.025-0.301l0,0
		c0.075-0.086,0.208-0.099,0.295-0.023l0,0c0.094,0.072,0.105,0.204,0.034,0.296l0,0c-0.018,0.022-0.038,0.035-0.054,0.044l0,0
		C96.874,22.497,96.785,22.494,96.704,22.431z M113.474,12.186c-0.109,0.028-0.229-0.048-0.257-0.161l0,0
		c-0.021-0.115,0.048-0.227,0.162-0.249l0,0c0.112-0.029,0.229,0.047,0.26,0.159l0,0l0,0l0,0c0.016,0.089-0.021,0.18-0.099,0.229
		l0,0C113.521,12.177,113.501,12.18,113.474,12.186z M95.452,21.226c-0.073-0.083-0.064-0.218,0.021-0.302l0,0
		c0.085-0.073,0.218-0.065,0.302,0.022l0,0c0.072,0.083,0.07,0.225-0.021,0.302l0,0c-0.008,0.004-0.021,0.013-0.026,0.018l0,0
		C95.637,21.319,95.52,21.305,95.452,21.226z M112.994,10.554c-0.104,0.043-0.231-0.006-0.272-0.121l0,0
		c-0.043-0.102,0.009-0.225,0.111-0.269l0,0c0.107-0.048,0.232,0.005,0.28,0.115l0,0c0.039,0.095,0,0.21-0.087,0.263l0,0
		C113.018,10.546,113.007,10.544,112.994,10.554z M94.42,19.833c-0.063-0.101-0.03-0.229,0.068-0.292l0,0
		c0.101-0.062,0.229-0.032,0.29,0.068l0,0c0.059,0.094,0.033,0.229-0.066,0.292l0,0C94.611,19.965,94.483,19.934,94.42,19.833z
		 M111.962,8.951L111.962,8.951c-0.005-0.007-0.005-0.007-0.01-0.014l0,0c-0.005-0.008-0.01-0.014-0.014-0.023l0,0
		c-0.063-0.099-0.031-0.229,0.069-0.291l0,0c0.092-0.058,0.229-0.031,0.291,0.069l0,0c0.005,0.007,0.005,0.007,0.011,0.015l0,0
		c0.004,0.007,0.008,0.014,0.012,0.022l0,0c0.063,0.1,0.032,0.229-0.068,0.291l0,0C112.152,9.081,112.023,9.052,111.962,8.951z
		 M93.903,18.401c-0.108,0.037-0.233-0.006-0.281-0.115l0,0c-0.041-0.114,0.013-0.237,0.115-0.28l0,0
		c0.115-0.042,0.232,0.005,0.282,0.114l0,0c0.037,0.095-0.002,0.209-0.089,0.263l0,0C93.925,18.387,93.917,18.392,93.903,18.401z
		 M110.945,7.579c-0.086-0.087-0.071-0.226,0.013-0.298l0,0c0.088-0.084,0.229-0.07,0.299,0.014l0,0
		c0.077,0.093,0.071,0.227-0.015,0.298l0,0c-0.015,0.009-0.021,0.014-0.036,0.024l0,0C111.119,7.67,111.011,7.656,110.945,7.579z
		 M93.352,16.789c-0.115,0.022-0.229-0.047-0.257-0.159l0,0c-0.022-0.115,0.047-0.229,0.157-0.256l0,0
		c0.117-0.023,0.229,0.047,0.261,0.159l0,0c0.015,0.089-0.027,0.185-0.099,0.229l0,0C93.393,16.774,93.378,16.782,93.352,16.789z
		 M109.74,6.421L109.74,6.421c-0.094-0.07-0.105-0.202-0.033-0.296l0,0c0.071-0.093,0.202-0.106,0.297-0.036l0,0
		c0.095,0.071,0.109,0.211,0.034,0.297l0,0c-0.018,0.021-0.034,0.043-0.056,0.056l0,0C109.909,6.486,109.805,6.48,109.74,6.421z
		 M93.076,15.099c-0.122,0.016-0.217-0.075-0.227-0.189l0,0c-0.01-0.124,0.082-0.22,0.195-0.23l0,0
		c0.124-0.007,0.221,0.083,0.225,0.2l0,0c0.009,0.083-0.039,0.152-0.104,0.192l0,0C93.138,15.09,93.105,15.101,93.076,15.099z
		 M108.363,5.482c-0.105-0.056-0.14-0.193-0.079-0.29l0,0c0.054-0.103,0.185-0.135,0.289-0.079l0,0l0,0l0,0
		c0.096,0.06,0.135,0.187,0.079,0.291l0,0c-0.021,0.032-0.045,0.057-0.074,0.074l0,0C108.513,5.518,108.433,5.518,108.363,5.482z
		 M93.082,13.403c-0.119-0.015-0.207-0.122-0.186-0.233l0,0c0.009-0.115,0.115-0.201,0.229-0.193l0,0
		c0.109,0.014,0.201,0.117,0.187,0.235l0,0c-0.005,0.073-0.041,0.126-0.101,0.161l0,0C93.175,13.395,93.13,13.402,93.082,13.403z
		 M106.842,4.779c-0.105-0.043-0.158-0.159-0.118-0.273l0,0c0.035-0.104,0.158-0.16,0.269-0.128l0,0
		c0.108,0.043,0.164,0.167,0.125,0.282l0,0c-0.015,0.04-0.051,0.081-0.085,0.103l0,0C106.98,4.793,106.91,4.807,106.842,4.779z
		 M93.366,11.723c-0.12-0.034-0.186-0.154-0.153-0.264l0,0c0.033-0.108,0.148-0.179,0.265-0.152l0,0
		c0.112,0.04,0.174,0.151,0.146,0.267l0,0c-0.019,0.052-0.051,0.093-0.096,0.12l0,0C93.482,11.721,93.423,11.737,93.366,11.723z
		 M105.237,4.34L105.237,4.34c-0.118-0.028-0.191-0.13-0.163-0.248l0,0c0.014-0.12,0.131-0.19,0.24-0.17l0,0
		c0.114,0.02,0.19,0.131,0.173,0.243l0,0c-0.011,0.066-0.052,0.111-0.104,0.143l0,0C105.341,4.334,105.29,4.346,105.237,4.34z
		 M93.919,10.106c-0.107-0.042-0.155-0.171-0.103-0.275l0,0c0,0,0,0-0.004-0.008l0,0c0.048-0.098,0.179-0.148,0.278-0.093l0,0
		c0.107,0.044,0.157,0.173,0.104,0.276l0,0c-0.015,0.039-0.047,0.068-0.076,0.087l0,0C94.054,10.133,93.978,10.14,93.919,10.106z
		 M103.574,4.164c-0.11-0.002-0.211-0.099-0.201-0.215l0,0c0.003-0.122,0.099-0.209,0.216-0.213l0,0
		c0.115,0.009,0.209,0.1,0.206,0.22l0,0c-0.005,0.073-0.045,0.138-0.101,0.174l0,0C103.657,4.151,103.625,4.163,103.574,4.164z
		 M94.726,8.612c-0.09-0.064-0.121-0.195-0.055-0.295l0,0c0.071-0.094,0.194-0.121,0.294-0.053l0,0
		c0.104,0.065,0.123,0.193,0.057,0.295l0,0C95.005,8.58,94.988,8.6,94.959,8.618l0,0C94.894,8.657,94.795,8.659,94.726,8.612z
		 M101.914,4.264c-0.121,0.015-0.226-0.06-0.241-0.18l0,0c-0.021-0.115,0.065-0.218,0.181-0.24l0,0l0,0l0,0
		c0.113-0.01,0.22,0.064,0.239,0.18l0,0c0.015,0.083-0.032,0.17-0.099,0.211l0,0C101.965,4.252,101.939,4.258,101.914,4.264z
		 M95.775,7.266c-0.08-0.081-0.084-0.217-0.005-0.296l0,0l0,0l0,0c0.081-0.08,0.218-0.084,0.298-0.004l0,0
		c0.086,0.077,0.092,0.213,0.004,0.296l0,0c-0.01,0.017-0.025,0.025-0.039,0.035l0,0C95.954,7.344,95.849,7.339,95.775,7.266z
		 M100.288,4.645c-0.112,0.028-0.229-0.03-0.27-0.143l0,0c-0.035-0.108,0.029-0.228,0.137-0.264l0,0l0,0l0,0
		c0.113-0.04,0.233,0.024,0.263,0.136l0,0c0.04,0.094-0.01,0.194-0.088,0.244l0,0C100.315,4.626,100.3,4.635,100.288,4.645z
		 M97.037,6.116c-0.078-0.091-0.052-0.226,0.036-0.291l0,0l0,0l0,0c0.098-0.07,0.229-0.051,0.298,0.044l0,0
		c0.073,0.086,0.049,0.22-0.042,0.286l0,0c-0.003,0.012-0.009,0.016-0.017,0.021l0,0C97.226,6.229,97.101,6.206,97.037,6.116z
		 M98.748,5.276c-0.104,0.057-0.23,0.015-0.287-0.09l0,0c-0.055-0.105-0.013-0.23,0.093-0.286l0,0l0,0l0,0
		c0.1-0.052,0.231-0.014,0.286,0.09l0,0c0.043,0.103,0.009,0.224-0.077,0.278l0,0C98.754,5.273,98.748,5.276,98.748,5.276z"/>
</g>
<path fill="#FFFFFF" d="M103.806,12.938l-1.826-2.949c0.256-0.057,0.513-0.062,0.778-0.014c0.295,0.044,0.091,0.051,0.257,0.179
	c0.143,0.109,0.78,0.17,0.901,0.037l0.432-0.479c0.065-0.075,0.098-0.176,0.083-0.276c-0.014-0.099-0.07-0.188-0.154-0.243
	c-0.949-0.606-1.945-0.701-2.964-0.285l-0.273-0.442c-0.1-0.162-0.638-0.394-0.799-0.295l-0.548,0.725
	c-0.16,0.099-0.211,0.311-0.109,0.472l0.261,0.421c-0.674,0.542-1.115,1.148-1.318,1.807c-0.235,0.766-0.135,1.51,0.3,2.21
	c0.425,0.687,1.053,1.056,1.851,1.092c0.197,0.02,0.639,0.015,2.188-0.226l2.573,4.159c-0.771,0.367-1.484,0.403-2.17,0.109
	c-0.311-0.134-0.504-0.248-0.791-0.547c-0.064-0.067-0.268-0.188-0.357-0.212c-0.248-0.063-0.588-0.194-0.649-0.122l-0.021,0.686
	c-0.115,0.126-0.119,0.32-0.011,0.452c0.352,0.424,0.755,0.735,1.2,0.926c1,0.422,2.149,0.324,3.417-0.29l-0.146,0.351
	c0.099,0.162,0.681,0.221,0.842,0.121l0.875-0.541c0.16-0.1,0.209-0.311,0.11-0.473l-0.229-0.367c1.627-1.335,1.892-3,0.761-4.828
	C107.631,13.069,106.169,12.688,103.806,12.938z M100.299,12.934c-0.255-0.411-0.338-0.815-0.256-1.232
	c0.063-0.313,0.211-0.596,0.45-0.857l1.467,2.369c-0.674,0.121-0.895,0.144-0.955,0.146
	C100.699,13.353,100.475,13.217,100.299,12.934z M106.804,14.989c0.69,1.118,0.698,2.025,0.019,2.825l-2.063-3.334
	C106.132,14.415,106.633,14.71,106.804,14.989z"/>
<path fill="#E6DBD5" d="M103.244,12.798l-1.826-2.95c0.257-0.054,0.514-0.059,0.779-0.011c0.294,0.044,0.527,0.129,0.695,0.257
	c0.141,0.109,0.343,0.091,0.463-0.042l0.429-0.479c0.067-0.075,0.1-0.177,0.085-0.275c-0.013-0.1-0.069-0.188-0.155-0.244
	c-0.948-0.606-1.943-0.701-2.962-0.283l-0.273-0.443c-0.102-0.162-0.313-0.212-0.475-0.112L99.13,8.758
	c-0.162,0.1-0.211,0.311-0.11,0.471l0.262,0.422c-0.673,0.542-1.116,1.147-1.317,1.807c-0.235,0.765-0.137,1.509,0.299,2.209
	c0.425,0.688,1.054,1.055,1.852,1.094c0.197,0.02,0.637,0.014,2.188-0.227l2.574,4.159c-0.772,0.368-1.483,0.402-2.168,0.109
	c-0.311-0.134-0.614-0.354-0.898-0.653c-0.066-0.068-0.156-0.106-0.251-0.106c-0.096,0-0.186,0.04-0.25,0.11l-0.418,0.455
	c-0.117,0.124-0.122,0.319-0.014,0.45c0.352,0.424,0.754,0.736,1.2,0.927c1,0.421,2.15,0.323,3.417-0.292l0.224,0.361
	c0.101,0.161,0.312,0.211,0.474,0.112l0.873-0.542c0.162-0.099,0.211-0.312,0.112-0.473l-0.229-0.368
	c1.626-1.334,1.889-2.997,0.758-4.826C107.068,12.931,105.606,12.549,103.244,12.798z M99.736,12.794
	c-0.255-0.412-0.338-0.816-0.256-1.231c0.063-0.313,0.212-0.597,0.451-0.859l1.466,2.37c-0.673,0.121-0.895,0.143-0.955,0.146
	C100.136,13.214,99.913,13.079,99.736,12.794z M106.241,14.85c0.691,1.118,0.7,2.025,0.021,2.825l-2.064-3.335
	C105.57,14.275,106.069,14.573,106.241,14.85z"/>
<path opacity="0.4" fill="#E6DBD5" d="M109.267,23.81c-5.271,3.261-12.186,1.631-15.443-3.638c-3.26-5.27-1.633-12.184,3.639-15.444
	L109.267,23.81z"/>
<g>
	<path fill="#FFFFFF" d="M113.311,122.188c0,1.138-0.92,2.061-2.058,2.061c-1.136,0-2.058-0.923-2.058-2.061
		c0-1.136,0.922-2.058,2.058-2.058C112.391,120.13,113.311,121.052,113.311,122.188z"/>
	<path fill="#FFFFFF" d="M88.74,122.188c0,1.138-0.922,2.061-2.059,2.061c-1.136,0-2.059-0.923-2.059-2.061
		c0-1.136,0.923-2.058,2.059-2.058C87.818,120.13,88.74,121.052,88.74,122.188z"/>
	<path fill="#FFFFFF" d="M87.843,121.947c0-0.949,0-18.262,0-18.262c0-6.415,4.95-11.613,11.06-11.613
		c6.105,0,11.059,5.2,11.059,11.613c0,0,0,17.684,0,18.262c0,0.576,0.194,1.277,1.154,1.277c0.959,0,1.321-0.36,1.321-1.277
		c0-0.918,0-18.899,0-18.899c0-7.475-6.061-13.534-13.534-13.534c-7.477,0-13.536,6.059-13.536,13.534c0,0,0,18.207,0,18.899
		c0,0.691,0.374,1.277,1.178,1.277C87.348,123.225,87.843,122.896,87.843,121.947z"/>
</g>
<rect x="77.598" y="95.766" transform="matrix(0.3424 0.9396 -0.9396 0.3424 165.7517 -23.2355)" fill="#768EB0" width="43.754" height="22.053"/>
<path fill="#98B9E2" d="M99.03,85.814L86.311,90.45c0.495,1.36-0.204,2.865-1.565,3.359l11.813,32.407
	c1.358-0.493,2.861,0.206,3.358,1.565l12.718-4.635c-0.495-1.359,0.206-2.863,1.564-3.36l-11.81-32.407
	C101.031,87.875,99.525,87.174,99.03,85.814z"/>
<circle fill="#768EB0" cx="99.473" cy="106.799" r="10.208"/>
<g>
	<path fill="#FFFFFF" d="M97.892,106.089l-3.668,1.325c-0.002-0.297,0.054-0.579,0.167-0.861c0.114-0.313,0.266-0.549,0.443-0.703
		c0.152-0.132,0.182-0.356,0.062-0.521l-0.429-0.584c-0.065-0.09-0.17-0.146-0.282-0.155c-0.111-0.009-0.224,0.032-0.304,0.114
		c-0.889,0.902-1.223,1.977-0.999,3.191l-0.552,0.2c-0.2,0.071-0.303,0.294-0.231,0.493l0.395,1.089
		c0.07,0.198,0.293,0.304,0.492,0.23l0.523-0.188c0.439,0.865,1.005,1.492,1.684,1.868c0.789,0.437,1.629,0.499,2.502,0.183
		c0.853-0.307,1.404-0.914,1.631-1.783c0.066-0.211,0.162-0.696,0.258-2.459l5.172-1.865c0.228,0.933,0.099,1.725-0.381,2.408
		c-0.221,0.312-0.534,0.593-0.93,0.84c-0.089,0.054-0.152,0.146-0.173,0.251c-0.022,0.104,0,0.211,0.063,0.299l0.402,0.565
		c0.111,0.158,0.322,0.209,0.493,0.119c0.548-0.287,0.982-0.66,1.298-1.106c0.694-1.004,0.854-2.289,0.472-3.827l0.449-0.162
		c0.2-0.07,0.304-0.292,0.232-0.494l-0.395-1.085c-0.071-0.202-0.293-0.305-0.494-0.233l-0.457,0.166
		c-1.092-2.099-2.857-2.774-5.135-1.953C98.923,101.911,98.167,103.432,97.892,106.089z M97.074,109.947
		c-0.512,0.185-0.976,0.184-1.414-0.006c-0.33-0.143-0.605-0.369-0.839-0.695l2.947-1.063c-0.024,0.771-0.051,1.017-0.063,1.082
		C97.629,109.604,97.428,109.818,97.074,109.947z M100.843,103.266c1.392-0.502,2.393-0.302,3.113,0.635l-4.146,1.498
		C100.057,103.871,100.499,103.391,100.843,103.266z"/>
</g>
<g>
	<path fill="#FCFCFC" d="M84.074,91.6l-0.604,0.218c0-0.049,0.01-0.095,0.027-0.142c0.021-0.052,0.042-0.09,0.073-0.115
		c0.024-0.022,0.029-0.059,0.009-0.086l-0.07-0.095c-0.01-0.016-0.027-0.024-0.047-0.027c-0.019-0.001-0.036,0.006-0.049,0.019
		c-0.146,0.148-0.202,0.326-0.165,0.527l-0.09,0.033c-0.033,0.012-0.05,0.048-0.039,0.08l0.065,0.18
		c0.012,0.033,0.047,0.049,0.081,0.039l0.086-0.032c0.071,0.143,0.166,0.245,0.274,0.308c0.131,0.072,0.271,0.082,0.413,0.03
		c0.141-0.051,0.231-0.151,0.27-0.294c0.011-0.034,0.026-0.115,0.042-0.405l0.852-0.307c0.036,0.155,0.015,0.284-0.063,0.396
		c-0.034,0.05-0.088,0.098-0.153,0.137c-0.014,0.01-0.023,0.024-0.025,0.042c-0.005,0.017,0,0.034,0.011,0.049l0.063,0.093
		c0.021,0.026,0.054,0.035,0.082,0.019c0.09-0.048,0.161-0.108,0.212-0.181c0.116-0.165,0.143-0.377,0.079-0.628l0.074-0.028
		c0.032-0.01,0.051-0.048,0.039-0.081l-0.064-0.179c-0.014-0.034-0.049-0.05-0.083-0.039l-0.075,0.028
		c-0.18-0.345-0.47-0.457-0.844-0.321C84.244,90.912,84.12,91.163,84.074,91.6z M83.939,92.234c-0.084,0.03-0.16,0.03-0.232-0.001
		c-0.055-0.023-0.101-0.061-0.138-0.114l0.485-0.174c-0.007,0.126-0.009,0.167-0.013,0.177
		C84.031,92.178,83.998,92.213,83.939,92.234z M84.559,91.135c0.229-0.083,0.395-0.049,0.511,0.104l-0.681,0.246
		C84.43,91.234,84.503,91.156,84.559,91.135z"/>
</g>
<g>
	<path fill="#FFFFFF" d="M100.841,85.49l-0.604,0.218c0-0.049,0.009-0.095,0.028-0.143c0.019-0.052,0.044-0.09,0.072-0.116
		c0.025-0.021,0.029-0.058,0.011-0.085l-0.07-0.096c-0.01-0.014-0.028-0.024-0.047-0.025s-0.035,0.005-0.051,0.019
		c-0.145,0.148-0.201,0.325-0.163,0.525l-0.091,0.033c-0.032,0.012-0.051,0.048-0.037,0.081l0.063,0.179
		c0.014,0.034,0.049,0.05,0.083,0.038l0.085-0.03c0.072,0.143,0.166,0.245,0.277,0.307c0.131,0.072,0.269,0.083,0.412,0.03
		c0.141-0.05,0.229-0.149,0.268-0.294c0.011-0.034,0.027-0.113,0.043-0.404l0.852-0.306c0.037,0.153,0.017,0.284-0.063,0.396
		c-0.035,0.05-0.088,0.098-0.152,0.139c-0.015,0.008-0.024,0.023-0.026,0.041c-0.004,0.018,0,0.035,0.011,0.051l0.065,0.092
		c0.018,0.026,0.054,0.034,0.08,0.018c0.091-0.047,0.162-0.107,0.214-0.181c0.113-0.165,0.141-0.377,0.077-0.629l0.073-0.028
		c0.033-0.011,0.051-0.049,0.039-0.08l-0.063-0.18c-0.015-0.034-0.051-0.05-0.083-0.039l-0.075,0.027
		c-0.18-0.344-0.471-0.456-0.844-0.321C101.009,84.802,100.886,85.051,100.841,85.49z M100.706,86.125
		c-0.085,0.03-0.16,0.03-0.231-0.001c-0.056-0.023-0.102-0.062-0.139-0.114l0.484-0.175c-0.002,0.126-0.009,0.167-0.01,0.178
		C100.796,86.068,100.764,86.103,100.706,86.125z M101.326,85.024c0.229-0.083,0.395-0.049,0.511,0.105l-0.681,0.246
		C101.197,85.125,101.27,85.046,101.326,85.024z"/>
</g>
<g>
	<path fill="#8DA448" d="M97.502,128.45l-0.603,0.218c0-0.049,0.008-0.096,0.024-0.143c0.021-0.051,0.046-0.09,0.074-0.115
		c0.025-0.021,0.029-0.059,0.011-0.084l-0.07-0.098c-0.012-0.014-0.027-0.024-0.046-0.025c-0.021-0.002-0.036,0.007-0.052,0.02
		c-0.146,0.148-0.2,0.324-0.162,0.525l-0.093,0.032c-0.031,0.013-0.049,0.048-0.037,0.081l0.064,0.179
		c0.012,0.033,0.048,0.05,0.081,0.039l0.085-0.031c0.074,0.142,0.166,0.244,0.277,0.308c0.13,0.071,0.269,0.082,0.413,0.03
		c0.14-0.052,0.229-0.149,0.269-0.294c0.01-0.033,0.025-0.113,0.041-0.404l0.852-0.308c0.036,0.154,0.017,0.284-0.063,0.397
		c-0.036,0.05-0.088,0.096-0.153,0.137c-0.014,0.009-0.024,0.023-0.026,0.041c-0.005,0.018,0,0.035,0.012,0.051l0.063,0.094
		c0.02,0.024,0.055,0.032,0.081,0.021c0.092-0.05,0.162-0.109,0.214-0.183c0.113-0.166,0.142-0.377,0.078-0.631l0.074-0.027
		c0.032-0.012,0.049-0.047,0.036-0.08l-0.063-0.18c-0.012-0.031-0.049-0.052-0.08-0.039l-0.076,0.026
		c-0.181-0.344-0.471-0.455-0.844-0.319C97.671,127.764,97.547,128.011,97.502,128.45z M97.369,129.084
		c-0.085,0.03-0.16,0.03-0.231-0.001c-0.057-0.024-0.102-0.062-0.14-0.114l0.484-0.174c-0.004,0.125-0.008,0.165-0.01,0.178
		C97.46,129.027,97.427,129.063,97.369,129.084z M97.988,127.984c0.229-0.082,0.395-0.049,0.512,0.104l-0.681,0.246
		C97.859,128.084,97.932,128.005,97.988,127.984z"/>
</g>
<g>
	<path fill="#8DA448" d="M114.269,122.34l-0.604,0.217c0-0.047,0.01-0.096,0.027-0.141c0.02-0.052,0.045-0.091,0.073-0.117
		c0.024-0.021,0.028-0.058,0.01-0.084l-0.069-0.098c-0.012-0.014-0.027-0.023-0.047-0.024c-0.02-0.002-0.036,0.007-0.051,0.019
		c-0.146,0.149-0.201,0.326-0.165,0.527l-0.09,0.03c-0.032,0.013-0.049,0.048-0.038,0.082l0.063,0.179
		c0.014,0.033,0.048,0.049,0.082,0.038l0.086-0.03c0.072,0.144,0.164,0.246,0.276,0.308c0.13,0.071,0.269,0.081,0.412,0.03
		c0.141-0.051,0.23-0.15,0.269-0.295c0.012-0.033,0.025-0.113,0.042-0.404l0.853-0.307c0.036,0.153,0.017,0.283-0.063,0.396
		c-0.035,0.05-0.088,0.098-0.151,0.137c-0.017,0.012-0.025,0.024-0.029,0.043c-0.003,0.018,0,0.033,0.011,0.049l0.065,0.094
		c0.02,0.025,0.055,0.033,0.082,0.021c0.091-0.048,0.162-0.108,0.213-0.183c0.115-0.165,0.141-0.377,0.078-0.63l0.073-0.026
		c0.033-0.013,0.051-0.049,0.039-0.083l-0.065-0.177c-0.012-0.033-0.049-0.053-0.081-0.039l-0.074,0.025
		c-0.181-0.345-0.471-0.455-0.845-0.32C114.439,121.652,114.313,121.902,114.269,122.34z M114.134,122.975
		c-0.084,0.029-0.158,0.029-0.231-0.002c-0.055-0.022-0.102-0.062-0.139-0.113l0.483-0.176c-0.003,0.129-0.008,0.168-0.01,0.18
		C114.224,122.918,114.194,122.953,114.134,122.975z M114.754,121.875c0.229-0.083,0.395-0.049,0.513,0.105l-0.683,0.244
		C114.625,121.975,114.699,121.896,114.754,121.875z"/>
</g>
<path opacity="0.3" fill="#FFFFFF" enable-background="new    " d="M94.666,89.991c3.596,2.43,7.579,3.444,11.743,3.655
	l-4.071-11.176l-11.471,4.178C91.991,87.913,93.271,89.048,94.666,89.991z"/>
<path opacity="0.3" fill="#D1D3D4" enable-background="new    " d="M112.77,115.625c-6.793-6.396-14.646-11.729-23.646-14.438
	c-1.26-0.379-2.528-0.727-3.805-1.049l11.721,32.164l20.719-7.551l-2.307-6.332C114.619,117.43,113.703,116.503,112.77,115.625z"/>
<rect x="82.865" y="96.768" transform="matrix(-0.1035 0.9946 -0.9946 -0.1035 222.7968 14.7722)" fill="#768EB0" width="43.752" height="22.051"/>
<path fill="#98B9E2" d="M113.534,88.732l-13.465-1.401c-0.15,1.44-1.438,2.484-2.878,2.334l-3.57,34.308
	c1.439,0.148,2.484,1.438,2.336,2.877l13.463,1.401c0.15-1.438,1.438-2.483,2.879-2.335l3.569-34.308
	C114.428,91.459,113.382,90.171,113.534,88.732z"/>
<circle fill="#768EB0" cx="104.744" cy="107.79" r="10.207"/>
<g>
	<path fill="#FFFFFF" d="M103.633,106.461l-3.878-0.416c0.129-0.266,0.303-0.496,0.527-0.699c0.241-0.231,0.48-0.378,0.708-0.438
		c0.195-0.052,0.317-0.241,0.283-0.441l-0.13-0.711c-0.02-0.11-0.088-0.208-0.187-0.265s-0.217-0.068-0.322-0.031
		c-1.194,0.424-1.968,1.242-2.298,2.436l-0.583-0.063c-0.211-0.022-0.4,0.133-0.425,0.344l-0.122,1.149
		c-0.022,0.211,0.129,0.4,0.342,0.423l0.556,0.062c0.016,0.969,0.249,1.781,0.693,2.414c0.519,0.738,1.246,1.161,2.169,1.262
		c0.902,0.097,1.663-0.209,2.247-0.891c0.153-0.16,0.452-0.555,1.311-2.099l5.467,0.586c-0.206,0.938-0.667,1.596-1.4,2
		c-0.331,0.185-0.734,0.3-1.198,0.349c-0.105,0.012-0.202,0.064-0.269,0.148c-0.063,0.084-0.092,0.189-0.073,0.296l0.114,0.688
		c0.029,0.188,0.199,0.326,0.392,0.32c0.619-0.018,1.175-0.16,1.65-0.426c1.065-0.596,1.771-1.684,2.101-3.234l0.476,0.053
		c0.211,0.022,0.401-0.131,0.425-0.344l0.122-1.147c0.024-0.212-0.131-0.404-0.342-0.427l-0.484-0.051
		c-0.062-2.363-1.354-3.748-3.76-4.006C106.39,103.156,105.044,104.189,103.633,106.461z M101.209,109.57
		c-0.541-0.057-0.957-0.262-1.271-0.621c-0.233-0.273-0.384-0.6-0.449-0.993l3.114,0.334c-0.358,0.681-0.489,0.894-0.528,0.946
		C101.858,109.503,101.584,109.611,101.209,109.57z M107.524,105.216c1.469,0.156,2.28,0.774,2.52,1.933l-4.384-0.469
		C106.55,105.415,107.158,105.176,107.524,105.216z"/>
</g>
<g>
	<path fill="#FCFCFC" d="M97.554,87.384l-0.64-0.068c0.022-0.043,0.051-0.082,0.088-0.115c0.041-0.039,0.079-0.062,0.116-0.071
		c0.032-0.009,0.052-0.041,0.047-0.073l-0.021-0.117c-0.003-0.018-0.017-0.034-0.032-0.043c-0.015-0.01-0.034-0.012-0.052-0.007
		c-0.195,0.07-0.323,0.206-0.378,0.401l-0.097-0.01c-0.035-0.003-0.064,0.021-0.068,0.057l-0.021,0.188
		c-0.003,0.035,0.022,0.067,0.057,0.07l0.092,0.01c0.004,0.158,0.041,0.292,0.114,0.397c0.086,0.121,0.205,0.191,0.356,0.208
		c0.147,0.016,0.274-0.035,0.37-0.146c0.025-0.027,0.074-0.093,0.216-0.347l0.898,0.096c-0.033,0.155-0.108,0.263-0.229,0.33
		c-0.056,0.031-0.122,0.049-0.197,0.059c-0.019,0.001-0.034,0.01-0.045,0.024c-0.01,0.013-0.014,0.03-0.012,0.048l0.018,0.113
		c0.008,0.03,0.033,0.053,0.065,0.053c0.104-0.004,0.192-0.027,0.271-0.07c0.175-0.099,0.292-0.277,0.345-0.532l0.079,0.008
		c0.034,0.003,0.064-0.022,0.068-0.056l0.021-0.19c0.003-0.034-0.023-0.065-0.057-0.069l-0.08-0.008
		c-0.013-0.39-0.224-0.617-0.619-0.66C98.008,86.84,97.787,87.01,97.554,87.384z M97.154,87.896
		c-0.088-0.011-0.156-0.043-0.207-0.103c-0.039-0.045-0.063-0.099-0.075-0.164l0.513,0.054c-0.058,0.113-0.078,0.147-0.086,0.157
		C97.263,87.885,97.217,87.903,97.154,87.896z M98.194,87.18c0.242,0.025,0.376,0.126,0.415,0.317l-0.721-0.078
		C98.035,87.212,98.134,87.172,98.194,87.18z"/>
</g>
<g>
	<path fill="#8DA448" d="M115.304,89.231l-0.641-0.069c0.022-0.044,0.052-0.081,0.088-0.114c0.041-0.039,0.079-0.063,0.116-0.072
		c0.031-0.009,0.052-0.04,0.046-0.073l-0.021-0.115c-0.002-0.019-0.016-0.037-0.03-0.045c-0.016-0.009-0.035-0.01-0.053-0.004
		c-0.195,0.069-0.323,0.204-0.378,0.4l-0.098-0.01c-0.033-0.004-0.063,0.021-0.067,0.057l-0.021,0.188
		c-0.003,0.036,0.021,0.066,0.058,0.069l0.091,0.012c0.004,0.158,0.042,0.292,0.113,0.396c0.086,0.122,0.205,0.192,0.356,0.208
		c0.148,0.016,0.274-0.035,0.371-0.148c0.024-0.025,0.074-0.09,0.215-0.344l0.899,0.096c-0.033,0.155-0.108,0.263-0.23,0.329
		c-0.055,0.03-0.121,0.049-0.198,0.057c-0.017,0.001-0.031,0.011-0.043,0.025c-0.01,0.012-0.014,0.031-0.012,0.048l0.019,0.113
		c0.007,0.031,0.033,0.054,0.063,0.053c0.104-0.003,0.194-0.026,0.272-0.07c0.176-0.098,0.293-0.277,0.347-0.532l0.077,0.009
		c0.034,0.003,0.065-0.022,0.068-0.057l0.021-0.188c0.003-0.037-0.023-0.067-0.059-0.071l-0.078-0.008
		c-0.012-0.39-0.225-0.616-0.618-0.659C115.756,88.688,115.535,88.858,115.304,89.231z M114.906,89.743
		c-0.09-0.009-0.159-0.043-0.21-0.102c-0.038-0.046-0.063-0.098-0.075-0.165l0.514,0.056c-0.059,0.111-0.08,0.148-0.088,0.156
		C115.011,89.731,114.966,89.75,114.906,89.743z M115.943,89.026c0.242,0.027,0.375,0.128,0.415,0.318l-0.721-0.077
		C115.783,89.059,115.882,89.02,115.943,89.026z"/>
</g>
<g>
	<path fill="#8DA448" d="M93.493,126.395l-0.637-0.067c0.021-0.045,0.05-0.084,0.088-0.115c0.038-0.039,0.077-0.063,0.115-0.071
		c0.032-0.009,0.053-0.041,0.047-0.074l-0.021-0.116c-0.002-0.019-0.016-0.034-0.031-0.043c-0.015-0.011-0.033-0.013-0.054-0.007
		c-0.194,0.07-0.321,0.205-0.377,0.4l-0.095-0.01c-0.036-0.003-0.067,0.021-0.07,0.057l-0.021,0.188
		c-0.004,0.035,0.021,0.065,0.057,0.069l0.09,0.01c0.004,0.16,0.041,0.294,0.114,0.396c0.086,0.122,0.206,0.192,0.356,0.207
		c0.148,0.018,0.273-0.031,0.37-0.146c0.025-0.024,0.075-0.091,0.216-0.345l0.898,0.097c-0.033,0.153-0.109,0.264-0.229,0.33
		c-0.055,0.028-0.121,0.048-0.196,0.057c-0.02,0.002-0.033,0.011-0.044,0.024s-0.015,0.031-0.013,0.049l0.019,0.113
		c0.005,0.029,0.033,0.054,0.064,0.054c0.101-0.005,0.192-0.027,0.271-0.07c0.174-0.1,0.29-0.278,0.344-0.532l0.079,0.01
		c0.036,0.002,0.066-0.022,0.07-0.059l0.02-0.188c0.007-0.035-0.021-0.067-0.056-0.071l-0.08-0.008
		c-0.01-0.39-0.224-0.616-0.619-0.657C93.948,125.85,93.726,126.021,93.493,126.395z M93.095,126.906
		c-0.089-0.01-0.158-0.043-0.211-0.104c-0.037-0.045-0.062-0.098-0.072-0.161l0.513,0.055c-0.06,0.111-0.08,0.146-0.088,0.156
		C93.203,126.895,93.158,126.912,93.095,126.906z M94.133,126.189c0.242,0.025,0.375,0.127,0.415,0.316l-0.721-0.078
		C93.973,126.223,94.074,126.184,94.133,126.189z"/>
</g>
<g>
	<path fill="#8DA448" d="M111.242,128.241l-0.638-0.067c0.021-0.045,0.051-0.082,0.088-0.115c0.04-0.037,0.078-0.063,0.116-0.07
		c0.03-0.01,0.052-0.041,0.046-0.073l-0.021-0.117c-0.002-0.019-0.015-0.032-0.029-0.045c-0.016-0.008-0.035-0.01-0.055-0.004
		c-0.194,0.069-0.32,0.205-0.377,0.399l-0.096-0.01c-0.034-0.004-0.066,0.021-0.069,0.058l-0.021,0.188
		c-0.005,0.036,0.021,0.067,0.057,0.071l0.091,0.01c0.004,0.158,0.04,0.292,0.113,0.396c0.086,0.121,0.206,0.191,0.358,0.207
		c0.146,0.017,0.271-0.033,0.369-0.146c0.023-0.025,0.073-0.091,0.215-0.346l0.898,0.098c-0.034,0.153-0.108,0.264-0.229,0.329
		c-0.055,0.028-0.119,0.049-0.197,0.058c-0.019,0-0.032,0.011-0.043,0.023c-0.012,0.016-0.017,0.031-0.013,0.048l0.019,0.113
		c0.006,0.03,0.033,0.054,0.064,0.053c0.102-0.003,0.192-0.026,0.271-0.069c0.176-0.099,0.291-0.277,0.346-0.532l0.077,0.011
		c0.036,0.002,0.067-0.021,0.071-0.059l0.02-0.189c0.004-0.033-0.021-0.064-0.057-0.068l-0.079-0.009
		c-0.011-0.39-0.224-0.614-0.62-0.657C111.697,127.698,111.474,127.868,111.242,128.241z M110.843,128.753
		c-0.088-0.01-0.155-0.043-0.206-0.103c-0.04-0.045-0.063-0.1-0.075-0.164l0.513,0.055c-0.06,0.113-0.081,0.146-0.088,0.158
		C110.952,128.742,110.906,128.759,110.843,128.753z M111.882,128.037c0.242,0.025,0.375,0.127,0.416,0.316l-0.722-0.076
		C111.722,128.07,111.824,128.03,111.882,128.037z"/>
</g>
<path opacity="0.3" fill="#FFFFFF" enable-background="new    " d="M107.787,90.578c2.167,3.758,5.305,6.415,8.959,8.428
	l1.229-11.833l-12.143-1.264C106.292,87.539,106.946,89.121,107.787,90.578z"/>
<path opacity="0.3" fill="#D1D3D4" enable-background="new    " d="M112.958,120.3c-3.308-8.727-8.032-16.958-14.938-23.332
	c-0.967-0.892-1.955-1.761-2.963-2.608l-3.543,34.048l21.934,2.281l0.697-6.701C113.83,122.732,113.412,121.498,112.958,120.3z"/>
<rect x="97.953" y="89.838" transform="matrix(-0.4386 0.8987 -0.8987 -0.4386 263.0302 37.4141)" fill="#768EB0" width="43.752" height="22.053"/>
<path fill="#98B9E2" d="M134.619,85.972l-12.167-5.938c-0.634,1.301-2.203,1.842-3.504,1.206l-15.125,31
	c1.3,0.635,1.84,2.201,1.205,3.503l12.166,5.938c0.635-1.303,2.203-1.842,3.505-1.207l15.125-31
	C134.524,88.841,133.984,87.273,134.619,85.972z"/>
<circle fill="#768EB0" cx="119.824" cy="100.857" r="10.207"/>
<g>
	<path fill="#FFFFFF" d="M119.236,99.227l-3.499-1.721c0.211-0.207,0.453-0.362,0.735-0.476c0.305-0.136,0.579-0.19,0.815-0.169
		c0.201,0.019,0.381-0.118,0.416-0.319l0.122-0.712c0.021-0.11-0.013-0.225-0.081-0.313c-0.074-0.085-0.181-0.137-0.294-0.138
		c-1.269-0.012-2.275,0.491-2.995,1.497l-0.523-0.258c-0.192-0.093-0.424-0.014-0.518,0.177l-0.51,1.037
		c-0.095,0.191-0.017,0.422,0.176,0.515l0.501,0.247c-0.318,0.917-0.379,1.759-0.178,2.508c0.232,0.869,0.771,1.519,1.604,1.928
		c0.815,0.402,1.635,0.378,2.418-0.063c0.196-0.099,0.614-0.366,1.949-1.521l4.935,2.426c-0.516,0.813-1.173,1.27-2,1.398
		c-0.375,0.058-0.796,0.026-1.247-0.088c-0.104-0.024-0.213-0.006-0.303,0.049c-0.091,0.058-0.15,0.148-0.172,0.254l-0.128,0.684
		c-0.037,0.189,0.075,0.377,0.257,0.438c0.589,0.196,1.157,0.252,1.697,0.166c1.204-0.193,2.241-0.975,3.082-2.316l0.429,0.212
		c0.189,0.094,0.423,0.017,0.519-0.176l0.509-1.038c0.095-0.189,0.016-0.423-0.175-0.518l-0.438-0.215
		c0.752-2.241,0.014-3.984-2.156-5.051C122.959,97.069,121.339,97.578,119.236,99.227z M115.892,101.316
		c-0.487-0.239-0.812-0.574-0.979-1.021c-0.127-0.336-0.155-0.694-0.082-1.087l2.812,1.384c-0.57,0.517-0.767,0.669-0.823,0.707
		C116.524,101.477,116.23,101.482,115.892,101.316z M123.318,99.391c1.325,0.653,1.876,1.511,1.703,2.681l-3.955-1.945
		C122.335,99.247,122.988,99.229,123.318,99.391z"/>
</g>
<g>
	<path fill="#FCFCFC" d="M120.072,79.223l-0.576-0.284c0.036-0.032,0.076-0.059,0.122-0.077c0.05-0.023,0.095-0.032,0.134-0.028
		c0.032,0.003,0.063-0.019,0.068-0.052l0.02-0.117c0.005-0.018-0.001-0.037-0.012-0.052c-0.014-0.014-0.029-0.022-0.051-0.023
		c-0.206-0.001-0.373,0.081-0.49,0.248l-0.088-0.043c-0.031-0.016-0.069-0.004-0.084,0.029l-0.084,0.171
		c-0.016,0.032-0.004,0.069,0.029,0.084l0.081,0.041c-0.053,0.151-0.062,0.289-0.028,0.413c0.039,0.143,0.127,0.25,0.264,0.317
		c0.135,0.066,0.271,0.063,0.398-0.011c0.032-0.016,0.102-0.06,0.32-0.249l0.811,0.399c-0.084,0.133-0.192,0.208-0.329,0.229
		c-0.061,0.009-0.13,0.005-0.204-0.014c-0.018-0.005-0.035-0.001-0.049,0.008c-0.014,0.009-0.025,0.024-0.029,0.041l-0.021,0.113
		c-0.006,0.03,0.014,0.062,0.044,0.072c0.097,0.031,0.188,0.041,0.279,0.027c0.196-0.033,0.367-0.16,0.507-0.382l0.069,0.036
		c0.03,0.016,0.068,0.002,0.084-0.029l0.085-0.171c0.015-0.032,0.003-0.069-0.027-0.084l-0.074-0.036
		c0.126-0.368,0.004-0.655-0.354-0.831C120.685,78.866,120.419,78.951,120.072,79.223z M119.521,79.566
		c-0.08-0.04-0.132-0.095-0.159-0.168c-0.021-0.055-0.025-0.113-0.015-0.18l0.463,0.229c-0.095,0.085-0.125,0.11-0.137,0.116
		C119.626,79.592,119.578,79.593,119.521,79.566z M120.744,79.25c0.218,0.106,0.31,0.248,0.279,0.44l-0.649-0.32
		C120.583,79.226,120.689,79.223,120.744,79.25z"/>
</g>
<g>
	<path fill="#FCFCFC" d="M136.111,87.049l-0.576-0.284c0.033-0.035,0.074-0.06,0.119-0.078c0.051-0.022,0.096-0.032,0.135-0.029
		c0.033,0.002,0.064-0.02,0.068-0.052l0.021-0.117c0.003-0.019-0.003-0.038-0.016-0.051c-0.01-0.015-0.028-0.023-0.047-0.023
		c-0.207-0.002-0.373,0.081-0.493,0.247l-0.085-0.042c-0.032-0.016-0.07-0.003-0.084,0.029l-0.086,0.171
		c-0.016,0.03-0.003,0.069,0.029,0.083l0.081,0.041c-0.053,0.151-0.063,0.291-0.026,0.413c0.037,0.144,0.125,0.25,0.262,0.318
		c0.134,0.064,0.271,0.062,0.397-0.012c0.033-0.016,0.101-0.061,0.32-0.25l0.813,0.4c-0.087,0.133-0.193,0.208-0.329,0.229
		c-0.063,0.01-0.132,0.004-0.205-0.014c-0.018-0.003-0.036-0.001-0.05,0.008c-0.015,0.009-0.024,0.025-0.027,0.042l-0.022,0.112
		c-0.004,0.031,0.014,0.062,0.043,0.072c0.098,0.033,0.19,0.041,0.278,0.027c0.199-0.032,0.368-0.159,0.508-0.38l0.069,0.035
		c0.032,0.015,0.07,0.002,0.085-0.029l0.084-0.171c0.018-0.031,0.004-0.068-0.028-0.085l-0.071-0.036
		c0.124-0.367,0.002-0.653-0.354-0.831C136.722,86.692,136.456,86.776,136.111,87.049z M135.56,87.391
		c-0.08-0.039-0.135-0.094-0.162-0.167c-0.021-0.055-0.025-0.114-0.015-0.179l0.464,0.229c-0.093,0.084-0.127,0.111-0.137,0.116
		C135.664,87.418,135.616,87.419,135.56,87.391z M136.783,87.075c0.216,0.108,0.307,0.249,0.278,0.441l-0.65-0.319
		C136.62,87.052,136.726,87.049,136.783,87.075z"/>
</g>
<g>
	<path fill="#8DA448" d="M102.873,114.47l-0.575-0.282c0.034-0.035,0.073-0.06,0.12-0.078c0.05-0.022,0.097-0.031,0.135-0.027
		c0.032,0.003,0.063-0.021,0.068-0.052l0.021-0.118c0.003-0.018-0.003-0.037-0.016-0.053c-0.012-0.014-0.028-0.021-0.048-0.021
		c-0.21-0.002-0.374,0.081-0.492,0.247L102,114.041c-0.03-0.016-0.068-0.002-0.086,0.029l-0.083,0.172
		c-0.016,0.031-0.002,0.07,0.029,0.084l0.082,0.041c-0.052,0.148-0.063,0.289-0.03,0.412c0.039,0.144,0.129,0.25,0.267,0.315
		c0.133,0.065,0.269,0.063,0.396-0.01c0.031-0.017,0.101-0.062,0.319-0.25l0.813,0.397c-0.086,0.136-0.194,0.211-0.332,0.23
		c-0.06,0.01-0.129,0.004-0.203-0.014c-0.018-0.006-0.034-0.004-0.051,0.008c-0.015,0.008-0.023,0.025-0.026,0.042l-0.022,0.11
		c-0.006,0.031,0.014,0.063,0.043,0.072c0.097,0.032,0.19,0.041,0.28,0.028c0.196-0.033,0.367-0.161,0.507-0.382l0.07,0.035
		c0.029,0.015,0.068,0.003,0.085-0.028l0.082-0.173c0.018-0.031,0.004-0.07-0.027-0.083l-0.071-0.037
		c0.123-0.368,0.001-0.653-0.355-0.831C103.485,114.115,103.218,114.2,102.873,114.47z M102.322,114.814
		c-0.08-0.039-0.133-0.096-0.16-0.168c-0.021-0.056-0.027-0.114-0.014-0.18l0.462,0.229c-0.093,0.086-0.125,0.109-0.136,0.117
		C102.425,114.84,102.377,114.841,102.322,114.814z M103.542,114.498c0.222,0.105,0.312,0.248,0.28,0.441l-0.649-0.32
		C103.382,114.475,103.49,114.47,103.542,114.498z"/>
</g>
<g>
	<path fill="#8DA448" d="M118.909,122.296l-0.575-0.282c0.035-0.033,0.075-0.062,0.121-0.078c0.051-0.021,0.095-0.031,0.135-0.028
		c0.033,0.005,0.063-0.019,0.068-0.054l0.021-0.117c0.004-0.018-0.003-0.035-0.014-0.051c-0.013-0.016-0.03-0.021-0.048-0.021
		c-0.209-0.002-0.374,0.079-0.494,0.246l-0.087-0.042c-0.03-0.017-0.068-0.002-0.084,0.028l-0.083,0.17
		c-0.018,0.031-0.004,0.069,0.029,0.086l0.082,0.039c-0.055,0.15-0.063,0.289-0.03,0.412c0.039,0.145,0.128,0.252,0.265,0.318
		c0.135,0.064,0.27,0.063,0.396-0.013c0.033-0.015,0.102-0.06,0.321-0.248l0.811,0.397c-0.083,0.135-0.191,0.209-0.327,0.23
		c-0.063,0.01-0.131,0.005-0.205-0.016c-0.018-0.002-0.034,0-0.05,0.008c-0.015,0.011-0.024,0.025-0.028,0.042l-0.021,0.112
		c-0.006,0.031,0.012,0.063,0.043,0.072c0.096,0.033,0.188,0.041,0.278,0.027c0.197-0.032,0.367-0.16,0.507-0.383l0.069,0.035
		c0.031,0.016,0.07,0.002,0.087-0.028l0.084-0.171c0.014-0.029,0.003-0.068-0.029-0.086l-0.072-0.033
		c0.125-0.37,0.004-0.655-0.354-0.832C119.521,121.941,119.255,122.025,118.909,122.296z M118.36,122.641
		c-0.081-0.041-0.134-0.096-0.162-0.168c-0.021-0.057-0.023-0.115-0.014-0.18l0.464,0.229c-0.095,0.084-0.126,0.11-0.136,0.117
		C118.462,122.667,118.415,122.667,118.36,122.641z M119.582,122.324c0.219,0.107,0.31,0.248,0.28,0.439l-0.651-0.32
		C119.419,122.299,119.527,122.296,119.582,122.324z"/>
</g>
<path opacity="0.3" fill="#FFFFFF" enable-background="new    " d="M128.485,85.741c0.746,4.274,2.781,7.846,5.521,10.989
	l5.217-10.691l-10.971-5.353C128.125,82.374,128.195,84.083,128.485,85.741z"/>
<path opacity="0.3" fill="#D1D3D4" enable-background="new    " d="M123.246,115.238c-0.111-9.332-1.726-18.684-6.023-27.042
	c-0.604-1.17-1.234-2.326-1.889-3.467l-15.014,30.765l19.819,9.67l2.956-6.057C123.23,117.82,123.261,116.518,123.246,115.238z"/>
<path fill="#606060" d="M145.99,100.88c1.028,0.821,1.036,2.521,0.02,3.789l-20.857,26.103c-1.018,1.271-2.674,1.639-3.702,0.816
	L105.4,118.76c-1.027-0.82-1.037-2.517-0.021-3.789l20.86-26.101c1.017-1.271,2.673-1.637,3.701-0.817L145.99,100.88z"/>
<path fill="#919191" d="M145.339,101.514c0.988,0.791,1,2.424,0.021,3.646l-20.082,25.131c-0.98,1.225-2.575,1.576-3.564,0.785
	l-15.451-12.348c-0.989-0.791-0.998-2.427-0.021-3.649l20.085-25.129c0.979-1.226,2.573-1.577,3.563-0.787L145.339,101.514z"/>
<path fill="#7D99B7" d="M141.491,102.092c0.442,0.354,0.514,0.999,0.162,1.44l-4.277,5.352c-0.354,0.442-0.997,0.513-1.439,0.16
	l-5.552-4.437c-0.44-0.354-0.512-0.998-0.159-1.438l4.275-5.351c0.354-0.442,0.998-0.513,1.44-0.162L141.491,102.092z"/>
<rect x="134.547" y="100.081" transform="matrix(-0.6236 0.7817 -0.7817 -0.6236 300.8161 64.487)" fill="#FFFFFF" width="0.673" height="9.156"/>
<rect x="132.205" y="102.791" transform="matrix(-0.7817 -0.6236 0.6236 -0.7817 171.0812 268.5612)" fill="#FFFFFF" width="0.673" height="3.098"/>
<rect x="135.271" y="105.26" transform="matrix(-0.7819 -0.6235 0.6235 -0.7819 175.042 274.8625)" fill="#FFFFFF" width="0.672" height="3.096"/>
<rect x="135.818" y="98.27" transform="matrix(-0.7817 -0.6236 0.6236 -0.7817 180.3385 262.7595)" fill="#FFFFFF" width="0.673" height="3.097"/>
<rect x="138.886" y="100.727" transform="matrix(-0.7786 -0.6275 0.6275 -0.7786 183.441 269.2696)" fill="#FFFFFF" width="0.672" height="3.094"/>
<rect x="136.653" y="97.471" transform="matrix(-0.6258 0.78 -0.78 -0.6258 302.3103 59.052)" fill="#FFFFFF" width="0.671" height="9.154"/>
<g>
	<g>
		<path fill="#FFFFFF" d="M109.925,114.734c-0.819,1.026-0.652,2.529,0.373,3.348c1.025,0.82,2.527,0.652,3.35-0.373
			c0.818-1.025,0.65-2.525-0.376-3.348C112.246,113.542,110.745,113.709,109.925,114.734z M112.49,115.184
			c-0.223-0.17-0.448-0.313-0.671-0.426c0.48-0.324,0.95-0.447,1.248-0.297L112.49,115.184z M112.366,115.338l-0.596,0.746
			l-0.746-0.598c0.191-0.229,0.4-0.434,0.612-0.596C111.878,115.005,112.126,115.155,112.366,115.338z M110.869,115.366
			l-0.721-0.578c0.256-0.215,0.742-0.196,1.281,0.017C111.236,114.962,111.048,115.152,110.869,115.366z M110.024,114.941
			l0.723,0.576c-0.169,0.222-0.312,0.447-0.425,0.67C109.997,115.708,109.873,115.238,110.024,114.941z M110.9,115.643l0.747,0.596
			l-0.598,0.744c-0.229-0.192-0.431-0.4-0.595-0.611C110.568,116.128,110.718,115.88,110.9,115.643z M110.927,117.137l-0.575,0.723
			c-0.217-0.256-0.195-0.74,0.014-1.28C110.525,116.77,110.714,116.958,110.927,117.137z M111.082,117.26
			c0.222,0.168,0.447,0.313,0.669,0.426c-0.479,0.324-0.95,0.45-1.246,0.297L111.082,117.26z M111.204,117.107l0.597-0.746
			l0.746,0.596c-0.192,0.23-0.401,0.432-0.61,0.598C111.692,117.438,111.444,117.289,111.204,117.107z M112.7,117.08l0.723,0.576
			c-0.256,0.216-0.74,0.197-1.28-0.014C112.333,117.482,112.521,117.295,112.7,117.08z M113.545,117.503l-0.723-0.578
			c0.171-0.222,0.313-0.446,0.425-0.669C113.574,116.736,113.699,117.206,113.545,117.503z M112.669,116.805l-0.746-0.598
			l0.597-0.747c0.229,0.192,0.433,0.401,0.596,0.613C113.002,116.316,112.851,116.563,112.669,116.805z M112.642,115.307
			l0.577-0.723c0.214,0.256,0.196,0.742-0.015,1.281C113.045,115.674,112.857,115.486,112.642,115.307z M112.627,114.207
			c-0.312,0.038-0.665,0.195-1.018,0.454c-0.398-0.175-0.779-0.251-1.089-0.22C111.132,114.007,111.933,113.917,112.627,114.207z
			 M109.771,115.38c0.036,0.312,0.194,0.664,0.452,1.017c-0.174,0.399-0.249,0.778-0.219,1.092
			C109.57,116.875,109.481,116.074,109.771,115.38z M110.943,118.238c0.312-0.039,0.665-0.196,1.017-0.452
			c0.399,0.172,0.78,0.248,1.09,0.216C112.438,118.438,111.638,118.525,110.943,118.238z M113.799,117.063
			c-0.035-0.311-0.193-0.662-0.451-1.015c0.174-0.401,0.25-0.78,0.218-1.092C114,115.57,114.09,116.371,113.799,117.063z"/>
		<path fill="#FFFFFF" d="M110.509,118.229c0,0,0.096,0.86,0.694,0.918c0.597,0.057,1.258-0.914,1.449-2.539
			c0.193-1.642-0.47-2.963-0.47-2.963l-0.431,0.07l0.41-1.042l0.803,0.984l-0.348-0.054c0,0,0.938,1.261,0.668,3.185
			c-0.302,2.177-1.416,3.179-2.193,3.003C110.316,119.614,110.509,118.229,110.509,118.229z"/>
	</g>
	<g>
		<path fill="#FFFFFF" d="M113.932,113.432l-1.123-0.897l0.125-0.159l0.856,0.095c0.197,0.022,0.369,0.052,0.526,0.089v-0.004
			c-0.16-0.105-0.301-0.212-0.476-0.352l-0.47-0.376l0.108-0.138l1.124,0.898l-0.116,0.146l-0.856-0.1
			c-0.188-0.021-0.376-0.05-0.542-0.09l-0.003,0.006c0.147,0.105,0.286,0.21,0.474,0.359l0.479,0.383L113.932,113.432z"/>
		<path fill="#FFFFFF" d="M114.601,111.869l0.261,0.398l-0.12,0.149l-0.818-1.278l0.142-0.176l1.429,0.516l-0.124,0.154
			l-0.448-0.163L114.601,111.869z M114.782,111.41l-0.41-0.146c-0.094-0.035-0.174-0.072-0.251-0.106l-0.004,0.003
			c0.054,0.07,0.107,0.145,0.158,0.22l0.237,0.37L114.782,111.41z"/>
		<path fill="#FFFFFF" d="M115.882,109.979c-0.161-0.117-0.357-0.259-0.497-0.373l-0.004,0.006c0.102,0.145,0.203,0.303,0.313,0.482
			l0.387,0.635l-0.088,0.109l-0.681-0.247c-0.2-0.073-0.382-0.144-0.54-0.219l-0.003,0.003c0.138,0.116,0.318,0.275,0.479,0.42
			l0.458,0.414l-0.11,0.139l-1.061-0.977l0.146-0.186l0.696,0.244c0.177,0.063,0.33,0.123,0.47,0.188l0.004-0.006
			c-0.09-0.118-0.183-0.258-0.284-0.42l-0.383-0.635l0.146-0.186l1.181,0.827l-0.113,0.143L115.882,109.979z"/>
		<path fill="#FFFFFF" d="M116.631,108.975l-0.349,0.438l0.404,0.32l0.39-0.484l0.121,0.098l-0.505,0.631l-1.124-0.897l0.485-0.606
			l0.12,0.098l-0.368,0.463l0.356,0.283l0.348-0.437L116.631,108.975z"/>
		<path fill="#FFFFFF" d="M116.523,107.915c0.037-0.073,0.107-0.181,0.188-0.283c0.115-0.146,0.217-0.218,0.329-0.243
			c0.09-0.021,0.186-0.004,0.272,0.066c0.107,0.085,0.146,0.232,0.095,0.387l0.004,0.002c0.111-0.085,0.3-0.14,0.467-0.006
			c0.098,0.076,0.14,0.174,0.148,0.275c0.009,0.136-0.061,0.287-0.204,0.472c-0.082,0.101-0.147,0.17-0.194,0.215L116.523,107.915z
			 M117.099,108.137l0.104-0.131c0.124-0.152,0.115-0.307,0.007-0.395c-0.132-0.104-0.263-0.047-0.381,0.102
			c-0.053,0.067-0.078,0.107-0.092,0.137L117.099,108.137z M117.638,108.568c0.026-0.024,0.063-0.063,0.103-0.117
			c0.122-0.148,0.176-0.331,0.013-0.461c-0.152-0.123-0.321-0.042-0.448,0.115l-0.097,0.119L117.638,108.568z"/>
		<path fill="#FFFFFF" d="M118.147,107.432l0.26,0.399l-0.119,0.149l-0.818-1.279l0.141-0.174l1.43,0.514l-0.123,0.154l-0.45-0.161
			L118.147,107.432z M118.327,106.973l-0.41-0.147c-0.093-0.033-0.174-0.069-0.251-0.104l-0.002,0.004
			c0.053,0.069,0.105,0.144,0.157,0.219l0.237,0.369L118.327,106.973z"/>
		<path fill="#FFFFFF" d="M119.171,106.875l-1.123-0.898l0.126-0.158l0.856,0.095c0.198,0.021,0.369,0.053,0.526,0.091V106
			c-0.16-0.105-0.301-0.213-0.476-0.354l-0.469-0.375l0.107-0.138l1.123,0.897l-0.116,0.146l-0.854-0.098
			c-0.188-0.022-0.377-0.052-0.545-0.091l-0.003,0.007c0.149,0.104,0.287,0.209,0.475,0.356l0.479,0.385L119.171,106.875z"/>
		<path fill="#FFFFFF" d="M118.926,104.879l0.115-0.146l0.542,0.435l0.004-0.007c-0.02-0.063-0.033-0.125-0.05-0.182l-0.146-0.682
			l0.143-0.18l0.153,0.785l0.996,0.08l-0.138,0.17l-0.85-0.07l0.04,0.206l0.428,0.342l-0.116,0.146L118.926,104.879z"/>
	</g>
	
		<rect x="112.009" y="108.19" transform="matrix(-0.6243 0.7812 -0.7812 -0.6243 278.4742 83.3539)" fill="#FFFFFF" width="14.366" height="0.912"/>
</g>
<g>
	<path fill="#FFFFFF" d="M118.609,122.732c0.635,0.508,0.798,1.022,0.467,1.434c-0.291,0.365-0.829,0.339-1.451-0.146
		c-0.623-0.5-0.754-1.045-0.45-1.424C117.488,122.203,118.017,122.259,118.609,122.732z M117.831,123.768
		c0.484,0.388,0.878,0.457,1.063,0.229c0.207-0.257,0.004-0.621-0.474-1.002c-0.458-0.366-0.854-0.488-1.063-0.229
		C117.181,122.986,117.323,123.363,117.831,123.768z"/>
	<path fill="#FFFFFF" d="M119.786,121.262c0.634,0.506,0.796,1.022,0.466,1.434c-0.291,0.365-0.83,0.34-1.449-0.146
		c-0.625-0.501-0.756-1.046-0.45-1.424C118.664,120.732,119.193,120.788,119.786,121.262z M119.005,122.296
		c0.484,0.388,0.878,0.459,1.063,0.229c0.206-0.258,0.003-0.621-0.471-1.002c-0.459-0.366-0.854-0.488-1.064-0.229
		C118.357,121.516,118.498,121.891,119.005,122.296z"/>
	<path fill="#FFFFFF" d="M120.96,119.792c0.633,0.506,0.797,1.021,0.466,1.435c-0.288,0.363-0.828,0.338-1.448-0.148
		c-0.626-0.501-0.754-1.045-0.451-1.423C119.838,119.261,120.368,119.316,120.96,119.792z M120.181,120.826
		c0.483,0.388,0.877,0.458,1.063,0.229c0.205-0.258,0.002-0.621-0.473-1c-0.459-0.367-0.854-0.49-1.063-0.229
		C119.532,120.044,119.674,120.42,120.181,120.826z"/>
	<path fill="#FFFFFF" d="M122.623,117.712c0.635,0.507,0.796,1.021,0.465,1.435c-0.29,0.363-0.829,0.338-1.449-0.148
		c-0.624-0.5-0.754-1.044-0.45-1.423C121.5,117.184,122.029,117.238,122.623,117.712z M121.841,118.748
		c0.485,0.386,0.88,0.456,1.063,0.229c0.206-0.258,0.003-0.621-0.472-1c-0.46-0.367-0.854-0.49-1.063-0.23
		C121.193,117.965,121.334,118.34,121.841,118.748z"/>
	<path fill="#FFFFFF" d="M123.797,116.242c0.635,0.506,0.796,1.021,0.467,1.434c-0.291,0.363-0.828,0.338-1.449-0.148
		c-0.626-0.5-0.754-1.043-0.451-1.424C122.676,115.712,123.205,115.768,123.797,116.242z M123.017,117.275
		c0.484,0.388,0.88,0.457,1.063,0.229c0.206-0.26,0.003-0.622-0.471-1.002c-0.459-0.367-0.855-0.489-1.063-0.228
		C122.369,116.495,122.511,116.87,123.017,117.275z"/>
	<path fill="#FFFFFF" d="M125.458,114.163c0.635,0.507,0.796,1.021,0.466,1.435c-0.29,0.363-0.827,0.338-1.448-0.148
		c-0.626-0.5-0.754-1.044-0.451-1.424C124.336,113.633,124.866,113.688,125.458,114.163z M124.679,115.198
		c0.483,0.386,0.877,0.457,1.061,0.228c0.207-0.258,0.004-0.619-0.471-1c-0.457-0.367-0.854-0.49-1.063-0.229
		C124.031,114.416,124.172,114.792,124.679,115.198z"/>
	<path fill="#FFFFFF" d="M126.635,112.691c0.634,0.507,0.796,1.021,0.467,1.436c-0.291,0.362-0.83,0.337-1.449-0.15
		c-0.626-0.5-0.755-1.043-0.453-1.422C125.513,112.161,126.041,112.217,126.635,112.691z M125.854,113.727
		c0.483,0.387,0.879,0.457,1.063,0.229c0.206-0.258,0.004-0.621-0.472-1.002c-0.459-0.365-0.854-0.489-1.063-0.227
		C125.207,112.945,125.347,113.32,125.854,113.727z"/>
	<path fill="#FFFFFF" d="M128.296,110.613c0.635,0.507,0.795,1.021,0.466,1.434c-0.293,0.364-0.83,0.339-1.448-0.148
		c-0.626-0.498-0.755-1.045-0.453-1.422C127.174,110.083,127.703,110.139,128.296,110.613z M127.515,111.646
		c0.484,0.389,0.879,0.459,1.063,0.229c0.207-0.258,0.004-0.62-0.472-1.001c-0.459-0.365-0.854-0.489-1.063-0.229
		C126.868,110.866,127.009,111.243,127.515,111.646z"/>
	<path fill="#FFFFFF" d="M129.471,109.143c0.634,0.506,0.796,1.021,0.465,1.434c-0.29,0.363-0.828,0.339-1.449-0.148
		c-0.625-0.498-0.754-1.045-0.451-1.423C128.349,108.611,128.877,108.668,129.471,109.143z M128.692,110.176
		c0.483,0.389,0.878,0.459,1.062,0.229c0.206-0.259,0.002-0.62-0.472-1.001c-0.46-0.367-0.854-0.489-1.063-0.229
		C128.042,109.395,128.184,109.771,128.692,110.176z"/>
	<path fill="#FFFFFF" d="M130.647,107.671c0.634,0.507,0.796,1.021,0.467,1.435c-0.292,0.362-0.832,0.338-1.452-0.148
		c-0.623-0.499-0.753-1.045-0.45-1.423C129.526,107.141,130.053,107.197,130.647,107.671z M129.866,108.706
		c0.485,0.387,0.88,0.458,1.063,0.229c0.207-0.259,0.004-0.621-0.473-1.002c-0.458-0.367-0.854-0.488-1.063-0.229
		C129.218,107.926,129.359,108.3,129.866,108.706z"/>
	<path fill="#FFFFFF" d="M131.822,106.201c0.635,0.506,0.796,1.021,0.466,1.434c-0.29,0.364-0.827,0.338-1.449-0.148
		c-0.625-0.5-0.755-1.045-0.451-1.422C130.702,105.67,131.23,105.725,131.822,106.201z M131.043,107.234
		c0.483,0.388,0.878,0.459,1.062,0.229c0.206-0.258,0.005-0.622-0.473-1.002c-0.459-0.367-0.854-0.488-1.063-0.229
		C130.394,106.455,130.536,106.829,131.043,107.234z"/>
</g>
<rect x="116.887" y="118.91" transform="matrix(-0.6243 0.7812 -0.7812 -0.6243 297.3826 95.7319)" fill="#FFFFFF" width="17.568" height="0.932"/>
<rect x="119.976" y="123.09" transform="matrix(-0.6242 0.7813 -0.7813 -0.6242 299.9022 102.8426)" fill="#FFFFFF" width="10.478" height="0.93"/>
<rect x="93.289" y="113.198" fill="#98B9E2" width="53.479" height="75.761"/>
<rect x="75.958" y="113.198" fill="#98B9E2" width="17.331" height="75.761"/>
<rect x="84.624" y="113.198" fill="#768EB0" width="8.665" height="75.761"/>
<polygon fill="#62798E" points="75.958,188.958 93.289,188.958 84.624,176.58 "/>
<circle fill="#7C7C7C" cx="106.802" cy="119.822" r="2.057"/>
<circle fill="#7C7C7C" cx="131.375" cy="119.822" r="2.058"/>
<path fill="#FFFFFF" d="M130.213,120.064c0,0.949,0,18.26,0,18.26c0,6.415-4.951,11.615-11.058,11.615
	c-6.108,0-11.059-5.2-11.059-11.615c0,0,0-17.684,0-18.26c0-0.575-0.195-1.279-1.154-1.279c-0.962,0-1.322,0.361-1.322,1.279
	s0,18.897,0,18.897c0,7.476,6.061,13.534,13.535,13.534s13.533-6.061,13.533-13.534c0,0,0-18.208,0-18.897
	c0-0.69-0.373-1.279-1.176-1.279C130.709,118.785,130.213,119.115,130.213,120.064z"/>
</svg>
