<?xml version="1.0" encoding="utf-8"?>
<!-- Generator: Adobe Illustrator 16.0.0, SVG Export Plug-In . SVG Version: 6.00 Build 0)  -->
<!DOCTYPE svg PUBLIC "-//W3C//DTD SVG 1.1//EN" "http://www.w3.org/Graphics/SVG/1.1/DTD/svg11.dtd">
<svg version="1.1" id="Layer_1" xmlns="http://www.w3.org/2000/svg" xmlns:xlink="http://www.w3.org/1999/xlink" x="0px" y="0px"
	 width="150.5px" height="200px" viewBox="0 0 150.5 200" enable-background="new 0 0 150.5 200" xml:space="preserve">
<polygon fill="#878787" points="99.34,171.576 91.818,8.949 87.397,8.949 94.921,171.576 "/>
<polygon fill="#878787" points="26.162,171.576 18.638,8.949 14.219,8.949 21.742,171.576 "/>
<polygon fill="#EDEDED" points="97.729,171.576 94.806,108.784 90.385,108.784 93.307,171.576 "/>
<polygon fill="#EDEDED" points="24.761,171.576 21.839,108.784 17.42,108.784 20.341,171.576 "/>
<polygon fill="#8F9ABA" points="44.941,8.914 44.892,7.841 57.94,7.841 57.99,8.914 90.158,8.914 95.019,113.163 17.632,113.163 
	12.773,8.914 "/>
<polygon fill="#878787" points="82.633,171.576 89.919,8.949 85.499,8.949 78.214,171.576 "/>
<polygon fill="#878787" points="9.737,171.576 12.421,112.043 8.001,112.043 5.318,171.576 "/>
<polygon fill="#EDEDED" points="8.167,171.576 10.851,112.043 6.431,112.043 3.748,171.576 "/>
<polygon fill="#EDEDED" points="81.133,171.576 83.815,112.043 79.397,112.043 76.713,171.576 "/>
<polygon fill="#79A5C6" points="83.765,113.163 6.38,113.163 11.078,8.949 88.463,8.949 "/>
<polygon fill="#FFFFFF" points="80.208,109.249 10.188,109.249 14.544,12.641 84.562,12.641 "/>
<g>
	<polygon fill="#49617F" points="66.435,51.04 22.454,51.04 23.838,20.346 24.444,20.346 23.088,50.433 66.461,50.433 	"/>
	<g>
		<polygon fill="#49617F" points="22.858,20.632 24.342,15.884 25.398,20.632 		"/>
	</g>
	<g>
		<polygon fill="#49617F" points="66.216,51.951 70.793,50.736 66.325,49.522 		"/>
	</g>
</g>
<polygon fill="#405768" points="63.951,25.874 64.627,26.247 62.413,29.852 58.819,30.382 58.819,30.387 56.045,30.797 
	51.27,27.543 42.263,28.422 37.797,36.288 29.573,38.318 22.473,50.079 23.703,50.787 30.474,39.575 38.722,37.538 43.122,29.79 
	50.834,29.037 55.641,32.313 59.244,31.782 59.244,31.78 63.263,31.187 65.874,26.937 66.704,27.397 67.292,23.267 "/>
<path fill="#8BBBE5" d="M53.242,37.185H43.168c-0.399,0-0.709-0.324-0.69-0.726c0.018-0.4,0.355-0.725,0.756-0.725h10.074
	c0.4,0,0.709,0.324,0.691,0.725C53.981,36.86,53.643,37.185,53.242,37.185z"/>
<path fill="#8BBBE5" d="M57.435,40.54H43.018c-0.401,0-0.709-0.325-0.691-0.726c0.018-0.4,0.356-0.725,0.756-0.725H57.5
	c0.4,0,0.709,0.325,0.691,0.725C58.174,40.215,57.835,40.54,57.435,40.54z"/>
<path fill="#8BBBE5" d="M62.985,43.895H42.866c-0.4,0-0.709-0.324-0.691-0.726c0.019-0.401,0.357-0.725,0.756-0.725h20.118
	c0.4,0,0.71,0.324,0.692,0.725C63.723,43.57,63.385,43.895,62.985,43.895z"/>
<path fill="#8BBBE5" d="M62.833,47.25H42.715c-0.4,0-0.709-0.325-0.692-0.726c0.019-0.4,0.357-0.725,0.758-0.725h20.118
	c0.4,0,0.709,0.325,0.691,0.725C63.572,46.925,63.234,47.25,62.833,47.25z"/>
<path fill="#8BBBE5" d="M44.29,98.298c-3.344,3.208-8.064,4.459-12.383,3.284c-4.319-1.173-7.579-4.595-8.554-8.973
	c-0.974-4.382,0.487-9.056,3.832-12.262c3.344-3.208,8.065-4.46,12.384-3.287c4.319,1.175,7.579,4.596,8.553,8.976
	C49.095,90.417,47.635,95.09,44.29,98.298z"/>
<path fill="#49617F" d="M44.29,98.298c-3.344,3.208-8.064,4.459-12.383,3.284c-4.319-1.173-7.579-4.595-8.554-8.973
	c-0.974-4.382,0.487-9.056,3.832-12.262c2.616-2.509,6.074-3.821,9.522-3.713l-0.97,12.688L44.29,98.298z"/>
<path fill="#79A5C6" d="M44.29,98.298c-3.344,3.208-8.064,4.459-12.383,3.284c-4.319-1.173-7.579-4.595-8.554-8.973
	c-0.096-0.432-0.168-0.865-0.217-1.301l12.602-1.985L44.29,98.298z"/>
<polygon fill="#A6B1DA" points="59.75,69.507 59.333,78.743 56.085,78.743 56.502,69.507 "/>
<polygon fill="#006080" points="63.87,64.179 63.214,78.743 59.965,78.743 60.622,64.179 "/>
<polygon fill="#8F9ABA" points="67.811,62.827 67.093,78.743 63.845,78.743 64.563,62.827 "/>
<polygon fill="#8BBBE5" points="71.521,66.572 70.973,78.743 67.724,78.743 68.273,66.572 "/>
<path fill="#8BBBE5" d="M59.32,60.374H33.175c-0.252,0-0.446-0.204-0.436-0.457c0.013-0.252,0.225-0.457,0.477-0.457H59.36
	c0.252,0,0.447,0.205,0.435,0.457C59.785,60.169,59.571,60.374,59.32,60.374z"/>
<path fill="#8BBBE5" d="M54.388,63.284H33.044c-0.251,0-0.446-0.204-0.435-0.457c0.011-0.253,0.225-0.457,0.476-0.457h21.344
	c0.252,0,0.446,0.204,0.436,0.457C54.854,63.08,54.64,63.284,54.388,63.284z"/>
<path fill="#8BBBE5" d="M51.561,66.194H32.913c-0.252,0-0.446-0.204-0.436-0.457c0.012-0.252,0.225-0.458,0.477-0.458h18.647
	c0.251,0,0.446,0.205,0.435,0.458S51.813,66.194,51.561,66.194z"/>
<path fill="#8BBBE5" d="M51.425,69.197H32.778c-0.252,0-0.447-0.205-0.436-0.458c0.012-0.252,0.225-0.456,0.476-0.456h18.648
	c0.251,0,0.446,0.204,0.434,0.456C51.89,68.992,51.676,69.197,51.425,69.197z"/>
<path fill="#8BBBE5" d="M51.29,72.199H32.643c-0.252,0-0.447-0.204-0.435-0.457c0.011-0.252,0.225-0.457,0.476-0.457h18.648
	c0.251,0,0.446,0.204,0.434,0.457C51.755,71.995,51.542,72.199,51.29,72.199z"/>
<path fill="#8BBBE5" d="M71.265,83.104H52.618c-0.252,0-0.447-0.203-0.436-0.456c0.012-0.253,0.225-0.458,0.476-0.458h18.648
	c0.251,0,0.446,0.205,0.434,0.458C71.729,82.901,71.517,83.104,71.265,83.104z"/>
<path fill="#8BBBE5" d="M71.125,86.179H52.479c-0.251,0-0.446-0.206-0.436-0.458c0.012-0.252,0.224-0.457,0.477-0.457h18.646
	c0.252,0,0.446,0.205,0.436,0.457C71.591,85.974,71.379,86.179,71.125,86.179z"/>
<path fill="#8BBBE5" d="M70.988,89.251H52.341c-0.252,0-0.447-0.204-0.435-0.457c0.01-0.253,0.224-0.457,0.476-0.457h18.647
	c0.252,0,0.447,0.204,0.436,0.457C71.452,89.047,71.239,89.251,70.988,89.251z"/>
<path fill="#8BBBE5" d="M70.85,92.325H52.202c-0.252,0-0.447-0.204-0.435-0.456c0.012-0.253,0.224-0.458,0.476-0.458h18.648
	c0.251,0,0.446,0.205,0.435,0.458C71.314,92.121,71.101,92.325,70.85,92.325z"/>
<path fill="#8BBBE5" d="M70.71,95.398H52.063c-0.251,0-0.446-0.205-0.436-0.458c0.012-0.252,0.225-0.457,0.477-0.457h18.647
	c0.251,0,0.446,0.205,0.435,0.457C71.176,95.193,70.963,95.398,70.71,95.398z"/>
<path fill="#8BBBE5" d="M70.573,98.471H51.925c-0.252,0-0.446-0.204-0.435-0.456c0.011-0.252,0.224-0.458,0.476-0.458h18.647
	c0.252,0,0.447,0.206,0.435,0.458C71.038,98.267,70.824,98.471,70.573,98.471z"/>
<path fill="#8BBBE5" d="M70.434,101.544H51.786c-0.252,0-0.446-0.206-0.435-0.458c0.012-0.253,0.225-0.457,0.476-0.457h18.648
	c0.251,0,0.446,0.203,0.435,0.457C70.899,101.339,70.685,101.544,70.434,101.544z"/>
<path fill="#3C3C3B" d="M54.119,14.66h-9.211c-1.06,0-1.88-0.861-1.833-1.923l0.22-4.895h13.049l-0.221,4.895
	C56.077,13.798,55.178,14.66,54.119,14.66z"/>
<path fill="#7C7C7C" d="M114.915,165.712c0.466,0.136,1.135,0.396,1.082,5.306H93.9C93.9,164.353,109.613,164.161,114.915,165.712z"
	/>
<rect x="93.9" y="170.454" fill="#6B6A58" width="22.097" height="2.032"/>
<path fill="#3D3D3C" d="M102.635,90.142l0.47,75.054l12.891,5.257l2.674-68.72l0.022,0.322l5.093,68.963h13.628l-0.011-0.565v-0.011
	l-2.34-71.87l-0.278-8.43c0-0.641-0.291-6.165-0.796-9.391c-0.211-1.357-0.468-2.309-0.761-2.309h-28.925
	c-0.269,0-0.516,0.823-0.738,2.042c-0.179,0.994-0.335,2.243-0.472,3.514C102.813,86.787,102.635,89.682,102.635,90.142z"/>
<path fill="#16191E" d="M134.081,81.373c0-1.706,0.06-2.342,0-3.206h-30.654c-0.181,0.604-0.065,1.604,0,3.206H134.081z"/>
<rect x="114.887" y="78.441" fill="#FBF7CF" width="3.595" height="2.563"/>
<path fill="#7C7C7C" d="M130.602,165.712c3.764,0,6.813,0.396,6.813,5.306h-13.625C123.789,165.881,126.838,165.712,130.602,165.712
	z"/>
<rect x="123.789" y="170.454" fill="#6B6A58" width="13.625" height="2.032"/>
<path opacity="0.07" d="M130.602,93.206c-0.448,0.256-0.936,0.501-1.448,0.72C129.638,93.68,130.115,93.445,130.602,93.206z"/>
<path opacity="0.15" d="M137.418,170.454h-0.02l-5.043,0.564h-8.571l-5.093-68.963l-0.017-0.317l-2.68,68.716l-12.889-5.259h0.104
	c5.729-0.156,10.363-4.526,10.582-9.998l3.155-53.114c-1.172-3.604-5.014-6.217-8.942-8.42c5.179,2.986,15.198,2.831,21.148,0.264
	c-4.415,2.211-8.63,4.751-9.125,8.039l5.434,50.819c0.639,6.855,4.537,13.055,10.573,16.813l1.363,0.849L137.418,170.454z"/>
<path opacity="0.1" d="M103.092,83.998c7.531,0.599,15.231,1.561,21.879,5.011c4.194,2.169,7.91,5.557,10.091,9.563l-0.278-8.43
	c0-0.641-0.291-6.165-0.796-9.391c-10.147-0.086-20.287-0.181-30.424-0.267C103.385,81.478,103.229,82.727,103.092,83.998z"/>
<path fill="#575756" d="M97.887,56.57c0.782-3.772,1.753-14.399,2.772-17.512c0.755-2.304,0.825-2.609,2.445-4.417
	c0.722-0.812,1.596-1.47,2.569-1.957c0.008-0.007,0.022-0.015,0.033-0.019c0.512-0.261,1.053-0.47,1.606-0.623
	c0.869-0.251,1.78-0.365,2.685-0.333c5.502,5.723,4.705,12.369,2.501,19.633c-0.099,0.345-0.205,0.682-0.317,1.023
	c-0.014,0.037-0.021,0.075-0.035,0.113c-0.067,0.22-0.144,0.442-0.213,0.666c-0.951,2.945-2.074,5.985-3.04,9.097
	c-0.612,1.963-1.589,2.82-3.221,3.555l-7.874-9.209C97.825,56.582,97.859,56.575,97.887,56.57z"/>
<path fill="#F2C799" d="M71.16,48.837l-0.506-1.091l0.614-0.364c0.028,0.184,0.1,0.358,0.211,0.51
	c0.148,0.206,0.367,0.371,0.636,0.455c0.368,0.116,0.734,0.227,1.104,0.334c0.735,0.208,1.476,0.393,2.225,0.559
	c0.15,0.034,0.3,0.063,0.45,0.095l1.371,1.13c-0.023,0.063-0.043,0.133-0.053,0.218c0.016,0.04,4.486,7.63,4.934,8.161l1.123,2.856
	c-0.011-0.369-4.18-1.545-4.204-1.579c-1.58-0.043-4.953-2.053-5.116-3.468c-0.059-0.513-2.262-2.136-2.262-2.136l-1.506-5.386
	l0.974-0.293L71.16,48.837z"/>
<polygon fill="#575756" points="73.156,55.278 74.378,54.842 63.463,27.634 63.209,27.725 "/>
<ellipse transform="matrix(-0.9274 0.3741 -0.3741 -0.9274 153.8482 68.2794)" fill="#FFD2A1" cx="70.299" cy="49.068" rx="1.17" ry="1.445"/>
<path fill="#FFD2A1" d="M71.058,52.919c0.26,0.026,1.051,0.017,1.051,0.017c0.768,0.011,1.398-0.535,1.408-1.219v-0.025
	c0.01-0.684-0.605-1.248-1.372-1.258l-1.051-0.018C68.987,50.501,69.105,52.957,71.058,52.919z"/>
<path fill="#FFD2A1" d="M71.595,55.398l1.786,0.025c0.769,0.01,1.398-0.541,1.408-1.233l0.001-0.025
	c0.009-0.691-0.605-1.262-1.373-1.272l-1.786-0.025C70.095,52.9,69.867,55.144,71.595,55.398z"/>
<path fill="#FFD2A1" d="M72.573,57.655l1.433,0.021c0.617,0.008,1.123-0.484,1.132-1.1v-0.023c0.009-0.616-0.484-1.123-1.1-1.132
	L72.605,55.4C71.188,55.351,71.036,57.495,72.573,57.655z"/>
<path fill="#FFD2A1" d="M72.741,46.897c0.994,0.316,3.527,0.933,3.757,0.967c1.583,0.525,4.42,2.603,4.42,2.603
	c0.236,0.297,1.705,4.384,1.163,6.749c-0.002,0.003,0.206,0.157,0.521,0.392c0,0-2.001,1.73-2.158,1.653
	c-1.199-0.589-2.492-1.416-2.938-2.897c-0.031-0.106-0.047-0.216-0.085-0.319c-0.591-1.539-0.282-4.509-0.299-4.55
	c0.01-0.086,0.029-0.155,0.054-0.218l-1.372-1.13c-0.15-0.032-0.301-0.062-0.45-0.096c-0.749-0.165-1.49-0.35-2.226-0.558
	c-0.369-0.107-0.736-0.218-1.103-0.334c-0.27-0.083-0.488-0.249-0.637-0.455c-0.111-0.152-0.184-0.327-0.211-0.51
	c-0.027-0.177-0.014-0.362,0.05-0.54l0.006-0.024C71.454,47.021,72.123,46.705,72.741,46.897z"/>
<polygon fill="#EDEDED" points="84.492,63.06 86.612,55.146 82.204,53.85 79.925,61.836 "/>
<path fill="#575756" d="M81.578,62.78c0.031,0.032,0.157,0.074,0.357,0.148c2.181,0.716,13.578,3.483,18.712,4.588
	c1.315,0.284,2.221,0.452,2.453,0.452c0.421-0.011,0.81-0.021,1.178-0.053l-2.8-7.565l-1.399-3.8
	c-3.346-0.578-12.628-1.6-16.28-2.63C82.725,57.518,82.146,60.286,81.578,62.78z"/>
<circle fill="#FFFFFF" cx="84.397" cy="61.602" r="0.662"/>
<circle fill="#FFFFFF" cx="86.612" cy="62.265" r="0.661"/>
<path opacity="0.2" fill="#1D1D1B" d="M81.935,62.928c2.181,0.716,13.578,3.483,18.712,4.588l0.831-7.166l2.128-18.187
	l-3.527,14.386l-1.873,7.63L81.935,62.928z"/>
<path fill="#FFFFFF" d="M137.418,76.988l-36.352,0.503c0.524-6.132,7.556-44.411,7.556-44.411l4.339-0.691l13.051-2.099
	C126.012,30.291,137.504,71.435,137.418,76.988z"/>
<path fill="#F2C799" d="M123.293,28.349l-1.073-10.875c-4.642,0.548-10.861,1.173-11.965,1.092c0,0,0.718,7.913,0.731,11.337
	C110.255,38.809,120.551,38.475,123.293,28.349z"/>
<path fill="#575756" d="M141.572,94.834l-22.621,1.564c0.051-4.74,0.014-10.464,0.051-16.402v-0.03
	c0.008-0.333,0.008-0.673,0.008-1.014c0.007-0.563,0.015-1.14,0.015-1.71c0.017-0.911,0.03-1.829,0.037-2.747
	c0.015-0.8,0.028-1.607,0.054-2.399c0-0.282,0.007-0.563,0.014-0.837v-0.03c0-0.074,0-0.147,0.008-0.214
	c0.066-2.829,0.169-5.605,0.318-8.264c0.665-11.736,2.073-21.777,4.22-28.226c0.542-1.614,1.126-3.006,1.755-4.139l0.587-0.096
	l1.606,0.763l0.007,0.007l9.373,4.45c0.008,0.007,0.022,0.007,0.03,0.015c0.318,3.509,0.504,7.064,0.821,10.877
	c0.142,1.673,0.28,3.443,0.437,5.279v0.015c0.577,6.759,1.243,14.379,1.829,21.369c0.526,6.36,0.984,12.195,1.236,16.371
	C141.512,91.873,141.586,93.746,141.572,94.834z"/>
<path fill="#575756" d="M103.412,36.259l0.671-0.406l4.539-2.773l0.621-0.099l-1.297,61.853l-11.542-0.856
	C96.932,87.846,103.338,39.375,103.412,36.259z"/>
<polygon fill="#79A5C6" points="115.455,40.443 112.646,40.153 111.716,34.566 116.431,34.746 "/>
<path fill="#DADADA" d="M113.709,34.615l-3.874,4.444c-0.592-2.7-1.365-4.92-1.059-6.563l2.234-2.426
	C110.783,31.944,111.729,33.994,113.709,34.615z"/>
<path fill="#DADADA" d="M113.709,34.615l4.789,5.539c3.267-3.209,6.661-6.772,7.517-9.862l-2.835-3.108
	C123.181,29.966,117.41,34.765,113.709,34.615z"/>
<polygon fill="#8BBBE5" points="115.455,40.443 112.646,40.153 111.208,65.94 114.073,70.443 117.14,66.81 "/>
<path fill="#3C3C3B" d="M119.453,62.748c2.391-8.517,8.291-24.219,8.291-24.219s-3.757-1.95-3.492-2.248l4.126,0.146l-0.745-5.366
	l-3.787-3.146C120.859,37.776,119.203,51.858,119.453,62.748z"/>
<path fill="#3C3C3B" d="M108.435,62.485c-2.391-8.517-3.91-24.471-3.91-24.471s3.547-1.308,3.284-1.605l-2.992-0.363l2.299-3.929
	l3.14-1.226C109.243,40.732,108.686,51.596,108.435,62.485z"/>
<path fill="#FFD2A1" d="M124.008,20.067c0.838-2.153,0.813-3.088,0.854-5.427c-0.467-10.647-6.553-9.085-10.501-9.036
	c-4.611,0.259-8.938,3.43-9.098,10.521c0.242,0.692,0.528,1.26,0.528,1.26l-1.47,3.979c-0.244,0.656,0.152,1.374,0.836,1.517
	l1.022,0.266c0.028,0.715-0.02,3.777-0.02,3.777c0.086,1.804,0.902,4.604,3.304,4.355c6.916-0.723,9.508-3.988,8.945-10.076
	C120.09,20.984,123.393,21.647,124.008,20.067z"/>
<path fill="#3C3C3B" d="M122.892,24.888c-5.461,1.546-3.229-6.624-3.229-6.624s-1.48,1.655-2.054,2.387
	c-1.171,0-1.286,0.152-2.345,0.083c-0.45-6.99,1.188-12.329-8.768-10.102c-1.97-0.316-0.225-6.704,8.903-6.315
	c5.328,0.228,9.782,2.92,10.54,8.198C126.418,15.832,126.679,20.24,122.892,24.888z"/>
<path fill="#FFD2A1" d="M120.883,18.361c0.015,1.669-1.375,3.608-2.468,3.617c-1.091,0.009-1.194-1.392-1.224-3.061
	c-0.021-1.104-0.104-2.624,1.09-2.982C119.327,15.621,120.862,15.913,120.883,18.361z"/>
<path opacity="0.2" fill="#1D1D1B" d="M140.12,73.065c0.526,6.36,0.984,12.195,1.236,16.371c-4.693-5.523-10.686-9.026-18.644-9.448
	c-0.646-0.044-1.297-0.059-1.971-0.044c-0.569,0-1.146,0.014-1.74,0.052c-0.037,0-0.073,0.008-0.111,0.008l0.023-1.037l0.037-1.719
	l0.059-2.924l0.052-2.221l0.015-0.83l0.053-0.045l0.977-0.74l11.515-8.79l-2.171-15.008l1.193,0.673l7.648,4.317v0.015l3.844,20.118
	C141.512,72.236,140.839,72.65,140.12,73.065z"/>
<g>
	<path fill="#F2C799" d="M116.421,73.354c0.002-0.008,0.002-0.017,0.004-0.025c0.101-0.692-0.433-1.28-1.161-1.345
		c-2.791-0.281-5.456-0.852-7.949-1.665c-0.65-0.203-1.346,0.135-1.59,0.778c-0.003,0.007-0.005,0.015-0.009,0.023
		c-0.241,0.642,0.092,1.357,0.782,1.577c2.615,0.866,5.405,1.481,8.325,1.796C115.592,74.569,116.32,74.045,116.421,73.354z"/>
	
		<rect x="114.939" y="72.588" transform="matrix(0.1795 0.9838 -0.9838 0.1795 171.499 -54.3029)" fill="#FFD2A1" width="6.729" height="6.145"/>
	<path fill="#F2C799" d="M112.943,73.38l-0.004-0.023c-0.113-0.624-0.712-1.038-1.336-0.924l-9.142,1.667
		c-0.624,0.114-1.037,0.711-0.923,1.336l0.003,0.023c0.114,0.624,0.713,1.037,1.337,0.923l9.141-1.666
		C112.644,74.603,113.057,74.004,112.943,73.38z"/>
	<path fill="#F2C799" d="M110.099,76.25l-0.004-0.023c-0.113-0.625-0.712-1.038-1.336-0.924l-4.21,0.768
		c-0.625,0.114-1.037,0.711-0.924,1.336l0.003,0.023c0.113,0.623,0.713,1.037,1.337,0.923l4.21-0.769
		C109.8,77.473,110.212,76.874,110.099,76.25z"/>
	<path fill="#F2C799" d="M111.695,78.251l-0.003-0.023c-0.114-0.625-0.712-1.037-1.336-0.923l-3.529,0.643
		c-0.625,0.113-1.039,0.712-0.926,1.336l0.006,0.022c0.113,0.625,0.712,1.039,1.336,0.925l3.528-0.644
		C111.396,79.474,111.81,78.876,111.695,78.251z"/>
	<path fill="#F2C799" d="M112.089,80.406l-0.004-0.021c-0.102-0.554-0.633-0.921-1.187-0.82l-3.135,0.571
		c-0.555,0.101-0.921,0.633-0.82,1.187l0.004,0.02c0.101,0.555,0.631,0.922,1.186,0.82l3.136-0.57
		C111.822,81.491,112.189,80.959,112.089,80.406z"/>
	<path fill="#FFD2A1" d="M118.264,76.881l-0.406-2.226c-0.335-1.837-2.095-3.054-3.932-2.719l-2.721,0.496l1.619,8.877l2.721-0.496
		C117.38,80.477,118.599,78.718,118.264,76.881z"/>
	<path fill="#FFD2A1" d="M113.237,81.233l-2.023,0.369c-0.553,0.101-1.084-0.267-1.186-0.821l-0.003-0.02
		c-0.103-0.555,0.267-1.086,0.819-1.187l-0.368,0.066c-0.623,0.114-1.222-0.3-1.335-0.923l-0.004-0.023
		c-0.113-0.624,0.299-1.222,0.922-1.336l-0.338,0.062c-0.626,0.114-1.222-0.3-1.338-0.924l-0.004-0.022
		c-0.112-0.625,0.3-1.223,0.926-1.336c-0.626,0.113-1.223-0.3-1.337-0.924l-0.005-0.023c-0.113-0.624,0.302-1.222,0.924-1.335
		l2.73-0.499L113.237,81.233z"/>
</g>
<g>
	<g>
		<polygon fill="#EDEDED" points="123.387,78.533 120.841,70.745 116.442,72.066 118.895,80.001 		"/>
	</g>
</g>
<g>
	<path fill="#575756" d="M142.135,71.813c-0.623,0.422-1.296,0.837-2.015,1.251c-0.917,0.525-1.911,1.052-2.955,1.562
		c-1.754,0.859-3.657,1.681-5.604,2.444c-2.941,1.14-5.999,2.147-8.849,2.917c-0.615,0.17-1.223,0.326-1.815,0.466l-0.155-0.511
		l-0.155-0.496l-0.229-0.741l-0.453-1.473l-0.844-2.739l-0.052-0.171l-0.644-2.096l-0.207-0.674c0.007,0,0.007-0.006,0.015-0.006
		c0.325-0.178,0.643-0.356,0.963-0.533c0.325-0.171,0.65-0.348,0.969-0.526c7.562-4.162,14.084-7.99,14.084-7.99
		s-3.576-10.922-4.74-15.808c-0.19-0.815-0.316-1.466-0.348-1.867c-0.066-0.873,0-1.74,0.179-2.576
		c0.394-1.866,1.333-3.599,2.614-5.005c1.473-1.622,3.346-2.362,5.108-1.732c0.008,0.007,0.022,0.007,0.03,0.015
		c0.444,0.162,0.881,0.407,1.303,0.755c1.606,1.31,2.999,3.546,3.457,5.635c1.592,7.256,3.407,17.164,4.643,24.25
		C146.74,67.912,145.001,69.881,142.135,71.813z"/>
	<circle fill="#FFFFFF" cx="122.794" cy="78.145" r="0.662"/>
	<circle fill="#FFFFFF" cx="125.011" cy="77.49" r="0.663"/>
</g>
<rect x="33.554" y="179.103" fill="#8F9ABA" width="74.535" height="17.23"/>
<text transform="matrix(1 0 0 1 37.0474 192.8013)" fill="#FFFFFF" font-family="'MyriadPro-Regular'" font-size="14.0248">25-35 Years</text>
</svg>
