<?xml version="1.0" encoding="utf-8"?>
<!-- Generator: Adobe Illustrator 16.0.0, SVG Export Plug-In . SVG Version: 6.00 Build 0)  -->
<!DOCTYPE svg PUBLIC "-//W3C//DTD SVG 1.1//EN" "http://www.w3.org/Graphics/SVG/1.1/DTD/svg11.dtd">
<svg version="1.1" id="Layer_1" xmlns="http://www.w3.org/2000/svg" xmlns:xlink="http://www.w3.org/1999/xlink" x="0px" y="0px"
	 width="200px" height="133.633px" viewBox="0 0 200 133.633" enable-background="new 0 0 200 133.633" xml:space="preserve">
<g>
	<path fill="#8BBBE5" d="M129.657,56.838c-0.655,0-1.185-0.529-1.185-1.184V38.451c0-0.315,0.125-0.617,0.347-0.838
		c0.223-0.221,0.524-0.346,0.838-0.346c0,0,0.001,0,0.002,0l21.899,0.041c0.1-0.027,0.202-0.041,0.31-0.041c0.003,0,0.004,0,0.006,0
		l20.86,0.081c0.653,0.002,1.181,0.534,1.178,1.188c-0.002,0.652-0.531,1.18-1.182,1.18c-0.002,0-0.002,0-0.003,0h-0.005
		l-41.882-0.078v16.017C130.841,56.309,130.311,56.838,129.657,56.838z"/>
	<path fill="#8BBBE5" d="M41.169,126.842H5.528c-0.654,0-1.185-0.529-1.185-1.184s0.53-1.184,1.185-1.184h34.187v-16.242
		c0-0.652,0.53-1.184,1.185-1.184h22.212c0.653,0,1.185,0.531,1.185,1.184s-0.531,1.184-1.185,1.184H42.083v15.49
		c0.169,0.203,0.27,0.467,0.27,0.752C42.353,126.313,41.823,126.842,41.169,126.842z"/>
	<path fill="#8BBBE5" d="M63.112,109.342c-0.654,0-1.184-0.529-1.184-1.186V90.731c0-0.654,0.529-1.182,1.184-1.182h22.212
		c0.653,0,1.185,0.527,1.185,1.182s-0.531,1.186-1.185,1.186H64.297v16.24C64.297,108.813,63.766,109.342,63.112,109.342z"/>
	<path fill="#8BBBE5" d="M85.325,91.766c-0.654,0-1.184-0.529-1.184-1.184V73.155c0-0.654,0.529-1.182,1.184-1.182h22.213
		c0.653,0,1.184,0.527,1.184,1.182c0,0.656-0.53,1.186-1.184,1.186H86.51v16.242C86.51,91.237,85.979,91.766,85.325,91.766z"/>
	<path fill="#8BBBE5" d="M107.539,73.375c-0.654,0-1.186-0.529-1.186-1.184V55.655c0-0.654,0.531-1.186,1.186-1.186h22.118
		c0.653,0,1.184,0.531,1.184,1.186s-0.53,1.184-1.184,1.184h-20.935v15.354C108.723,72.846,108.192,73.375,107.539,73.375z"/>
	<path fill="#8BBBE5" d="M107.539,74.264c-0.654,0-1.186-0.531-1.186-1.184v-0.889c0-0.654,0.531-1.186,1.186-1.186
		c0.653,0,1.184,0.531,1.184,1.186v0.889C108.723,73.733,108.192,74.264,107.539,74.264z"/>
</g>
<g>
	<path fill="#5D5D5D" d="M141.938,25.821l-0.059-0.065l0.075-0.828l0.068-0.054c1.896-1.494,1.868-1.583,1.8-1.801l-0.553-1.729
		c-0.023-0.072-0.088-0.148-0.158-0.185c-0.064-0.035-0.262-0.139-2.364-0.271l-0.083-0.005l-0.55-0.654l0.008-0.084
		c0.251-2.398,0.169-2.44-0.029-2.545l-1.622-0.861c-0.197-0.105-0.287-0.152-2.075,1.433l-0.067,0.058l-0.846-0.086l-0.053-0.063
		c-0.889-1.092-1.431-1.693-1.604-1.786c-0.071-0.039-0.17-0.05-0.243-0.028l-1.744,0.512c-0.224,0.067-0.314,0.096-0.423,2.488
		l-0.004,0.088l-0.646,0.526l-0.085-0.011c-2.433-0.291-2.475-0.214-2.581-0.011l-0.845,1.588c-0.106,0.204-0.153,0.288,1.488,2.09
		l0.059,0.063l-0.074,0.826l-0.067,0.053c-1.897,1.497-1.871,1.577-1.803,1.802l0.552,1.73c0.022,0.071,0.088,0.149,0.159,0.186
		c0.064,0.035,0.26,0.138,2.364,0.272l0.085,0.003l0.55,0.655l-0.01,0.084c-0.25,2.398-0.169,2.441,0.03,2.547l1.621,0.86
		c0.203,0.108,0.289,0.152,2.08-1.434l0.064-0.058l0.847,0.088l0.052,0.063c0.889,1.094,1.429,1.695,1.604,1.787
		c0.067,0.037,0.169,0.05,0.241,0.028l1.75-0.515c0.221-0.067,0.313-0.094,0.419-2.486L139.269,30l0.644-0.525l0.082,0.01
		c2.44,0.29,2.481,0.213,2.589,0.009l0.843-1.587C143.534,27.702,143.578,27.619,141.938,25.821L141.938,25.821z M133.973,27.252
		c-1.449-0.77-2.014-2.551-1.259-3.971c0.754-1.421,2.545-1.95,3.993-1.18c1.448,0.769,2.014,2.55,1.261,3.969
		C137.213,27.49,135.421,28.021,133.973,27.252L133.973,27.252z M133.973,27.252"/>
</g>
<g>
	<path fill="#5D5D5D" d="M162.228,25.201l-0.063-0.05l-0.044-0.769l0.054-0.058c1.531-1.627,1.493-1.706,1.402-1.895l-0.746-1.506
		c-0.03-0.063-0.1-0.124-0.168-0.148c-0.064-0.022-0.259-0.091-2.201,0.077l-0.077,0.006l-0.592-0.521l-0.004-0.079
		c-0.102-2.228-0.181-2.256-0.375-2.325l-1.603-0.565c-0.195-0.068-0.284-0.1-1.703,1.595l-0.053,0.062l-0.785,0.038l-0.058-0.05
		c-0.964-0.877-1.541-1.353-1.713-1.413c-0.069-0.025-0.161-0.024-0.225,0.006l-1.525,0.708c-0.196,0.091-0.276,0.13-0.047,2.333
		l0.009,0.082l-0.519,0.57l-0.077,0.001c-2.267,0.067-2.294,0.143-2.365,0.344l-0.554,1.568c-0.071,0.202-0.1,0.285,1.646,1.708
		l0.063,0.05l0.045,0.766l-0.053,0.058c-1.531,1.629-1.495,1.699-1.402,1.896l0.743,1.506c0.029,0.062,0.102,0.125,0.171,0.148
		c0.064,0.023,0.256,0.091,2.199-0.076l0.078-0.007l0.593,0.522l0.003,0.079c0.101,2.227,0.181,2.256,0.378,2.325l1.6,0.565
		c0.2,0.071,0.285,0.101,1.705-1.596l0.052-0.062l0.786-0.035l0.057,0.05c0.964,0.879,1.541,1.354,1.712,1.414
		c0.069,0.024,0.161,0.022,0.227-0.007l1.527-0.711c0.193-0.092,0.272-0.13,0.043-2.332l-0.009-0.082l0.517-0.568l0.076-0.001
		c2.271-0.071,2.299-0.147,2.37-0.347l0.553-1.569C163.947,26.705,163.977,26.621,162.228,25.201L162.228,25.201z M155.14,27.604
		c-1.431-0.505-2.192-2.057-1.698-3.459c0.495-1.403,2.062-2.132,3.493-1.628c1.43,0.505,2.19,2.057,1.695,3.458
		C158.136,27.377,156.57,28.108,155.14,27.604L155.14,27.604z M155.14,27.604"/>
</g>
<g>
	<path fill="#5D5D5D" d="M151.308,12.902l-0.048-0.046l0.03-0.635l0.051-0.043c1.397-1.206,1.374-1.273,1.314-1.437l-0.483-1.302
		c-0.02-0.055-0.07-0.11-0.126-0.136c-0.052-0.024-0.204-0.097-1.814-0.126l-0.063-0.001l-0.444-0.481l0.004-0.065
		c0.11-1.839,0.047-1.869-0.108-1.942l-1.269-0.603c-0.154-0.072-0.225-0.106-1.535,1.165l-0.051,0.046l-0.647-0.037l-0.042-0.045
		c-0.717-0.805-1.15-1.245-1.286-1.311c-0.057-0.026-0.133-0.033-0.187-0.013l-1.314,0.45c-0.169,0.059-0.238,0.083-0.24,1.914V8.32
		l-0.474,0.424l-0.066-0.005c-1.868-0.141-1.896-0.081-1.973,0.078l-0.59,1.242c-0.074,0.16-0.106,0.226,1.207,1.545l0.047,0.046
		l-0.029,0.633l-0.048,0.043c-1.4,1.207-1.376,1.268-1.316,1.437l0.48,1.303c0.021,0.053,0.073,0.11,0.127,0.136
		c0.053,0.024,0.204,0.096,1.815,0.126h0.063l0.443,0.481l-0.004,0.065c-0.11,1.839-0.047,1.87,0.109,1.944l1.269,0.602
		c0.157,0.076,0.224,0.107,1.537-1.166l0.049-0.045l0.648,0.038l0.043,0.046c0.715,0.806,1.148,1.246,1.284,1.31
		c0.055,0.026,0.132,0.033,0.186,0.013l1.319-0.453c0.167-0.058,0.236-0.083,0.236-1.913v-0.068l0.472-0.421l0.063,0.004
		c1.875,0.138,1.903,0.079,1.979-0.08l0.59-1.242C152.591,14.286,152.622,14.22,151.308,12.902L151.308,12.902z M145.272,14.267
		c-1.133-0.538-1.623-1.879-1.096-2.99s1.878-1.576,3.01-1.037c1.133,0.539,1.624,1.879,1.098,2.988
		C147.756,14.339,146.406,14.805,145.272,14.267L145.272,14.267z M145.272,14.267"/>
</g>
<path fill="#8BBBE5" d="M167.632,45.377c-0.279,0-0.559-0.098-0.785-0.297c-0.489-0.433-0.534-1.181-0.102-1.671l3.898-4.412
	l-3.645-5.52c-0.36-0.545-0.211-1.28,0.336-1.641c0.545-0.36,1.279-0.209,1.64,0.336l4.146,6.276
	c0.295,0.447,0.254,1.036-0.101,1.438l-4.499,5.093C168.285,45.244,167.959,45.377,167.632,45.377z"/>
<path fill="#575756" d="M195.815,126.87H5.051c-0.653,0-1.185-0.531-1.185-1.186s0.531-1.184,1.185-1.184h190.765
	c0.654,0,1.185,0.529,1.185,1.184S196.47,126.87,195.815,126.87z"/>
<path fill="#575756" d="M104.948,126.932H92.632c-0.653,0-1.184-0.531-1.184-1.186V81.852c0-0.654,0.53-1.184,1.184-1.184h12.316
	c0.653,0,1.184,0.529,1.184,1.184v43.895C106.132,126.401,105.602,126.932,104.948,126.932z M93.817,124.563h9.947V83.038h-9.947
	V124.563z"/>
<g>
	<rect x="92.632" y="97.008" fill="#49617F" width="12.316" height="28.738"/>
	<path fill="#49617F" d="M106.132,126.932H91.448V95.825h14.684V126.932z M93.817,124.563h9.947V98.194h-9.947V124.563z"/>
</g>
<path fill="#575756" d="M83.396,126.932H71.079c-0.652,0-1.184-0.531-1.184-1.186V97.956c0-0.652,0.531-1.184,1.184-1.184h12.316
	c0.654,0,1.184,0.531,1.184,1.184v27.791C84.579,126.401,84.05,126.932,83.396,126.932z M72.264,124.563h9.947V99.141h-9.947
	V124.563z"/>
<g>
	<rect x="71.079" y="107.553" fill="#49617F" width="12.316" height="18.193"/>
	<path fill="#49617F" d="M84.579,126.932H69.896V106.37h14.684V126.932z M72.264,124.563h9.947v-15.826h-9.947V124.563z"/>
</g>
<path fill="#575756" d="M127.685,126.932h-12.316c-0.653,0-1.183-0.531-1.183-1.186V63.733c0-0.654,0.529-1.184,1.183-1.184h12.316
	c0.654,0,1.185,0.529,1.185,1.184v62.014C128.869,126.401,128.339,126.932,127.685,126.932z M116.554,124.563h9.946V64.918h-9.946
	V124.563z"/>
<g>
	<rect x="115.368" y="85.147" fill="#49617F" width="12.316" height="40.6"/>
	<path fill="#49617F" d="M128.869,126.932h-14.684V83.963h14.684V126.932z M116.554,124.563h9.946v-38.23h-9.946V124.563z"/>
</g>
<path fill="#575756" d="M61.133,126.932H48.816c-0.653,0-1.184-0.531-1.184-1.186v-10.264c0-0.654,0.53-1.184,1.184-1.184h12.316
	c0.654,0,1.185,0.529,1.185,1.184v10.264C62.317,126.401,61.787,126.932,61.133,126.932z M50.001,124.563h9.947v-7.895h-9.947
	V124.563z"/>
<g>
	<rect x="48.816" y="120.774" fill="#49617F" width="12.316" height="4.973"/>
	<path fill="#49617F" d="M62.317,126.932H47.633v-7.342h14.685V126.932z M50.001,124.563h9.947v-2.604h-9.947V124.563z"/>
</g>
<path fill="#575756" d="M150.185,126.932h-12.315c-0.654,0-1.185-0.531-1.185-1.186V45.023c0-0.653,0.53-1.185,1.185-1.185h12.315
	c0.653,0,1.185,0.531,1.185,1.185v80.724C151.369,126.401,150.838,126.932,150.185,126.932z M139.053,124.563H149V46.208h-9.947
	V124.563z"/>
<g>
	<rect x="137.869" y="72.899" fill="#49617F" width="12.315" height="52.848"/>
	<path fill="#49617F" d="M151.369,126.932h-14.685V71.715h14.685V126.932z M139.053,124.563H149v-50.48h-9.947V124.563z"/>
</g>
<path fill="#8F9ABA" d="M167.117,97.245c-4.441,0-8.054,3.611-8.054,8.053c0,4.439,3.612,8.053,8.054,8.053
	c4.44,0,8.052-3.613,8.052-8.053C175.169,100.856,171.558,97.245,167.117,97.245z M173.792,105.274h-6.79v-0.031h-0.001l0.001-6.619
	c0.038,0,0.076-0.002,0.115-0.002C170.791,98.622,173.78,101.604,173.792,105.274z M168.247,111.875l-1.244-6.59l5.25,4.271
	C171.257,110.756,169.848,111.602,168.247,111.875z"/>
<path fill="#8F9ABA" d="M167.117,51.061c-4.376,0-7.936,3.561-7.936,7.936s3.56,7.934,7.936,7.934c4.375,0,7.934-3.559,7.934-7.934
	S171.492,51.061,167.117,51.061z M172.148,63.225l-5.104-4.318l4.232-5c1.475,1.207,2.418,3.039,2.418,5.09
	C173.695,60.606,173.112,62.083,172.148,63.225z"/>
<path fill="#8F9ABA" d="M167.117,74.981c-4.441,0-8.054,3.613-8.054,8.055c0,4.439,3.612,8.051,8.054,8.051
	c4.44,0,8.052-3.611,8.052-8.051C175.169,78.594,171.558,74.981,167.117,74.981z M168.247,89.614l-1.244-6.592l5.25,4.271
	C171.257,88.495,169.848,89.338,168.247,89.614z"/>
</svg>
