<?xml version="1.0" encoding="utf-8"?>
<!-- Generator: Adobe Illustrator 16.0.0, SVG Export Plug-In . SVG Version: 6.00 Build 0)  -->
<!DOCTYPE svg PUBLIC "-//W3C//DTD SVG 1.1//EN" "http://www.w3.org/Graphics/SVG/1.1/DTD/svg11.dtd">
<svg version="1.1" id="Layer_1" xmlns="http://www.w3.org/2000/svg" xmlns:xlink="http://www.w3.org/1999/xlink" x="0px" y="0px"
	 width="200px" height="132.167px" viewBox="103.083 99.083 200 132.167" enable-background="new 103.083 99.083 200 132.167"
	 xml:space="preserve">
<g>
	<polygon fill="#B3B3B3" points="219.49,146.78 219.49,150.082 234.722,150.082 234.722,139.315 219.49,139.315 	"/>
	<path fill="#CCCCCC" d="M234.724,118.353v26.188l-1.959,20.152h-0.378v-20.152c0-0.078-0.002-0.155-0.01-0.231
		c-0.01-0.163-0.028-0.323-0.061-0.479c-0.063-0.351-0.179-0.684-0.333-0.992c-0.084-0.168-0.18-0.328-0.288-0.479
		c-0.278-0.394-0.625-0.732-1.028-0.995c-0.322-0.21-0.677-0.374-1.057-0.479c-0.325-0.091-0.666-0.14-1.021-0.14
		c-2.097,0-3.796,1.7-3.796,3.797c0,0.38-0.039,0.75-0.111,1.108c-0.031,0.163-0.072,0.323-0.12,0.479
		c-0.073,0.245-0.161,0.484-0.268,0.715c-0.074,0.163-0.158,0.325-0.248,0.479c-0.242,0.419-0.537,0.805-0.877,1.144
		c-1.003,1.004-2.392,1.625-3.923,1.625c-3.064,0-5.55-2.483-5.55-5.549v-26.188H234.724z"/>
	<g>
		<rect x="216.179" y="122.628" fill="#B3B3B3" width="17.136" height="0.479"/>
		<rect x="216.179" y="133.174" fill="#B3B3B3" width="17.136" height="0.479"/>
		<path fill="#B3B3B3" d="M224.682,145.649c-0.031,0.163-0.072,0.323-0.121,0.479h-8.382v-0.479H224.682z"/>
		<rect x="232.924" y="145.648" fill="#B3B3B3" width="0.391" height="0.479"/>
		<path fill="#B3B3B3" d="M224.293,146.843c-0.073,0.163-0.157,0.325-0.247,0.479h-7.867v-0.479H224.293z"/>
		<rect x="232.924" y="146.842" fill="#B3B3B3" width="0.391" height="0.479"/>
		<g>
			<rect x="229.875" y="124.488" fill="#B3B3B3" width="3.44" height="0.479"/>
			<rect x="216.179" y="124.488" fill="#B3B3B3" width="7.011" height="0.479"/>
		</g>
		<g>
			<rect x="229.875" y="134.991" fill="#B3B3B3" width="3.44" height="0.479"/>
			<rect x="216.179" y="134.991" fill="#B3B3B3" width="7.011" height="0.479"/>
		</g>
		<g>
			<rect x="229.875" y="136.465" fill="#B3B3B3" width="3.44" height="0.479"/>
			<rect x="216.179" y="136.465" fill="#B3B3B3" width="7.011" height="0.479"/>
		</g>
		<g>
			<rect x="229.875" y="137.938" fill="#B3B3B3" width="3.44" height="0.478"/>
			<rect x="216.179" y="137.938" fill="#B3B3B3" width="7.011" height="0.478"/>
		</g>
		<g>
			<rect x="229.875" y="139.412" fill="#B3B3B3" width="3.44" height="0.479"/>
			<rect x="216.179" y="139.412" fill="#B3B3B3" width="7.011" height="0.479"/>
		</g>
		<g>
			<path fill="#B3B3B3" d="M233.315,140.884v0.479h-2.11c-0.322-0.21-0.675-0.373-1.055-0.479H233.315z"/>
			<rect x="216.179" y="140.884" fill="#B3B3B3" width="7.011" height="0.479"/>
		</g>
		<g>
			<path fill="#B3B3B3" d="M233.315,142.357v0.479h-0.792c-0.085-0.167-0.18-0.326-0.289-0.479H233.315z"/>
			<rect x="216.179" y="142.357" fill="#B3B3B3" width="7.011" height="0.479"/>
		</g>
		<g>
			<path fill="#B3B3B3" d="M233.315,143.83v0.479h-0.397c-0.011-0.164-0.031-0.324-0.061-0.479H233.315z"/>
			<rect x="216.179" y="143.831" fill="#B3B3B3" width="7.011" height="0.479"/>
		</g>
		<g>
			<rect x="229.875" y="126.056" fill="#B3B3B3" width="3.44" height="0.479"/>
			<rect x="216.179" y="126.056" fill="#B3B3B3" width="7.011" height="0.479"/>
		</g>
		<g>
			<rect x="229.875" y="127.624" fill="#B3B3B3" width="3.44" height="0.479"/>
			<rect x="216.179" y="127.624" fill="#B3B3B3" width="7.011" height="0.479"/>
		</g>
		<g>
			<rect x="229.875" y="129.191" fill="#B3B3B3" width="3.44" height="0.479"/>
			<rect x="216.179" y="129.191" fill="#B3B3B3" width="7.011" height="0.479"/>
		</g>
		<g>
			<rect x="229.875" y="130.759" fill="#B3B3B3" width="3.44" height="0.479"/>
			<rect x="216.179" y="130.759" fill="#B3B3B3" width="7.011" height="0.479"/>
		</g>
	</g>
	<path fill="#E6E6E6" d="M232.41,144.541v41.627h21.028v-41.627c0-2.099-1.699-3.798-3.796-3.798h-21.029
		C230.709,140.743,232.41,142.442,232.41,144.541z"/>
	<g>
		<rect x="234.333" y="152.26" fill="#CCCCCC" width="17.134" height="0.478"/>
		<rect x="234.333" y="163.566" fill="#CCCCCC" width="17.134" height="0.479"/>
		<rect x="234.333" y="165.236" fill="#CCCCCC" width="17.134" height="0.479"/>
		<rect x="234.333" y="166.906" fill="#CCCCCC" width="17.134" height="0.479"/>
		<rect x="234.333" y="168.576" fill="#CCCCCC" width="17.134" height="0.479"/>
		<rect x="234.333" y="170.246" fill="#CCCCCC" width="17.134" height="0.479"/>
		<rect x="234.333" y="171.916" fill="#CCCCCC" width="17.134" height="0.479"/>
		<rect x="234.333" y="173.585" fill="#CCCCCC" width="17.134" height="0.479"/>
		<rect x="234.333" y="177.738" fill="#CCCCCC" width="17.134" height="0.479"/>
		<rect x="234.333" y="179.401" fill="#CCCCCC" width="17.134" height="0.479"/>
		<rect x="234.333" y="181.064" fill="#CCCCCC" width="17.134" height="0.479"/>
		<rect x="234.333" y="182.882" fill="#CCCCCC" width="17.134" height="0.479"/>
		<g>
			<rect x="248.028" y="143.574" fill="#CCCCCC" width="3.439" height="0.478"/>
			<rect x="234.333" y="143.574" fill="#CCCCCC" width="7.01" height="0.478"/>
		</g>
		<g>
			<rect x="248.028" y="154.077" fill="#CCCCCC" width="3.439" height="0.479"/>
			<rect x="234.333" y="154.077" fill="#CCCCCC" width="7.01" height="0.479"/>
		</g>
		<g>
			<rect x="248.028" y="155.551" fill="#CCCCCC" width="3.439" height="0.478"/>
			<rect x="234.333" y="155.551" fill="#CCCCCC" width="7.01" height="0.478"/>
		</g>
		<g>
			<rect x="248.028" y="157.024" fill="#CCCCCC" width="3.439" height="0.478"/>
			<rect x="234.333" y="157.024" fill="#CCCCCC" width="7.01" height="0.478"/>
		</g>
		<g>
			<rect x="248.028" y="158.497" fill="#CCCCCC" width="3.439" height="0.479"/>
			<rect x="234.333" y="158.497" fill="#CCCCCC" width="7.01" height="0.479"/>
		</g>
		<g>
			<rect x="248.028" y="159.971" fill="#CCCCCC" width="3.439" height="0.478"/>
			<rect x="234.333" y="159.971" fill="#CCCCCC" width="7.01" height="0.478"/>
		</g>
		<g>
			<rect x="248.028" y="161.443" fill="#CCCCCC" width="3.439" height="0.479"/>
			<rect x="234.333" y="161.443" fill="#CCCCCC" width="7.01" height="0.479"/>
		</g>
		<g>
			<rect x="248.028" y="145.142" fill="#CCCCCC" width="3.439" height="0.479"/>
			<rect x="234.333" y="145.142" fill="#CCCCCC" width="7.01" height="0.479"/>
		</g>
		<g>
			<rect x="248.028" y="146.71" fill="#CCCCCC" width="3.439" height="0.479"/>
			<rect x="234.333" y="146.71" fill="#CCCCCC" width="7.01" height="0.479"/>
		</g>
		<g>
			<rect x="248.028" y="148.277" fill="#CCCCCC" width="3.439" height="0.479"/>
			<rect x="234.333" y="148.277" fill="#CCCCCC" width="7.01" height="0.479"/>
		</g>
		<g>
			<rect x="248.028" y="149.845" fill="#CCCCCC" width="3.439" height="0.479"/>
			<rect x="234.333" y="149.845" fill="#CCCCCC" width="7.01" height="0.479"/>
		</g>
	</g>
</g>
<path opacity="0.3" enable-background="new    " d="M260.372,161.286v15.707c0,0.986-0.8,1.784-1.785,1.784H229.51
	c-0.987,0-1.786-0.798-1.786-1.784v-15.707c0-0.985,0.799-1.785,1.786-1.785h29.076C259.571,159.501,260.372,160.3,260.372,161.286z
	"/>
<path fill="#A2B2D6" d="M259.138,160.702v15.706c0,0.987-0.801,1.785-1.785,1.785h-29.077c-0.987,0-1.785-0.798-1.785-1.785v-15.706
	c0-0.987,0.799-1.785,1.785-1.785h29.077C258.338,158.917,259.138,159.715,259.138,160.702z"/>
<path opacity="0.5" fill="#445D7B" enable-background="new    " d="M259.138,168.427v7.981c0,0.987-0.801,1.786-1.785,1.786h-16.228
	c-0.021-0.278-0.03-0.557-0.03-0.844c0-6.2,5.026-11.229,11.229-11.229C254.888,166.122,257.25,166.981,259.138,168.427z"/>
<path opacity="0.5" fill="#445D7B" enable-background="new    " d="M232.852,161.448c0,2.546-2.064,4.609-4.609,4.609
	c-0.62,0-1.212-0.122-1.752-0.347v-5.009c0-0.987,0.799-1.785,1.785-1.785h3.817C232.574,159.645,232.852,160.514,232.852,161.448z"
	/>
<circle fill="#B3B3B3" cx="250.414" cy="173.791" r="1.909"/>
<circle fill="#E6E6E6" cx="254.655" cy="173.791" r="1.909"/>
<text transform="matrix(1 0 0 1 229.064 169.9678)" fill="#FFFFFF" font-family="'ArialMT'" font-size="2.6073">00  000   00000   000  00000</text>
<text transform="matrix(1 0 0 1 229.064 171.3828)" fill="#FFFFFF" font-family="'ArialMT'" font-size="0.9464">12  345   6789   1111  223344</text>
<rect x="229.064" y="172.341" fill="#FFFFFF" width="10.418" height="1.825"/>
<rect x="229.064" y="174.97" fill="#FFFFFF" width="6.182" height="0.73"/>
<path fill="#88BDED" d="M234.419,163.347v2.58c0,0.403-0.327,0.73-0.729,0.73h-3.896c-0.405,0-0.731-0.327-0.731-0.73v-2.58
	c0-0.402,0.326-0.729,0.731-0.729h3.896C234.092,162.616,234.419,162.944,234.419,163.347z"/>
<g>
	<rect x="233.16" y="165.271" fill="#FCE4A2" width="1.26" height="0.161"/>
	<polygon fill="#FCE4A2" points="231.441,162.616 231.441,166.657 231.277,166.657 231.277,165.432 229.064,165.432 229.064,165.27 
		231.277,165.27 231.277,164.003 229.064,164.003 229.064,163.842 231.277,163.842 231.277,162.616 	"/>
</g>
<rect x="246.206" y="161.497" fill="#FFFFFF" width="3.019" height="3.019"/>
<rect x="249.702" y="161.497" fill="#FFFFFF" width="6.862" height="3.019"/>
<circle opacity="0.3" enable-background="new    " cx="231.003" cy="154.169" r="6.221"/>
<circle fill="#88BDED" cx="229.569" cy="154.169" r="6.221"/>
<circle fill="#445D7B" cx="229.568" cy="154.169" r="5.553"/>
<circle fill="#668DB5" cx="229.569" cy="154.169" r="4.697"/>
<g>
	<path fill="#88BDED" d="M229.9,156.675v0.55h-0.576v-0.55c-0.928-0.076-1.545-0.547-1.615-1.445h0.947
		c0.063,0.4,0.303,0.652,0.668,0.737v-1.425c-0.899-0.287-1.426-0.66-1.426-1.461c0-0.864,0.652-1.319,1.426-1.418v-0.548h0.576
		v0.548c0.939,0.091,1.409,0.674,1.503,1.438h-0.948c-0.041-0.365-0.203-0.631-0.555-0.729v1.354
		c1.094,0.345,1.529,0.787,1.529,1.566C231.43,156.1,230.777,156.592,229.9,156.675z M229.324,153.615v-1.251
		c-0.31,0.07-0.506,0.273-0.506,0.604C228.818,153.319,228.987,153.488,229.324,153.615z M229.9,155.98
		c0.363-0.056,0.576-0.245,0.576-0.617c0-0.303-0.135-0.534-0.576-0.695V155.98z"/>
</g>
<circle opacity="0.3" enable-background="new    " cx="222.799" cy="158.866" r="6.221"/>
<circle fill="#88BDED" cx="221.364" cy="158.866" r="6.221"/>
<circle fill="#445D7B" cx="221.365" cy="158.866" r="5.554"/>
<circle fill="#668DB5" cx="221.364" cy="158.866" r="4.697"/>
<g>
	<path fill="#88BDED" d="M221.695,161.373v0.548h-0.576v-0.548c-0.927-0.078-1.544-0.548-1.614-1.446h0.947
		c0.063,0.399,0.303,0.653,0.667,0.736v-1.425c-0.898-0.287-1.425-0.66-1.425-1.46c0-0.865,0.651-1.319,1.425-1.42v-0.547h0.576
		v0.547c0.94,0.093,1.41,0.674,1.503,1.44h-0.947c-0.043-0.364-0.204-0.632-0.556-0.729v1.354c1.095,0.345,1.53,0.787,1.53,1.566
		C223.226,160.797,222.573,161.288,221.695,161.373z M221.12,158.313v-1.251c-0.309,0.07-0.506,0.273-0.506,0.604
		C220.614,158.017,220.783,158.185,221.12,158.313z M221.695,160.677c0.364-0.055,0.575-0.245,0.575-0.616
		c0-0.303-0.133-0.535-0.575-0.696V160.677z"/>
</g>
<path fill="#EFC7B0" d="M288.448,176.112l0.276,0.684l2.825,6.968l0.86,2.122l1.263-1.685l3.356-4.477
	c0.437-0.505,0.815-1.024,1.138-1.548c2.284-3.701,1.801-7.628-0.72-7.771c-0.242-0.012-0.508,0.017-0.792,0.082
	c-2.577,0.592-6.594,4.141-7.832,5.276C288.583,175.982,288.448,176.112,288.448,176.112z"/>
<path fill="#EFC7B0" d="M288.724,176.794l2.825,6.968l2.123,0.438l3.356-4.477c0.437-0.504,0.815-1.025,1.138-1.549
	c-0.696-0.984-1.527-1.313-1.527-1.313l0.016-6.374c-2.577,0.592-6.594,4.14-7.832,5.275L288.724,176.794z"/>
<path fill="#A2B2D6" d="M266.028,202.524c-0.006,2.206,1.651,4.027,3.789,4.279c0.163,0.02,0.33,0.033,0.499,0.033l20.649,0.054
	c2.372,0.01,4.302-1.91,4.311-4.284l0.005-1.135l0.062-22.931l0.069-25.11c0.008-2.374-1.914-4.305-4.286-4.312l-20.651-0.056
	c-2.371-0.008-4.302,1.914-4.308,4.287l-0.088,31.013L266.028,202.524z"/>
<polygon fill="#FFFFFF" points="267.695,200.241 293.623,200.313 293.627,198.113 293.733,159.815 293.748,154.49 267.82,154.42 
	267.806,159.745 267.701,198.043 "/>
<path opacity="0.5" fill="#4D4D4D" enable-background="new    " d="M291.92,197.015c0.849,2.191,2.566,3.797,3.36,4.456
	l0.062-22.932l-0.703-0.063c0,0-3.313,3.438-3.034,6.846c0.283,3.406,3.251,7.036,3.251,7.036l-2.595,0.311
	C292.263,192.669,290.794,194.107,291.92,197.015z"/>
<rect x="270.081" y="193.661" fill="#BCBCBC" width="20.129" height="0.24"/>
<rect x="270.102" y="195.561" fill="#BCBCBC" width="20.129" height="0.241"/>
<rect x="267.813" y="154.459" transform="matrix(-1 -0.0027 0.0027 -1 561.1256 315.004)" fill="#BFBFBF" width="25.927" height="5.325"/>
<rect x="270.787" y="169.813" transform="matrix(1 0.0027 -0.0027 1 0.4624 -0.7516)" fill="#BCBCBC" width="12.59" height="0.241"/>
<rect x="270.767" y="168.172" transform="matrix(1 0.0027 -0.0027 1 0.4571 -0.7502)" fill="#BCBCBC" width="12.613" height="0.241"/>
<rect x="270.746" y="166.54" transform="matrix(1 0.0027 -0.0027 1 0.4518 -0.7487)" fill="#BCBCBC" width="12.638" height="0.241"/>
<rect x="270.727" y="164.899" transform="matrix(1 0.0028 -0.0028 1 0.4593 -0.7687)" fill="#BCBCBC" width="12.661" height="0.241"/>
<rect x="267.698" y="198.077" transform="matrix(-1 -0.0028 0.0028 -1 560.7595 399.1446)" fill="#333232" width="25.928" height="2.199"/>
<circle fill="#C1C1C1" cx="280.75" cy="182.547" r="8.424"/>
<text transform="matrix(0.9999 0.0115 -0.0115 0.9999 276.9526 185.3486)" fill="#FFFFFF" font-family="'ArialMT'" font-size="5.9741">PAY</text>
<path opacity="0.5" fill="#4D4D4D" enable-background="new    " d="M266.028,202.524c-0.006,2.205,1.651,4.028,3.79,4.281
	c5.438-5.527,3.128-14.56,3.128-14.56s3.494-1.481,5.966-6.746s-1.313-8.907-1.313-8.907l-11.522,7.767L266.028,202.524z"/>
<path fill="#EFC7B0" d="M292.669,182.499c0.115,3.277,2.63,6.853,2.63,6.853l-0.077,7.232l0.022,0.522l0.187,4.506
	c0,0,0.777-1.516,1.756-3.551c0.74-1.538,1.591-3.374,2.312-5.077c0.831-1.977,1.483-3.777,1.568-4.735
	c0.277-3.17-3.058-8.551-3.058-8.551s-2.743-4.374-4.951,0.563C292.75,180.956,292.641,181.719,292.669,182.499z"/>
<path fill="#EFC7B0" d="M295.299,189.352l-0.077,7.232l0.022,0.522l1.942,0.955c0.74-1.538,1.591-3.374,2.312-5.077l-3.068-1.621
	l0.01-3.712c0,0-2.643-2.353-3.769-5.153C292.784,185.776,295.299,189.352,295.299,189.352z"/>
<path fill="#EFC7B0" d="M235.807,228.248l15.4-17.031c1.491-2.346,2.737-16.445,2.737-16.445l4.995-10.863
	c0.275-0.597,0.833-1.013,1.483-1.106c1.643-0.237,3.419-0.77,5.184-1.455c4.259-1.649,8.431-4.164,10.388-5.412
	c0.677-0.431,1.577-0.154,1.896,0.581c0.06,0.138,0.122,0.291,0.184,0.451c0.197,0.527,0.389,1.169,0.532,1.922
	c0.529,2.821-1.886,11.596-9.759,11.59c0,0,1.766,6.381-0.299,12.487c-0.221,0.651-0.484,1.302-0.799,1.939
	c-0.12,0.242-0.246,0.485-0.38,0.723c0.119,0.127,0.254,0.251,0.403,0.364c0.071,0.055,0.146,0.108,0.22,0.157
	c1.231,0.795,2.788,0.688,2.788,0.688l8.896,0.024l0.002-0.001l11.482,0.028c0.891-0.002,2.136-0.433,3.187-1.624
	c1.053-1.189,0.935-2.976,0.935-2.976l0.009-2.745v-0.038c-0.105-0.079-0.303-0.221-0.659-0.466c-1.13-0.778-1.95-2.22-1.976-2.262
	c-0.529-0.995-0.894-2.316-0.653-3.963c0.019-0.13,0.053-0.25,0.101-0.364c0.305-0.717,1.143-1.096,1.903-0.783
	c1.778,0.73,4.569,1.925,5.415,2.558c1.273,0.957,1.344,1.034,1.399,1.553c0.453,4.299-0.844,6.976-0.844,6.976
	s-3.963,5.163-8.881,7.854c-3.6,3.948-11.754,8.444-19.257,9.07l-7.503,8.567L235.807,228.248L235.807,228.248z"/>
<path fill="#EFC7B0" d="M270.777,206.836l8.896,0.024l0.002-0.001l11.481,0.028c0.891-0.002,2.136-0.433,3.187-1.623
	c1.052-1.188,0.935-2.976,0.935-2.976l0.008-2.746v-0.037c-0.104-0.077-0.303-0.22-0.658-0.465c-1.13-0.778-1.951-2.219-1.977-2.262
	c-0.528-0.996-0.894-2.314-0.652-3.963c0.018-0.13,0.053-0.25,0.102-0.364c0.305,1.39,1.128,4.433,4.386,6.136l-0.014,5.41
	c0,0-0.003,0.143-0.043,0.376c-0.088,0.737-0.641,3.428-3.927,3.767c-0.324,0.072-0.671,0.126-1.047,0.16l-19.685-0.049
	c0,0-2.903-0.288-3.775-2.106C269.22,206.942,270.777,206.836,270.777,206.836z"/>
<path fill="#EFC7B0" d="M259.512,194.854c0.031,2.85,0.568,15.793-1.351,17.759c-1.195,1.223-8.522,9.531-13.891,15.637h-8.466
	l15.4-17.03c1.491-2.347,2.737-16.443,2.737-16.443l4.995-10.864c0.275-0.597,0.833-1.014,1.483-1.106
	c1.643-0.236,3.419-0.771,5.184-1.455c-1.472,0.841-3.025,1.784-3.631,2.342C260.692,184.868,259.48,192.006,259.512,194.854z"/>
<path fill="#4D4D4D" d="M278.91,152.808l3.913-0.013c0.152-0.001,0.276-0.126,0.274-0.277l0,0c0-0.152-0.124-0.276-0.277-0.276
	l-3.913,0.014c-0.151,0-0.275,0.126-0.275,0.277l0,0C278.633,152.685,278.757,152.809,278.91,152.808z"/>
<g>
	<polygon fill="#B3B3B3" points="283.826,163.241 291.292,163.262 291.275,169.697 291.274,170.331 283.806,170.311 
		283.809,169.677 	"/>
</g>
<g>
	<g>
		<path fill="#445D7B" d="M211.157,125.175v-1.946c6.576,0,11.926,5.35,11.926,11.926h-1.945
			C221.135,129.652,216.66,125.175,211.157,125.175z"/>
	</g>
	<g>
		<path fill="#445D7B" d="M211.157,128.39v-1.752c4.696,0,8.516,3.821,8.516,8.517h-1.752
			C217.92,131.425,214.885,128.39,211.157,128.39z"/>
	</g>
	<g>
		<path fill="#445D7B" d="M211.157,131.496v-1.558c2.875,0,5.215,2.34,5.215,5.216h-1.558
			C214.814,133.137,213.173,131.496,211.157,131.496z"/>
	</g>
</g>
<g id="DESIGNED_BY_FREEPIK">
</g>
<ellipse fill="#171613" cx="149.221" cy="223.664" rx="4.205" ry="4.215"/>
<ellipse fill="#171613" cx="123.391" cy="223.664" rx="4.204" ry="4.215"/>
<ellipse fill="#171613" cx="186.276" cy="223.664" rx="4.205" ry="4.215"/>
<ellipse fill="#171613" cx="160.447" cy="223.664" rx="4.205" ry="4.215"/>
<rect x="126.201" y="206.124" fill="#171613" width="59.019" height="8.015"/>
<path fill="#445D7B" d="M195.158,225.068v-13.055c0-1.946-1.592-3.539-3.539-3.539h-72.911c-1.946,0-3.539,1.593-3.539,3.539v13.055
	H195.158z"/>
<path fill="#C7D5D2" d="M152.874,208.475h38.746c1.945,0,3.539,1.593,3.539,3.539v13.056h-38.746v-13.056
	C156.413,210.067,154.82,208.475,152.874,208.475z"/>
<rect x="175.366" y="212.014" fill="#C7D5D2" width="19.792" height="13.359"/>
<g>
	<path fill="#171613" d="M191.397,218.198c0,0.687,0.482,1.251,1.075,1.251s1.075-0.563,1.075-1.251v-1.113
		c0-0.688-0.483-1.25-1.075-1.25s-1.075,0.562-1.075,1.25V218.198z"/>
	<path fill="#171613" d="M187.25,218.198c0,0.687,0.483,1.251,1.076,1.251c0.591,0,1.076-0.563,1.076-1.251v-1.113
		c0-0.688-0.485-1.25-1.076-1.25c-0.592,0-1.076,0.562-1.076,1.25V218.198z"/>
	<path fill="#171613" d="M183.104,218.198c0,0.687,0.483,1.251,1.075,1.251c0.593,0,1.076-0.563,1.076-1.251v-1.113
		c0-0.688-0.483-1.25-1.076-1.25c-0.592,0-1.075,0.562-1.075,1.25V218.198z"/>
	<path fill="#171613" d="M178.958,218.198c0,0.687,0.483,1.251,1.075,1.251s1.076-0.563,1.076-1.251v-1.113
		c0-0.688-0.483-1.25-1.076-1.25s-1.075,0.562-1.075,1.25V218.198z"/>
	<path fill="#171613" d="M174.811,218.198c0,0.687,0.484,1.251,1.075,1.251c0.593,0,1.076-0.563,1.076-1.251v-1.113
		c0-0.688-0.483-1.25-1.076-1.25c-0.591,0-1.075,0.562-1.075,1.25V218.198z"/>
	<path fill="#171613" d="M170.665,218.198c0,0.687,0.484,1.251,1.076,1.251c0.592,0,1.075-0.563,1.075-1.251v-1.113
		c0-0.688-0.483-1.25-1.075-1.25c-0.592,0-1.076,0.562-1.076,1.25V218.198z"/>
	<path fill="#171613" d="M166.519,218.198c0,0.687,0.483,1.251,1.076,1.251c0.592,0,1.076-0.563,1.076-1.251v-1.113
		c0-0.688-0.484-1.25-1.076-1.25c-0.592,0-1.076,0.562-1.076,1.25V218.198z"/>
	<path fill="#171613" d="M162.372,218.198c0,0.687,0.484,1.251,1.076,1.251c0.592,0,1.076-0.563,1.076-1.251v-1.113
		c0-0.688-0.484-1.25-1.076-1.25s-1.076,0.562-1.076,1.25V218.198z"/>
	<path fill="#171613" d="M158.226,218.198c0,0.687,0.484,1.251,1.076,1.251c0.592,0,1.076-0.563,1.076-1.251v-1.113
		c0-0.688-0.484-1.25-1.076-1.25s-1.076,0.562-1.076,1.25V218.198z"/>
</g>
<rect x="114.647" y="224.487" fill="#484640" width="81.191" height="1.771"/>
<rect x="114.647" y="224.487" fill="#171613" width="42.676" height="1.771"/>
<polygon fill="#333232" points="202.844,118.312 202.844,195.13 109.167,195.13 109.167,103.581 174.117,103.581 174.117,118.312 
	"/>
<rect x="175.366" y="118.312" fill="#46607E" width="27.479" height="76.817"/>
<rect x="146.638" y="103.581" fill="#46607E" width="27.479" height="91.548"/>
<rect x="128.527" y="103.581" fill="#323C49" width="18.111" height="91.548"/>
<rect x="109.167" y="103.581" fill="#323C49" width="18.11" height="91.548"/>
<g>
	<g>
		<rect x="146.638" y="178.37" fill="#816035" width="56.206" height="0.625"/>
	</g>
	<g>
		<rect x="109.097" y="178.37" fill="#554431" width="37.469" height="0.625"/>
	</g>
</g>
<g>
	<g>
		<rect x="146.638" y="163.278" fill="#816035" width="56.206" height="0.624"/>
	</g>
	<g>
		<rect x="109.097" y="163.278" fill="#554431" width="37.469" height="0.624"/>
	</g>
</g>
<g>
	<g>
		<rect x="146.638" y="148.185" fill="#816035" width="56.206" height="0.624"/>
	</g>
	<g>
		<rect x="109.097" y="148.185" fill="#554431" width="37.469" height="0.624"/>
	</g>
</g>
<g>
	<g>
		<rect x="146.638" y="133.092" fill="#816035" width="56.206" height="0.625"/>
	</g>
	<g>
		<rect x="109.097" y="133.092" fill="#554431" width="37.469" height="0.625"/>
	</g>
</g>
<g>
	<g>
		<rect x="146.638" y="117.999" fill="#816035" width="56.206" height="0.624"/>
	</g>
	<g>
		<rect x="109.097" y="117.999" fill="#554431" width="37.469" height="0.624"/>
	</g>
</g>
<rect x="135.085" y="103.581" fill="#414242" width="3.608" height="3.588"/>
<rect x="168.094" y="114.101" opacity="0.7" fill="#E5E5E6" enable-background="new    " width="4.623" height="2.914"/>
<rect x="168.094" y="128.913" opacity="0.7" fill="#E5E5E6" enable-background="new    " width="4.623" height="2.915"/>
<rect x="168.094" y="143.902" opacity="0.7" fill="#E5E5E6" enable-background="new    " width="4.623" height="2.914"/>
<rect x="168.094" y="159.269" opacity="0.7" fill="#E5E5E6" enable-background="new    " width="4.623" height="2.914"/>
<rect x="176.699" y="165.847" opacity="0.7" fill="#E5E5E6" enable-background="new    " width="4.622" height="2.915"/>
<rect x="179.01" y="128.913" opacity="0.7" fill="#E5E5E6" enable-background="new    " width="4.622" height="2.915"/>
<rect x="177.464" y="143.904" transform="matrix(-0.9919 -0.1268 0.1268 -0.9919 339.6607 312.3497)" opacity="0.7" fill="#E5E5E6" enable-background="new    " width="4.62" height="2.914"/>
<rect x="196.407" y="159.269" opacity="0.7" fill="#E5E5E6" enable-background="new    " width="4.621" height="2.914"/>
<rect x="148.803" y="174.202" opacity="0.7" fill="#E5E5E6" enable-background="new    " width="4.623" height="2.914"/>
<rect x="150.464" y="189.812" transform="matrix(-0.9177 -0.3972 0.3972 -0.9177 217.0053 427.4865)" opacity="0.7" fill="#E5E5E6" enable-background="new    " width="4.622" height="2.915"/>
<rect x="176.699" y="191.273" opacity="0.7" fill="#E5E5E6" enable-background="new    " width="4.622" height="2.914"/>
<rect x="135.085" y="118.55" fill="#414242" width="3.608" height="3.589"/>
<rect x="135.085" y="133.643" fill="#414242" width="3.608" height="3.589"/>
<rect x="135.085" y="148.801" fill="#414242" width="3.608" height="3.588"/>
<rect x="135.085" y="163.717" fill="#414242" width="3.608" height="3.588"/>
<rect x="135.085" y="179.07" fill="#414242" width="3.608" height="3.588"/>
<rect x="116.419" y="103.581" fill="#414242" width="3.607" height="3.588"/>
<rect x="116.419" y="118.55" fill="#414242" width="3.607" height="3.589"/>
<rect x="116.419" y="133.643" fill="#414242" width="3.607" height="3.589"/>
<rect x="116.419" y="148.801" fill="#414242" width="3.607" height="3.588"/>
<rect x="116.419" y="163.717" fill="#414242" width="3.607" height="3.588"/>
<rect x="116.419" y="179.07" fill="#414242" width="3.607" height="3.588"/>
<rect x="109.212" y="206.055" fill="#5D5B52" width="3.818" height="22.077"/>
<rect x="105.487" y="206.055" fill="#484640" width="3.819" height="22.077"/>
<rect x="105.487" y="201.385" fill="#414242" width="101.176" height="4.67"/>
<rect x="202.844" y="206.055" fill="#414242" width="3.819" height="22.077"/>
<rect x="199.12" y="206.055" fill="#484640" width="3.819" height="22.077"/>
<rect x="148.741" y="206.055" fill="#5D5B52" width="3.819" height="22.077"/>
<rect x="145.017" y="206.055" fill="#484640" width="3.819" height="22.077"/>
<rect x="105.487" y="201.385" fill="#484640" width="43.349" height="4.67"/>
<rect x="106.696" y="195.13" fill="#46607E" width="99.094" height="6.264"/>
<rect x="107.425" y="195.857" fill="#1B1508" width="40.804" height="4.809"/>
<path fill="#5D5B52" d="M147.499,196.587v3.35h-39.346v-3.35H147.499L147.499,196.587z M148.957,195.13h-42.261v6.264h42.261V195.13
	L148.957,195.13z"/>
<rect x="123.559" y="195.13" fill="#5D5B52" width="5.621" height="6.264"/>
<rect x="186.303" y="211.456" fill="#5E85A8" width="21.233" height="16.605"/>
<rect x="206.762" y="211.456" fill="#668DB5" width="18.11" height="16.605"/>
<rect x="214.708" y="211.456" fill="#414242" width="3.608" height="3.588"/>
<rect x="187.553" y="223.85" opacity="0.7" fill="#E5E5E6" enable-background="new    " width="4.623" height="2.914"/>
</svg>
