<?xml version="1.0" encoding="utf-8"?>
<!-- Generator: Adobe Illustrator 16.0.0, SVG Export Plug-In . SVG Version: 6.00 Build 0)  -->
<!DOCTYPE svg PUBLIC "-//W3C//DTD SVG 1.1//EN" "http://www.w3.org/Graphics/SVG/1.1/DTD/svg11.dtd">
<svg version="1.1" id="Layer_1" xmlns="http://www.w3.org/2000/svg" xmlns:xlink="http://www.w3.org/1999/xlink" x="0px" y="0px"
	 width="200px" height="156.164px" viewBox="125.352 121.301 200 156.164" enable-background="new 125.352 121.301 200 156.164"
	 xml:space="preserve">
<path fill="#97B8E0" d="M129.326,249.709h71.23v-58.221h-35.693c-6.968,0-13.48,3.458-17.381,9.232l-14.561,21.548
	c-2.343,3.469-3.595,7.558-3.595,11.744V249.709z"/>
<path fill="#CFCECE" d="M324.276,272.158c0,1.394-49.646,2.523-110.89,2.523c-61.243,0-86.86-1.13-86.86-2.523
	s25.617-2.523,86.86-2.523C274.629,269.635,324.276,270.765,324.276,272.158z"/>
<path fill="#10222C" d="M159.525,244.948c7.836,0,14.19,6.353,14.19,14.189s-6.353,14.189-14.19,14.189h-3.934v-28.379H159.525z"/>
<path fill="#2A3A49" d="M233.6,244.948c7.837,0,14.189,6.353,14.189,14.189s-6.353,14.189-14.189,14.189h-3.934v-28.379H233.6z"/>
<path fill="#2A3A49" d="M159.525,244.948c7.836,0,14.19,6.353,14.19,14.189s-6.353,14.189-14.19,14.189h-3.934v-28.379H159.525z"/>
<circle fill="#2A3A49" cx="186.367" cy="256.489" r="14.189"/>
<path fill="#2A3A49" d="M266.056,242.301c7.836,0,14.188,6.353,14.188,14.188c0,7.838-6.353,14.19-14.188,14.19h-3.936v-28.378
	H266.056z"/>
<circle fill="#2A3A49" cx="262.121" cy="256.489" r="14.189"/>
<path fill="#707171" d="M129.326,259.138h129.452v-9.429H129.326c-1.547,0-2.801,1.251-2.801,2.799v3.83
	C126.526,257.885,127.779,259.138,129.326,259.138z"/>
<path fill="#F2F2F2" d="M183.461,225.938v-27.898h-18.598c-4.798,0-9.267,2.374-11.952,6.35l-14.56,21.549H183.461L183.461,225.938z
	"/>
<rect x="191.979" y="191.489" opacity="0.4" fill="#E5DAD3" width="8.578" height="58.221"/>
<path fill="#2A3A49" d="M229.012,242.301c9.298,0,16.837,7.537,16.837,16.836h-33.676
	C212.174,249.838,219.711,242.301,229.012,242.301z"/>
<path fill="#2A3A49" d="M154.935,242.301c9.298,0,16.838,7.537,16.838,16.836h-33.675
	C138.098,249.838,145.636,242.301,154.935,242.301z"/>
<circle fill="#707171" cx="155.591" cy="259.138" r="14.189"/>
<circle fill="#F2F2F2" cx="155.591" cy="259.138" r="6.982"/>
<rect x="258.778" y="239.406" fill="#B24D29" width="6.081" height="5.788"/>
<rect x="252.696" y="239.406" fill="#D3682D" width="6.082" height="5.788"/>
<rect x="296.361" y="239.406" fill="#B24D29" width="6.082" height="5.788"/>
<g>
	<path fill="#48607E" d="M176.084,231.324h5.598c0.982,0,1.778-0.796,1.778-1.779v-1.272h-9.154v1.272
		C174.307,230.529,175.104,231.324,176.084,231.324z"/>
	<path fill="#48607E" d="M176.084,230.569h5.598c0.982,0,1.778-0.796,1.778-1.778v-0.518h-9.154v0.518
		C174.307,229.773,175.104,230.569,176.084,230.569z"/>
</g>
<path fill="#F2F2F2" d="M134.855,242.301c0-3.054-2.476-5.53-5.529-5.53v11.058C132.379,247.828,134.855,245.353,134.855,242.301z"
	/>
<path fill="#707171" d="M302.443,249.709h-43.665c-1.546,0-2.801,1.251-2.801,2.799v3.83c0,1.547,1.255,2.8,2.801,2.8h43.665
	c1.547,0,2.802-1.253,2.802-2.8v-3.83C305.244,250.96,303.99,249.709,302.443,249.709z"/>
<circle fill="#F2F2F2" cx="261.818" cy="254.422" r="2.003"/>
<circle fill="#F2F2F2" cx="266.269" cy="254.423" r="1.001"/>
<path fill="#F2F2F2" d="M297.399,254.422c0,1.107,0.897,2.004,2.003,2.004c1.106,0,2.004-0.896,2.004-2.004
	c0-1.105-0.897-2.004-2.004-2.004C298.296,252.419,297.399,253.317,297.399,254.422z"/>
<circle fill="#F2F2F2" cx="294.949" cy="254.423" r="1.001"/>
<polygon fill="#597791" points="234.451,166.419 307.226,166.419 302.443,191.489 234.451,191.555 "/>
<rect x="200.557" y="191.489" fill="#97B8E0" width="58.221" height="58.221"/>
<rect x="200.557" y="216.126" opacity="0.4" fill="#E5DAD3" width="58.221" height="8.942"/>
<rect x="223.594" y="216.126" fill="#C8C6C4" width="12.147" height="8.942"/>
<rect x="225.195" y="191.489" opacity="0.4" fill="#E5DAD3" width="8.943" height="58.221"/>
<rect x="258.778" y="191.489" fill="#97B8E0" width="43.665" height="58.221"/>
<rect x="258.778" y="216.126" opacity="0.4" fill="#E5DAD3" width="43.665" height="8.942"/>
<rect x="274.36" y="216.126" fill="#C8C6C4" width="12.147" height="8.942"/>
<polygon fill="#5D81A5" points="258.778,191.555 302.443,191.555 324.276,169.852 280.611,169.852 "/>
<rect x="275.962" y="191.489" opacity="0.4" fill="#E5DAD3" width="8.942" height="58.221"/>
<polygon opacity="0.4" fill="#E5DAD3" points="275.962,191.489 284.905,191.489 306.541,169.852 297.598,169.852 "/>
<polygon fill="#AB7A45" points="234.138,191.489 225.195,191.489 203.363,169.655 212.306,169.655 "/>
<circle fill="#707171" cx="229.667" cy="259.138" r="14.189"/>
<circle fill="#F2F2F2" cx="229.667" cy="259.138" r="6.982"/>
<polygon fill="#5D81A5" points="258.778,191.489 200.557,191.489 178.724,169.655 236.945,169.655 "/>
<g>
	<path fill="#F4F5F5" d="M252.855,131.176l0.271,4.256c1.809,0.083,3.496,0.69,4.902,1.68l2.818-3.201
		C258.604,132.217,255.83,131.208,252.855,131.176z"/>
	<path fill="#C8C6C4" d="M243.423,144.28c0.081-1.808,0.688-3.496,1.678-4.903l-3.2-2.817c-1.695,2.241-2.702,5.015-2.736,7.992
		L243.423,144.28z"/>
	<path fill="#C8C6C4" d="M246.444,137.85c1.271-1.162,2.868-1.978,4.652-2.288l-0.271-4.257c-2.948,0.41-5.572,1.761-7.582,3.727
		L246.444,137.85z"/>
	<path fill="#C8C6C4" d="M245.838,150.959c-1.16-1.27-1.977-2.868-2.286-4.65l-4.259,0.271c0.41,2.949,1.763,5.572,3.729,7.581
		L245.838,150.959z"/>
	<path fill="#C8C6C4" d="M252.269,153.983c-1.81-0.082-3.496-0.69-4.904-1.68l-2.818,3.2c2.242,1.695,5.017,2.703,7.992,2.736
		L252.269,153.983z"/>
	<path fill="#C8C6C4" d="M261.971,145.135c-0.082,1.81-0.689,3.497-1.68,4.904l3.2,2.818c1.695-2.243,2.703-5.015,2.735-7.992
		L261.971,145.135z"/>
	<path fill="#C8C6C4" d="M258.949,151.565c-1.271,1.161-2.868,1.978-4.651,2.289l0.271,4.256c2.948-0.41,5.571-1.761,7.581-3.727
		L258.949,151.565z"/>
	<path fill="#F4F5F5" d="M253.77,124.39v4.696c3.512,0.239,6.708,1.64,9.209,3.822l3.318-3.318
		C262.939,126.567,258.574,124.641,253.77,124.39z"/>
	<g>
		<path fill="#707171" d="M251.624,160.329c-3.513-0.239-6.708-1.64-9.209-3.822l-3.317,3.318c3.357,3.023,7.725,4.948,12.526,5.2
			V160.329z"/>
		<path fill="#707171" d="M240.897,154.99c-2.183-2.501-3.583-5.697-3.822-9.208h-4.695c0.251,4.803,2.175,9.168,5.2,12.526
			L240.897,154.99z"/>
		<path fill="#707171" d="M262.98,156.508c-2.502,2.182-5.698,3.583-9.21,3.822v4.696c4.804-0.251,9.169-2.176,12.527-5.2
			L262.98,156.508z"/>
		<path fill="#707171" d="M268.317,145.781c-0.237,3.511-1.638,6.707-3.82,9.208l3.318,3.317c3.023-3.358,4.949-7.723,5.198-12.526
			H268.317z"/>
	</g>
	<path fill="#F4F5F5" d="M264.496,134.426c2.184,2.5,3.584,5.696,3.821,9.208h4.696c-0.249-4.803-2.176-9.168-5.198-12.527
		L264.496,134.426z"/>
	<g>
		<path fill="#E2DFDE" d="M250.114,148.434c-0.711-0.507-1.236-1.195-1.545-1.963l-2.82,0.811c0.463,1.273,1.646,2.842,2.844,3.635
			L250.114,148.434z"/>
		<path fill="#E2DFDE" d="M253.444,149.279c-0.859,0.155-1.718,0.05-2.484-0.265l-1.388,2.585c1.236,0.557,3.187,0.806,4.589,0.502
			L253.444,149.279z"/>
		<path fill="#E2DFDE" d="M256.446,147.391c-0.507,0.711-1.195,1.235-1.963,1.544l0.809,2.821c1.273-0.463,2.844-1.646,3.637-2.843
			L256.446,147.391z"/>
		<path fill="#E2DFDE" d="M249.056,142.189c0.508-0.709,1.198-1.231,1.969-1.54l-0.805-2.822c-1.275,0.46-2.848,1.639-3.643,2.833
			L249.056,142.189z"/>
		<path fill="#E2DFDE" d="M255.325,141.125c0.712,0.506,1.236,1.193,1.547,1.962l2.82-0.815c-0.466-1.273-1.65-2.841-2.85-3.632
			L255.325,141.125z"/>
		<path fill="#E2DFDE" d="M251.953,140.32c0.861-0.149,1.719-0.037,2.482,0.284l1.41-2.574c-1.23-0.567-3.18-0.832-4.586-0.538
			L251.953,140.32z"/>
		<path fill="#E2DFDE" d="M248.324,145.692c-0.169-0.856-0.077-1.716,0.225-2.488l-2.607-1.346
			c-0.537,1.244-0.754,3.197-0.428,4.596L248.324,145.692z"/>
	</g>
</g>
</svg>
