<?xml version="1.0" encoding="utf-8"?>
<!-- Generator: Adobe Illustrator 16.0.0, SVG Export Plug-In . SVG Version: 6.00 Build 0)  -->
<!DOCTYPE svg PUBLIC "-//W3C//DTD SVG 1.1//EN" "http://www.w3.org/Graphics/SVG/1.1/DTD/svg11.dtd">
<svg version="1.1" id="Слой_1" xmlns="http://www.w3.org/2000/svg" xmlns:xlink="http://www.w3.org/1999/xlink" x="0px" y="0px"
	 width="200px" height="108.496px" viewBox="142.5 116.004 200 108.496" enable-background="new 142.5 116.004 200 108.496"
	 xml:space="preserve">
<g>
	<g>
		<g>
			<path fill="#5D81A5" d="M326.643,170.455c0,0-24.596-10.569-34.094,3.755c-9.501,14.326,3.808,13.435,3.808,13.435
				s0.738,6.623,13.303-9.054C315.58,171.204,326.643,170.455,326.643,170.455z"/>
		</g>
	</g>
</g>
<g>
	<g>
		<g>
			<path fill="#768EB0" d="M276.506,182.022c1.912,9.207,22.987-8.548,25.062-24.469c2.075-15.922-2.057-27.604,2.132-37.817
				C303.699,119.736,267.09,136.683,276.506,182.022z"/>
		</g>
	</g>
</g>
<g>
	<path fill="#E5E5E5" d="M280.088,135.9c0.869,0,1.7,0.129,2.465,0.362c1.012-2.449,3.518-4.184,6.452-4.184
		c3.263,0,5.998,2.145,6.733,5.029c0.563-0.213,1.177-0.331,1.821-0.331c2.715,0,4.918,2.092,4.918,4.674h-7.195h-2.64h-5.627
		h-4.287h-9.567C273.161,138.386,276.263,135.9,280.088,135.9z"/>
</g>
<g>
	<path fill="#E5E5E5" d="M323.523,154.365c0.663,0,1.297,0.097,1.881,0.275c0.77-1.868,2.683-3.19,4.921-3.19
		c2.487,0,4.571,1.635,5.132,3.836c0.432-0.163,0.899-0.253,1.389-0.253c2.072,0,3.751,1.594,3.751,3.563h-5.486h-2.012h-4.291
		h-3.27h-7.294C318.243,156.26,320.608,154.365,323.523,154.365z"/>
</g>
<path fill="#98B9E2" d="M291.966,202.467h37.905c1.369,0,2.478-1.108,2.478-2.477v-8.479c0-1.368-1.108-2.477-2.478-2.477h-37.905
	V202.467z"/>
<path fill="#B3D2F2" d="M280.008,222.594h46.193c0.985,0,1.781-0.797,1.781-1.78v-5.633c0-0.983-0.796-1.781-1.781-1.781h-46.193
	V222.594z"/>
<path fill="#5D81A5" d="M275.086,214.405v7.184h-1.221v1.004h21.676c0.679,0,1.23-0.55,1.23-1.229v-6.733
	c0-0.678-0.552-1.23-1.23-1.23h-21.676v1.005L275.086,214.405L275.086,214.405z"/>
<path fill="#FDFCF1" d="M275.087,221.589h19.403c0.652,0,1.182-0.53,1.182-1.183v-4.818c0-0.653-0.529-1.183-1.182-1.183h-19.403
	V221.589z"/>
<path fill="#88B3E2" d="M285.502,190.417v10.668h-0.658v1.381h27.466c1.415,0,2.56-1.144,2.56-2.56v-8.313
	c0-1.414-1.145-2.56-2.56-2.56h-27.466v1.383L285.502,190.417L285.502,190.417z"/>
<path fill="#FDFCF1" d="M285.502,201.084h25.401c1.415,0,2.562-1.146,2.562-2.56v-5.548c0-1.414-1.146-2.561-2.562-2.561h-25.401
	V201.084z"/>
<path fill="#5D81A5" d="M300.153,213.399h37.218c1.748,0,3.164-1.417,3.164-3.165v-4.602c0-1.748-1.416-3.165-3.164-3.165h-37.218
	V213.399z"/>
<path fill="#46607E" d="M293.688,203.593v8.683h-0.66v1.126h26.863c1.748,0,3.165-1.418,3.165-3.166v-4.603
	c0-1.748-1.418-3.165-3.165-3.165h-26.863v1.125H293.688z"/>
<path fill="#FDFCF1" d="M293.689,212.275h24.882c1.749,0,3.165-1.418,3.165-3.166v-2.352c0-1.748-1.417-3.164-3.165-3.164h-24.882
	V212.275z"/>
<rect x="298.078" y="206.36" fill="#DECCC5" width="10.658" height="0.275"/>
<rect x="302.352" y="207.196" fill="#FDFCF1" width="11.382" height="0.273"/>
<rect x="277.649" y="216.263" fill="#DECCC5" width="10.658" height="0.276"/>
<rect x="281.923" y="217.098" fill="#FDFCF1" width="11.381" height="0.274"/>
<rect x="289.733" y="217.859" fill="#DECCC5" width="4.709" height="0.274"/>
<rect x="297.964" y="197.63" fill="#DECCC5" width="11.38" height="0.274"/>
<rect x="297.025" y="198.393" fill="#DECCC5" width="4.708" height="0.273"/>
<path fill="#EEA886" d="M298.716,199.438c0-0.137,0.147-0.347,0.379-0.166c0.229,0.182-0.055,0.842-0.241,0.783
	C298.668,199.997,298.716,199.58,298.716,199.438z"/>
<g>
	<path fill="#C7D5D2" d="M244.268,132.475c-0.229-0.885-0.579-1.72-1.032-2.488l1.051-1.58l-1.458-1.457l-1.456-1.457l-1.581,1.051
		c-0.768-0.453-1.603-0.805-2.488-1.033l-0.374-1.858h-2.061h-2.061l-0.375,1.858c-0.884,0.229-1.72,0.58-2.487,1.033l-1.58-1.051
		l-1.458,1.457l-1.458,1.457l1.051,1.58c-0.453,0.769-0.804,1.604-1.032,2.488l-1.858,0.375v2.061v2.062l1.858,0.373
		c0.229,0.885,0.58,1.72,1.032,2.488l-1.051,1.579l1.458,1.457l1.458,1.459l1.58-1.052c0.768,0.454,1.603,0.804,2.487,1.031
		l0.375,1.86h2.061h2.061l0.374-1.86c0.885-0.229,1.72-0.577,2.488-1.031l1.581,1.052l1.456-1.459l1.458-1.457l-1.051-1.579
		c0.454-0.769,0.804-1.604,1.032-2.488l1.858-0.373v-2.062v-2.061L244.268,132.475z M234.868,142.133
		c-3.989,0-7.222-3.233-7.222-7.223s3.233-7.223,7.222-7.223s7.223,3.233,7.223,7.223S238.857,142.133,234.868,142.133z"/>
</g>
<g>
	<path fill="#C7D5D2" d="M256.331,124.101c-0.104-0.406-0.267-0.789-0.474-1.141l0.482-0.724l-0.668-0.668l-0.67-0.668l-0.724,0.481
		c-0.352-0.208-0.734-0.368-1.141-0.473l-0.171-0.852h-0.945h-0.944l-0.172,0.852c-0.406,0.104-0.789,0.266-1.141,0.473
		l-0.724-0.481l-0.669,0.668l-0.668,0.668l0.481,0.724c-0.207,0.353-0.368,0.735-0.473,1.141l-0.852,0.17v0.946v0.944l0.852,0.173
		c0.104,0.404,0.266,0.788,0.473,1.14l-0.481,0.724l0.668,0.669l0.669,0.668l0.724-0.482c0.352,0.208,0.734,0.368,1.141,0.474
		l0.172,0.851h0.944h0.945l0.171-0.851c0.406-0.105,0.789-0.266,1.141-0.474l0.724,0.482l0.67-0.668l0.668-0.669l-0.482-0.724
		c0.208-0.352,0.369-0.735,0.474-1.14l0.852-0.173v-0.944v-0.946L256.331,124.101z M252.021,128.526c-1.829,0-3.311-1.48-3.311-3.31
		c0-1.829,1.481-3.311,3.311-3.311c1.828,0,3.311,1.482,3.311,3.311C255.332,127.046,253.85,128.526,252.021,128.526z"/>
</g>
<g>
	<path fill="#C7D5D2" d="M218.426,136.051c-0.104-0.405-0.265-0.789-0.473-1.141l0.482-0.726l-0.668-0.667l-0.669-0.668l-0.724,0.48
		c-0.351-0.207-0.734-0.368-1.141-0.473l-0.171-0.853h-0.945h-0.945l-0.171,0.853c-0.406,0.104-0.789,0.266-1.142,0.473l-0.724-0.48
		l-0.667,0.668l-0.668,0.667l0.482,0.726c-0.207,0.352-0.369,0.735-0.473,1.141l-0.852,0.17v0.945v0.945l0.852,0.173
		c0.104,0.404,0.266,0.786,0.473,1.14l-0.482,0.725l0.668,0.667l0.667,0.669l0.724-0.482c0.353,0.208,0.736,0.368,1.142,0.474
		l0.171,0.852h0.945h0.945l0.171-0.852c0.406-0.105,0.789-0.266,1.141-0.474l0.724,0.482l0.669-0.669l0.668-0.667l-0.482-0.725
		c0.208-0.354,0.369-0.735,0.473-1.14l0.852-0.173v-0.945v-0.945L218.426,136.051z M214.117,140.478
		c-1.829,0-3.312-1.481-3.312-3.312c0-1.828,1.483-3.311,3.312-3.311c1.828,0,3.311,1.483,3.311,3.311
		C217.428,138.996,215.945,140.478,214.117,140.478z"/>
</g>
<g>
	<path fill="#C7D5D2" d="M224.295,120.899c-0.081-0.316-0.207-0.615-0.369-0.89l0.376-0.565l-0.521-0.521l-0.521-0.521l-0.565,0.375
		c-0.274-0.161-0.572-0.287-0.889-0.369l-0.134-0.664h-0.737h-0.737l-0.134,0.664c-0.316,0.082-0.615,0.208-0.89,0.369l-0.565-0.375
		l-0.52,0.521l-0.521,0.521l0.375,0.565c-0.161,0.275-0.287,0.574-0.368,0.89l-0.665,0.133v0.737v0.737l0.665,0.134
		c0.082,0.316,0.207,0.615,0.368,0.889l-0.375,0.565l0.521,0.521l0.52,0.521l0.565-0.376c0.275,0.163,0.573,0.288,0.89,0.37
		l0.134,0.664h0.737h0.737l0.134-0.664c0.316-0.082,0.615-0.207,0.889-0.37l0.565,0.376l0.521-0.521l0.521-0.521l-0.376-0.565
		c0.162-0.274,0.288-0.573,0.369-0.889l0.665-0.134v-0.737v-0.737L224.295,120.899z M220.935,124.352
		c-1.427,0-2.583-1.157-2.583-2.583c0-1.426,1.156-2.583,2.583-2.583c1.425,0,2.582,1.156,2.582,2.583
		C223.517,123.195,222.36,124.352,220.935,124.352z"/>
</g>
<path fill="#EAEAEA" d="M278.162,208.185h-75.458c-2.782,0-5.039-2.257-5.039-5.038v-49.133c0-2.782,2.256-5.037,5.039-5.037h75.458
	c2.783,0,5.038,2.255,5.038,5.037v49.133C283.2,205.928,280.944,208.185,278.162,208.185z"/>
<rect x="240.083" y="148.316" fill="#E8E8E8" width="0.699" height="60.557"/>
<g>
	<rect x="203.44" y="155.215" fill="#C1DBD1" width="31.428" height="1.188"/>
	<rect x="203.44" y="159.568" fill="#C1DBD1" width="31.428" height="1.188"/>
	<rect x="203.44" y="163.923" fill="#C1DBD1" width="31.428" height="1.189"/>
	<rect x="203.44" y="168.278" fill="#C1DBD1" width="31.428" height="1.188"/>
	<rect x="203.44" y="172.632" fill="#C1DBD1" width="31.428" height="1.188"/>
	<rect x="203.44" y="176.987" fill="#C1DBD1" width="31.428" height="1.187"/>
	<rect x="203.44" y="181.341" fill="#C1DBD1" width="31.428" height="1.188"/>
	<rect x="203.44" y="185.696" fill="#C1DBD1" width="31.428" height="1.188"/>
	<rect x="203.44" y="190.051" fill="#C1DBD1" width="31.428" height="1.188"/>
	<rect x="203.44" y="194.405" fill="#C1DBD1" width="31.428" height="1.187"/>
	<rect x="203.44" y="198.759" fill="#C1DBD1" width="31.428" height="1.188"/>
</g>
<g>
	<rect x="245.821" y="155.215" fill="#C1DBD1" width="31.428" height="1.188"/>
	<rect x="245.821" y="159.568" fill="#C1DBD1" width="31.428" height="1.188"/>
	<rect x="245.821" y="163.923" fill="#C1DBD1" width="31.428" height="1.189"/>
	<rect x="245.821" y="168.278" fill="#C1DBD1" width="31.428" height="1.188"/>
	<rect x="245.821" y="172.632" fill="#C1DBD1" width="31.428" height="1.188"/>
	<rect x="245.821" y="176.987" fill="#C1DBD1" width="31.428" height="1.187"/>
	<rect x="245.821" y="181.341" fill="#C1DBD1" width="31.428" height="1.188"/>
	<rect x="245.821" y="185.696" fill="#C1DBD1" width="31.428" height="1.188"/>
	<rect x="245.821" y="190.051" fill="#C1DBD1" width="31.428" height="1.188"/>
	<rect x="245.821" y="194.405" fill="#C1DBD1" width="31.428" height="1.187"/>
	<rect x="245.821" y="198.759" fill="#C1DBD1" width="31.428" height="1.188"/>
</g>
<g>
	<g>
		<path fill="#E0CBAF" d="M229.521,163.355c0,0-0.478-0.836,0.28-3.075c0.732-2.167,3.269-1.97,4.074-0.582
			c0.807,1.388,0.534,2.251-0.652,3.816C232.036,165.083,230.014,164.072,229.521,163.355z"/>
	</g>
</g>
<g>
	<g>
		<path fill="#EEA886" d="M235.411,201.897c0,0,0.126,0.92,0.14,1.058c0.016,0.14,1.396-0.081,1.396-0.081l0.113-1.095
			C237.061,201.779,235.583,201.768,235.411,201.897z"/>
	</g>
</g>
<g>
	<g>
		<path fill="#152B3D" d="M235.538,202.839c0,0-0.437,0.554-0.86,0.796c-0.424,0.24-1.087,0.337-1.339,0.588
			c-0.18,0.18-0.657,0.957,1.1,0.941c1.757-0.015,2.604,0.109,2.792-0.188s-0.272-2.199-0.272-2.199
			S236.528,202.898,235.538,202.839z"/>
	</g>
</g>
<g>
	<g>
		<path fill="#EEA886" d="M225.854,201.897c0,0,0.125,0.92,0.141,1.058c0.016,0.14,1.397-0.081,1.397-0.081l0.111-1.095
			C227.503,201.779,226.027,201.768,225.854,201.897z"/>
	</g>
</g>
<g>
	<g>
		<path fill="#152B3D" d="M225.98,202.839c0,0-0.438,0.554-0.86,0.796c-0.423,0.24-1.98,0.439-2.23,0.69
			c-0.18,0.18-0.48,0.907,1.991,0.839c1.756-0.048,2.604,0.109,2.792-0.188c0.188-0.298-0.272-2.199-0.272-2.199
			S226.855,202.873,225.98,202.839z"/>
	</g>
</g>
<g>
	<g>
		<path fill="#323657" d="M234.946,178.99c0,0,0.707,2.198,0.614,4.094s0.366,3.97,0.553,5.949c0.21,2.207,1.066,7.433,1.097,8.611
			c0.032,1.181-0.133,4.951-0.133,4.951l-1.715,0.043c0,0-1.439-9.136-1.812-10.067c-0.373-0.933-2.221-7.576-2.284-8.323
			C231.205,183.502,234.946,178.99,234.946,178.99z"/>
	</g>
</g>
<g>
	<g>
		<path fill="#323657" d="M227.839,178.762c0,0-1.04,5.814-1.164,6.975c-0.125,1.159-0.207,5.613-0.27,6.339
			c-0.063,0.725-0.415,9.487-0.746,10.563h1.911c0,0,1.963-6.369,1.963-9.384c0-3.014,1.298-6.552,2.137-8.54
			c0.84-1.988,2.76-2.035,3.275-5.725C234.946,178.99,228.537,177.591,227.839,178.762z"/>
	</g>
</g>
<g>
	<g>
		<path fill="#E0CBAF" d="M230.214,163.947c0,0,0.216,0.628,0,1.076c-0.216,0.447,2.755,0.18,2.755,0.18s-0.135-0.928,0.253-1.688
			C233.61,162.754,230.214,163.947,230.214,163.947z"/>
	</g>
</g>
<g>
	<g>
		<path fill="#323657" d="M235.084,179.47c0,0-1.068,1.097-7.34-0.172l0.095-0.536l7.13,0.269L235.084,179.47z"/>
	</g>
</g>
<g>
	<g>
		<path fill="#E0CBAF" d="M229.765,165.169c0,0-1.097,0.111-1.41,0.172c-0.313,0.059-2.424-0.378-2.856-0.423
			c-0.434-0.045-2.279-1.309-2.339-1.459c-0.059-0.148-1.122-2.84-1.182-3.423c-0.06-0.582-1.036-0.282-0.952,0.12
			c0.157,0.751,0.358,2.571,0.468,3.1c0.119,0.57,0.438,1.862,0.617,2.02c0.179,0.16,1.841,1.424,3.468,1.96
			c1.626,0.539,2.852,1.329,2.852,1.329h8.017c0,0,3.12-4.457,3.186-5.129c0.067-0.672-2.178-5.137-2.626-5.696
			c-0.448-0.561-1.095,0.183-1.095,0.183s1.341,3.937,1.52,4.496c0.179,0.561-1.561,3.02-2.038,3.027
			c-0.477,0.007-1.705-0.15-2.249-0.172c-0.546-0.022-1.12-0.262-1.12-0.262L229.765,165.169z"/>
	</g>
</g>
<g>
	<g>
		<path fill="#445D7B" d="M226.31,168.146c0,0,0.981,0.652,1.071,1.772c0.089,1.119,0.447,2.889,0.626,3.492
			c0.179,0.605-0.157,4.992-0.201,5.306c-0.045,0.314,6.204,1.059,7.164,0.314c0,0,0.27-4.096,0.38-5.262
			c0.112-1.163,0.65-3.984,0.829-4.365c0.179-0.38,2.35-3.426,2.44-3.828c0,0-1.124-1.79-1.93-1.813c0,0-1.281,1.5-1.697,1.566
			c-0.417,0.066-2.975-0.401-2.975-0.405c0,0-0.279,0.379-1.764-0.066c0,0-1.768,0.199-2.055,0.234
			c-0.348,0.046-2.77-0.304-2.77-0.304s-0.972,1.64-0.801,2.468L226.31,168.146z"/>
	</g>
</g>
<g>
	<g>
		<path fill="#E0CBAF" d="M222.034,160.386c0,0-0.219-1.038,0.045-1.336c0.151-0.169,0.511-0.619,0.544-0.684
			c0.033-0.065,0.42-0.288,0.42-0.396c0-0.107-0.379-0.238-0.709,0.065c-0.329,0.305-0.535,0.371-0.668,0.339
			c-0.131-0.034-0.321-1.13-0.337-1.401c-0.017-0.273-0.121-0.991-0.292-0.939c-0.171,0.048-0.162,0.361-0.162,0.361
			s-0.198-0.545-0.33-0.437c-0.133,0.107-0.116,0.371-0.116,0.371s-0.248-0.306-0.313-0.083c-0.066,0.223,0,0.42,0,0.42
			s-0.255-0.14-0.273,0.207c-0.016,0.347,0.075,1.36,0.256,1.724c0.182,0.363,0.86,1.313,0.942,1.682
			C221.122,160.65,222.034,160.386,222.034,160.386z"/>
	</g>
</g>
<g>
	<g>
		<path fill="#E0CBAF" d="M236.13,158.563c0,0-0.746-1.255-1-1.365c-0.253-0.112-0.612-0.175-0.925-0.4
			c-0.313-0.223-0.728-0.41-0.706-0.484c0.022-0.075,0.392-0.045,0.788,0.126c0.395,0.174,0.569,0.09,0.606,0
			c0.038-0.089-0.211-0.722-0.33-0.871c-0.12-0.148-0.971-1.004-0.828-1.132c0.141-0.127,0.693,0.345,0.783,0.441
			c0,0-0.439-0.926-0.268-0.972c0.172-0.044,0.492,0.285,0.492,0.285s-0.037-0.792,0.814,0.491c0,0-0.179-0.425,0.082-0.283
			c0.261,0.141,0.515,0.94,0.597,1.344c0.082,0.402,0.454,1.688,0.771,1.996C237.325,158.049,236.13,158.563,236.13,158.563z"/>
	</g>
</g>
<g>
	<g>
		<path fill="#353A3D" d="M233.223,163.515c0,0-0.393,0.035-1.229-0.253c-0.836-0.289-0.898-1.751-1.079-1.577
			c-0.37,0.354-0.716,0.108-0.857-0.1c0,0,0.409-0.537,0.219-0.796c-0.189-0.259-0.497-0.448-0.497-0.448s0.588-2.833,3.264-1.542
			C236.177,160.313,233.223,163.515,233.223,163.515z"/>
	</g>
</g>
<g>
	<g>
		<path fill="#254380" d="M230.214,165.023l0.095-0.41c0,0,1.707-0.034,2.638,0.101l0.099,0.489
			C233.046,165.203,231.853,165.745,230.214,165.023z"/>
	</g>
</g>
<g>
	<g>
		<path fill="#EEA886" d="M230.635,161.326c0.155-0.258,0.729-0.433,0.796,0.3c0.052,0.565-1.024,1.183-1.035,0.656
			C230.386,161.754,230.532,161.497,230.635,161.326z"/>
	</g>
</g>
<g>
	<g>
		<path fill="#E55353" d="M221.993,160.149c0,0-0.616,0.017-0.915,0.286c0,0-0.02,0.171,0.049,0.307c0,0,0.534-0.248,0.944-0.296
			C222.071,160.446,222.065,160.223,221.993,160.149z"/>
	</g>
</g>
<g>
	<g>
		<circle fill="#353A3D" cx="221.511" cy="160.407" r="0.265"/>
	</g>
</g>
<g>
	<polygon fill="#C7D5D2" points="238.792,205.428 222.058,205.428 227.332,221.626 226.838,221.786 221.343,204.909 
		239.168,204.909 244.612,221.626 244.119,221.786 	"/>
</g>
<g>
	<polygon fill="#C7D5D2" points="233.097,221.626 238.37,205.428 221.636,205.428 216.31,221.786 215.816,221.626 221.26,204.909 
		239.086,204.909 233.59,221.786 	"/>
</g>
<g>
	<rect x="219.867" y="210.009" fill="#C7D5D2" width="20.482" height="0.52"/>
</g>
<g>
	<rect x="217.953" y="215.642" fill="#C7D5D2" width="24.507" height="0.519"/>
</g>
<g>
	<path fill="#213A70" d="M295.342,201.954c0,0,0.111,0.91,0.259,1.31c0.148,0.402,0.951,1.327,0.612,2.218
		c-0.369,0.964-1.973,0.033-2.627-0.26c-0.654-0.294-0.506-0.828-0.575-1.481c-0.069-0.655-0.39-0.673-0.27-1.133
		c0.116-0.46,0.833-1.341,0.833-1.341L295.342,201.954z"/>
</g>
<g>
	<g>
		<path fill="#EEA886" d="M293.882,200.792c0,0-0.411,0.575-0.398,0.59c0.012,0.017,1.759,1.08,1.881,0.735
			c0.098-0.275,0.139-0.674,0.139-0.674L293.882,200.792z"/>
	</g>
</g>
<g>
	<path fill="#213A70" d="M287.957,202.598c0,0-0.533,0.467-1.014,1.185c-0.479,0.719-1.749,0.758-1.804,1.736
		c-0.055,0.982,1.729,1.012,2.664,0.692c0.938-0.318,1.078-1.275,1.643-1.516c0.566-0.239,0.861-0.434,0.815-0.9
		c-0.043-0.469-0.355-1.228-0.355-1.228s-0.352,0.114-0.559,0.138C289.141,202.726,288.446,202.734,287.957,202.598z"/>
</g>
<g>
	<path fill="#FAE6DE" d="M294.372,176.032c0,0-0.359,2.134-0.647,3.543l0,0c-0.118,0.57-0.225,1.023-0.29,1.165
		c-0.081,0.181-0.755,0.903-1.58,1.751c-1.444,1.489-3.356,3.364-3.356,3.364l-0.746-1.419c0,0,1.695-1.989,2.847-3.316
		c0.532-0.614,0.947-1.086,1.025-1.154c0.239-0.215,0.519-2.334,0.911-4.082c0.393-1.746,1.178-2.712,1.178-2.712L294.372,176.032z"
		/>
</g>
<g>
	<path fill="#E0CBAF" d="M291.854,182.491c-1.444,1.488-3.356,3.363-3.356,3.363l-0.746-1.419c0,0,1.695-1.989,2.847-3.315
		C290.951,181.293,291.599,181.706,291.854,182.491z"/>
</g>
<g>
	<path fill="#EEA886" d="M288.04,201.943l-0.083,0.654c0,0,0.928,0.328,1.95-0.03l0.021-0.579L288.04,201.943z"/>
</g>
<g>
	<path fill="#FAE6DE" d="M301.214,185.565c0.055,0.19-9.83,0-9.83,0s2.733-1.99,2.912-2.521c0.177-0.532-0.695-3.722-0.811-4.759
		c-0.091-0.83-0.318-4.547,0.229-5.113c0.572-0.593,2.633-1.216,2.633-1.216l3.005,0.112c0,0,0.494,0.104,0.849,0.268
		c0.354,0.166,2.383,0.888,2.711,1.9c0.327,1.013-2.021,4.269-2.021,4.269s-0.006,0.146-0.013,0.386l0,0
		c-0.009,0.319-0.022,0.806-0.033,1.333c-0.017,0.683-0.03,1.434-0.03,1.983C300.813,183.496,301.161,185.376,301.214,185.565z"/>
</g>
<g>
	<path fill="#323657" d="M301.214,185.565c0,0,1.345,1.976,1.364,3.323c0.019,1.349-2.386,5.863-2.75,6.509
		c-1.096,1.941-4.095,6.13-4.095,6.13s-0.516-0.014-2.131-0.64c0,0,1.996-5.533,2.249-6.107c1.074-2.436,1.672-4.162,1.313-4.58
		c-0.362-0.417-1.345-0.838-1.629-1.085c-0.286-0.247-5.246,0.938-5.766,1.072c-1.348,0.35-0.734,2.692-0.437,3.741
		c0.499,1.757,0.936,8.101,0.936,8.101s-0.959,0.408-2.566,0.064c0,0-3.151-11.456-3.253-12.595c-0.103-1.14-0.152-3.018,7.62-4.445
		L301.214,185.565z"/>
</g>
<g>
	<path fill="#E0CBAF" d="M297.171,165.431c0,0-2.608-0.589-2.013,2.693s1.223,3.539,2.797,2.86c1.572-0.68,1.433-2.781,1.511-3.812
		C299.545,166.142,298.002,165.466,297.171,165.431z"/>
</g>
<g>
	<path fill="#EEA886" d="M296.481,172.8c0,0,1.154,1.224,2.979,0.111c0,0-0.408-2.653-0.194-3.946
		c0.215-1.292-2.382,2.002-2.382,2.002c0.034,0.019,0.059,0.142,0.063,0.317c0.005,0.148-0.004,0.334-0.029,0.526
		C296.867,172.24,296.734,172.694,296.481,172.8z"/>
</g>
<g>
	<path fill="#3A3F47" d="M299.34,168.855c0,0-0.069-1.034-0.446-1.066c-0.377-0.033-0.437,0.385-0.437,0.385l-0.379,0.071
		c0,0,0.12-0.905-0.258-1.064c-0.376-0.158-2.443,0.499-2.746,0.232c-0.304-0.267-0.159-2.104,0.389-2.354
		c0.547-0.252,2.059-0.816,3.166-0.067c0,0,0.863-0.099,0.992,0.6C299.749,166.287,299.574,168.337,299.34,168.855z"/>
</g>
<g>
	<path fill="#A77860" d="M296.92,171.811c1.884-0.582,2.026-1.714,2.028-1.732c-0.621,1.065-1.999,1.206-1.999,1.206
		C296.953,171.433,296.944,171.618,296.92,171.811z"/>
</g>
<g>
	<path fill="#E0CBAF" d="M300.231,172.351c0,0-1.38,2.745-3.605,2.567c-2.229-0.177-0.381-2.936-0.279-2.962
		C296.458,171.929,298.631,171.388,300.231,172.351z"/>
</g>
<g>
	<path fill="#FAE6DE" d="M290.254,185.427c0,0,6.825,0.842,10.96,0.139l-7.9-0.986C293.313,184.579,293.268,184.781,290.254,185.427
		z"/>
</g>
<g>
	<path fill="#EEA886" d="M295.359,184.27l-0.509,0.256c0,0,0.115,0.809,0.394,1.053l0.571-0.146
		C295.815,185.432,295.697,184.546,295.359,184.27z"/>
</g>
<g>
	<path fill="#FAE6DE" d="M303.257,182.615c-0.102,0.117-1.444,0.656-2.958,1.24h-0.001c-2.07,0.797-4.406,1.553-4.406,1.553
		l-0.531-1.141c0,0,2.445-1.329,4.099-2.261c0.781-0.44,1.386-0.792,1.472-0.874c0.265-0.252,0.334-0.659,0.139-1.366
		c-0.195-0.709-0.646-3.963-0.696-4.344c-0.05-0.379,0.126-1.391,1.076-1.441c0.949-0.049,1.434,0.217,1.434,0.217
		s0.237,0.1,0.414,2.404C303.473,178.905,303.498,182.336,303.257,182.615z"/>
</g>
<g>
	<path fill="#968A86" d="M300.877,178.89L300.877,178.89c-0.01,0.32-0.022,0.807-0.035,1.333c-0.926-2.271-0.391-4.084-0.383-4.114
		C300.359,176.725,300.869,178.86,300.877,178.89z"/>
</g>
<g>
	<path fill="#968A86" d="M293.725,179.575L293.725,179.575c-0.118,0.57-0.225,1.023-0.29,1.165c-0.316-1.53-0.03-3.491-0.03-3.491
		C293.447,178.185,293.725,179.575,293.725,179.575z"/>
</g>
<g>
	<path fill="#E0CBAF" d="M300.298,183.855L300.298,183.855c-2.072,0.797-4.482,1.576-4.482,1.576l-0.456-1.162
		c0,0,2.446-1.33,4.099-2.263C299.458,182.007,300.06,182.299,300.298,183.855z"/>
</g>
<g>
	<polygon fill="#807571" points="295.212,185.501 285.51,185.357 290.408,187.845 	"/>
</g>
<g>
	<polygon fill="#DBCAC2" points="290.408,187.845 295.212,185.983 295.212,185.501 290.028,187.369 	"/>
</g>
<g>
	<g>
		<path fill="#E0CBAF" d="M294.96,184.543c0,0-0.605-0.095-1.025-0.19c-0.324-0.076-1.13,0.027-1.335,0.235
			s-0.857,1.657-0.981,1.746c-0.124,0.088,0.063,0.293,0.279,0.19c0,0,0.199,0.634,0.691,0.396c0.491-0.238,0.824-0.756,1.083-0.847
			c0.257-0.092,1.755-0.551,1.755-0.551S295.347,184.389,294.96,184.543z"/>
	</g>
</g>
<g>
	<g>
		<path fill="#EEA886" d="M292.749,184.492c0,0-0.39,0.189-0.491,0.272c-0.103,0.083-0.514,0.392-0.613,0.465
			c-0.101,0.072,0.15,0.278,0.888-0.04C293.268,184.87,292.749,184.492,292.749,184.492z"/>
	</g>
</g>
<g>
	<polygon fill="#DBCAC2" points="290.408,187.845 287.523,179.966 278.221,180.117 280.972,187.379 	"/>
</g>
<g>
	
		<ellipse transform="matrix(-0.8942 0.4477 -0.4477 -0.8942 619.9542 221.0575)" fill="#B0A29C" cx="283.853" cy="183.795" rx="0.79" ry="1.148"/>
</g>
<g>
	<path fill="#EEA886" d="M298.467,167.735c0.034-0.29,0.605-0.396,0.652,0.038c0.046,0.435-0.261,1.195-0.478,1.121
		C298.424,168.819,298.419,168.135,298.467,167.735z"/>
</g>
<path fill="#B3D2F2" d="M199.367,221.889h-47.496c-1.914,0-3.466-1.551-3.466-3.466v-5.626c0-1.914,1.552-3.466,3.466-3.466h47.496
	V221.889z"/>
<path fill="#5D81A5" d="M207.524,210.624v9.974h0.833v1.291H173.93c-1.914,0-3.466-1.551-3.466-3.465v-5.626
	c0-1.915,1.552-3.466,3.466-3.466h34.427v1.291L207.524,210.624L207.524,210.624z"/>
<path fill="#FDFCF1" d="M207.523,220.596h-31.051c-1.914,0-3.466-1.552-3.466-3.465v-3.041c0-1.915,1.552-3.467,3.466-3.467h31.052
	L207.523,220.596L207.523,220.596z"/>
<path fill="#5D81A5" d="M201.586,209.331H149.59c-2.405,0-4.355-1.95-4.355-4.354v-5.895c0-2.404,1.95-4.354,4.355-4.354h51.996
	V209.331z"/>
<path fill="#46607E" d="M210.81,196.23v11.598h0.717v1.503h-28.279c-2.405,0-4.355-1.95-4.355-4.354v-5.895
	c0-2.404,1.95-4.354,4.355-4.354h28.279v1.503H210.81z"/>
<path fill="#FDFCF1" d="M210.809,207.828h-25.373c-2.405,0-4.355-1.95-4.355-4.355v-2.888c0-2.403,1.95-4.354,4.355-4.354h25.373
	L210.809,207.828L210.809,207.828z"/>
<path fill="#98B9E2" d="M164.125,194.725h39.519c2.603,0,4.712-2.11,4.712-4.713v-8.479c0-2.603-2.109-4.712-4.712-4.712h-39.519
	V194.725z"/>
<path fill="#88B3E2" d="M157.045,178.664v14.219h-0.723v1.843h28.175c2.603,0,4.712-2.11,4.712-4.713v-8.479
	c0-2.603-2.109-4.712-4.712-4.712h-28.175v1.843H157.045z"/>
<path fill="#FDFCF1" d="M157.047,192.881h24.915c2.587,0,4.685-2.097,4.685-4.684v-4.849c0-2.588-2.097-4.686-4.685-4.686h-24.915
	V192.881z"/>
<path fill="#5D81A5" d="M193.719,176.816h-41.904c-2.737,0-4.955-2.219-4.955-4.954v-7.997c0-2.735,2.218-4.953,4.955-4.953h41.904
	V176.816z"/>
<path fill="#46607E" d="M201.219,160.756v14.219h0.765v1.843h-29.887c-2.736,0-4.954-2.218-4.954-4.954v-7.997
	c0-2.735,2.217-4.954,4.954-4.954h29.887v1.844H201.219L201.219,160.756z"/>
<path fill="#FDFCF1" d="M201.218,174.974h-26.541c-2.725,0-4.933-2.21-4.933-4.934v-4.353c0-2.725,2.208-4.933,4.933-4.933h26.541
	V174.974z"/>
<path fill="#5D81A5" d="M205.538,158.906h-43.783c-1.699,0-3.075-1.376-3.075-3.074v-7.398c0-1.699,1.376-3.076,3.075-3.076h43.783
	V158.906z"/>
<path fill="#46607E" d="M213.038,146.752v10.761h0.766v1.396h-31.766c-1.698,0-3.075-1.377-3.075-3.076v-7.398
	c0-1.698,1.377-3.075,3.075-3.075h31.766v1.394H213.038z"/>
<path fill="#FDFCF1" d="M213.037,157.512h-28.663c-1.699,0-3.076-1.377-3.076-3.075v-4.609c0-1.697,1.377-3.075,3.076-3.075h28.663
	V157.512L213.037,157.512z"/>
</svg>
