<?xml version="1.0" encoding="utf-8"?>
<!-- Generator: Adobe Illustrator 16.0.0, SVG Export Plug-In . SVG Version: 6.00 Build 0)  -->
<!DOCTYPE svg PUBLIC "-//W3C//DTD SVG 1.1//EN" "http://www.w3.org/Graphics/SVG/1.1/DTD/svg11.dtd">
<svg version="1.1" xmlns="http://www.w3.org/2000/svg" xmlns:xlink="http://www.w3.org/1999/xlink" x="0px" y="0px" width="200px"
	 height="152px" viewBox="0 0 200 152" enable-background="new 0 0 200 152" xml:space="preserve">
<g id="background">
</g>
<g id="shadow">
	<path opacity="0.12" fill="#606060" d="M194.553,133.373c-14.736-8.098-66.313-3.238-66.313-3.238
		c-3.681,0.494-6.854,0.986-9.571,1.47c0,0-14.928,2.375-22.112,1.363c-5.749-0.81-21.524-1.878-29.863,0.216
		c-2.78-0.658-6.629-1.337-11.763-2.029c0,0-39.479-3.717-50.758,2.48s24.533,7.438,34.825,7.902
		c4.923,0.223,18.778-0.796,27.115-2.563c6.499,1.243,18.348,1.049,24.733,0.271c9.944-1.215,14.937,0.063,26.158,1.752
		c10.938,1.905,26.246,2.962,32.05,2.7C162.501,143.09,209.288,141.47,194.553,133.373z"/>
</g>
<g id="object">
	<polygon fill="#8F9DC9" points="120.793,44.662 110.314,52.563 101.445,54.174 101.445,57.398 114.453,56.364 126.437,50.144 
		124.179,43.438 	"/>
	<g>
		<polygon fill="#514943" points="124.479,131.516 124.635,133.064 121.828,134.994 120.188,133.637 121.514,131.898 
			124.321,129.969 		"/>
		<polygon fill="#CAB5A1" points="124.408,84.191 124.884,88.891 120.674,105.043 124.583,130.996 121.705,131.99 114.116,106.651 
			112.912,99.279 112.957,83.675 		"/>
	</g>
	<g>
		<polygon fill="#CAB5A1" points="102.273,89.43 108.327,132.92 111.079,132.92 111.574,105.043 116.582,85.477 		"/>
		<polygon fill="#514943" points="111.063,132.576 111.063,134.138 108.088,135.7 106.6,134.138 108.088,132.576 		"/>
	</g>
	<path fill="#A6B1DA" d="M126.326,82.662c2.221-15.461,6.28-25.984,7.057-28.975c0.777-2.992-0.832-5.153-0.834-5.154
		c-0.848-0.477-1.463-1.304-2.313-1.813c-5.748-3.445-10.576,0.277-14.453,4.695c-4.776,5.443-9.159,11.236-13.119,17.299
		c-3.476,5.32-6.971,10.693-9.52,16.535c-1.053,2.41-2.017,4.707,0.387,6.638c3.831,3.077,8.744,4.521,13.18,6.479
		c5.096,2.247,10.252,4.322,15.513,6.155C124.971,105.479,124.104,98.125,126.326,82.662z"/>
	<path fill="#383838" d="M131.436,33.831c0,0,1.501,1.154,0.945,5.587c-0.557,4.432-0.055,7.315-0.055,7.315
		s-1.496,0.735-2.619,0.078c-1.125-0.656-1.543-0.781-1.184-2.586s0.93-10.377,0.93-10.377L131.436,33.831z"/>
	<path fill="#383838" d="M127.849,35.431c1.687,0.408,3.054,1.92,3.288,3.644c0.891-0.882,1.318-2.207,1.112-3.443
		c-0.206-1.237-1.04-2.352-2.167-2.896c-1.021,0.583-1.798,1.584-2.109,2.72L127.849,35.431z"/>
	<path fill="#EACDB0" d="M131.322,37.575c-1.004-4.55-6.688-3.587-8.213,0.167c-0.866,2.136-0.526,6.247,2.116,6.858
		c0.052,0.403,0.127,1.161,0.444,1.422c0.344,0.284,1.391-0.028,1.801-0.136c0.113-0.03,0.232-0.067,0.313-0.153
		c0.102-0.107,0.11-0.387,0.103-0.698c0.304-0.03,0.612-0.099,0.925-0.212c1.316-0.477,2.24-1.736,2.598-3.09
		C131.764,40.381,131.624,38.943,131.322,37.575z"/>
	<path fill="#383838" d="M129.971,32.728c0,0,0.627,2.465-2.523,3.25c-3.148,0.785-5.135,3.328-4.508,5.932
		c0.625,2.603,3.027,4.462,1.808,5.189c-1.22,0.727-5.791,0.174-5.791,0.174s-3.036-9.153,0.567-13.264
		C123.125,29.898,128.498,29.599,129.971,32.728z"/>
	<rect x="27.368" y="19.796" fill="#465F7D" width="87.872" height="117.263"/>
	<polygon opacity="0.26" points="33.924,132.021 35.239,132.021 112.838,134.428 110.809,23.53 107.203,24.567 	"/>
	<rect x="31.799" y="23.53" fill="#FFFFF1" width="79.009" height="108.49"/>
	<g>
		<g>
			<path fill="#C4D3D3" d="M81.428,13.214h-0.532v-0.359c0-3.382-3.149-6.124-7.034-6.124h-5.116c-3.884,0-7.033,2.742-7.033,6.124
				v0.359H61.18c-3.884,0-7.033,2.741-7.033,6.123v6.842h34.314v-6.842C88.461,15.955,85.312,13.214,81.428,13.214z M75.824,13.354
				h-9.041c-0.924,0-1.68-0.756-1.68-1.68s0.756-1.68,1.68-1.68h9.041c0.924,0,1.68,0.756,1.68,1.68S76.748,13.354,75.824,13.354z"
				/>
		</g>
		<rect x="54.147" y="22.957" opacity="0.12" width="34.314" height="3.222"/>
	</g>
	<g>
		<rect x="42.097" y="63.18" fill="#CDCED0" width="59.374" height="1.596"/>
		<rect x="42.097" y="74.953" fill="#CDCED0" width="59.374" height="1.598"/>
		<rect x="42.097" y="86.729" fill="#CDCED0" width="59.374" height="1.597"/>
		<rect x="42.097" y="98.504" fill="#CDCED0" width="59.374" height="1.596"/>
	</g>
	<rect x="42.044" y="122.379" fill="#CDCED0" width="21.826" height="0.564"/>
	<path fill="#CDCED0" d="M94.555,112.358c-1.055-0.394-2.223-0.294-3.197,0.206c-0.146-0.076-0.296-0.146-0.455-0.206
		c-1.578-0.588-3.41-0.075-4.465,1.232c-1.03,1.278-1.167,3.108-0.329,4.521c0.851,1.437,2.536,2.177,4.169,1.876
		c0.389-0.072,0.753-0.2,1.087-0.377c0.775,0.395,1.678,0.541,2.565,0.377c1.876-0.344,3.186-2.026,3.225-3.9
		C97.121,114.431,96.122,112.943,94.555,112.358z M90.665,119.218c-1.301,0.468-2.787,0.073-3.681-0.981
		c-0.907-1.071-1.034-2.645-0.318-3.85c0.712-1.199,2.143-1.84,3.513-1.567c0.186,0.038,0.365,0.092,0.536,0.157
		c-0.229,0.179-0.438,0.385-0.625,0.614c-1.03,1.278-1.167,3.108-0.329,4.521c0.252,0.426,0.579,0.79,0.955,1.085
		C90.699,119.205,90.682,119.211,90.665,119.218z M92.858,116.088c-0.023,1.127-0.582,2.172-1.5,2.781
		c-0.267-0.172-0.512-0.384-0.724-0.633c-0.907-1.071-1.033-2.645-0.317-3.85c0.262-0.441,0.622-0.806,1.039-1.078
		C92.263,113.914,92.835,114.951,92.858,116.088z M94.316,119.218c-0.76,0.274-1.584,0.251-2.316-0.025
		c0.912-0.741,1.478-1.882,1.502-3.104c-0.024-1.229-0.581-2.362-1.504-3.105c0.575-0.221,1.21-0.286,1.833-0.163
		c1.563,0.313,2.647,1.694,2.679,3.269C96.482,117.475,95.641,118.742,94.316,119.218z"/>
	<path fill="#727171" d="M157.179,21.781c0,0,1.409,0.137,2.234,1.169c0.826,1.033,3.438,5.713,3.409,9.347
		c-0.029,3.632,0.531,8.146-6.654,11.293c-3.578,1.168-3.658-2.038-6.52-2.232c-2.863-0.194-5.336,0.805-4.945-3.645
		c0.393-4.449,3.201-5.452,4.758-10.419C151.02,22.327,153.472,20.321,157.179,21.781z"/>
	<polygon fill="#727171" points="158.212,22.068 164.576,24.221 169.383,24.918 169.312,27.004 164.623,27.662 159.582,26.668 	"/>
	<polygon fill="#727171" points="152.268,21.505 147.625,23.187 143.729,21.809 143.125,23.114 146.799,25.778 150.474,26.028 	"/>
	<path fill="#4C4C4C" d="M153.449,12.558c0,0-2.908,1.916-2.643,4.81c0,0-1.906-1.529-1.09-3.658
		c0.816-2.128,1.361-2.967,3.377-2.517C155.109,11.642,153.449,12.558,153.449,12.558z"/>
	<path fill="#EACDB0" d="M150.836,15.754c0.353-4.311,5.702-4.137,7.576-0.874c1.065,1.855,1.266,5.681-1.087,6.573
		c0.003,0.378,0.028,1.084-0.231,1.365c-0.281,0.304-1.281,0.148-1.672,0.1c-0.109-0.013-0.224-0.032-0.309-0.101
		c-0.106-0.086-0.15-0.343-0.182-0.629c-0.283,0.01-0.575-0.014-0.877-0.08c-1.27-0.273-2.277-1.317-2.776-2.518
		C150.781,18.391,150.73,17.051,150.836,15.754z"/>
	<path fill="#4C4C4C" d="M152.77,13.693c1.499,1.572,3.874,1.673,5.301,3.199c0,0,0.935,0.999,0.695,3.378
		c0,0,2.49,0.105,3.584-2.378c1.091-2.483-1.423-7.377-1.423-7.377s-2.95-2.144-6.817-1.235c-1.311,0.309-2.493,1.298-2.207,2.792
		C152.024,12.711,152.342,13.245,152.77,13.693z"/>
	<path fill="#999999" d="M158.263,22.121c0,0,0.294,2.18-0.86,2.427c-1.154,0.247-3.818-0.239-4.276-0.639
		c-0.636-0.553-0.002-2.157-0.002-2.157l-0.856-0.246c0,0-3.963,8.091-0.771,9.306c3.193,1.215,7.232,1.559,7.895-0.997
		c0.66-2.557-0.283-7.345-0.283-7.345L158.263,22.121z"/>
	<polygon fill="#EACDB0" points="169.376,25.144 171.728,24.59 171.834,25.085 170.23,26.463 170.631,26.722 170.336,26.957 
		169.322,26.698 	"/>
	<polygon fill="#EACDB0" points="143.673,21.978 143.066,21.229 141.875,21.311 141.559,22.242 142.1,23.161 143.129,23.05 	"/>
	<g>
		<g>
			<polygon fill="#8C9498" points="134.24,75.893 133.652,100.959 137.994,133.342 141.626,133.385 144.275,103.585 149.601,73.816 
							"/>
			<polygon fill="#3A3029" points="141.611,132.951 141.588,134.916 137.635,136.834 135.695,134.846 137.683,132.906 			"/>
		</g>
		<polygon fill="#3A3029" points="153.973,133.898 150.849,136.553 151.629,138.115 157.408,136.866 157.408,133.898 		"/>
		<polygon fill="#8C9498" points="146.838,85.753 149.434,110.052 152.859,134.271 157.746,134.037 157.568,108.913 160.51,85.609 
			153.602,82.391 		"/>
	</g>
	<path fill="#465F7D" d="M143.957,41.084c-0.002,0-6.033,3.991-9.869,16.931c-3.904,13.177-3.328,30.61-3.328,30.61
		s34.322,5.809,33.611,0.092c0,0,1.133-46.174-14.096-47.308C149.582,41.357,144.331,40.797,143.957,41.084z"/>
	<path fill="#FFFFFF" d="M145.416,42.38c-2.59,6.313-4.531,12.268-7.191,18.551c-1.576,3.723-1.593,7.613-1.817,11.577
		c-0.224,3.943-0.448,7.886-0.671,11.829c-0.096,1.666-0.189,3.332-0.285,4.997l14.346,1.507c-0.826-4.777-1.771-9.533-2.508-14.324
		c-0.682-4.418-1.725-9.379-0.912-13.834c0.396-2.168,0.822-4.334,1.229-6.502c0.745-3.977,1.079-8.047,1.858-12.018
		c0.055-0.278-0.559-1.829-0.646-2.106L145.416,42.38z"/>
	<g>
		<path fill="#EACDB0" d="M149.439,42.115l-0.006,0.746l3.909,9.183l1.729-0.572l-1.014-8.938l-2.689-1.527
			C150.514,40.521,149.452,41.131,149.439,42.115z"/>
		<polygon fill="#3A3029" points="153.115,51.939 152.18,53.619 152.911,54.042 155.195,52.519 155.042,51.3 		"/>
	</g>
	<g>
		<path fill="#E0C5A9" d="M141.992,39.21l-0.449,0.596l-2.303,9.712l1.73,0.566l4.49-7.796l-1.26-2.826
			C143.801,38.564,142.584,38.426,141.992,39.21z"/>
		<polygon fill="#3A3029" points="139.119,49.46 137.369,50.258 137.705,51.032 140.449,51.162 141.05,50.091 		"/>
	</g>
	<g>
		<path fill="#EACDB0" d="M145.475,42.621c1.118-0.18,2.236-0.359,3.354-0.539c-0.044-0.903-0.16-1.801-0.346-2.684
			c0.917-0.387,1.971-0.947,2.073-1.938c0.034-0.312-0.038-0.625-0.11-0.93c-0.299-1.261-0.596-2.523-0.895-3.785
			c-0.104-0.437-0.211-0.885-0.475-1.248c-0.461-0.638-1.295-0.878-2.076-0.965c-1.996-0.223-4.121,0.336-5.574,1.722
			c-0.386,0.369-0.729,0.805-0.879,1.317c-0.229,0.792,0.029,1.633,0.287,2.416c0.236,0.723,0.475,1.445,0.711,2.167
			c0.273,0.831,0.652,1.772,1.485,2.039c0.441,0.142,0.948,0.062,1.355,0.287C145.102,40.876,145.072,41.907,145.475,42.621z"/>
		<path fill="#3A3029" d="M133.693,30.559c-0.076-0.873-0.008-1.766,0.117-2.573c0.215-1.389,1.793-2.105,3.186-2.289
			c3.01-0.397,5.84-1.948,8.855-1.074c1.725,0.5,3.999,0.504,5.578,1.261c0.66,0.315,1.201,0.84,1.637,1.429
			c1.504,2.039,1.688,4.966,0.455,7.18c-0.277,0.496-0.617,0.956-0.977,1.395c-0.744,0.912-1.631,2.037-2.707,2.423
			c-0.086-0.978,0.619-4.122-0.182-4.879c-1.271-1.201-3.945-0.593-5.408-0.189c-1.594,0.44-2.965,1.672-4.551,2.014
			c-1.143,0.246-2.648-0.229-3.664-0.766C134.439,33.65,133.832,32.136,133.693,30.559z"/>
	</g>
	<polygon fill="#465F7D" points="154.002,42.542 171.822,53.56 168.096,59.553 157.08,54.369 	"/>
	<polygon fill="#537291" points="159.723,37.922 171.85,53.563 168.096,59.592 163.885,57.609 157.019,39.882 	"/>
	<polygon fill="#EACDB0" points="159.188,38.31 157.566,36.224 153.678,35.576 153.029,37.196 154.974,38.816 157.435,39.582 	"/>
	<polygon fill="#8F9DC9" points="134.027,49.861 131.072,68.311 117.022,78.102 114.71,75.592 125.23,65.678 126.572,50.705 
		130.731,47.083 	"/>
	<polygon fill="#EACDB0" points="115.162,75.732 112.318,78.26 112.26,80.887 113.336,81.275 115.18,80.096 116.723,77.529 	"/>
	<polygon fill="#2E4661" points="135.02,117.854 135.02,135.802 132.313,135.802 130.617,124.965 129.094,116.668 	"/>
	<polygon fill="#2E4661" points="129.094,115.99 128.078,123.779 126.725,136.309 124.015,136.141 124.015,126.488 122.659,116.668 
			"/>
	<path fill="#8BBCE5" d="M130.364,89.828c0,0,2.878-0.508,4.063,3.896s4.402,17.271,4.572,24.044
		c0.17,6.773-4.234,2.371-9.482,3.217c-5.25,0.847-9.567,0.934-9.567-2.115C119.95,115.822,118.088,89.913,130.364,89.828z"/>
	<g>
		<g>
			<path fill="#EACDB0" d="M130.483,80.77c-2.957-3.857-7.905-0.437-7.688,3.787c0.123,2.4,2.262,6.136,5.028,5.547
				c0.228,0.357,0.634,1.042,1.048,1.148c0.451,0.115,1.303-0.641,1.643-0.924c0.095-0.08,0.191-0.166,0.229-0.283
				c0.047-0.146-0.066-0.416-0.211-0.705c0.273-0.162,0.535-0.363,0.779-0.608c1.033-1.031,1.351-2.63,1.09-4.067
				C132.141,83.227,131.373,81.93,130.483,80.77z"/>
		</g>
		<path fill="#5C3C30" d="M127.017,80.144c0,0-3.667,1.479-3.446,3.062c0.332,2.381,0.395,4,0.751,5.393l-2.913-1.218l-2.201-4.212
			c0,0-0.189-3.686,1.622-4.584s5.681-2.082,5.681-2.082l3.141,0.531l2.195-0.467l0.16,6.756
			C132.006,83.322,130.367,78.709,127.017,80.144z"/>
	</g>
	<polygon fill="#8C9498" points="135.02,135.802 136.545,137.324 135.867,138.342 132.82,137.324 132.82,135.802 	"/>
	<polygon fill="#8C9498" points="126.271,136.281 125.707,138.512 123.846,139.188 122.828,138.68 124.406,136.164 	"/>
	<polygon fill="#8BBCE5" points="128.146,90.18 125.219,90.831 119.527,99.286 116.273,107.907 118.552,108.557 122.617,101.076 	
		"/>
	<polygon fill="#EACDB0" points="116.597,107.999 116.438,110.184 117.412,110.508 117.9,109.209 118.227,109.533 118.387,108.51 	
		"/>
	<polygon fill="#8BBCE5" points="132.623,90.559 137.89,95.672 141.609,91.488 143.003,93.658 137.734,101.405 132.777,97.996 	"/>
	<path fill="#083C5B" stroke="#26326C" stroke-miterlimit="10" d="M183.768,89.799c-12.543-1.18-16.772-8.52-17.32-9.58
		c0,0,0.01-0.086-0.033-0.063c-0.021-0.043-0.063,0.033-0.063,0.033c-1.059,0.55-8.744,4.114-19.676-2.146
		c0,0-8.495,20.546-4.383,31.329c4.394,11.517,9.678,16.252,9.717,16.239c0.023,0.034,7.109-0.725,17.297-7.68
		C178.837,111.426,183.768,89.799,183.768,89.799z"/>
	<path fill="#8BBCE5" stroke="#26326C" stroke-miterlimit="10" d="M181.361,91.426c-11.367-1.112-15.235-7.681-15.736-8.629
		c0,0,0.006-0.076-0.029-0.056c-0.021-0.038-0.058,0.029-0.058,0.029c-0.956,0.485-7.901,3.628-17.835-2.01
		c0,0-7.593,18.28-3.814,27.918c4.035,10.293,8.682,15.044,8.717,15.032c0.021,0.03,6.603-1.112,15.795-7.264
		C177.003,110.689,181.361,91.426,181.361,91.426z"/>
	<g opacity="0.06">
		<path d="M164.947,84.622c0,0,0.039-0.069,0.06-0.03c0.038-0.021,0.03,0.059,0.03,0.059c0.516,0.973,4.422,7.605,15.799,8.963
			c0.555-1.933,0.833-3.164,0.833-3.164c-11.368-1.112-15.235-7.682-15.737-8.629c0,0,0.008-0.076-0.03-0.057
			c-0.019-0.039-0.057,0.028-0.057,0.028c-0.956,0.486-7.899,3.628-17.835-2.01c0,0-0.483,1.167-1.146,3.063
			C156.949,88.294,163.966,85.12,164.947,84.622z"/>
	</g>
	<path opacity="0.34" fill="#FFFFFF" d="M176.549,95.649c-8.6-0.808-12.396-6.337-12.771-7.063c0,0,0.007-0.059-0.023-0.044
		c-0.014-0.028-0.042,0.022-0.042,0.022c-0.727,0.379-6.96,2.717-14.456-1.574c0,0-4.857,14.191-2.037,21.584
		c3.01,7.895,6.635,11.143,6.66,11.133c0.018,0.023,4.874-0.497,11.858-5.266C172.271,109.981,176.549,95.649,176.549,95.649z"/>
	<polygon fill="#EACDB0" points="140.988,92.573 140.524,90.403 141.613,89.811 143.177,90.713 143.003,91.217 142.229,91.18 
		141.919,91.023 	"/>
	<text transform="matrix(1 0 0 1 41.6665 42.0698)"><tspan x="0" y="0" fill="#083C5B" font-family="'MyriadPro-Regular'" font-size="8.9241">FAMILY</tspan><tspan x="0" y="10.709" fill="#083C5B" font-family="'MyriadPro-Regular'" font-size="8.9241">INFORMATION</tspan></text>
</g>
</svg>
