<?xml version="1.0" encoding="utf-8"?>
<!-- Generator: Adobe Illustrator 16.0.0, SVG Export Plug-In . SVG Version: 6.00 Build 0)  -->
<!DOCTYPE svg PUBLIC "-//W3C//DTD SVG 1.1//EN" "http://www.w3.org/Graphics/SVG/1.1/DTD/svg11.dtd">
<svg version="1.1" id="Layer_1" xmlns="http://www.w3.org/2000/svg" xmlns:xlink="http://www.w3.org/1999/xlink" x="0px" y="0px"
	 width="200px" height="107.664px" viewBox="0 0 200 107.664" enable-background="new 0 0 200 107.664" xml:space="preserve">
<path fill-rule="evenodd" clip-rule="evenodd" fill="#354859" d="M47.444,6.524h85.225c1.972,0,3.583,1.613,3.583,3.585v58.192
	c0,1.972-1.611,3.586-3.583,3.586H47.444c-1.975,0-3.586-1.614-3.586-3.586V10.109C43.858,8.137,45.469,6.524,47.444,6.524z"/>
<path fill-rule="evenodd" clip-rule="evenodd" fill="#354859" d="M47.236,6.522h85.639c0.976,0,1.858,0.446,2.478,1.156
	L44.81,70.792c-0.589-0.646-0.952-1.526-0.952-2.491V10.107C43.858,8.135,45.377,6.522,47.236,6.522z"/>
<rect x="51.337" y="12.101" transform="matrix(-1 8.701403e-004 -8.701403e-004 -1 180.1444 78.3308)" fill-rule="evenodd" clip-rule="evenodd" fill="#CDE1E6" width="77.437" height="54.208"/>
<polygon fill-rule="evenodd" clip-rule="evenodd" fill="#E8F7FA" points="51.36,66.342 128.75,12.067 51.314,12.135 "/>
<circle fill-rule="evenodd" clip-rule="evenodd" fill="#EBFCFF" cx="90.055" cy="9.218" r="1.955"/>
<path fill-rule="evenodd" clip-rule="evenodd" fill="#A6B1DA" d="M89.863,18.542c11.329,0,20.512,9.185,20.512,20.513
	s-9.184,20.513-20.512,20.513s-20.512-9.185-20.512-20.513c0-0.083,0.002-0.165,0.003-0.248h20.283V18.544
	C89.711,18.544,89.787,18.542,89.863,18.542z"/>
<path fill-rule="evenodd" clip-rule="evenodd" fill="#8BBBE5" d="M67.311,37.001c0.132-11.14,9.142-20.142,20.283-20.262v20.262
	H67.311z"/>
<path fill-rule="evenodd" clip-rule="evenodd" fill="#FFDBA7" d="M100.86,39.707l0.141,0.003c0.138-0.956,1.074-1.7,2.201-1.7h0.176
	c1.157,0,2.113,0.783,2.214,1.771l0.148,0.002c0.075-1.009,1.042-1.813,2.214-1.813h0.178c1.206,0,2.195,0.854,2.222,1.902
	l0.177,0.021v-0.039c0-0.781,0.729-1.419,1.623-1.419h0.129c0.894,0,1.623,0.642,1.623,1.419v6.821l-0.004,0.095l0.139,8.058
	c0.033,2.045-1.366,4.128-3.022,5.508l-1.122,0.937l-1.849,10.54H96.678l1.887-10.762c-1.574-0.483-2.589-1.91-2.912-3.549
	l-1.413-7.165c-0.481-0.813-0.302-1.855,0.489-2.487l1.559-1.247l-0.056-3.148c-0.001-0.123,0-0.245,0.007-0.368V28.664
	c0-1.22,0.999-2.221,2.221-2.221h0.176c1.223,0,2.223,1.001,2.223,2.221V39.707z"/>
<polygon fill-rule="evenodd" clip-rule="evenodd" fill="#405868" points="111.402,62.681 95.209,62.625 81.642,104.43 98.3,104.43 
	"/>
<path fill-rule="evenodd" clip-rule="evenodd" fill="#FFDBA7" d="M63.631,66.15c1.489,3.948,11.664,7.685,16.188,7.488
	c12.575-0.546,15.354,1.041,15.899,12.431c0.022,0.483,0.052,1.902,0.082,3.853c-6.006,6.389-13.366,11.49-21.62,14.847H27.932
	c-7.564-3.077-14.377-7.618-20.086-13.273c-0.006-2.451-0.004-4.271,0.018-4.803c0.476-11.955,3.126-13.608,15.927-13.054
	c3.942,0.173,13.827-4.535,14.903-7.488c1.092-3.005,1.141-7.712,0.446-10.816l12.023,0.231l12.023-0.231
	C62.491,58.438,62.503,63.159,63.631,66.15z"/>
<path fill-rule="evenodd" clip-rule="evenodd" fill="#FFDBA7" d="M37.133,45.846l0.695-8.292c-1.23-1.211-2.115-2.01-2.756-3.005
	c-1.763-2.735-2.869-3.365-3.941-2.566c-0.433,0.322-0.588,1.349-0.333,2.637c0.444,2.252,1.865,5.608,2.311,7.58
	C33.467,43.787,35.542,49.22,37.133,45.846z"/>
<path fill-rule="evenodd" clip-rule="evenodd" fill="#FFDBA7" d="M64.939,45.846l-0.695-8.292c1.232-1.211,2.113-2.01,2.756-3.005
	c1.761-2.735,2.869-3.365,3.941-2.566c0.434,0.322,0.587,1.349,0.333,2.637c-0.442,2.252-1.865,5.608-2.311,7.58
	C68.606,43.787,66.53,49.22,64.939,45.846z"/>
<path fill-rule="evenodd" clip-rule="evenodd" fill="#FFDBA7" d="M51.35,62.548c-0.069,0.006-0.137,0.006-0.204,0.006
	c-2.499,0.018-3.742-0.023-5.099-0.596c-1.312-0.56-1.948-1.848-3.754-3.586c-1.536-1.478-4.291-2.985-4.963-4.597
	c-0.918-2.207-0.558-4.637-1.129-8.061c-0.458-2.73-1.741-5.152-1.891-7.885c-0.158-2.952,0.317-5.922,0.215-9.256
	c-0.098-3.259-0.191-5.958,0.209-8.249c0.404-2.309,1.31-4.226,3.191-5.908l0,0c0,0,0,0,0-0.006
	c1.042-0.924,2.224-1.711,3.509-2.359c0.013-0.006,0.026-0.012,0.041-0.017c0.083-0.037,0.17-0.08,0.254-0.124
	c0.048-0.022,0.095-0.043,0.143-0.068c0.066-0.034,0.137-0.065,0.202-0.094c0.067-0.027,0.132-0.059,0.199-0.086
	c0.074-0.037,0.146-0.065,0.216-0.091c0.063-0.034,0.124-0.06,0.19-0.087c0.091-0.037,0.182-0.076,0.276-0.107
	c0.041-0.018,0.087-0.039,0.132-0.055c0.133-0.053,0.272-0.104,0.409-0.151c0,0,0,0,0.004-0.006
	c3.422-1.241,7.306-1.587,10.986-1.042c3.667,0.542,7.123,1.974,9.689,4.265c1.875,1.682,2.772,3.585,3.176,5.886
	c0.402,2.279,0.32,4.969,0.228,8.215c-0.097,3.33,0.385,6.286,0.229,9.228c-0.146,2.72-1.426,5.144-1.871,7.867
	c-0.561,3.416-0.202,5.829-1.111,8.044c-0.67,1.616-3.404,3.145-4.93,4.638c-1.796,1.759-2.429,3.05-3.733,3.628
	C54.857,62.462,53.659,62.54,51.35,62.548z"/>
<path fill-rule="evenodd" clip-rule="evenodd" fill="#354859" d="M81.486,73.638c12.562-0.507,16.008,0.836,16.888,10.241
	c0.035,0.38,0.052,15.379,0.054,20.889H74.181H27.932H3.667c0.015-5.476,0.039-20.516,0.074-20.889
	c0.88-9.405,4.326-10.748,16.888-10.241c3.438,0.14,16.653-3.611,18.064-7.488c0.398-1.098,0.659-2.427,0.794-3.819
	c1.485-1.718,22.688-1.37,23.327-0.059c0.133,1.416,0.398,2.767,0.816,3.878C65.235,70.404,77.673,73.794,81.486,73.638z"/>
<path fill-rule="evenodd" clip-rule="evenodd" fill="#1D1D1E" d="M32.791,27.519c-1.189-7.263-0.245-12.859,5.5-16.873
	c11.258-7.871,25.256-1.628,25.953,0.207c5.17,2.658,5.983,8.329,5.261,14.787C68.1,38.2,68.097,57.737,52.27,58.919
	C34.359,60.258,35.015,41.113,32.791,27.519z"/>
<path fill-rule="evenodd" clip-rule="evenodd" fill="#F0C17D" d="M63.631,66.15c1.489,3.948,11.664,7.685,16.187,7.488
	c12.577-0.546,15.354,1.041,15.901,12.431c0.022,0.483,0.052,1.902,0.083,3.853c-6.008,6.387-12.537-0.489-20.792,2.869
	l-11.273-7.827L51.049,61.911v-6.347l0.113,0.001l12.023-0.231C62.491,58.438,62.503,63.159,63.631,66.15z"/>
<path fill-rule="evenodd" clip-rule="evenodd" fill="#F0C17D" d="M64.939,45.846l-0.695-8.292c1.232-1.211,2.113-2.01,2.756-3.005
	c1.761-2.735,2.869-3.365,3.941-2.568c0.434,0.324,0.587,1.351,0.333,2.639c-0.442,2.252-1.865,5.608-2.311,7.58
	C68.606,43.787,66.53,49.22,64.939,45.846z"/>
<path fill-rule="evenodd" clip-rule="evenodd" fill="#F0C07D" d="M55.792,10.824c1.152-0.002-2.438-0.867-1.307-0.697
	c3.667,0.54,7.123,1.972,9.689,4.263c1.875,1.682,2.772,3.585,3.176,5.886c0.402,2.279,0.32,4.969,0.228,8.215
	c-0.097,3.33,0.385,6.286,0.229,9.228c-0.146,2.72-1.426,5.144-1.871,7.867c-0.561,3.416-0.202,5.829-1.111,8.044
	c-0.67,1.616-3.404,3.145-4.93,4.638C59.659,58.498,56.102,13.804,55.792,10.824z"/>
<path fill-rule="evenodd" clip-rule="evenodd" fill="#3A4F60" d="M81.486,73.638c12.562-0.507,16.008,0.836,16.888,10.241
	c0.035,0.38,0.052,15.379,0.054,20.889H74.181H51.049V61.162c5.708,0.019,11.438,0.438,11.766,1.11
	c0.133,1.416,0.398,2.767,0.816,3.878C65.235,70.404,77.673,73.794,81.486,73.638z"/>
<path fill-rule="evenodd" clip-rule="evenodd" fill="#151516" d="M51.049,6.768c7.01,0.012,12.754,2.927,13.195,4.085
	c5.17,2.656,5.983,8.329,5.261,14.787C68.1,38.2,68.097,57.737,52.27,58.919c-0.418,0.031-0.822,0.049-1.22,0.058V6.768z"/>
<path fill-rule="evenodd" clip-rule="evenodd" fill="#8BBBE5" d="M23.58,73.561h54.069c6.212,0,11.295,4.626,11.295,10.282v18.04
	c0,1.001-0.161,1.968-0.456,2.885H71.83H51.049H30.278H12.742c-0.296-0.917-0.456-1.884-0.456-2.885v-18.04
	C12.286,78.187,17.368,73.561,23.58,73.561z"/>
<path fill-rule="evenodd" clip-rule="evenodd" fill="#79A5C6" d="M51.112,73.561h26.364c6.784,0,12.332,4.626,12.332,10.282v18.04
	c0,1.001-0.174,1.968-0.498,2.885H71.83H51.112V73.561z"/>
<path fill-rule="evenodd" clip-rule="evenodd" fill="#FFDBA7" d="M161.871,66.15c1.488,3.948,11.663,7.685,16.186,7.488
	c12.574-0.546,15.354,1.041,15.901,12.431c0.022,0.483,0.05,1.902,0.082,3.853c-6.009,6.389-13.368,11.49-21.621,14.847h-46.248
	c-7.565-3.077-14.377-7.618-20.087-13.273c-0.007-2.451-0.004-4.271,0.017-4.803c0.477-11.955,3.128-13.608,15.927-13.054
	c3.942,0.173,13.827-4.535,14.903-7.488c1.093-3.005,1.143-7.712,0.448-10.816l12.021,0.231l12.023-0.231
	C160.729,58.438,160.741,63.159,161.871,66.15z"/>
<g>
	<path fill-rule="evenodd" clip-rule="evenodd" fill="#FFDBA7" d="M135.371,45.846l0.696-8.292c-1.231-1.211-2.115-2.01-2.756-3.005
		c-1.763-2.735-2.87-3.365-3.942-2.566c-0.434,0.322-0.587,1.349-0.334,2.637c0.444,2.252,1.865,5.608,2.312,7.58
		C131.706,43.787,133.78,49.22,135.371,45.846z"/>
	<path fill-rule="evenodd" clip-rule="evenodd" fill="#FFDBA7" d="M163.177,45.846l-0.694-8.292c1.231-1.211,2.114-2.01,2.755-3.005
		c1.763-2.735,2.871-3.365,3.94-2.566c0.436,0.322,0.59,1.349,0.336,2.637c-0.445,2.252-1.864,5.608-2.312,7.58
		C166.843,43.787,164.768,49.22,163.177,45.846z"/>
</g>
<path fill-rule="evenodd" clip-rule="evenodd" fill="#FFDBA7" d="M149.586,62.548c-0.066,0.006-0.135,0.006-0.203,0.006
	c-2.498,0.018-3.741-0.023-5.098-0.596c-1.312-0.56-1.949-1.848-3.753-3.586c-1.535-1.478-4.291-2.985-4.963-4.597
	c-0.921-2.207-0.558-4.637-1.132-8.061c-0.456-2.73-1.738-5.152-1.892-7.885c-0.155-2.952,0.317-5.922,0.217-9.256
	c-0.099-3.259-0.19-5.958,0.21-8.249c0.401-2.309,1.308-4.226,3.19-5.908l0,0c0,0,0,0,0-0.006c1.044-0.924,2.225-1.711,3.508-2.359
	c0.015-0.006,0.028-0.012,0.043-0.017c0.084-0.037,0.168-0.08,0.254-0.124c0.048-0.022,0.092-0.043,0.143-0.068
	c0.064-0.034,0.136-0.065,0.199-0.094c0.067-0.027,0.134-0.059,0.2-0.086c0.072-0.037,0.146-0.065,0.215-0.091
	c0.063-0.034,0.127-0.06,0.192-0.087c0.089-0.037,0.182-0.076,0.275-0.107c0.042-0.018,0.087-0.039,0.132-0.055
	c0.133-0.053,0.272-0.104,0.408-0.151c0,0,0,0,0.004-0.006c3.422-1.241,7.309-1.587,10.987-1.042
	c3.667,0.542,7.121,1.974,9.69,4.265c1.873,1.682,2.77,3.585,3.176,5.886c0.4,2.279,0.32,4.969,0.226,8.215
	c-0.097,3.33,0.387,6.286,0.231,9.228c-0.146,2.72-1.427,5.144-1.872,7.867c-0.56,3.416-0.202,5.829-1.111,8.044
	c-0.669,1.616-3.403,3.145-4.931,4.638c-1.796,1.759-2.429,3.05-3.733,3.628C153.094,62.462,151.897,62.54,149.586,62.548z"/>
<path fill-rule="evenodd" clip-rule="evenodd" fill="#8F9ABA" d="M179.724,73.638c12.563-0.507,16.009,0.836,16.888,10.241
	c0.035,0.38,0.054,15.379,0.056,20.889h-24.249h-46.247h-24.265c0.015-5.476,0.038-20.516,0.072-20.889
	c0.879-9.405,4.326-10.748,16.889-10.241c3.438,0.14,16.651-3.611,18.063-7.488c0.399-1.098,0.66-2.427,0.794-3.819
	c1.485-1.718,22.689-1.37,23.33-0.059c0.131,1.416,0.396,2.767,0.816,3.878C163.475,70.404,175.911,73.794,179.724,73.638z"/>
<path fill-rule="evenodd" clip-rule="evenodd" fill="#1D1D1E" d="M131.028,27.519c-1.189-7.263-0.243-12.859,5.5-16.873
	c11.259-7.871,25.257-1.628,25.954,0.207c5.172,2.658,5.985,8.329,5.263,14.787c-1.407,12.56-1.41,32.097-17.238,33.279
	C132.599,60.258,133.254,41.113,131.028,27.519z"/>
<path fill-rule="evenodd" clip-rule="evenodd" fill="#F0C17D" d="M161.871,66.15c1.488,3.948,11.663,7.685,16.186,7.488
	c12.574-0.546,15.354,1.041,15.901,12.431c0.022,0.483,0.05,1.902,0.082,3.853c-6.009,6.387-12.538-0.489-20.791,2.869
	l-11.273-7.827l-12.689-23.053v-6.347l0.113,0.001l12.023-0.231C160.729,58.438,160.741,63.159,161.871,66.15z"/>
<path fill-rule="evenodd" clip-rule="evenodd" fill="#F0C17D" d="M163.177,45.846l-0.694-8.292c1.231-1.211,2.114-2.01,2.755-3.005
	c1.763-2.735,2.869-3.365,3.94-2.568c0.436,0.324,0.59,1.351,0.336,2.639c-0.445,2.252-1.864,5.608-2.312,7.58
	C166.843,43.787,164.768,49.22,163.177,45.846z"/>
<path fill-rule="evenodd" clip-rule="evenodd" fill="#F0C07D" d="M154.029,10.824c1.153-0.002-2.438-0.867-1.306-0.697
	c3.667,0.54,7.121,1.972,9.69,4.263c1.873,1.682,2.77,3.585,3.176,5.886c0.4,2.279,0.32,4.969,0.226,8.215
	c-0.095,3.33,0.386,6.286,0.231,9.228c-0.146,2.72-1.427,5.144-1.872,7.867c-0.56,3.416-0.202,5.829-1.111,8.044
	c-0.669,1.616-3.403,3.145-4.931,4.638C157.896,58.498,154.34,13.804,154.029,10.824z"/>
<path fill-rule="evenodd" clip-rule="evenodd" fill="#7F89A3" d="M179.724,73.638c12.563-0.507,16.009,0.836,16.888,10.241
	c0.035,0.38,0.054,15.379,0.056,20.889h-24.249h-23.132V61.162c5.71,0.019,11.439,0.438,11.769,1.11
	c0.131,1.416,0.396,2.767,0.816,3.878C163.475,70.404,175.911,73.794,179.724,73.638z"/>
<path fill-rule="evenodd" clip-rule="evenodd" fill="#151516" d="M149.286,6.768c7.01,0.012,12.757,2.927,13.196,4.085
	c5.172,2.656,5.985,8.329,5.263,14.787c-1.407,12.56-1.41,32.097-17.238,33.279c-0.417,0.031-0.822,0.049-1.221,0.058V6.768z"/>
<path fill-rule="evenodd" clip-rule="evenodd" fill="#8BBBE5" d="M121.818,73.561h54.069c6.212,0,11.294,4.626,11.294,10.282v18.04
	c0,1.001-0.159,1.968-0.456,2.885h-16.657h-20.782h-20.77H110.98c-0.296-0.917-0.455-1.884-0.455-2.885v-18.04
	C110.525,78.187,115.606,73.561,121.818,73.561z"/>
<path fill-rule="evenodd" clip-rule="evenodd" fill="#79A5C6" d="M149.352,73.561h26.364c6.781,0,12.333,4.626,12.333,10.282v18.04
	c0,1.001-0.175,1.968-0.499,2.885h-17.481h-20.717V73.561z"/>
</svg>
