<?xml version="1.0" encoding="utf-8"?>
<!-- Generator: Adobe Illustrator 16.0.0, SVG Export Plug-In . SVG Version: 6.00 Build 0)  -->
<!DOCTYPE svg PUBLIC "-//W3C//DTD SVG 1.1//EN" "http://www.w3.org/Graphics/SVG/1.1/DTD/svg11.dtd">
<svg version="1.1" id="Layer_1" xmlns="http://www.w3.org/2000/svg" xmlns:xlink="http://www.w3.org/1999/xlink" x="0px" y="0px"
	 width="200px" height="179px" viewBox="0 0 200 179" enable-background="new 0 0 200 179" xml:space="preserve">
<path fill="#47607F" d="M151.883,131.849l36.674-42.984C188.557,88.864,191.955,134.675,151.883,131.849z"/>
<path fill="#8BBCE5" d="M151.883,131.849l36.674-42.984C188.557,88.864,142.782,92.721,151.883,131.849z"/>
<path fill="#47607F" d="M153.923,129.444l37.024-8.515C190.947,120.93,174.43,147.025,153.923,129.444z"/>
<path fill="#8BBCE5" d="M153.923,129.444l37.024-8.515C190.947,120.93,164.685,104.671,153.923,129.444z"/>
<path fill="none" d="M56.172,13.582L56.172,13.582c0.052,1.744,0.106,3.621,0.164,5.597C56.281,15.779,56.172,13.582,56.172,13.582z
	"/>
<polygon fill="#EBEBEB" stroke="#787878" stroke-miterlimit="10" points="8.463,8.291 8.463,157.423 118.955,157.423 118.955,38.48 
	89.068,8.592 "/>
<polygon fill="#A2A0A0" points="118.955,38.341 89.068,8.454 89.068,38.499 "/>
<polygon fill="#EAEAE8" points="93.004,38.478 118.955,68.331 118.955,38.341 "/>
<rect x="18.926" y="53.473" fill="#DBD8D4" width="74.078" height="2.919"/>
<rect x="18.926" y="60.961" fill="#DBD8D4" width="74.078" height="2.919"/>
<rect x="18.926" y="68.452" fill="#DBD8D4" width="74.078" height="2.916"/>
<rect x="18.926" y="75.94" fill="#DBD8D4" width="74.078" height="2.916"/>
<rect x="18.926" y="83.427" fill="#DBD8D4" width="74.078" height="2.92"/>
<rect x="18.926" y="90.915" fill="#DBD8D4" width="74.078" height="2.917"/>
<rect x="18.926" y="98.406" fill="#DBD8D4" width="74.078" height="2.915"/>
<rect x="18.926" y="105.895" fill="#DBD8D4" width="74.078" height="2.917"/>
<rect x="18.926" y="113.384" fill="#DBD8D4" width="74.078" height="2.916"/>
<rect x="18.926" y="120.872" fill="#DBD8D4" width="74.078" height="2.913"/>
<rect x="18.926" y="128.359" fill="#DBD8D4" width="74.078" height="2.917"/>
<rect x="18.926" y="135.848" fill="#DBD8D4" width="74.078" height="2.918"/>
<rect x="18.926" y="143.337" fill="#DBD8D4" width="74.078" height="2.916"/>
<rect x="18.926" y="18.425" fill="#C8D6D3" width="44.469" height="14.438"/>
<path fill="#4D4D4D" d="M31.086,159.78l0.417,2.828l0.069,0.127l0.867-3.34c-0.385,0.179-0.787,0.311-1.207,0.375
	C31.183,159.774,31.135,159.778,31.086,159.78z"/>
<path fill="#4D4D4D" d="M29.941,159.753l1.562,2.855l-0.417-2.828C30.705,159.824,30.322,159.815,29.941,159.753z"/>
<path fill="#688FB5" d="M30.997,159.174l-1.668-11.308l-7.449,1.098l-0.05-0.332c0.014,0.104,0.025,0.206,0.04,0.31
	c0.709,4.795,4.308,10.2,8.072,10.812l-0.212-0.392L30.997,159.174z"/>
<path fill="#A4B4D6" d="M29.329,147.866l1.668,11.308l1.557-0.23l-0.115,0.452c3.442-1.656,5.339-7.889,4.63-12.698
	c-0.014-0.102-0.033-0.204-0.049-0.305l0.049,0.329L29.329,147.866z"/>
<path fill="#EBEBEB" d="M30.997,159.174l0.089,0.606c0.049-0.002,0.097-0.006,0.146-0.01c0.42-0.064,0.822-0.196,1.207-0.375
	l0.115-0.452L30.997,159.174z"/>
<path fill="#EBEBEB" d="M30.997,159.174l-1.268,0.188l0.212,0.392c0.381,0.063,0.764,0.071,1.145,0.027L30.997,159.174z"/>
<path fill="#A4B4D6" d="M18.236,72.667l-1.039-7.038c-4.138,0.681-7.045,4.093-6.515,7.687c0.034,0.217,0.078,0.435,0.13,0.642
	l-0.025-0.192L18.236,72.667z"/>
<path fill="#A4B4D6" d="M25.975,71.526l0.026,0.188c-0.006-0.216-0.025-0.431-0.058-0.649c-0.535-3.638-4.388-6.083-8.602-5.458
	c-0.047,0.004-0.095,0.014-0.144,0.021l1.039,7.038L25.975,71.526z"/>
<path fill="#0B9C8B" d="M22.729,142.466l-1.719,0.253c-0.019,0.004-0.035,0.001-0.05,0.001l0.057,0.389
	c0.014-0.01,0.029-0.013,0.046-0.013l1.487-0.222l5.915-0.872l-0.055-0.375L22.729,142.466z"/>
<path fill="#12B3A5" d="M36.099,140.493l-1.722,0.253l-5.968,0.881l0.055,0.375l6.204-0.916l1.485-0.218
	c0.018-0.003,0.033-0.003,0.049-0.003l-0.057-0.384C36.13,140.483,36.115,140.491,36.099,140.493z"/>
<path fill="#465F7D" d="M22.146,144.054l-0.921,0.136c-0.019,0.001-0.033,0.001-0.05,0.001l0.654,4.441l0.05,0.332l7.449-1.098
	l-0.703-4.768L22.146,144.054z"/>
<path fill="#688FB5" d="M36.314,141.965l-0.92,0.136l-6.769,0.998l0.703,4.768l7.74-1.145l-0.049-0.329l-0.657-4.438
	C36.348,141.958,36.332,141.961,36.314,141.965z"/>
<path fill="#688FB5" d="M26.464,76.926l-3.708,0.549l-3.731,0.551l0.114,0.77l8.758,59.376l0.349,2.359l5.119-0.757l2.571-0.379
	c0.017-0.004,0.033,0,0.05-0.004L26.759,76.84C26.667,76.88,26.569,76.91,26.464,76.926z"/>
<path fill="#465F7D" d="M10.788,73.765l0.025,0.192l0.435,2.927c0.091-0.041,0.19-0.076,0.293-0.09l0.851-0.127l6.297-0.925
	l-0.452-3.077L10.788,73.765z"/>
<path fill="#465F7D" d="M18.236,72.667l0.452,3.077l6.586-0.976l0.853-0.124c0.105-0.016,0.207-0.012,0.307,0l-0.433-2.928
	l-0.026-0.188L18.236,72.667z"/>
<path fill="#465F7D" d="M15.585,78.531l-3.707,0.547c-0.105,0.018-0.207,0.014-0.308,0l9.229,62.554c0.016,0,0.03-0.006,0.046-0.012
	l2.573-0.379l4.828-0.711l-0.349-2.359l-8.758-59.376l-0.114-0.77L15.585,78.531z"/>
<path fill="#A4B4D6" d="M12.391,76.668l-0.851,0.127c-0.103,0.014-0.202,0.049-0.293,0.09c-0.466,0.204-0.76,0.693-0.681,1.221
	c0.077,0.527,0.5,0.911,1.003,0.973c0.102,0.014,0.203,0.018,0.308,0l3.707-0.547l3.439-0.506l-0.336-2.282L12.391,76.668z"/>
<path fill="#A4B4D6" d="M26.934,74.826c-0.15-0.095-0.319-0.158-0.5-0.183c-0.1-0.012-0.202-0.016-0.307,0l-0.853,0.124
	l-6.586,0.976l0.336,2.282l3.731-0.551l3.708-0.549c0.105-0.016,0.203-0.046,0.295-0.086c0.223-0.1,0.408-0.268,0.528-0.475
	l2.029-0.299l3.077,20.857c-1.425,0.231-2.38,1.734-2.138,3.375c0.242,1.643,1.59,2.804,3.019,2.613l0.001,0.002l1.559-0.228
	l-4.192-28.407L26.934,74.826z"/>
<path fill="#A4B4D6" d="M35.986,139.391c-0.017,0.004-0.034,0-0.05,0.004l-2.571,0.379l-5.119,0.757l0.164,1.097l5.968-0.881
	l1.722-0.253c0.017-0.002,0.032-0.01,0.046-0.012c0.277-0.066,0.463-0.33,0.422-0.618C36.523,139.578,36.27,139.378,35.986,139.391z
	"/>
<path fill="#688FB5" d="M23.418,141.241l-2.573,0.379c-0.017,0.006-0.031,0.012-0.046,0.012c-0.277,0.069-0.462,0.336-0.421,0.617
	c0.043,0.289,0.296,0.487,0.583,0.471c0.015,0,0.031,0.003,0.05-0.001l1.719-0.253l5.681-0.839l-0.164-1.097L23.418,141.241z"/>
<path fill="#A4B4D6" d="M36.202,140.865c-0.016,0-0.031,0-0.049,0.003l-1.485,0.218l-6.204,0.916l0.161,1.097l6.769-0.998
	l0.92-0.136c0.018-0.004,0.033-0.007,0.048-0.011c0.276-0.068,0.464-0.334,0.418-0.621
	C36.741,141.049,36.486,140.848,36.202,140.865z"/>
<path fill="#688FB5" d="M22.55,142.874l-1.487,0.222c-0.018,0-0.032,0.003-0.046,0.013c-0.278,0.063-0.463,0.326-0.421,0.615
	c0.042,0.287,0.298,0.485,0.58,0.467c0.017,0,0.032,0,0.05-0.001l0.921-0.136l6.479-0.955l-0.161-1.097L22.55,142.874z"/>
<radialGradient id="SVGID_1_" cx="128.4795" cy="155.6982" r="71.7122" gradientTransform="matrix(1 0 0 0.2243 0 120.7812)" gradientUnits="userSpaceOnUse">
	<stop  offset="0" style="stop-color:#8ECFB2"/>
	<stop  offset="0" style="stop-color:#A5B7C6"/>
	<stop  offset="0.2931" style="stop-color:#A7B9C8;stop-opacity:0.7069"/>
	<stop  offset="0.4894" style="stop-color:#AFBFCC;stop-opacity:0.5106"/>
	<stop  offset="0.6573" style="stop-color:#BDC9D4;stop-opacity:0.3427"/>
	<stop  offset="0.8093" style="stop-color:#D1D9E1;stop-opacity:0.1907"/>
	<stop  offset="0.9493" style="stop-color:#ECEFF2;stop-opacity:0.0507"/>
	<stop  offset="1" style="stop-color:#F9FCFD;stop-opacity:0"/>
</radialGradient>
<ellipse fill="url(#SVGID_1_)" cx="128.479" cy="155.699" rx="66.995" ry="21.301"/>
<path fill="#8BBCE5" d="M89.471,114.406l-8.122-27.323C81.349,87.083,101.669,98.224,89.471,114.406z"/>
<path fill="#465F7D" d="M89.471,114.406l-8.122-27.323C81.349,87.083,70.412,107.515,89.471,114.406z"/>
<path fill="#8BBCE5" d="M98.372,133.627l-43.63-38.872C54.741,94.755,102.182,92.255,98.372,133.627z"/>
<path fill="#465F7D" d="M98.372,133.627l-43.63-38.872C54.741,94.755,57.713,142.168,98.372,133.627z"/>
<linearGradient id="SVGID_2_" gradientUnits="userSpaceOnUse" x1="162.5361" y1="122.0488" x2="94.0317" y2="90.6312">
	<stop  offset="0" style="stop-color:#3C2E5B"/>
	<stop  offset="1" style="stop-color:#4A3E98"/>
</linearGradient>
<path fill="url(#SVGID_2_)" d="M91.673,101.032c16.657-0.346,62.593-3.099,66.409,2.149c-3.894,5.145-51.302,2.685-69.282,2.223
	v-1.437C88.8,102.369,90.075,101.064,91.673,101.032z"/>
<path fill="#47607F" d="M91.673,99.27c17.537-0.362,66.72-3.397,66.72,3.05c0,0.309-0.107,0.595-0.312,0.862
	c-3.815-5.248-49.752-2.495-66.409-2.149c-1.599,0.032-2.874,1.337-2.874,2.936v-1.763C88.8,100.606,90.075,99.303,91.673,99.27z"/>
<rect x="79.314" y="87.64" transform="matrix(0.0297 -0.9996 0.9996 0.0297 6.8535 227.2386)" fill="#47607F" width="82.311" height="44.899"/>
<rect x="83.054" y="91.382" transform="matrix(0.0297 -0.9996 0.9996 0.0297 6.8512 227.2364)" fill="none" stroke="#FFFFFF" stroke-miterlimit="10" width="74.829" height="37.414"/>
<rect x="84.552" y="92.879" transform="matrix(0.0297 -0.9996 0.9996 0.0297 6.852 227.2386)" fill="none" stroke="#FFFFFF" stroke-width="0.5" stroke-miterlimit="10" width="71.834" height="34.422"/>
<g>
	<g>
		<path fill="#A5D8C0" d="M111.354,114.771l-1.132-5.684l0.057-1.915l16.363,0.484l0.063-2.136l4.172,0.123l-0.267,8.936
			l-4.17-0.123l0.072-2.442l-12.191-0.36l-0.095,3.202L111.354,114.771z"/>
	</g>
</g>
<path fill="#A5D8C0" d="M112.234,135.297c-0.124,4.131,3.127,7.579,7.257,7.703c4.131,0.123,7.579-3.128,7.702-7.259
	c0.121-4.132-3.126-7.579-7.258-7.701C115.805,127.918,112.355,131.166,112.234,135.297z M118.713,136.377
	c0.153-0.134,0.313-0.388,0.474-0.764c0.298-0.7,0.604-1.209,0.92-1.529c0.314-0.319,0.756-0.471,1.325-0.453
	c0.556,0.017,0.992,0.194,1.305,0.536c0.312,0.342,0.488,0.808,0.531,1.397l0.936,0.028l-0.022,0.75l-0.931-0.027
	c-0.076,0.6-0.297,1.083-0.661,1.451c-0.363,0.369-0.903,0.543-1.621,0.521l0.041-1.376c0.432,0.012,0.737-0.074,0.922-0.26
	c0.184-0.185,0.279-0.432,0.288-0.736c0.009-0.289-0.059-0.511-0.203-0.667c-0.146-0.154-0.351-0.236-0.614-0.244
	c-0.263-0.008-0.472,0.058-0.632,0.196c-0.161,0.139-0.317,0.386-0.47,0.743c-0.277,0.707-0.576,1.222-0.892,1.541
	c-0.314,0.323-0.762,0.475-1.345,0.457c-0.54-0.016-0.973-0.195-1.294-0.54c-0.322-0.342-0.506-0.805-0.548-1.389l-1.014-0.032
	l0.021-0.749l1.025,0.031c0.102-0.564,0.344-0.997,0.729-1.301c0.387-0.301,0.894-0.441,1.522-0.424l-0.041,1.379
	c-0.381-0.012-0.672,0.055-0.872,0.201c-0.202,0.146-0.307,0.352-0.314,0.618c-0.008,0.277,0.063,0.481,0.211,0.615
	s0.355,0.205,0.619,0.213C118.358,136.572,118.56,136.508,118.713,136.377z"/>
<path fill="#A5D8C0" d="M113.738,84.635c-0.123,4.132,3.126,7.578,7.257,7.701c4.131,0.124,7.579-3.126,7.703-7.257
	c0.122-4.131-3.127-7.579-7.258-7.702C117.309,77.255,113.861,80.503,113.738,84.635z M120.218,85.714
	c0.153-0.133,0.311-0.387,0.473-0.764c0.297-0.699,0.604-1.209,0.919-1.528c0.316-0.319,0.757-0.472,1.326-0.454
	c0.557,0.016,0.992,0.195,1.305,0.537c0.313,0.342,0.49,0.807,0.532,1.397l0.936,0.026l-0.022,0.752l-0.931-0.028
	c-0.077,0.599-0.297,1.083-0.661,1.452c-0.363,0.368-0.904,0.542-1.621,0.521l0.041-1.378c0.433,0.014,0.738-0.074,0.921-0.26
	c0.184-0.184,0.28-0.429,0.288-0.733c0.009-0.29-0.059-0.513-0.204-0.667c-0.146-0.156-0.349-0.238-0.612-0.245
	c-0.263-0.009-0.474,0.058-0.633,0.195c-0.159,0.139-0.315,0.386-0.47,0.745c-0.277,0.705-0.576,1.219-0.891,1.541
	c-0.314,0.32-0.763,0.473-1.344,0.457c-0.542-0.018-0.973-0.197-1.295-0.54c-0.324-0.344-0.505-0.807-0.547-1.392l-1.016-0.029
	l0.023-0.75l1.022,0.029c0.104-0.563,0.346-0.996,0.732-1.298c0.384-0.302,0.891-0.443,1.52-0.425l-0.04,1.377
	c-0.381-0.01-0.672,0.057-0.873,0.203c-0.201,0.145-0.305,0.35-0.313,0.617c-0.009,0.277,0.062,0.482,0.21,0.616
	s0.356,0.204,0.62,0.212C119.862,85.909,120.064,85.847,120.218,85.714z"/>
<circle fill="#A5D8C0" cx="102.199" cy="145.48" r="3.741"/>
<circle fill="#A5D8C0" cx="136.606" cy="146.5" r="3.741"/>
<circle fill="#ECF6F7" cx="104.331" cy="73.677" r="3.741"/>
<circle fill="#A5D8C0" cx="138.737" cy="74.698" r="3.741"/>
<circle fill="none" stroke="#8ECFB2" stroke-miterlimit="10" cx="120.469" cy="110.089" r="13.793"/>
<rect x="85.299" y="83.899" transform="matrix(0.0312 -0.9995 0.9995 0.0312 16.2093 229.4204)" fill="#47607F" width="82.311" height="44.898"/>
<rect x="89.04" y="87.641" transform="matrix(0.0312 -0.9995 0.9995 0.0312 16.208 229.4179)" fill="none" stroke="#FFFFFF" stroke-miterlimit="10" width="74.829" height="37.414"/>
<rect x="90.537" y="89.136" transform="matrix(0.0312 -0.9995 0.9995 0.0312 16.2127 229.4203)" fill="none" stroke="#FFFFFF" stroke-width="0.5" stroke-miterlimit="10" width="71.836" height="34.422"/>
<g>
	<g>
		<path fill="#A5D8C0" d="M117.331,111.016l-1.121-5.687l0.061-1.916l16.361,0.511l0.066-2.136l4.172,0.13l-0.28,8.937l-4.17-0.131
			l0.075-2.441l-12.191-0.382l-0.099,3.205L117.331,111.016z"/>
	</g>
</g>
<path fill="#A5D8C0" d="M118.181,131.543c-0.129,4.13,3.115,7.584,7.245,7.713c4.132,0.129,7.585-3.115,7.713-7.245
	c0.13-4.13-3.113-7.585-7.245-7.712C121.762,124.168,118.31,127.413,118.181,131.543z M124.658,132.632
	c0.154-0.132,0.313-0.387,0.476-0.763c0.297-0.699,0.604-1.207,0.921-1.525c0.315-0.32,0.757-0.472,1.327-0.453
	c0.557,0.018,0.992,0.196,1.304,0.54c0.313,0.341,0.488,0.806,0.529,1.397l0.934,0.029l-0.021,0.75l-0.931-0.03
	c-0.078,0.601-0.3,1.083-0.664,1.451c-0.365,0.369-0.905,0.54-1.622,0.519l0.044-1.377c0.43,0.012,0.737-0.072,0.921-0.257
	c0.184-0.187,0.281-0.431,0.29-0.735c0.009-0.289-0.058-0.513-0.203-0.668c-0.145-0.156-0.349-0.238-0.614-0.246
	c-0.261-0.009-0.471,0.057-0.632,0.194c-0.161,0.14-0.316,0.387-0.469,0.744c-0.279,0.706-0.578,1.22-0.895,1.54
	c-0.315,0.321-0.763,0.473-1.346,0.454c-0.541-0.017-0.973-0.197-1.294-0.54c-0.321-0.345-0.503-0.808-0.544-1.393l-1.016-0.031
	l0.024-0.75l1.023,0.032c0.103-0.564,0.347-0.996,0.732-1.297c0.386-0.302,0.893-0.444,1.522-0.424l-0.042,1.378
	c-0.38-0.012-0.672,0.056-0.874,0.199c-0.201,0.146-0.306,0.351-0.315,0.618c-0.007,0.277,0.063,0.482,0.212,0.617
	c0.148,0.133,0.355,0.203,0.618,0.211C124.302,132.826,124.505,132.764,124.658,132.632z"/>
<path fill="#A5D8C0" d="M119.765,80.882c-0.13,4.132,3.114,7.585,7.245,7.714c4.132,0.128,7.583-3.114,7.714-7.245
	c0.128-4.131-3.117-7.584-7.246-7.712C123.347,73.509,119.894,76.752,119.765,80.882z M126.24,81.973
	c0.156-0.133,0.312-0.388,0.476-0.763c0.3-0.699,0.606-1.209,0.923-1.528c0.314-0.319,0.758-0.469,1.327-0.451
	c0.557,0.017,0.99,0.196,1.302,0.539c0.313,0.342,0.489,0.808,0.53,1.397l0.936,0.029l-0.024,0.75l-0.931-0.028
	c-0.078,0.599-0.299,1.081-0.664,1.451c-0.363,0.367-0.903,0.54-1.622,0.519l0.044-1.379c0.431,0.014,0.739-0.072,0.923-0.257
	c0.183-0.186,0.28-0.429,0.289-0.735c0.009-0.289-0.06-0.512-0.203-0.666c-0.145-0.156-0.349-0.239-0.613-0.246
	c-0.26-0.01-0.473,0.057-0.633,0.195c-0.16,0.137-0.315,0.385-0.47,0.742c-0.279,0.707-0.577,1.219-0.894,1.541
	c-0.314,0.32-0.764,0.472-1.347,0.453c-0.539-0.016-0.972-0.197-1.291-0.541c-0.324-0.344-0.506-0.807-0.546-1.391l-1.015-0.033
	l0.022-0.75l1.024,0.032c0.103-0.563,0.347-0.996,0.733-1.297c0.386-0.301,0.894-0.441,1.521-0.424l-0.043,1.379
	c-0.382-0.013-0.671,0.056-0.871,0.2c-0.203,0.145-0.306,0.352-0.315,0.619c-0.009,0.275,0.061,0.48,0.211,0.614
	c0.148,0.134,0.354,0.206,0.619,0.213C125.886,82.165,126.087,82.104,126.24,81.973z"/>
<circle fill="#A5D8C0" cx="108.131" cy="141.709" r="3.742"/>
<circle fill="#A5D8C0" cx="142.535" cy="142.786" r="3.742"/>
<circle fill="#ECF6F7" cx="110.375" cy="69.91" r="3.741"/>
<circle fill="#A5D8C0" cx="144.779" cy="70.985" r="3.742"/>
<circle fill="none" stroke="#8ECFB2" stroke-miterlimit="10" cx="126.455" cy="106.348" r="13.793"/>
<rect x="91.286" y="77.913" transform="matrix(0.0685 -0.9977 0.9977 0.0685 23.2436 225.616)" fill="#47607F" width="82.312" height="44.897"/>
<rect x="95.026" y="81.653" transform="matrix(0.0685 -0.9977 0.9977 0.0685 23.2433 225.6157)" fill="none" stroke="#FFFFFF" stroke-miterlimit="10" width="74.829" height="37.416"/>
<rect x="96.524" y="83.151" transform="matrix(0.0685 -0.9977 0.9977 0.0685 23.2435 225.6164)" fill="none" stroke="#FFFFFF" stroke-width="0.5" stroke-miterlimit="10" width="71.835" height="34.42"/>
<g>
	<g>
		<path fill="#ECF6F7" d="M123.148,104.686l-0.905-5.725l0.131-1.912l16.33,1.12l0.147-2.131l4.162,0.286l-0.612,8.918l-4.163-0.286
			l0.167-2.437l-12.168-0.835l-0.22,3.198L123.148,104.686z"/>
	</g>
</g>
<path fill="#A5D8C0" d="M123.232,125.23c-0.283,4.123,2.829,7.694,6.952,7.979c4.123,0.282,7.695-2.831,7.979-6.954
	c0.282-4.122-2.831-7.693-6.954-7.977C127.087,117.993,123.516,121.107,123.232,125.23z M129.665,126.56
	c0.158-0.126,0.325-0.374,0.504-0.742c0.323-0.688,0.649-1.186,0.977-1.493c0.328-0.309,0.776-0.441,1.343-0.401
	c0.556,0.038,0.983,0.233,1.282,0.586c0.299,0.354,0.459,0.825,0.479,1.417l0.933,0.065l-0.051,0.748l-0.93-0.064
	c-0.099,0.597-0.339,1.072-0.718,1.426c-0.376,0.354-0.923,0.508-1.639,0.458l0.094-1.376c0.431,0.029,0.741-0.043,0.931-0.222
	c0.19-0.179,0.297-0.42,0.317-0.725c0.02-0.288-0.04-0.513-0.178-0.674c-0.14-0.161-0.342-0.251-0.604-0.27
	c-0.26-0.018-0.474,0.04-0.639,0.172c-0.166,0.132-0.33,0.374-0.498,0.726c-0.307,0.695-0.622,1.197-0.95,1.506
	c-0.327,0.31-0.779,0.442-1.361,0.403c-0.541-0.037-0.964-0.234-1.272-0.589c-0.31-0.356-0.473-0.826-0.493-1.411l-1.013-0.069
	l0.053-0.749l1.021,0.071c0.122-0.562,0.383-0.983,0.781-1.271c0.396-0.286,0.907-0.408,1.534-0.365l-0.093,1.376
	c-0.381-0.027-0.673,0.029-0.88,0.166c-0.206,0.136-0.32,0.339-0.337,0.606c-0.021,0.276,0.042,0.484,0.186,0.622
	c0.146,0.141,0.348,0.22,0.611,0.237C129.303,126.741,129.505,126.687,129.665,126.56z"/>
<path fill="#ECF6F7" d="M126.705,74.665c-0.282,4.123,2.83,7.695,6.952,7.978c4.123,0.282,7.696-2.83,7.979-6.953
	c0.284-4.123-2.83-7.694-6.953-7.977C130.56,67.428,126.988,70.542,126.705,74.665z M133.137,75.995
	c0.158-0.126,0.327-0.374,0.503-0.744c0.325-0.688,0.65-1.185,0.978-1.492c0.328-0.308,0.776-0.441,1.345-0.403
	c0.554,0.038,0.982,0.235,1.282,0.588c0.3,0.353,0.457,0.826,0.478,1.417l0.933,0.064l-0.052,0.747l-0.929-0.061
	c-0.1,0.594-0.339,1.069-0.718,1.423c-0.379,0.355-0.924,0.508-1.641,0.458l0.096-1.375c0.429,0.029,0.741-0.046,0.932-0.223
	c0.189-0.178,0.296-0.418,0.316-0.725c0.021-0.287-0.041-0.512-0.178-0.673c-0.139-0.162-0.342-0.251-0.604-0.268
	c-0.263-0.019-0.475,0.039-0.639,0.171c-0.165,0.132-0.331,0.374-0.498,0.725c-0.306,0.696-0.622,1.197-0.95,1.506
	c-0.327,0.309-0.781,0.441-1.362,0.403c-0.539-0.038-0.964-0.233-1.272-0.589c-0.308-0.357-0.472-0.827-0.492-1.411l-1.012-0.069
	l0.05-0.75l1.022,0.071c0.124-0.56,0.384-0.982,0.78-1.269c0.397-0.287,0.91-0.409,1.536-0.365l-0.094,1.375
	c-0.378-0.026-0.674,0.03-0.879,0.167c-0.207,0.138-0.319,0.34-0.338,0.607c-0.019,0.276,0.044,0.484,0.188,0.623
	c0.143,0.138,0.347,0.218,0.611,0.236C132.775,76.176,132.979,76.121,133.137,75.995z"/>
<circle fill="#A5D8C0" cx="112.811" cy="135.016" r="3.742"/>
<circle fill="#A5D8C0" cx="147.152" cy="137.374" r="3.741"/>
<circle fill="#ECF6F7" cx="117.731" cy="63.349" r="3.741"/>
<circle fill="#ECF6F7" cx="152.072" cy="65.707" r="3.741"/>
<circle fill="none" stroke="#FFFFFF" stroke-miterlimit="10" cx="132.442" cy="100.361" r="13.793"/>
<g>
	<path fill="#688FB5" d="M84.345,154.85c0,2.438,1.944,4.428,4.38,4.488c19.246,0.48,69.668,3.197,69.668-3.083v-53.936
		c0,6.254-50.065,3.584-69.445,3.087c-2.525-0.064-4.603,1.963-4.603,4.489V154.85z"/>
</g>
<linearGradient id="SVGID_3_" gradientUnits="userSpaceOnUse" x1="94.3159" y1="142.708" x2="94.3159" y2="127.7246">
	<stop  offset="0.0013" style="stop-color:#1D262D"/>
	<stop  offset="1" style="stop-color:#3C2E5B;stop-opacity:0"/>
</linearGradient>
<path opacity="0.2" fill="url(#SVGID_3_)" d="M84.345,127.725h16.949c1.652,0,2.992,1.341,2.992,2.994v8.998
	c0,1.651-1.34,2.991-2.992,2.991H84.345V127.725z"/>
<path fill="#47607F" d="M84.345,125.48L84.345,125.48c0,0.827,0.669,1.496,1.496,1.496h14.705c1.653,0,2.993,1.341,2.993,2.993
	v8.998c0,1.652-1.34,2.994-2.993,2.994H84.345c-0.827,0-1.497-0.671-1.497-1.497v-13.488
	C82.849,126.149,83.518,125.48,84.345,125.48L84.345,125.48z"/>
<linearGradient id="SVGID_4_" gradientUnits="userSpaceOnUse" x1="93.5679" y1="129.4727" x2="93.5679" y2="124.6746">
	<stop  offset="0" style="stop-color:#F9FCFD;stop-opacity:0"/>
	<stop  offset="1" style="stop-color:#9893C8"/>
</linearGradient>
<path opacity="0.8" fill="url(#SVGID_4_)" d="M100.546,126.977H85.841c-0.827,0-1.496-0.669-1.496-1.496
	c-0.273,0-0.529,0.08-0.749,0.207v0.542c0,0.825,0.671,1.495,1.498,1.495h15.452c1.653,0,2.993,1.341,2.993,2.994v-0.749
	C103.539,128.317,102.199,126.977,100.546,126.977z"/>
<linearGradient id="SVGID_5_" gradientUnits="userSpaceOnUse" x1="97.168" y1="132.6621" x2="97.168" y2="138.9199">
	<stop  offset="0" style="stop-color:#3C2E5B;stop-opacity:0"/>
	<stop  offset="0.9987" style="stop-color:#1D262D"/>
</linearGradient>
<circle opacity="0.2" fill="url(#SVGID_5_)" cx="97.168" cy="135.439" r="2.994"/>
<linearGradient id="SVGID_6_" gradientUnits="userSpaceOnUse" x1="96.4194" y1="131.9141" x2="96.4194" y2="138.1698">
	<stop  offset="0" style="stop-color:#4A3E98"/>
	<stop  offset="1" style="stop-color:#3C2F5E"/>
</linearGradient>
<circle fill="url(#SVGID_6_)" cx="96.42" cy="134.691" r="2.993"/>
<circle fill="#17415B" cx="96.419" cy="134.691" r="2.245"/>
<g>
	<ellipse fill="#A4B4D6" cx="166.512" cy="155.563" rx="10.521" ry="1.563"/>
	<ellipse fill="#3D5066" cx="166.512" cy="155.562" rx="9.901" ry="1.273"/>
	<path fill="#A4B4D6" d="M177.032,158.754c0,0.865-4.711,1.565-10.522,1.565c-5.81,0-10.521-0.7-10.521-1.565v-3.192
		c0,0.863,4.712,1.564,10.521,1.564c5.812,0,10.522-0.701,10.522-1.564V158.754z"/>
	<ellipse fill="#3D5066" cx="166.494" cy="151.928" rx="10.521" ry="1.566"/>
	<ellipse fill="#95A5C1" cx="166.494" cy="151.929" rx="9.901" ry="1.276"/>
	<path fill="#A4B4D6" d="M177.016,155.121c0,0.865-4.712,1.567-10.521,1.567c-5.813,0-10.522-0.702-10.522-1.567v-3.193
		c0,0.865,4.71,1.566,10.522,1.566c5.81,0,10.521-0.701,10.521-1.566V155.121z"/>
	<ellipse fill="#3D5066" cx="167.691" cy="148.312" rx="10.521" ry="1.565"/>
	<ellipse fill="#95A5C1" cx="167.692" cy="148.313" rx="9.901" ry="1.273"/>
	<path fill="#A4B4D6" d="M178.213,151.505c0,0.863-4.712,1.565-10.524,1.565c-5.809,0-10.521-0.702-10.521-1.565v-3.193
		c0,0.865,4.712,1.565,10.521,1.565c5.813,0,10.524-0.7,10.524-1.565V151.505z"/>
	<path fill="#3D5066" d="M167.952,142.851c5.813,0,10.524,0.701,10.524,1.566s-4.711,1.566-10.524,1.566
		c-5.81,0-10.521-0.701-10.521-1.566S162.143,142.851,167.952,142.851z"/>
	<ellipse fill="#95A5C1" cx="167.956" cy="144.418" rx="9.901" ry="1.275"/>
	<path fill="#A4B4D6" d="M178.477,147.611c0,0.864-4.711,1.565-10.524,1.565c-5.809,0-10.521-0.701-10.521-1.565v-3.194
		c0,0.865,4.712,1.566,10.521,1.566c5.813,0,10.524-0.701,10.524-1.566V147.611z"/>
	<ellipse fill="#3D5066" cx="167.375" cy="140.838" rx="10.522" ry="1.566"/>
	<ellipse fill="#95A5C1" cx="167.148" cy="140.769" rx="9.9" ry="1.275"/>
	<path fill="#A4B4D6" d="M177.897,143.961c0,0.865-4.711,1.565-10.522,1.565c-5.813,0-10.521-0.7-10.521-1.565v-3.193
		c0,0.864,4.709,1.565,10.521,1.565c5.812,0,10.522-0.701,10.522-1.565V143.961z"/>
	<ellipse fill="#3D5066" cx="167.776" cy="137.196" rx="10.521" ry="1.565"/>
	<ellipse fill="#95A5C1" cx="167.776" cy="137.197" rx="9.903" ry="1.275"/>
	<path fill="#A4B4D6" d="M178.298,140.391c0,0.864-4.71,1.566-10.521,1.566c-5.811,0-10.522-0.702-10.522-1.566v-3.194
		c0,0.865,4.712,1.565,10.522,1.565c5.812,0,10.521-0.7,10.521-1.565V140.391z"/>
	<ellipse fill="#3D5066" cx="167.956" cy="133.647" rx="10.521" ry="1.566"/>
	<path fill="#95A5C1" d="M167.776,132.371c5.47,0,9.903,0.572,9.903,1.277c0,0.701-4.434,1.274-9.903,1.274
		c-5.469,0-9.902-0.573-9.902-1.274C157.874,132.943,162.308,132.371,167.776,132.371z"/>
	<path fill="#A4B4D6" d="M178.527,136.841c0,0.865-4.711,1.564-10.524,1.564c-5.808,0-10.519-0.699-10.519-1.564v-3.192
		c0,0.864,4.711,1.564,10.519,1.564c5.813,0,10.524-0.7,10.524-1.564V136.841z"/>
	<path fill="#3D5066" d="M168.287,128.498c5.812,0,10.521,0.699,10.521,1.564s-4.709,1.565-10.521,1.565
		c-5.813,0-10.523-0.7-10.523-1.565S162.474,128.498,168.287,128.498z"/>
	<ellipse fill="#95A5C1" cx="168.287" cy="130.063" rx="9.902" ry="1.276"/>
	<ellipse fill="#3D5066" cx="168.287" cy="129.981" rx="7.225" ry="0.79"/>
	<ellipse fill="#95A5C1" cx="168.287" cy="130.063" rx="7.225" ry="0.71"/>
	<path fill="#A4B4D6" d="M178.808,133.256c0,0.865-4.711,1.565-10.521,1.565c-5.812,0-10.523-0.7-10.523-1.565v-3.193
		c0,0.865,4.712,1.565,10.523,1.565c5.81,0,10.521-0.7,10.521-1.565V133.256z"/>
</g>
<g>
	<polygon fill="#C8D6D3" points="2.58,237.162 2.701,239.241 -1.333,241.563 -3.534,239.606 -1.577,237.406 2.458,235.084 	"/>
</g>
</svg>
