<?xml version="1.0" encoding="utf-8"?>
<!-- Generator: Adobe Illustrator 16.0.0, SVG Export Plug-In . SVG Version: 6.00 Build 0)  -->
<!DOCTYPE svg PUBLIC "-//W3C//DTD SVG 1.1//EN" "http://www.w3.org/Graphics/SVG/1.1/DTD/svg11.dtd">
<svg version="1.1" id="Слой_1" xmlns="http://www.w3.org/2000/svg" xmlns:xlink="http://www.w3.org/1999/xlink" x="0px" y="0px"
	 width="200px" height="194.333px" viewBox="0 0 200 194.333" enable-background="new 0 0 200 194.333" xml:space="preserve">
<path fill="#DBDBDB" d="M71.938,118.455H14.126c-4.567,0-8.27-3.701-8.27-8.27V52.375c0-4.567,3.703-8.27,8.27-8.27h57.812
	c4.567,0,8.271,3.703,8.271,8.27v57.811C80.208,114.754,76.505,118.455,71.938,118.455z"/>
<rect x="25.82" y="101.527" fill="#98B9E2" width="34.424" height="1.702"/>
<rect x="30.696" y="106.887" fill="#98B9E2" width="24.672" height="1.701"/>
<path fill="#DBDBDB" d="M184.455,189.333h-82.273c-5.38,0-9.742-4.362-9.742-9.743V79.634c0-5.381,4.362-9.743,9.742-9.743h82.273
	c5.38,0,9.743,4.362,9.743,9.743v99.956C194.198,184.971,189.835,189.333,184.455,189.333z"/>
<g>
	<rect x="138.577" y="140.355" fill="#52617D" width="8.072" height="1.494"/>
</g>
<g>
	<rect x="107.938" y="154.051" fill="#98B9E2" width="46.962" height="2.895"/>
	<rect x="107.938" y="167.945" fill="#98B9E2" width="37.976" height="2.895"/>
	<rect x="107.938" y="160.998" fill="#98B9E2" width="22.263" height="2.894"/>
</g>
<g>
	<g>
		<path fill="#52617D" d="M172.696,171.052c-4.744,0-8.605-3.861-8.605-8.607c0-4.745,3.861-8.606,8.605-8.606
			c4.746,0,8.607,3.861,8.607,8.606C181.304,167.19,177.442,171.052,172.696,171.052z M172.696,155.504
			c-3.825,0-6.94,3.114-6.94,6.94c0,3.828,3.115,6.942,6.94,6.942c3.827,0,6.942-3.114,6.942-6.942
			C179.639,158.618,176.523,155.504,172.696,155.504z"/>
	</g>
	<g>
		<polygon fill="#52617D" points="172.147,165.833 168.238,161.923 169.416,160.744 172.147,163.477 175.979,159.647 
			177.155,160.823 		"/>
	</g>
</g>
<path fill="#DBDBDB" d="M135.339,65.768H94.311c-3.755,0-6.799-3.044-6.799-6.798V23.369c0-3.754,3.044-6.798,6.799-6.798h41.028
	c3.755,0,6.797,3.044,6.797,6.798V58.97C142.136,62.724,139.094,65.768,135.339,65.768z"/>
<g>
	<rect x="112.451" y="56.464" fill="#52617D" width="4.332" height="0.802"/>
</g>
<g>
	<path fill="#52617D" d="M127.808,25.474v0.784h4.62v4.336h0.784v-5.12H127.808z M96.437,30.594h0.784v-4.336h4.619v-0.784h-5.403
		V30.594z M132.428,52.967v4.337h-4.62v0.785h5.404v-5.122H132.428z M97.221,52.967h-0.784v5.122h5.403v-0.785h-4.619V52.967z"/>
</g>
<g>
	<rect x="40.139" y="93.221" fill="#52617D" width="5.787" height="1.072"/>
</g>
<g>
	<path fill="#52617D" d="M60.374,51.828v1.048h6.171v5.791h1.048v-6.839H60.374z M18.471,58.667h1.047v-5.791h6.171v-1.048h-7.219
		V58.667z M66.545,88.55v5.794h-6.171v1.048h7.219V88.55H66.545z M19.518,88.55h-1.047v6.842h7.219v-1.048h-6.171V88.55z"/>
</g>
<g>
	<path fill="#969696" d="M174.049,127.005h-9.654c-0.635-4.621-1.416-9.897-1.416-9.897s-0.391,4.354-0.863,9.897h-38.631
		c-0.352-4.984-0.776-8.716-0.929-8.792c-0.222-0.111-1.601,4.313-2.744,8.792h-10.457c2.689-11.585,7.706-30.173,10.605-31.286
		c4.129-1.588,20.965-6.776,20.965-6.776h9.606c0,0,17.074,4.871,18.661,10.167C170.456,103.328,173.241,117.245,174.049,127.005z"
		/>
</g>
<g>
	<path fill="#D2C3A8" d="M146.17,57.773c0,0,8.972,1.414,7.605,15.45c-1.366,14.037-9.284,12.886-9.813,12.872
		c-0.529-0.015-7.948,0.255-8.526-16.882C135.436,69.213,135.183,56.541,146.17,57.773z"/>
</g>
<g>
	<path fill="#D2C3A8" d="M150.358,81.961c0,0-0.246,5.772,0.312,7.022c0.559,1.25-7.402,5.265-12.259,0.791
		c0,0,1.173-6.274,0.846-8.498C138.932,79.053,150.358,81.961,150.358,81.961z"/>
</g>
<g>
	<path fill="#D2C3A8" d="M153.913,69.259c0,0,0.983-1.049,1.345,0.013c0.358,1.063-1.524,5.809-1.401,6.022
		c0,0-0.18,0.412-0.416,0.185C153.205,75.252,153.913,69.259,153.913,69.259z"/>
</g>
<g>
	<path fill="#D2C3A8" d="M135.537,69.081c0,0-0.963-1.068-1.343-0.013c-0.381,1.055,1.41,5.837,1.284,6.048
		c0,0,0.172,0.416,0.411,0.193C136.131,75.087,135.537,69.081,135.537,69.081z"/>
</g>
<g>
	<path fill="#1E1E1E" d="M153.909,71.412l-1.284,1.716c0,0,0.037-3.763-0.169-4.354c-0.206-0.59-0.521-2.393-0.694-2.819
		c-0.172-0.425-7.704-2.535-14.355,0.617c0,0,0.292,2.707-0.346,2.948c-0.638,0.24-0.325,4.408-0.325,4.408l-1.057-1.191
		c0,0-1.615-10.799-1.217-11.924c0.399-1.125,1.671-7.892,15.32-3.875c0,0,4.255-0.902,5.109,2.037
		C155.744,61.911,153.909,71.412,153.909,71.412z"/>
</g>
<g>
	<path fill="#D2C3A8" d="M150.67,88.983c0,0,2.024,0.433-6.445,8.549c0,0-6.007-6.645-5.813-7.758
		C138.605,88.661,150.67,88.983,150.67,88.983z"/>
</g>
<g>
	<polygon fill="#5E5E5E" points="144.225,97.532 146.535,101.486 153.393,89.844 150.424,87.772 	"/>
</g>
<g>
	<polygon fill="#5E5E5E" points="144.225,97.532 138.615,88.607 135.436,90.651 141.137,101.486 	"/>
</g>
<g>
	<path fill="#5E5E5E" d="M142.485,122.261c0.07,1.317,0.1,2.931,0.104,4.744h-0.317c-0.003-1.806-0.035-3.416-0.104-4.729
		c-0.52-9.902,1.879-21.951,1.895-24.774l0.31,0.061C144.357,100.387,141.966,112.402,142.485,122.261z"/>
</g>
<path fill="#B2A590" d="M140.094,84.443c0,0,2.131,2.253,5.143,1.653c3.01-0.601,4.346-1.979,4.346-1.979s-1.188,2.98-4.669,3.253
	C141.433,87.643,140.094,84.443,140.094,84.443z"/>
<g>
	<g>
		<path fill="#EEA886" d="M36.147,52.225c-0.008,0-0.015,0-0.021-0.002c-0.203-0.049-0.523-1.019-0.585-1.213
			c-0.015-0.053-0.046-0.151-0.09-0.286c-0.252-0.777-0.84-2.596-0.611-3.293c0.073-0.22,0.186-0.347,0.336-0.378
			c0.322-0.066,0.69,0.343,0.706,0.359l0.007,0.01l0.002,0.011c0.083,0.765,0.492,4.592,0.315,4.767
			C36.189,52.216,36.168,52.225,36.147,52.225z M35.25,47.118c-0.021,0-0.04,0.002-0.06,0.006c-0.122,0.025-0.216,0.136-0.28,0.329
			c-0.222,0.674,0.383,2.543,0.611,3.247c0.044,0.136,0.075,0.234,0.091,0.288c0.148,0.465,0.413,1.133,0.531,1.163
			c0.004,0,0.006,0.001,0.011-0.003c0.112-0.152-0.146-2.955-0.336-4.695C35.769,47.4,35.494,47.118,35.25,47.118z"/>
	</g>
</g>
<g>
	<g>
		<path fill="#1E1E1E" d="M42.815,36.971c0,0,4.938-0.518,6.717,4.252c1.779,4.769,3.455,6.33,3.665,8.835
			c0.848,10.133,5.581,7.841,4.25,13.683c-1.331,5.84-2.252,6.725-2.252,6.725l-11.313-2.218l-11.46,0.037
			c0,0,4.484-2.239,3.485-7.008c-0.998-4.77-3.485-12.585-2.08-17.909C35.23,38.043,39.864,37.377,42.815,36.971z"/>
	</g>
</g>
<g>
	<g>
		<path fill="#EEA886" d="M48.847,52.225c-0.022,0-0.043-0.009-0.061-0.026c-0.176-0.175,0.232-4.002,0.316-4.767l0.001-0.011
			l0.008-0.01c0.016-0.017,0.383-0.426,0.706-0.359c0.149,0.031,0.263,0.159,0.335,0.378c0.229,0.697-0.359,2.516-0.61,3.293
			c-0.043,0.135-0.075,0.233-0.089,0.285c-0.063,0.196-0.383,1.166-0.586,1.215C48.86,52.225,48.854,52.225,48.847,52.225z
			 M49.174,47.453c-0.189,1.74-0.448,4.542-0.334,4.695c0.005,0.005,0.007,0.004,0.01,0.003c0.119-0.029,0.384-0.698,0.532-1.164
			c0.015-0.052,0.046-0.151,0.09-0.287c0.228-0.703,0.832-2.572,0.61-3.247c-0.063-0.193-0.158-0.304-0.279-0.329
			C49.545,47.071,49.228,47.396,49.174,47.453z"/>
	</g>
</g>
<g>
	<g>
		<path fill="#98B9E2" d="M66.035,82.532h-7.049c-1.462-2.664-2.65-4.749-2.65-4.749s-0.95,1.734-1.687,4.749H30.917
			c-0.363-1.881-0.385-3.683-0.309-4.966c0,0-1.269,2.291-2.74,4.966h-7.973c2.116-3.963,6.08-11.176,6.981-12.116
			c1.132-1.185,7.689-5.718,12.371-7.196c4.684-1.479,7.346-0.052,7.346-0.052s4.809,0.867,9.255,2.63
			C57.597,66.491,62.425,75.408,66.035,82.532z"/>
	</g>
</g>
<g>
	<g>
		<path fill="#D2C3A8" d="M43.467,39.76c0,0,6.54,0.944,5.583,10.599s-6.729,8.888-7.115,8.88
			c-0.386-0.009-5.791,0.201-6.258-11.581C35.676,47.659,35.458,38.947,43.467,39.76z"/>
	</g>
</g>
<g>
	<g>
		<path fill="#D2C3A8" d="M46.372,57.526c0,0-0.405,5.022,0.563,6.527c0.968,1.505-0.827,3.547-4.524,2.848
			s-3.482-2.794-3.482-2.794s1.035-3.1,0.732-5.58C39.358,56.045,46.372,57.526,46.372,57.526z"/>
	</g>
</g>
<g>
	<g>
		<path fill="#1E1E1E" d="M42.719,43.259c0,0,3.056,3.213,4.475,4.84c1.419,1.626,1.583,4.769,1.583,4.769s2.391-2.92,1.391-6.321
			s-3.366-10.019-9.354-7.985c-5.989,2.033-6.21,10.979-5.509,15.416C35.304,53.976,37.993,44.184,42.719,43.259z"/>
	</g>
</g>
<g>
	<g>
		<path fill="#D2C3A8" d="M48.668,63.61c0,0-4.536,11.487-7.292,13.484c0,0-3.621-11.716-3.368-13.432
			C38.008,63.662,43.471,61.521,48.668,63.61z"/>
	</g>
</g>
<g>
	<path fill="#1E1E1E" d="M39.084,60.832c0,0-8.085,7.193-5.987,11.682c1.792,3.831,8.141,1.481,7.094-2.532
		C39.143,65.968,39.084,60.832,39.084,60.832z"/>
</g>
<g>
	<path fill="#BAAD97" d="M40.141,58.801c0,0,2.786,1.318,5.499-0.629c0,0-0.752,1.556-2.75,1.778
		C40.895,60.172,40.141,58.801,40.141,58.801z"/>
</g>
<g>
	<path fill="#52617D" d="M111.906,32.227c0,0-2.683,10.092-3.241,12.366c-0.168,0.685-0.705,1.869-1.388,3.219
		c-0.004,0.01-0.009,0.019-0.018,0.031c-0.146,0.296-0.216,0.567-0.25,0.82c-0.108,0.842,0.214,1.505-0.345,2.503l-0.102,0.419
		h-5.308c0.619-1.84,1.406-4.182,2.035-6.067c0.528-1.591,0.945-2.858,1.057-3.224c0.328-1.095,1.531-4.64,2.554-6.994
		c0.357-0.82,1.73-1.63,2.948-2.216C110.94,32.567,111.906,32.227,111.906,32.227z"/>
</g>
<g>
	<path fill="#494949" d="M108.354,17.812c0,0-1.692-10.946,7.373-10.744c9.064,0.203,8.944,5.614,8.782,10.986
		c-0.161,5.372-3.636,4.968,0.282,12.44s-3.392,7.472-3.392,7.472l-5.673-7.795L108.354,17.812z"/>
</g>
<g>
	<path fill="#D2C3A8" d="M114.734,8.118c0,0-6.139,0.97-6.38,9.694c-0.242,8.724,1.655,10.582,7.027,8.764
		c5.371-1.816,7.068-10.945,7.189-12.358S123.016,7.068,114.734,8.118z"/>
</g>
<g>
	<path fill="#F5F5F5" d="M125.519,38.464c0.021,3.002-3.43,10.183-3.963,12.402c-0.063,0.257-0.13,0.497-0.198,0.721h-16.754
		c-0.088-1.035-0.169-1.919-0.21-2.419c-0.133-1.64-1.795-5.172-1.739-6.817c0.059-1.675,0.881-3.123,2.03-4.912
		c0.357-0.555,0.733-1.119,1.107-1.668c1.22-1.79,2.438-3.415,3.036-3.975c0.446-0.415,0.86-0.733,1.222-0.974
		c0.003-0.002,0.003-0.002,0.003-0.002c0.752-0.502,1.26-0.664,1.26-0.664l5.276-0.844c0,0,3.288,1.191,5.181,1.632
		C121.77,30.944,125.462,31.484,125.519,38.464z"/>
</g>
<g>
	<path fill="#E55353" d="M110.054,30.819l-3.059,4.82l-2.823,4.449c0.008-0.024,0.195-0.697,0.514-2.648
		c0.062-0.37,0.127-0.786,0.196-1.253c0.021-0.138,0.05-0.275,0.089-0.41c0,0,0,0,0-0.001c1.208-2.785,4.943-4.885,5.079-4.955
		C110.053,30.819,110.054,30.819,110.054,30.819z"/>
</g>
<g>
	<path fill="#D2C3A8" d="M118.836,22.646c-0.532,1.005-1.095,7.243-1.095,7.243s-7.508,2.838-6.739,1.232
		c0.349-0.729,0.45-1.674,0.457-2.489c0.007-0.642-0.047-1.204-0.083-1.515c-0.02-0.164-0.035-0.259-0.035-0.259
		S119.368,21.641,118.836,22.646z"/>
</g>
<g>
	<path fill="#494949" d="M112.231,14.379c0,0,3.15,5.129,6.019,7.149c2.866,2.019,1.414,3.634,1.414,3.634
		s7.481-15.752,0.367-16.842c-7.113-1.091-11.475-1.172-11.677,9.492C108.354,17.812,111.585,14.298,112.231,14.379z"/>
</g>
<g>
	<path fill="#AA9E8A" d="M115.657,26.475c-1.152,1.701-4.197,2.158-4.197,2.158s0,0-0.001,0c0.007-0.642-0.047-1.204-0.083-1.515
		C113.332,27.495,115.657,26.475,115.657,26.475z"/>
</g>
<path fill="#EBEEFF" d="M104.983,35.743L104.983,35.743c-0.001,0-0.163,0.338-0.298,1.697l1.106-1.669c0,0,1.976-2.832,2.651-3.568
	c0.677-0.737,1.606-1.381,1.606-1.381S106.164,32.688,104.983,35.743z"/>
<path fill="#E55353" d="M119.925,39.966c0,0,4.819-1.891,6.245-2c0,0-0.969-7.739-5.703-6.919
	C115.733,31.867,119.925,39.966,119.925,39.966z"/>
<path fill="#D2C3A8" d="M111.312,30.156c0,0-3.538,5.44-2.341,5.915c1.197,0.476,7.681-0.634,10.438-5.802
	C119.408,30.269,115.287,28.156,111.312,30.156z"/>
<path fill="#52617D" d="M126.17,37.966c-0.245,4.266-1.455,8.312-2.454,12.026c-0.145,0.538-0.284,1.07-0.414,1.594h-9.812
	c-0.025-1.471-0.021-2.769,0.025-3.851c0.495-11.841,4.246-18.066,4.246-18.066s1.199,0.402,4.647,1.379
	c2.362,0.668,3.256,3.675,3.581,5.499c0,0,0.003,0.007,0.004,0.021C126.14,37.391,126.17,37.966,126.17,37.966z"/>
<path fill="#52617D" d="M111.309,30.159c-0.038,0.067-0.684,1.152-1.459,2.927c-1.162,2.665-2.613,6.885-2.736,11.534
	c-0.039,1.492-0.335,3.912-0.786,6.967h-1.958c-0.197-2.556-0.666-4.599-1.078-6.067c-0.267-0.953-0.514-1.664-0.646-2.115
	c-0.625-2.125,1.371-4.953,2.039-5.966C105.355,36.429,106.957,31.779,111.309,30.159z"/>
<path fill="#52617D" d="M129.296,51.586h-5.269c0-0.342-0.118-0.902-0.312-1.594c-0.957-3.402-3.79-10.027-3.79-10.027
	s-4.239-6.927-0.223-8.692c4.018-1.765,5.746,3.169,6.287,5.274c0,0,0.003,0.007,0.004,0.021
	C126.128,37.072,128.521,46.192,129.296,51.586z"/>
<g>
	<path fill="#52617D" d="M167.187,81.803v1.461h8.605v8.077h1.461v-9.538H167.187z M108.746,91.341h1.46v-8.077h8.607v-1.461
		h-10.067V91.341z M175.792,133.017v8.079h-8.605v1.463h10.066v-9.542H175.792z M110.206,133.017h-1.46v9.542h10.067v-1.463h-8.607
		V133.017z"/>
</g>
</svg>
