<?xml version="1.0" encoding="utf-8"?>
<!-- Generator: Adobe Illustrator 16.0.0, SVG Export Plug-In . SVG Version: 6.00 Build 0)  -->
<!DOCTYPE svg PUBLIC "-//W3C//DTD SVG 1.1//EN" "http://www.w3.org/Graphics/SVG/1.1/DTD/svg11.dtd">
<svg version="1.1" id="Layer_1" xmlns="http://www.w3.org/2000/svg" xmlns:xlink="http://www.w3.org/1999/xlink" x="0px" y="0px"
	 width="185px" height="154.5px" viewBox="0 0 185 154.5" enable-background="new 0 0 185 154.5" xml:space="preserve">
<g>
	<g>
		<g>
			<path fill="none" stroke="#526E8C" stroke-width="3" stroke-linecap="round" stroke-linejoin="round" d="M130.814,33.748
				c-0.275-0.215-0.553-0.429-0.832-0.64"/>
			
				<path fill="none" stroke="#526E8C" stroke-width="3" stroke-linecap="round" stroke-linejoin="round" stroke-dasharray="4.8602,8.7484" d="
				M125.177,29.804c-2.603-1.622-5.328-3.064-8.16-4.31"/>
			
				<path fill="none" stroke="#526E8C" stroke-width="3" stroke-linecap="round" stroke-linejoin="round" stroke-dasharray="1.9441,5.8323,4.8602,8.7484" d="
				M112.955,23.87c-5.245-1.894-10.805-3.129-16.579-3.607"/>
			<path fill="none" stroke="#526E8C" stroke-width="3" stroke-linecap="round" stroke-linejoin="round" d="M92.005,20.047
				c-0.349-0.005-0.699-0.008-1.05-0.008"/>
		</g>
	</g>
	<g>
		<g>
			<path fill="none" stroke="#526E8C" stroke-width="3" stroke-linecap="round" stroke-linejoin="round" d="M154.86,74.114
				c-2.57-15.444-10.603-29.041-22.045-38.736"/>
			<g>
				<polygon fill="#526E8C" points="160.85,68.454 154.488,71.917 147.58,69.742 155.741,84.825 				"/>
			</g>
		</g>
	</g>
</g>
<circle fill="#C3E0E3" cx="89.952" cy="84.959" r="58.629"/>
<circle fill="#A4B4D6" cx="92.308" cy="86.359" r="48.158"/>
<path fill="#A4B4D6" d="M172.121,114.749v-1.044c0-0.433-0.351-0.783-0.784-0.783h-2.188v-1.764c0-0.265-0.215-0.479-0.479-0.479
	h-3.595c-0.265,0-0.48,0.215-0.48,0.479v1.764h-2.186c-0.435,0-0.784,0.351-0.784,0.783v1.044h-7.39v33.123h25.272v-33.123H172.121z
	 M166.408,111.205h0.93c0.266,0,0.479,0.216,0.479,0.479c0,0.266-0.214,0.479-0.479,0.479h-0.93c-0.265,0-0.479-0.214-0.479-0.479
	C165.93,111.421,166.144,111.205,166.408,111.205z"/>
<circle fill="#A4B4D6" cx="131.763" cy="137.762" r="9.446"/>
<circle fill="#A4B4D6" cx="167.528" cy="95.801" r="9.446"/>
<circle fill="#8BBCE5" cx="19.21" cy="68.72" r="9.446"/>
<circle fill="#A4B4D6" cx="64.241" cy="29.455" r="9.446"/>
<circle fill="#A4B4D6" cx="144.139" cy="113.679" r="6.154"/>
<path fill="#A4B4D6" d="M44.87,35.674V12.397c0-1.244-1.009-2.253-2.253-2.253h-0.738V9.006c0-0.402-0.326-0.729-0.729-0.729h-0.201
	c-0.402,0-0.729,0.326-0.729,0.729v1.138h-1.421V9.006c0-0.402-0.327-0.729-0.729-0.729h-0.2c-0.403,0-0.729,0.326-0.729,0.729
	v1.138h-1.42V9.006c0-0.402-0.327-0.729-0.73-0.729h-0.199c-0.403,0-0.73,0.326-0.73,0.729v1.138h-1.42V9.006
	c0-0.402-0.326-0.729-0.729-0.729H31.71c-0.402,0-0.729,0.326-0.729,0.729v1.138H29.56V9.006c0-0.402-0.325-0.729-0.729-0.729h-0.2
	c-0.403,0-0.729,0.326-0.729,0.729v1.138h-1.42V9.006c0-0.402-0.326-0.729-0.729-0.729h-0.2c-0.402,0-0.729,0.326-0.729,0.729v1.138
	h-1.42V9.006c0-0.402-0.327-0.729-0.729-0.729h-0.2c-0.403,0-0.729,0.326-0.729,0.729v1.138h-1.42V9.006
	c0-0.402-0.328-0.729-0.73-0.729h-0.199c-0.403,0-0.73,0.326-0.73,0.729v1.138h-1.42V9.006c0-0.402-0.326-0.729-0.729-0.729h-0.2
	c-0.402,0-0.729,0.326-0.729,0.729v1.138h-1.42V9.006c0-0.402-0.327-0.729-0.729-0.729h-0.2c-0.403,0-0.729,0.326-0.729,0.729v1.138
	h-1.42V9.006c0-0.402-0.326-0.729-0.73-0.729h-0.199c-0.402,0-0.729,0.326-0.729,0.729v1.138H8.687
	c-1.244,0-2.252,1.009-2.252,2.253v23.277c0,1.244,1.008,2.253,2.252,2.253h33.93C43.861,37.927,44.87,36.918,44.87,35.674z"/>
<g>
	<g>
		<g>
			<path fill="none" stroke="#526E8C" stroke-width="3" stroke-linecap="round" stroke-linejoin="round" d="M49.414,135.935
				c0.275,0.216,0.553,0.429,0.832,0.64"/>
			
				<path fill="none" stroke="#526E8C" stroke-width="3" stroke-linecap="round" stroke-linejoin="round" stroke-dasharray="4.8603,8.7485" d="
				M55.052,139.879c2.602,1.622,5.328,3.064,8.16,4.311"/>
			
				<path fill="none" stroke="#526E8C" stroke-width="3" stroke-linecap="round" stroke-linejoin="round" stroke-dasharray="1.9441,5.8323,4.8603,8.7485" d="
				M67.273,145.813c5.245,1.894,10.805,3.129,16.579,3.607"/>
			<path fill="none" stroke="#526E8C" stroke-width="3" stroke-linecap="round" stroke-linejoin="round" d="M88.223,149.636
				c0.349,0.006,0.7,0.009,1.05,0.009"/>
		</g>
	</g>
	<g>
		<g>
			<path fill="none" stroke="#526E8C" stroke-width="3" stroke-linecap="round" stroke-linejoin="round" d="M25.368,95.568
				c2.569,15.444,10.602,29.041,22.044,38.738"/>
			<g>
				<polygon fill="#526E8C" points="19.379,101.229 25.74,97.766 32.648,99.94 24.487,84.857 				"/>
			</g>
		</g>
	</g>
</g>
<circle fill="#465F7D" cx="89.977" cy="84.961" r="48.158"/>
<circle fill="#FFFFFF" stroke="#26326C" stroke-miterlimit="10" cx="89.977" cy="84.961" r="44.192"/>
<path fill="#A6B1DA" stroke="#26326C" stroke-miterlimit="10" d="M89.977,84.961L67.705,123.13
	c-13.558-7.91-21.92-22.473-21.92-38.169c0-0.09,0-0.179,0-0.269L89.977,84.961z"/>
<path fill="#8BBCE5" stroke="#26326C" stroke-miterlimit="10" d="M89.977,84.961l-0.209-44.192c0.069-0.001,0.14-0.001,0.209-0.001
	c24.244,0,44.192,19.949,44.192,44.193H89.977z"/>
<path fill="#678EB5" stroke="#26326C" stroke-miterlimit="10" d="M89.977,84.961h44.192c0,24.243-19.948,44.191-44.192,44.191
	c-7.801,0-15.465-2.064-22.21-5.986L89.977,84.961z"/>
<path fill="#083C5B" stroke="#26326C" stroke-miterlimit="10" d="M89.977,84.961h44.192c0,3.787-0.486,7.558-1.448,11.221
	s-2.39,7.187-4.25,10.485L89.977,84.961z"/>
<g>
	<path fill="#26326C" d="M90.677,83.753l-17.81-10.281c-0.667-0.384-1.519-0.155-1.904,0.51c-0.385,0.667-0.157,1.519,0.51,1.904
		l17.808,10.282L90.677,83.753z"/>
</g>
<g>
	<path fill="#26326C" d="M119.215,68.887c0.333-0.192,0.447-0.619,0.255-0.951c-0.193-0.333-0.619-0.448-0.953-0.256L89.629,84.358
		l0.697,1.207L119.215,68.887z"/>
</g>
<circle fill="#26326C" cx="89.978" cy="84.961" r="2.788"/>
<path fill="#3A3A3A" d="M99.04,79.301c0.165-0.097,0.379-0.04,0.477,0.125l0,0c0.097,0.167,0.04,0.38-0.127,0.477l-38.354,22.325
	c-0.166,0.097-0.38,0.041-0.476-0.126l0,0c-0.098-0.165-0.041-0.379,0.125-0.477L99.04,79.301z"/>
<circle fill="#3D5066" cx="89.978" cy="84.961" r="1.394"/>
<g>
	<path fill="#26326C" d="M85.623,43.535c-0.094,0.01-0.163,0.095-0.153,0.19l0.146,1.386c0.01,0.095,0.095,0.164,0.189,0.154
		c0.095-0.01,0.164-0.095,0.155-0.19l-0.146-1.387C85.803,43.593,85.718,43.524,85.623,43.535z"/>
	<path fill="#26326C" d="M81.521,44.349c-0.02-0.093-0.111-0.153-0.204-0.133c-0.094,0.02-0.153,0.111-0.133,0.205l0.29,1.364
		c0.02,0.093,0.111,0.152,0.204,0.133c0.093-0.021,0.153-0.111,0.133-0.205L81.521,44.349z"/>
	<path fill="#26326C" d="M77.323,45.456c-0.03-0.09-0.127-0.14-0.218-0.111c-0.091,0.03-0.14,0.126-0.11,0.218l0.431,1.326
		c0.03,0.09,0.127,0.14,0.217,0.111c0.091-0.03,0.141-0.126,0.111-0.218L77.323,45.456z"/>
	<path fill="#26326C" d="M73.264,46.995c-0.039-0.087-0.141-0.126-0.229-0.087c-0.087,0.039-0.126,0.141-0.087,0.228l0.567,1.273
		c0.039,0.088,0.141,0.127,0.228,0.088s0.126-0.141,0.087-0.229L73.264,46.995z"/>
	<path fill="#26326C" d="M65.734,51.299c-0.056-0.078-0.164-0.094-0.241-0.039c-0.077,0.056-0.094,0.164-0.038,0.241l0.819,1.128
		c0.056,0.077,0.164,0.094,0.241,0.038c0.077-0.056,0.095-0.164,0.038-0.241L65.734,51.299z"/>
	<path fill="#26326C" d="M62.349,54.018c-0.064-0.072-0.173-0.078-0.244-0.013c-0.071,0.063-0.076,0.173-0.013,0.244l0.933,1.035
		c0.064,0.071,0.173,0.077,0.244,0.013c0.071-0.064,0.077-0.173,0.013-0.244L62.349,54.018z"/>
	<path fill="#26326C" d="M59.266,57.075c-0.071-0.063-0.18-0.058-0.244,0.013c-0.063,0.071-0.058,0.18,0.014,0.244l1.036,0.933
		c0.071,0.063,0.18,0.058,0.244-0.013c0.064-0.071,0.058-0.18-0.013-0.244L59.266,57.075z"/>
	<path fill="#26326C" d="M56.519,60.438c-0.077-0.056-0.184-0.039-0.241,0.038c-0.056,0.077-0.039,0.186,0.038,0.241l1.128,0.819
		c0.077,0.056,0.185,0.039,0.241-0.038c0.056-0.077,0.039-0.185-0.038-0.241L56.519,60.438z"/>
	<path fill="#26326C" d="M53.425,68.497l-1.274-0.567c-0.087-0.038-0.189,0.001-0.228,0.087c-0.039,0.088,0,0.189,0.087,0.229
		l1.273,0.567c0.087,0.039,0.189,0,0.228-0.087C53.551,68.638,53.512,68.536,53.425,68.497z"/>
	<path fill="#26326C" d="M50.472,72.305l1.326,0.431c0.091,0.03,0.188-0.02,0.218-0.111c0.029-0.09-0.021-0.188-0.111-0.217
		l-1.326-0.431c-0.09-0.03-0.188,0.021-0.217,0.111C50.332,72.179,50.381,72.276,50.472,72.305z"/>
	<path fill="#26326C" d="M49.365,76.504l1.364,0.29c0.093,0.02,0.185-0.04,0.205-0.133c0.02-0.093-0.04-0.184-0.133-0.205
		l-1.364-0.29c-0.093-0.02-0.185,0.04-0.205,0.133C49.212,76.393,49.272,76.485,49.365,76.504z"/>
	<path fill="#26326C" d="M48.704,80.796l1.386,0.146c0.095,0.01,0.18-0.059,0.19-0.154c0.01-0.094-0.059-0.18-0.154-0.189
		l-1.386-0.146c-0.095-0.01-0.18,0.059-0.19,0.154C48.541,80.701,48.609,80.786,48.704,80.796z"/>
	<path fill="#26326C" d="M50.28,89.132c-0.01-0.095-0.095-0.163-0.19-0.153l-1.387,0.146c-0.095,0.01-0.164,0.095-0.154,0.189
		c0.01,0.096,0.095,0.164,0.19,0.154l1.387-0.146C50.221,89.311,50.29,89.227,50.28,89.132z"/>
	<path fill="#26326C" d="M50.934,93.259c-0.02-0.093-0.112-0.153-0.205-0.134l-1.364,0.29c-0.093,0.02-0.153,0.112-0.133,0.205
		s0.112,0.153,0.205,0.133l1.364-0.29C50.894,93.443,50.953,93.353,50.934,93.259z"/>
	<path fill="#26326C" d="M52.015,97.295c-0.029-0.092-0.127-0.141-0.217-0.111l-1.326,0.431c-0.091,0.029-0.14,0.127-0.111,0.218
		s0.126,0.141,0.217,0.11l1.327-0.431C51.995,97.481,52.044,97.385,52.015,97.295z"/>
	<path fill="#26326C" d="M53.284,101.107l-1.274,0.567c-0.086,0.039-0.126,0.142-0.087,0.228c0.039,0.088,0.141,0.126,0.228,0.088
		l1.274-0.567c0.086-0.039,0.126-0.142,0.087-0.228C53.473,101.107,53.371,101.068,53.284,101.107z"/>
	<path fill="#26326C" d="M57.442,108.384l-1.127,0.818c-0.077,0.058-0.095,0.164-0.038,0.241c0.056,0.077,0.164,0.096,0.241,0.038
		l1.127-0.819c0.077-0.056,0.094-0.163,0.039-0.241C57.628,108.345,57.519,108.327,57.442,108.384z"/>
	<path fill="#26326C" d="M60.069,111.656l-1.036,0.932c-0.071,0.064-0.077,0.174-0.013,0.244c0.064,0.07,0.173,0.076,0.244,0.013
		l1.036-0.932c0.07-0.064,0.077-0.173,0.013-0.244C60.25,111.599,60.14,111.593,60.069,111.656z"/>
	<path fill="#26326C" d="M63.023,114.636l-0.933,1.036c-0.064,0.07-0.059,0.18,0.013,0.244c0.071,0.063,0.18,0.058,0.244-0.014
		l0.933-1.035c0.063-0.071,0.058-0.18-0.013-0.244C63.196,114.56,63.087,114.564,63.023,114.636z"/>
	<path fill="#26326C" d="M66.272,117.291l-0.819,1.128c-0.056,0.076-0.039,0.185,0.039,0.24c0.077,0.057,0.185,0.039,0.24-0.037
		l0.82-1.128c0.055-0.077,0.039-0.186-0.039-0.241C66.437,117.196,66.329,117.214,66.272,117.291z"/>
	<path fill="#26326C" d="M73.74,121.425c-0.087-0.038-0.189,0-0.228,0.088l-0.567,1.272c-0.039,0.088,0,0.189,0.087,0.229
		s0.189,0,0.228-0.088l0.567-1.272C73.867,121.565,73.827,121.465,73.74,121.425z"/>
	<path fill="#26326C" d="M77.641,122.923c-0.091-0.03-0.188,0.02-0.218,0.11l-0.431,1.326c-0.03,0.09,0.02,0.188,0.11,0.217
		c0.091,0.03,0.188-0.02,0.218-0.11l0.431-1.326C77.781,123.049,77.731,122.952,77.641,122.923z"/>
	<path fill="#26326C" d="M81.677,124.005c-0.094-0.02-0.185,0.04-0.205,0.133l-0.291,1.362c-0.02,0.094,0.04,0.186,0.133,0.206
		c0.093,0.02,0.185-0.04,0.205-0.134l0.29-1.363C81.829,124.116,81.77,124.025,81.677,124.005z"/>
	<path fill="#26326C" d="M85.803,124.658c-0.095-0.011-0.18,0.059-0.19,0.153l-0.145,1.386c-0.01,0.095,0.059,0.18,0.153,0.189
		c0.095,0.011,0.18-0.059,0.19-0.152l0.146-1.387C85.967,124.753,85.898,124.668,85.803,124.658z"/>
	<path fill="#26326C" d="M94.147,124.658c-0.095,0.01-0.164,0.095-0.153,0.189l0.146,1.387c0.01,0.094,0.095,0.163,0.188,0.153
		c0.095-0.01,0.164-0.096,0.154-0.189l-0.145-1.387C94.327,124.718,94.242,124.648,94.147,124.658z"/>
	<path fill="#26326C" d="M98.479,124.139c-0.021-0.093-0.112-0.152-0.205-0.133s-0.153,0.111-0.133,0.204l0.289,1.363
		c0.02,0.094,0.111,0.153,0.204,0.134c0.094-0.02,0.153-0.112,0.133-0.205L98.479,124.139z"/>
	<path fill="#26326C" d="M102.527,123.035c-0.029-0.09-0.127-0.141-0.218-0.11c-0.091,0.028-0.14,0.126-0.111,0.217l0.431,1.325
		c0.031,0.091,0.128,0.141,0.218,0.111c0.091-0.029,0.141-0.127,0.111-0.217L102.527,123.035z"/>
	<path fill="#26326C" d="M106.438,121.515c-0.039-0.088-0.141-0.127-0.228-0.088c-0.087,0.038-0.126,0.141-0.088,0.228l0.566,1.273
		c0.038,0.088,0.14,0.127,0.228,0.088c0.088-0.038,0.127-0.141,0.088-0.228L106.438,121.515z"/>
	<path fill="#26326C" d="M113.679,117.293c-0.056-0.077-0.164-0.094-0.24-0.038c-0.077,0.057-0.095,0.164-0.038,0.241l0.818,1.128
		c0.056,0.077,0.164,0.094,0.24,0.038c0.078-0.057,0.095-0.164,0.039-0.241L113.679,117.293z"/>
	<path fill="#26326C" d="M116.929,114.639c-0.063-0.071-0.173-0.076-0.243-0.014c-0.072,0.064-0.077,0.174-0.014,0.244l0.933,1.035
		c0.063,0.072,0.173,0.078,0.244,0.015c0.07-0.064,0.076-0.174,0.013-0.244L116.929,114.639z"/>
	<path fill="#26326C" d="M119.884,111.658c-0.072-0.063-0.181-0.058-0.244,0.013c-0.065,0.07-0.059,0.18,0.012,0.244l1.036,0.933
		c0.071,0.064,0.18,0.059,0.244-0.012c0.063-0.071,0.059-0.18-0.014-0.244L119.884,111.658z"/>
	<path fill="#26326C" d="M122.51,108.386c-0.077-0.056-0.185-0.038-0.24,0.038c-0.057,0.077-0.039,0.186,0.038,0.241l1.126,0.819
		c0.078,0.057,0.186,0.039,0.241-0.038c0.057-0.076,0.039-0.185-0.038-0.24L122.51,108.386z"/>
	<path fill="#26326C" d="M127.941,101.677l-1.271-0.566c-0.087-0.039-0.189,0-0.228,0.086c-0.039,0.088,0,0.19,0.088,0.229
		l1.271,0.568c0.087,0.039,0.189,0,0.229-0.088C128.068,101.818,128.029,101.717,127.941,101.677z"/>
	<path fill="#26326C" d="M129.481,97.617l-1.325-0.432c-0.09-0.03-0.188,0.021-0.217,0.11c-0.029,0.092,0.019,0.188,0.11,0.219
		l1.324,0.431c0.091,0.029,0.188-0.02,0.218-0.11C129.621,97.744,129.572,97.647,129.481,97.617z"/>
	<path fill="#26326C" d="M130.588,93.419l-1.363-0.291c-0.093-0.02-0.185,0.04-0.204,0.133s0.04,0.185,0.134,0.205l1.362,0.29
		c0.093,0.02,0.184-0.039,0.203-0.132C130.74,93.531,130.681,93.438,130.588,93.419z"/>
	<path fill="#26326C" d="M131.25,89.128l-1.387-0.147c-0.095-0.01-0.179,0.059-0.188,0.153c-0.011,0.096,0.059,0.18,0.153,0.19
		l1.386,0.146c0.095,0.01,0.18-0.059,0.189-0.153S131.344,89.138,131.25,89.128z"/>
	<path fill="#26326C" d="M129.675,80.79c0.01,0.095,0.095,0.164,0.189,0.153l1.386-0.144c0.094-0.009,0.163-0.094,0.153-0.189
		c-0.009-0.095-0.095-0.164-0.189-0.154l-1.386,0.145C129.733,80.61,129.664,80.694,129.675,80.79z"/>
	<path fill="#26326C" d="M129.021,76.663c0.02,0.094,0.111,0.154,0.204,0.133l1.363-0.289c0.093-0.02,0.152-0.111,0.133-0.204
		c-0.021-0.094-0.111-0.153-0.205-0.133l-1.362,0.289C129.061,76.479,129.001,76.57,129.021,76.663z"/>
	<path fill="#26326C" d="M127.939,72.627c0.03,0.09,0.127,0.14,0.217,0.111l1.327-0.43c0.09-0.03,0.14-0.126,0.11-0.218
		c-0.029-0.09-0.127-0.14-0.218-0.111l-1.325,0.429C127.96,72.439,127.91,72.536,127.939,72.627z"/>
	<path fill="#26326C" d="M126.67,68.814l1.273-0.565c0.088-0.039,0.127-0.141,0.088-0.228c-0.038-0.087-0.141-0.126-0.228-0.087
		l-1.273,0.565c-0.088,0.039-0.127,0.141-0.088,0.229C126.48,68.813,126.583,68.853,126.67,68.814z"/>
	<path fill="#26326C" d="M123.437,60.441l-1.127,0.817c-0.077,0.056-0.095,0.164-0.039,0.241c0.057,0.077,0.163,0.094,0.241,0.038
		l1.128-0.817c0.076-0.056,0.094-0.164,0.039-0.241C123.622,60.402,123.514,60.385,123.437,60.441z"/>
	<path fill="#26326C" d="M120.69,57.078l-1.036,0.931c-0.071,0.064-0.077,0.173-0.013,0.244c0.063,0.071,0.172,0.077,0.243,0.013
		l1.036-0.932c0.07-0.063,0.076-0.173,0.013-0.243C120.871,57.019,120.761,57.013,120.69,57.078z"/>
	<path fill="#26326C" d="M117.608,54.02l-0.935,1.034c-0.064,0.071-0.059,0.18,0.013,0.244c0.07,0.063,0.181,0.058,0.243-0.013
		l0.935-1.035c0.064-0.07,0.059-0.18-0.013-0.244C117.781,53.943,117.672,53.949,117.608,54.02z"/>
	<path fill="#26326C" d="M114.223,51.301l-0.82,1.127c-0.057,0.077-0.04,0.185,0.038,0.241c0.076,0.056,0.185,0.039,0.24-0.039
		l0.82-1.126c0.057-0.077,0.04-0.185-0.038-0.241C114.387,51.207,114.278,51.224,114.223,51.301z"/>
	<path fill="#26326C" d="M106.922,46.908c-0.087-0.039-0.189,0-0.229,0.088l-0.568,1.272c-0.039,0.088,0,0.189,0.088,0.229
		s0.189,0,0.229-0.088l0.566-1.272C107.047,47.048,107.008,46.947,106.922,46.908z"/>
	<path fill="#26326C" d="M102.852,45.346c-0.091-0.03-0.188,0.02-0.218,0.11l-0.432,1.326c-0.03,0.09,0.021,0.188,0.109,0.217
		c0.092,0.03,0.188-0.02,0.218-0.11l0.433-1.326C102.991,45.472,102.942,45.375,102.852,45.346z"/>
	<path fill="#26326C" d="M98.64,44.216c-0.094-0.02-0.186,0.04-0.205,0.133l-0.291,1.363c-0.02,0.093,0.039,0.185,0.133,0.205
		c0.094,0.02,0.186-0.039,0.205-0.132l0.29-1.364C98.792,44.328,98.732,44.236,98.64,44.216z"/>
	<path fill="#26326C" d="M94.333,43.534c-0.094-0.009-0.18,0.059-0.189,0.153l-0.146,1.387c-0.011,0.095,0.059,0.18,0.152,0.19
		c0.095,0.01,0.181-0.059,0.19-0.154l0.146-1.386C94.496,43.628,94.428,43.544,94.333,43.534z"/>
</g>
<g>
	<circle fill="#26326C" cx="130.761" cy="84.961" r="1.222"/>
	<circle fill="#26326C" cx="125.297" cy="64.569" r="1.223"/>
	<circle fill="#26326C" cx="110.369" cy="49.641" r="1.222"/>
	<path fill="#26326C" d="M91.036,44.789c-0.338,0.585-1.086,0.784-1.671,0.446c-0.583-0.337-0.784-1.087-0.447-1.669
		c0.339-0.587,1.085-0.785,1.671-0.449C91.172,43.455,91.375,44.203,91.036,44.789z"/>
	<path fill="#26326C" d="M70.808,49.642c0,0.675-0.547,1.221-1.223,1.221c-0.674,0-1.222-0.547-1.222-1.221
		c0-0.678,0.547-1.223,1.222-1.224C70.259,48.418,70.808,48.965,70.808,49.642z"/>
	<circle fill="#26326C" cx="54.657" cy="64.569" r="1.222"/>
	<path fill="#26326C" d="M49.805,83.902c0.583,0.337,0.784,1.084,0.446,1.669c-0.337,0.584-1.086,0.784-1.668,0.447
		c-0.587-0.337-0.785-1.084-0.448-1.67C48.472,83.766,49.219,83.564,49.805,83.902z"/>
	<path fill="#26326C" d="M54.658,104.13c0.675,0.001,1.221,0.548,1.221,1.225c0,0.673-0.548,1.221-1.221,1.221
		c-0.677,0-1.222-0.547-1.224-1.222C53.435,104.678,53.981,104.131,54.658,104.13z"/>
	<circle fill="#26326C" cx="69.585" cy="120.28" r="1.222"/>
	<path fill="#26326C" d="M88.918,125.132c0.338-0.585,1.084-0.783,1.671-0.445c0.583,0.337,0.784,1.085,0.447,1.669
		c-0.339,0.587-1.086,0.786-1.671,0.448C88.781,126.467,88.581,125.719,88.918,125.132z"/>
	<path fill="#26326C" d="M109.146,120.28c0-0.676,0.547-1.221,1.223-1.222c0.675,0.001,1.222,0.548,1.222,1.222
		c0,0.678-0.545,1.224-1.222,1.224C109.693,121.504,109.147,120.958,109.146,120.28z"/>
	<path fill="#26326C" d="M124.237,105.962c-0.337-0.584-0.135-1.328,0.449-1.667c0.585-0.337,1.331-0.136,1.668,0.446
		c0.339,0.587,0.139,1.332-0.446,1.67C125.323,106.748,124.578,106.548,124.237,105.962z"/>
</g>
<rect x="151.906" y="113.351" fill="#A6B1DA" stroke="#6878BA" stroke-miterlimit="10" width="25.271" height="33.123"/>
<rect x="152.912" y="114.356" fill="#FFFFFF" stroke="#7E8DC6" stroke-miterlimit="10" width="23.26" height="31.111"/>
<rect x="154.367" y="118.664" fill="none" stroke="#204366" stroke-linecap="round" stroke-linejoin="round" stroke-miterlimit="10" width="4.313" height="4.313"/>
<g>
	<rect x="160.171" y="118.607" fill="#DEE1EE" width="14.548" height="1.077"/>
	<rect x="160.171" y="120.282" fill="#DEE1EE" width="12.732" height="1.076"/>
	<rect x="160.171" y="121.957" fill="#DEE1EE" width="10.918" height="1.075"/>
</g>
<g>
	<path fill="#678EB5" d="M156.497,122.17c-0.145,0-0.281-0.065-0.371-0.18l-1.048-1.323c-0.162-0.204-0.128-0.502,0.077-0.664
		c0.206-0.162,0.502-0.128,0.665,0.077l0.621,0.784l2.035-3.434c0.133-0.226,0.424-0.3,0.648-0.166s0.299,0.424,0.165,0.648
		l-2.387,4.025c-0.078,0.134-0.22,0.22-0.375,0.23C156.518,122.17,156.507,122.17,156.497,122.17z"/>
</g>
<rect x="154.367" y="125.375" fill="none" stroke="#204366" stroke-linecap="round" stroke-linejoin="round" stroke-miterlimit="10" width="4.313" height="4.314"/>
<g>
	<rect x="160.171" y="125.32" fill="#DEE1EE" width="14.548" height="1.075"/>
	<rect x="160.171" y="126.994" fill="#DEE1EE" width="12.732" height="1.075"/>
	<rect x="160.171" y="128.669" fill="#DEE1EE" width="10.918" height="1.075"/>
</g>
<g>
	<path fill="#678EB5" d="M156.497,128.882c-0.145,0-0.281-0.065-0.371-0.18l-1.048-1.323c-0.162-0.205-0.128-0.502,0.077-0.665
		c0.206-0.162,0.502-0.126,0.665,0.077l0.621,0.784l2.035-3.433c0.133-0.225,0.424-0.299,0.648-0.166s0.299,0.424,0.165,0.648
		l-2.387,4.024c-0.078,0.135-0.22,0.221-0.375,0.231C156.518,128.882,156.507,128.882,156.497,128.882z"/>
</g>
<rect x="154.367" y="132.088" fill="none" stroke="#204366" stroke-linecap="round" stroke-linejoin="round" stroke-miterlimit="10" width="4.313" height="4.313"/>
<g>
	<rect x="160.171" y="132.031" fill="#DEE1EE" width="14.548" height="1.076"/>
	<rect x="160.171" y="133.706" fill="#DEE1EE" width="12.732" height="1.076"/>
	<rect x="160.171" y="135.38" fill="#DEE1EE" width="10.918" height="1.076"/>
</g>
<g>
	<path fill="#678EB5" d="M156.497,135.594c-0.145,0-0.281-0.065-0.371-0.18l-1.048-1.322c-0.162-0.206-0.128-0.503,0.077-0.665
		c0.206-0.162,0.502-0.128,0.665,0.077l0.621,0.783l2.035-3.434c0.133-0.225,0.424-0.299,0.648-0.165
		c0.225,0.133,0.299,0.423,0.165,0.647l-2.387,4.025c-0.078,0.134-0.22,0.221-0.375,0.231
		C156.518,135.593,156.507,135.594,156.497,135.594z"/>
</g>
<rect x="154.367" y="138.799" fill="none" stroke="#204366" stroke-linecap="round" stroke-linejoin="round" stroke-miterlimit="10" width="4.313" height="4.313"/>
<g>
	<rect x="160.171" y="138.743" fill="#DEE1EE" width="14.548" height="1.076"/>
	<rect x="160.171" y="140.417" fill="#DEE1EE" width="12.732" height="1.077"/>
	<rect x="160.171" y="142.092" fill="#DEE1EE" width="10.918" height="1.076"/>
</g>
<g>
	<path fill="#678EB5" d="M156.497,142.306c-0.145,0-0.281-0.066-0.371-0.18l-1.048-1.323c-0.162-0.205-0.128-0.503,0.077-0.665
		c0.206-0.162,0.502-0.127,0.665,0.077l0.621,0.784l2.035-3.434c0.133-0.225,0.424-0.299,0.648-0.166
		c0.225,0.134,0.299,0.424,0.165,0.648l-2.387,4.026c-0.078,0.133-0.22,0.22-0.375,0.229
		C156.518,142.305,156.507,142.306,156.497,142.306z"/>
</g>
<g>
	<path fill="#A4B4D6" d="M162.267,109.761v3.177c0,0.265,0.214,0.479,0.479,0.479h3.594c0.265,0,0.479-0.215,0.479-0.479v-3.177
		c0-0.266-0.215-0.48-0.479-0.48h-3.594C162.48,109.28,162.267,109.495,162.267,109.761z M165.008,110.766h-0.931
		c-0.266,0-0.479-0.214-0.479-0.479l0,0c0-0.265,0.214-0.479,0.479-0.479h0.931c0.265,0,0.479,0.215,0.479,0.479l0,0
		C165.487,110.552,165.272,110.766,165.008,110.766z"/>
	<path fill="#A4B4D6" d="M169.006,111.522h-8.928c-0.432,0-0.784,0.352-0.784,0.784v2.218c0,0.434,0.353,0.784,0.784,0.784h8.928
		c0.434,0,0.785-0.351,0.785-0.784v-2.218C169.791,111.874,169.439,111.522,169.006,111.522z"/>
</g>
<circle fill="#465F7D" cx="129.433" cy="136.363" r="9.446"/>
<g>
	<g>
		<path fill="#8BBCE5" d="M126.454,136.053c0-1.67,1.374-3.019,3.054-2.979c1.575,0.039,2.86,1.32,2.903,2.896
			c0.02,0.738-0.229,1.417-0.655,1.947c-0.509,0.632-0.801,1.408-0.801,2.219v0.056h-3.045v-0.057c0-0.797-0.27-1.574-0.776-2.188
			C126.709,137.433,126.454,136.772,126.454,136.053z"/>
	</g>
</g>
<g>
	<g>
		<path fill="#465F7D" d="M129.563,140.189h0.173v-2.393c0-0.225,0.183-0.408,0.407-0.408c0.227,0,0.41,0.184,0.41,0.408
			c0,0.226-0.184,0.409-0.41,0.409h-0.193v0.171h0.193c0.321,0,0.581-0.26,0.581-0.58s-0.26-0.581-0.581-0.581
			c-0.319,0-0.58,0.261-0.58,0.581V140.189z"/>
	</g>
</g>
<g>
	<g>
		<path fill="#465F7D" d="M129.121,140.189h0.173v-2.393c0-0.32-0.261-0.581-0.581-0.581s-0.581,0.261-0.581,0.581
			s0.261,0.58,0.581,0.58h0.195v-0.171h-0.195c-0.226,0-0.408-0.184-0.408-0.409c0-0.225,0.183-0.408,0.408-0.408
			c0.225,0,0.408,0.184,0.408,0.408V140.189z"/>
	</g>
</g>
<g>
	<path fill="#26326C" d="M128.642,142.222h1.582c0.396,0,0.718-0.321,0.718-0.718v-1.325h-3.019v1.325
		C127.923,141.9,128.245,142.222,128.642,142.222z"/>
</g>
<g>
	<path fill="#26326C" d="M128.873,142.825h1.12c0.175,0,0.316-0.142,0.316-0.316v-0.329h-1.753v0.329
		C128.557,142.684,128.697,142.825,128.873,142.825z"/>
</g>
<g>
	<line fill="#EBEBEB" stroke="#FFFFFF" stroke-miterlimit="10" x1="133.126" y1="137.495" x2="135.173" y2="138.568"/>
	<line fill="#EBEBEB" stroke="#FFFFFF" stroke-miterlimit="10" x1="133.767" y1="135.117" x2="136.083" y2="134.435"/>
	<line fill="#EBEBEB" stroke="#FFFFFF" stroke-miterlimit="10" x1="132.607" y1="133.009" x2="133.682" y2="131.001"/>
	<line fill="#EBEBEB" stroke="#FFFFFF" stroke-miterlimit="10" x1="129.594" y1="132.27" x2="129.594" y2="129.902"/>
	<line fill="#EBEBEB" stroke="#FFFFFF" stroke-miterlimit="10" x1="125.409" y1="137.495" x2="123.362" y2="138.568"/>
	<line fill="#EBEBEB" stroke="#FFFFFF" stroke-miterlimit="10" x1="125.098" y1="135.117" x2="122.781" y2="134.435"/>
	<line fill="#EBEBEB" stroke="#FFFFFF" stroke-miterlimit="10" x1="126.588" y1="133.009" x2="125.515" y2="131.001"/>
</g>
<circle fill="#465F7D" cx="165.197" cy="94.402" r="9.446"/>
<g>
	<g>
		<path fill-rule="evenodd" clip-rule="evenodd" fill="#C3E0E3" d="M165.197,89.223c-1.849,0-3.345,1.497-3.345,3.343
			c0,1.847,3.123,6.87,3.123,6.87c0.121,0.196,0.316,0.196,0.438,0c0,0,3.129-5.028,3.129-6.87
			C168.542,90.72,167.04,89.223,165.197,89.223L165.197,89.223z M165.197,90.209c1.049,0,1.898,0.848,1.898,1.898
			c0,1.05-0.85,1.903-1.898,1.903c-1.05,0-1.903-0.854-1.903-1.903C163.294,91.057,164.147,90.209,165.197,90.209L165.197,90.209z"
			/>
	</g>
</g>
<circle fill="#688FB5" cx="16.88" cy="67.322" r="9.446"/>
<path fill="#FFFFFF" d="M18.132,68.295c0.349-0.527,0.842-0.883,1.4-1.049c-0.559-0.312-0.896-0.968-0.723-1.678
	c0.129-0.528,0.561-0.954,1.09-1.078c0.978-0.229,1.852,0.512,1.852,1.452c0,0.562-0.314,1.053-0.775,1.308
	c1.041,0.32,1.809,1.313,1.809,2.466v0.792c0,0.288-0.234,0.523-0.523,0.523h-4.008c-0.289,0-0.523-0.235-0.523-0.523v-0.771
	C17.73,69.229,17.851,68.718,18.132,68.295z"/>
<g>
	<path fill="#FFFFFF" d="M10.949,68.295c0.35-0.527,0.842-0.883,1.4-1.049c-0.557-0.312-0.896-0.968-0.723-1.678
		c0.129-0.528,0.561-0.954,1.09-1.078c0.979-0.229,1.852,0.512,1.852,1.452c0,0.562-0.313,1.053-0.773,1.308
		c1.04,0.32,1.808,1.313,1.808,2.466v0.792c0,0.288-0.234,0.523-0.522,0.523h-4.01c-0.289,0-0.522-0.235-0.522-0.523v-0.771
		C10.547,69.229,10.667,68.718,10.949,68.295z"/>
</g>
<path fill="#465F7D" d="M14.558,67.073c0.369-0.359,0.812-0.615,1.291-0.759c-0.57-0.318-0.957-0.927-0.957-1.624
	c0-1.027,0.836-1.861,1.861-1.861c1.026,0,1.861,0.834,1.861,1.861c0,0.701-0.391,1.312-0.965,1.629
	c1.297,0.398,2.254,1.636,2.254,3.074v0.986c0,0.359-0.293,0.652-0.652,0.652h-4.996c-0.359,0-0.651-0.293-0.651-0.652v-1.049
	C13.604,68.473,13.942,67.672,14.558,67.073z"/>
<circle fill="#B5B5B6" stroke="#606161" stroke-miterlimit="10" cx="61.91" cy="28.057" r="9.446"/>
<g>
	<path fill-rule="evenodd" clip-rule="evenodd" fill="#8BBCE5" stroke="#606161" stroke-miterlimit="10" d="M58.029,30.447h0.669
		V27.25c0-2.058,1.369-3.163,2.837-3.322v-1.154c0-0.204,0.171-0.37,0.377-0.37c0.205,0,0.369,0.166,0.369,0.37v1.154
		c1.473,0.16,2.838,1.27,2.838,3.322v3.198h0.67c0.114,0,0.214,0.095,0.214,0.215v1.134c0,0.121-0.1,0.215-0.214,0.215h-2.179
		c0,0.938-0.761,1.699-1.699,1.699c-0.938,0-1.699-0.76-1.699-1.699h-2.178c-0.119,0-0.215-0.094-0.215-0.215v-1.134
		C57.815,30.542,57.915,30.447,58.029,30.447z"/>
</g>
<g>
	<circle fill="#8BBCE5" cx="34.297" cy="51.562" r="4.966"/>
	<circle fill="#465F7D" cx="31.966" cy="50.164" r="4.965"/>
	<path fill-rule="evenodd" clip-rule="evenodd" fill="#FFFFFF" d="M31.226,52.396l-1.807-1.163c-0.201-0.12-0.24-0.362-0.119-0.563
		l0.16-0.24c0.12-0.16,0.362-0.24,0.523-0.121l1.365,0.885l2.406-3.173c0.162-0.201,0.361-0.201,0.564-0.079l0.24,0.16
		c0.16,0.16,0.199,0.4,0.039,0.563l-2.771,3.653c-0.12,0.119-0.28,0.199-0.44,0.119C31.349,52.436,31.308,52.436,31.226,52.396
		L31.226,52.396z"/>
</g>
<circle fill="#465F7D" cx="141.808" cy="112.28" r="6.154"/>
<polygon fill="#FFFFFF" points="143.888,115.316 141.783,113.21 139.678,115.27 138.815,114.407 140.92,112.301 138.815,110.24 
	139.726,109.331 141.783,111.438 143.888,109.331 144.753,110.194 142.692,112.301 144.801,114.407 "/>
<path fill="#8BBCE5" d="M40.287,36.529H6.357c-1.244,0-2.253-1.009-2.253-2.253V10.999c0-1.244,1.009-2.253,2.253-2.253h33.93
	c1.244,0,2.252,1.009,2.252,2.253v23.277C42.539,35.52,41.531,36.529,40.287,36.529z"/>
<rect x="6.133" y="15.625" fill="#FFFFFF" stroke="#6878BA" stroke-miterlimit="10" width="4.203" height="4.203"/>
<rect x="11.162" y="15.625" fill="#FFFFFF" stroke="#6878BA" stroke-miterlimit="10" width="4.203" height="4.203"/>
<rect x="16.191" y="15.625" fill="#FFFFFF" stroke="#6878BA" stroke-miterlimit="10" width="4.203" height="4.203"/>
<rect x="21.22" y="15.625" fill="#FFFFFF" stroke="#6878BA" stroke-miterlimit="10" width="4.203" height="4.203"/>
<rect x="26.25" y="15.625" fill="#FFFFFF" stroke="#6878BA" stroke-miterlimit="10" width="4.202" height="4.203"/>
<rect x="31.278" y="15.625" fill="#FFFFFF" stroke="#6878BA" stroke-miterlimit="10" width="4.203" height="4.203"/>
<rect x="36.307" y="15.625" fill="#4A494A" width="4.203" height="4.203"/>
<g>
	<rect x="6.133" y="13.167" fill="#688FB5" width="4.203" height="1.655"/>
	<rect x="11.162" y="13.167" fill="#688FB5" width="4.203" height="1.655"/>
	<rect x="16.191" y="13.167" fill="#688FB5" width="4.203" height="1.655"/>
	<rect x="21.22" y="13.167" fill="#688FB5" width="4.203" height="1.655"/>
	<rect x="26.25" y="13.167" fill="#688FB5" width="4.202" height="1.655"/>
	<rect x="31.278" y="13.167" fill="#688FB5" width="4.203" height="1.655"/>
	<rect x="36.307" y="13.167" fill="#688FB5" width="4.203" height="1.655"/>
</g>
<rect x="6.133" y="20.569" fill="#FFFFFF" stroke="#6878BA" stroke-miterlimit="10" width="4.203" height="4.203"/>
<rect x="11.162" y="20.569" fill="#FFFFFF" stroke="#6878BA" stroke-miterlimit="10" width="4.203" height="4.203"/>
<rect x="16.191" y="20.569" fill="#FFFFFF" stroke="#6878BA" stroke-miterlimit="10" width="4.203" height="4.203"/>
<rect x="21.22" y="20.569" fill="#FFFFFF" stroke="#6878BA" stroke-miterlimit="10" width="4.203" height="4.203"/>
<rect x="26.25" y="20.569" fill="#FFFFFF" stroke="#6878BA" stroke-miterlimit="10" width="4.202" height="4.203"/>
<rect x="31.278" y="20.569" fill="#FFFFFF" stroke="#6878BA" stroke-miterlimit="10" width="4.203" height="4.203"/>
<rect x="36.307" y="20.569" fill="#4A494A" width="4.203" height="4.203"/>
<rect x="6.133" y="25.512" fill="#FFFFFF" stroke="#6878BA" stroke-miterlimit="10" width="4.203" height="4.203"/>
<rect x="11.162" y="25.512" fill="#FFFFFF" stroke="#6878BA" stroke-miterlimit="10" width="4.203" height="4.203"/>
<rect x="16.191" y="25.512" fill="#FFFFFF" stroke="#6878BA" stroke-miterlimit="10" width="4.203" height="4.203"/>
<rect x="21.22" y="25.512" fill="#FFFFFF" stroke="#6878BA" stroke-miterlimit="10" width="4.203" height="4.203"/>
<rect x="26.25" y="25.512" fill="#FFFFFF" stroke="#6878BA" stroke-miterlimit="10" width="4.202" height="4.203"/>
<rect x="31.278" y="25.512" fill="#FFFFFF" stroke="#6878BA" stroke-miterlimit="10" width="4.203" height="4.203"/>
<rect x="36.307" y="25.512" fill="#4A494A" width="4.203" height="4.203"/>
<rect x="6.133" y="30.456" fill="#FFFFFF" stroke="#6878BA" stroke-miterlimit="10" width="4.203" height="4.203"/>
<rect x="11.162" y="30.456" fill="#FFFFFF" stroke="#6878BA" stroke-miterlimit="10" width="4.203" height="4.203"/>
<rect x="16.191" y="30.456" fill="#FFFFFF" stroke="#6878BA" stroke-miterlimit="10" width="4.203" height="4.203"/>
<rect x="21.22" y="30.456" fill="#FFFFFF" stroke="#6878BA" stroke-miterlimit="10" width="4.203" height="4.203"/>
<rect x="26.25" y="30.456" fill="#FFFFFF" stroke="#6878BA" stroke-miterlimit="10" width="4.202" height="4.203"/>
<rect x="31.278" y="30.456" fill="#FFFFFF" stroke="#6878BA" stroke-miterlimit="10" width="4.203" height="4.203"/>
<rect x="36.307" y="30.456" fill="#4A494A" width="4.203" height="4.203"/>
<polygon fill="#4A494A" points="8.912,18.701 8.227,18.016 7.542,18.686 7.261,18.405 7.947,17.72 7.261,17.049 7.558,16.754 
	8.227,17.44 8.912,16.754 9.193,17.036 8.522,17.72 9.208,18.405 "/>
<polygon fill="#4A494A" points="23.998,23.65 23.314,22.965 22.628,23.635 22.348,23.354 23.033,22.669 22.348,22 22.644,21.704 
	23.314,22.389 23.998,21.704 24.279,21.985 23.609,22.669 24.294,23.354 "/>
<polygon fill="#4A494A" points="13.941,28.586 13.255,27.901 12.572,28.571 12.291,28.292 12.975,27.606 12.291,26.936 
	12.586,26.64 13.255,27.326 13.941,26.64 14.222,26.92 13.551,27.606 14.237,28.292 "/>
<g>
	<path fill="#256194" stroke="#26326C" stroke-miterlimit="10" d="M8.025,10.909H7.826c-0.404,0-0.73-0.326-0.73-0.73v-2.57
		c0-0.402,0.326-0.729,0.73-0.729h0.199c0.403,0,0.73,0.326,0.73,0.729v2.57C8.755,10.583,8.428,10.909,8.025,10.909z"/>
	<path fill="#256194" stroke="#26326C" stroke-miterlimit="10" d="M11.105,10.909h-0.201c-0.402,0-0.729-0.326-0.729-0.73v-2.57
		c0-0.402,0.326-0.729,0.729-0.729h0.201c0.402,0,0.729,0.326,0.729,0.729v2.57C11.833,10.583,11.507,10.909,11.105,10.909z"/>
	<path fill="#256194" stroke="#26326C" stroke-miterlimit="10" d="M14.183,10.909h-0.199c-0.403,0-0.73-0.326-0.73-0.73v-2.57
		c0-0.402,0.327-0.729,0.73-0.729h0.199c0.403,0,0.73,0.326,0.73,0.729v2.57C14.914,10.583,14.586,10.909,14.183,10.909z"/>
	<path fill="#256194" stroke="#26326C" stroke-miterlimit="10" d="M17.263,10.909h-0.2c-0.403,0-0.729-0.326-0.729-0.73v-2.57
		c0-0.402,0.326-0.729,0.729-0.729h0.2c0.402,0,0.729,0.326,0.729,0.729v2.57C17.993,10.583,17.666,10.909,17.263,10.909z"/>
	<path fill="#256194" stroke="#26326C" stroke-miterlimit="10" d="M20.342,10.909h-0.2c-0.402,0-0.729-0.326-0.729-0.73v-2.57
		c0-0.402,0.327-0.729,0.729-0.729h0.2c0.403,0,0.729,0.326,0.729,0.729v2.57C21.072,10.583,20.746,10.909,20.342,10.909z"/>
	<path fill="#256194" stroke="#26326C" stroke-miterlimit="10" d="M23.421,10.909h-0.199c-0.403,0-0.73-0.326-0.73-0.73v-2.57
		c0-0.402,0.327-0.729,0.73-0.729h0.199c0.403,0,0.73,0.326,0.73,0.729v2.57C24.152,10.583,23.825,10.909,23.421,10.909z"/>
	<path fill="#256194" stroke="#26326C" stroke-miterlimit="10" d="M26.501,10.909H26.3c-0.402,0-0.729-0.326-0.729-0.73v-2.57
		c0-0.402,0.326-0.729,0.729-0.729h0.201c0.402,0,0.729,0.326,0.729,0.729v2.57C27.23,10.583,26.904,10.909,26.501,10.909z"/>
	<path fill="#256194" stroke="#26326C" stroke-miterlimit="10" d="M29.58,10.909H29.38c-0.403,0-0.73-0.326-0.73-0.73v-2.57
		c0-0.402,0.327-0.729,0.73-0.729h0.199c0.403,0,0.73,0.326,0.73,0.729v2.57C30.31,10.583,29.983,10.909,29.58,10.909z"/>
	<path fill="#256194" stroke="#26326C" stroke-miterlimit="10" d="M32.66,10.909H32.46c-0.404,0-0.73-0.326-0.73-0.73v-2.57
		c0-0.402,0.326-0.729,0.73-0.729h0.199c0.402,0,0.729,0.326,0.729,0.729v2.57C33.389,10.583,33.062,10.909,32.66,10.909z"/>
	<path fill="#256194" stroke="#26326C" stroke-miterlimit="10" d="M35.74,10.909h-0.201c-0.402,0-0.729-0.326-0.729-0.73v-2.57
		c0-0.402,0.326-0.729,0.729-0.729h0.201c0.402,0,0.729,0.326,0.729,0.729v2.57C36.468,10.583,36.142,10.909,35.74,10.909z"/>
	<path fill="#256194" stroke="#26326C" stroke-miterlimit="10" d="M38.818,10.909h-0.199c-0.403,0-0.73-0.326-0.73-0.73v-2.57
		c0-0.402,0.327-0.729,0.73-0.729h0.199c0.404,0,0.73,0.326,0.73,0.729v2.57C39.548,10.583,39.222,10.909,38.818,10.909z"/>
</g>
</svg>
