<?xml version="1.0" encoding="utf-8"?>
<!-- Generator: Adobe Illustrator 16.0.0, SVG Export Plug-In . SVG Version: 6.00 Build 0)  -->
<!DOCTYPE svg PUBLIC "-//W3C//DTD SVG 1.1//EN" "http://www.w3.org/Graphics/SVG/1.1/DTD/svg11.dtd">
<svg version="1.1" id="Layer_1" xmlns="http://www.w3.org/2000/svg" xmlns:xlink="http://www.w3.org/1999/xlink" x="0px" y="0px"
	 width="200px" height="177.5px" viewBox="0 0 200 177.5" enable-background="new 0 0 200 177.5" xml:space="preserve">
<g>
	<path fill="#C8D6D3" d="M134.519,9.871c-1.15-0.812-2.391-1.483-3.728-1.944c-1.968-0.678-4.074-0.875-6.156-0.875
		c-9.813,0-19.302,4.312-26.803,10.639c-5.105,4.307-9.369,9.517-13.029,15.084c-3.324,5.055-5.261,11.001-8.855,15.816
		c-5.991,8.023-16.053,11.776-25.731,14.346c-9.678,2.569-19.853,4.495-28.05,10.245C13.772,79.07,8.284,88.617,6.387,98.693
		c-4.494,23.856,11.315,49.949,34.697,56.698c19.276,5.563,40.956,7.294,60.965,7.275c14.837-0.015,29.759-1.139,44.272-4.328
		c12.021-2.643,24.623-5.811,34.492-13.556c11.583-9.088,16.24-23.973,13.571-38.274c-1.929-10.337-6.539-20.159-13.257-28.248
		c-3.296-3.968-7.069-7.508-10.538-11.329c-5.423-5.978-10.086-12.646-13.84-19.792c-5.727-10.902-9.437-23.045-17.292-32.53
		C138.004,12.855,136.374,11.18,134.519,9.871z"/>
</g>
<g opacity="0.2278">
	<path fill="#B0D7EE" d="M112.465,20.029c-1.132-0.519-2.314-0.902-3.549-1.087c-1.817-0.271-3.675-0.103-5.482,0.232
		c-8.515,1.58-16.055,6.85-21.543,13.547c-3.737,4.559-6.597,9.767-8.877,15.187c-2.07,4.921-2.794,10.393-5.138,15.149
		c-3.906,7.927-12.032,12.804-20.017,16.591c-7.984,3.786-16.502,7.097-22.689,13.406c-6.335,6.461-9.56,15.629-9.584,24.677
		c-0.058,21.424,17.861,41.52,39.236,43.61c17.622,1.725,36.712-0.264,54.072-3.502c12.871-2.401,25.638-5.779,37.718-10.885
		c10.006-4.227,20.43-9.006,27.746-17.314c8.587-9.751,10.232-23.417,5.613-35.397c-3.338-8.657-8.919-16.438-16.05-22.375
		c-3.498-2.914-7.346-5.377-10.967-8.133c-5.67-4.314-10.791-9.35-15.198-14.947c-6.724-8.537-11.899-18.476-20.24-25.441
		C115.968,22.057,114.285,20.866,112.465,20.029z"/>
</g>
<path opacity="0.5307" fill="#B0D7EE" d="M65.901,49.587c-0.15,0.201-0.29,0.409-0.411,0.628c-0.308,0.563-0.483,1.186-0.656,1.803
	c-0.795,2.845-1.792,4.976-4.943,5.668c-2.134,0.468-4.796-0.053-5.84-2.185c-0.625-1.252-0.513-2.753-0.122-4.096
	c0.729-2.5,2.366-4.68,4.402-6.303c2.037-1.622,4.458-2.711,6.958-3.436c0.289-0.083,0.586-0.164,0.885-0.138
	c0.333,0.027,0.643,0.184,0.91,0.384c0.935,0.7,1.378,1.936,1.3,3.102c-0.077,1.167-0.619,2.264-1.338,3.185
	C66.679,48.671,66.26,49.109,65.901,49.587z"/>
<path opacity="0.5307" fill="#B0D7EE" d="M70.262,36.298c-0.582,1.08-1.506,1.738-1.484,2.965c0.028,1.581,1.568,3.303,3.221,2.496
	c0.533-0.26,0.948-0.717,1.268-1.216c0.617-0.964,0.913-2.187,0.561-3.274c-0.462-1.428-2.813-2.807-3.655-0.936"/>
<g opacity="0.5307">
	<g>
		<path fill="#B0D7EE" d="M152.247,22.325c1.064,11.787,5.25,22.363,12.582,31.655c3.647,4.622,8.06,8.608,12.218,12.756
			c2.061,2.055,4.053,4.164,5.892,6.421c1.667,2.046,2.771,4.846,4.98,6.349c0.772,0.523,1.809-0.176,1.811-1.04
			c0.007-2.403-1.662-4.375-3.021-6.231c-1.647-2.249-3.517-4.327-5.442-6.338c-3.871-4.044-8.14-7.681-11.96-11.777
			c-8.118-8.701-13.78-20.277-16.015-31.936C153.179,21.598,152.193,21.728,152.247,22.325L152.247,22.325z"/>
	</g>
</g>
<g opacity="0.5307">
	<g>
		<path fill="#B0D7EE" d="M38.876,61.073c-3.921,0.036-7.848,1.495-11.411,3.034c-3.823,1.651-7.503,3.63-10.787,6.208
			c-3,2.356-5.611,5.036-7.902,8.083c-2.121,2.821-4.688,6.737-4.667,10.386c0.005,0.942,1.165,1.141,1.66,0.449
			c1.946-2.714,2.959-6.045,4.879-8.838c2.01-2.924,4.589-5.445,7.332-7.677c3.017-2.455,6.459-4.411,9.96-6.077
			c3.646-1.735,7.638-2.721,11.188-4.638C39.57,61.767,39.365,61.069,38.876,61.073L38.876,61.073z"/>
	</g>
</g>
<g>
	<path fill="#A3B3D6" d="M76.984,120.54c4.07,7.145,6.514,15.19,7.217,23.378c0.206,2.394,0.252,4.802,0.155,7.203
		c-0.078,1.925,0.156,3.952-1.376,5.377c-0.735,0.685-1.647,1.143-2.557,1.57c-2.62,1.232-5.325,2.283-8.09,3.142
		c-2.485,0.77-4.956,0.948-7.542,1.237c-3.06,0.342-6.151,0.235-9.229,0.132c-3.852-0.132-7.737-0.269-11.476-1.205
		c-3.739-0.935-7.369-2.744-9.829-5.71c-1.714-2.066-2.816-4.863-2.109-7.452c0.376-1.378,1.229-2.583,2.217-3.615
		c1.455-1.521,3.234-2.729,5.185-3.523c2.896-1.18,6.659-1.917,7.563-4.909c0.754-2.495-1.049-4.943-2.375-7.187
		c-1.325-2.245-1.991-5.641,0.204-7.046c1.713-1.099,4.135-0.181,5.922-1.154c2.416-1.315,2.037-4.832,1.422-7.514
		c-0.764-3.334-1.365-6.703-1.798-10.095c-0.352-2.739-0.185-6.233,2.355-7.317c2.626-1.12,5.347,1.408,6.778,3.879
		c1.424,2.456,2.476,5.129,3.11,7.897c0.483,2.106,0.752,4.337,1.926,6.153c2.149,3.323,4.359,1.361,7.208,1.969
		C74.223,116.253,75.791,118.445,76.984,120.54z"/>
</g>
<g>
	<path fill="#678EB5" d="M77.616,160.004c-0.066,0.061-0.136,0.119-0.209,0.178c-3.35,2.677-8.136-0.6-11.412-2.044
		c-4.4-1.938-9.583-3.657-13.382-6.585c-0.684-0.528-1.4-1.204-1.4-2.068c0-0.818,0.696-1.514,1.48-1.746
		c0.785-0.232,1.631-0.09,2.418,0.135c0.297,0.085,0.621,0.181,0.908,0.064c0.425-0.171,0.552-0.752,0.378-1.175
		c-0.174-0.424-0.559-0.72-0.936-0.979c-2.973-2.044-6.499-3.125-9.629-4.917c-2.786-1.597-5.878-4.419-6.445-7.777
		c-0.547-3.248,2.721-5.435,2.98-8.669c0.198-2.483-1.312-4.731-2.505-6.918c-1.193-2.189-2.097-4.967-0.77-7.076
		c1.611-2.563,5.643-2.397,8.04-0.55c2.398,1.849,3.646,4.771,5.06,7.445c1.128,2.135,2.987,5.479,4.935,6.959
		c1.037,0.789,2.569,1.083,3.637,0.338c0.672-0.469,1.048-1.251,1.607-1.849c2.059-2.207,6.09-1.128,7.719,1.412
		c1.628,2.54,1.431,5.835,0.761,8.776c-0.29,1.271-0.658,2.582-0.394,3.858s1.425,2.483,2.711,2.275
		c0.802-0.132,1.471-0.768,2.282-0.815c0.963-0.056,1.794,0.771,2.089,1.688c0.295,0.918,0.185,1.909,0.104,2.869
		c-0.278,3.25-0.146,6.522,0.368,9.744C78.415,155.107,79.831,158.003,77.616,160.004z"/>
</g>
<path opacity="0.382" fill="#716EB3" d="M42.887,112.984c2.369,7.425,5.641,14.453,9.866,20.972c0.052,0.27,0.105,0.536,0.157,0.807
	c0.045,0.237,0.346,0.29,0.496,0.161c0.236,0.354,0.471,0.707,0.712,1.058c-3.633-2.582-7.266-4.946-10.277-8.36
	c-0.184-0.209-0.511,0.068-0.33,0.281c3.184,3.707,6.898,7.528,11.513,9.408c0.008,0.004,0.013-0.002,0.02,0
	c4.964,6.948,11.099,13.898,18.292,18.532c0.308,0.199,0.749-0.235,0.453-0.503c-3.303-2.998-6.542-5.94-9.612-9.044
	c0.076-6.229-1.463-12.87-4.146-18.479c-0.072-0.152-0.342-0.077-0.289,0.094c1.829,5.891,3,11.641,3.794,17.72
	c-2.767-2.842-5.395-5.825-7.786-9.129c-0.809-1.117-1.584-2.261-2.343-3.414c-0.389-5.116-2.376-10.163-4.896-14.545
	c-0.104-0.181-0.39-0.051-0.296,0.142c1.973,4.061,3.09,8.229,3.994,12.539c-3.608-5.785-6.593-11.975-8.846-18.394
	C43.267,112.563,42.8,112.714,42.887,112.984z"/>
<g>
	<path fill="#678EB5" d="M134.318,102.604c1.324-1.695,2.697-3.433,4.57-4.491c1.872-1.059,4.391-1.276,6.082,0.054
		c0.904,0.71,1.467,1.763,1.984,2.791c1.688,3.354,3.185,6.803,4.48,10.328c1.533,4.173,3.285,8.988,7.467,10.499
		c3.139,1.135,6.832-0.004,9.836,1.447c3.545,1.711,4.627,6.222,4.729,10.154c0.104,3.933-0.282,8.159,1.777,11.509
		c2.173,3.535,6.964,6.072,6.472,10.193c-0.337,2.816-3.146,4.647-5.838,5.544c-10.936,3.646-22.843-1.548-34.329-0.589
		c-4.084,0.341-8.828,1.257-11.762-1.606c-1.389-1.355-2.014-3.294-2.511-5.17c-4.216-15.948-2.398-33.414,5.006-48.153"/>
</g>
<g>
	<path fill="#A3B3D6" d="M129.543,151.747c0.307-0.815,6.621-2.221,7.657-2.605c2.528-0.939,5.033-1.945,7.505-3.023
		c4.41-1.917,9.603-3.611,13.416-6.521c0.686-0.523,1.406-1.197,1.41-2.062c0.003-0.817-0.688-1.517-1.471-1.753
		c-0.785-0.235-1.631-0.1-2.418,0.123c-0.299,0.083-0.622,0.178-0.91,0.06c-0.423-0.173-0.549-0.754-0.371-1.176
		c0.175-0.424,0.562-0.717,0.938-0.974c2.985-2.03,6.515-3.094,9.654-4.872c2.792-1.582,5.899-4.391,6.481-7.745
		c0.564-3.245-2.695-5.447-2.937-8.684c-0.187-2.484,1.333-4.725,2.537-6.906s2.122-4.956,0.806-7.071
		c-1.601-2.57-5.633-2.425-8.038-0.59c-2.406,1.838-3.669,4.754-5.096,7.423c-1.14,2.128-3.014,5.464-4.968,6.935
		c-1.04,0.783-2.573,1.07-3.639,0.32c-0.672-0.473-1.044-1.255-1.6-1.859c-2.046-2.215-6.084-1.154-7.725,1.379
		c-1.642,2.53-1.461,5.825-0.804,8.771c0.282,1.272,0.645,2.585,0.376,3.86c-0.272,1.275-1.437,2.476-2.725,2.261
		c-0.8-0.134-1.467-0.773-2.278-0.825c-0.962-0.062-1.796,0.762-2.097,1.678c-0.299,0.916-0.194,1.907-0.116,2.868
		C133.741,138.286,132.154,144.811,129.543,151.747z"/>
</g>
<path opacity="0.382" fill="#716EB3" d="M168.034,101.076c-2.406,7.414-5.711,14.424-9.97,20.924
	c-0.052,0.27-0.107,0.536-0.158,0.807c-0.048,0.236-0.349,0.288-0.497,0.158c-0.238,0.354-0.475,0.705-0.719,1.054
	c3.646-2.565,7.292-4.91,10.318-8.311c0.186-0.208,0.511,0.071,0.33,0.281c-3.202,3.694-6.936,7.496-11.559,9.355
	c-0.008,0.003-0.014-0.003-0.02,0c-4.998,6.923-11.168,13.844-18.381,18.443c-0.311,0.196-0.749-0.239-0.452-0.506
	c3.316-2.982,6.572-5.908,9.658-8.997c-0.046-6.23,1.523-12.864,4.234-18.461c0.074-0.151,0.343-0.073,0.289,0.098
	c-1.857,5.882-3.055,11.625-3.88,17.701c2.779-2.829,5.423-5.799,7.831-9.091c0.813-1.114,1.594-2.253,2.357-3.404
	c0.416-5.113,2.427-10.15,4.968-14.521c0.105-0.181,0.389-0.049,0.294,0.144c-1.991,4.051-3.128,8.213-4.052,12.52
	c3.635-5.768,6.647-11.942,8.934-18.352C167.655,100.653,168.121,100.805,168.034,101.076z"/>
<g>
	<g>
		<path fill="#CCC8B6" d="M128.643,142.869c7.211-5.614,13.515-12.125,18.575-19.758c5.014-7.557,8.791-15.914,11.248-24.64
			c1.463-5.2,2.875-10.745,2.104-16.171c-0.073-0.506,0.66-0.729,0.79-0.207c1.146,4.619-0.088,9.582-1.223,14.088
			c-1.145,4.548-2.647,9-4.484,13.314c-3.661,8.613-8.688,16.679-14.983,23.615c-3.475,3.83-7.331,7.379-11.595,10.314
			C128.749,143.651,128.324,143.116,128.643,142.869L128.643,142.869z"/>
	</g>
	<path fill="#CCC8B6" d="M161.255,90.561c-0.427-2.142-0.854-4.285-1.28-6.426c-0.36-1.81-0.682-3.837,0.339-5.373
		c0.09-0.133,0.2-0.271,0.356-0.302c0.23-0.048,0.437,0.146,0.579,0.332c1.15,1.489,1.347,3.529,1.036,5.386
		c-0.311,1.855-0.579,4.614-1.183,6.396"/>
	<path fill="#CCC8B6" d="M159.377,98.98c2.986-1.139,5.602-3.225,7.379-5.881c0.259-0.387,0.507-0.869,0.318-1.294
		c-0.227-0.516-0.945-0.587-1.484-0.421c-0.922,0.283-1.642,0.995-2.293,1.704c-1.486,1.617-2.837,3.359-4.031,5.201"/>
	<path fill="#CCC8B6" d="M156.397,107.499c3.124-1.191,5.863-3.375,7.724-6.157c0.271-0.403,0.53-0.909,0.336-1.354
		c-0.24-0.539-0.991-0.613-1.555-0.44c-0.966,0.297-1.718,1.043-2.402,1.785c-1.556,1.692-2.97,3.516-4.219,5.443"/>
	<path fill="#CCC8B6" d="M151.598,117.018c3.341-0.136,6.634-1.334,9.281-3.379c0.384-0.298,0.793-0.693,0.747-1.18
		c-0.054-0.586-0.743-0.896-1.333-0.911c-1.008-0.025-1.96,0.442-2.844,0.929c-2.012,1.108-3.932,2.388-5.732,3.818"/>
	<path fill="#CCC8B6" d="M160.047,93.835c-1.81-2.19-2.92-4.951-3.13-7.786c-0.03-0.412-0.011-0.895,0.32-1.142
		c0.404-0.299,0.988-0.038,1.333,0.324c0.589,0.624,0.835,1.491,1.027,2.326c0.439,1.902,0.722,3.842,0.838,5.79"/>
	<path fill="#CCC8B6" d="M157.498,102.214c-2.162-2.615-3.487-5.91-3.737-9.293c-0.036-0.492-0.013-1.068,0.383-1.363
		c0.48-0.357,1.18-0.047,1.593,0.389c0.701,0.744,0.992,1.777,1.225,2.774c0.526,2.272,0.861,4.586,1,6.914"/>
	<path fill="#CCC8B6" d="M153.824,111.234c-2.162-2.614-3.486-5.91-3.737-9.294c-0.034-0.492-0.012-1.068,0.385-1.361
		c0.478-0.358,1.179-0.048,1.59,0.388c0.703,0.745,0.995,1.777,1.226,2.775c0.527,2.271,0.86,4.586,1.002,6.912"/>
	<path fill="#CCC8B6" d="M149.058,120.602c-2.159-2.615-3.485-5.911-3.735-9.295c-0.036-0.492-0.013-1.068,0.382-1.362
		c0.481-0.356,1.183-0.047,1.592,0.389c0.703,0.744,0.994,1.778,1.227,2.776c0.526,2.27,0.859,4.585,1,6.911"/>
</g>
<g>
	<g>
		<path fill="#CCC8B6" d="M70.222,153.474c-6.229-2.083-12.258-4.467-17.991-7.704c-5.647-3.19-10.945-6.999-15.766-11.339
			c-2.925-2.633-5.533-5.398-7.425-8.877c-0.213-0.391-0.918-0.147-0.754,0.294c1.167,3.144,3.55,5.666,5.953,7.928
			c2.412,2.271,4.963,4.4,7.612,6.39c5.35,4.016,11.149,7.44,17.272,10.14c3.518,1.549,7.156,2.934,10.894,3.851
			C70.462,154.264,70.658,153.62,70.222,153.474L70.222,153.474z"/>
	</g>
	<path fill="#CCC8B6" d="M33.295,132.735c-0.894-1.993-1.788-3.986-2.681-5.979c-0.755-1.682-1.668-3.52-3.391-4.181
		c-0.149-0.058-0.32-0.104-0.466-0.039c-0.215,0.095-0.27,0.37-0.279,0.605c-0.074,1.88,0.949,3.657,2.278,4.988
		c1.329,1.332,3.146,3.426,4.672,4.526"/>
	<path fill="#CCC8B6" d="M39.708,138.507c-3.094,0.803-6.435,0.621-9.423-0.515c-0.435-0.165-0.917-0.415-1.011-0.869
		c-0.113-0.553,0.431-1.025,0.966-1.204c0.916-0.303,1.914-0.14,2.857,0.06c2.148,0.456,4.257,1.092,6.299,1.9"/>
	<path fill="#CCC8B6" d="M47.074,143.721c-3.238,0.84-6.736,0.649-9.864-0.539c-0.454-0.173-0.959-0.434-1.057-0.91
		c-0.119-0.578,0.451-1.074,1.011-1.26c0.958-0.317,2.003-0.147,2.991,0.062c2.249,0.479,4.457,1.145,6.594,1.991"/>
	<path fill="#CCC8B6" d="M56.503,148.693c-2.803,1.827-6.18,2.76-9.522,2.627c-0.486-0.019-1.048-0.105-1.292-0.525
		c-0.296-0.511,0.085-1.163,0.558-1.517c0.807-0.605,1.853-0.776,2.856-0.892c2.283-0.264,4.588-0.334,6.883-0.212"/>
	<path fill="#CCC8B6" d="M36.177,134.702c0.205-2.833-0.491-5.727-1.963-8.158c-0.214-0.354-0.51-0.735-0.923-0.743
		c-0.501-0.012-0.828,0.541-0.897,1.037c-0.119,0.85,0.184,1.696,0.511,2.49c0.743,1.806,1.639,3.548,2.674,5.203"/>
	<path fill="#CCC8B6" d="M43.113,140.053c0.246-3.383-0.586-6.837-2.344-9.739c-0.255-0.423-0.607-0.878-1.1-0.889
		c-0.599-0.013-0.99,0.646-1.072,1.239c-0.141,1.013,0.22,2.025,0.61,2.972c0.887,2.156,1.957,4.236,3.192,6.212"/>
	<path fill="#CCC8B6" d="M51.336,145.273c0.245-3.385-0.586-6.838-2.344-9.74c-0.255-0.422-0.608-0.878-1.101-0.889
		c-0.598-0.012-0.989,0.647-1.072,1.239c-0.141,1.015,0.22,2.026,0.61,2.972c0.888,2.156,1.957,4.236,3.192,6.213"/>
	<path fill="#CCC8B6" d="M60.647,150.143c0.246-3.384-0.585-6.837-2.343-9.739c-0.256-0.422-0.608-0.878-1.101-0.889
		c-0.599-0.012-0.989,0.646-1.071,1.239c-0.142,1.013,0.22,2.025,0.61,2.973c0.888,2.155,1.956,4.235,3.192,6.211"/>
</g>
<g>
	<g>
		<path fill="#CCC8B6" d="M70.954,139.918c-3.902-5.284-7.467-10.699-10.298-16.642c-2.791-5.855-4.938-12.018-6.39-18.34
			c-0.882-3.835-1.427-7.597-0.977-11.531c0.05-0.44-0.666-0.648-0.786-0.193c-0.851,3.244-0.349,6.678,0.318,9.91
			c0.669,3.246,1.535,6.452,2.561,9.604c2.07,6.358,4.85,12.495,8.311,18.22c1.989,3.29,4.171,6.514,6.703,9.412
			C70.695,140.702,71.228,140.288,70.954,139.918L70.954,139.918z"/>
	</g>
	<path fill="#CCC8B6" d="M52.646,101.728c0.412-2.145,0.826-4.289,1.239-6.434c0.349-1.812,0.658-3.841-0.372-5.37
		c-0.09-0.134-0.203-0.27-0.36-0.301c-0.23-0.045-0.434,0.149-0.576,0.336c-1.14,1.496-1.324,3.538-1.001,5.392
		c0.323,1.854,0.607,4.611,1.223,6.389"/>
	<path fill="#CCC8B6" d="M54.578,110.137c-2.993-1.12-5.624-3.188-7.417-5.835c-0.261-0.385-0.513-0.865-0.328-1.292
		c0.225-0.517,0.942-0.593,1.482-0.431c0.924,0.278,1.647,0.984,2.305,1.69c1.496,1.607,2.857,3.34,4.063,5.175"/>
	<path fill="#CCC8B6" d="M57.612,118.635c-3.133-1.171-5.887-3.338-7.764-6.106c-0.273-0.403-0.537-0.907-0.342-1.353
		c0.235-0.542,0.985-0.621,1.551-0.451c0.967,0.291,1.725,1.031,2.413,1.77c1.566,1.682,2.991,3.497,4.254,5.417"/>
	<path fill="#CCC8B6" d="M62.471,128.123c-3.343-0.114-6.643-1.293-9.303-3.32c-0.387-0.295-0.797-0.688-0.755-1.174
		c0.05-0.588,0.737-0.901,1.327-0.92c1.009-0.031,1.963,0.428,2.85,0.911c2.02,1.095,3.948,2.362,5.756,3.781"/>
	<path fill="#CCC8B6" d="M53.874,104.994c1.797-2.202,2.889-4.971,3.081-7.806c0.028-0.412,0.005-0.895-0.328-1.138
		c-0.404-0.299-0.989-0.034-1.331,0.333c-0.585,0.628-0.824,1.493-1.013,2.33c-0.429,1.905-0.697,3.847-0.801,5.797"/>
	<path fill="#CCC8B6" d="M56.477,113.358c2.145-2.629,3.45-5.935,3.677-9.319c0.034-0.491,0.006-1.068-0.391-1.36
		c-0.482-0.353-1.181-0.039-1.589,0.399c-0.698,0.749-0.984,1.784-1.209,2.783c-0.511,2.274-0.832,4.592-0.956,6.919"/>
	<path fill="#CCC8B6" d="M60.207,122.355c2.146-2.629,3.45-5.934,3.678-9.319c0.033-0.492,0.007-1.068-0.391-1.359
		c-0.482-0.354-1.18-0.039-1.588,0.398c-0.699,0.749-0.984,1.784-1.208,2.783c-0.512,2.274-0.832,4.591-0.957,6.919"/>
	<path fill="#CCC8B6" d="M65.032,131.69c2.145-2.629,3.449-5.934,3.678-9.318c0.033-0.492,0.006-1.067-0.391-1.36
		c-0.483-0.353-1.181-0.038-1.589,0.399c-0.698,0.749-0.984,1.784-1.208,2.784c-0.511,2.273-0.832,4.59-0.956,6.918"/>
</g>
<g>
	<g>
		<path fill="#CCC8B6" d="M147.479,137.889c5.005,0.424,10.149-0.061,15.071-0.997c5.025-0.956,9.938-2.473,14.623-4.523
			c2.568-1.125,5.313-2.404,7.113-4.63c0.253-0.313-0.17-0.681-0.459-0.413c-3.717,3.441-8.749,5.285-13.502,6.815
			c-4.72,1.52-9.602,2.513-14.539,2.96c-2.759,0.247-5.511,0.263-8.274,0.255C147.21,137.354,147.17,137.862,147.479,137.889
			L147.479,137.889z"/>
	</g>
	<path fill="#CCC8B6" d="M179.058,131.424c1.121-1.213,2.247-2.427,3.369-3.638c0.95-1.025,2.052-2.123,3.448-2.181
		c0.121-0.004,0.253,0.003,0.343,0.086c0.131,0.12,0.104,0.331,0.055,0.503c-0.403,1.365-1.569,2.393-2.844,3.025
		c-1.276,0.634-3.088,1.695-4.448,2.115"/>
	<path fill="#CCC8B6" d="M173.055,134.011c2.025,1.325,4.469,2.005,6.887,1.914c0.35-0.013,0.758-0.075,0.935-0.378
		c0.216-0.369-0.059-0.842-0.401-1.099c-0.581-0.438-1.338-0.564-2.065-0.65c-1.649-0.192-3.318-0.246-4.977-0.161"/>
	<path fill="#CCC8B6" d="M166.508,135.966c2.12,1.388,4.677,2.1,7.208,2.005c0.368-0.015,0.795-0.079,0.979-0.397
		c0.225-0.387-0.065-0.879-0.419-1.148c-0.611-0.46-1.404-0.591-2.162-0.681c-1.729-0.202-3.475-0.259-5.214-0.171"/>
	<path fill="#CCC8B6" d="M158.538,137.25c1.568,1.989,3.767,3.477,6.196,4.192c0.353,0.103,0.775,0.178,1.054-0.063
		c0.337-0.297,0.221-0.855-0.032-1.225c-0.433-0.629-1.141-1.007-1.833-1.332c-1.573-0.742-3.211-1.351-4.888-1.819"/>
	<path fill="#CCC8B6" d="M176.511,132.137c0.541-2.082,1.74-3.99,3.385-5.377c0.24-0.202,0.545-0.403,0.844-0.31
		c0.361,0.113,0.463,0.589,0.393,0.962c-0.122,0.638-0.543,1.173-0.97,1.661c-0.972,1.115-2.036,2.148-3.18,3.086"/>
	<path fill="#CCC8B6" d="M170.239,134.295c0.645-2.487,2.077-4.764,4.041-6.42c0.285-0.241,0.649-0.482,1.005-0.369
		c0.433,0.135,0.553,0.703,0.469,1.147c-0.145,0.762-0.647,1.4-1.158,1.985c-1.158,1.331-2.429,2.564-3.796,3.683"/>
	<path fill="#CCC8B6" d="M163.074,136.048c0.646-2.486,2.078-4.764,4.042-6.419c0.285-0.242,0.649-0.483,1.005-0.371
		c0.433,0.137,0.553,0.703,0.469,1.148c-0.145,0.762-0.647,1.399-1.156,1.985c-1.16,1.33-2.433,2.563-3.796,3.683"/>
	<path fill="#CCC8B6" d="M155.215,137.285c0.642-2.488,2.078-4.764,4.042-6.42c0.283-0.24,0.647-0.482,1.004-0.371
		c0.432,0.137,0.554,0.704,0.468,1.148c-0.145,0.763-0.649,1.4-1.158,1.986c-1.159,1.33-2.428,2.564-3.794,3.682"/>
</g>
<circle fill="#FFFFFF" cx="150.836" cy="52.159" r="3.386"/>
<circle fill="#F6B225" cx="136.131" cy="90.787" r="1.675"/>
<circle fill="#47607F" cx="38.344" cy="94.734" r="3.386"/>
<circle fill="#FFFFFF" cx="28.642" cy="114.708" r="1.797"/>
<circle fill="#A3B3D6" cx="48.963" cy="87.622" r="2.28"/>
<circle fill="#333D4A" cx="149.438" cy="76.245" r="2.106"/>
<circle fill="#47607F" cx="180.011" cy="114.993" r="3.388"/>
<circle fill="#A3B3D6" cx="22.018" cy="133.877" r="1.676"/>
<circle fill="#FFFFFF" cx="166.09" cy="122.86" r="1.675"/>
<circle fill="#E6E6E5" cx="184.646" cy="133.362" r="1.676"/>
<circle fill="#333D4A" cx="21.006" cy="90.607" r="1.675"/>
<circle fill="#E6E6E5" cx="160.831" cy="116.996" r="1.675"/>
<path fill="#455E7C" d="M143.883,55.385v107.639H63.266V55.385c0-2.816,2.286-5.097,5.102-5.097h70.414
	C141.597,50.288,143.883,52.569,143.883,55.385z"/>
<path fill="#3B5268" d="M143.883,55.385v107.639h-3.799V58.676c0-2.816-2.285-5.098-5.101-5.098H64.569
	c-0.347,0-0.685,0.035-1.009,0.101c0.702-1.979,2.592-3.391,4.808-3.391h70.414C141.597,50.288,143.883,52.569,143.883,55.385z"/>
<rect x="69.748" y="58.243" fill="#FFFFFF" width="67.655" height="93.827"/>
<rect x="72.016" y="60.575" opacity="0.1822" fill="#DBDDDC" width="63.118" height="34.285"/>
<rect x="71.941" y="60.437" fill="none" stroke="#DBDDDC" stroke-width="1.0706" stroke-miterlimit="10" width="63.267" height="89.439"/>
<path fill="#E6E6E5" d="M121.573,49.779v7.479H85.576v-7.479c0-1.847,1.496-3.339,3.338-3.339h29.32
	C120.076,46.44,121.573,47.933,121.573,49.779z"/>
<circle fill="#8BBCE5" cx="103.574" cy="45.82" r="4.05"/>
<circle fill="#E2E1F1" cx="103.575" cy="45.82" r="1.69"/>
<path fill="#A3B3D6" d="M121.573,51.188v6.071H85.576v-6.333c0.504,0.258,1.009,0.579,1.316,0.689
	c1.185,0.425,2.417,0.741,3.649,0.986c2.782,0.544,5.628,0.657,8.458,0.768c3.696,0.143,7.514,0.111,11.24-0.258
	C114.072,52.73,117.771,51.734,121.573,51.188z"/>
<path opacity="0.5" fill="#455E7C" enable-background="new    " d="M126.564,59.622H80.789c-0.968,0-1.752-0.785-1.752-1.752v-0.247
	c0-0.968,0.784-1.752,1.752-1.752h45.775c0.967,0,1.752,0.784,1.752,1.752v0.247C128.316,58.837,127.531,59.622,126.564,59.622z"/>
<path fill="#DBDDDC" d="M84.871,108.567h-3.272c-0.988,0-1.788-0.801-1.788-1.788v-3.272c0-0.987,0.8-1.789,1.788-1.789h3.272
	c0.987,0,1.787,0.802,1.787,1.789v3.272C86.658,107.767,85.858,108.567,84.871,108.567z"/>
<path fill="#DBDDDC" d="M84.871,118.869h-3.272c-0.988,0-1.788-0.801-1.788-1.788v-3.272c0-0.988,0.8-1.788,1.788-1.788h3.272
	c0.987,0,1.787,0.8,1.787,1.788v3.272C86.658,118.068,85.858,118.869,84.871,118.869z"/>
<path fill="#DBDDDC" d="M84.871,129.171h-3.272c-0.988,0-1.788-0.802-1.788-1.788v-3.271c0-0.988,0.8-1.79,1.788-1.79h3.272
	c0.987,0,1.787,0.802,1.787,1.79v3.271C86.658,128.369,85.858,129.171,84.871,129.171z"/>
<path fill="#DBDDDC" d="M126.711,104.232h-35.81c-0.347,0-0.627-0.281-0.627-0.628v-0.088c0-0.346,0.28-0.628,0.627-0.628h35.81
	c0.347,0,0.626,0.282,0.626,0.628v0.088C127.337,103.951,127.058,104.232,126.711,104.232z"/>
<path fill="#DBDDDC" d="M126.711,107.639h-35.81c-0.347,0-0.627-0.281-0.627-0.627v-0.088c0-0.348,0.28-0.627,0.627-0.627h35.81
	c0.347,0,0.626,0.279,0.626,0.627v0.088C127.337,107.357,127.058,107.639,126.711,107.639z"/>
<path fill="#DBDDDC" d="M126.711,114.811h-35.81c-0.347,0-0.627-0.281-0.627-0.627v-0.089c0-0.347,0.28-0.627,0.627-0.627h35.81
	c0.347,0,0.626,0.28,0.626,0.627v0.089C127.337,114.529,127.058,114.811,126.711,114.811z"/>
<path fill="#DBDDDC" d="M126.711,118.217h-35.81c-0.347,0-0.627-0.281-0.627-0.628v-0.087c0-0.346,0.28-0.628,0.627-0.628h35.81
	c0.347,0,0.626,0.282,0.626,0.628v0.087C127.337,117.936,127.058,118.217,126.711,118.217z"/>
<path fill="#DBDDDC" d="M126.711,125.389h-35.81c-0.347,0-0.627-0.281-0.627-0.627v-0.089c0-0.347,0.28-0.626,0.627-0.626h35.81
	c0.347,0,0.626,0.279,0.626,0.626v0.089C127.337,125.107,127.058,125.389,126.711,125.389z"/>
<path fill="#DBDDDC" d="M126.711,128.795h-35.81c-0.347,0-0.627-0.279-0.627-0.626v-0.089c0-0.347,0.28-0.628,0.627-0.628h35.81
	c0.347,0,0.626,0.281,0.626,0.628v0.089C127.337,128.516,127.058,128.795,126.711,128.795z"/>
<polyline fill="none" stroke="#90BA3E" stroke-width="2" stroke-linecap="round" stroke-linejoin="round" stroke-miterlimit="10" points="
	79.841,102.783 83.589,106.166 91.451,97.024 "/>
<polyline fill="none" stroke="#90BA3E" stroke-width="2" stroke-linecap="round" stroke-linejoin="round" stroke-miterlimit="10" points="
	79.841,112.875 83.589,116.257 91.451,107.116 "/>
<polyline fill="none" stroke="#90BA3E" stroke-width="2" stroke-linecap="round" stroke-linejoin="round" stroke-miterlimit="10" points="
	79.841,122.967 83.589,126.348 91.451,117.207 "/>
<g>
	<path fill="#E29266" d="M91.078,143.354c0.582-0.526,1.254-1.055,2.042-1.065c0.489,0,0.954,0.198,1.41,0.375
		c4.342,1.679,8.206,2.062,12.789,1.91c3.254-0.107,7.606,0.54,10.157,2.784c0.277,0.25,0.546,0.522,0.758,0.832
		c0.509,0.76,0.638,1.744,0.413,2.632c-0.019,0.085-0.038,0.166-0.066,0.247c-0.194,0.586-0.539,1.121-0.979,1.56
		c-0.19,0.188-0.516,0.342-0.67,0.546c-0.208,0.287-0.18,0.191,0.076,0.356c0.497,0.328,1.085,0.405,1.562,0.829
		c0.391,0.348,0.699,0.785,0.855,1.291c0.563,1.854-0.547,3.415-1.68,3.641c1.152,0.06,2.472,1.086,2.689,2.343
		c0.171,0.996-0.446,2.229-1.222,2.842c-0.586,0.463-1.638,0.424-1.773,0.993c-0.133,0.557,0.932,1.134,0.675,1.881
		c-0.339,0.985-2.607,1.518-3.473,1.731c-4.832,1.203-8.582-2.013-13.106-4.094c-2.947-1.355-4.436-2.244-7.016-4.209
		c-2.396-1.827-7.452-1.97-9.805-3.853c-2.15-1.72-0.763-3.521,0.383-5.75c0.038-0.084,0.079-0.165,0.123-0.248
		c0.31-0.594,0.642-1.169,0.993-1.736C87.555,147.031,89.193,145.056,91.078,143.354z"/>
</g>
<g>
	<path fill="#B4B4B4" d="M94.068,143.49c-0.017,0.294-0.118,0.585-0.219,0.863c-0.513,1.467-1.096,2.883-1.728,4.269
		c-0.733,1.611-1.532,3.181-2.365,4.734c-0.935,1.75-1.917,3.482-2.9,5.229c-0.245,0.435-0.513,0.896-0.96,1.118
		c-0.531,0.268-1.167,0.137-1.742,0c-0.61-0.148-1.22-0.293-1.82-0.435c-0.535-0.127-1.066-0.267-1.597-0.415
		c-5.869-1.624-11.388-4.304-17.046-6.563c-4.417-1.764-8.834-3.549-13.212-5.408c-0.776-0.334-1.355-0.974-1.615-1.733
		c-0.166-0.482-0.21-1.009-0.104-1.535c0.71-3.47,2.202-8.265,5.338-13.222c1.193-1.89,2.628-3.807,4.351-5.685
		c0.909-0.995,2.374-1.241,3.559-0.605c0.487,0.263,0.974,0.53,1.46,0.795c6.488,3.513,12.984,7.009,19.384,10.686
		c2.351,1.355,4.702,2.723,6.993,4.185c0.465,0.294,0.921,0.587,1.377,0.89C92.418,141.442,94.152,142.056,94.068,143.49z"/>
</g>
<g>
	<path fill="#EFBA92" d="M116.465,164.318c0,0-0.526,0.213-1.336,0.354c-0.808,0.159-1.896,0.238-2.986,0.199
		c-0.544-0.037-1.09-0.093-1.596-0.172c-0.508-0.103-0.977-0.221-1.37-0.342c-0.79-0.293-1.265-0.583-1.265-0.583
		s0.575-0.058,1.364-0.023c0.405-0.018,0.869-0.016,1.361,0.01c0.499-0.013,1.024,0.027,1.554,0.042
		c0.53,0.022,1.059,0.063,1.557,0.104c0.499,0.04,0.966,0.098,1.367,0.154C115.918,164.173,116.465,164.318,116.465,164.318z"/>
</g>
<g>
	<path fill="#EFBA92" d="M116.245,158.992c0,0-0.586,0.174-1.468,0.255c-0.441,0.047-0.958,0.077-1.511,0.087
		c-0.555,0.028-1.142-0.038-1.729-0.078c-0.586-0.066-1.173-0.13-1.717-0.228c-0.272-0.042-0.534-0.139-0.781-0.207
		c-0.248-0.07-0.479-0.148-0.69-0.223c-0.85-0.289-1.374-0.569-1.374-0.569s0.623-0.066,1.494-0.034
		c0.438,0.007,0.935,0.057,1.471,0.098c0.545,0.006,1.12,0.054,1.696,0.098c1.146,0.136,2.297,0.262,3.162,0.445
		C115.663,158.809,116.245,158.992,116.245,158.992z"/>
</g>
<g>
	<path fill="#EFBA92" d="M115.627,153.437c0,0-0.54,0.182-1.356,0.269c-0.409,0.051-0.888,0.086-1.401,0.1
		c-0.514,0.033-1.057-0.036-1.603-0.068c-0.543-0.063-1.087-0.122-1.59-0.216c-0.505-0.132-0.97-0.279-1.359-0.424
		c-0.784-0.278-1.265-0.553-1.265-0.553s0.58-0.073,1.387-0.049c0.406,0.006,0.869,0.036,1.359,0.091
		c0.504,0.002,1.035,0.046,1.567,0.085c0.53,0.066,1.06,0.133,1.557,0.195c0.498,0.061,0.963,0.14,1.363,0.228
		C115.086,153.261,115.627,153.437,115.627,153.437z"/>
</g>
<g>
	<path fill="#EDEDED" d="M94.068,143.49c-0.017,0.294-0.118,0.585-0.219,0.863c-0.513,1.467-1.096,2.883-1.728,4.269
		c-0.733,1.611-1.532,3.181-2.365,4.734c-0.935,1.75-1.917,3.482-2.9,5.229c-0.245,0.435-0.513,0.896-0.96,1.118
		c-0.531,0.268-1.167,0.137-1.742,0c-0.61-0.148-1.22-0.293-1.82-0.435c-0.535-0.127-1.066-0.267-1.597-0.415
		c2.768-4.353,7.313-13.964,9.107-19.087c0.465,0.294,0.921,0.587,1.377,0.89C92.418,141.442,94.152,142.056,94.068,143.49z"/>
</g>
<path fill="#494741" d="M89.757,153.356c-0.935,1.75-1.917,3.482-2.9,5.229c-0.245,0.435-0.513,0.896-0.96,1.118
	c-0.531,0.268-1.167,0.137-1.742,0c-0.61-0.148-1.22-0.293-1.82-0.435c-6.475-1.553-12.476-4.519-18.643-6.979
	c-4.417-1.764-8.834-3.549-13.212-5.408c-0.776-0.334-1.355-0.974-1.615-1.733c-0.166-0.482-0.21-1.009-0.104-1.535
	c0.71-3.47,2.202-8.265,5.338-13.222C59.068,136.011,73.956,151.369,89.757,153.356z"/>
<g>
	<path fill="#EFBA92" d="M125.88,160.275c-3.253,0.291-6.471,1.474-8.979,3.573c-2.447,2.051-4.375,4.639-6.78,6.733
		c-1.06,0.921-2.475,1.785-3.787,1.293c-0.707-0.266-1.249-0.927-1.368-1.672c-0.136-0.847,0.818-2.105,0.818-2.105
		s-1.062,0.383-1.591,0.585c-0.435,0.164-0.874,0.331-1.336,0.396c-0.461,0.065-0.95,0.021-1.353-0.214
		c-0.484-0.284-0.788-0.82-0.876-1.375c-0.069-0.428,0.216-2.049,0.216-2.049s-0.872,0.403-1.166,0.589
		c-0.565,0.356-1.239,0.583-1.903,0.497c-0.663-0.087-1.301-0.533-1.491-1.174c-0.09-0.303-0.078-0.628-0.041-0.94
		c0.124-1.051,0.6-2.543,1.397-3.282c-0.43,0.397-0.872,0.598-1.292,1.048c-0.437,0.469-0.92,0.907-1.527,1.144
		c-2.038,0.79-2.744-1.057-2.288-2.653c0.603-2.112,1.386-3.85,2.861-5.52c1.489-1.687,3.271-3.084,4.917-4.616
		c1.126-1.048,2.193-2.163,3.4-3.114c5.526-4.353,13.929-4.82,20.657-4.194c0.064-0.136,0.223-0.255,0.381-0.232
		c0.188,0.026,0.339,0.161,0.455,0.318c0.421,0.045,0.848,0.098,1.276,0.154l-1.152,0.026c0.009,0.01,0.017,0.022,0.021,0.031
		c1.01,1.636,1.821,3.392,2.423,5.215c0.03,0.079,0.056,0.158,0.082,0.242c0.19,0.583,0.353,1.172,0.497,1.767
		c0.503,2.081,2.03,7.906-0.592,9.173C127.182,160.197,126.521,160.218,125.88,160.275z"/>
</g>
<g>
	<path fill="#045683" d="M166.571,147.597c0.07,1.341-0.781,2.562-2.067,2.956c-0.529,0.162-1.061,0.325-1.592,0.487
		c-7.054,2.154-14.107,4.329-21.212,6.308c-3.147,0.872-6.302,1.725-9.494,2.404c-1.4,0.303-3.054,1.105-4.014,0.039
		c-0.198-0.22-0.333-0.495-0.465-0.764c-0.68-1.395-1.281-2.803-1.824-4.229c-1.343-3.505-2.356-7.093-3.404-10.737
		c-0.137-0.479-0.278-0.996-0.124-1.471c0.182-0.565,0.724-0.925,1.225-1.241c0.532-0.328,1.062-0.662,1.587-0.99
		c5.646-3.523,11.972-5.718,18.051-8.383c4.357-1.914,8.729-3.805,13.126-5.619c0.784-0.321,1.646-0.281,2.369,0.064
		c0.459,0.22,0.869,0.557,1.166,1.005C162.628,131.488,166.11,138.389,166.571,147.597z"/>
</g>
<path opacity="0.4342" fill="#045683" d="M166.571,147.597c0.07,1.341-0.781,2.562-2.067,2.956
	c-0.529,0.162-1.061,0.325-1.592,0.487c-7.054,2.154-14.107,4.329-21.212,6.308c-3.147,0.872-6.302,1.725-9.494,2.404
	c-1.4,0.303-3.054,1.105-4.014,0.039c-0.198-0.22-0.333-0.495-0.465-0.764c-0.68-1.395-1.281-2.803-1.824-4.229
	c0.315-0.367,0.653-0.706,1.013-1.017c1.903-1.642,4.28-2.603,6.553-3.681c7.905-3.755,14.976-9.26,20.556-16.003
	c1.914-2.315,3.019-5.706,4.708-7.677c0.459,0.22,0.869,0.557,1.166,1.005C162.628,131.488,166.11,138.389,166.571,147.597z"/>
<g>
	<circle fill="#057DA4" cx="135.486" cy="154.499" r="1.463"/>
	<circle fill="#057DA4" cx="140.173" cy="153.264" r="1.462"/>
	<circle opacity="0.4342" fill="#045683" cx="140.172" cy="153.27" r="0.897"/>
	<circle opacity="0.4342" fill="#045683" cx="135.42" cy="154.513" r="0.896"/>
</g>
<g>
	<path fill="#EFBA92" d="M97.638,161.131c0,0,0.218-0.523,0.686-1.2c0.454-0.687,1.161-1.518,1.954-2.268
		c0.409-0.361,0.831-0.711,1.243-1.016c0.43-0.29,0.843-0.541,1.205-0.737c0.764-0.356,1.303-0.491,1.303-0.491
		s-0.362,0.45-0.94,0.988c-0.271,0.301-0.599,0.63-0.962,0.963c-0.342,0.365-0.738,0.711-1.121,1.078
		c-0.388,0.361-0.788,0.709-1.166,1.037c-0.378,0.326-0.747,0.618-1.069,0.865C98.125,160.843,97.638,161.131,97.638,161.131z"/>
</g>
<g>
	<path fill="#EFBA92" d="M100.778,165.521c0,0,0.205-0.579,0.667-1.349c0.222-0.391,0.511-0.825,0.845-1.271
		c0.319-0.459,0.725-0.896,1.116-1.346c0.408-0.434,0.855-0.838,1.278-1.204c0.207-0.189,0.446-0.336,0.655-0.487
		c0.21-0.151,0.417-0.284,0.607-0.404c0.185-0.127,0.394-0.199,0.56-0.279c0.169-0.079,0.32-0.137,0.443-0.186
		c0.247-0.096,0.39-0.14,0.39-0.14s-0.099,0.123-0.275,0.319c-0.089,0.094-0.196,0.209-0.32,0.34
		c-0.121,0.134-0.271,0.257-0.413,0.426c-0.281,0.342-0.63,0.701-0.998,1.095c-0.348,0.421-0.765,0.814-1.146,1.252
		c-0.403,0.417-0.806,0.835-1.185,1.227c-0.385,0.388-0.756,0.742-1.081,1.042C101.271,165.154,100.778,165.521,100.778,165.521z"/>
</g>
<g>
	<path fill="#EFBA92" d="M105.697,168.14c0,0,0.141-0.54,0.521-1.255c0.178-0.364,0.424-0.764,0.708-1.179
		c0.271-0.427,0.634-0.824,0.973-1.241c0.372-0.39,0.764-0.766,1.146-1.096c0.409-0.311,0.804-0.579,1.151-0.79
		c0.75-0.37,1.274-0.508,1.274-0.508s-0.348,0.455-0.894,0.989c-0.248,0.31-0.547,0.648-0.881,0.989
		c-0.303,0.381-0.663,0.745-1.003,1.133c-0.343,0.387-0.703,0.757-1.035,1.115c-0.335,0.355-0.664,0.676-0.948,0.952
		C106.137,167.799,105.697,168.14,105.697,168.14z"/>
</g>
<g opacity="0.4342">
	<g>
		<path fill="#045683" d="M127.313,142.565c0.506,4.717,1.956,9.66,4.659,13.611c0.223,0.325,0.701,0.046,0.527-0.309
			c-2.139-4.361-3.936-8.556-4.94-13.336C127.53,142.395,127.298,142.424,127.313,142.565L127.313,142.565z"/>
	</g>
</g>
<path opacity="0.2077" fill="#3E3E3E" d="M117.632,144.374c0.606,0.13,1.256,0.304,1.631,0.794c0.579,0.757,0.183,1.928-0.579,2.501
	c-0.76,0.571-1.752,0.705-2.697,0.817c-3.914,0.471-7.852,0.93-11.8,0.802c-1.999-0.064-3.968-0.309-5.926-0.713
	c-0.597-0.123-1.707-0.232-2.045-0.852c-0.373-0.681,0.401-1.383,0.887-1.768c1.893-1.498,4.081-2.658,6.437-3.182
	c1.178-0.26,2.392-0.355,3.594-0.267c1.2,0.09,2.254,0.586,3.41,0.766C112.904,143.64,115.272,143.864,117.632,144.374z"/>
<path fill="#E29266" d="M117.01,143.067c0.611,0.082,1.274,0.204,1.688,0.663c0.636,0.708,0.333,1.908-0.379,2.539
	c-0.715,0.631-1.695,0.841-2.629,1.028c-3.863,0.776-7.751,1.545-11.699,1.729c-1.996,0.093-3.979,0.004-5.962-0.244
	c-0.604-0.076-1.722-0.099-2.107-0.688c-0.425-0.648,0.291-1.408,0.746-1.83c1.769-1.645,3.858-2.973,6.167-3.679
	c1.152-0.354,2.356-0.545,3.562-0.55c1.202-0.005,2.292,0.406,3.457,0.494C112.238,142.708,114.617,142.745,117.01,143.067z"/>
<path opacity="0.6674" fill="#045683" d="M130.008,140.388c-0.535,0.534-1.048,1.382-0.593,1.985
	c0.25,0.329,0.699,0.429,1.111,0.451c1.099,0.062,2.183-0.251,3.232-0.588c3.371-1.083,6.655-2.432,9.813-4.033
	c1.311-0.665,4.813-2.488,3.83-4.486c-0.95-1.931-3.914-0.142-5.181,0.347C137.957,135.709,133.334,137.078,130.008,140.388z"/>
<path fill="#9E9C8D" d="M65.494,132.768c-0.747-0.121-1.733-0.038-1.954,0.686c-0.121,0.396,0.063,0.817,0.286,1.164
	c0.596,0.927,1.486,1.619,2.375,2.271c2.855,2.094,5.877,3.96,9.028,5.574c1.308,0.672,4.841,2.436,5.88,0.467
	c1.004-1.903-2.184-3.25-3.323-3.988C73.951,136.451,70.126,133.517,65.494,132.768z"/>
<path fill="#E29266" d="M121.365,163.677c0.322,0.628,0.703,1.265,1.326,1.676c0.625,0.413,1.557,0.534,2.168,0.108
	c0.722-0.503,0.695-1.468,0.539-2.271c-0.305-1.555-0.85-3.074-1.613-4.5c-0.356-0.665-0.852-1.373-1.657-1.547
	c-1.515-0.325-2.599,1.273-2.438,2.438C119.87,160.899,120.749,162.476,121.365,163.677z"/>
<path fill="#E29266" d="M117.819,165.719c0.323,0.708,0.702,1.425,1.327,1.89s1.555,0.603,2.168,0.122
	c0.722-0.568,0.695-1.656,0.537-2.561c-0.303-1.754-0.848-3.465-1.613-5.072c-0.356-0.751-0.85-1.549-1.657-1.745
	c-1.513-0.367-2.599,1.438-2.438,2.748C116.325,162.588,117.202,164.365,117.819,165.719z"/>
<path fill="#E29266" d="M114.465,167.407c0.293,0.638,0.634,1.285,1.198,1.704c0.562,0.421,1.403,0.545,1.954,0.111
	c0.653-0.513,0.629-1.494,0.485-2.311c-0.272-1.582-0.764-3.127-1.455-4.577c-0.322-0.677-0.768-1.397-1.495-1.575
	c-1.366-0.329-2.343,1.298-2.2,2.481C113.116,164.582,113.908,166.186,114.465,167.407z"/>
<path fill="#E29266" d="M112.046,170.879c0.145,0.194,0.319,0.347,0.533,0.423c0.279,0.1,0.588,0.103,0.886,0.084
	c0.363-0.019,0.733-0.07,1.051-0.245c0.404-0.222,0.687-0.629,0.804-1.072c0.36-1.345-0.529-3.077-1.093-4.262
	c-0.322-0.675-0.768-1.396-1.495-1.573c-1.366-0.33-2.345,1.296-2.2,2.479c0.108,0.884,0.436,1.734,0.783,2.549
	C111.506,169.713,111.697,170.415,112.046,170.879z"/>
<text transform="matrix(1 0 0 1 83.3511 82.8184)" fill="#010101" font-family="'Tahoma'" font-size="6.9167">agreement</text>
</svg>
