<?xml version="1.0" encoding="utf-8"?>
<!-- Generator: Adobe Illustrator 16.0.0, SVG Export Plug-In . SVG Version: 6.00 Build 0)  -->
<!DOCTYPE svg PUBLIC "-//W3C//DTD SVG 1.1//EN" "http://www.w3.org/Graphics/SVG/1.1/DTD/svg11.dtd">
<svg version="1.1" id="Layer_1" xmlns="http://www.w3.org/2000/svg" xmlns:xlink="http://www.w3.org/1999/xlink" x="0px" y="0px"
	 width="384px" height="350px" viewBox="0 0 384 350" enable-background="new 0 0 384 350" xml:space="preserve">
<radialGradient id="SVGID_1_" cx="318.1445" cy="329.4023" r="42.4882" gradientTransform="matrix(1 0 0 0.1594 0 276.9042)" gradientUnits="userSpaceOnUse">
	<stop  offset="0.0194" style="stop-color:#D6D7D9"/>
	<stop  offset="0.8614" style="stop-color:#D6D7D9;stop-opacity:0.1413"/>
	<stop  offset="1" style="stop-color:#D6D7D9;stop-opacity:0"/>
</radialGradient>
<ellipse opacity="0.6" fill="url(#SVGID_1_)" cx="318.145" cy="329.403" rx="43.287" ry="7.478"/>
<radialGradient id="SVGID_2_" cx="192.0029" cy="329.9844" r="42.4882" gradientTransform="matrix(1 0 0 0.1594 0 277.3935)" gradientUnits="userSpaceOnUse">
	<stop  offset="0.0194" style="stop-color:#D6D7D9"/>
	<stop  offset="0.8614" style="stop-color:#D6D7D9;stop-opacity:0.1413"/>
	<stop  offset="1" style="stop-color:#D6D7D9;stop-opacity:0"/>
</radialGradient>
<ellipse opacity="0.6" fill="url(#SVGID_2_)" cx="192.003" cy="329.985" rx="43.287" ry="7.478"/>
<radialGradient id="SVGID_3_" cx="66.0029" cy="329.9844" r="42.4882" gradientTransform="matrix(1 0 0 0.1594 0 277.3935)" gradientUnits="userSpaceOnUse">
	<stop  offset="0.0194" style="stop-color:#D6D7D9"/>
	<stop  offset="0.8614" style="stop-color:#D6D7D9;stop-opacity:0.1413"/>
	<stop  offset="1" style="stop-color:#D6D7D9;stop-opacity:0"/>
</radialGradient>
<ellipse opacity="0.6" fill="url(#SVGID_3_)" cx="66.003" cy="329.985" rx="43.287" ry="7.478"/>
<radialGradient id="SVGID_4_" cx="190.4878" cy="137.0469" r="53.7122" gradientTransform="matrix(1 0 0 0.1594 0 115.2052)" gradientUnits="userSpaceOnUse">
	<stop  offset="0.0194" style="stop-color:#D6D7D9"/>
	<stop  offset="0.8614" style="stop-color:#D6D7D9;stop-opacity:0.1413"/>
	<stop  offset="1" style="stop-color:#D6D7D9;stop-opacity:0"/>
</radialGradient>
<ellipse opacity="0.6" fill="url(#SVGID_4_)" cx="190.488" cy="137.048" rx="54.722" ry="9.453"/>
<g>
	<g>
		<path fill="#3A4F66" d="M69.239,182.801c0,1.87-1.517,3.381-3.383,3.381c-1.869,0-3.382-1.511-3.382-3.381
			c0-1.87,1.513-3.38,3.382-3.38C67.722,179.421,69.239,180.932,69.239,182.801z"/>
		<path fill="#3A4F66" d="M79.75,182.801c0,1.87-1.513,3.381-3.383,3.381c-1.869,0-3.382-1.511-3.382-3.381
			c0-1.87,1.513-3.38,3.382-3.38C78.237,179.421,79.75,180.932,79.75,182.801z"/>
		<path fill="#3A4F66" d="M90.262,182.801c0,1.87-1.513,3.381-3.382,3.381c-1.867,0-3.383-1.511-3.383-3.381
			c0-1.87,1.517-3.38,3.383-3.38C88.749,179.421,90.262,180.932,90.262,182.801z"/>
		<path fill="#3A4F66" d="M100.774,182.801c0,1.87-1.514,3.381-3.383,3.381c-1.867,0-3.38-1.511-3.38-3.381
			c0-1.87,1.513-3.38,3.38-3.38C99.26,179.421,100.774,180.932,100.774,182.801z"/>
		<path fill="#3A4F66" d="M111.285,182.801c0,1.87-1.514,3.381-3.383,3.381c-1.866,0-3.38-1.511-3.38-3.381
			c0-1.87,1.514-3.38,3.38-3.38C109.771,179.421,111.285,180.932,111.285,182.801z"/>
		<path fill="#3A4F66" d="M121.797,182.801c0,1.87-1.514,3.381-3.38,3.381c-1.87,0-3.382-1.511-3.382-3.381
			c0-1.87,1.513-3.38,3.382-3.38C120.284,179.421,121.797,180.932,121.797,182.801z"/>
		<path fill="#3A4F66" d="M132.311,182.801c0,1.87-1.514,3.381-3.382,3.381c-1.87,0-3.383-1.511-3.383-3.381
			c0-1.87,1.514-3.38,3.383-3.38C130.797,179.421,132.311,180.932,132.311,182.801z"/>
		<path fill="#3A4F66" d="M142.824,182.801c0,1.87-1.514,3.381-3.384,3.381c-1.869,0-3.382-1.511-3.382-3.381
			c0-1.87,1.514-3.38,3.382-3.38C141.31,179.421,142.824,180.932,142.824,182.801z"/>
		<path fill="#3A4F66" d="M153.334,182.801c0,1.87-1.513,3.381-3.383,3.381c-1.867,0-3.381-1.511-3.381-3.381
			c0-1.87,1.515-3.38,3.381-3.38C151.822,179.421,153.334,180.932,153.334,182.801z"/>
		<path fill="#3A4F66" d="M163.846,182.801c0,1.87-1.514,3.381-3.38,3.381c-1.868,0-3.382-1.511-3.382-3.381
			c0-1.87,1.514-3.38,3.382-3.38C162.333,179.421,163.846,180.932,163.846,182.801z"/>
		<path fill="#3A4F66" d="M174.359,182.801c0,1.87-1.514,3.381-3.38,3.381c-1.87,0-3.383-1.511-3.383-3.381
			c0-1.87,1.513-3.38,3.383-3.38C172.845,179.421,174.359,180.932,174.359,182.801z"/>
		<path fill="#3A4F66" d="M184.873,182.801c0,1.87-1.517,3.381-3.383,3.381c-1.87,0-3.384-1.511-3.384-3.381
			c0-1.87,1.514-3.38,3.384-3.38C183.356,179.421,184.873,180.932,184.873,182.801z"/>
		<path fill="#3A4F66" d="M195.383,182.801c0,1.87-1.512,3.381-3.382,3.381c-1.866,0-3.383-1.511-3.383-3.381
			c0-1.87,1.517-3.38,3.383-3.38C193.871,179.421,195.383,180.932,195.383,182.801z"/>
		<path fill="#3A4F66" d="M205.896,182.801c0,1.87-1.514,3.381-3.383,3.381c-1.865,0-3.38-1.511-3.38-3.381
			c0-1.87,1.515-3.38,3.38-3.38C204.382,179.421,205.896,180.932,205.896,182.801z"/>
		<path fill="#3A4F66" d="M216.407,182.801c0,1.87-1.514,3.381-3.382,3.381s-3.384-1.511-3.384-3.381c0-1.87,1.516-3.38,3.384-3.38
			S216.407,180.932,216.407,182.801z"/>
		<path fill="#3A4F66" d="M226.921,182.801c0,1.87-1.515,3.381-3.382,3.381c-1.869,0-3.383-1.511-3.383-3.381
			c0-1.87,1.514-3.38,3.383-3.38C225.406,179.421,226.921,180.932,226.921,182.801z"/>
		<path fill="#3A4F66" d="M237.434,182.801c0,1.87-1.518,3.381-3.384,3.381c-1.868,0-3.382-1.511-3.382-3.381
			c0-1.87,1.514-3.38,3.382-3.38C235.916,179.421,237.434,180.932,237.434,182.801z"/>
		<path fill="#3A4F66" d="M247.944,182.801c0,1.87-1.516,3.381-3.383,3.381c-1.869,0-3.381-1.511-3.381-3.381
			c0-1.87,1.512-3.38,3.381-3.38C246.429,179.421,247.944,180.932,247.944,182.801z"/>
		<path fill="#3A4F66" d="M258.456,182.801c0,1.87-1.514,3.381-3.381,3.381c-1.871,0-3.383-1.511-3.383-3.381
			c0-1.87,1.512-3.38,3.383-3.38C256.942,179.421,258.456,180.932,258.456,182.801z"/>
		<path fill="#3A4F66" d="M268.968,182.801c0,1.87-1.514,3.381-3.383,3.381c-1.866,0-3.382-1.511-3.382-3.381
			c0-1.87,1.516-3.38,3.382-3.38C267.454,179.421,268.968,180.932,268.968,182.801z"/>
		<path fill="#3A4F66" d="M279.479,182.801c0,1.87-1.512,3.381-3.378,3.381c-1.87,0-3.384-1.511-3.384-3.381
			c0-1.87,1.514-3.38,3.384-3.38C277.967,179.421,279.479,180.932,279.479,182.801z"/>
		<path fill="#3A4F66" d="M289.992,182.801c0,1.87-1.515,3.381-3.381,3.381c-1.869,0-3.383-1.511-3.383-3.381
			c0-1.87,1.514-3.38,3.383-3.38C288.478,179.421,289.992,180.932,289.992,182.801z"/>
		<path fill="#3A4F66" d="M300.506,182.801c0,1.87-1.517,3.381-3.383,3.381c-1.87,0-3.382-1.511-3.382-3.381
			c0-1.87,1.512-3.38,3.382-3.38C298.989,179.421,300.506,180.932,300.506,182.801z"/>
		<path fill="#3A4F66" d="M311.018,182.801c0,1.87-1.515,3.381-3.382,3.381s-3.384-1.511-3.384-3.381c0-1.87,1.517-3.38,3.384-3.38
			S311.018,180.932,311.018,182.801z"/>
		<path fill="#3A4F66" d="M321.526,182.801c0,1.87-1.51,3.381-3.38,3.381c-1.867,0-3.383-1.511-3.383-3.381
			c0-1.87,1.516-3.38,3.383-3.38C320.017,179.421,321.526,180.932,321.526,182.801z"/>
	</g>
	<g>
		<circle fill="#3A4F66" cx="192.001" cy="151.267" r="3.383"/>
		<path fill="#3A4F66" d="M192.001,165.164c-1.866,0-3.383-1.522-3.383-3.385c0-1.87,1.517-3.386,3.383-3.386
			c1.87,0,3.382,1.516,3.382,3.386C195.383,163.642,193.871,165.164,192.001,165.164z"/>
		<circle fill="#3A4F66" cx="192.001" cy="172.29" r="3.383"/>
		<path fill="#3A4F66" d="M192.001,196.695c-1.866,0-3.383-1.516-3.383-3.385c0-1.863,1.517-3.379,3.383-3.379
			c1.87,0,3.382,1.516,3.382,3.379C195.383,195.18,193.871,196.695,192.001,196.695z"/>
		<path fill="#3A4F66" d="M192.001,207.209c-1.866,0-3.383-1.516-3.383-3.377c0-1.871,1.517-3.387,3.383-3.387
			c1.87,0,3.382,1.516,3.382,3.387C195.383,205.693,193.871,207.209,192.001,207.209z"/>
		<path fill="#3A4F66" d="M192.001,217.721c-1.866,0-3.383-1.512-3.383-3.381c0-1.871,1.517-3.381,3.383-3.381
			c1.87,0,3.382,1.51,3.382,3.381C195.383,216.209,193.871,217.721,192.001,217.721z"/>
	</g>
	<g>
		<path fill="#3A4F66" d="M318.146,196.695c-1.867,0-3.383-1.516-3.383-3.385c0-1.863,1.516-3.379,3.383-3.379
			c1.87,0,3.38,1.516,3.38,3.379C321.526,195.18,320.017,196.695,318.146,196.695z"/>
		<path fill="#3A4F66" d="M318.146,207.209c-1.867,0-3.383-1.516-3.383-3.377c0-1.871,1.516-3.387,3.383-3.387
			c1.87,0,3.38,1.516,3.38,3.387C321.526,205.693,320.017,207.209,318.146,207.209z"/>
		<path fill="#3A4F66" d="M318.146,217.721c-1.867,0-3.383-1.512-3.383-3.381c0-1.871,1.516-3.381,3.383-3.381
			c1.87,0,3.38,1.51,3.38,3.381C321.526,216.209,320.017,217.721,318.146,217.721z"/>
	</g>
	<g>
		<path fill="#3A4F66" d="M65.856,196.695c-1.869,0-3.382-1.516-3.382-3.385c0-1.863,1.513-3.379,3.382-3.379
			c1.866,0,3.383,1.516,3.383,3.379C69.239,195.18,67.722,196.695,65.856,196.695z"/>
		<path fill="#3A4F66" d="M65.856,207.209c-1.869,0-3.382-1.516-3.382-3.377c0-1.871,1.513-3.387,3.382-3.387
			c1.866,0,3.383,1.516,3.383,3.387C69.239,205.693,67.722,207.209,65.856,207.209z"/>
		<path fill="#3A4F66" d="M65.856,217.721c-1.869,0-3.382-1.512-3.382-3.381c0-1.871,1.513-3.381,3.382-3.381
			c1.866,0,3.383,1.51,3.383,3.381C69.239,216.209,67.722,217.721,65.856,217.721z"/>
		<path fill="#3A4F66" d="M192.001,228.234c-1.866,0-3.383-1.518-3.383-3.385c0-1.871,1.517-3.381,3.383-3.381
			c1.87,0,3.382,1.51,3.382,3.381C195.383,226.717,193.871,228.234,192.001,228.234z"/>
		<path fill="#3A4F66" d="M318.146,228.234c-1.867,0-3.383-1.518-3.383-3.385c0-1.871,1.516-3.381,3.383-3.381
			c1.87,0,3.38,1.51,3.38,3.381C321.526,226.717,320.017,228.234,318.146,228.234z"/>
		<path fill="#3A4F66" d="M65.856,228.234c-1.869,0-3.382-1.518-3.382-3.385c0-1.871,1.513-3.381,3.382-3.381
			c1.866,0,3.383,1.51,3.383,3.381C69.239,226.717,67.722,228.234,65.856,228.234z"/>
	</g>
</g>
<path fill="#AFC9CB" d="M240.26,315.824h-96.515c-1.926,0-3.486-1.566-3.486-3.49v-74.629c0-1.926,1.56-3.488,3.486-3.488h96.515
	c1.924,0,3.485,1.563,3.485,3.488v74.629C243.745,314.258,242.184,315.824,240.26,315.824z"/>
<path fill="#456785" d="M148.568,303.932c-0.075,0-0.139-0.064-0.139-0.135v-62.73c0-0.074,0.064-0.135,0.139-0.135h86.868
	c0.074,0,0.136,0.061,0.136,0.135v62.73c0,0.07-0.062,0.135-0.136,0.135H148.568z"/>
<path fill="#293748" d="M148.568,303.932c-0.075,0-0.139-0.064-0.139-0.135l87.007-62.865c0.074,0,0.136,0.061,0.136,0.135v62.73
	c0,0.07-0.062,0.135-0.136,0.135H148.568z"/>
<path fill="#456785" d="M201.063,315.824h-9.062h-9.061c0,5.727-4.443,8.943-13.355,10.584h22.416h22.418
	C205.504,324.768,201.063,321.551,201.063,315.824z"/>
<path fill="#AFC9CB" d="M224.675,329.984c0-1.979-1.604-3.576-3.578-3.576h-58.191c-1.975,0-3.574,1.598-3.574,3.576H224.675z"/>
<path fill="#AFC9CB" d="M366.404,315.824h-96.516c-1.923,0-3.485-1.566-3.485-3.49v-74.629c0-1.926,1.563-3.488,3.485-3.488h96.516
	c1.928,0,3.482,1.563,3.482,3.488v74.629C369.887,314.258,368.332,315.824,366.404,315.824z"/>
<path fill="#456785" d="M274.715,303.932c-0.077,0-0.139-0.064-0.139-0.135v-62.73c0-0.074,0.062-0.135,0.139-0.135h86.868
	c0.077,0,0.131,0.061,0.131,0.135v62.73c0,0.07-0.054,0.135-0.131,0.135H274.715z"/>
<path fill="#293748" d="M274.715,303.932c-0.077,0-0.139-0.064-0.139-0.135l87.007-62.865c0.077,0,0.131,0.061,0.131,0.135v62.73
	c0,0.07-0.054,0.135-0.131,0.135H274.715z"/>
<path fill="#456785" d="M327.209,315.824h-9.063h-9.061c0,5.727-4.441,8.943-13.356,10.584h22.417h22.419
	C331.653,324.768,327.209,321.551,327.209,315.824z"/>
<path fill="#AFC9CB" d="M350.82,329.984c0-1.979-1.604-3.576-3.58-3.576h-58.189c-1.976,0-3.574,1.598-3.574,3.576H350.82z"/>
<path fill="#AFC9CB" d="M114.114,315.824H17.599c-1.926,0-3.486-1.566-3.486-3.49v-74.629c0-1.926,1.56-3.488,3.486-3.488h96.516
	c1.925,0,3.486,1.563,3.486,3.488v74.629C117.6,314.258,116.04,315.824,114.114,315.824z"/>
<path fill="#456785" d="M22.421,303.932c-0.076,0-0.135-0.064-0.135-0.135v-62.73c0-0.074,0.06-0.135,0.135-0.135h86.867
	c0.076,0,0.139,0.061,0.139,0.135v62.73c0,0.07-0.063,0.135-0.139,0.135H22.421z"/>
<path fill="#293748" d="M22.421,303.932c-0.076,0-0.135-0.064-0.135-0.135l87.002-62.865c0.076,0,0.139,0.061,0.139,0.135v62.73
	c0,0.07-0.063,0.135-0.139,0.135H22.421z"/>
<path fill="#456785" d="M74.917,315.824h-9.061h-9.063c0,5.727-4.439,8.943-13.354,10.584h22.417h22.417
	C79.359,324.768,74.917,321.551,74.917,315.824z"/>
<path fill="#AFC9CB" d="M98.526,329.984c0-1.979-1.6-3.576-3.575-3.576H36.76c-1.975,0-3.577,1.598-3.577,3.576H98.526z"/>
<path fill="#AFC9CB" d="M252.787,120.305H130.449c-2.44,0-4.417-1.979-4.417-4.412V21.29c0-2.434,1.977-4.413,4.417-4.413h122.338
	c2.439,0,4.416,1.979,4.416,4.413v94.603C257.203,118.326,255.227,120.305,252.787,120.305z"/>
<path fill="#456785" d="M136.565,105.236c-0.096,0-0.174-0.081-0.174-0.174V25.556c0-0.093,0.078-0.169,0.174-0.169H246.67
	c0.096,0,0.174,0.076,0.174,0.169v79.506c0,0.093-0.078,0.174-0.174,0.174H136.565z"/>
<path fill="#293748" d="M136.565,105.236c-0.096,0-0.174-0.081-0.174-0.174L246.67,25.387c0.096,0,0.174,0.076,0.174,0.169v79.506
	c0,0.093-0.078,0.174-0.174,0.174H136.565z"/>
<path fill="#456785" d="M203.105,120.305h-11.488h-11.486c0,7.259-5.63,11.333-16.927,13.411h28.414h28.414
	C208.734,131.638,203.105,127.564,203.105,120.305z"/>
<path fill="#AFC9CB" d="M233.031,138.252c0-2.504-2.031-4.537-4.535-4.537h-73.754c-2.504,0-4.535,2.032-4.535,4.537H233.031z"/>
</svg>
