<?xml version="1.0" encoding="utf-8"?>
<!-- Generator: Adobe Illustrator 16.0.0, SVG Export Plug-In . SVG Version: 6.00 Build 0)  -->
<!DOCTYPE svg PUBLIC "-//W3C//DTD SVG 1.1//EN" "http://www.w3.org/Graphics/SVG/1.1/DTD/svg11.dtd">
<svg version="1.1" id="Layer_1" xmlns="http://www.w3.org/2000/svg" xmlns:xlink="http://www.w3.org/1999/xlink" x="0px" y="0px"
	 width="404px" height="334px" viewBox="0 0 404 334" enable-background="new 0 0 404 334" xml:space="preserve">
<ellipse fill="#171613" cx="114.419" cy="307.737" rx="9.971" ry="9.998"/>
<ellipse fill="#171613" cx="53.158" cy="307.737" rx="9.971" ry="9.998"/>
<ellipse fill="#171613" cx="202.305" cy="307.737" rx="9.97" ry="9.998"/>
<ellipse fill="#171613" cx="141.044" cy="307.737" rx="9.971" ry="9.998"/>
<rect x="59.823" y="266.139" fill="#171613" width="139.976" height="19.01"/>
<path fill="#445D7B" d="M223.368,311.07v-30.965c0-4.614-3.777-8.394-8.394-8.394H42.053c-4.617,0-8.393,3.778-8.393,8.394v30.965
	H223.368z"/>
<path fill="#C7D5D2" d="M123.082,271.713h91.893c4.616,0,8.395,3.778,8.395,8.395v30.965h-91.892v-30.965
	C131.477,275.491,127.699,271.713,123.082,271.713z"/>
<rect x="176.426" y="280.105" fill="#C7D5D2" width="46.942" height="31.687"/>
<g>
	<path fill="#171613" d="M214.447,294.775c0,1.629,1.146,2.964,2.55,2.964c1.403,0,2.551-1.335,2.551-2.964v-2.643
		c0-1.629-1.147-2.963-2.551-2.963c-1.404,0-2.55,1.334-2.55,2.963V294.775z"/>
	<path fill="#171613" d="M204.613,294.775c0,1.629,1.146,2.964,2.551,2.964c1.402,0,2.551-1.335,2.551-2.964v-2.643
		c0-1.629-1.148-2.963-2.551-2.963s-2.551,1.334-2.551,2.963V294.775z"/>
	<path fill="#171613" d="M194.779,294.775c0,1.629,1.147,2.964,2.551,2.964c1.404,0,2.551-1.335,2.551-2.964v-2.643
		c0-1.629-1.147-2.963-2.551-2.963c-1.404,0-2.551,1.334-2.551,2.963V294.775z"/>
	<path fill="#171613" d="M184.945,294.775c0,1.629,1.147,2.964,2.551,2.964c1.404,0,2.551-1.335,2.551-2.964v-2.643
		c0-1.629-1.147-2.963-2.551-2.963c-1.404,0-2.551,1.334-2.551,2.963V294.775z"/>
	<path fill="#171613" d="M175.112,294.775c0,1.629,1.147,2.964,2.55,2.964c1.404,0,2.551-1.335,2.551-2.964v-2.643
		c0-1.629-1.147-2.963-2.551-2.963c-1.403,0-2.55,1.334-2.55,2.963V294.775z"/>
	<path fill="#171613" d="M165.278,294.775c0,1.629,1.147,2.964,2.55,2.964c1.404,0,2.551-1.335,2.551-2.964v-2.643
		c0-1.629-1.147-2.963-2.551-2.963c-1.403,0-2.55,1.334-2.55,2.963V294.775z"/>
	<path fill="#171613" d="M155.444,294.775c0,1.629,1.147,2.964,2.551,2.964c1.404,0,2.551-1.335,2.551-2.964v-2.643
		c0-1.629-1.147-2.963-2.551-2.963c-1.404,0-2.551,1.334-2.551,2.963V294.775z"/>
	<path fill="#171613" d="M145.61,294.775c0,1.629,1.147,2.964,2.551,2.964c1.404,0,2.551-1.335,2.551-2.964v-2.643
		c0-1.629-1.147-2.963-2.551-2.963c-1.403,0-2.551,1.334-2.551,2.963V294.775z"/>
	<path fill="#171613" d="M135.777,294.775c0,1.629,1.147,2.964,2.551,2.964c1.404,0,2.551-1.335,2.551-2.964v-2.643
		c0-1.629-1.147-2.963-2.551-2.963c-1.403,0-2.551,1.334-2.551,2.963V294.775z"/>
</g>
<rect x="32.421" y="309.691" fill="#484640" width="192.56" height="4.199"/>
<rect x="32.421" y="309.691" fill="#171613" width="101.215" height="4.199"/>
<polygon fill="#333232" points="241.598,57.872 241.598,240.063 19.424,240.063 19.424,22.934 173.464,22.934 173.464,57.872 "/>
<rect x="176.426" y="57.872" fill="#46607E" width="65.17" height="182.19"/>
<rect x="108.293" y="22.934" fill="#46607E" width="65.171" height="217.128"/>
<rect x="65.339" y="22.934" fill="#323C49" width="42.954" height="217.128"/>
<rect x="19.424" y="22.934" fill="#323C49" width="42.953" height="217.128"/>
<g>
	<g>
		<rect x="108.293" y="200.314" fill="#816035" width="133.303" height="1.481"/>
	</g>
	<g>
		<rect x="19.256" y="200.314" fill="#554431" width="88.866" height="1.481"/>
	</g>
</g>
<g>
	<g>
		<rect x="108.293" y="164.52" fill="#816035" width="133.303" height="1.481"/>
	</g>
	<g>
		<rect x="19.256" y="164.52" fill="#554431" width="88.866" height="1.481"/>
	</g>
</g>
<g>
	<g>
		<rect x="108.293" y="128.723" fill="#816035" width="133.303" height="1.481"/>
	</g>
	<g>
		<rect x="19.256" y="128.723" fill="#554431" width="88.866" height="1.481"/>
	</g>
</g>
<g>
	<g>
		<rect x="108.293" y="92.927" fill="#816035" width="133.303" height="1.481"/>
	</g>
	<g>
		<rect x="19.256" y="92.927" fill="#554431" width="88.866" height="1.481"/>
	</g>
</g>
<g>
	<g>
		<rect x="108.293" y="57.131" fill="#816035" width="133.303" height="1.481"/>
	</g>
	<g>
		<rect x="19.256" y="57.131" fill="#554431" width="88.866" height="1.481"/>
	</g>
</g>
<rect x="80.892" y="22.934" fill="#414242" width="8.559" height="8.51"/>
<rect x="159.182" y="47.885" opacity="0.7" fill="#E5E5E6" enable-background="new    " width="10.962" height="6.912"/>
<rect x="159.182" y="83.016" opacity="0.7" fill="#E5E5E6" enable-background="new    " width="10.962" height="6.912"/>
<rect x="159.182" y="118.566" opacity="0.7" fill="#E5E5E6" enable-background="new    " width="10.962" height="6.912"/>
<rect x="159.182" y="155.009" opacity="0.7" fill="#E5E5E6" enable-background="new    " width="10.962" height="6.912"/>
<rect x="179.59" y="170.611" opacity="0.7" fill="#E5E5E6" enable-background="new    " width="10.961" height="6.914"/>
<rect x="185.07" y="83.016" opacity="0.7" fill="#E5E5E6" enable-background="new    " width="10.962" height="6.912"/>
<rect x="181.414" y="118.567" transform="matrix(0.9919 0.1267 -0.1267 0.9919 16.9713 -22.7016)" opacity="0.7" fill="#E5E5E6" enable-background="new    " width="10.957" height="6.913"/>
<rect x="226.33" y="155.009" opacity="0.7" fill="#E5E5E6" enable-background="new    " width="10.962" height="6.912"/>
<rect x="113.428" y="190.43" opacity="0.7" fill="#E5E5E6" enable-background="new    " width="10.962" height="6.911"/>
<rect x="117.372" y="227.45" transform="matrix(0.9176 0.3976 -0.3976 0.9176 101.9267 -29.8098)" opacity="0.7" fill="#E5E5E6" enable-background="new    " width="10.963" height="6.912"/>
<rect x="179.59" y="230.916" opacity="0.7" fill="#E5E5E6" enable-background="new    " width="10.961" height="6.912"/>
<rect x="80.892" y="58.438" fill="#414242" width="8.559" height="8.51"/>
<rect x="80.892" y="94.234" fill="#414242" width="8.559" height="8.51"/>
<rect x="80.892" y="130.183" fill="#414242" width="8.559" height="8.511"/>
<rect x="80.892" y="165.559" fill="#414242" width="8.559" height="8.509"/>
<rect x="80.892" y="201.975" fill="#414242" width="8.559" height="8.51"/>
<rect x="36.622" y="22.934" fill="#414242" width="8.558" height="8.51"/>
<rect x="36.622" y="58.438" fill="#414242" width="8.558" height="8.51"/>
<rect x="36.622" y="94.234" fill="#414242" width="8.558" height="8.51"/>
<rect x="36.622" y="130.183" fill="#414242" width="8.558" height="8.511"/>
<rect x="36.622" y="165.559" fill="#414242" width="8.558" height="8.509"/>
<rect x="36.622" y="201.975" fill="#414242" width="8.558" height="8.51"/>
<rect x="19.529" y="265.975" fill="#5D5B52" width="9.057" height="52.361"/>
<rect x="10.695" y="265.975" fill="#484640" width="9.058" height="52.361"/>
<rect x="10.695" y="254.898" fill="#414242" width="239.959" height="11.076"/>
<rect x="241.598" y="265.975" fill="#414242" width="9.057" height="52.361"/>
<rect x="232.764" y="265.975" fill="#484640" width="9.059" height="52.361"/>
<rect x="113.282" y="265.975" fill="#5D5B52" width="9.058" height="52.361"/>
<rect x="104.448" y="265.975" fill="#484640" width="9.059" height="52.361"/>
<rect x="10.695" y="254.898" fill="#484640" width="102.812" height="11.076"/>
<rect x="13.562" y="240.063" fill="#46607E" width="235.021" height="14.857"/>
<rect x="15.29" y="241.791" fill="#1B1508" width="96.774" height="11.402"/>
<path fill="#5D5B52" d="M110.336,243.52v7.945H17.018v-7.945H110.336L110.336,243.52z M113.792,240.063H13.562v14.857h100.23
	V240.063L113.792,240.063z"/>
<rect x="53.555" y="240.063" fill="#5D5B52" width="13.331" height="14.857"/>
<rect x="202.365" y="278.785" fill="#323C49" width="50.357" height="39.382"/>
<rect x="250.889" y="278.785" fill="#46607E" width="42.954" height="39.382"/>
<rect x="269.732" y="278.785" fill="#414242" width="8.56" height="8.51"/>
<rect x="205.333" y="308.18" opacity="0.7" fill="#E5E5E6" enable-background="new    " width="10.962" height="6.911"/>
<g>
	<path fill="#DECFBB" d="M250.348,70.007c0.188-0.021,0.385-0.041,0.566-0.009c1.689,0.306,2.389,1.478,3.927,2.232
		c0.685,0.336,2.37-0.675,2.56,0.909c0.068,0.584,0.037,2.042,0.174,3.29c0.197,1.819,1.551,4.005,2.943,5.542
		c1.873,2.067,3.902,4.21,6.047,5.959c4.502,3.675,9.918,7.27,15.045,10.025c4.926-8.263,14.744-13.34,24.334-12.584
		c1.002,0.079,2.037,0.229,2.883,0.773c0.714,0.461,1.234,1.167,1.654,1.907c4.432,7.822-3.17,11.686-9.164,15.056
		c-3.741,2.104-7.672,4.001-11.686,5.531c-5.619,2.142-10.402,0.157-15.199-3.211c-5.086-3.568-10.171-7.274-14.397-11.86
		c-2.054-2.229-3.54-4.684-5.271-7.137c-1.709-2.425-2.693-1.528-4.732-3.267c-1.139-0.97-2.482-1.744-3.426-2.914
		c-1.688-2.097-0.976-4.785-0.584-7.194c0.098-0.6,0.162-1.005,0.506-1.459c0.56-0.739,1.425-0.98,2.274-1.25
		C249.307,70.185,249.825,70.065,250.348,70.007z"/>
</g>
<g>
	<path fill="#445D7B" d="M300.311,108.646c-3.043,1.32-6.084,2.485-9.057,3.493c-4.434,1.502-9.304,3.004-13.682,1.351
		c-1.688-0.638-3.172-1.708-4.629-2.773c-6.901-5.051-13.678-10.273-20.318-15.664c1.916-4.063,4.453-7.833,7.495-11.138
		c0.854-0.928,1.844-1.869,3.094-2.032c1.856-0.243,3.425,1.284,4.67,2.682c2.029,2.278,4.06,4.555,6.087,6.833
		c0.659,0.739,1.418,1.53,2.403,1.612c0.646,0.054,1.269-0.211,1.856-0.479c11.115-5.075,19.367-11.458,28.746-19.143
		c4.136-3.387,8.445-6.865,13.617-8.215c11.042-2.882,20.086,9.116,13.186,18.697C325.91,94.792,313.1,103.094,300.311,108.646z"/>
</g>
<g>
	<polygon fill="#C7D5D2" points="371.869,313.169 372.188,318.614 361.62,324.695 355.856,319.572 360.981,313.809 371.55,307.727 	
		"/>
</g>
<g>
	<polygon fill="#414242" points="379.336,147.83 380.306,164.363 362.462,237.305 372.336,311.383 361.664,314.175 331.342,225.305 
		330.616,198.499 337.596,143.335 	"/>
</g>
<g>
	<polygon fill="#414242" points="310.921,156.728 303.335,225.924 307.642,316.523 317.679,317.506 332.091,235.711 353.898,154.64 
			"/>
</g>
<g>
	<polygon fill="#C7D5D2" points="317.738,316.305 317.207,321.732 305.82,326.098 300.925,320.139 306.883,315.242 	"/>
</g>
<g>
	<path fill="#445D7B" d="M388.891,156.597c0.717,6.313,1.295,14.854-1.106,15.387c-0.45,0.101-0.907-0.084-1.324-0.267
		c-4.411-1.909-7.678-4.868-12.021-6.706c-4.553-1.927-9.632-2.709-14.579-3.129c-7.402-0.666-14.923-0.813-22.354-0.266
		c-5.842,0.431-11.656,1.461-17.42,2.475c-4.796,0.843-9.161,2.686-14.114,2.793c-5.078,0.11-10.188-0.981-14.742-3.239
		c-0.166-0.083-0.344-0.177-0.426-0.345c-0.089-0.184-0.037-0.4,0.014-0.598c0.772-2.918,1.259-5.781,2.916-8.29
		c1.853-2.804,3.035-6.257,4.273-9.367c2.583-6.482,4.956-13.247,6.555-20.048c2.508-9.274,5.508-18.359,7.9-27.654
		c1.659-6.442,3.111-12.977,5.595-19.168c1.944-4.847,5.545-11.997,10.441-14.5c1.656-0.847,3.548-1.083,5.396-1.304
		c5.604-0.674,11.209-1.348,16.813-2.022c2.043-0.246,4.17-0.483,6.114,0.19c2.914,1.01,4.764,3.804,6.396,6.42
		c7.322,11.73,12.484,24.626,15.946,38.094c1.808,7.033,3.529,14.087,5.017,21.19c1.66,7.926,3.031,15.916,3.901,23.963
		C388.181,151.104,388.551,153.599,388.891,156.597z"/>
</g>
<g>
	<path fill="#FFFFFF" d="M345.211,92.196c0.078,3.204,0.823,6.349,1.564,9.468c4.514,18.995,9.027,37.989,13.543,56.984
		c-15.102,1.245-30.202,2.489-45.304,3.734c-0.11-7.261-0.222-14.522-0.333-21.783c-0.071-4.655-0.143-9.325,0.42-13.952
		c0.906-7.461,3.438-14.637,5.949-21.746c4.646-13.135,9.289-26.27,13.936-39.404c0.248-0.702,0.511-1.429,1.038-1.966
		c0.631-0.643,1.546-0.924,2.426-1.16c4.245-1.143,9.058-2.221,13.449-1.98c1.443,3.847-1.929,11.071-3.074,14.877
		C347.156,80.808,345.066,86.344,345.211,92.196z"/>
</g>
<g>
	<g>
		<path fill="#E0CBAF" d="M339.923,65c3.115-0.421,6.229-0.842,9.345-1.263c-0.06-2.506-0.317-5.007-0.773-7.471
			c0.056,0.299,4.819-2.796,5.208-3.435c1.117-1.839,1.002-4.747,1.346-6.845c0.73-4.47,1.344-9.483-1.316-13.148
			c-2.757-3.796-8.053-4.698-12.733-4.394c-5.876,0.382-12.267,2.688-14.822,7.993c-2.31,4.792,1.738,11.181,3.157,15.896
			c0.699,2.325,1.684,4.961,3.978,5.761c1.217,0.425,2.63,0.237,3.74,0.891C339.01,60.134,338.853,62.994,339.923,65z"/>
	</g>
	<g>
		<path fill="#3A332D" d="M316.143,28.591c-0.644-3.209-1.287-6.418-1.932-9.627c-0.24-1.192-0.479-2.43-0.193-3.611
			c0.475-1.965,2.301-3.333,4.196-4.036c1.896-0.704,3.938-0.91,5.865-1.522c2.057-0.653,4.012-1.774,6.167-1.875
			c4.099-0.192,7.569,3.309,11.663,3.586c5.668,0.383,10.563-2.645,14.538,3.623c0.729,1.152,1.027,2.526,1.688,3.72
			c0.854,1.541,2.253,2.69,3.39,4.036c4.994,5.919,4.439,15.643-0.427,21.489c-2.358,2.834-3.206,5.28-6.707,6.44
			c1.334-3.479-2.038-16.545-6.657-17.625c-1.225-0.285-4.658,1.493-5.957,1.806c-2.875,0.691-5.665,1.417-8.304,2.803
			c-3.916,2.056-8.224,3.653-12.599,4.384c-0.56,0.093-1.188,0.172-1.646-0.161c-0.433-0.313-0.567-0.886-0.673-1.41
			C317.751,36.604,316.947,32.598,316.143,28.591z"/>
	</g>
</g>
<polygon fill="#445D7B" points="347.933,232.799 260.004,200.363 303.021,83.722 390.949,116.157 "/>
<polygon opacity="0.26" fill="#061111" enable-background="new    " points="268.412,197.771 269.729,198.259 346.494,229.296 
	385.145,118.235 381.155,117.937 "/>
<polygon fill="#FDFCF1" points="345.346,226.15 266.286,196.988 306.086,89.072 385.145,118.235 "/>
<polygon opacity="0.05" fill="#000009" enable-background="new    " points="305.809,88.501 362.672,109.477 288.164,136.054 "/>
<g>
	
		<rect x="326.934" y="102.984" transform="matrix(-0.9382 -0.3461 0.3461 -0.9382 632.8921 322.3992)" opacity="0.12" fill="#010300" enable-background="new    " width="36.597" height="3.415"/>
	<g>
		<path fill="#C7D5D2" d="M359.529,97.129l-0.532-0.197l0.132-0.357c1.24-3.363-0.904-7.253-4.791-8.687L349.218,86
			c-3.887-1.434-8.043,0.131-9.283,3.495l-0.133,0.356l-0.53-0.196c-3.888-1.434-8.045,0.131-9.285,3.495l-2.51,6.806l34.335,12.666
			l2.511-6.805C365.563,102.452,363.416,98.563,359.529,97.129z M353.872,95.2l-9.047-3.336c-0.925-0.342-1.404-1.372-1.065-2.292
			c0.34-0.919,1.373-1.392,2.298-1.051l9.046,3.336c0.926,0.341,1.404,1.372,1.065,2.292S354.796,95.542,353.872,95.2z"/>
	</g>
</g>
<g opacity="0.47">
	<path fill="#8B9295" d="M317.05,127.386c-3.869-1.428-7.737-2.854-11.606-4.282c-0.326-0.121-0.707,0.053-0.826,0.378
		c-1.418,3.846-2.838,7.692-4.256,11.54c-0.119,0.324,0.057,0.703,0.384,0.823c3.868,1.427,7.738,2.855,11.606,4.283
		c0.179,0.063,0.336,0.05,0.47-0.011c0.009-0.004,0.019-0.008,0.025-0.012c0.006-0.003,0.012-0.005,0.017-0.008
		c0.134-0.06,0.25-0.171,0.314-0.349c1.418-3.846,2.837-7.692,4.256-11.539C317.553,127.884,317.378,127.506,317.05,127.386z
		 M312.19,138.7c-3.468-1.277-6.934-2.556-10.398-3.835c1.271-3.446,2.541-6.891,3.813-10.336c3.466,1.279,6.932,2.557,10.396,3.835
		C314.732,131.81,313.461,135.255,312.19,138.7z"/>
	<path fill="#8B9295" d="M309.182,148.72c-3.869-1.428-7.738-2.854-11.606-4.282c-0.326-0.119-0.705,0.053-0.826,0.378
		c-1.419,3.847-2.837,7.693-4.255,11.539c-0.119,0.325,0.055,0.703,0.383,0.824c3.87,1.428,7.738,2.854,11.607,4.282
		c0.178,0.064,0.336,0.051,0.468-0.01c0.009-0.005,0.019-0.008,0.026-0.013c0.006-0.003,0.012-0.004,0.018-0.007
		c0.134-0.061,0.249-0.172,0.314-0.349c1.417-3.847,2.836-7.693,4.255-11.54C309.685,149.219,309.51,148.841,309.182,148.72z
		 M304.322,160.035c-3.467-1.278-6.934-2.557-10.398-3.836c1.271-3.445,2.542-6.891,3.813-10.337
		c3.466,1.279,6.933,2.558,10.398,3.837C306.863,153.145,305.593,156.59,304.322,160.035z"/>
	<path fill="#8B9295" d="M301.314,170.055c-3.869-1.428-7.738-2.854-11.607-4.282c-0.328-0.12-0.706,0.052-0.826,0.378
		c-1.419,3.847-2.837,7.692-4.256,11.539c-0.12,0.324,0.057,0.703,0.383,0.824c3.869,1.428,7.738,2.854,11.607,4.281
		c0.177,0.064,0.336,0.051,0.468-0.01c0.01-0.004,0.019-0.008,0.028-0.012c0.005-0.004,0.011-0.006,0.015-0.008
		c0.134-0.061,0.25-0.172,0.315-0.35c1.418-3.848,2.836-7.691,4.254-11.539C301.816,170.555,301.643,170.176,301.314,170.055z
		 M296.454,181.369c-3.468-1.278-6.933-2.557-10.397-3.835c1.271-3.445,2.541-6.892,3.813-10.337
		c3.466,1.277,6.933,2.558,10.396,3.836C298.995,174.479,297.727,177.924,296.454,181.369z"/>
</g>
<polygon fill="#8FB928" points="307.742,128.911 310.736,129.012 311.24,132.21 327.355,127.778 328.729,128.619 309.452,135.233 
	"/>
<polygon fill="#8FB928" points="298.707,150.431 301.701,150.529 302.205,153.729 318.32,149.296 319.694,150.138 300.417,156.751 
	"/>
<polygon fill="#8FB928" points="291.02,170.534 294.014,170.634 294.518,173.832 310.632,169.398 312.005,170.24 292.729,176.854 
	"/>
<rect x="304.624" y="184.859" transform="matrix(-0.9382 -0.3461 0.3461 -0.9382 567.671 477.2377)" opacity="0.32" fill="#8B9295" enable-background="new    " width="43.644" height="6.149"/>
<rect x="312.957" y="162.265" transform="matrix(-0.9382 -0.3461 0.3461 -0.9382 591.6458 436.3264)" opacity="0.32" fill="#8B9295" enable-background="new    " width="43.644" height="6.149"/>
<rect x="321.297" y="139.662" transform="matrix(-0.9382 -0.3461 0.3461 -0.9382 615.6321 395.4058)" opacity="0.32" fill="#8B9295" enable-background="new    " width="43.645" height="6.149"/>
<path fill="#E0CBAF" d="M380.036,122.142c0.268,0.717,0.267,1.721-0.434,2.034c-0.419,0.187-0.899,0.029-1.353-0.051
	c-1.709-0.303-3.563,0.715-4.222,2.321c-0.777,1.891,0.121,4.166,1.691,5.473c1.571,1.308,3.664,1.809,5.7,1.99
	c1.278,0.113,2.707,0.064,3.645-0.813c0.48-0.451,0.77-1.067,1.019-1.679c1.28-3.135,2.349-7.225-0.13-10.076
	C384.004,119.096,378.224,117.29,380.036,122.142z"/>
<path fill="#445D7B" d="M394.682,121.504c-0.258-0.321-0.552-0.621-0.889-0.893c-2.717-2.202-6.234-4.318-9.853-3.196
	c1.091,6.702,0.054,13.732-2.925,19.835c-0.234,0.483-0.485,1.044-0.268,1.534c0.41,0.922,3.381,1.579,4.275,1.619
	c3.937,0.174,7.995-1.789,9.703-4.693c1.002-1.703,1.223-3.601,1.412-5.453C396.435,127.397,396.569,123.863,394.682,121.504z"/>
</svg>
