<?xml version="1.0" encoding="utf-8"?>
<!-- Generator: Adobe Illustrator 16.0.0, SVG Export Plug-In . SVG Version: 6.00 Build 0)  -->
<!DOCTYPE svg PUBLIC "-//W3C//DTD SVG 1.1//EN" "http://www.w3.org/Graphics/SVG/1.1/DTD/svg11.dtd">
<svg version="1.1" id="Слой_1" xmlns="http://www.w3.org/2000/svg" xmlns:xlink="http://www.w3.org/1999/xlink" x="0px" y="0px"
	 width="200px" height="141px" viewBox="0 0 200 141" enable-background="new 0 0 200 141" xml:space="preserve">
<path fill="#C1C0C0" d="M190.768,124.178H9.921c-4.583,0-8.298-3.716-8.298-8.298V15.29c0-4.583,3.715-8.299,8.298-8.299h180.847
	c4.583,0,8.297,3.716,8.297,8.299v100.59C199.064,120.462,195.351,124.178,190.768,124.178z"/>
<rect x="8.818" y="41.482" fill="#F2F2F2" width="24.361" height="24.362"/>
<rect x="8.818" y="15.252" fill="#8BBBE5" width="24.361" height="24.361"/>
<rect x="35.031" y="15.252" fill="#8BBBE5" width="24.361" height="24.361"/>
<rect x="76.233" y="41.367" fill="#49617F" width="24.362" height="24.36"/>
<rect x="102.446" y="41.367" fill="#FFFFFF" width="24.36" height="24.36"/>
<rect x="35.031" y="67.58" fill="#8BBBE5" width="24.361" height="24.361"/>
<rect x="35.031" y="93.794" fill="#FFDF69" width="24.361" height="24.361"/>
<rect x="76.233" y="93.794" fill="#49617F" width="24.362" height="24.361"/>
<rect x="8.818" y="67.639" fill="#8BBBE5" width="24.361" height="24.36"/>
<path fill="#6A90B4" d="M126.807,93.794c0,0-0.019,11.276-2.661,20.834l-5.633,3.526H98.647c3.774-10.043,3.797-24.361,3.797-24.361
	H126.807z"/>
<polygon fill="#49617F" points="118.513,118.155 118.513,114.548 124.146,114.548 "/>
<g>
	<path fill="#49617F" d="M100.593,67.58c0,0-0.017,11.276-2.66,20.835l-5.634,3.526H72.435c3.774-10.042,3.797-24.361,3.797-24.361
		H100.593z"/>
	<polygon fill="#49617F" points="92.299,91.941 92.299,88.334 97.933,88.334 	"/>
</g>
<rect x="102.446" y="15.27" fill="#49617F" width="24.36" height="24.362"/>
<path fill="#6A90B4" d="M100.593,15.27c0,0-0.017,11.276-2.66,20.836l-5.634,3.526H72.435c3.774-10.044,3.797-24.362,3.797-24.362
	H100.593z"/>
<polygon fill="#49617F" points="92.299,39.632 92.299,36.023 97.933,36.023 "/>
<path fill="#8BBBE5" d="M33.179,93.794c0,0-0.017,11.276-2.66,20.834l-5.634,3.526H5.021c3.774-10.043,3.796-24.361,3.796-24.361
	H33.179z"/>
<polygon fill="#C9C9C9" points="24.884,118.155 24.884,114.548 30.519,114.548 "/>
<rect x="142.121" y="41.482" fill="#FFFFFF" width="24.362" height="24.362"/>
<rect x="142.121" y="15.252" fill="#49617F" width="24.362" height="24.361"/>
<rect x="168.335" y="15.252" fill="#49617F" width="24.361" height="24.361"/>
<rect x="168.335" y="67.58" fill="#49617F" width="24.361" height="24.361"/>
<rect x="168.335" y="93.794" fill="#FFFFFF" width="24.361" height="24.361"/>
<rect x="142.121" y="67.639" fill="#49617F" width="24.362" height="24.36"/>
<path fill="#8F9ABA" d="M166.483,93.794c0,0-0.019,11.276-2.661,20.834l-5.634,3.526h-19.865
	c3.775-10.043,3.798-24.361,3.798-24.361H166.483z"/>
<polygon fill="#C9C9C9" points="158.188,118.155 158.188,114.548 163.822,114.548 "/>
<path fill="#8F9ABA" d="M126.807,67.58c0,0-0.019,11.276-2.661,20.835l-5.633,3.526H98.647c3.774-10.042,3.797-24.361,3.797-24.361
	H126.807z"/>
<polygon fill="#C9C9C9" points="118.513,91.941 118.513,88.334 124.146,88.334 "/>
<rect x="66.452" y="5.886" fill="#FFFFFF" width="1.532" height="125.9"/>
<rect x="133.698" y="2" fill="#FFFFFF" width="1.533" height="125.9"/>
<rect x="77.182" y="4.624" fill="#49617F" width="44.879" height="4.762"/>
<g>
	<g>
		<g>
			<polygon fill="#49617F" points="35.958,137.475 34.436,99.248 60.771,99.248 62.294,137.486 62.597,137.475 61.062,98.945 
				34.121,98.945 35.656,137.486 			"/>
		</g>
	</g>
</g>
<g>
	<g>
		<g>
			<polygon fill="#49617F" points="34.712,99.248 61.047,99.248 59.525,137.475 59.828,137.486 61.363,98.945 34.421,98.945 
				32.887,137.475 33.189,137.486 			"/>
		</g>
	</g>
</g>
<g>
	<g>
		<polygon fill="#757474" points="59.676,125.05 33.038,125.05 34.567,86.667 61.206,86.667 		"/>
	</g>
</g>
<g>
	<g>
		<polygon fill="#828282" points="36.558,125.05 63.197,125.05 61.667,86.667 35.03,86.667 		"/>
	</g>
</g>
<g>
	<g>
		<g>
			<rect x="57.569" y="110.193" fill="#E3F2FF" width="1.339" height="10.188"/>
		</g>
	</g>
</g>
<g>
	<g>
		<g>
			<rect x="54.923" y="111.335" fill="#E3F2FF" width="1.339" height="9.047"/>
		</g>
	</g>
</g>
<g>
	<g>
		<g>
			<rect x="52.049" y="112.82" fill="#E3F2FF" width="1.339" height="7.562"/>
		</g>
	</g>
</g>
<g>
	<g>
		<g>
			<rect x="49.098" y="114.693" fill="#E3F2FF" width="1.339" height="5.688"/>
		</g>
	</g>
</g>
<g>
	<g>
		<polygon fill="#E3F2FF" points="41.108,113.486 40.818,113.383 43.344,106.301 48.818,104.852 50.786,97.078 55.011,95.213 
			55.958,89.168 56.263,89.216 55.29,95.427 51.048,97.299 49.073,105.104 43.579,106.557 		"/>
	</g>
</g>
<g>
	<circle fill="#FFB255" cx="48.946" cy="104.977" r="0.822"/>
</g>
<g>
	<path fill="#E3F2FF" d="M49.563,105.732c-0.417,0.342-1.033,0.279-1.373-0.139c-0.341-0.416-0.278-1.031,0.138-1.371
		c0.417-0.341,1.033-0.279,1.373,0.137C50.042,104.776,49.98,105.393,49.563,105.732z M48.523,104.461
		c-0.285,0.232-0.327,0.654-0.094,0.939c0.232,0.284,0.654,0.326,0.939,0.095c0.285-0.233,0.327-0.655,0.095-0.939
		C49.23,104.27,48.808,104.228,48.523,104.461z"/>
</g>
<g>
	<circle fill="#FFB555" cx="50.94" cy="97.235" r="0.822"/>
</g>
<g>
	<path fill="#E3F2FF" d="M51.557,97.991c-0.417,0.341-1.033,0.279-1.373-0.137c-0.34-0.417-0.279-1.033,0.138-1.373
		c0.417-0.341,1.033-0.279,1.374,0.138C52.036,97.034,51.973,97.65,51.557,97.991z M50.517,96.719
		c-0.285,0.233-0.327,0.654-0.095,0.939c0.233,0.285,0.655,0.327,0.939,0.095c0.286-0.233,0.328-0.654,0.094-0.94
		C51.224,96.527,50.802,96.485,50.517,96.719z"/>
</g>
<g>
	<circle fill="#FFB555" cx="55.1" cy="95.318" r="0.822"/>
</g>
<g>
	<path fill="#E3F2FF" d="M55.717,96.073c-0.417,0.34-1.033,0.278-1.373-0.139c-0.34-0.416-0.278-1.031,0.138-1.373
		c0.417-0.341,1.032-0.279,1.373,0.138C56.196,95.117,56.134,95.732,55.717,96.073z M54.677,94.801
		c-0.285,0.232-0.328,0.655-0.094,0.938c0.233,0.286,0.654,0.328,0.939,0.095c0.285-0.232,0.327-0.654,0.094-0.939
		S54.962,94.567,54.677,94.801z"/>
</g>
<g>
	<circle fill="#FFB455" cx="43.492" cy="106.498" r="0.821"/>
</g>
<g>
	<path fill="#E3F2FF" d="M44.109,107.253c-0.417,0.341-1.032,0.279-1.373-0.137c-0.34-0.417-0.279-1.033,0.138-1.373
		c0.417-0.341,1.033-0.279,1.373,0.138C44.588,106.297,44.526,106.914,44.109,107.253z M43.069,105.98
		c-0.285,0.234-0.327,0.655-0.094,0.939c0.233,0.285,0.654,0.328,0.939,0.096c0.285-0.233,0.327-0.654,0.094-0.939
		S43.354,105.748,43.069,105.98z"/>
</g>
<g>
	<g>
		<g>
			<path fill="#EBEBEB" d="M46.193,98.267h-7.046c-0.326,0-0.59-0.265-0.59-0.589v-0.525c0-0.326,0.264-0.589,0.59-0.589h7.046
				c0.326,0,0.59,0.263,0.59,0.589v0.525C46.783,98.002,46.519,98.267,46.193,98.267z"/>
		</g>
	</g>
</g>
<g>
	<g>
		<g>
			<path fill="#EBEBEB" d="M46.193,95.287h-7.046c-0.326,0-0.59-0.264-0.59-0.589v-0.525c0-0.326,0.264-0.589,0.59-0.589h7.046
				c0.326,0,0.59,0.263,0.59,0.589v0.525C46.783,95.023,46.519,95.287,46.193,95.287z"/>
		</g>
	</g>
</g>
</svg>
