<?xml version="1.0" encoding="utf-8"?>
<!-- Generator: Adobe Illustrator 16.0.0, SVG Export Plug-In . SVG Version: 6.00 Build 0)  -->
<!DOCTYPE svg PUBLIC "-//W3C//DTD SVG 1.1//EN" "http://www.w3.org/Graphics/SVG/1.1/DTD/svg11.dtd">
<svg version="1.1" id="Layer_1" xmlns="http://www.w3.org/2000/svg" xmlns:xlink="http://www.w3.org/1999/xlink" x="0px" y="0px"
	 width="200px" height="200px" viewBox="32.052 27.778 200 200" enable-background="new 32.052 27.778 200 200"
	 xml:space="preserve">
<path fill="#8F9ABA" d="M156.654,130.277c0.586,0.278,1.098,0.522,1.612,0.765c0.401,0.188,0.799,0.381,1.206,0.555
	c0.275,0.119,0.408,0.33,0.406,0.615c-0.007,1.125-0.021,2.25-0.031,3.377c-0.006,0.625-0.14,0.76-0.758,0.762
	c-0.797,0-1.593,0-2.405,0.066c0.135,0.07,0.265,0.143,0.4,0.207c0.802,0.375,1.601,0.752,2.407,1.115
	c0.268,0.121,0.387,0.332,0.385,0.596c-0.001,1.148-0.02,2.297-0.028,3.447c-0.005,0.551-0.152,0.703-0.706,0.703
	c-0.796,0-1.595,0-2.409,0.064c0.059,0.045,0.114,0.096,0.181,0.127c0.847,0.395,1.689,0.789,2.538,1.176
	c0.272,0.121,0.427,0.322,0.427,0.607c-0.002,1.16-0.015,2.322-0.035,3.484c-0.005,0.166-0.036,0.404-0.146,0.486
	c-0.163,0.123-0.409,0.191-0.619,0.191c-2.982,0.012-5.966,0.008-8.948,0.01c-3.524,0-7.043,0.004-10.567-0.006
	c-0.168,0-0.355-0.047-0.506-0.127c-1.506-0.811-3.003-1.641-4.513-2.445c-0.326-0.176-0.463-0.395-0.46-0.766
	c0.009-1.088-0.011-2.178-0.021-3.268c-0.003-0.385,0.272-0.607,0.685-0.596c0.779,0.018,1.558,0.014,2.336,0.018
	c0.031,0,0.062-0.023,0.159-0.057c-0.154-0.088-0.26-0.15-0.368-0.209c-0.799-0.438-1.595-0.877-2.397-1.305
	c-0.258-0.135-0.391-0.32-0.391-0.623c0.002-1.125-0.015-2.252-0.019-3.377c0-0.365,0.236-0.574,0.629-0.574
	c0.825-0.004,1.648,0,2.497-0.063c-0.108-0.063-0.211-0.129-0.319-0.188c-0.799-0.436-1.594-0.877-2.396-1.303
	c-0.272-0.148-0.396-0.342-0.394-0.658c0.006-1.113-0.01-2.227-0.015-3.342c-0.002-0.375,0.214-0.57,0.619-0.57
	c0.825-0.002,1.653-0.002,2.57-0.002c-0.133-0.099-0.195-0.156-0.268-0.195c-0.84-0.46-1.678-0.924-2.524-1.372
	c-0.265-0.138-0.38-0.327-0.38-0.626c0.001-1.124-0.015-2.251-0.02-3.375c0-0.378,0.263-0.585,0.664-0.579
	c0.809,0.009,1.619,0.002,2.457-0.069c-0.105-0.059-0.209-0.122-0.315-0.183c-0.8-0.434-1.597-0.871-2.398-1.3
	c-0.241-0.129-0.387-0.297-0.387-0.589c-0.002-1.138-0.021-2.275-0.024-3.413c-0.002-0.357,0.248-0.579,0.632-0.579
	c3.87,0.002,7.738,0.006,11.609,0.006c2.563,0,5.128-0.002,7.69,0.003c0.173,0,0.361,0.032,0.519,0.104
	c1.658,0.771,3.312,1.555,4.968,2.331c0.277,0.126,0.397,0.339,0.396,0.623c-0.005,1.076-0.023,2.155-0.025,3.231
	c-0.001,0.807-0.097,0.904-0.916,0.899c-0.737-0.004-1.474-0.002-2.234,0.069c0.099,0.051,0.196,0.105,0.296,0.151
	c0.825,0.385,1.647,0.771,2.473,1.149c0.271,0.123,0.411,0.334,0.41,0.617c-0.004,1.138-0.021,2.275-0.034,3.412
	c-0.006,0.585-0.16,0.74-0.752,0.74c-0.741,0.004-1.486,0-2.226,0.004C156.824,130.229,156.782,130.247,156.654,130.277z
	 M139.99,129.168c0.173,0,0.315,0,0.456,0c1.256-0.002,2.516-0.002,3.771-0.002c4.743,0.002,9.485,0.002,14.229,0.014
	c0.296,0,0.365-0.098,0.359-0.371c-0.015-0.622-0.023-1.247,0.006-1.869c0.017-0.358-0.114-0.434-0.451-0.434
	c-5.967,0.011-11.929,0.008-17.896,0.008c-0.151,0-0.302,0-0.476,0C139.99,127.409,139.99,128.254,139.99,129.168z M139.993,147.576
	c0.176,0,0.327,0,0.479,0c2.288,0,4.576-0.002,6.864-0.002c3.678,0,7.354-0.004,11.031,0.01c0.346,0.002,0.456-0.102,0.444-0.445
	c-0.021-0.609-0.021-1.223,0.001-1.83c0.012-0.324-0.101-0.398-0.412-0.396c-6.001,0.008-12.003,0.004-18.004,0.002
	c-0.127,0-0.254,0-0.402,0C139.993,145.821,139.993,146.672,139.993,147.576z M158.802,138.815c-6.31,0-12.553,0-18.813,0
	c0,0.869,0,1.715,0,2.578c0.124,0.008,0.23,0.018,0.333,0.018c2.825,0.002,5.652-0.002,8.478,0.004
	c1.903,0.002,3.806,0.018,5.709,0.023c1.328,0.006,2.658,0.006,3.987-0.006c0.103,0,0.291-0.123,0.292-0.193
	C158.809,140.44,158.802,139.641,158.802,138.815z M139.983,123.013c0.168,0,0.298,0,0.426,0c2.718,0,5.435-0.006,8.153,0
	c2.036,0.004,4.069,0.022,6.104,0.029c1.258,0.006,2.515,0.006,3.772-0.007c0.119-0.002,0.339-0.114,0.342-0.182
	c0.023-0.811,0.016-1.622,0.016-2.437c-6.296,0-12.55,0-18.813,0C139.983,121.281,139.983,122.116,139.983,123.013z M139.99,135.27
	c6.272,0,12.523,0,18.789,0c0-0.871,0-1.715,0-2.574c-6.275,0-12.527,0-18.789,0C139.99,133.567,139.99,134.412,139.99,135.27z
	 M156.733,137.729c0.008-0.031,0.017-0.063,0.022-0.094c-0.784-0.371-1.564-0.754-2.356-1.105c-0.233-0.102-0.504-0.162-0.757-0.166
	c-1.269-0.016-2.538-0.006-3.808-0.006c-3.568-0.002-7.137-0.002-10.704-0.004c-0.696,0-1.395,0-2.091,0
	c0.086,0.131,0.183,0.189,0.286,0.242c0.618,0.313,1.229,0.639,1.859,0.928c0.253,0.113,0.544,0.195,0.818,0.197
	c4.62,0.01,9.242,0.008,13.863,0.008C154.823,137.729,155.778,137.729,156.733,137.729z M137.042,117.952
	c-0.005,0.033-0.01,0.065-0.015,0.097c0.821,0.409,1.645,0.821,2.472,1.221c0.111,0.054,0.255,0.054,0.384,0.054
	c5.498,0.003,10.997,0.003,16.495,0.003c0.12,0,0.241,0,0.362,0c0.004-0.035,0.009-0.07,0.013-0.107
	c-0.898-0.413-1.795-0.831-2.698-1.237c-0.103-0.045-0.235-0.028-0.354-0.028c-5.259-0.002-10.517-0.002-15.777-0.002
	C137.63,117.952,137.337,117.952,137.042,117.952z M137.065,124.115c-0.011,0.021-0.022,0.043-0.033,0.066
	c0.752,0.377,1.503,0.76,2.261,1.125c0.164,0.081,0.359,0.134,0.54,0.134c5.555,0.007,11.109,0.005,16.665,0.003
	c0.084,0,0.165-0.018,0.342-0.041c-0.841-0.397-1.58-0.761-2.335-1.09c-0.253-0.112-0.546-0.188-0.818-0.188
	c-4.598-0.012-9.195-0.01-13.792-0.01C138.952,124.115,138.008,124.115,137.065,124.115z M137.06,142.485
	c-0.007,0.033-0.015,0.064-0.021,0.098c0.4,0.203,0.817,0.379,1.201,0.617c0.852,0.529,1.757,0.672,2.758,0.664
	c5.128-0.037,10.254-0.016,15.38-0.016c0.12,0,0.24,0,0.36,0c-0.773-0.455-1.549-0.83-2.332-1.182
	c-0.188-0.086-0.411-0.143-0.616-0.145c-3.391-0.008-6.779-0.002-10.17-0.006c-1.557-0.002-3.112-0.021-4.67-0.029
	C138.32,142.483,137.689,142.485,137.06,142.485z M156.691,131.545c0.006-0.023,0.011-0.047,0.015-0.072
	c-0.532-0.25-1.082-0.479-1.599-0.762c-0.666-0.371-1.354-0.544-2.123-0.482c-0.571,0.046-1.149,0.009-1.723,0.007
	c-4.62-0.002-9.241-0.004-13.859-0.007c-0.118,0-0.235,0.013-0.353,0.019c0.781,0.464,1.558,0.86,2.342,1.241
	c0.132,0.063,0.3,0.074,0.451,0.074c5.505,0.006,11.011,0.006,16.517,0.002C156.469,131.567,156.582,131.555,156.691,131.545z
	 M135.134,142.834c0,0.717,0.008,1.355-0.005,1.998c-0.004,0.244,0.082,0.387,0.301,0.504c1.035,0.551,2.06,1.113,3.091,1.67
	c0.096,0.053,0.197,0.096,0.352,0.168c0-0.766-0.013-1.457,0.005-2.15c0.007-0.242-0.087-0.359-0.295-0.459
	c-0.934-0.457-1.858-0.928-2.786-1.395C135.597,143.071,135.402,142.969,135.134,142.834z M135.14,124.446
	c0,0.721,0.007,1.386-0.005,2.051c-0.004,0.212,0.078,0.317,0.258,0.414c1.043,0.557,2.082,1.126,3.122,1.693
	c0.098,0.051,0.202,0.097,0.357,0.172c0-0.759-0.012-1.454,0.005-2.145c0.006-0.24-0.074-0.364-0.288-0.469
	c-0.945-0.46-1.88-0.938-2.818-1.41C135.582,124.657,135.391,124.569,135.14,124.446z M138.873,122.661
	c0-0.771-0.012-1.464,0.005-2.156c0.006-0.239-0.073-0.367-0.285-0.47c-1.06-0.522-2.113-1.058-3.169-1.588
	c-0.079-0.04-0.167-0.06-0.287-0.103c0,0.734-0.009,1.428,0.011,2.12c0.002,0.099,0.122,0.227,0.221,0.286
	c0.476,0.274,0.963,0.531,1.444,0.794C137.471,121.901,138.132,122.26,138.873,122.661z M138.872,141.061
	c0-0.775-0.011-1.469,0.005-2.16c0.006-0.24-0.081-0.367-0.29-0.469c-1.061-0.521-2.114-1.057-3.171-1.586
	c-0.078-0.039-0.166-0.057-0.281-0.098c0,0.729-0.011,1.412,0.009,2.092c0.004,0.105,0.125,0.25,0.229,0.311
	c0.611,0.35,1.236,0.682,1.854,1.02C137.75,140.453,138.273,140.739,138.872,141.061z M138.87,134.928
	c0-0.785-0.011-1.488,0.006-2.193c0.005-0.225-0.08-0.336-0.276-0.434c-1.039-0.512-2.07-1.039-3.105-1.557
	c-0.1-0.051-0.207-0.08-0.358-0.14c0,0.743-0.01,1.437,0.012,2.128c0.003,0.107,0.141,0.24,0.247,0.301
	c0.485,0.283,0.984,0.547,1.479,0.814C137.511,134.196,138.151,134.539,138.87,134.928z"/>
<path fill="#ACACAC" d="M174.111,173.895c0,2.77,0,5.115,0,8.162c1.19-1.113,1.904-1.824,2.664-2.48
	c1.345-1.166,3.078-1.52,4.053-0.037c0.652,0.996,0.805,3.215,0.137,4.025c-2.385,2.891-5.162,5.471-7.899,8.055
	c-1.406,1.326-2.992,1.17-4.383-0.199c-2.475-2.441-4.958-4.873-7.4-7.352c-1.416-1.434-1.733-3.098-0.22-4.594
	c1.441-1.428,2.981-0.973,4.354,0.303c0.677,0.631,1.359,1.256,2.389,2.203c0-2.92,0-5.344,0-7.924c-15.728,0-31.302,0-47.39,0
	c0.983,1.08,1.669,1.82,2.34,2.576c1.283,1.441,1.463,2.959,0.039,4.361c-1.337,1.314-2.882,1.119-4.138-0.084
	c-2.647-2.535-5.229-5.143-7.748-7.807c-1.424-1.506-1.301-3.121,0.181-4.604c2.389-2.391,4.767-4.791,7.161-7.176
	c1.404-1.398,3.002-1.943,4.576-0.42c1.581,1.529,1.075,3.127-0.292,4.574c-0.584,0.623-1.147,1.264-2.063,2.271
	c15.984,0,31.519,0,47.291,0c0-21.756,0-43.521,0-65.517c-4.71,0-9.464,0-14.772,0c1.005,1.069,2.109,1.752,2.414,2.695
	c0.39,1.203,0.658,3.291,0.031,3.778c-0.912,0.71-3.189,0.957-3.974,0.307c-2.959-2.456-5.693-5.232-8.176-8.173
	c-0.644-0.759-0.602-3.013,0.055-3.793c2.418-2.869,5.091-5.576,7.976-7.966c0.828-0.685,3.025-0.601,4.03,0.028
	c1.498,0.939,1.208,2.681,0.05,4.05c-0.658,0.776-1.37,1.506-2.433,2.667c5.289,0,9.96,0,15.023,0c0-3.847,0-7.575,0-11.304
	c0-0.966,0.013-1.932-0.002-2.896c-0.034-2.041,0.852-3.488,2.95-3.545c2.173-0.06,2.971,1.431,2.964,3.458
	c-0.011,3.961,0.099,7.923-0.031,11.879c-0.068,2.04,0.632,2.658,2.647,2.643c10.815-0.08,21.637-0.044,32.453-0.033
	c4.41,0.005,4.943,0.565,4.937,5.067c-0.008,4.926-0.031,9.851-0.02,14.777c0.005,1.957-0.513,3.558-2.791,3.6
	c-2.384,0.042-3.106-1.55-3.106-3.647c-0.002-4.44,0-8.878,0-13.569c-11.271,0-22.411,0-33.882,0
	c-0.063,0.953-0.189,1.975-0.189,2.996c-0.014,19.8,0.028,39.601-0.06,59.4c-0.012,2.572,0.613,3.496,3.373,3.441
	c9.364-0.176,18.737-0.066,28.106-0.066c1.332,0,2.667,0,4.469,0c0-4.393-0.006-8.5,0.005-12.607
	c0.002-0.867-0.233-1.936,0.178-2.551c0.674-1.014,1.858-2.473,2.702-2.393c1.089,0.102,2.899,1.494,2.937,2.395
	c0.258,6.166,0.267,12.352,0.056,18.521c-0.073,2.107-1.978,2.516-3.909,2.51c-11.398-0.037-22.796-0.012-34.192-0.008
	C176.523,173.895,175.47,173.895,174.111,173.895z"/>
<path fill="#ACACAC" d="M141.318,64.541c-28.119,0-55.593,0-83.503,0c0,4.044,0.004,7.96-0.003,11.877
	c-0.002,1.06,0.328,2.359-0.16,3.124c-0.674,1.056-1.933,2.257-3.031,2.352c-0.804,0.068-2.485-1.515-2.519-2.409
	c-0.229-6.071-0.241-12.158,0.005-18.228c0.038-0.927,1.667-1.965,2.762-2.605c0.651-0.38,1.698-0.089,2.566-0.089
	c26.833-0.006,53.667-0.01,80.5-0.015c0.935,0,1.868,0,3.428,0c-1.146-1.262-1.922-2.047-2.617-2.9
	c-1.119-1.371-1.299-2.82,0.028-4.15c1.329-1.332,2.864-1.232,4.138-0.021c2.725,2.593,5.386,5.258,7.964,7.998
	c1.35,1.433,1.081,3.022-0.254,4.386c-2.428,2.485-4.881,4.946-7.35,7.389c-1.451,1.435-3.072,1.711-4.566,0.158
	c-1.412-1.468-0.969-2.991,0.285-4.371C139.623,66.344,140.271,65.664,141.318,64.541z"/>
<path fill="#ACACAC" d="M145.914,211.051c-1.639,0-2.646,0-3.656,0c-17.566,0-35.133,0.002-52.699-0.002
	c-4.066-0.002-4.829-0.795-4.829-4.904c0-4.828-0.004-9.65-0.034-14.477c-0.014-2.146,0.508-4.043,3.019-4.063
	c2.518-0.021,3.076,1.859,3.067,4.016c-0.016,4.412-0.004,8.826-0.004,13.396c18.386,0,36.448,0,55.124,0
	c-1.072-1.133-1.784-1.855-2.46-2.609c-1.281-1.434-1.476-2.986-0.044-4.361c1.313-1.264,2.81-1.15,4.116,0.133
	c2.616,2.566,5.232,5.139,7.789,7.766c1.488,1.525,1.287,3.109-0.175,4.574c-2.387,2.391-4.794,4.762-7.171,7.16
	c-1.395,1.408-2.956,2.061-4.534,0.502c-1.639-1.619-1.175-3.281,0.39-4.775C144.408,212.84,144.915,212.182,145.914,211.051z"/>
<path fill="#ACACAC" d="M50.004,126.607c-1.395,1.324-2.061,2.462-2.956,2.685c-1.297,0.324-3.129,0.466-4.025-0.226
	c-0.644-0.499-0.687-2.959-0.036-3.731c2.418-2.869,5.196-5.442,7.919-8.04c1.433-1.368,3.031-1.143,4.391,0.167
	c2.505,2.411,4.952,4.879,7.394,7.354c1.318,1.338,1.693,2.917,0.336,4.37c-1.482,1.588-3.112,1.168-4.59-0.176
	c-0.626-0.568-1.227-1.165-2.187-2.079c0,13.774,0,27.11,0,40.872c0.885,0,1.806-0.008,2.727,0.002
	c3.09,0.033,6.207-0.154,9.251,0.232c1.053,0.135,2.628,1.668,2.678,2.629c0.049,0.99-1.424,2.908-2.308,2.957
	c-5.296,0.283-10.619,0.297-15.919,0.078c-2.299-0.096-2.679-2.164-2.679-4.131c0-5.215,0.003-10.43,0.004-15.643
	c0-7.918,0-15.84,0-23.759C50.004,129.238,50.004,128.307,50.004,126.607z"/>
<path fill="#8F9ABA" d="M172.594,54.295c5.031,0,10.063,0.041,15.091-0.022c1.659-0.021,1.978,1.104,1.752,2.215
	c-0.947,4.629-1.92,9.253-2.884,13.879c-0.086,0.42-0.163,0.845-0.285,1.255c-0.212,0.712-0.757,1.105-1.494,1.105
	c-8.253,0.001-16.506,0.001-24.759,0c-0.705,0-1.055-0.333-1.223-1.137c-0.471-2.236-0.94-4.472-1.411-6.708
	c-0.606-2.875-1.229-5.746-1.813-8.624c-0.253-1.26,0.352-1.96,1.624-1.96C162.325,54.293,167.46,54.295,172.594,54.295z
	 M172.474,62.373c-0.708,0.002-1.194,0.484-1.2,1.187c-0.006,0.688,0.5,1.203,1.19,1.208c0.679,0.007,1.206-0.517,1.205-1.199
	C173.67,62.869,173.168,62.369,172.474,62.373z"/>
<path fill="#8F9ABA" d="M173.245,31.779c1.521-0.017,2.551,0.083,3.039,1.109c0.339,0.714,0.818,1.216,1.373,1.744
	c0.936,0.89,1.128,2.091,1.014,3.337c-0.052,0.563-0.188,1.12-0.235,1.684c-0.015,0.17,0.091,0.441,0.228,0.518
	c0.632,0.364,0.873,0.945,0.846,1.603c-0.027,0.674-0.391,1.23-1.029,1.494c-0.401,0.165-0.54,0.422-0.652,0.81
	c-0.691,2.41-2.098,4.113-4.691,4.587c-1.776,0.323-3.201-0.306-4.375-1.623c-0.843-0.946-1.339-2.066-1.711-3.262
	c-0.064-0.21-0.249-0.443-0.44-0.546c-1.176-0.627-1.36-1.884-0.409-2.794c0.117-0.113,0.168-0.391,0.125-0.559
	c-0.313-1.178-0.445-2.363-0.249-3.574c0.252-1.56,1.151-2.651,2.551-3.276C170.249,32.307,171.951,31.825,173.245,31.779z
	 M177.564,40.315c-0.094-0.568-0.162-1.149-0.288-1.715c-0.235-1.057-0.479-2.122-1.306-2.918c-0.438-0.42-0.83-0.489-1.355-0.194
	c-1.934,1.088-4.017,1.597-6.224,1.617c-0.339,0.003-0.536,0.131-0.614,0.418c-0.199,0.742-0.397,1.487-0.543,2.24
	c-0.059,0.302-0.114,0.506-0.447,0.577c-0.604,0.128-0.82,0.593-0.874,1.139c-0.051,0.529,0.09,1.107,0.617,1.245
	c0.745,0.194,0.842,0.745,1.016,1.307c0.046,0.147,0.081,0.299,0.137,0.443c0.513,1.357,1.297,2.525,2.571,3.257
	c1.705,0.98,4.295,0.482,5.642-0.998c0.954-1.05,1.512-2.283,1.728-3.656c1.033-0.283,1.555-0.817,1.516-1.527
	C179.097,40.772,178.658,40.424,177.564,40.315z"/>
<path fill="#8F9ABA" d="M172.466,73.456c4.822,0,9.645,0,14.469,0c0.137,0,0.274-0.004,0.413,0.002
	c0.337,0.018,0.561,0.184,0.576,0.532c0.02,0.371-0.219,0.532-0.552,0.538c-0.844,0.015-1.688,0.013-2.531,0.013
	c-8.183,0-16.363,0-24.544,0c-0.827,0-1.654,0-2.479-0.005c-0.376-0.002-0.709-0.082-0.695-0.559
	c0.012-0.476,0.345-0.523,0.72-0.523C162.716,73.458,167.591,73.456,172.466,73.456z"/>
<path fill="#8F9ABA" d="M178.719,48.612c2.331,0.995,4.205,2.37,5.099,4.861c-2.72,0-5.374,0-8.109,0
	C176.724,51.829,177.71,50.242,178.719,48.612z"/>
<path fill="#8F9ABA" d="M166.215,48.606c0.997,1.58,1.959,3.106,2.922,4.632c0.034,0.056,0.059,0.119,0.112,0.227
	c-2.679,0-5.314,0-8.006,0C162.108,51.028,163.877,49.573,166.215,48.606z"/>
<path fill="#8F9ABA" d="M171.894,53.527c-0.203-0.396-0.355-0.738-0.552-1.054c-0.337-0.546-0.229-1.364,0.259-1.786
	c0.5-0.43,1.245-0.416,1.742,0.032c0.51,0.46,0.578,1.211,0.202,1.776c-0.187,0.278-0.297,0.607-0.497,1.032
	C172.734,53.527,172.236,53.527,171.894,53.527z"/>
<path fill="#A6B1DA" d="M171.21,210.143c3.556,0,7.11,0.029,10.663-0.016c1.174-0.016,1.397,0.779,1.238,1.564
	c-0.67,3.271-1.356,6.539-2.037,9.809c-0.062,0.295-0.116,0.598-0.202,0.887c-0.15,0.502-0.536,0.781-1.056,0.781
	c-5.834,0-11.663,0-17.495-0.002c-0.5,0-0.747-0.236-0.864-0.803c-0.332-1.58-0.666-3.16-0.998-4.74
	c-0.429-2.033-0.869-4.061-1.282-6.094c-0.177-0.891,0.25-1.387,1.15-1.387C163.953,210.141,167.581,210.143,171.21,210.143z
	 M171.127,215.852c-0.5,0-0.845,0.34-0.851,0.836c-0.004,0.488,0.354,0.854,0.842,0.857c0.479,0.004,0.853-0.367,0.852-0.85
	C171.969,216.201,171.616,215.848,171.127,215.852z"/>
<path fill="#A6B1DA" d="M171.119,223.684c3.407,0,6.813,0,10.224,0c0.097,0,0.194-0.004,0.292,0.002
	c0.237,0.012,0.394,0.127,0.406,0.373c0.016,0.266-0.155,0.379-0.389,0.383c-0.598,0.012-1.193,0.01-1.79,0.01
	c-5.779,0-11.561,0-17.344,0c-0.583,0-1.167,0-1.751-0.004c-0.265-0.002-0.5-0.059-0.493-0.396c0.011-0.336,0.245-0.369,0.511-0.369
	C164.23,223.684,167.674,223.684,171.119,223.684z"/>
<path fill="#A6B1DA" d="M175.538,206.129c1.648,0.699,2.972,1.672,3.602,3.434c-1.92,0-3.797,0-5.73,0
	C174.128,208.401,174.823,207.28,175.538,206.129z"/>
<path fill="#A6B1DA" d="M166.701,206.121c0.704,1.117,1.386,2.195,2.064,3.275c0.025,0.039,0.043,0.084,0.079,0.16
	c-1.891,0-3.755,0-5.656,0C163.801,207.834,165.05,206.805,166.701,206.121z"/>
<path fill="#A6B1DA" d="M170.714,209.602c-0.144-0.279-0.251-0.523-0.388-0.748c-0.238-0.385-0.163-0.963,0.183-1.26
	c0.353-0.305,0.879-0.295,1.23,0.02c0.361,0.324,0.407,0.857,0.142,1.256c-0.13,0.197-0.209,0.43-0.35,0.73
	C171.308,209.602,170.957,209.602,170.714,209.602z"/>
<path fill="#A6B1DA" d="M176.097,201.297c-0.021,0.477-0.278,0.869-0.729,1.055c-0.285,0.115-0.384,0.295-0.464,0.572
	c-0.488,1.705-1.478,2.902-3.31,3.238c-1.257,0.227-2.267-0.215-3.095-1.146c-0.597-0.666-0.944-1.459-1.206-2.307
	c-0.046-0.145-0.179-0.314-0.313-0.383c-0.828-0.447-0.962-1.334-0.289-1.977c0.083-0.082,0.117-0.277,0.087-0.395
	c-0.22-0.834-0.313-1.67-0.175-2.525c0.181-1.102,0.812-1.871,1.801-2.313c1.149-0.516,2.348-0.852,3.264-0.885
	c1.073-0.014,1.804,0.057,2.145,0.783c0.243,0.502,0.58,0.861,0.974,1.234c0.66,0.623,0.794,1.477,0.714,2.357
	c-0.034,0.398-0.127,0.789-0.163,1.188c-0.012,0.121,0.064,0.313,0.156,0.365C175.946,200.422,176.114,200.832,176.097,201.297z"/>
<path fill="#8BBBE5" d="M207.267,133.715c-1.226-0.078-1.273-0.145-0.817-1.361c0.344-0.912,0.802-1.755-0.018-2.74
	c-0.277-0.333,0.003-1.1-0.052-1.656c-0.048-0.499-0.24-0.982-0.305-1.481c-0.039-0.286-0.04-0.647,0.1-0.88
	c1.101-1.846,5.2-3.536,7.249-2.768c2.506,0.938,4.862,2.681,4.902,5.721c0.013,0.909,0.243,1.814,0.359,2.724
	c0.021,0.166,0.031,0.381-0.052,0.508c-0.737,1.102-0.068,1.049,0.817,1.383c1.558,0.59,3.088,1.426,4.401,2.453
	c3.922,3.061,5.815,7.352,6.989,12.174c-11.826,0-23.553,0-35.372,0c0-0.525,0-1.031,0-1.715c1.534,0,3.078-0.031,4.62,0.012
	c1.117,0.031,2.068-0.1,3.01-0.896c1.378-1.174,1.977-1.057,3.35-0.037c0.223,0.17,0.58,0.234,0.869,0.225
	c0.882-0.037,1.583,0.234,2.125,0.957c0.357,0.475,2.813,0.844,3.243,0.461c0.195-0.176,0.271-0.563,0.283-0.855
	c0.099-2.324,0.259-4.652,0.197-6.971c-0.02-0.75-0.621-1.498-1.023-2.209c-0.054-0.094-0.517-0.016-0.762,0.066
	c-0.501,0.164-0.976,0.5-1.479,0.541c-0.368,0.029-1.117-0.393-1.1-0.457c0.243-0.934-0.71-1.326-0.873-2.064
	C207.852,134.487,207.548,134.178,207.267,133.715z"/>
<path fill="#8BBBE5" d="M195.267,146.018c-0.567,0.189-0.995,0.332-1.582,0.527c-1.539-4.727-3.061-9.4-4.622-14.191
	c0.534-0.176,0.99-0.324,1.587-0.518C192.182,136.539,193.706,141.221,195.267,146.018z"/>
<path fill="#49617F" d="M60.125,96.413c1.406-0.09,1.46-0.167,0.936-1.56c-0.394-1.045-0.917-2.013,0.021-3.139
	c0.317-0.382-0.003-1.257,0.059-1.899c0.055-0.571,0.276-1.123,0.35-1.693c0.042-0.33,0.045-0.741-0.115-1.009
	c-1.26-2.115-5.956-4.049-8.303-3.169c-2.87,1.074-5.568,3.071-5.615,6.553c-0.014,1.04-0.28,2.077-0.413,3.117
	c-0.024,0.191-0.035,0.437,0.061,0.582c0.845,1.264,0.078,1.202-0.936,1.585c-1.784,0.674-3.537,1.635-5.042,2.81
	c-4.493,3.506-6.661,8.419-8.005,13.942c13.544,0,26.976,0,40.514,0c0-0.6,0-1.18,0-1.962c-1.757,0-3.525-0.037-5.292,0.014
	c-1.278,0.036-2.37-0.115-3.446-1.028c-1.58-1.343-2.264-1.211-3.837-0.042c-0.257,0.192-0.664,0.27-0.997,0.256
	c-1.01-0.041-1.813,0.27-2.432,1.097c-0.411,0.545-3.224,0.968-3.717,0.528c-0.223-0.201-0.31-0.643-0.324-0.98
	c-0.114-2.662-0.297-5.328-0.227-7.985c0.022-0.858,0.712-1.714,1.172-2.527c0.062-0.109,0.592-0.018,0.873,0.074
	c0.574,0.188,1.117,0.576,1.691,0.621c0.422,0.034,1.28-0.45,1.26-0.523c-0.279-1.069,0.813-1.519,0.999-2.364
	C59.455,97.295,59.803,96.94,60.125,96.413z"/>
<path fill="#49617F" d="M73.87,110.502c0.65,0.217,1.14,0.381,1.811,0.604c1.763-5.413,3.506-10.767,5.293-16.255
	c-0.612-0.199-1.133-0.371-1.816-0.593C77.405,99.646,75.66,105.008,73.87,110.502z"/>
<path fill="#6A90B4" d="M89.916,167.033c1.741,0,3.482,0,5.226,0c2.018,0,4.034-0.004,6.053,0.002c0.842,0,1.479,0.373,1.891,1.105
	c0.255,0.455,0.271,0.939,0.179,1.449c-0.255,1.396-0.487,2.801-0.729,4.203c-0.305,1.771-0.617,3.543-0.921,5.316
	c-0.08,0.465-0.133,0.936-0.223,1.398c-0.18,0.914-0.988,1.613-1.919,1.631c-1.198,0.023-2.397,0.01-3.593,0.01
	c-4.737,0.002-9.474,0.002-14.208,0.002c-0.428,0-0.855,0.008-1.284,0c-0.97-0.016-1.85-0.828-1.981-1.793
	c-0.098-0.719-0.227-1.438-0.348-2.156c-0.193-1.135-0.39-2.27-0.585-3.4c-0.188-1.086-0.375-2.17-0.563-3.254
	c-0.134-0.777-0.304-1.551-0.391-2.334c-0.08-0.723,0.243-1.309,0.811-1.756c0.386-0.303,0.834-0.428,1.323-0.424
	c1.127,0.004,2.255,0.01,3.382,0.01c1.47,0,2.939-0.008,4.407-0.01C87.6,167.031,88.759,167.033,89.916,167.033L89.916,167.033z
	 M89.918,175.293c0.489,0.004,0.896-0.402,0.894-0.889c-0.001-0.49-0.403-0.895-0.89-0.896c-0.493-0.004-0.905,0.408-0.901,0.902
	C89.024,174.901,89.419,175.291,89.918,175.293z"/>
<path fill="#6A90B4" d="M101.561,166.475c-7.773,0-15.527,0-23.304,0c0.068-0.211,0.13-0.424,0.202-0.635
	c0.33-0.971,0.759-1.893,1.418-2.691c0.679-0.824,1.518-1.395,2.591-1.549c0.404-0.059,0.56-0.334,0.708-0.637
	c0.273-0.566,0.369-1.176,0.426-1.793c0.119-1.301,0.033-2.594-0.116-3.885c-0.053-0.451-0.137-0.896-0.177-1.346
	c-0.027-0.307-0.017-0.615-0.001-0.92c0.045-0.955,0.149-1.906,0.388-2.834c0.281-1.086,0.704-2.105,1.429-2.98
	c0.819-0.986,1.864-1.588,3.124-1.82c0.475-0.086,0.948-0.104,1.428-0.074c0.289,0.02,0.582-0.018,0.873-0.016
	c2.12,0.029,3.704,0.973,4.759,2.801c0.569,0.984,0.887,2.059,1.034,3.178c0.093,0.717,0.156,1.439,0.177,2.164
	c0.012,0.451-0.069,0.906-0.126,1.361c-0.183,1.475-0.304,2.951-0.163,4.438c0.051,0.541,0.142,1.076,0.356,1.584
	c0.046,0.109,0.102,0.217,0.16,0.322c0.137,0.25,0.315,0.406,0.624,0.453c1.18,0.184,2.067,0.844,2.763,1.785
	c0.674,0.908,1.095,1.938,1.408,3.016C101.549,166.42,101.554,166.444,101.561,166.475z M94.421,155.91
	c0.079,0,0.171,0.027,0.229-0.006c0.105-0.063,0.212-0.143,0.277-0.242c0.313-0.48,0.409-1.02,0.371-1.582
	c-0.012-0.184-0.093-0.363-0.169-0.537c-0.046-0.102-0.14-0.131-0.237-0.018c-0.091,0.107-0.212,0.191-0.299,0.299
	c-0.109,0.139-0.207,0.127-0.354,0.051c-2.12-1.098-4.241-2.189-6.364-3.283c-0.092-0.047-0.196-0.09-0.298-0.094
	c-0.52-0.023-0.98,0.135-1.366,0.492c-0.435,0.402-0.688,0.914-0.854,1.469c-0.101,0.34-0.169,0.686-0.252,1.029
	c-0.252-0.088-0.401-0.021-0.469,0.262c-0.166,0.699-0.044,1.357,0.348,1.959c0.138,0.213,0.248,0.238,0.484,0.176
	c0.227,0.684,0.527,1.336,0.917,1.943c0.491,0.766,1.078,1.441,1.86,1.924c0.617,0.381,1.282,0.574,2.01,0.494
	c0.621-0.072,1.168-0.322,1.665-0.689c0.913-0.676,1.549-1.57,2.038-2.578C94.129,156.629,94.27,156.264,94.421,155.91z
	 M93.124,159.871c-1.95,1.922-4.321,2.023-6.358,0.021c-0.06,0.176-0.1,0.369-0.188,0.537c-0.188,0.357-0.507,0.58-0.874,0.729
	c-0.115,0.047-0.153,0.109-0.095,0.213c0.095,0.162,0.179,0.344,0.309,0.477c0.997,1.016,2.229,1.545,3.633,1.654
	c1.199,0.096,2.31-0.225,3.337-0.84c0.456-0.271,0.877-0.588,1.193-1.023c0.094-0.133,0.163-0.275,0.162-0.436
	C93.653,160.94,93.187,160.586,93.124,159.871z"/>
<path fill="#6A90B4" d="M89.934,183.354c-3.161,0-6.32,0-9.481,0c-0.271,0-0.543,0.008-0.815,0
	c-0.218-0.004-0.396-0.168-0.422-0.363c-0.027-0.209,0.094-0.416,0.293-0.473c0.094-0.027,0.199-0.031,0.298-0.031
	c4.15,0.002,8.301,0.006,12.452,0.008c2.617,0.002,5.232,0.002,7.848,0c0.195-0.002,0.363,0.043,0.459,0.227
	c0.077,0.148,0.072,0.303-0.024,0.443c-0.088,0.131-0.216,0.189-0.374,0.189c-0.277-0.002-0.554,0-0.831,0c-1.877,0-3.754,0-5.631,0
	C92.449,183.354,91.191,183.354,89.934,183.354z"/>
<path fill="#C5DFE2" d="M130.113,104.615c1.124,0.535,2.104,1.002,3.084,1.463c0.766,0.361,1.527,0.728,2.304,1.063
	c0.529,0.229,0.78,0.628,0.777,1.176c-0.011,2.15-0.042,4.301-0.061,6.452c-0.011,1.193-0.267,1.456-1.449,1.456
	c-1.522,0-3.044,0-4.594,0.129c0.252,0.132,0.504,0.273,0.762,0.394c1.532,0.717,3.063,1.437,4.603,2.134
	c0.508,0.23,0.738,0.628,0.737,1.135c-0.003,2.197-0.038,4.392-0.057,6.589c-0.008,1.055-0.292,1.345-1.348,1.346
	c-1.523,0.001-3.049,0-4.609,0.125c0.117,0.082,0.224,0.18,0.35,0.239c1.615,0.754,3.229,1.51,4.853,2.246
	c0.519,0.236,0.813,0.619,0.813,1.164c-0.002,2.219-0.025,4.439-0.068,6.656c-0.007,0.322-0.066,0.773-0.276,0.934
	c-0.313,0.236-0.783,0.367-1.187,0.369c-5.7,0.02-11.402,0.014-17.103,0.014c-6.732,0.002-13.464,0.01-20.195-0.002
	c-0.325,0-0.683-0.094-0.969-0.25c-2.881-1.549-5.741-3.137-8.626-4.676c-0.625-0.332-0.888-0.75-0.882-1.461
	c0.017-2.08-0.022-4.163-0.04-6.246c-0.006-0.734,0.522-1.158,1.31-1.14c1.488,0.033,2.975,0.025,4.463,0.033
	c0.058,0,0.117-0.042,0.303-0.109c-0.293-0.169-0.497-0.288-0.702-0.4c-1.527-0.832-3.049-1.668-4.583-2.487
	c-0.493-0.263-0.75-0.616-0.749-1.194c0.002-2.151-0.028-4.302-0.032-6.455c-0.001-0.698,0.451-1.1,1.203-1.101
	c1.574-0.004,3.149-0.001,4.77-0.117c-0.202-0.12-0.401-0.247-0.607-0.36c-1.526-0.833-3.047-1.674-4.581-2.49
	c-0.521-0.279-0.758-0.651-0.755-1.259c0.014-2.128-0.018-4.257-0.026-6.386c-0.004-0.718,0.407-1.089,1.186-1.091
	c1.578-0.002,3.156,0,4.91,0c-0.254-0.188-0.372-0.3-0.511-0.376c-1.605-0.878-3.205-1.766-4.824-2.62
	c-0.506-0.27-0.729-0.626-0.729-1.198c0.002-2.153-0.026-4.304-0.034-6.455c-0.002-0.721,0.5-1.118,1.267-1.107
	c1.547,0.019,3.095,0.006,4.699-0.129c-0.201-0.116-0.401-0.236-0.605-0.349c-1.527-0.832-3.051-1.666-4.583-2.487
	c-0.463-0.249-0.739-0.569-0.74-1.126c-0.006-2.174-0.038-4.348-0.046-6.522c-0.002-0.685,0.473-1.105,1.209-1.105
	c7.396,0.003,14.792,0.009,22.188,0.011c4.899,0.001,9.799-0.005,14.7,0.005c0.332,0,0.692,0.059,0.989,0.198
	c3.172,1.474,6.332,2.974,9.5,4.453c0.526,0.246,0.758,0.65,0.755,1.192c-0.007,2.059-0.045,4.118-0.049,6.177
	c-0.004,1.541-0.185,1.729-1.752,1.719c-1.409-0.007-2.818-0.001-4.268,0.134c0.187,0.097,0.373,0.2,0.564,0.289
	c1.574,0.735,3.146,1.473,4.726,2.196c0.517,0.238,0.786,0.637,0.783,1.182c-0.008,2.174-0.041,4.347-0.064,6.52
	c-0.012,1.119-0.309,1.412-1.438,1.415c-1.42,0.004-2.838,0.002-4.258,0.006C130.441,104.529,130.362,104.561,130.113,104.615z
	 M98.266,102.495c0.332,0,0.6,0,0.869,0c2.403-0.001,4.808-0.002,7.212-0.001c9.066,0.004,18.131,0.004,27.198,0.027
	c0.566,0.002,0.699-0.185,0.688-0.71c-0.031-1.19-0.046-2.382,0.01-3.57c0.032-0.686-0.22-0.83-0.861-0.829
	c-11.402,0.017-22.803,0.013-34.205,0.013c-0.289,0-0.579,0-0.909,0C98.266,99.135,98.266,100.754,98.266,102.495z M98.27,137.684
	c0.334,0,0.625,0,0.915,0c4.373,0,8.746,0,13.119,0c7.028,0,14.059-0.008,21.087,0.016c0.66,0.002,0.872-0.191,0.849-0.848
	c-0.044-1.166-0.043-2.334,0.001-3.502c0.023-0.619-0.195-0.762-0.788-0.76c-11.469,0.016-22.941,0.01-34.412,0.006
	c-0.244,0-0.489,0-0.771,0C98.27,134.326,98.27,135.959,98.27,137.684z M134.221,120.938c-12.06,0-23.995,0-35.957,0
	c0,1.662,0,3.274,0,4.929c0.236,0.013,0.437,0.033,0.636,0.033c5.401,0.003,10.802-0.001,16.203,0.006
	c3.638,0.006,7.276,0.037,10.913,0.05c2.541,0.008,5.082,0.015,7.621-0.012c0.197-0.001,0.557-0.236,0.56-0.372
	C134.236,124.045,134.221,122.516,134.221,120.938z M98.252,90.733c0.32,0,0.568,0,0.813,0c5.194-0.001,10.389-0.01,15.584-0.001
	c3.891,0.007,7.779,0.043,11.668,0.058c2.404,0.008,4.807,0.011,7.209-0.015c0.229-0.003,0.649-0.219,0.652-0.347
	c0.046-1.548,0.031-3.098,0.031-4.659c-12.036,0-23.989,0-35.959,0C98.252,87.42,98.252,89.018,98.252,90.733z M98.265,114.161
	c11.989,0,23.938,0,35.914,0c0-1.665,0-3.278,0-4.919c-11.998,0-23.947,0-35.914,0C98.265,110.909,98.265,112.521,98.265,114.161z
	 M130.267,118.862c0.016-0.061,0.03-0.118,0.046-0.178c-1.502-0.71-2.994-1.442-4.51-2.112c-0.443-0.197-0.961-0.313-1.446-0.319
	c-2.425-0.028-4.852-0.01-7.277-0.012c-6.82-0.002-13.639-0.007-20.458-0.01c-1.333,0-2.666,0-3.999,0
	c0.166,0.254,0.353,0.367,0.548,0.465c1.182,0.595,2.352,1.22,3.556,1.771c0.48,0.218,1.036,0.377,1.56,0.379
	c8.833,0.021,17.667,0.015,26.5,0.015C126.615,118.862,128.442,118.862,130.267,118.862z M92.627,81.064
	c-0.01,0.061-0.018,0.122-0.027,0.183c1.573,0.782,3.143,1.57,4.724,2.334c0.213,0.103,0.488,0.105,0.735,0.105
	c10.51,0.005,21.021,0.004,31.53,0.004c0.23,0,0.46,0,0.691,0c0.007-0.067,0.016-0.135,0.023-0.203
	c-1.717-0.792-3.431-1.59-5.156-2.364c-0.195-0.088-0.45-0.057-0.676-0.057c-10.053-0.002-20.104-0.001-30.157-0.001
	C93.751,81.064,93.189,81.064,92.627,81.064z M92.673,92.841c-0.021,0.041-0.043,0.083-0.064,0.125
	c1.439,0.72,2.872,1.453,4.32,2.151c0.314,0.152,0.687,0.257,1.034,0.257c10.618,0.012,21.235,0.009,31.854,0.006
	c0.156,0,0.314-0.036,0.657-0.077c-1.608-0.758-3.022-1.455-4.466-2.086c-0.485-0.212-1.042-0.36-1.568-0.361
	c-8.788-0.021-17.575-0.016-26.362-0.016C96.278,92.841,94.476,92.841,92.673,92.841z M92.661,127.956
	c-0.013,0.059-0.025,0.12-0.038,0.182c0.767,0.39,1.566,0.729,2.294,1.181c1.628,1.012,3.359,1.286,5.273,1.27
	c9.798-0.07,19.598-0.031,29.397-0.031c0.229,0,0.458,0,0.688,0c-1.479-0.869-2.959-1.584-4.458-2.258
	c-0.362-0.162-0.783-0.272-1.178-0.274c-6.48-0.016-12.959-0.002-19.438-0.013c-2.974-0.003-5.95-0.038-8.926-0.054
	C95.073,127.949,93.866,127.956,92.661,127.956z M130.189,107.044c0.008-0.046,0.02-0.091,0.028-0.139
	c-1.022-0.482-2.071-0.915-3.057-1.459c-1.277-0.707-2.592-1.037-4.061-0.92c-1.091,0.088-2.195,0.016-3.293,0.015
	c-8.831-0.005-17.662-0.011-26.492-0.015c-0.224,0-0.447,0.024-0.67,0.038c1.49,0.885,2.974,1.645,4.474,2.372
	c0.252,0.121,0.573,0.143,0.861,0.143c10.524,0.006,21.049,0.006,31.573,0.003C129.764,107.081,129.976,107.057,130.189,107.044z
	 M88.979,128.617c0,1.369,0.017,2.596-0.009,3.82c-0.009,0.473,0.157,0.742,0.576,0.967c1.978,1.049,3.938,2.125,5.908,3.191
	c0.185,0.1,0.38,0.186,0.672,0.324c0-1.465-0.021-2.789,0.012-4.111c0.012-0.463-0.166-0.686-0.563-0.883
	c-1.784-0.869-3.553-1.771-5.327-2.664C89.87,129.073,89.493,128.88,88.979,128.617z M88.992,93.473c0,1.381,0.016,2.651-0.009,3.92
	c-0.008,0.406,0.15,0.607,0.494,0.791c1.996,1.064,3.978,2.155,5.966,3.233c0.189,0.102,0.387,0.185,0.684,0.329
	c0-1.454-0.02-2.778,0.01-4.1c0.011-0.457-0.145-0.695-0.552-0.893c-1.804-0.881-3.593-1.796-5.387-2.695
	C89.837,93.878,89.473,93.706,88.992,93.473z M96.126,90.06c0-1.474-0.02-2.797,0.011-4.12c0.011-0.455-0.14-0.701-0.544-0.899
	c-2.027-0.998-4.04-2.023-6.059-3.034c-0.15-0.075-0.318-0.116-0.549-0.197c0,1.407-0.016,2.731,0.02,4.054
	c0.004,0.188,0.233,0.434,0.422,0.544c0.908,0.526,1.838,1.018,2.761,1.519C93.449,88.612,94.712,89.294,96.126,90.06z
	 M96.126,125.234c0-1.484-0.02-2.809,0.01-4.132c0.011-0.457-0.156-0.7-0.556-0.897c-2.026-0.998-4.039-2.021-6.06-3.029
	c-0.147-0.074-0.313-0.11-0.537-0.188c0,1.395-0.02,2.698,0.021,3.998c0.006,0.206,0.238,0.48,0.438,0.596
	c1.169,0.669,2.36,1.3,3.545,1.945C93.983,124.07,94.982,124.611,96.126,125.234z M96.122,113.51c0-1.501-0.019-2.847,0.009-4.192
	c0.01-0.435-0.153-0.646-0.529-0.831c-1.985-0.979-3.957-1.984-5.935-2.976c-0.189-0.095-0.396-0.155-0.684-0.266
	c0,1.42-0.019,2.744,0.023,4.066c0.006,0.202,0.268,0.457,0.474,0.579c0.929,0.54,1.881,1.041,2.825,1.555
	C93.526,112.107,94.749,112.766,96.122,113.51z"/>
</svg>
