<?xml version="1.0" encoding="utf-8"?>
<!-- Generator: Adobe Illustrator 16.0.0, SVG Export Plug-In . SVG Version: 6.00 Build 0)  -->
<!DOCTYPE svg PUBLIC "-//W3C//DTD SVG 1.1//EN" "http://www.w3.org/Graphics/SVG/1.1/DTD/svg11.dtd">
<svg version="1.1" id="Layer_1" xmlns="http://www.w3.org/2000/svg" xmlns:xlink="http://www.w3.org/1999/xlink" x="0px" y="0px"
	 width="200px" height="109.147px" viewBox="0 0 200 109.147" enable-background="new 0 0 200 109.147" xml:space="preserve">
<g>
	<g>
		<path fill="#ACACAC" d="M16.881,73.951c-0.66,0-1.295-0.373-1.594-1.011c-0.414-0.88-0.036-1.928,0.844-2.345l67.704-31.833
			c0.516-0.242,1.118-0.22,1.615,0.061l43.742,24.692l59.986-34.256c0.846-0.483,1.921-0.189,2.403,0.657
			c0.481,0.843,0.188,1.919-0.657,2.402l-60.854,34.75c-0.538,0.307-1.197,0.307-1.738,0.005L84.511,42.337L17.63,73.783
			C17.388,73.899,17.133,73.951,16.881,73.951z"/>
	</g>
	<g>
		<g>
			<polygon fill="#ACACAC" points="191.538,37.019 197.734,26.402 185.441,26.342 			"/>
		</g>
	</g>
</g>
<path fill="#ACACAC" d="M94.174,43.679c0,3.676-4.468,6.657-9.98,6.657c-5.512,0-9.98-2.98-9.98-6.657c0-3.679,4.468-6.66,9.98-6.66
	C89.706,37.019,94.174,40,94.174,43.679z"/>
<path fill="#49617F" d="M96.709,15.659c0-6.915-5.602-12.516-12.516-12.516c-6.913,0-12.516,5.601-12.516,12.516
	c0,6.807,12.516,24.697,12.516,24.697S96.709,22.466,96.709,15.659z"/>
<ellipse fill="#ACACAC" cx="128.575" cy="64.634" rx="9.98" ry="6.657"/>
<path fill="#8BBBE5" d="M141.09,36.615c0-6.915-5.603-12.518-12.514-12.518c-6.914,0-12.518,5.604-12.518,12.518
	c0,6.807,12.518,24.697,12.518,24.697S141.09,43.421,141.09,36.615z"/>
<ellipse fill="#ACACAC" cx="15.119" cy="72.215" rx="9.98" ry="6.659"/>
<path fill="#6A90B4" d="M27.635,44.196c0-6.912-5.603-12.516-12.515-12.516c-6.913,0-12.517,5.604-12.517,12.516
	c0,6.807,12.517,24.698,12.517,24.698S27.635,51.002,27.635,44.196z"/>
<text transform="matrix(1 0 0 1 8.4263 48.3267)" fill="#FFFFFF" font-family="'SourceSansPro-BoldIt'" font-size="13.1525">01</text>
<text transform="matrix(1 0 0 1 77.501 21.5093)" fill="#FFFFFF" font-family="'SourceSansPro-BoldIt'" font-size="13.1525">02</text>
<text transform="matrix(1 0 0 1 121.8818 41.0103)" fill="#FFFFFF" font-family="'SourceSansPro-BoldIt'" font-size="13.1525">03</text>
<g>
	<g>
		<path fill="#ACACAC" d="M50.366,103.77c-0.383,0-0.751-0.217-0.925-0.586c-0.24-0.512-0.021-1.119,0.49-1.361l39.298-18.478
			c0.3-0.14,0.648-0.128,0.938,0.035l25.39,14.333l34.819-19.885c0.49-0.28,1.114-0.109,1.395,0.382
			c0.279,0.489,0.109,1.114-0.381,1.394l-35.322,20.172c-0.313,0.178-0.695,0.178-1.009,0.002L89.621,85.419l-38.82,18.253
			C50.66,103.741,50.512,103.77,50.366,103.77z"/>
	</g>
	<g>
		<g>
			<polygon fill="#ACACAC" points="151.744,82.333 155.341,76.17 148.205,76.136 			"/>
		</g>
	</g>
</g>
<ellipse fill="#ACACAC" cx="89.437" cy="86.198" rx="5.793" ry="3.865"/>
<path fill="#49617F" d="M96.701,69.935c0-4.014-3.251-7.265-7.265-7.265c-4.012,0-7.264,3.251-7.264,7.265
	c0,3.951,7.264,14.335,7.264,14.335S96.701,73.886,96.701,69.935z"/>
<ellipse fill="#ACACAC" cx="115.197" cy="98.362" rx="5.793" ry="3.865"/>
<path fill="#8BBBE5" d="M122.462,82.098c0-4.014-3.252-7.266-7.264-7.266c-4.013,0-7.266,3.252-7.266,7.266
	c0,3.951,7.266,14.336,7.266,14.336S122.462,86.049,122.462,82.098z"/>
<ellipse fill="#ACACAC" cx="49.343" cy="102.762" rx="5.793" ry="3.865"/>
<path fill="#6A90B4" d="M56.608,86.499c0-4.012-3.252-7.264-7.264-7.264c-4.013,0-7.265,3.252-7.265,7.264
	c0,3.951,7.265,14.336,7.265,14.336S56.608,90.45,56.608,86.499z"/>
<text transform="matrix(1 0 0 1 45.458 88.897)" fill="#FFFFFF" font-family="'SourceSansPro-BoldIt'" font-size="7.6343">04</text>
<text transform="matrix(1 0 0 1 85.3809 71.2544)" fill="#FFFFFF" font-family="'SourceSansPro-BoldIt'" font-size="7.6343">05</text>
<text transform="matrix(1 0 0 1 111.3125 84.6499)" fill="#FFFFFF" font-family="'SourceSansPro-BoldIt'" font-size="7.6343">06</text>
</svg>
