<?xml version="1.0" encoding="utf-8"?>
<!-- Generator: Adobe Illustrator 16.0.0, SVG Export Plug-In . SVG Version: 6.00 Build 0)  -->
<!DOCTYPE svg PUBLIC "-//W3C//DTD SVG 1.1//EN" "http://www.w3.org/Graphics/SVG/1.1/DTD/svg11.dtd">
<svg version="1.1" id="Layer_1" xmlns="http://www.w3.org/2000/svg" xmlns:xlink="http://www.w3.org/1999/xlink" x="0px" y="0px"
	 width="196.833px" height="200px" viewBox="0 0 196.833 200" enable-background="new 0 0 196.833 200" xml:space="preserve">
<path fill="#8BBBE5" d="M192.41,12.965V7.516c0-2.791-3.175-5.058-7.082-5.058H11.751c-3.913,0-7.083,2.267-7.083,5.058v5.449v2.141
	v135.603c0,2.795,3.171,5.06,7.084,5.06h173.575c3.907,0,7.086-2.265,7.086-5.06V12.965H192.41z"/>
<path fill="#757474" d="M115.813,37.237c-0.432-1.682-1.105-3.266-1.975-4.717l2.551-4.207l-1.085-1.087l-2.375-2.376l-1.088-1.085
	l-4.236,2.57c-1.438-0.851-3.009-1.507-4.669-1.928l-1.179-4.819h-6.434l-1.179,4.819c-1.664,0.421-3.23,1.077-4.669,1.928
	l-4.237-2.57l-1.085,1.085l-2.376,2.376l-1.085,1.087l2.553,4.207c-0.873,1.451-1.544,3.035-1.977,4.717l-4.754,1.162v6.433
	l4.708,1.152c0.424,1.713,1.094,3.33,1.972,4.808l-2.503,4.125l1.087,1.086l2.375,2.375l1.086,1.086l4.094-2.485
	c1.489,0.898,3.123,1.586,4.854,2.021l1.134,4.64h6.435l1.133-4.64c1.736-0.435,3.365-1.124,4.856-2.021l4.093,2.485l1.089-1.086
	l2.376-2.375l1.086-1.086l-2.504-4.125c0.88-1.478,1.549-3.095,1.971-4.808l4.709-1.152v-6.433L115.813,37.237z M98.54,53.283
	c-6.397,0-11.582-5.186-11.582-11.583c0-6.398,5.185-11.584,11.582-11.584c6.399,0,11.584,5.186,11.584,11.584
	C110.124,48.098,104.939,53.283,98.54,53.283z"/>
<path fill="#757474" d="M164.94,19.536c-7.717,0-13.978,6.3-13.978,14.069c0,3.144,1.022,6.046,2.757,8.391
	c-0.015,0.008-0.03,0.026-0.049,0.041l-18.128,18.25c-0.382,0.386-0.574,0.895-0.574,1.398c0,0.508,0.192,1.012,0.574,1.398
	c0.77,0.773,2.014,0.773,2.779,0l18.129-18.252c0.006-0.008,0.018-0.015,0.025-0.03c2.348,1.807,5.285,2.874,8.464,2.874
	c7.717,0,13.973-6.296,13.973-14.068C178.913,25.835,172.657,19.536,164.94,19.536z M164.94,45.117
	c-6.319,0-11.435-5.153-11.435-11.512c0-6.358,5.115-11.507,11.435-11.507c6.314,0,11.435,5.149,11.435,11.507
	C176.375,39.963,171.255,45.117,164.94,45.117z"/>
<g>
	<path fill="#6A90B4" d="M63.84,181.614c0,5.116-0.081,9.395,0.032,13.665c0.07,2.466-0.599,3.715-3.376,3.697
		c-13.438-0.092-26.875-0.061-40.313-0.019c-2.077,0.003-3.29-0.577-3.249-2.92c0.144-8.37-0.292-16.74,0.964-25.085
		c1.012-6.724,4.09-10.883,11.128-12.397c7.641-1.648,15.004-1.626,22.646-0.023c7.695,1.615,11.623,7.688,16.611,12.529
		c6.137,5.959,6.034,6.063,12.047,0.064c1.734-1.733,3.385-3.583,5.285-5.125c2.313-1.872,4.883-1.858,7.039,0.265
		c2.176,2.143,2.316,4.81,0.245,6.988c-4.87,5.133-9.875,10.15-15.007,15.019c-2.484,2.357-5.286,1.954-7.731-0.375
		C68.221,186.043,66.354,184.117,63.84,181.614z"/>
	<path fill="#6A90B4" d="M52.03,137.161c-0.476,4.842-1.736,9.875-4.926,14.173c-3.965,5.345-9.331,5.433-13.285,0.143
		c-3.573-4.78-5.192-10.348-5.012-16.27c0.175-5.771,5.887-10.218,12.139-9.861C47.643,125.725,52.278,130.495,52.03,137.161z"/>
</g>
<g>
	<path fill="#757474" d="M57.505,43.256c0-4.856,0.007-9.714,0-14.576c0-4.172-1.97-6.3-6.093-6.44
		c-1.17-0.041-2.014-0.223-2.729-1.333c-1.096-1.695-2.766-2.51-4.878-2.469c-3.531,0.066-7.066,0.059-10.598,0.004
		c-1.924-0.03-3.59,0.618-4.582,2.165c-0.903,1.399-1.966,1.625-3.466,1.67c-3.502,0.103-5.612,2.461-5.612,5.996
		c0,9.934-0.004,19.876,0.004,29.812c0.001,3.79,2.139,6.07,5.963,6.1c8.756,0.059,17.518,0.059,26.279-0.015
		c3.51-0.022,5.719-2.414,5.719-5.893c0.015-5.005,0.007-10.009,0.007-15.021C57.512,43.256,57.512,43.256,57.505,43.256z
		 M33.096,21.992c1.829,0.048,3.665,0.011,5.497,0.008c1.833,0,3.669,0.026,5.497-0.011c1.462-0.03,2.236,0.666,2.207,2.087
		c-0.022,1.3-0.741,1.973-2.107,1.966c-3.738-0.027-7.477-0.03-11.216,0.003c-1.462,0.015-2.235-0.663-2.209-2.083
		C30.782,22.496,31.689,21.955,33.096,21.992z M51.708,60.661c-8.828-0.022-17.656-0.022-26.482-0.007
		c-1.581,0.007-2.185-0.667-2.159-2.288c0.076-5.071,0.028-10.15,0.028-15.221c-0.003,0-0.008,0-0.011,0
		c0-5.004,0.003-10.01,0-15.008c0-0.97-0.114-2.099,1.21-2.206c1.224-0.097,2.673-0.866,3.609,0.618
		c1.5,2.373,3.646,3.179,6.377,3.068c3.088-0.126,6.183-0.088,9.269-0.011c2.266,0.055,4.116-0.751,5.25-2.636
		c1.106-1.844,2.639-1.233,4.068-1.007c1.451,0.226,1.084,1.543,1.088,2.513c0.019,9.93-0.018,19.865,0.049,29.792
		C54.015,59.995,53.381,60.668,51.708,60.661z"/>
	<path fill="#757474" d="M42.062,39.266c-1.688,0-3.383-0.066-5.071,0.022c-1.348,0.074-2.087-0.037-2.081-1.784
		c0.008-1.74,0.737-1.829,2.088-1.807c3.527,0.074,7.059,0.119,10.579-0.008c1.551-0.059,1.584,0.645,1.592,1.814
		c0.004,1.185-0.055,1.932-1.599,1.798C45.745,39.147,43.897,39.266,42.062,39.266z"/>
	<path fill="#757474" d="M42.065,46.336c-1.691,0-3.387-0.066-5.071,0.022c-1.352,0.074-2.084-0.03-2.077-1.784
		c0.007-1.733,0.718-1.822,2.073-1.799c3.531,0.074,7.059,0.111,10.586-0.022c1.544-0.059,1.588,0.644,1.588,1.814
		c0.003,1.177-0.041,1.939-1.595,1.806C45.748,46.217,43.901,46.336,42.065,46.336z"/>
	<path fill="#757474" d="M42.28,49.875c1.618,0,3.239,0.066,4.846-0.022c1.344-0.074,2.095,0.015,2.087,1.776
		c-0.015,1.725-0.699,1.835-2.069,1.807c-3.523-0.082-7.059-0.111-10.579,0.022c-1.536,0.059-1.61-0.622-1.603-1.807
		c0.011-1.163,0.025-1.939,1.588-1.814C38.449,49.993,40.37,49.875,42.28,49.875z"/>
	<path fill="#757474" d="M31.416,51.651c0.385,1.54-0.37,1.77-1.74,1.807c-1.473,0.044-1.791-0.422-1.81-1.829
		c-0.011-1.466,0.441-1.806,1.844-1.813C31.149,49.815,31.786,50.171,31.416,51.651z"/>
	<path fill="#757474" d="M29.505,46.298c-1.754,0.466-1.495-0.732-1.629-1.873c-0.192-1.717,0.8-1.547,1.962-1.673
		c1.74-0.192,1.544,0.807,1.662,1.962C31.682,46.425,30.782,46.506,29.505,46.298z"/>
	<path fill="#757474" d="M31.386,37.4c0.418,1.658-0.341,1.88-1.711,1.917c-1.473,0.044-1.784-0.452-1.813-1.836
		c-0.022-1.48,0.429-1.851,1.843-1.792C31.042,35.742,31.989,35.823,31.386,37.4z"/>
</g>
<path fill="#49617F" d="M38.605,80.653c5.057,0,10.119,0.065,15.171-0.032c1.496-0.024,1.892,0.396,1.875,1.875
	c-0.073,7.786-0.08,15.579-0.004,23.365c0.021,1.514-0.433,1.86-1.887,1.843c-10.195-0.063-20.398-0.056-30.591-0.008
	c-1.361,0.008-1.767-0.354-1.755-1.738c0.061-7.866,0.061-15.732,0.004-23.599c-0.012-1.391,0.435-1.746,1.774-1.73
	C28.329,80.702,33.467,80.653,38.605,80.653z"/>
<path fill="#F2F2F2" d="M42.284,103.834c-1.848,0-3.703-0.074-5.542,0.023c-1.544,0.088-2.131-0.403-2.11-2.022
	c0.016-1.503,0.545-1.931,1.984-1.899c3.853,0.072,7.709,0.064,11.566-0.008c1.431-0.032,1.98,0.356,1.988,1.884
	c0.009,1.602-0.549,2.118-2.102,2.036c-1.924-0.113-3.856-0.031-5.789-0.031C42.284,103.824,42.284,103.824,42.284,103.834z"/>
<path fill="#F2F2F2" d="M42.247,88.374c-1.851,0-3.703-0.081-5.546,0.024c-1.569,0.097-2.102-0.453-2.09-2.045
	c0.012-1.528,0.606-1.909,2.009-1.876c3.856,0.073,7.721,0.081,11.573,0.008c1.452-0.024,1.985,0.436,1.96,1.924
	c-0.02,1.383-0.332,2.078-1.883,1.989C46.265,88.293,44.256,88.374,42.247,88.374z"/>
<path fill="#F2F2F2" d="M42.502,92.223c1.766,0,3.537,0.057,5.299-0.024c1.483-0.065,2.397,0.113,2.368,2.013
	c-0.016,1.754-0.824,1.924-2.223,1.9c-3.775-0.056-7.555-0.064-11.331,0.016c-1.418,0.025-1.988-0.339-1.993-1.875
	c0-1.593,0.521-2.135,2.09-2.045c1.925,0.113,3.861,0.024,5.789,0.024V92.223z"/>
<path fill="#F2F2F2" d="M30.779,94.147c0.263,1.455-0.319,1.973-1.823,1.988c-1.6,0.025-2.065-0.517-2.062-2.077
	c0-1.561,0.655-1.859,2.03-1.875C30.387,92.174,31.058,92.644,30.779,94.147z"/>
<path fill="#F2F2F2" d="M28.721,103.783c-1.73,0.324-1.713-0.75-1.799-2.004c-0.117-1.852,0.966-1.788,2.268-1.852
	c1.552-0.081,1.588,0.768,1.657,1.949C30.936,103.541,30.217,104.059,28.721,103.783z"/>
<path fill="#F2F2F2" d="M26.979,86.33c-0.311-1.618,0.586-1.828,1.945-1.86c1.475-0.025,1.899,0.501,1.94,1.956
	c0.04,1.682-0.664,1.98-2.143,1.989C27.096,88.431,26.789,87.663,26.979,86.33z"/>
<g>
	<path fill="#49617F" d="M95.999,115.161c5.059,0,10.119,0.064,15.173-0.032c1.496-0.025,1.891,0.396,1.875,1.875
		c-0.072,7.785-0.081,15.579-0.004,23.364c0.02,1.514-0.434,1.86-1.889,1.844c-10.194-0.064-20.398-0.056-30.59-0.009
		c-1.361,0.009-1.767-0.354-1.754-1.738c0.061-7.865,0.061-15.732,0.003-23.598c-0.012-1.391,0.435-1.747,1.775-1.73
		C85.724,115.208,90.861,115.161,95.999,115.161z"/>
	<path fill="#F2F2F2" d="M99.679,138.341c-1.847,0-3.703-0.073-5.542,0.023c-1.545,0.088-2.131-0.403-2.109-2.021
		c0.014-1.505,0.544-1.933,1.983-1.899c3.853,0.072,7.71,0.064,11.566-0.008c1.431-0.033,1.98,0.355,1.986,1.884
		c0.01,1.601-0.548,2.117-2.1,2.036c-1.925-0.114-3.857-0.032-5.79-0.032C99.679,138.331,99.679,138.331,99.679,138.341z"/>
	<path fill="#F2F2F2" d="M99.643,122.882c-1.852,0-3.704-0.081-5.547,0.024c-1.569,0.096-2.102-0.453-2.09-2.045
		c0.012-1.528,0.606-1.91,2.01-1.876c3.856,0.071,7.72,0.079,11.572,0.007c1.453-0.024,1.985,0.438,1.962,1.925
		c-0.02,1.382-0.333,2.077-1.885,1.989C103.66,122.801,101.651,122.882,99.643,122.882z"/>
	<path fill="#F2F2F2" d="M99.896,126.73c1.767,0,3.537,0.056,5.301-0.025c1.482-0.064,2.397,0.113,2.366,2.013
		c-0.014,1.756-0.823,1.925-2.223,1.901c-3.774-0.057-7.554-0.064-11.33,0.015c-1.419,0.025-1.987-0.339-1.993-1.876
		c0-1.592,0.522-2.133,2.091-2.045c1.925,0.114,3.86,0.025,5.788,0.025V126.73z"/>
	<path fill="#F2F2F2" d="M88.174,128.652c0.263,1.457-0.319,1.975-1.823,1.99c-1.601,0.024-2.065-0.518-2.062-2.078
		c0-1.56,0.655-1.859,2.029-1.875C87.782,126.681,88.452,127.151,88.174,128.652z"/>
	<path fill="#F2F2F2" d="M86.117,138.291c-1.731,0.324-1.714-0.751-1.799-2.005c-0.118-1.851,0.966-1.788,2.267-1.851
		c1.553-0.082,1.589,0.768,1.658,1.947C88.332,138.049,87.612,138.565,86.117,138.291z"/>
	<path fill="#F2F2F2" d="M84.374,120.836c-0.311-1.617,0.586-1.827,1.944-1.859c1.476-0.025,1.899,0.501,1.94,1.956
		c0.04,1.682-0.663,1.98-2.142,1.989C84.492,122.938,84.185,122.17,84.374,120.836z"/>
</g>
<path fill="#49617F" d="M96,81.283c5.058,0,10.119,0.064,15.172-0.032c1.496-0.025,1.892,0.395,1.875,1.875
	c-0.072,7.785-0.08,15.578-0.004,23.364c0.021,1.513-0.433,1.86-1.887,1.844c-10.195-0.064-20.399-0.057-30.591-0.009
	c-1.36,0.009-1.767-0.354-1.754-1.738c0.061-7.865,0.061-15.733,0.003-23.598c-0.012-1.391,0.435-1.747,1.775-1.73
	C85.724,81.33,90.862,81.283,96,81.283z"/>
<path fill="#F2F2F2" d="M99.68,104.462c-1.848,0-3.704-0.072-5.543,0.023c-1.544,0.088-2.13-0.403-2.109-2.021
	c0.017-1.504,0.544-1.931,1.984-1.899c3.852,0.072,7.709,0.064,11.565-0.008c1.431-0.033,1.98,0.355,1.987,1.884
	c0.01,1.601-0.548,2.118-2.101,2.037c-1.924-0.114-3.857-0.033-5.789-0.033C99.68,104.454,99.68,104.454,99.68,104.462z"/>
<path fill="#F2F2F2" d="M99.644,89.003c-1.853,0-3.705-0.08-5.547,0.025c-1.569,0.097-2.103-0.453-2.09-2.045
	c0.011-1.528,0.605-1.909,2.01-1.876c3.856,0.072,7.72,0.079,11.572,0.008c1.452-0.025,1.985,0.437,1.961,1.924
	c-0.02,1.382-0.332,2.077-1.884,1.989C103.66,88.923,101.651,89.003,99.644,89.003z"/>
<path fill="#F2F2F2" d="M99.897,92.852c1.767,0,3.537,0.056,5.3-0.025c1.482-0.065,2.397,0.113,2.367,2.013
	c-0.015,1.754-0.823,1.924-2.223,1.9c-3.774-0.057-7.555-0.064-11.33,0.015c-1.419,0.026-1.988-0.338-1.994-1.875
	c0-1.592,0.522-2.133,2.091-2.045c1.926,0.113,3.86,0.024,5.789,0.024V92.852z"/>
<path fill="#F2F2F2" d="M88.175,94.775c0.262,1.456-0.32,1.973-1.824,1.989c-1.6,0.025-2.064-0.517-2.061-2.078
	c0-1.56,0.655-1.859,2.028-1.875C87.782,92.803,88.453,93.273,88.175,94.775z"/>
<path fill="#F2F2F2" d="M86.117,104.413c-1.73,0.323-1.713-0.751-1.799-2.005c-0.117-1.852,0.966-1.787,2.268-1.852
	c1.552-0.082,1.589,0.768,1.657,1.948C88.332,104.17,87.612,104.688,86.117,104.413z"/>
<path fill="#F2F2F2" d="M84.375,86.958c-0.311-1.617,0.585-1.828,1.943-1.86c1.477-0.024,1.9,0.501,1.941,1.957
	c0.039,1.681-0.663,1.98-2.143,1.988C84.492,89.06,84.185,88.292,84.375,86.958z"/>
<path fill="#49617F" d="M151.771,80.502c5.058,0,10.118,0.064,15.173-0.032c1.495-0.025,1.89,0.395,1.875,1.876
	c-0.073,7.785-0.081,15.578-0.005,23.364c0.02,1.514-0.433,1.86-1.888,1.844c-10.194-0.064-20.398-0.057-30.589-0.009
	c-1.361,0.009-1.768-0.354-1.757-1.738c0.062-7.865,0.062-15.732,0.005-23.598c-0.013-1.39,0.435-1.747,1.775-1.73
	C141.495,80.55,146.633,80.502,151.771,80.502z"/>
<path fill="#F2F2F2" d="M155.45,103.682c-1.848,0-3.704-0.072-5.543,0.024c-1.544,0.088-2.131-0.403-2.109-2.021
	c0.016-1.505,0.546-1.933,1.984-1.9c3.854,0.073,7.71,0.065,11.565-0.009c1.432-0.032,1.98,0.357,1.988,1.884
	c0.008,1.602-0.55,2.118-2.102,2.037c-1.925-0.114-3.856-0.032-5.788-0.032C155.45,103.673,155.45,103.673,155.45,103.682z"/>
<path fill="#F2F2F2" d="M155.413,88.223c-1.852,0-3.703-0.081-5.546,0.025c-1.569,0.097-2.102-0.453-2.091-2.045
	c0.014-1.528,0.607-1.909,2.01-1.875c3.856,0.072,7.721,0.079,11.573,0.007c1.452-0.024,1.984,0.437,1.961,1.924
	c-0.02,1.382-0.333,2.078-1.885,1.99C159.431,88.143,157.423,88.223,155.413,88.223z"/>
<path fill="#F2F2F2" d="M155.668,92.072c1.766,0,3.536,0.056,5.301-0.024c1.482-0.065,2.396,0.112,2.367,2.013
	c-0.016,1.754-0.824,1.923-2.225,1.9c-3.774-0.057-7.554-0.064-11.329,0.015c-1.419,0.026-1.988-0.339-1.992-1.876
	c0-1.592,0.521-2.133,2.09-2.044c1.924,0.113,3.861,0.024,5.788,0.024V92.072z"/>
<path fill="#F2F2F2" d="M143.944,93.995c0.264,1.456-0.318,1.974-1.822,1.989c-1.601,0.025-2.065-0.517-2.062-2.077
	c0-1.56,0.654-1.859,2.028-1.876C143.554,92.023,144.224,92.493,143.944,93.995z"/>
<path fill="#F2F2F2" d="M141.888,103.633c-1.729,0.323-1.715-0.751-1.8-2.005c-0.116-1.852,0.968-1.788,2.268-1.852
	c1.555-0.081,1.589,0.769,1.659,1.949C144.103,103.391,143.384,103.907,141.888,103.633z"/>
<path fill="#F2F2F2" d="M140.146,86.178c-0.311-1.617,0.586-1.827,1.943-1.859c1.476-0.024,1.899,0.501,1.94,1.956
	c0.041,1.681-0.663,1.98-2.142,1.988C140.263,88.28,139.955,87.511,140.146,86.178z"/>
<g>
	<path fill="#C1C0C0" d="M156.665,198.98c-6.544,0-13.082-0.027-19.626,0.019c-2.109,0.015-3.737-0.216-3.682-2.961
		c0.155-8.414-0.45-16.86,1.034-25.225c1.622-9.15,5.067-12.372,15.849-13.49c7.366-0.763,14.761-0.62,21.868,2.304
		c3.232,1.328,5.315,3.27,6.268,6.63c2.827,9.969,2.032,20.177,2.082,30.319c0.019,2.616-1.972,2.404-3.733,2.404
		C170.04,198.984,163.349,198.98,156.665,198.98z"/>
	<path fill="#C1C0C0" d="M168.629,136.913c-0.557,5.136-1.835,10.635-5.688,15.113c-3.692,4.28-8.322,4.363-11.937,0.051
		c-4.28-5.108-6.102-11.237-5.618-17.826c0.405-5.518,6.35-9.692,12.377-9.191C164.347,125.611,168.816,130.241,168.629,136.913z"/>
</g>
</svg>
