<?xml version="1.0" encoding="utf-8"?>
<!-- Generator: Adobe Illustrator 16.0.0, SVG Export Plug-In . SVG Version: 6.00 Build 0)  -->
<!DOCTYPE svg PUBLIC "-//W3C//DTD SVG 1.1//EN" "http://www.w3.org/Graphics/SVG/1.1/DTD/svg11.dtd">
<svg version="1.1" id="Слой_1" xmlns="http://www.w3.org/2000/svg" xmlns:xlink="http://www.w3.org/1999/xlink" x="0px" y="0px"
	 width="200px" height="149.099px" viewBox="0 0 200 149.099" enable-background="new 0 0 200 149.099" xml:space="preserve">
<g>
	<linearGradient id="SVGID_1_" gradientUnits="userSpaceOnUse" x1="4" y1="70.8501" x2="138.3208" y2="70.8501">
		<stop  offset="0" style="stop-color:#49617F"/>
		<stop  offset="1" style="stop-color:#49617F"/>
	</linearGradient>
	<circle fill="url(#SVGID_1_)" cx="71.16" cy="70.85" r="67.16"/>
	<circle fill="#FFFFFF" cx="71.161" cy="70.851" r="51.978"/>
</g>
<polygon fill="#49617F" points="199,131.216 175.334,115.415 175.334,124.217 172.434,124.217 149.542,124.217 30.424,124.217 
	47.631,138.357 163.973,138.357 172.434,138.357 175.334,138.357 175.334,147.019 "/>
<path fill="#6A90B4" d="M167.049,12.775l-14.075,3.034l6.516,12.84l2.319-4.87c10.422,4.963,14.861,17.479,9.899,27.9
	c-4.963,10.422-17.479,14.862-27.901,9.9c-10.421-4.963-14.862-17.479-9.898-27.901l-6.136-2.921
	c-6.573,13.805-0.69,30.383,13.112,36.957c13.807,6.574,30.385,0.691,36.959-13.113c6.573-13.804,0.69-30.383-13.115-36.957
	L167.049,12.775z"/>
<g>
	<rect x="40.118" y="46.649" fill="#757474" width="16.303" height="1.669"/>
</g>
<g>
	<rect x="60.983" y="59.219" fill="#757474" width="11.771" height="1.668"/>
</g>
<g>
	<rect x="74.587" y="59.219" fill="#757474" width="7.811" height="1.668"/>
</g>
<g>
	<rect x="90.545" y="109.68" fill="#757474" width="7.81" height="1.67"/>
</g>
<g>
	<rect x="40.303" y="90.826" fill="#757474" width="7.811" height="1.67"/>
</g>
<g>
	<rect x="83.941" y="59.219" fill="#757474" width="18.858" height="1.668"/>
</g>
<g>
	<rect x="40.303" y="84.496" fill="#757474" width="12.118" height="1.669"/>
</g>
<g>
	<rect x="72.864" y="97.111" fill="#757474" width="12.118" height="1.67"/>
</g>
<g>
	<rect x="57.195" y="97.111" fill="#757474" width="7.397" height="1.67"/>
</g>
<g>
	<rect x="40.303" y="97.111" fill="#757474" width="14.657" height="1.67"/>
</g>
<g>
	<rect x="40.303" y="103.396" fill="#757474" width="8.084" height="1.67"/>
</g>
<g>
	<rect x="59.592" y="46.649" fill="#757474" width="11.573" height="1.669"/>
</g>
<g>
	<rect x="59.592" y="65.503" fill="#757474" width="11.573" height="1.67"/>
</g>
<g>
	<rect x="53.806" y="71.788" fill="#757474" width="4.944" height="1.669"/>
</g>
<g>
	<rect x="48.86" y="78.165" fill="#757474" width="11.107" height="1.669"/>
</g>
<g>
	<rect x="61.646" y="78.165" fill="#757474" width="15.333" height="1.669"/>
</g>
<g>
	<rect x="40.303" y="71.833" fill="#757474" width="11.573" height="1.67"/>
</g>
<g>
	<rect x="40.303" y="78.165" fill="#757474" width="6.867" height="1.669"/>
</g>
<g>
	<rect x="61.082" y="71.833" fill="#757474" width="6.479" height="1.67"/>
</g>
<g>
	<rect x="40.497" y="109.68" fill="#757474" width="6.479" height="1.67"/>
</g>
<g>
	<rect x="40.256" y="59.219" fill="#757474" width="11.573" height="1.668"/>
</g>
<g>
	<rect x="50.491" y="90.826" fill="#757474" width="11.573" height="1.67"/>
</g>
<g>
	<rect x="50.634" y="103.396" fill="#757474" width="11.573" height="1.67"/>
</g>
<g>
	<rect x="71.193" y="103.396" fill="#757474" width="11.573" height="1.67"/>
</g>
<g>
	<rect x="40.256" y="65.503" fill="#757474" width="16.498" height="1.67"/>
</g>
<g>
	<rect x="76.337" y="109.68" fill="#757474" width="11.573" height="1.67"/>
</g>
<g>
	<rect x="74.281" y="46.649" fill="#757474" width="14.745" height="1.669"/>
</g>
<g>
	<rect x="49.421" y="109.68" fill="#757474" width="14.745" height="1.67"/>
</g>
<g>
	<rect x="100.835" y="109.68" fill="#757474" width="14.744" height="1.67"/>
</g>
<g>
	<rect x="98.565" y="97.111" fill="#757474" width="14.746" height="1.67"/>
</g>
<g>
	<rect x="94.451" y="65.503" fill="#757474" width="14.744" height="1.67"/>
</g>
<g>
	<rect x="66.908" y="97.111" fill="#757474" width="3.179" height="1.67"/>
</g>
<g>
	<rect x="99.93" y="46.649" fill="#757474" width="14.745" height="1.669"/>
</g>
<g>
	<rect x="83.106" y="65.503" fill="#757474" width="8.646" height="1.67"/>
</g>
<g>
	<rect x="76.337" y="90.919" fill="#757474" width="8.646" height="1.671"/>
</g>
<g>
	<rect x="91.752" y="46.649" fill="#757474" width="5.396" height="1.669"/>
</g>
<g>
	<rect x="74.281" y="65.503" fill="#757474" width="5.397" height="1.67"/>
</g>
<g>
	<rect x="40.118" y="52.934" fill="#757474" width="8.443" height="1.669"/>
</g>
<g>
	<rect x="62.647" y="84.542" fill="#757474" width="6.666" height="1.669"/>
</g>
<g>
	<rect x="50.634" y="52.934" fill="#757474" width="2.727" height="1.669"/>
</g>
<g>
	<rect x="84.982" y="103.396" fill="#757474" width="22.534" height="1.67"/>
</g>
<g>
	<rect x="55.363" y="52.934" fill="#757474" width="2.782" height="1.669"/>
</g>
<g>
	<rect x="97.149" y="52.934" fill="#757474" width="7.372" height="1.669"/>
</g>
<g>
	<rect x="104.521" y="59.219" fill="#757474" width="7.372" height="1.668"/>
</g>
<g>
	<rect x="88.066" y="97.111" fill="#757474" width="7.372" height="1.67"/>
</g>
<g>
	<rect x="66.612" y="109.68" fill="#757474" width="7.373" height="1.67"/>
</g>
<g>
	<rect x="79.511" y="52.934" fill="#757474" width="15.686" height="1.669"/>
</g>
<g>
	<rect x="64.91" y="90.919" fill="#757474" width="9.165" height="1.671"/>
</g>
<g>
	<rect x="64.321" y="103.396" fill="#757474" width="4.582" height="1.67"/>
</g>
<g>
	<rect x="71.888" y="52.934" fill="#757474" width="5.397" height="1.669"/>
</g>
<g>
	<rect x="53.722" y="59.219" fill="#757474" width="5.396" height="1.668"/>
</g>
<g>
	<rect x="54.798" y="84.542" fill="#757474" width="5.396" height="1.669"/>
</g>
<g>
	<rect x="60.426" y="52.934" fill="#757474" width="9.403" height="1.669"/>
</g>
<g>
	<g>
		<g>
			<path fill="#323657" d="M38.052,116.193c-0.001-0.002-0.004-0.002-0.007-0.001C38.075,116.205,38.079,116.206,38.052,116.193z"/>
		</g>
	</g>
</g>
<polygon fill="#49617F" points="104.931,33.062 107.61,33.062 106.79,31.361 104.11,31.361 "/>
<polygon fill="#49617F" points="103.676,33.062 104.315,33.062 103.496,31.361 102.857,31.361 "/>
<polygon fill="#49617F" points="94.42,31.036 105.269,31.036 104.91,30.186 94.061,30.186 "/>
<rect x="149.443" y="75.095" fill="#757474" width="8.534" height="0.598"/>
<rect x="149.443" y="76.221" fill="#757474" width="8.534" height="2.515"/>
<rect x="145.435" y="79.583" fill="#757474" width="5.033" height="0.375"/>
<rect x="145.435" y="80.122" fill="#757474" width="5.033" height="1.018"/>
<rect x="147.987" y="71.255" fill="#757474" width="0.376" height="7.045"/>
<g>
	<polygon fill="#757474" points="105.532,47.237 114.259,38.509 150.119,38.509 150.119,38.063 114.075,38.063 105.217,46.922 	"/>
</g>
<g>
	<polygon fill="#757474" points="50.059,67.186 50.374,66.871 33.694,50.191 2.126,50.191 2.126,50.637 33.51,50.637 	"/>
</g>
<g>
	<polygon fill="#757474" points="83.294,47.121 83.609,46.807 69.532,32.729 49.733,32.729 49.733,33.175 69.347,33.175 	"/>
</g>
<g>
	<g>
		<rect x="130.665" y="26.555" fill="#609AE8" width="3.166" height="9.615"/>
	</g>
	<g>
		<path fill="#9CC7FF" d="M144.526,31.187h-24.557c-0.768,0-1.39-0.622-1.39-1.391V13.292c0-0.768,0.622-1.39,1.39-1.39h24.557
			c0.768,0,1.39,0.622,1.39,1.39v16.503C145.916,30.564,145.293,31.187,144.526,31.187z"/>
	</g>
	<g>
		<rect x="119.65" y="13.003" fill="#FFFFFF" width="25.195" height="15.161"/>
	</g>
	<rect x="125.125" y="35.807" fill="#9CC7FF" width="14.243" height="0.726"/>
	<rect x="135.411" y="17.604" fill="#D7D7E6" width="8.097" height="9.361"/>
	<rect x="125.816" y="17.604" fill="#D7D7E6" width="8.342" height="1.167"/>
	<rect x="125.816" y="20" fill="#D7D7E6" width="8.342" height="1.167"/>
	<rect x="125.816" y="22.151" fill="#D7D7E6" width="8.342" height="4.813"/>
	<rect x="121.097" y="17.338" fill="#D7D7E6" width="3.54" height="9.627"/>
	<rect x="121.178" y="14.17" fill="#D7D7E6" width="22.411" height="2.405"/>
</g>
<g>
	<path fill="#9CC7FF" d="M53.897,30.639h11.218c0.734,0,1.33-0.596,1.33-1.331V12.349c0-0.735-0.595-1.331-1.33-1.331H53.897
		c-0.735,0-1.331,0.596-1.331,1.331v16.959C52.566,30.042,53.162,30.639,53.897,30.639z"/>
	<rect x="53.333" y="11.925" fill="#FFFFFF" width="12.345" height="16.102"/>
	<rect x="54.163" y="13.083" fill="#D7D7E6" width="10.744" height="2.144"/>
	<rect x="60.485" y="16.058" fill="#D7D7E6" width="4.421" height="10.506"/>
	<rect x="54.163" y="16.058" fill="#D7D7E6" width="5.501" height="1.217"/>
	<rect x="54.163" y="18.161" fill="#D7D7E6" width="5.501" height="1.217"/>
	<rect x="54.163" y="20.265" fill="#D7D7E6" width="5.501" height="1.217"/>
	<rect x="54.163" y="22.368" fill="#D7D7E6" width="5.501" height="4.196"/>
</g>
<g>
	<path fill="#609AE8" d="M7.125,47.507h21.635V33.792c0-0.538-0.437-0.975-0.975-0.975H8.101c-0.539,0-0.975,0.437-0.975,0.975
		V47.507z"/>
	<rect x="7.73" y="33.599" fill="#FFFFFF" width="20.427" height="13.127"/>
	<path fill="#9CC7FF" d="M6.082,47.507h23.722v0.229c0,0.47-0.382,0.851-0.852,0.851H6.934c-0.471,0-0.852-0.381-0.852-0.851V47.507
		z"/>
	<rect x="8.583" y="34.553" fill="#D7D7E6" width="18.698" height="1.825"/>
	<rect x="20.871" y="37.409" fill="#D7D7E6" width="6.411" height="8.363"/>
	<rect x="13.639" y="37.409" fill="#D7D7E6" width="6.41" height="8.363"/>
	<rect x="8.583" y="37.409" fill="#D7D7E6" width="3.909" height="1.195"/>
	<rect x="8.583" y="39.256" fill="#D7D7E6" width="3.909" height="1.195"/>
	<rect x="8.583" y="41.104" fill="#D7D7E6" width="3.909" height="4.668"/>
</g>
<g>
	<polygon fill="#2A6993" points="85.675,28.938 82.066,26.854 82.066,28.228 76.702,28.228 76.702,29.647 82.066,29.647 
		82.066,31.021 	"/>
	<polygon fill="#2A6993" points="76.702,24.368 80.31,26.451 80.31,25.077 85.675,25.077 85.675,23.658 80.31,23.658 80.31,22.284 	
		"/>
</g>
<g>
	<g>
		<path fill="#FFFFFF" d="M134.42,62.005c-0.479-0.036-0.924-0.214-1.268-0.509c-0.39-0.335-0.604-0.781-0.603-1.256
			c-0.066-0.934-0.357-1.899-0.598-2.562c-1.144-0.912-1.76-2.321-1.649-3.78c0.184-2.423,2.306-4.244,4.728-4.061
			c2.424,0.184,4.246,2.305,4.062,4.728c-0.1,1.319-0.776,2.508-1.858,3.269c-0.327,0.895-0.525,1.713-0.586,2.434
			c-0.012,0.97-0.935,1.752-2.062,1.746C134.531,62.013,134.474,62.011,134.42,62.005z M135.003,50.197
			c-2.224-0.169-4.172,1.504-4.34,3.729c-0.104,1.355,0.478,2.663,1.552,3.5l0.041,0.032l0.017,0.048
			c0.252,0.686,0.567,1.715,0.638,2.715v0.014c-0.003,0.37,0.167,0.721,0.478,0.988c0.317,0.274,0.744,0.426,1.201,0.429
			c0.931,0.006,1.691-0.619,1.697-1.393v-0.007v-0.008c0.065-0.769,0.277-1.64,0.63-2.588l0.021-0.054l0.046-0.032
			c1.019-0.699,1.656-1.803,1.749-3.033C138.901,52.313,137.229,50.365,135.003,50.197z"/>
	</g>
	<g>
		<polygon fill="#FFFFFF" points="133.603,60.503 133.026,55.7 134.027,56.528 134.648,55.839 135.185,56.486 136.121,55.693 
			135.551,60.504 135.194,60.462 135.655,56.56 135.14,56.996 134.636,56.391 134.063,57.027 133.492,56.554 133.96,60.461 		"/>
	</g>
	<g>
		<rect x="133.02" y="61.573" transform="matrix(1 0.0066 -0.0066 1 0.411 -0.8816)" fill="#FFFFFF" width="3.126" height="1.26"/>
	</g>
	<g>
		
			<rect x="132.523" y="60.286" transform="matrix(1 0.0066 -0.0066 1 0.4087 -0.8895)" fill="#FFFFFF" width="4.131" height="2.028"/>
	</g>
</g>
<g>
	<polygon fill="#757474" points="113.974,75.751 99.408,75.751 99.408,86.309 99.408,88.532 101.632,86.309 113.974,86.309 	"/>
</g>
</svg>
