<?xml version="1.0" encoding="utf-8"?>
<!-- Generator: Adobe Illustrator 16.0.0, SVG Export Plug-In . SVG Version: 6.00 Build 0)  -->
<!DOCTYPE svg PUBLIC "-//W3C//DTD SVG 1.1//EN" "http://www.w3.org/Graphics/SVG/1.1/DTD/svg11.dtd">
<svg version="1.1" id="Layer_1" xmlns="http://www.w3.org/2000/svg" xmlns:xlink="http://www.w3.org/1999/xlink" x="0px" y="0px"
	 width="200px" height="193px" viewBox="0 0 200 193" enable-background="new 0 0 200 193" xml:space="preserve">
<g>
	<g>
		
			<line fill="none" stroke="#A7A9AC" stroke-width="1.4" stroke-miterlimit="10" x1="100.956" y1="151.78" x2="100.956" y2="154.28"/>
		
			<line fill="none" stroke="#A7A9AC" stroke-width="1.4" stroke-miterlimit="10" stroke-dasharray="4.7507,5.7008" x1="100.956" y1="159.981" x2="100.956" y2="167.582"/>
		<polyline fill="none" stroke="#A7A9AC" stroke-width="1.4" stroke-miterlimit="10" points="100.956,170.433 100.956,172.933 
			98.456,172.933 		"/>
		
			<line fill="none" stroke="#A7A9AC" stroke-width="1.4" stroke-miterlimit="10" stroke-dasharray="4.4337,5.3204" x1="93.135" y1="172.933" x2="76.287" y2="172.933"/>
		
			<line fill="none" stroke="#A7A9AC" stroke-width="1.4" stroke-miterlimit="10" x1="73.627" y1="172.933" x2="71.127" y2="172.933"/>
	</g>
</g>
<circle fill="#49617F" cx="100.954" cy="101.103" r="44.55"/>
<circle fill="none" stroke="#A7A9AC" stroke-width="1.4" stroke-miterlimit="10" stroke-dasharray="5,6" cx="100.954" cy="101.103" r="48.167"/>
<circle fill="#8BBBE5" cx="100.955" cy="101.103" r="39.842"/>
<circle fill="#FFFFFF" cx="100.955" cy="101.103" r="37.576"/>
<circle fill="#8BBBE5" cx="100.955" cy="101.103" r="4.186"/>
<g>
	<path fill="#8BBBE5" d="M100.956,102.673c-0.868,0-1.571-0.702-1.571-1.57v-25.5c0-0.866,0.703-1.569,1.571-1.569
		c0.867,0,1.568,0.703,1.568,1.569v25.5C102.523,101.971,101.822,102.673,100.956,102.673z"/>
</g>
<g>
	<path fill="#8BBBE5" d="M84.447,112.204c-0.542,0-1.069-0.282-1.36-0.785c-0.434-0.75-0.176-1.71,0.574-2.143l16.508-9.532
		c0.753-0.433,1.711-0.176,2.143,0.574c0.434,0.751,0.176,1.711-0.574,2.145l-16.508,9.53
		C84.983,112.137,84.713,112.204,84.447,112.204z"/>
</g>
<circle fill="#FFFFFF" cx="100.954" cy="101.103" r="2.397"/>
<g>
	<g>
		<g>
			<g>
				<path fill="#8BBBE5" d="M100.956,70.359c-0.579,0-1.047-0.468-1.047-1.046v-6.113c0-0.578,0.468-1.046,1.047-1.046
					c0.578,0,1.044,0.469,1.044,1.046v6.113C102,69.891,101.533,70.359,100.956,70.359z"/>
			</g>
			<g>
				<path fill="#8BBBE5" d="M100.956,140.052c-0.579,0-1.047-0.468-1.047-1.046v-6.112c0-0.579,0.468-1.048,1.047-1.048
					c0.578,0,1.044,0.469,1.044,1.048v6.112C102,139.584,101.533,140.052,100.956,140.052z"/>
			</g>
		</g>
		<g>
			<g>
				<path fill="#8BBBE5" d="M138.855,102.15h-6.111c-0.578,0-1.045-0.47-1.045-1.048c0-0.576,0.467-1.046,1.045-1.046h6.111
					c0.578,0,1.049,0.47,1.049,1.046C139.904,101.681,139.434,102.15,138.855,102.15z"/>
			</g>
			<g>
				<path fill="#8BBBE5" d="M69.166,102.15h-6.114c-0.578,0-1.045-0.47-1.045-1.048c0-0.576,0.468-1.046,1.045-1.046h6.114
					c0.577,0,1.046,0.47,1.046,1.046C70.211,101.681,69.743,102.15,69.166,102.15z"/>
			</g>
		</g>
	</g>
	<g>
		<g>
			<g>
				<path fill="#8BBBE5" d="M85.061,74.619c-0.362,0-0.713-0.187-0.907-0.523l-3.056-5.294c-0.29-0.5-0.117-1.141,0.382-1.429
					c0.503-0.29,1.141-0.118,1.43,0.383l3.057,5.294c0.289,0.5,0.117,1.14-0.383,1.429C85.418,74.574,85.238,74.619,85.061,74.619z"
					/>
			</g>
			<g>
				<path fill="#8BBBE5" d="M119.906,134.974c-0.361,0-0.713-0.188-0.908-0.522l-3.055-5.294c-0.289-0.502-0.117-1.141,0.383-1.43
					c0.5-0.29,1.141-0.118,1.43,0.383l3.055,5.295c0.289,0.499,0.119,1.14-0.383,1.428
					C120.266,134.928,120.084,134.974,119.906,134.974z"/>
			</g>
		</g>
		<g>
			<g>
				<path fill="#8BBBE5" d="M128.486,86.254c-0.361,0-0.713-0.187-0.908-0.522c-0.287-0.501-0.115-1.14,0.385-1.43l5.293-3.057
					c0.502-0.289,1.139-0.117,1.43,0.384c0.289,0.499,0.117,1.14-0.383,1.428l-5.295,3.057
					C128.842,86.209,128.662,86.254,128.486,86.254z"/>
			</g>
			<g>
				<path fill="#8BBBE5" d="M68.131,121.1c-0.362,0-0.713-0.187-0.907-0.521c-0.289-0.502-0.118-1.14,0.383-1.43l5.295-3.059
					c0.499-0.286,1.139-0.114,1.429,0.385c0.289,0.5,0.118,1.14-0.383,1.429l-5.294,3.058C68.489,121.056,68.308,121.1,68.131,121.1
					z"/>
			</g>
		</g>
	</g>
	<g>
		<g>
			<g>
				<path fill="#8BBBE5" d="M73.424,86.254c-0.178,0-0.357-0.045-0.522-0.14l-5.295-3.057c-0.5-0.288-0.671-0.929-0.383-1.428
					c0.289-0.5,0.927-0.672,1.429-0.384l5.294,3.057c0.501,0.29,0.672,0.929,0.383,1.43C74.136,86.067,73.785,86.254,73.424,86.254z
					"/>
			</g>
			<g>
				<path fill="#8BBBE5" d="M133.777,121.1c-0.178,0-0.357-0.044-0.521-0.139l-5.293-3.058c-0.5-0.289-0.672-0.929-0.385-1.429
					c0.289-0.499,0.93-0.671,1.43-0.385l5.295,3.059c0.5,0.29,0.672,0.928,0.383,1.43C134.492,120.913,134.141,121.1,133.777,121.1z
					"/>
			</g>
		</g>
		<g>
			<g>
				<path fill="#8BBBE5" d="M116.848,74.619c-0.176,0-0.357-0.044-0.521-0.14c-0.5-0.289-0.672-0.929-0.383-1.429l3.055-5.294
					c0.291-0.501,0.93-0.673,1.43-0.383c0.502,0.288,0.672,0.929,0.383,1.429l-3.055,5.294
					C117.563,74.432,117.209,74.619,116.848,74.619z"/>
			</g>
			<g>
				<path fill="#8BBBE5" d="M82.001,134.974c-0.176,0-0.356-0.046-0.522-0.141c-0.499-0.288-0.671-0.929-0.382-1.428l3.056-5.295
					c0.289-0.501,0.927-0.673,1.429-0.383c0.5,0.289,0.672,0.928,0.383,1.43l-3.057,5.294
					C82.716,134.786,82.364,134.974,82.001,134.974z"/>
			</g>
		</g>
	</g>
</g>
<g>
	
		<rect x="97.605" y="108.667" transform="matrix(0.7071 0.7071 -0.7071 0.7071 109.1436 -45.1228)" fill="#49617F" width="22.872" height="1.046"/>
</g>
<circle fill="#49617F" cx="100.954" cy="101.103" r="1.616"/>
<path fill="#6A90B4" d="M68.404,175.255v-3.752c0-0.952-0.772-1.725-1.725-1.725h-0.083c-0.739,0-1.381-0.477-1.633-1.169
	c-0.145-0.399-0.307-0.787-0.486-1.168c-0.315-0.671-0.2-1.464,0.325-1.988l0.059-0.06c0.674-0.675,0.674-1.768,0-2.44l-2.652-2.654
	c-0.674-0.674-1.766-0.674-2.439,0l-0.061,0.061c-0.524,0.523-1.317,0.641-1.987,0.325c-0.381-0.179-0.77-0.342-1.168-0.486
	c-0.694-0.252-1.169-0.894-1.169-1.631v-0.084c0-0.953-0.772-1.725-1.725-1.725h-3.753c-0.952,0-1.725,0.771-1.725,1.725v0.084
	c0,0.737-0.476,1.379-1.17,1.631c-0.397,0.145-0.787,0.308-1.167,0.486c-0.67,0.315-1.464,0.198-1.988-0.325l-0.06-0.061
	c-0.674-0.674-1.766-0.674-2.44,0l-2.653,2.654c-0.674,0.673-0.674,1.766,0,2.44l0.06,0.06c0.524,0.524,0.64,1.317,0.325,1.988
	c-0.179,0.381-0.341,0.769-0.486,1.168c-0.252,0.692-0.894,1.169-1.632,1.169h-0.083c-0.953,0-1.725,0.772-1.725,1.725v3.752
	c0,0.953,0.772,1.725,1.725,1.725h0.083c0.739,0,1.38,0.476,1.632,1.171c0.145,0.396,0.307,0.787,0.486,1.167
	c0.316,0.67,0.2,1.464-0.325,1.988l-0.06,0.06c-0.674,0.674-0.674,1.766,0,2.439l2.653,2.653c0.674,0.675,1.766,0.675,2.44,0
	l0.059-0.061c0.524-0.523,1.318-0.639,1.989-0.323c0.38,0.178,0.77,0.341,1.167,0.485c0.694,0.252,1.17,0.895,1.17,1.633v0.082
	c0,0.953,0.772,1.726,1.725,1.726h3.753c0.952,0,1.725-0.772,1.725-1.726v-0.082c0-0.738,0.475-1.381,1.169-1.633
	c0.398-0.145,0.787-0.308,1.168-0.485c0.67-0.315,1.464-0.2,1.988,0.323l0.06,0.061c0.674,0.675,1.765,0.675,2.439,0l2.652-2.653
	c0.674-0.674,0.674-1.766,0-2.439l-0.06-0.06c-0.524-0.524-0.64-1.318-0.325-1.988c0.18-0.38,0.341-0.771,0.486-1.167
	c0.252-0.695,0.894-1.171,1.633-1.171h0.083C67.631,176.979,68.404,176.208,68.404,175.255z"/>
<path fill="none" stroke="#FFFFFF" stroke-width="2" stroke-miterlimit="10" d="M51.783,162.736
	c-5.869,0-10.644,4.773-10.644,10.644c0,5.868,4.774,10.643,10.644,10.643s10.644-4.774,10.644-10.643
	C62.427,167.51,57.652,162.736,51.783,162.736z"/>
<path fill="#1695A4" d="M51.783,167.698c-3.133,0-5.682,2.548-5.682,5.682c0,3.133,2.549,5.681,5.682,5.681s5.682-2.548,5.682-5.681
	C57.465,170.246,54.916,167.698,51.783,167.698z"/>
<path fill="#FFFFFF" d="M51.783,181.509c-4.483,0-8.13-3.646-8.13-8.129c0-4.483,3.647-8.131,8.13-8.131s8.13,3.647,8.13,8.131
	C59.914,177.862,56.266,181.509,51.783,181.509z"/>
<path fill="#1D4759" d="M51.783,167.698c-3.133,0-5.682,2.548-5.682,5.682c0,3.133,2.549,5.681,5.682,5.681s5.682-2.548,5.682-5.681
	C57.465,170.246,54.916,167.698,51.783,167.698z"/>
<g>
	<path fill="#ACACAC" d="M48.795,158.909v-2.921c0-0.741-0.601-1.344-1.343-1.344h-0.064c-0.575,0-1.075-0.37-1.271-0.911
		c-0.113-0.31-0.24-0.612-0.378-0.907c-0.246-0.523-0.156-1.141,0.253-1.55l0.046-0.047c0.525-0.525,0.525-1.375,0-1.899
		l-2.066-2.065c-0.524-0.525-1.375-0.525-1.9,0l-0.047,0.046c-0.408,0.409-1.026,0.499-1.548,0.252
		c-0.296-0.138-0.599-0.265-0.909-0.377c-0.54-0.196-0.911-0.696-0.911-1.271v-0.065c0-0.741-0.602-1.343-1.343-1.343h-2.921
		c-0.743,0-1.344,0.602-1.344,1.343v0.065c0,0.575-0.37,1.075-0.911,1.271c-0.31,0.112-0.613,0.239-0.909,0.377
		c-0.522,0.247-1.141,0.157-1.549-0.252l-0.046-0.046c-0.525-0.525-1.375-0.525-1.9,0l-2.066,2.065
		c-0.525,0.524-0.525,1.374,0,1.899l0.046,0.047c0.408,0.409,0.499,1.026,0.253,1.55c-0.14,0.295-0.266,0.598-0.379,0.907
		c-0.197,0.541-0.696,0.911-1.272,0.911h-0.063c-0.742,0-1.344,0.603-1.344,1.344v2.921c0,0.743,0.602,1.344,1.344,1.344h0.063
		c0.576,0,1.075,0.371,1.272,0.911c0.113,0.311,0.239,0.613,0.379,0.909c0.245,0.522,0.155,1.142-0.253,1.549l-0.046,0.045
		c-0.525,0.526-0.525,1.376,0,1.901l2.066,2.066c0.525,0.523,1.375,0.523,1.9,0l0.046-0.048c0.408-0.408,1.026-0.498,1.548-0.252
		c0.296,0.14,0.6,0.265,0.909,0.379c0.541,0.195,0.911,0.695,0.911,1.271v0.064c0,0.741,0.601,1.342,1.344,1.342h2.921
		c0.742,0,1.343-0.601,1.343-1.342v-0.064c0-0.575,0.371-1.075,0.911-1.271c0.31-0.114,0.613-0.239,0.909-0.379
		c0.522-0.246,1.14-0.156,1.548,0.252l0.047,0.048c0.524,0.523,1.375,0.523,1.9,0l2.066-2.066c0.525-0.525,0.525-1.376,0-1.901
		l-0.046-0.045c-0.409-0.407-0.499-1.026-0.253-1.549c0.139-0.296,0.266-0.599,0.378-0.909c0.196-0.54,0.696-0.911,1.271-0.911
		h0.064C48.195,160.253,48.795,159.652,48.795,158.909z"/>
</g>
<g>
	<path fill="#FFFFFF" d="M35.853,166.119c-4.779,0-8.669-3.891-8.669-8.67c0-4.78,3.89-8.67,8.669-8.67
		c4.78,0,8.669,3.89,8.669,8.67C44.522,162.229,40.633,166.119,35.853,166.119z M35.853,149.542c-4.36,0-7.908,3.546-7.908,7.907
		c0,4.36,3.548,7.907,7.908,7.907c4.36,0,7.908-3.547,7.908-7.907C43.761,153.088,40.213,149.542,35.853,149.542z"/>
</g>
<g>
	<path fill="#1695A4" d="M35.853,153.024c-2.439,0-4.424,1.985-4.424,4.425s1.985,4.423,4.424,4.423c2.44,0,4.424-1.983,4.424-4.423
		S38.293,153.024,35.853,153.024z"/>
</g>
<g>
	<path fill="#FFFFFF" d="M35.853,163.779c-3.491,0-6.331-2.839-6.331-6.33s2.84-6.332,6.331-6.332s6.331,2.841,6.331,6.332
		S39.344,163.779,35.853,163.779z"/>
</g>
<g>
	<path fill="#ACACAC" d="M35.853,153.024c-2.439,0-4.424,1.985-4.424,4.425s1.985,4.423,4.424,4.423c2.44,0,4.424-1.983,4.424-4.423
		S38.293,153.024,35.853,153.024z"/>
</g>
<polygon fill="#C1C0C0" points="19.796,79.354 19.796,55.607 19.796,43.703 28.327,35.173 52.123,35.173 52.123,43.986 
	52.123,55.607 52.123,79.354 "/>
<polygon fill="#ACACAC" points="28.327,43.703 19.796,43.703 28.327,35.173 "/>
<rect x="28.327" y="51.13" fill="#F2F2F2" width="18.96" height="0.749"/>
<rect x="24.632" y="53.375" fill="#F2F2F2" width="22.655" height="0.749"/>
<rect x="28.327" y="72.061" fill="#F2F2F2" width="18.96" height="0.749"/>
<rect x="24.632" y="74.306" fill="#F2F2F2" width="22.655" height="0.749"/>
<rect x="24.632" y="55.621" fill="#F2F2F2" width="22.655" height="0.748"/>
<rect x="24.632" y="57.865" fill="#F2F2F2" width="22.655" height="0.749"/>
<rect x="28.448" y="61.484" fill="#F2F2F2" width="8.39" height="0.749"/>
<rect x="28.448" y="65.039" fill="#F2F2F2" width="8.39" height="0.749"/>
<rect x="28.448" y="68.593" fill="#F2F2F2" width="8.39" height="0.748"/>
<g>
	<polygon fill="#49617F" points="27.011,59.963 25.988,61.813 25.62,61.148 25.207,61.376 25.988,62.789 27.424,60.191 	"/>
</g>
<g>
	<polygon fill="#49617F" points="27.011,63.518 25.988,65.367 25.62,64.703 25.207,64.931 25.988,66.343 27.424,63.747 	"/>
</g>
<g>
	<polygon fill="#49617F" points="27.011,67.073 25.988,68.921 25.62,68.257 25.207,68.486 25.988,69.898 27.424,67.302 	"/>
</g>
<rect x="39.322" y="61.376" fill="#F2F2F2" width="7.965" height="7.965"/>
<rect x="40.783" y="45.649" fill="#F2F2F2" width="1.643" height="3.336"/>
<rect x="43.213" y="42.239" fill="#F2F2F2" width="1.643" height="6.746"/>
<rect x="45.644" y="44.524" fill="#F2F2F2" width="1.644" height="4.46"/>
<polyline fill="none" stroke="#ACACAC" stroke-width="1.4" stroke-miterlimit="10" stroke-dasharray="5,6" points="35.959,81.665 
	35.959,120.419 53.563,120.419 "/>
<rect x="122.105" y="38.313" fill="#A6B1DA" width="5.432" height="10.837"/>
<rect x="129.07" y="32.526" fill="#8F9ABA" width="5.432" height="16.624"/>
<rect x="136.037" y="35.684" fill="#6A90B4" width="5.432" height="13.467"/>
<rect x="143.004" y="28.025" fill="#8F9ABA" width="5.432" height="21.125"/>
<rect x="149.969" y="20.489" fill="#6A90B4" width="5.434" height="28.662"/>
<g>
	<polygon fill="#2C5871" points="124.973,35.068 124.666,34.796 131.742,26.821 138.707,30.577 152.531,14.873 152.84,15.143 
		138.799,31.093 131.832,27.335 	"/>
</g>
<circle fill="#A6B1DA" cx="124.821" cy="34.933" r="0.946"/>
<circle fill="#8F9ABA" cx="131.787" cy="27.079" r="0.947"/>
<circle fill="#6A90B4" cx="138.753" cy="30.835" r="0.946"/>
<circle fill="#6A90B4" cx="152.686" cy="15.007" r="0.947"/>
<circle fill="#8F9ABA" cx="145.719" cy="22.921" r="0.945"/>
<polyline fill="none" stroke="#A7A9AC" stroke-width="1.4" stroke-miterlimit="10" stroke-dasharray="5,6" points="157.701,41.608 
	174.551,41.608 174.551,67.231 137.807,67.231 "/>
<g>
	<path fill="#1D4759" d="M144.199,176.464c-0.535,0.534-1.402,0.531-1.938-0.004l-1.705-1.762c-0.533-0.535-0.531-1.401,0.002-1.935
		c0,0,0.002-0.001,0.002-0.002c0.537-0.533,1.402-0.531,1.938,0.004l1.705,1.762c0.531,0.535,0.531,1.4-0.002,1.935L144.199,176.464
		z"/>
</g>
<path fill="#2C5871" d="M155.35,187.607c-0.004,0.001-0.006,0.003-0.006,0.004c-1.072,1.068-2.807,1.063-3.873-0.008l-8.354-8.393
	c-1.066-1.07-1.063-2.802,0.006-3.869c0.002-0.001,0.004-0.003,0.004-0.005c1.072-1.067,2.807-1.063,3.873,0.009l8.354,8.393
	C156.418,184.811,156.416,186.541,155.35,187.607L155.35,187.607z"/>
<path fill="#8BBBE5" d="M141.965,174.141L141.965,174.141c-2.031,2.03-4.727,3.146-7.592,3.142
	c-5.902-0.011-10.697-4.822-10.686-10.724c0.004-2.85,1.119-5.532,3.137-7.551c2.031-2.029,4.725-3.144,7.588-3.14
	c2.857,0.007,5.541,1.127,7.563,3.154s3.133,4.716,3.127,7.573C145.096,169.442,143.982,172.122,141.965,174.141L141.965,174.141z"
	/>
<g>
	<path fill="none" d="M141.061,173.236"/>
</g>
<path fill="#FFFFFF" d="M128.764,160.945c-1.504,1.503-2.334,3.498-2.338,5.617c-0.008,4.393,3.559,7.973,7.951,7.98
	c2.131,0.003,4.139-0.827,5.652-2.339l0,0c1.5-1.501,2.33-3.495,2.334-5.614c0.004-2.125-0.824-4.125-2.328-5.635
	c-1.504-1.511-3.504-2.343-5.627-2.348C132.279,158.604,130.273,159.436,128.764,160.945L128.764,160.945z"/>
<path fill="#D1ECFB" d="M126.969,168.883c0.006-2.119,0.836-4.115,2.338-5.617c1.512-1.512,3.516-2.341,5.645-2.338
	c2.125,0.004,4.123,0.838,5.629,2.348c0.768,0.771,1.357,1.672,1.752,2.651c-0.15-1.875-0.949-3.62-2.297-4.972
	c-1.504-1.511-3.504-2.343-5.627-2.348c-2.129-0.004-4.135,0.828-5.645,2.338c-1.504,1.503-2.334,3.498-2.338,5.617
	c-0.002,1.051,0.207,2.055,0.576,2.976C126.986,169.321,126.969,169.104,126.969,168.883z"/>
<polyline fill="none" stroke="#A7A9AC" stroke-width="1.4" stroke-miterlimit="10" stroke-dasharray="5,6" points="111.795,151.117 
	111.795,182.878 141.775,182.878 "/>
<path fill="#C5DFE2" d="M177.299,130.222c1.451-1.696,2.328-3.898,2.328-6.306c0-5.365-4.348-9.715-9.713-9.715
	c-5.363,0-9.713,4.35-9.713,9.715c0,2.407,0.879,4.609,2.33,6.306l-0.004-0.001c0,0,0.006,0.007,0.016,0.017
	c0.197,0.227,0.402,0.446,0.619,0.655c0.824,0.964,2.166,2.88,2.166,5.155h4.586h4.588c0-2.275,1.34-4.19,2.166-5.155
	c0.215-0.209,0.422-0.429,0.617-0.655c0.01-0.01,0.018-0.017,0.018-0.017L177.299,130.222z"/>
<g>
	<g>
		<g>
			<path fill="#8F9ABA" d="M172.496,131.176c-0.271,0-0.389-0.263-0.477-0.456c-0.033-0.081-0.109-0.248-0.15-0.248
				s-0.115,0.167-0.152,0.248c-0.084,0.193-0.201,0.456-0.473,0.456c-0.27,0-0.389-0.263-0.475-0.456
				c-0.035-0.081-0.109-0.248-0.152-0.248c-0.041,0-0.117,0.167-0.152,0.248c-0.086,0.193-0.201,0.456-0.475,0.456
				c-0.271,0-0.389-0.263-0.473-0.456c-0.037-0.081-0.111-0.248-0.154-0.248c-0.041,0-0.115,0.167-0.15,0.248
				c-0.088,0.193-0.205,0.456-0.475,0.456c-0.273,0-0.391-0.263-0.477-0.455c-0.035-0.082-0.111-0.249-0.152-0.249
				c-0.043,0-0.117,0.167-0.154,0.248c-0.084,0.193-0.201,0.456-0.475,0.456v-0.352c0.043,0,0.119-0.167,0.154-0.248
				c0.086-0.193,0.203-0.456,0.475-0.456s0.389,0.263,0.475,0.456c0.037,0.081,0.111,0.248,0.154,0.248
				c0.041,0,0.115-0.167,0.152-0.248c0.086-0.193,0.203-0.456,0.473-0.456c0.273,0,0.389,0.263,0.475,0.456
				c0.037,0.081,0.111,0.248,0.152,0.248c0.043,0,0.119-0.167,0.154-0.248c0.086-0.193,0.201-0.456,0.473-0.456
				s0.389,0.264,0.475,0.457c0.035,0.08,0.111,0.247,0.152,0.247s0.115-0.167,0.15-0.247c0.086-0.193,0.203-0.457,0.475-0.457
				s0.389,0.264,0.475,0.457c0.035,0.08,0.109,0.247,0.152,0.247V131.176L172.496,131.176z"/>
		</g>
	</g>
	<path fill="#8F9ABA" d="M174.502,136.048v2.108c0,2.531-2.051,4.584-4.584,4.584l0,0c-2.529,0-4.58-2.053-4.58-4.583v-2.109
		H174.502z"/>
	<path fill="#8F9ABA" d="M169.918,142.74c1.441,0,2.723-0.665,3.563-1.703h-7.125C167.197,142.075,168.48,142.74,169.918,142.74z"/>
	<g>
		<g>
			<path fill="#8F9ABA" d="M169.91,111.29c-0.129,0-0.234-0.104-0.234-0.234v-4.951c0-0.129,0.105-0.235,0.234-0.235
				s0.236,0.106,0.236,0.235v4.951C170.146,111.186,170.039,111.29,169.91,111.29L169.91,111.29z"/>
		</g>
		<g>
			<path fill="#8F9ABA" d="M163.6,112.982c-0.082,0-0.158-0.042-0.203-0.117l-2.475-4.288c-0.066-0.112-0.027-0.255,0.086-0.319
				c0.113-0.065,0.256-0.027,0.32,0.085l2.477,4.287c0.064,0.113,0.027,0.257-0.086,0.323
				C163.682,112.975,163.641,112.982,163.6,112.982L163.6,112.982z"/>
		</g>
		<g>
			<path fill="#8F9ABA" d="M158.982,117.605c-0.041,0-0.08-0.011-0.117-0.032l-4.287-2.477c-0.113-0.064-0.152-0.208-0.088-0.32
				c0.066-0.113,0.209-0.152,0.322-0.087l4.287,2.476c0.113,0.064,0.152,0.209,0.086,0.322
				C159.143,117.562,159.064,117.605,158.982,117.605L158.982,117.605z"/>
		</g>
		<g>
			<path fill="#8F9ABA" d="M157.293,123.916h-4.951c-0.129,0-0.234-0.106-0.234-0.236c0-0.128,0.105-0.235,0.234-0.235h4.951
				c0.131,0,0.236,0.107,0.236,0.235C157.529,123.81,157.424,123.916,157.293,123.916L157.293,123.916z"/>
		</g>
		<g>
			<path fill="#8F9ABA" d="M174.98,138.036h-9.938c-0.262,0-0.473-0.211-0.473-0.473c0-0.258,0.211-0.472,0.473-0.472h9.938
				c0.262,0,0.473,0.214,0.473,0.472C175.453,137.825,175.242,138.036,174.98,138.036L174.98,138.036z"/>
		</g>
		<g>
			<path fill="#8F9ABA" d="M174.98,139.871h-9.938c-0.262,0-0.473-0.211-0.473-0.473c0-0.259,0.211-0.473,0.473-0.473h9.938
				c0.262,0,0.473,0.214,0.473,0.473C175.453,139.66,175.242,139.871,174.98,139.871L174.98,139.871z"/>
		</g>
		<g>
			<path fill="#8F9ABA" d="M154.699,132.7c-0.082,0-0.16-0.041-0.205-0.117c-0.064-0.111-0.025-0.256,0.086-0.321l4.289-2.476
				c0.113-0.065,0.258-0.025,0.32,0.088c0.066,0.11,0.027,0.255-0.086,0.319l-4.287,2.476
				C154.779,132.69,154.738,132.7,154.699,132.7L154.699,132.7z"/>
		</g>
		<g>
			<path fill="#8F9ABA" d="M161.131,139.132c-0.039,0-0.08-0.01-0.115-0.031c-0.113-0.066-0.154-0.209-0.088-0.322l2.477-4.287
				c0.064-0.111,0.209-0.151,0.322-0.085c0.111,0.065,0.15,0.207,0.084,0.319l-2.475,4.288
				C161.293,139.089,161.213,139.132,161.131,139.132L161.131,139.132z"/>
		</g>
		<g>
			<path fill="#8F9ABA" d="M178.705,139.128c-0.082,0-0.16-0.043-0.203-0.118l-2.477-4.288c-0.066-0.112-0.027-0.255,0.086-0.319
				c0.113-0.067,0.256-0.027,0.32,0.085l2.477,4.288c0.064,0.112,0.027,0.255-0.086,0.321
				C178.785,139.117,178.744,139.128,178.705,139.128L178.705,139.128z"/>
		</g>
		<g>
			<path fill="#8F9ABA" d="M185.135,132.693c-0.041,0-0.082-0.01-0.119-0.03l-4.287-2.476c-0.113-0.065-0.15-0.21-0.086-0.323
				c0.064-0.11,0.209-0.149,0.322-0.085l4.287,2.477c0.111,0.065,0.15,0.21,0.086,0.32
				C185.293,132.651,185.215,132.693,185.135,132.693L185.135,132.693z"/>
		</g>
		<g>
			<path fill="#8F9ABA" d="M187.488,123.907h-4.953c-0.129,0-0.234-0.104-0.234-0.234s0.105-0.235,0.234-0.235h4.953
				c0.129,0,0.234,0.105,0.234,0.235S187.617,123.907,187.488,123.907L187.488,123.907z"/>
		</g>
		<g>
			<path fill="#8F9ABA" d="M180.844,117.598c-0.082,0-0.16-0.042-0.205-0.118c-0.064-0.112-0.027-0.256,0.088-0.32l4.287-2.477
				c0.111-0.064,0.256-0.026,0.32,0.087c0.066,0.111,0.027,0.256-0.086,0.32l-4.289,2.476
				C180.924,117.586,180.883,117.598,180.844,117.598L180.844,117.598z"/>
		</g>
		<g>
			<path fill="#8F9ABA" d="M176.223,112.979c-0.041,0-0.082-0.011-0.117-0.031c-0.113-0.065-0.152-0.209-0.088-0.321l2.477-4.289
				c0.063-0.111,0.207-0.149,0.32-0.085c0.111,0.064,0.15,0.208,0.086,0.32l-2.477,4.289
				C176.381,112.937,176.303,112.979,176.223,112.979L176.223,112.979z"/>
		</g>
		<g>
			<path fill="#8F9ABA" d="M169.91,111.29c-0.129,0-0.234-0.104-0.234-0.234v-4.951c0-0.129,0.105-0.235,0.234-0.235
				s0.236,0.106,0.236,0.235v4.951C170.146,111.186,170.039,111.29,169.91,111.29L169.91,111.29z"/>
		</g>
	</g>
</g>
<g>
	<rect x="167.189" y="129.454" fill="#2C5871" width="0.834" height="6.594"/>
	<rect x="171.805" y="129.454" fill="#2C5871" width="0.836" height="6.594"/>
</g>
<polyline fill="none" stroke="#A7A9AC" stroke-width="1.4" stroke-miterlimit="10" stroke-dasharray="5,6" points="133.201,140.537 
	150.975,158.31 169.914,158.31 169.914,144.236 "/>
<g>
	<path fill="#6A90B4" d="M188.137,102.377v-3.663c-2.586-0.116-5.088-0.847-6.555-1.657l1.156-4.507
		c1.617,0.884,3.889,1.695,6.398,1.695c2.236,0,3.74-0.887,3.74-2.387c0-1.465-1.234-2.395-4.129-3.356
		c-4.121-1.39-6.936-3.312-6.936-7.051c0-3.43,2.391-6.092,6.512-6.858v-3.666h3.775v3.392c2.547,0.079,4.285,0.656,5.635,1.272
		l-1.16,4.354c-0.963-0.462-2.77-1.349-5.551-1.349c-2.5,0-3.313,1.117-3.313,2.196c0,1.233,1.348,2.082,4.662,3.277
		c4.588,1.617,6.398,3.741,6.398,7.247c0,3.43-2.387,6.362-6.824,7.093v3.969H188.137z"/>
</g>
<path fill="#8F9ABA" d="M21.928,93.068H4.499C2.567,93.068,1,94.633,1,96.564v38.772c0,1.933,1.567,3.499,3.499,3.499h17.43
	c1.932,0,3.499-1.566,3.499-3.499V96.564C25.427,94.633,23.86,93.068,21.928,93.068z"/>
<path fill="#FFFFFF" d="M22.753,137.179H3.674c-0.877,0-1.589-0.711-1.589-1.589V96.777c0-0.878,0.712-1.589,1.589-1.589h19.079
	c0.877,0,1.588,0.711,1.588,1.589v38.813C24.341,136.468,23.63,137.179,22.753,137.179z"/>
<g>
	<path fill="#1D4759" d="M16.218,94.517h-3.54c-0.131,0-0.238-0.105-0.238-0.236l0,0c0-0.132,0.106-0.238,0.238-0.238h3.54
		c0.13,0,0.238,0.106,0.238,0.238l0,0C16.456,94.411,16.349,94.517,16.218,94.517z"/>
	<g>
		<g>
			<circle fill="#1D4759" cx="11.458" cy="94.28" r="0.475"/>
		</g>
	</g>
	<g>
		<circle fill="#2C5871" cx="11.458" cy="94.28" r="0.197"/>
	</g>
	<g>
		<circle fill="#1D4759" cx="10.212" cy="94.28" r="0.24"/>
	</g>
</g>
<path fill="#49617F" d="M18.415,135.492H8.013c-0.145,0-0.261-0.117-0.261-0.263l0,0c0-0.144,0.117-0.261,0.261-0.261h10.401
	c0.144,0,0.261,0.117,0.261,0.261l0,0C18.675,135.375,18.559,135.492,18.415,135.492z"/>
<path fill="#2C5871" d="M25.427,104.085L25.427,104.085v-3.217l0,0c0.316,0,0.573,0.257,0.573,0.573v2.07
	C26,103.827,25.743,104.085,25.427,104.085z"/>
<path fill="#2C5871" d="M2.51,102.481L2.51,102.481c-0.311,0-0.564-0.253-0.564-0.563v-2.037c0-0.312,0.253-0.563,0.564-0.563l0,0
	V102.481z"/>
<path fill="#2C5871" d="M25.427,108.279L25.427,108.279v-3.217l0,0c0.316,0,0.573,0.257,0.573,0.574v2.069
	C26,108.022,25.743,108.279,25.427,108.279z"/>
<path fill="#8BBBE5" d="M21.538,108.171c0-1.875-1.522-3.397-3.4-3.397c-0.402,0-0.789,0.073-1.146,0.204
	c-0.414-1.753-1.983-3.06-3.861-3.06c-2.163,0-3.922,1.735-3.965,3.889c-0.192-0.04-0.391-0.062-0.592-0.062
	c-1.609,0-2.914,1.304-2.914,2.912c0,1.317,0.875,2.429,2.074,2.79c0.24,0.078,0.497,0.124,0.766,0.124h9.808
	c0.299,0,0.588-0.059,0.853-0.159C20.538,110.98,21.538,109.693,21.538,108.171z"/>
<path fill="#49617F" d="M16.446,109.32l-1.108-1.178c-0.116-0.122-0.304-0.322-0.42-0.446l-1.109-1.177
	c-0.116-0.123-0.305-0.123-0.42,0l-1.109,1.177c-0.115,0.124-0.304,0.324-0.419,0.446l-1.108,1.178
	c-0.116,0.122-0.073,0.223,0.096,0.223h1.347v4.223c0,0.169,0.137,0.307,0.306,0.307h2.197c0.168,0,0.306-0.138,0.306-0.307v-4.223
	h1.346C16.519,109.543,16.562,109.442,16.446,109.32z"/>
<g>
	<g>
		<path fill="#2C5871" d="M8.645,133.134l-0.927-0.535l0.927-0.534V133.134z M7.968,132.599l0.553,0.318v-0.638L7.968,132.599z"/>
	</g>
	<g>
		<path fill="#2C5871" d="M13.886,133.088h-1.111v-0.518l0.555-0.481l0.556,0.481V133.088z M12.899,132.963h0.862v-0.336
			l-0.431-0.373l-0.431,0.373V132.963z"/>
	</g>
	<g>
		<path fill="#2C5871" d="M18.219,133.088c-0.27,0-0.489-0.22-0.489-0.489s0.219-0.489,0.489-0.489c0.27,0,0.489,0.22,0.489,0.489
			S18.489,133.088,18.219,133.088z M18.219,132.233c-0.202,0-0.364,0.163-0.364,0.365c0,0.201,0.163,0.364,0.364,0.364
			c0.201,0,0.365-0.163,0.365-0.364C18.584,132.396,18.42,132.233,18.219,132.233z"/>
	</g>
</g>
<g>
	<text transform="matrix(1 0 0 1 21.0366 96.708)" fill="#2C5871" font-family="'Montserrat-Regular'" font-size="0.9823">12.00</text>
	<path fill="#2C5871" d="M18.364,96.184c-0.01-0.007-0.024-0.006-0.032,0.004c-0.007,0.011-0.005,0.023,0.004,0.033
		c0.03,0.021,0.053,0.069,0.053,0.123c0,0.06-0.029,0.11-0.063,0.13c-0.011,0.006-0.015,0.021-0.009,0.03
		c0.004,0.008,0.012,0.012,0.019,0.012c0.004,0,0.008-0.001,0.011-0.003c0.053-0.029,0.085-0.095,0.085-0.169
		C18.434,96.276,18.408,96.217,18.364,96.184z M18.528,95.976c-0.01-0.008-0.023-0.006-0.031,0.005
		c-0.007,0.01-0.005,0.024,0.004,0.031l0,0c0.083,0.063,0.141,0.185,0.141,0.326c0,0.156-0.072,0.29-0.168,0.344
		c-0.011,0.006-0.015,0.02-0.009,0.031c0.004,0.007,0.012,0.012,0.02,0.012c0.004,0,0.007-0.002,0.011-0.004
		c0.115-0.065,0.191-0.213,0.191-0.383C18.687,96.184,18.625,96.05,18.528,95.976z M18.56,96.34c0-0.104-0.043-0.198-0.11-0.249
		c-0.01-0.008-0.024-0.006-0.031,0.005c-0.008,0.01-0.005,0.024,0.004,0.031l0,0c0.053,0.041,0.092,0.121,0.092,0.213
		c0,0.104-0.048,0.192-0.111,0.227c-0.01,0.006-0.014,0.021-0.008,0.03c0.004,0.008,0.012,0.013,0.02,0.013
		c0.003,0,0.008-0.002,0.011-0.003C18.507,96.56,18.559,96.458,18.56,96.34z M17.774,96.19v0.335h0.203l0.29,0.24v-0.822
		l-0.293,0.247H17.774z"/>
	<path fill="#2C5871" d="M19.37,96.017v0.091l0.397,0.26c0.001,0,0.001,0.001,0.002,0.001c0.004,0.001,0.009,0.003,0.015,0.005
		c0.013,0.004,0.032,0.008,0.051,0.008c0.024-0.001,0.05-0.006,0.075-0.023c0.061-0.041,0.259-0.178,0.383-0.263v-0.078H19.37z
		 M19.835,96.47L19.835,96.47c-0.063,0-0.107-0.023-0.11-0.024l-0.002-0.001l-0.354-0.231v0.48h0.923v-0.491
		c-0.122,0.084-0.279,0.192-0.331,0.229C19.918,96.46,19.873,96.47,19.835,96.47z"/>
	<g>
		<g>
			<path fill="#2C5871" d="M6.468,96.179c0.093,0,0.169,0.075,0.169,0.169c0,0.093-0.076,0.168-0.169,0.168
				s-0.169-0.075-0.169-0.168C6.299,96.254,6.375,96.179,6.468,96.179 M6.468,96.096c-0.139,0-0.252,0.112-0.252,0.252
				S6.329,96.6,6.468,96.6c0.14,0,0.252-0.112,0.252-0.252S6.608,96.096,6.468,96.096L6.468,96.096z"/>
			<path fill="#2C5871" d="M5.714,96.179c0.092,0,0.169,0.075,0.169,0.169c0,0.093-0.077,0.168-0.169,0.168
				c-0.093,0-0.169-0.075-0.169-0.168C5.545,96.254,5.621,96.179,5.714,96.179 M5.714,96.096c-0.14,0-0.252,0.112-0.252,0.252
				S5.574,96.6,5.714,96.6c0.14,0,0.252-0.112,0.252-0.252S5.854,96.096,5.714,96.096L5.714,96.096z"/>
			<circle fill="#2C5871" cx="4.96" cy="96.348" r="0.252"/>
		</g>
		<circle fill="#2C5871" cx="4.205" cy="96.348" r="0.252"/>
		<circle fill="#2C5871" cx="3.451" cy="96.348" r="0.253"/>
	</g>
</g>
<line fill="none" stroke="#ACACAC" stroke-width="1.4" stroke-miterlimit="10" stroke-dasharray="5,6" x1="26.791" y1="133.439" x2="61.112" y2="133.439"/>
<line fill="none" stroke="#A7A9AC" stroke-width="1.4" stroke-miterlimit="10" stroke-dasharray="5,6" x1="150.854" y1="88.353" x2="182.34" y2="88.353"/>
<polyline fill="none" stroke="#A7A9AC" stroke-width="1.4" stroke-miterlimit="10" stroke-dasharray="5,6" points="95.4,20.489 
	110.152,20.489 110.152,42.417 76.738,42.417 76.738,55.994 "/>
<g>
	<defs>
		<circle id="SVGID_1_" cx="76.738" cy="20.867" r="16.435"/>
	</defs>
	<clipPath id="SVGID_2_">
		<use xlink:href="#SVGID_1_"  overflow="visible"/>
	</clipPath>
	<circle clip-path="url(#SVGID_2_)" fill="#D1ECFB" cx="76.738" cy="20.867" r="16.435"/>
	<g clip-path="url(#SVGID_2_)">
		<polygon fill="#49617F" points="72.836,34.7 72.103,33.622 75.734,28.112 76.767,27.756 77.037,26.427 77.665,25.848 
			77.665,25.282 75.061,24.362 74.768,23.766 73.914,23.486 72.522,22.565 71.174,22.565 70.03,24.988 70.995,26.652 72.05,27.394 
			71.713,31.032 71.243,33.883 72.32,34.7 		"/>
		<g>
			<polygon fill="#49617F" points="70.88,23.189 70.097,23.051 70.03,22.108 69.183,22.049 69.513,21.255 69.005,21.195 
				68.57,21.749 67.687,20.986 67.926,19.923 69.647,19.743 70.321,20.521 70.531,19.414 71.145,18.905 71.519,17.946 
				72.941,16.734 73.735,16.793 73.062,16.224 72.522,16.149 72.328,15.866 73.001,15.656 73.525,15.746 74.259,15.387 
				74.259,14.757 73.331,14.114 72.986,12.89 72.448,13.59 72.029,12.767 70.972,12.228 70.681,13.379 71.07,14.054 70.606,14.563 
				70.727,15.417 70.142,14.892 69.813,14.263 68.495,13.739 68.121,12.89 68.974,11.764 69.618,11.464 70.262,10.685 70.111,9.652 
				69.304,10.401 68.36,8.624 67.807,10.312 66.744,10.206 67.313,9.547 66.922,8.624 66.744,7.706 65.322,7.903 64.603,7.286 
				63.704,7.167 63.284,8.335 64.647,8.919 64.633,9.697 62.835,9.278 62.027,9.892 58.404,8.754 57.281,10.251 57.776,11.089 
				57.281,12.362 57.536,13.2 58.718,13.83 59.422,13.379 59.751,12.676 61.429,12.961 62.147,14.383 63.225,14.892 63.943,16.165 
				63.66,17.752 64.633,19.279 65.711,19.995 66.519,21.255 67.252,21.779 67.507,22.153 68.54,22.258 69.109,22.782 69.529,22.873 
				70.03,23.471 70.649,23.678 			"/>
			<path fill="#49617F" d="M69.378,7.496l-0.416,1.381l0.494,0.55l0.999-0.134c0,0,0.775,0.764,0.809,0.775
				c0.034,0.011,0.067,0.909,0.067,0.909l1.37,1.639l0.202-0.562l-0.54-1.033l0.719,0.146l0.348-0.314l-1.1-0.876l-0.158-0.831
				l-1.1-1l-0.135-0.55L69.378,7.496z"/>
			<polygon fill="#49617F" points="71.834,4.432 71.594,5.22 72.283,6.269 73.432,6.49 74.409,8.305 74.559,11.06 75.786,13.096 
				77.344,11 79.409,9.502 79.409,7.676 80.098,6.239 79.648,4.432 			"/>
		</g>
		<g>
			<g>
				<g>
					<polygon fill="#49617F" points="84.357,18.411 81.371,19.264 80.81,20.589 79.956,21.824 80.629,23.678 82.156,24.047 
						83.729,23.766 84.357,24.497 84.155,25.26 84.851,25.967 84.222,27.416 85.615,30.235 87.389,29.661 88.197,27.663 
						89.275,26.555 88.96,24.866 90.735,22.666 89.343,22.666 88.174,20.881 88.13,19.646 86.042,19.242 85.727,19.623 
						84.513,19.242 					"/>
				</g>
				<polygon fill="#49617F" points="89.466,27.124 89.466,27.629 89.354,28.225 89.713,28.64 90.005,28.225 90.421,26.697 
					90.264,26.281 				"/>
			</g>
		</g>
		<path fill="#49617F" d="M98.618,23.561l-1.707-2.388l-1.078,0.787l-0.674,1.032l-1.325-1.234l-1.527-1.348h-1.573l1.302,0.989
			l-1.999,0.943l-1.864-1.46l-0.044-1.235l0.352-0.905L86.82,18.5c0,0-1.407-0.838-1.474-0.884
			c-0.068-0.044-0.577-0.643-0.577-0.643l-1.663,0.539l-0.673,0.779L81.415,18.5l-0.314-0.853c0,0,0.718-0.584,0.779-0.569
			c0.06,0.015,0.703,0.03,0.703,0.03l-0.329-0.838l-0.269-0.344l1.347-0.555l0.464-0.793l1.333,0.195l0.029-0.583l-1.003-0.45
			l-0.913-0.404l0.121-0.958l1.376-1.079l0.884-1.617l0.419-0.689l1.572,0.135l1.093,1.093l0.734,0.03l1.871-0.15l1.588-1.003
			l1.256-1.572h1.094c0,0,0.898-0.883,1.003-0.928c0.104-0.045,1.315-0.734,1.315-0.734l1.155-0.554l1.093,0.434l0.598,0.674
			l-0.793,0.868l1.018,0.405l1.692,0.089l0.24,0.843l0.898,0.175l0.883-0.569l1.033,0.015l1.152,0.379l0.658,0.549l1.064,0.03
			l1.256,0.255l0.975,0.524l1.076,0.775l0.27,0.452l-0.777,0.734l-0.568-0.345l-0.584,0.554l-0.375,0.524l-0.988,0.374l-0.793-0.06
			l-1.691,0.015l-1.361,0.404l-0.84,0.853l0.643,0.825l-0.732,1.856l0.779-0.644l0.627-0.03l-0.508,0.494l0.105,0.435l-0.33,0.583
			c0,0-0.045,0.539-0.045,0.644c0,0.105-0.719,0.644-0.719,0.644l-0.674,0.254l-0.375,0.51l-0.389,0.554l-0.061-0.392l0.15-0.85
			l1.018-0.495l0.645-0.524l0.209-0.943l-1.121,0.149l-0.57,0.375l-0.074,0.658l-0.359,0.435l-0.195-0.344l-0.18-0.509l-0.494-0.045
			l-0.225,0.554l0.315,0.973l-0.029,1.266l-1.317,0.456l-0.75,0.075l-0.253,0.554l0.494,0.614l-0.06,0.748L98.618,23.561z"/>
		<g>
			<polygon fill="#49617F" points="101.043,27.663 100.19,28.112 99.845,28.545 100.25,29.234 100.235,30.104 100.653,30.403 
				102.75,29.64 104.143,30.702 104.561,31.136 105.715,30.672 105.85,29.909 106.313,29.399 106.209,28.366 105.34,27.663 
				104.576,26.21 104.32,26.42 104.186,27.273 103.498,26.794 103.738,26.42 102.555,26.36 102.375,26.974 102.076,26.689 
				101.447,27.229 101.313,27.618 			"/>
			<polygon fill="#49617F" points="109.24,30.167 109.24,30.941 108.465,32.008 108.072,32.401 108.195,32.783 109.24,31.975 
				110.049,30.919 109.891,30.496 			"/>
			<g>
				<path fill="#49617F" d="M96.911,23.141l1.002,1.847l0.93,0.444l0.403,0.416l2.111,0.362l1.496-0.479l-1.57-0.044
					c0,0-1.348-0.03-1.438-0.061c-0.09-0.029-1.048-0.823-1.048-0.823L96.911,23.141z"/>
				<polygon fill="#49617F" points="99.291,24.399 100.579,23.561 100.954,23.766 100.728,23.979 100.954,24.399 100.504,25.223 
					99.53,24.988 				"/>
				<polygon fill="#49617F" points="101.777,24.219 101.057,24.676 100.954,25.365 101.252,25.365 101.303,25.163 101.656,25.365 
					101.777,25.252 101.521,24.866 				"/>
				<polygon fill="#49617F" points="102.689,24.526 103.281,24.792 103.326,25.058 103.857,24.866 105.07,25.252 105.318,25.761 
					105.998,25.967 105.564,26.113 104.943,25.747 104.598,25.967 103.947,25.896 103.492,25.275 102.982,25.185 102.75,24.792 
					102.488,24.676 				"/>
				<polygon fill="#49617F" points="102.15,24.152 101.971,24.792 102.293,25.028 102.412,24.279 				"/>
				<polygon fill="#49617F" points="101.262,21.637 100.954,22.153 101.107,22.666 100.676,23.313 100.773,23.403 101.365,22.873 
					101.484,23.299 101.229,23.718 101.695,23.501 101.889,23.718 102.24,23.411 101.777,22.363 101.459,22.235 101.543,21.771 				
					"/>
			</g>
		</g>
	</g>
</g>
</svg>
