<?xml version="1.0" encoding="utf-8"?>
<!-- Generator: Adobe Illustrator 16.0.0, SVG Export Plug-In . SVG Version: 6.00 Build 0)  -->
<!DOCTYPE svg PUBLIC "-//W3C//DTD SVG 1.1//EN" "http://www.w3.org/Graphics/SVG/1.1/DTD/svg11.dtd">
<svg version="1.1" id="Layer_1" xmlns="http://www.w3.org/2000/svg" xmlns:xlink="http://www.w3.org/1999/xlink" x="0px" y="0px"
	 width="200px" height="177.5px" viewBox="0 0 200 177.5" enable-background="new 0 0 200 177.5" xml:space="preserve">
<g>
	<path fill="#C8D6D3" d="M134.52,9.871c-1.15-0.812-2.392-1.483-3.729-1.944c-1.968-0.678-4.074-0.875-6.156-0.875
		c-9.813,0-19.302,4.313-26.803,10.639c-5.105,4.307-9.369,9.517-13.029,15.084c-3.324,5.055-5.261,11.001-8.855,15.816
		c-5.991,8.023-16.053,11.776-25.731,14.346c-9.678,2.569-19.853,4.495-28.05,10.245C13.772,79.07,8.284,88.617,6.387,98.693
		c-4.494,23.855,11.315,49.949,34.697,56.697c19.276,5.563,40.956,7.295,60.965,7.275c14.838-0.016,29.76-1.139,44.271-4.328
		c12.021-2.643,24.623-5.811,34.492-13.556c11.584-9.089,16.24-23.974,13.571-38.274c-1.929-10.337-6.538-20.159-13.257-28.248
		c-3.296-3.968-7.068-7.508-10.538-11.329c-5.423-5.978-10.086-12.646-13.84-19.792c-5.728-10.902-9.437-23.045-17.292-32.53
		C138.004,12.855,136.374,11.18,134.52,9.871z"/>
</g>
<g opacity="0.2278">
	<path fill="#B0D7EE" d="M112.465,20.029c-1.132-0.519-2.314-0.902-3.549-1.087c-1.816-0.271-3.675-0.103-5.482,0.232
		c-8.515,1.58-16.055,6.85-21.542,13.547c-3.737,4.559-6.597,9.767-8.877,15.187c-2.07,4.921-2.794,10.393-5.138,15.149
		c-3.906,7.927-12.032,12.804-20.017,16.591c-7.984,3.786-16.502,7.097-22.689,13.407c-6.335,6.461-9.56,15.629-9.584,24.676
		c-0.058,21.424,17.861,41.521,39.236,43.61c17.622,1.726,36.712-0.264,54.073-3.502c12.871-2.401,25.638-5.778,37.717-10.885
		c10.007-4.228,20.431-9.006,27.746-17.313c8.588-9.752,10.232-23.418,5.613-35.397c-3.338-8.657-8.919-16.438-16.05-22.375
		c-3.498-2.914-7.346-5.377-10.967-8.133c-5.67-4.314-10.791-9.35-15.198-14.947c-6.724-8.537-11.898-18.476-20.24-25.441
		C115.968,22.057,114.285,20.866,112.465,20.029z"/>
</g>
<path opacity="0.5307" fill="#B0D7EE" enable-background="new    " d="M65.901,49.587c-0.15,0.201-0.29,0.409-0.411,0.628
	c-0.308,0.563-0.483,1.186-0.656,1.803c-0.795,2.845-1.792,4.976-4.943,5.668c-2.134,0.468-4.796-0.053-5.84-2.185
	c-0.625-1.252-0.513-2.753-0.122-4.096c0.729-2.5,2.366-4.68,4.402-6.303c2.037-1.622,4.458-2.711,6.958-3.436
	c0.289-0.083,0.586-0.164,0.885-0.138c0.333,0.027,0.643,0.184,0.91,0.384c0.935,0.7,1.378,1.936,1.3,3.102
	c-0.077,1.167-0.619,2.264-1.338,3.185C66.679,48.671,66.26,49.109,65.901,49.587z"/>
<path opacity="0.5307" fill="#B0D7EE" enable-background="new    " d="M70.262,36.298c-0.582,1.08-1.506,1.738-1.484,2.965
	c0.028,1.581,1.568,3.303,3.221,2.496c0.533-0.26,0.948-0.717,1.268-1.216c0.617-0.964,0.913-2.187,0.561-3.274
	c-0.462-1.428-2.813-2.807-3.655-0.936"/>
<g opacity="0.5307">
	<g>
		<path fill="#B0D7EE" d="M152.247,22.325c1.063,11.787,5.25,22.363,12.582,31.655c3.647,4.622,8.06,8.608,12.218,12.756
			c2.061,2.055,4.053,4.164,5.893,6.421c1.666,2.046,2.771,4.846,4.979,6.349c0.772,0.523,1.81-0.176,1.812-1.04
			c0.006-2.403-1.662-4.375-3.021-6.231c-1.646-2.249-3.518-4.327-5.441-6.338c-3.871-4.044-8.141-7.681-11.961-11.777
			c-8.117-8.701-13.779-20.277-16.015-31.936C153.18,21.598,152.193,21.728,152.247,22.325L152.247,22.325z"/>
	</g>
</g>
<g opacity="0.5307">
	<g>
		<path fill="#B0D7EE" d="M38.876,61.073c-3.921,0.036-7.848,1.495-11.411,3.034c-3.823,1.651-7.503,3.63-10.787,6.208
			c-3,2.356-5.611,5.036-7.902,8.083c-2.121,2.821-4.688,6.737-4.667,10.386c0.005,0.942,1.165,1.141,1.66,0.449
			c1.946-2.714,2.959-6.045,4.879-8.838c2.01-2.924,4.589-5.445,7.332-7.677c3.017-2.455,6.459-4.411,9.96-6.077
			c3.646-1.735,7.638-2.721,11.188-4.638C39.57,61.767,39.365,61.069,38.876,61.073L38.876,61.073z"/>
	</g>
</g>
<g>
	<path fill="#A3B3D6" d="M76.984,120.54c4.07,7.146,6.514,15.19,7.217,23.378c0.206,2.395,0.252,4.803,0.155,7.203
		c-0.078,1.925,0.156,3.952-1.376,5.377c-0.735,0.686-1.647,1.143-2.557,1.57c-2.62,1.231-5.325,2.283-8.09,3.142
		c-2.485,0.771-4.956,0.948-7.542,1.237c-3.06,0.342-6.151,0.234-9.229,0.132c-3.852-0.132-7.737-0.269-11.476-1.205
		c-3.739-0.935-7.369-2.744-9.829-5.71c-1.714-2.066-2.816-4.863-2.109-7.452c0.376-1.378,1.229-2.583,2.217-3.614
		c1.455-1.521,3.234-2.729,5.185-3.523c2.896-1.18,6.659-1.917,7.563-4.909c0.754-2.495-1.049-4.942-2.375-7.187
		c-1.325-2.246-1.991-5.642,0.204-7.047c1.713-1.099,4.135-0.181,5.922-1.154c2.416-1.314,2.037-4.831,1.422-7.514
		c-0.764-3.334-1.365-6.703-1.798-10.095c-0.352-2.739-0.185-6.233,2.355-7.317c2.626-1.119,5.347,1.408,6.778,3.879
		c1.424,2.457,2.476,5.129,3.11,7.897c0.483,2.106,0.752,4.337,1.926,6.153c2.149,3.322,4.359,1.361,7.208,1.969
		C74.223,116.253,75.791,118.445,76.984,120.54z"/>
</g>
<g>
	<path fill="#678EB5" d="M77.616,160.004c-0.066,0.061-0.136,0.119-0.209,0.178c-3.35,2.678-8.136-0.6-11.412-2.043
		c-4.4-1.938-9.583-3.658-13.382-6.586c-0.684-0.527-1.4-1.203-1.4-2.068c0-0.817,0.696-1.514,1.48-1.746
		c0.785-0.231,1.631-0.09,2.418,0.136c0.297,0.085,0.621,0.181,0.908,0.063c0.425-0.17,0.552-0.752,0.378-1.174
		c-0.174-0.425-0.559-0.721-0.936-0.979c-2.973-2.044-6.499-3.125-9.629-4.917c-2.786-1.598-5.878-4.42-6.445-7.777
		c-0.547-3.248,2.721-5.436,2.98-8.669c0.198-2.483-1.312-4.731-2.505-6.918c-1.193-2.188-2.097-4.967-0.77-7.076
		c1.611-2.563,5.643-2.397,8.04-0.55c2.398,1.85,3.646,4.771,5.06,7.445c1.128,2.135,2.987,5.479,4.935,6.959
		c1.037,0.789,2.569,1.083,3.637,0.338c0.672-0.469,1.048-1.251,1.607-1.85c2.059-2.207,6.09-1.127,7.719,1.412
		c1.628,2.541,1.431,5.836,0.761,8.776c-0.29,1.271-0.658,2.582-0.394,3.858c0.264,1.275,1.425,2.482,2.711,2.274
		c0.802-0.132,1.471-0.769,2.282-0.815c0.963-0.056,1.794,0.771,2.089,1.688c0.295,0.918,0.185,1.909,0.104,2.869
		c-0.278,3.25-0.146,6.522,0.368,9.744C78.415,155.107,79.831,158.003,77.616,160.004z"/>
</g>
<path opacity="0.382" fill="#716EB3" enable-background="new    " d="M42.887,112.984c2.369,7.425,5.641,14.453,9.866,20.972
	c0.052,0.271,0.105,0.536,0.157,0.808c0.045,0.236,0.346,0.289,0.496,0.16c0.236,0.354,0.471,0.707,0.712,1.059
	c-3.633-2.582-7.266-4.946-10.277-8.36c-0.184-0.209-0.511,0.067-0.33,0.28c3.184,3.707,6.898,7.529,11.513,9.408
	c0.008,0.004,0.013-0.002,0.02,0c4.964,6.948,11.099,13.898,18.292,18.532c0.308,0.199,0.749-0.235,0.453-0.503
	c-3.303-2.998-6.542-5.939-9.612-9.044c0.076-6.229-1.463-12.87-4.146-18.479c-0.072-0.151-0.342-0.076-0.289,0.095
	c1.829,5.891,3,11.641,3.794,17.72c-2.767-2.842-5.395-5.824-7.786-9.129c-0.809-1.117-1.584-2.261-2.343-3.414
	c-0.389-5.115-2.376-10.163-4.896-14.545c-0.104-0.182-0.39-0.051-0.296,0.143c1.973,4.061,3.09,8.229,3.994,12.539
	c-3.608-5.785-6.593-11.976-8.846-18.395C43.267,112.563,42.8,112.714,42.887,112.984z"/>
<g>
	<path fill="#678EB5" d="M134.318,102.604c1.324-1.694,2.697-3.433,4.57-4.49c1.871-1.059,4.391-1.276,6.082,0.054
		c0.903,0.71,1.467,1.763,1.983,2.791c1.688,3.354,3.185,6.803,4.479,10.328c1.533,4.173,3.285,8.987,7.467,10.499
		c3.14,1.135,6.832-0.004,9.836,1.447c3.546,1.711,4.627,6.222,4.729,10.153c0.104,3.933-0.282,8.159,1.777,11.509
		c2.173,3.535,6.964,6.072,6.472,10.193c-0.337,2.816-3.146,4.646-5.838,5.544c-10.936,3.646-22.843-1.548-34.329-0.589
		c-4.084,0.341-8.827,1.257-11.762-1.605c-1.39-1.355-2.015-3.295-2.511-5.17c-4.217-15.949-2.398-33.414,5.006-48.153"/>
</g>
<g>
	<path fill="#A3B3D6" d="M129.543,151.747c0.307-0.815,6.621-2.222,7.657-2.604c2.528-0.939,5.032-1.945,7.505-3.023
		c4.41-1.917,9.604-3.611,13.416-6.521c0.686-0.522,1.406-1.197,1.41-2.062c0.003-0.817-0.688-1.517-1.471-1.753
		c-0.785-0.235-1.631-0.1-2.418,0.123c-0.3,0.083-0.623,0.178-0.91,0.06c-0.424-0.173-0.549-0.754-0.371-1.176
		c0.175-0.424,0.562-0.717,0.938-0.974c2.985-2.03,6.516-3.094,9.654-4.873c2.792-1.582,5.898-4.391,6.48-7.744
		c0.564-3.245-2.694-5.447-2.937-8.684c-0.187-2.484,1.333-4.726,2.537-6.906c1.204-2.182,2.122-4.957,0.806-7.071
		c-1.601-2.57-5.633-2.425-8.037-0.59c-2.406,1.838-3.67,4.754-5.097,7.423c-1.14,2.128-3.015,5.464-4.968,6.936
		c-1.04,0.782-2.573,1.069-3.639,0.319c-0.672-0.474-1.045-1.255-1.601-1.858c-2.046-2.216-6.084-1.154-7.726,1.379
		c-1.642,2.529-1.461,5.824-0.803,8.771c0.281,1.272,0.645,2.585,0.375,3.86c-0.271,1.274-1.437,2.476-2.725,2.261
		c-0.801-0.134-1.467-0.772-2.278-0.825c-0.962-0.063-1.796,0.762-2.097,1.678c-0.299,0.916-0.193,1.907-0.116,2.868
		C133.741,138.286,132.154,144.811,129.543,151.747z"/>
</g>
<path opacity="0.382" fill="#716EB3" enable-background="new    " d="M168.034,101.076c-2.406,7.414-5.711,14.424-9.97,20.924
	c-0.053,0.27-0.107,0.536-0.158,0.807c-0.049,0.236-0.35,0.288-0.497,0.158c-0.238,0.354-0.476,0.705-0.72,1.055
	c3.646-2.565,7.293-4.91,10.318-8.312c0.186-0.208,0.512,0.071,0.33,0.281c-3.201,3.694-6.936,7.495-11.559,9.354
	c-0.008,0.004-0.014-0.003-0.021,0c-4.998,6.924-11.168,13.844-18.381,18.443c-0.312,0.195-0.749-0.239-0.452-0.506
	c3.316-2.982,6.572-5.908,9.658-8.997c-0.046-6.229,1.523-12.864,4.234-18.461c0.074-0.151,0.343-0.073,0.289,0.098
	c-1.857,5.882-3.056,11.625-3.881,17.701c2.779-2.829,5.424-5.799,7.832-9.091c0.813-1.114,1.594-2.254,2.356-3.404
	c0.416-5.113,2.427-10.15,4.968-14.521c0.105-0.181,0.389-0.049,0.294,0.145c-1.991,4.051-3.128,8.213-4.052,12.52
	c3.635-5.768,6.646-11.941,8.934-18.352C167.654,100.652,168.121,100.805,168.034,101.076z"/>
<g>
	<g>
		<path fill="#CCC8B6" d="M128.643,142.869c7.211-5.614,13.516-12.125,18.575-19.758c5.015-7.557,8.791-15.914,11.248-24.641
			c1.464-5.199,2.875-10.745,2.104-16.171c-0.073-0.506,0.66-0.729,0.789-0.207c1.146,4.619-0.088,9.582-1.223,14.089
			c-1.145,4.547-2.646,9-4.484,13.313c-3.66,8.612-8.688,16.679-14.982,23.614c-3.475,3.83-7.331,7.38-11.595,10.314
			C128.749,143.65,128.324,143.116,128.643,142.869L128.643,142.869z"/>
	</g>
	<path fill="#CCC8B6" d="M161.255,90.561c-0.427-2.142-0.854-4.285-1.28-6.426c-0.359-1.81-0.682-3.837,0.34-5.373
		c0.09-0.133,0.199-0.271,0.355-0.302c0.23-0.048,0.438,0.146,0.579,0.332c1.149,1.489,1.347,3.529,1.036,5.386
		c-0.311,1.855-0.579,4.614-1.184,6.396"/>
	<path fill="#CCC8B6" d="M159.377,98.98c2.986-1.14,5.602-3.226,7.379-5.881c0.26-0.388,0.508-0.869,0.318-1.295
		c-0.227-0.516-0.945-0.587-1.484-0.421c-0.922,0.283-1.642,0.995-2.293,1.704c-1.486,1.617-2.837,3.359-4.031,5.201"/>
	<path fill="#CCC8B6" d="M156.396,107.499c3.125-1.19,5.863-3.375,7.725-6.157c0.271-0.402,0.529-0.908,0.336-1.354
		c-0.24-0.539-0.991-0.613-1.555-0.44c-0.967,0.297-1.719,1.043-2.402,1.785c-1.557,1.692-2.971,3.517-4.219,5.442"/>
	<path fill="#CCC8B6" d="M151.598,117.018c3.342-0.136,6.635-1.334,9.281-3.379c0.385-0.298,0.793-0.693,0.747-1.18
		c-0.054-0.586-0.743-0.896-1.333-0.911c-1.008-0.024-1.96,0.442-2.844,0.929c-2.012,1.108-3.932,2.389-5.732,3.818"/>
	<path fill="#CCC8B6" d="M160.047,93.835c-1.811-2.19-2.92-4.951-3.13-7.786c-0.03-0.412-0.011-0.895,0.319-1.142
		c0.404-0.299,0.988-0.038,1.334,0.324c0.589,0.624,0.834,1.491,1.027,2.326c0.438,1.902,0.721,3.841,0.838,5.791"/>
	<path fill="#CCC8B6" d="M157.498,102.214c-2.162-2.614-3.486-5.909-3.736-9.293c-0.037-0.491-0.014-1.067,0.383-1.362
		c0.479-0.357,1.18-0.048,1.592,0.389c0.701,0.744,0.992,1.777,1.226,2.773c0.526,2.272,0.861,4.586,1,6.914"/>
	<path fill="#CCC8B6" d="M153.824,111.234c-2.162-2.614-3.486-5.91-3.737-9.295c-0.034-0.491-0.012-1.067,0.386-1.36
		c0.478-0.358,1.178-0.048,1.59,0.388c0.703,0.745,0.994,1.777,1.226,2.775c0.526,2.271,0.86,4.586,1.002,6.912"/>
	<path fill="#CCC8B6" d="M149.059,120.602c-2.16-2.615-3.485-5.91-3.735-9.295c-0.036-0.492-0.013-1.067,0.382-1.361
		c0.48-0.356,1.184-0.047,1.592,0.389c0.703,0.744,0.994,1.777,1.227,2.775c0.526,2.271,0.859,4.586,1,6.912"/>
</g>
<g>
	<g>
		<path fill="#CCC8B6" d="M70.222,153.475c-6.229-2.084-12.258-4.468-17.991-7.705c-5.647-3.189-10.945-6.998-15.766-11.338
			c-2.925-2.634-5.533-5.398-7.425-8.877c-0.213-0.392-0.918-0.147-0.754,0.293c1.167,3.145,3.55,5.666,5.953,7.928
			c2.412,2.271,4.963,4.4,7.612,6.391c5.35,4.016,11.149,7.439,17.272,10.141c3.518,1.549,7.156,2.934,10.894,3.851
			C70.462,154.264,70.658,153.62,70.222,153.475L70.222,153.475z"/>
	</g>
	<path fill="#CCC8B6" d="M33.295,132.734c-0.894-1.992-1.788-3.985-2.681-5.979c-0.755-1.682-1.668-3.52-3.391-4.181
		c-0.149-0.058-0.32-0.104-0.466-0.039c-0.215,0.095-0.27,0.37-0.279,0.604c-0.074,1.881,0.949,3.657,2.278,4.988
		c1.329,1.332,3.146,3.426,4.672,4.526"/>
	<path fill="#CCC8B6" d="M39.708,138.507c-3.094,0.804-6.435,0.621-9.423-0.515c-0.435-0.165-0.917-0.415-1.011-0.869
		c-0.113-0.553,0.431-1.025,0.966-1.204c0.916-0.303,1.914-0.14,2.857,0.06c2.148,0.457,4.257,1.092,6.299,1.9"/>
	<path fill="#CCC8B6" d="M47.074,143.721c-3.238,0.84-6.736,0.649-9.864-0.539c-0.454-0.173-0.959-0.434-1.057-0.91
		c-0.119-0.578,0.451-1.073,1.011-1.26c0.958-0.316,2.003-0.146,2.991,0.063c2.249,0.479,4.457,1.145,6.594,1.99"/>
	<path fill="#CCC8B6" d="M56.503,148.693c-2.803,1.826-6.18,2.76-9.522,2.627c-0.486-0.02-1.048-0.105-1.292-0.525
		c-0.296-0.511,0.085-1.163,0.558-1.518c0.807-0.604,1.853-0.775,2.856-0.892c2.283-0.264,4.588-0.334,6.883-0.212"/>
	<path fill="#CCC8B6" d="M36.177,134.702c0.205-2.833-0.491-5.728-1.963-8.158c-0.214-0.354-0.51-0.735-0.923-0.743
		c-0.501-0.012-0.828,0.541-0.897,1.037c-0.119,0.85,0.184,1.696,0.511,2.49c0.743,1.806,1.639,3.548,2.674,5.203"/>
	<path fill="#CCC8B6" d="M43.113,140.053c0.246-3.383-0.586-6.837-2.344-9.738c-0.255-0.424-0.607-0.879-1.1-0.89
		c-0.599-0.013-0.99,0.646-1.072,1.239c-0.141,1.013,0.22,2.025,0.61,2.972c0.887,2.156,1.957,4.236,3.192,6.212"/>
	<path fill="#CCC8B6" d="M51.336,145.273c0.245-3.385-0.586-6.838-2.344-9.74c-0.255-0.422-0.608-0.879-1.101-0.889
		c-0.598-0.013-0.989,0.646-1.072,1.238c-0.141,1.016,0.22,2.026,0.61,2.973c0.888,2.155,1.957,4.235,3.192,6.213"/>
	<path fill="#CCC8B6" d="M60.647,150.143c0.246-3.384-0.585-6.836-2.343-9.738c-0.256-0.422-0.608-0.879-1.101-0.889
		c-0.599-0.013-0.989,0.646-1.071,1.238c-0.142,1.014,0.22,2.025,0.61,2.973c0.888,2.155,1.956,4.235,3.192,6.211"/>
</g>
<g>
	<g>
		<path fill="#CCC8B6" d="M70.954,139.918c-3.902-5.284-7.467-10.699-10.298-16.643c-2.791-5.854-4.938-12.018-6.39-18.34
			c-0.882-3.834-1.427-7.597-0.977-11.53c0.05-0.44-0.666-0.648-0.786-0.193c-0.851,3.244-0.349,6.679,0.318,9.91
			c0.669,3.246,1.535,6.452,2.561,9.604c2.07,6.357,4.85,12.494,8.311,18.22c1.989,3.29,4.171,6.514,6.703,9.411
			C70.695,140.702,71.228,140.288,70.954,139.918L70.954,139.918z"/>
	</g>
	<path fill="#CCC8B6" d="M52.646,101.729c0.412-2.146,0.826-4.289,1.239-6.435c0.349-1.812,0.658-3.841-0.372-5.37
		c-0.09-0.134-0.203-0.27-0.36-0.301c-0.23-0.045-0.434,0.148-0.576,0.336c-1.14,1.496-1.324,3.538-1.001,5.393
		c0.323,1.854,0.607,4.61,1.223,6.389"/>
	<path fill="#CCC8B6" d="M54.578,110.137c-2.993-1.119-5.624-3.188-7.417-5.835c-0.261-0.385-0.513-0.864-0.328-1.292
		c0.225-0.517,0.942-0.593,1.482-0.431c0.924,0.278,1.647,0.983,2.305,1.69c1.496,1.606,2.857,3.34,4.063,5.174"/>
	<path fill="#CCC8B6" d="M57.612,118.635c-3.133-1.171-5.887-3.338-7.764-6.105c-0.273-0.403-0.537-0.907-0.342-1.354
		c0.235-0.542,0.985-0.621,1.551-0.451c0.967,0.291,1.725,1.031,2.413,1.771c1.566,1.682,2.991,3.497,4.254,5.417"/>
	<path fill="#CCC8B6" d="M62.471,128.123c-3.343-0.114-6.643-1.293-9.303-3.32c-0.387-0.295-0.797-0.688-0.755-1.174
		c0.05-0.588,0.737-0.9,1.327-0.92c1.009-0.031,1.963,0.428,2.85,0.911c2.02,1.095,3.948,2.362,5.756,3.78"/>
	<path fill="#CCC8B6" d="M53.874,104.994c1.797-2.202,2.889-4.971,3.081-7.807c0.028-0.412,0.005-0.895-0.328-1.138
		c-0.404-0.299-0.989-0.034-1.331,0.333c-0.585,0.628-0.824,1.493-1.013,2.33c-0.429,1.905-0.697,3.848-0.801,5.797"/>
	<path fill="#CCC8B6" d="M56.477,113.357c2.145-2.629,3.45-5.935,3.677-9.318c0.034-0.491,0.006-1.068-0.391-1.359
		c-0.482-0.354-1.181-0.039-1.589,0.398c-0.698,0.749-0.984,1.783-1.209,2.783c-0.511,2.273-0.832,4.592-0.956,6.919"/>
	<path fill="#CCC8B6" d="M60.207,122.355c2.146-2.629,3.45-5.935,3.678-9.319c0.033-0.492,0.007-1.068-0.391-1.359
		c-0.482-0.354-1.18-0.038-1.588,0.398c-0.699,0.749-0.984,1.784-1.208,2.782c-0.512,2.274-0.832,4.592-0.957,6.92"/>
	<path fill="#CCC8B6" d="M65.032,131.689c2.145-2.629,3.449-5.934,3.678-9.317c0.033-0.492,0.006-1.067-0.391-1.36
		c-0.483-0.353-1.181-0.037-1.589,0.399c-0.698,0.749-0.984,1.784-1.208,2.784c-0.511,2.272-0.832,4.59-0.956,6.918"/>
</g>
<g>
	<g>
		<path fill="#CCC8B6" d="M147.479,137.889c5.006,0.424,10.149-0.061,15.071-0.996c5.025-0.957,9.938-2.474,14.623-4.523
			c2.568-1.125,5.313-2.404,7.113-4.63c0.253-0.313-0.17-0.681-0.459-0.413c-3.718,3.441-8.749,5.285-13.502,6.814
			c-4.72,1.521-9.603,2.514-14.539,2.961c-2.759,0.246-5.511,0.263-8.274,0.254C147.21,137.354,147.17,137.861,147.479,137.889
			L147.479,137.889z"/>
	</g>
	<path fill="#CCC8B6" d="M179.059,131.424c1.121-1.213,2.246-2.427,3.368-3.638c0.95-1.025,2.052-2.123,3.448-2.181
		c0.121-0.004,0.253,0.002,0.343,0.086c0.132,0.119,0.104,0.33,0.056,0.502c-0.403,1.365-1.569,2.394-2.844,3.025
		c-1.277,0.635-3.089,1.695-4.449,2.115"/>
	<path fill="#CCC8B6" d="M173.055,134.011c2.025,1.325,4.469,2.005,6.887,1.914c0.351-0.013,0.759-0.075,0.936-0.378
		c0.216-0.369-0.059-0.842-0.4-1.099c-0.582-0.438-1.338-0.564-2.065-0.65c-1.649-0.192-3.318-0.246-4.978-0.161"/>
	<path fill="#CCC8B6" d="M166.508,135.966c2.12,1.388,4.678,2.101,7.208,2.005c0.368-0.015,0.796-0.078,0.979-0.396
		c0.225-0.387-0.065-0.879-0.42-1.148c-0.61-0.46-1.403-0.591-2.162-0.681c-1.729-0.202-3.475-0.259-5.213-0.171"/>
	<path fill="#CCC8B6" d="M158.538,137.25c1.567,1.989,3.767,3.477,6.196,4.191c0.353,0.104,0.774,0.179,1.054-0.063
		c0.337-0.297,0.221-0.855-0.032-1.225c-0.433-0.629-1.141-1.008-1.833-1.332c-1.573-0.742-3.211-1.352-4.888-1.819"/>
	<path fill="#CCC8B6" d="M176.512,132.137c0.54-2.082,1.739-3.99,3.385-5.377c0.24-0.201,0.545-0.402,0.844-0.31
		c0.361,0.112,0.463,0.589,0.393,0.962c-0.121,0.638-0.543,1.173-0.97,1.661c-0.972,1.114-2.036,2.147-3.181,3.086"/>
	<path fill="#CCC8B6" d="M170.238,134.295c0.646-2.486,2.078-4.764,4.041-6.42c0.285-0.241,0.65-0.482,1.006-0.369
		c0.433,0.135,0.553,0.703,0.469,1.146c-0.145,0.763-0.646,1.4-1.158,1.986c-1.158,1.33-2.429,2.563-3.796,3.682"/>
	<path fill="#CCC8B6" d="M163.074,136.048c0.646-2.485,2.078-4.764,4.042-6.419c0.284-0.242,0.649-0.482,1.005-0.371
		c0.434,0.137,0.553,0.703,0.469,1.148c-0.145,0.762-0.646,1.398-1.156,1.984c-1.16,1.33-2.433,2.563-3.795,3.684"/>
	<path fill="#CCC8B6" d="M155.215,137.285c0.643-2.488,2.078-4.764,4.042-6.42c0.283-0.24,0.647-0.482,1.004-0.371
		c0.433,0.137,0.554,0.704,0.468,1.148c-0.145,0.763-0.648,1.399-1.158,1.985c-1.158,1.33-2.428,2.563-3.793,3.683"/>
</g>
<circle fill="#FFFFFF" cx="150.836" cy="52.159" r="3.386"/>
<circle fill="#F6B225" cx="136.131" cy="90.787" r="1.675"/>
<circle fill="#47607F" cx="38.344" cy="94.734" r="3.386"/>
<circle fill="#FFFFFF" cx="28.642" cy="114.708" r="1.797"/>
<circle fill="#A3B3D6" cx="48.963" cy="87.622" r="2.28"/>
<circle fill="#333D4A" cx="149.438" cy="76.245" r="2.106"/>
<circle fill="#47607F" cx="180.012" cy="114.993" r="3.388"/>
<circle fill="#A3B3D6" cx="22.018" cy="133.877" r="1.676"/>
<circle fill="#FFFFFF" cx="166.09" cy="122.86" r="1.675"/>
<circle fill="#E6E6E5" cx="184.646" cy="133.362" r="1.676"/>
<circle fill="#333D4A" cx="21.006" cy="90.607" r="1.675"/>
<circle fill="#E6E6E5" cx="160.831" cy="116.996" r="1.675"/>
<path fill="#455E7C" d="M143.883,55.385v107.639H63.266V55.385c0-2.816,2.286-5.097,5.102-5.097h70.414
	C141.598,50.288,143.883,52.569,143.883,55.385z"/>
<path fill="#3B5268" d="M143.883,55.385v107.639h-3.799V58.676c0-2.816-2.285-5.098-5.102-5.098H64.569
	c-0.347,0-0.685,0.035-1.009,0.101c0.702-1.979,2.592-3.391,4.808-3.391h70.414C141.598,50.288,143.883,52.569,143.883,55.385z"/>
<rect x="69.748" y="58.243" fill="#FFFFFF" width="67.654" height="93.827"/>
<rect x="72.016" y="60.575" opacity="0.1822" fill="#DBDDDC" enable-background="new    " width="63.118" height="34.284"/>
<rect x="71.941" y="60.437" fill="none" stroke="#DBDDDC" stroke-width="1.0706" stroke-miterlimit="10" width="63.267" height="89.439"/>
<path fill="#E6E6E5" d="M121.573,49.779v7.479H85.576v-7.479c0-1.847,1.496-3.339,3.338-3.339h29.32
	C120.076,46.44,121.573,47.933,121.573,49.779z"/>
<circle fill="#8BBCE5" cx="103.574" cy="45.82" r="4.05"/>
<circle fill="#E2E1F1" cx="103.575" cy="45.82" r="1.69"/>
<path fill="#A3B3D6" d="M121.573,51.188v6.071H85.576v-6.333c0.504,0.258,1.009,0.579,1.316,0.689
	c1.185,0.425,2.417,0.741,3.649,0.986c2.782,0.544,5.628,0.657,8.458,0.768c3.696,0.143,7.515,0.111,11.239-0.258
	C114.072,52.73,117.771,51.734,121.573,51.188z"/>
<path opacity="0.5" fill="#455E7C" enable-background="new    " d="M126.564,59.622H80.789c-0.968,0-1.752-0.785-1.752-1.752v-0.247
	c0-0.968,0.784-1.752,1.752-1.752h45.775c0.967,0,1.752,0.784,1.752,1.752v0.247C128.316,58.837,127.531,59.622,126.564,59.622z"/>
<path fill="#DBDDDC" d="M84.871,108.566h-3.272c-0.988,0-1.788-0.801-1.788-1.787v-3.272c0-0.987,0.8-1.789,1.788-1.789h3.272
	c0.987,0,1.787,0.802,1.787,1.789v3.272C86.658,107.768,85.858,108.566,84.871,108.566z"/>
<path fill="#DBDDDC" d="M84.871,118.869h-3.272c-0.988,0-1.788-0.801-1.788-1.788v-3.272c0-0.988,0.8-1.787,1.788-1.787h3.272
	c0.987,0,1.787,0.799,1.787,1.787v3.272C86.658,118.068,85.858,118.869,84.871,118.869z"/>
<path fill="#DBDDDC" d="M84.871,129.171h-3.272c-0.988,0-1.788-0.802-1.788-1.788v-3.271c0-0.987,0.8-1.789,1.788-1.789h3.272
	c0.987,0,1.787,0.802,1.787,1.789v3.271C86.658,128.369,85.858,129.171,84.871,129.171z"/>
<path fill="#DBDDDC" d="M126.711,104.232h-35.81c-0.347,0-0.627-0.281-0.627-0.629v-0.088c0-0.346,0.28-0.627,0.627-0.627h35.81
	c0.348,0,0.626,0.281,0.626,0.627v0.088C127.337,103.951,127.059,104.232,126.711,104.232z"/>
<path fill="#DBDDDC" d="M126.711,107.639h-35.81c-0.347,0-0.627-0.281-0.627-0.627v-0.088c0-0.348,0.28-0.627,0.627-0.627h35.81
	c0.348,0,0.626,0.279,0.626,0.627v0.088C127.337,107.357,127.059,107.639,126.711,107.639z"/>
<path fill="#DBDDDC" d="M126.711,114.811h-35.81c-0.347,0-0.627-0.28-0.627-0.627v-0.089c0-0.347,0.28-0.627,0.627-0.627h35.81
	c0.348,0,0.626,0.28,0.626,0.627v0.089C127.337,114.529,127.059,114.811,126.711,114.811z"/>
<path fill="#DBDDDC" d="M126.711,118.217h-35.81c-0.347,0-0.627-0.281-0.627-0.628v-0.087c0-0.346,0.28-0.628,0.627-0.628h35.81
	c0.348,0,0.626,0.282,0.626,0.628v0.087C127.337,117.936,127.059,118.217,126.711,118.217z"/>
<path fill="#DBDDDC" d="M126.711,125.389h-35.81c-0.347,0-0.627-0.281-0.627-0.627v-0.089c0-0.347,0.28-0.626,0.627-0.626h35.81
	c0.348,0,0.626,0.279,0.626,0.626v0.089C127.337,125.107,127.059,125.389,126.711,125.389z"/>
<path fill="#DBDDDC" d="M126.711,128.795h-35.81c-0.347,0-0.627-0.279-0.627-0.626v-0.089c0-0.348,0.28-0.628,0.627-0.628h35.81
	c0.348,0,0.626,0.28,0.626,0.628v0.089C127.337,128.516,127.059,128.795,126.711,128.795z"/>
<polyline fill="none" stroke="#90BA3E" stroke-width="2" stroke-linecap="round" stroke-linejoin="round" stroke-miterlimit="10" points="
	79.841,102.783 83.589,106.166 91.451,97.023 "/>
<polyline fill="none" stroke="#90BA3E" stroke-width="2" stroke-linecap="round" stroke-linejoin="round" stroke-miterlimit="10" points="
	79.841,112.875 83.589,116.257 91.451,107.116 "/>
<polyline fill="none" stroke="#90BA3E" stroke-width="2" stroke-linecap="round" stroke-linejoin="round" stroke-miterlimit="10" points="
	79.841,122.967 83.589,126.348 91.451,117.207 "/>
<g>
	<path fill="#E29266" d="M91.078,143.354c0.582-0.525,1.254-1.055,2.042-1.064c0.489,0,0.954,0.197,1.41,0.375
		c4.342,1.679,8.207,2.063,12.789,1.91c3.255-0.107,7.606,0.54,10.158,2.783c0.276,0.25,0.545,0.522,0.758,0.832
		c0.509,0.761,0.638,1.744,0.412,2.633c-0.019,0.085-0.037,0.166-0.065,0.246c-0.194,0.586-0.539,1.121-0.979,1.561
		c-0.189,0.188-0.516,0.342-0.67,0.546c-0.207,0.287-0.18,0.191,0.076,0.356c0.497,0.328,1.085,0.404,1.563,0.828
		c0.391,0.349,0.699,0.785,0.854,1.291c0.563,1.854-0.547,3.416-1.68,3.642c1.151,0.06,2.472,1.086,2.688,2.343
		c0.172,0.996-0.445,2.229-1.222,2.842c-0.586,0.463-1.638,0.424-1.772,0.994c-0.133,0.557,0.932,1.133,0.675,1.881
		c-0.339,0.984-2.607,1.518-3.474,1.73c-4.832,1.203-8.582-2.014-13.105-4.094c-2.947-1.355-4.436-2.244-7.016-4.209
		c-2.396-1.827-7.452-1.971-9.805-3.854c-2.15-1.72-0.763-3.521,0.383-5.75c0.038-0.084,0.079-0.164,0.123-0.248
		c0.31-0.594,0.642-1.169,0.993-1.736C87.555,147.031,89.193,145.057,91.078,143.354z"/>
</g>
<g>
	<path fill="#B4B4B4" d="M94.068,143.49c-0.017,0.294-0.118,0.585-0.219,0.863c-0.513,1.467-1.096,2.883-1.728,4.269
		c-0.733,1.61-1.532,3.181-2.365,4.733c-0.935,1.75-1.917,3.482-2.9,5.229c-0.245,0.435-0.513,0.896-0.96,1.118
		c-0.531,0.268-1.167,0.137-1.742,0c-0.61-0.148-1.22-0.293-1.82-0.436c-0.535-0.127-1.066-0.267-1.597-0.414
		c-5.869-1.625-11.388-4.305-17.046-6.563c-4.417-1.765-8.834-3.549-13.212-5.408c-0.776-0.334-1.355-0.974-1.615-1.733
		c-0.166-0.481-0.21-1.008-0.104-1.534c0.71-3.47,2.202-8.265,5.338-13.222c1.193-1.891,2.628-3.808,4.351-5.686
		c0.909-0.995,2.374-1.241,3.559-0.605c0.487,0.264,0.974,0.53,1.46,0.795c6.488,3.514,12.984,7.01,19.384,10.687
		c2.351,1.354,4.702,2.724,6.993,4.185c0.465,0.295,0.921,0.588,1.377,0.891C92.418,141.441,94.152,142.057,94.068,143.49z"/>
</g>
<g>
	<path fill="#EFBA92" d="M116.465,164.318c0,0-0.525,0.213-1.336,0.354c-0.809,0.159-1.896,0.238-2.986,0.199
		c-0.543-0.037-1.09-0.094-1.596-0.172c-0.508-0.104-0.977-0.221-1.37-0.342c-0.79-0.293-1.265-0.584-1.265-0.584
		s0.574-0.058,1.363-0.022c0.406-0.019,0.869-0.017,1.361,0.011c0.5-0.014,1.024,0.026,1.555,0.041
		c0.529,0.022,1.059,0.063,1.557,0.104c0.499,0.04,0.966,0.098,1.367,0.153C115.918,164.173,116.465,164.318,116.465,164.318z"/>
</g>
<g>
	<path fill="#EFBA92" d="M116.245,158.992c0,0-0.586,0.174-1.468,0.255c-0.441,0.047-0.959,0.077-1.512,0.087
		c-0.555,0.027-1.142-0.038-1.729-0.078c-0.586-0.066-1.174-0.13-1.717-0.229c-0.272-0.041-0.534-0.139-0.781-0.207
		c-0.248-0.069-0.479-0.147-0.689-0.223c-0.851-0.289-1.375-0.568-1.375-0.568s0.623-0.066,1.494-0.034
		c0.438,0.007,0.936,0.057,1.471,0.098c0.545,0.007,1.121,0.054,1.697,0.099c1.146,0.136,2.297,0.262,3.161,0.445
		C115.663,158.809,116.245,158.992,116.245,158.992z"/>
</g>
<g>
	<path fill="#EFBA92" d="M115.627,153.438c0,0-0.54,0.182-1.355,0.269c-0.41,0.051-0.889,0.086-1.401,0.101
		c-0.515,0.032-1.058-0.037-1.603-0.068c-0.543-0.063-1.088-0.122-1.591-0.217c-0.505-0.131-0.97-0.278-1.358-0.424
		c-0.784-0.277-1.266-0.553-1.266-0.553s0.58-0.072,1.387-0.049c0.406,0.006,0.869,0.036,1.359,0.091
		c0.504,0.002,1.035,0.046,1.567,0.085c0.53,0.066,1.06,0.133,1.557,0.195c0.498,0.061,0.964,0.14,1.363,0.229
		C115.086,153.261,115.627,153.438,115.627,153.438z"/>
</g>
<g>
	<path fill="#EDEDED" d="M94.068,143.49c-0.017,0.294-0.118,0.585-0.219,0.863c-0.513,1.467-1.096,2.883-1.728,4.269
		c-0.733,1.61-1.532,3.181-2.365,4.733c-0.935,1.75-1.917,3.482-2.9,5.229c-0.245,0.435-0.513,0.896-0.96,1.118
		c-0.531,0.268-1.167,0.137-1.742,0c-0.61-0.148-1.22-0.293-1.82-0.436c-0.535-0.127-1.066-0.267-1.597-0.414
		c2.768-4.354,7.313-13.965,9.107-19.088c0.465,0.295,0.921,0.588,1.377,0.891C92.418,141.441,94.152,142.057,94.068,143.49z"/>
</g>
<path fill="#494741" d="M89.757,153.355c-0.935,1.75-1.917,3.482-2.9,5.229c-0.245,0.435-0.513,0.896-0.96,1.118
	c-0.531,0.268-1.167,0.137-1.742,0c-0.61-0.148-1.22-0.293-1.82-0.436c-6.475-1.553-12.476-4.519-18.643-6.979
	c-4.417-1.764-8.834-3.549-13.212-5.408c-0.776-0.334-1.355-0.974-1.615-1.732c-0.166-0.482-0.21-1.01-0.104-1.535
	c0.71-3.471,2.202-8.266,5.338-13.223C59.068,136.011,73.956,151.369,89.757,153.355z"/>
<g>
	<path fill="#EFBA92" d="M125.88,160.275c-3.253,0.291-6.471,1.474-8.979,3.572c-2.446,2.051-4.375,4.639-6.779,6.733
		c-1.061,0.921-2.475,1.785-3.787,1.293c-0.707-0.267-1.249-0.927-1.368-1.672c-0.136-0.847,0.818-2.104,0.818-2.104
		s-1.062,0.383-1.591,0.584c-0.436,0.164-0.875,0.332-1.336,0.396s-0.95,0.021-1.354-0.214c-0.484-0.284-0.788-0.82-0.876-1.375
		c-0.069-0.429,0.216-2.05,0.216-2.05s-0.872,0.403-1.166,0.59c-0.565,0.355-1.239,0.582-1.903,0.496
		c-0.663-0.086-1.301-0.532-1.491-1.174c-0.09-0.303-0.078-0.627-0.041-0.939c0.124-1.051,0.6-2.543,1.397-3.282
		c-0.43,0.397-0.872,0.599-1.292,1.048c-0.437,0.469-0.92,0.907-1.527,1.145c-2.038,0.789-2.744-1.057-2.288-2.653
		c0.603-2.112,1.386-3.851,2.861-5.521c1.489-1.687,3.271-3.084,4.917-4.615c1.126-1.049,2.193-2.163,3.4-3.114
		c5.525-4.353,13.93-4.819,20.657-4.194c0.063-0.136,0.223-0.254,0.381-0.231c0.188,0.026,0.339,0.161,0.455,0.317
		c0.421,0.045,0.849,0.099,1.276,0.154l-1.152,0.026c0.009,0.01,0.018,0.022,0.021,0.03c1.01,1.637,1.82,3.393,2.422,5.215
		c0.031,0.08,0.057,0.158,0.082,0.242c0.19,0.584,0.354,1.172,0.498,1.768c0.502,2.081,2.029,7.906-0.593,9.173
		C127.182,160.197,126.521,160.218,125.88,160.275z"/>
</g>
<g>
	<path fill="#FFFFFF" d="M166.57,147.598c0.07,1.34-0.78,2.562-2.066,2.955c-0.529,0.162-1.061,0.325-1.592,0.487
		c-7.055,2.153-14.107,4.329-21.212,6.308c-3.147,0.872-6.302,1.726-9.494,2.404c-1.399,0.303-3.054,1.105-4.015,0.039
		c-0.197-0.221-0.332-0.495-0.465-0.764c-0.68-1.396-1.281-2.803-1.824-4.229c-1.342-3.505-2.355-7.093-3.403-10.737
		c-0.138-0.479-0.278-0.996-0.124-1.471c0.182-0.564,0.725-0.925,1.225-1.24c0.532-0.328,1.063-0.662,1.588-0.99
		c5.646-3.523,11.972-5.719,18.051-8.383c4.357-1.914,8.729-3.806,13.125-5.619c0.785-0.321,1.646-0.281,2.369,0.063
		c0.459,0.22,0.869,0.558,1.166,1.005C162.628,131.488,166.109,138.389,166.57,147.598z"/>
</g>
<path opacity="0.4342" fill="#045683" enable-background="new    " d="M166.57,147.598c0.07,1.34-0.78,2.562-2.066,2.955
	c-0.529,0.162-1.061,0.325-1.592,0.487c-7.055,2.153-14.107,4.329-21.212,6.308c-3.147,0.872-6.302,1.726-9.494,2.404
	c-1.399,0.303-3.054,1.105-4.015,0.039c-0.197-0.221-0.332-0.495-0.465-0.764c-0.68-1.396-1.281-2.803-1.824-4.229
	c0.315-0.366,0.654-0.706,1.014-1.017c1.902-1.643,4.279-2.604,6.553-3.682c7.905-3.755,14.977-9.26,20.557-16.002
	c1.914-2.315,3.019-5.707,4.707-7.678c0.459,0.221,0.869,0.557,1.166,1.005C162.628,131.488,166.109,138.389,166.57,147.598z"/>
<g>
	<circle fill="#057DA4" cx="135.486" cy="154.499" r="1.463"/>
	<circle fill="#057DA4" cx="140.173" cy="153.264" r="1.462"/>
	<circle opacity="0.4342" fill="#045683" enable-background="new    " cx="140.172" cy="153.27" r="0.897"/>
	<circle opacity="0.4342" fill="#045683" enable-background="new    " cx="135.42" cy="154.513" r="0.896"/>
</g>
<g>
	<path fill="#EFBA92" d="M97.638,161.131c0,0,0.218-0.523,0.686-1.199c0.454-0.688,1.161-1.519,1.954-2.269
		c0.41-0.361,0.832-0.711,1.244-1.017c0.43-0.289,0.842-0.541,1.205-0.736c0.764-0.355,1.303-0.491,1.303-0.491
		s-0.362,0.45-0.94,0.988c-0.271,0.301-0.599,0.63-0.962,0.963c-0.342,0.364-0.738,0.711-1.121,1.078
		c-0.388,0.36-0.788,0.709-1.166,1.036c-0.378,0.326-0.747,0.619-1.069,0.865C98.125,160.843,97.638,161.131,97.638,161.131z"/>
</g>
<g>
	<path fill="#EFBA92" d="M100.777,165.521c0,0,0.205-0.58,0.668-1.35c0.222-0.391,0.511-0.824,0.845-1.271
		c0.319-0.459,0.726-0.896,1.116-1.346c0.408-0.434,0.855-0.838,1.277-1.203c0.207-0.189,0.446-0.336,0.655-0.487
		c0.21-0.151,0.417-0.284,0.606-0.404c0.186-0.127,0.395-0.199,0.561-0.278c0.169-0.08,0.32-0.138,0.443-0.187
		c0.246-0.097,0.39-0.14,0.39-0.14s-0.099,0.123-0.274,0.318c-0.09,0.094-0.196,0.209-0.32,0.34
		c-0.121,0.135-0.271,0.258-0.413,0.426c-0.281,0.343-0.63,0.701-0.998,1.096c-0.349,0.421-0.765,0.814-1.146,1.252
		c-0.403,0.417-0.807,0.835-1.186,1.227c-0.385,0.389-0.756,0.742-1.081,1.043C101.271,165.154,100.777,165.521,100.777,165.521z"/>
</g>
<g>
	<path fill="#EFBA92" d="M105.697,168.141c0,0,0.141-0.541,0.521-1.256c0.179-0.363,0.425-0.764,0.708-1.179
		c0.271-0.427,0.635-0.824,0.973-1.241c0.373-0.39,0.765-0.766,1.146-1.096c0.409-0.311,0.805-0.579,1.15-0.79
		c0.75-0.37,1.275-0.509,1.275-0.509s-0.349,0.455-0.895,0.99c-0.248,0.31-0.547,0.647-0.881,0.988
		c-0.303,0.381-0.663,0.745-1.004,1.133c-0.342,0.387-0.702,0.758-1.034,1.115c-0.335,0.355-0.664,0.676-0.948,0.952
		C106.137,167.799,105.697,168.141,105.697,168.141z"/>
</g>
<g opacity="0.4342">
	<g>
		<path fill="#045683" d="M127.313,142.564c0.506,4.718,1.957,9.66,4.66,13.611c0.223,0.325,0.7,0.047,0.526-0.309
			c-2.14-4.361-3.937-8.557-4.94-13.336C127.529,142.395,127.298,142.424,127.313,142.564L127.313,142.564z"/>
	</g>
</g>
<path opacity="0.2077" fill="#3E3E3E" enable-background="new    " d="M117.632,144.374c0.606,0.13,1.257,0.304,1.632,0.794
	c0.578,0.757,0.182,1.928-0.58,2.501c-0.76,0.571-1.752,0.705-2.697,0.817c-3.913,0.471-7.852,0.93-11.799,0.802
	c-2-0.063-3.969-0.31-5.926-0.713c-0.597-0.123-1.707-0.232-2.045-0.853c-0.373-0.681,0.401-1.383,0.887-1.768
	c1.893-1.498,4.081-2.658,6.437-3.182c1.178-0.26,2.392-0.355,3.594-0.268c1.2,0.09,2.255,0.586,3.41,0.766
	C112.904,143.641,115.271,143.864,117.632,144.374z"/>
<path fill="#E29266" d="M117.01,143.066c0.611,0.082,1.274,0.205,1.688,0.664c0.636,0.707,0.333,1.908-0.38,2.539
	c-0.715,0.631-1.694,0.84-2.629,1.027c-3.862,0.776-7.75,1.545-11.698,1.729c-1.996,0.094-3.979,0.004-5.962-0.243
	c-0.604-0.076-1.722-0.099-2.107-0.688c-0.425-0.648,0.291-1.408,0.746-1.83c1.769-1.645,3.857-2.973,6.167-3.679
	c1.151-0.354,2.356-0.545,3.562-0.55c1.203-0.006,2.293,0.406,3.457,0.494C112.238,142.708,114.617,142.745,117.01,143.066z"/>
<path opacity="0.6674" fill="#045683" enable-background="new    " d="M130.008,140.389c-0.535,0.533-1.048,1.381-0.593,1.984
	c0.25,0.329,0.698,0.429,1.11,0.451c1.1,0.062,2.184-0.251,3.232-0.588c3.371-1.084,6.655-2.432,9.813-4.033
	c1.312-0.665,4.813-2.488,3.83-4.486c-0.949-1.931-3.914-0.142-5.18,0.348C137.957,135.709,133.334,137.078,130.008,140.389z"/>
<path fill="#9E9C8D" d="M65.494,132.768c-0.747-0.121-1.733-0.037-1.954,0.687c-0.121,0.396,0.063,0.817,0.286,1.164
	c0.596,0.927,1.486,1.618,2.375,2.271c2.855,2.094,5.877,3.961,9.028,5.574c1.308,0.672,4.841,2.436,5.88,0.467
	c1.004-1.902-2.184-3.25-3.323-3.988C73.951,136.451,70.126,133.518,65.494,132.768z"/>
<path fill="#E29266" d="M121.365,163.677c0.322,0.628,0.703,1.265,1.326,1.677c0.625,0.412,1.557,0.533,2.168,0.107
	c0.722-0.503,0.695-1.468,0.539-2.271c-0.306-1.555-0.851-3.073-1.613-4.5c-0.355-0.664-0.852-1.373-1.657-1.547
	c-1.515-0.324-2.599,1.273-2.438,2.438C119.87,160.898,120.749,162.477,121.365,163.677z"/>
<path fill="#E29266" d="M117.818,165.719c0.324,0.708,0.703,1.426,1.328,1.891s1.555,0.603,2.168,0.121
	c0.722-0.567,0.694-1.655,0.537-2.561c-0.304-1.754-0.849-3.465-1.613-5.072c-0.356-0.75-0.85-1.549-1.657-1.744
	c-1.513-0.367-2.599,1.438-2.438,2.748C116.325,162.588,117.202,164.365,117.818,165.719z"/>
<path fill="#E29266" d="M114.465,167.407c0.293,0.638,0.635,1.284,1.198,1.704c0.562,0.421,1.403,0.545,1.954,0.111
	c0.652-0.514,0.629-1.494,0.484-2.312c-0.271-1.582-0.764-3.127-1.455-4.577c-0.321-0.677-0.768-1.396-1.494-1.575
	c-1.366-0.329-2.344,1.298-2.2,2.481C113.116,164.582,113.908,166.186,114.465,167.407z"/>
<path fill="#E29266" d="M112.046,170.879c0.146,0.194,0.319,0.348,0.533,0.423c0.278,0.101,0.588,0.103,0.886,0.084
	c0.363-0.019,0.733-0.069,1.051-0.245c0.404-0.222,0.688-0.629,0.805-1.072c0.359-1.344-0.529-3.076-1.094-4.262
	c-0.322-0.675-0.768-1.396-1.494-1.572c-1.366-0.33-2.346,1.296-2.2,2.479c0.108,0.885,0.436,1.734,0.782,2.549
	C111.506,169.713,111.697,170.415,112.046,170.879z"/>
<text transform="matrix(1 0 0 1 82.3511 81.8184)" fill="#010101" font-family="'Tahoma'" font-size="9">Agreement</text>
</svg>
