<?xml version="1.0" encoding="utf-8"?>
<!-- Generator: Adobe Illustrator 16.0.0, SVG Export Plug-In . SVG Version: 6.00 Build 0)  -->
<!DOCTYPE svg PUBLIC "-//W3C//DTD SVG 1.1//EN" "http://www.w3.org/Graphics/SVG/1.1/DTD/svg11.dtd">
<svg version="1.1" id="Layer_1" xmlns="http://www.w3.org/2000/svg" xmlns:xlink="http://www.w3.org/1999/xlink" x="0px" y="0px"
	 width="165.5px" height="187.5px" viewBox="0 0 165.5 187.5" enable-background="new 0 0 165.5 187.5" xml:space="preserve">
<path opacity="0.7" fill="#8E8E8E" enable-background="new    " d="M99.139,152.672H11.713c-2.685,0-4.862-2.176-4.862-4.863V14.135
	c0-2.686,2.177-4.862,4.862-4.862h87.426c2.685,0,4.86,2.177,4.86,4.862v133.674C104,150.496,101.823,152.672,99.139,152.672z"/>
<path fill="#B0D7EE" d="M103.709,148.451H16.285c-2.686,0-4.862-2.176-4.862-4.861V9.915c0-2.685,2.176-4.861,4.862-4.861h87.424
	c2.686,0,4.861,2.177,4.861,4.861V143.59C108.57,146.275,106.395,148.451,103.709,148.451z"/>
<rect x="40.73" y="6.226" opacity="0.4342" fill="#045683" enable-background="new    " width="39.651" height="8.315"/>
<rect x="15.49" y="15.977" fill="#FFFFFF" width="89.015" height="126.433"/>
<rect x="40.73" y="10.256" opacity="0.65" fill="#4C4CA0" enable-background="new    " width="39.651" height="0.941"/>
<path fill="none" stroke="#EAEAF6" stroke-width="2.0638" stroke-miterlimit="10" d="M80.373,20.351H40.739
	c-1.707,0-3.09-1.383-3.09-3.09v-4.088c0-1.707,1.383-3.091,3.09-3.091h39.634c1.706,0,3.09,1.384,3.09,3.091v4.088
	C83.463,18.968,82.079,20.351,80.373,20.351z"/>
<rect x="40.519" y="9.612" opacity="0.42" fill="#4C4CA0" enable-background="new    " width="39.653" height="0.94"/>
<rect x="28.183" y="57.893" fill="#A3B3D6" width="16.127" height="1.594"/>
<g>
	<rect x="28.183" y="62.265" fill="#EAEAF6" width="44.361" height="1.594"/>
	<rect x="28.183" y="65.738" fill="#EAEAF6" width="44.361" height="1.594"/>
	<rect x="28.183" y="69.209" fill="#EAEAF6" width="25.524" height="1.594"/>
</g>
<rect x="28.183" y="35.761" fill="#A3B3D6" width="16.127" height="1.594"/>
<g>
	<rect x="28.183" y="40.601" fill="#EAEAF6" width="44.361" height="1.593"/>
	<rect x="28.183" y="44.073" fill="#EAEAF6" width="44.361" height="1.594"/>
	<rect x="28.183" y="47.544" fill="#EAEAF6" width="25.524" height="1.594"/>
</g>
<rect x="75.277" y="35.995" fill="none" stroke="#EAEAF6" stroke-width="1.0319" stroke-miterlimit="10" width="15.254" height="15.254"/>
<rect x="75.113" y="58.126" fill="none" stroke="#EAEAF6" stroke-width="1.0319" stroke-miterlimit="10" width="15.253" height="15.254"/>
<rect x="31.606" y="123.709" fill="#EAEAF6" width="53.389" height="4.283"/>
<rect x="49.905" y="123.709" fill="#678EB5" width="35.09" height="4.283"/>
<rect x="31.606" y="111.406" fill="#EAEAF6" width="53.389" height="4.283"/>
<rect x="68.127" y="111.406" fill="#678EB5" width="16.868" height="4.283"/>
<polygon fill="#47607F" points="35.726,89.474 36.999,92.054 39.845,92.467 37.786,94.475 38.272,97.309 35.726,95.971 
	33.181,97.309 33.667,94.475 31.607,92.467 34.453,92.054 "/>
<polygon fill="#47607F" points="47.161,89.474 48.434,92.054 51.279,92.467 49.22,94.475 49.707,97.309 47.161,95.971 
	44.615,97.309 45.102,94.475 43.042,92.467 45.888,92.054 "/>
<polygon fill="#47607F" points="58.595,89.474 59.868,92.054 62.714,92.467 60.654,94.475 61.14,97.309 58.595,95.971 
	56.049,97.309 56.535,94.475 54.476,92.467 57.322,92.054 "/>
<polygon fill="#EAEAF6" points="70.029,89.474 71.302,92.054 74.148,92.467 72.088,94.475 72.575,97.309 70.029,95.971 
	67.484,97.309 67.969,94.475 65.91,92.467 68.757,92.054 "/>
<polygon fill="#EAEAF6" points="81.463,89.474 82.736,92.054 85.582,92.467 83.523,94.475 84.01,97.309 81.463,95.971 
	78.918,97.309 79.405,94.475 77.344,92.467 80.191,92.054 "/>
<path fill="#191921" d="M137.861,131.781l-2.928,1.756l-8.129-22.715c-0.047-0.133-0.099-0.262-0.147-0.393l-8.273-25.792
	c-1.489-4.647-4.702-8.437-9.042-10.668c-0.725-0.372-1.466-0.688-2.22-0.959l34.021-24.812l-2.541-3.483l-2.541-3.482
	L95.924,70.506l-6.396-1.815c-1.375-0.39-2.78-0.179-3.936,0.475c-0.787,0.36-1.475,0.913-2,1.629l-7.441,10.14
	c-0.77,1.05-1.103,2.323-0.959,3.609c-0.541,0.561-0.937,1.222-1.176,1.941l-1.251,0.911l-0.004,0.008l-2.933,5.386l-1.515,2.78
	c-0.068,0.123-0.037,0.271,0.044,0.377c0.078,0.102,0.201,0.167,0.333,0.143l3.107-0.586l6.041-1.137l1.52-1.107
	c0.533,0,1.468,0,2.502,0l-2.452,0.785c-2.702,0.868-4.196,3.771-3.329,6.475c0.42,1.309,1.324,2.377,2.547,3.006
	c0.326,0.166,0.665,0.291,1.01,0.387c-0.23,0.902-0.221,1.875,0.083,2.824c0.553,1.723,1.932,2.949,3.559,3.393
	c-0.229,0.902-0.219,1.875,0.084,2.824c0.699,2.182,2.729,3.576,4.906,3.576c0.401,0,0.811-0.051,1.217-0.148l10.926,1.301
	c0.142,0.744,0.337,1.49,0.597,2.229l10.013,27.978l-2.016,1.209l7.186,34.52l40.5-0.002L137.861,131.781z M97.223,83.447
	c-0.662-0.31-1.396-0.488-2.174-0.488c-0.003,0-0.004,0-0.005,0H93.48l2.412-1.76l0.668,0.189L97.223,83.447z"/>
<path fill="#EFC7B1" d="M143.396,171.328v-23.006l-13.422-37.5c-2.567-7.291-10.158-11.285-16.918-8.904l-1.277,0.451
	c-6.76,2.383-10.17,10.252-7.603,17.541l18.4,51.418H143.396z"/>
<path fill="#D8B4A3" d="M111.684,118.648l-20.336-2.424l-7.186-22.398l18.395-5.9L111.684,118.648z"/>
<path fill="#EFC7B1" d="M84.145,104.098c-0.807,0-1.607-0.19-2.348-0.572c-1.222-0.629-2.127-1.696-2.547-3.006
	c-0.867-2.703,0.627-5.605,3.329-6.474l3.325-1.066c2.703-0.867,5.607,0.627,6.475,3.329c0.866,2.705-0.626,5.608-3.328,6.474
	l-3.326,1.067C85.206,104.016,84.674,104.098,84.145,104.098z"/>
<path fill="#EFC7B1" d="M87.795,110.313c-2.178,0-4.206-1.395-4.905-3.576c-0.866-2.702,0.625-5.604,3.331-6.473l3.324-1.065
	c1.311-0.421,2.704-0.308,3.928,0.323c1.223,0.627,2.125,1.695,2.547,3.006c0.42,1.308,0.305,2.701-0.324,3.925
	c-0.629,1.223-1.696,2.129-3.006,2.549l-3.326,1.065C88.843,110.232,88.314,110.313,87.795,110.313z"/>
<path fill="#EFC7B1" d="M91.438,116.529c-2.178,0-4.205-1.396-4.904-3.576c-0.866-2.703,0.627-5.607,3.328-6.473l3.326-1.068
	c2.703-0.865,5.607,0.627,6.475,3.33c0.42,1.309,0.305,2.703-0.324,3.926s-1.695,2.127-3.005,2.549l-3.326,1.066
	C92.484,116.449,91.957,116.529,91.438,116.529z"/>
<path fill="#EFC7B1" d="M83.461,89.13c-1.087,0-2.142-0.344-3.034-0.998c-1.109-0.814-1.834-2.011-2.043-3.37
	c-0.208-1.358,0.124-2.717,0.938-3.827l7.442-10.14c0.813-1.109,2.01-1.834,3.367-2.043c1.359-0.207,2.719,0.125,3.826,0.938
	c1.109,0.814,1.835,2.01,2.044,3.369c0.208,1.359-0.125,2.718-0.938,3.827l-7.44,10.141c-0.813,1.107-2.011,1.834-3.369,2.042
	C83.988,89.109,83.725,89.13,83.461,89.13z"/>
<path fill="#EFC7B1" d="M106.54,83.119c-0.472,0-0.946-0.065-1.412-0.197l-15.241-4.326c-2.729-0.776-4.32-3.627-3.546-6.357
	c0.775-2.731,3.626-4.32,6.358-3.546l15.238,4.326c1.324,0.375,2.42,1.243,3.09,2.444c0.67,1.201,0.834,2.591,0.457,3.914l0,0
	c-0.375,1.322-1.243,2.419-2.444,3.089C108.264,82.898,107.407,83.119,106.54,83.119z"/>
<path fill="#EFC7B1" d="M112.205,120.279L97.131,73.282l1.443-0.462c4.648-1.49,9.597-1.083,13.938,1.149
	c4.34,2.232,7.553,6.021,9.043,10.668l8.788,27.4c0.39,1.213-0.28,2.514-1.491,2.902L112.205,120.279z"/>
<path fill="#BFBFBF" d="M74.99,95.143c-0.145-0.392-0.934-0.486-1.204-0.843l-2.259,1.647c0.078,0.102,0.202,0.167,0.333,0.143
	l3.106-0.586C75.013,95.38,75.033,95.258,74.99,95.143z"/>
<path fill="#969696" d="M73.779,94.292c-0.264-0.361-0.109-1.154-0.44-1.412c-0.094-0.074-0.213-0.095-0.341-0.09l-1.516,2.78
	c-0.067,0.123-0.037,0.271,0.044,0.377l2.259-1.647C73.784,94.298,73.78,94.295,73.779,94.292z"/>
<path fill="#B6B7B7" d="M141.771,44.714l-2.541-3.482L75.935,87.397c1.242,0.841,2.298,1.882,3.143,3.044L141.771,44.714z"/>
<path fill="#DEDEDD" d="M81.008,94.368l63.305-46.17l-2.541-3.483L79.078,90.441C79.954,91.646,80.607,92.983,81.008,94.368z"/>
<path fill="#DEDEDD" d="M79.078,90.441L73.786,94.3c0.27,0.355,1.059,0.451,1.204,0.843c0.043,0.115,0.023,0.237-0.023,0.361
	l6.041-1.137C80.607,92.983,79.954,91.646,79.078,90.441z"/>
<path fill="#B6B7B7" d="M75.931,87.405l-2.933,5.386c0.128-0.005,0.247,0.016,0.341,0.09c0.331,0.258,0.176,1.051,0.44,1.412
	c0,0,0.005,0.006,0.007,0.008l5.292-3.859c-0.845-1.162-1.9-2.203-3.143-3.044L75.931,87.405L75.931,87.405z"/>
<path fill="#EFC7B1" d="M117.48,117.33c-2.725,0-5.351-0.904-7.523-2.613l-6.527-5.137c-7.756-6.1-9.104-17.371-3.004-25.125
	l0.652-0.829l24.891,19.58c1.415,1.112,2.313,2.709,2.525,4.498c0.213,1.787-0.281,3.551-1.395,4.965l0,0
	c-2.018,2.563-4.91,4.188-8.147,4.576C118.46,117.301,117.968,117.33,117.48,117.33z"/>
<path opacity="0.3" fill="#46678D" enable-background="new    " d="M97.217,86.839h-0.003l-6.911,0.002l3.662-2.925l4.766,1.354
	l0.66,2.058C98.729,87.018,97.994,86.839,97.217,86.839z"/>
<path fill="#EFC7B1" d="M82.067,93.26c-1.374,0-2.666-0.535-3.638-1.506c-0.973-0.972-1.509-2.265-1.509-3.639
	c-0.002-1.375,0.533-2.668,1.505-3.641c0.971-0.973,2.263-1.509,3.639-1.51l16.152-0.005c0.001,0,0.002,0,0.003,0
	c2.836,0,5.146,2.307,5.146,5.144l0,0c0.002,2.838-2.307,5.149-5.145,5.151l-8.289,0.006H82.067z"/>
<path fill="#F3DED3" d="M83.92,84.019h-1.427c-2.088,0-3.885,1.633-3.917,3.722c-0.034,2.116,1.673,3.842,3.781,3.842h1.563
	c0.501,0,0.906-0.406,0.906-0.906v-5.751C84.826,84.424,84.422,84.019,83.92,84.019z"/>
<polygon fill="#47607F" points="112.174,149.096 141.033,131.781 159.859,183.613 119.359,183.615 "/>
<polyline fill="none" stroke="#90BA3E" stroke-width="2" stroke-linecap="round" stroke-linejoin="round" stroke-miterlimit="10" points="
	76.835,43.865 80.583,47.248 88.445,38.105 "/>
<polyline fill="none" stroke="#90BA3E" stroke-width="2" stroke-linecap="round" stroke-linejoin="round" stroke-miterlimit="10" points="
	76.773,66.415 80.521,69.797 88.383,60.655 "/>
</svg>
