<?xml version="1.0" encoding="utf-8"?>
<!-- Generator: Adobe Illustrator 16.0.0, SVG Export Plug-In . SVG Version: 6.00 Build 0)  -->
<!DOCTYPE svg PUBLIC "-//W3C//DTD SVG 1.1//EN" "http://www.w3.org/Graphics/SVG/1.1/DTD/svg11.dtd">
<svg version="1.1" id="Layer_1" xmlns="http://www.w3.org/2000/svg" xmlns:xlink="http://www.w3.org/1999/xlink" x="0px" y="0px"
	 width="200px" height="200px" viewBox="0 0 200 200" enable-background="new 0 0 200 200" xml:space="preserve">
<path fill="none" d="M60.348,12.385L60.348,12.385c0.057,1.938,0.117,4.022,0.182,6.216C60.469,14.826,60.348,12.385,60.348,12.385z
	"/>
<polygon fill="#EBEBEB" points="7.365,6.51 7.365,172.128 130.071,172.128 130.071,40.036 96.88,6.845 "/>
<polygon fill="#A2A1A1" points="130.071,40.036 96.88,6.845 96.88,40.211 "/>
<polygon fill="#EAEAE9" points="101.251,40.188 130.071,73.341 130.071,40.036 "/>
<rect x="18.985" y="56.687" fill="#DAD7D3" width="82.266" height="3.242"/>
<rect x="18.985" y="65.002" fill="#DAD7D3" width="82.266" height="3.242"/>
<rect x="18.985" y="73.321" fill="#DAD7D3" width="82.266" height="3.238"/>
<rect x="18.985" y="81.637" fill="#DAD7D3" width="82.266" height="3.238"/>
<rect x="18.985" y="89.952" fill="#DAD7D3" width="82.266" height="3.242"/>
<rect x="18.985" y="98.268" fill="#DAD7D3" width="82.266" height="3.239"/>
<rect x="18.985" y="106.586" fill="#DAD7D3" width="82.266" height="3.238"/>
<rect x="18.985" y="114.902" fill="#DAD7D3" width="82.266" height="3.239"/>
<rect x="18.985" y="123.22" fill="#DAD7D3" width="82.266" height="3.237"/>
<rect x="18.985" y="131.535" fill="#DAD7D3" width="82.266" height="3.237"/>
<rect x="18.985" y="139.851" fill="#DAD7D3" width="82.266" height="3.24"/>
<rect x="18.985" y="148.166" fill="#DAD7D3" width="82.266" height="3.24"/>
<rect x="18.985" y="156.483" fill="#DAD7D3" width="82.266" height="3.238"/>
<rect x="18.985" y="17.764" fill="#C0C0C0" width="49.384" height="16.034"/>
<path fill="#4C4C4C" d="M32.488,174.744l0.462,3.141l0.077,0.141l0.964-3.709c-0.428,0.2-0.874,0.346-1.341,0.416
	C32.597,174.738,32.542,174.743,32.488,174.744z"/>
<path fill="#4C4C4C" d="M31.217,174.714l1.734,3.171l-0.462-3.141C32.064,174.793,31.641,174.783,31.217,174.714z"/>
<path fill="#678EB5" d="M32.39,174.071l-1.853-12.56l-8.272,1.221l-0.056-0.368c0.015,0.113,0.028,0.228,0.044,0.343
	c0.787,5.324,4.783,11.329,8.964,12.007l-0.235-0.434L32.39,174.071z"/>
<path fill="#A3B3D6" d="M30.537,161.512l1.853,12.56l1.729-0.257l-0.127,0.502c3.824-1.839,5.93-8.76,5.142-14.102
	c-0.016-0.113-0.037-0.227-0.056-0.338l0.055,0.366L30.537,161.512z"/>
<path fill="#EBEBEB" d="M32.39,174.071l0.099,0.673c0.054-0.001,0.108-0.006,0.162-0.012c0.467-0.07,0.913-0.216,1.341-0.416
	l0.127-0.502L32.39,174.071z"/>
<path fill="#EBEBEB" d="M32.39,174.071l-1.408,0.209l0.235,0.434c0.424,0.069,0.847,0.079,1.271,0.03L32.39,174.071z"/>
<path fill="#A3B3D6" d="M18.219,78.001l-1.154-7.814c-4.595,0.755-7.825,4.545-7.235,8.536c0.037,0.241,0.086,0.482,0.146,0.712
	l-0.029-0.212L18.219,78.001z"/>
<path fill="#A3B3D6" d="M26.812,76.735l0.03,0.209c-0.007-0.239-0.028-0.479-0.064-0.721c-0.594-4.039-4.873-6.755-9.552-6.062
	c-0.054,0.004-0.106,0.016-0.16,0.024l1.154,7.814L26.812,76.735z"/>
<path fill="#0A9C8B" d="M23.207,155.517l-1.909,0.281c-0.021,0.003-0.039,0.001-0.056,0.001l0.063,0.43
	c0.016-0.009,0.032-0.014,0.051-0.014l1.652-0.245l6.568-0.97l-0.062-0.416L23.207,155.517z"/>
<path fill="#12B4A5" d="M38.055,153.324l-1.913,0.282l-6.626,0.978L29.577,155l6.89-1.018l1.648-0.242
	c0.02-0.002,0.038-0.002,0.055-0.002l-0.063-0.426C38.091,153.314,38.073,153.322,38.055,153.324z"/>
<path fill="#455E7C" d="M22.562,157.279l-1.024,0.151c-0.021,0.002-0.036,0.002-0.055,0.002l0.727,4.932l0.056,0.368l8.272-1.221
	l-0.781-5.293L22.562,157.279z"/>
<path fill="#678EB5" d="M38.295,154.96l-1.021,0.15l-7.518,1.108l0.781,5.293l8.596-1.269l-0.055-0.366l-0.729-4.93
	C38.332,154.951,38.314,154.956,38.295,154.96z"/>
<path fill="#678EB5" d="M27.355,82.732l-4.118,0.609l-4.144,0.611l0.127,0.855l9.727,65.938l0.387,2.62l5.686-0.84l2.854-0.42
	c0.019-0.005,0.037,0,0.056-0.005L27.684,82.636C27.581,82.68,27.473,82.715,27.355,82.732z"/>
<path fill="#455E7C" d="M9.946,79.222l0.029,0.212l0.482,3.251c0.101-0.045,0.21-0.084,0.326-0.099l0.944-0.141l6.994-1.027
	l-0.502-3.417L9.946,79.222z"/>
<path fill="#455E7C" d="M18.219,78.001l0.502,3.417l7.314-1.084l0.946-0.138c0.117-0.018,0.229-0.014,0.341,0l-0.48-3.252
	l-0.03-0.209L18.219,78.001z"/>
<path fill="#455E7C" d="M15.274,84.516l-4.117,0.606c-0.116,0.02-0.23,0.014-0.342,0l10.248,69.469
	c0.018-0.001,0.033-0.009,0.052-0.015l2.857-0.42l5.361-0.79l-0.387-2.62l-9.727-65.938l-0.127-0.855L15.274,84.516z"/>
<path fill="#A3B3D6" d="M11.728,82.445l-0.944,0.141c-0.116,0.015-0.225,0.054-0.326,0.099c-0.518,0.228-0.844,0.771-0.757,1.355
	c0.085,0.585,0.556,1.013,1.115,1.081c0.112,0.014,0.226,0.02,0.342,0l4.117-0.606l3.819-0.563l-0.373-2.535L11.728,82.445z"/>
<path fill="#A3B3D6" d="M27.877,80.4c-0.167-0.106-0.355-0.176-0.555-0.204c-0.111-0.014-0.224-0.018-0.341,0l-0.946,0.138
	l-7.314,1.084l0.373,2.535l4.144-0.611l4.118-0.609c0.117-0.017,0.226-0.053,0.328-0.097c0.247-0.109,0.453-0.296,0.586-0.526
	l2.254-0.332l3.417,23.162c-1.583,0.258-2.644,1.927-2.374,3.75c0.269,1.823,1.766,3.113,3.353,2.901l0.002,0.003l1.73-0.255
	l-4.655-31.546L27.877,80.4z"/>
<path fill="#A3B3D6" d="M37.93,152.102c-0.019,0.005-0.037,0-0.056,0.005l-2.854,0.42l-5.686,0.84l0.182,1.218l6.626-0.978
	l1.913-0.282c0.019-0.002,0.036-0.01,0.053-0.012c0.308-0.074,0.514-0.367,0.468-0.687C38.527,152.309,38.245,152.086,37.93,152.102
	z"/>
<path fill="#678EB5" d="M23.973,154.156l-2.857,0.42c-0.019,0.006-0.034,0.014-0.052,0.015c-0.307,0.076-0.512,0.372-0.468,0.685
	c0.048,0.321,0.329,0.542,0.646,0.523c0.017,0,0.035,0.002,0.056-0.001l1.909-0.281l6.309-0.933l-0.182-1.218L23.973,154.156z"/>
<path fill="#A3B3D6" d="M38.17,153.738c-0.018,0-0.036,0-0.055,0.002l-1.648,0.242L29.577,155l0.179,1.219l7.518-1.108l1.021-0.15
	c0.02-0.004,0.037-0.009,0.054-0.013c0.306-0.076,0.514-0.371,0.464-0.689C38.769,153.941,38.485,153.719,38.17,153.738z"/>
<path fill="#678EB5" d="M23.009,155.97l-1.652,0.245c-0.019,0-0.036,0.005-0.051,0.014c-0.31,0.07-0.515,0.364-0.468,0.684
	c0.047,0.318,0.33,0.54,0.644,0.521c0.019,0,0.035,0,0.055-0.002l1.024-0.151l7.194-1.061L29.577,155L23.009,155.97z"/>
<path fill="#0F3754" d="M138.867,79.26l54.856,44.271c-0.274,0.052-1.215,4.765-1.508,4.765l-7.126,26.78l-91.634-1.69
	l-7.667-26.794c-0.278,0-1.492-3.014-1.768-3.068L138.867,79.26z"/>
<rect x="94.299" y="101.361" fill="#E0E0EA" width="87.519" height="49.624"/>
<path fill="#EAEAEA" d="M188.917,155.076h-2.133v-24.345l-9.826,7.672c1.813,0.643,3.078,2.081,3.078,3.754
	c0,2.272-2.327,4.114-5.199,4.114h-7.954l-1.987,1.553l-18.586,15.207l-1.479,11.616l-13.623-6.124l2.852-3.171l-22.865-19.081
	h-8.392c-2.873,0-5.2-1.842-5.2-4.114c0-1.915,1.655-3.521,3.896-3.978l-10.646-8.885v25.781h-2.369
	c-2.62,0-4.746,2.127-4.746,4.744v29.127c0,2.619,2.126,4.745,4.746,4.745h100.434c2.623,0,4.746-2.126,4.746-4.745V159.82
	C193.663,157.203,191.54,155.076,188.917,155.076z"/>
<path fill="#A2A1A1" d="M102.802,138.044h72.035c0.756,0,1.474,0.129,2.121,0.359l9.826-7.672v-30.26
	c0-1.582-1.611-2.863-3.597-2.863H94.452c-1.984,0-3.6,1.281-3.6,2.863v28.823l10.646,8.885
	C101.915,138.094,102.351,138.044,102.802,138.044z M102.802,102.275h72.035c2.872,0,5.199,1.844,5.199,4.116
	c0,2.271-2.327,4.114-5.199,4.114h-72.035c-2.873,0-5.2-1.844-5.2-4.114C97.602,104.119,99.929,102.275,102.802,102.275z
	 M102.802,114.199h72.035c2.872,0,5.199,1.841,5.199,4.113c0,2.271-2.327,4.113-5.199,4.113h-72.035c-2.873,0-5.2-1.843-5.2-4.113
	C97.602,116.04,99.929,114.199,102.802,114.199z M102.802,126.123h72.035c2.872,0,5.199,1.839,5.199,4.112
	c0,2.271-2.327,4.114-5.199,4.114h-72.035c-2.873,0-5.2-1.844-5.2-4.114C97.602,127.962,99.929,126.123,102.802,126.123z"/>
<path fill="none" d="M102.802,110.506h72.035c2.872,0,5.199-1.844,5.199-4.114c0-2.272-2.327-4.116-5.199-4.116h-72.035
	c-2.873,0-5.2,1.844-5.2,4.116C97.602,108.662,99.929,110.506,102.802,110.506z"/>
<path fill="none" d="M102.802,138.044c-0.451,0-0.887,0.05-1.304,0.136l9.695,8.092h55.689l10.075-7.868
	c-0.647-0.23-1.365-0.359-2.121-0.359H102.802z"/>
<path fill="none" d="M102.802,122.426h72.035c2.872,0,5.199-1.843,5.199-4.113c0-2.272-2.327-4.113-5.199-4.113h-72.035
	c-2.873,0-5.2,1.841-5.2,4.113C97.602,120.583,99.929,122.426,102.802,122.426z"/>
<path fill="none" d="M174.837,146.271c2.872,0,5.199-1.842,5.199-4.114c0-1.673-1.265-3.111-3.078-3.754l-10.075,7.868H174.837z"/>
<path fill="none" d="M102.802,134.35h72.035c2.872,0,5.199-1.844,5.199-4.114c0-2.273-2.327-4.112-5.199-4.112h-72.035
	c-2.873,0-5.2,1.839-5.2,4.112C97.602,132.506,99.929,134.35,102.802,134.35z"/>
<path fill="none" d="M97.602,142.157c0,2.272,2.327,4.114,5.2,4.114h8.392l-9.695-8.092
	C99.257,138.637,97.602,140.242,97.602,142.157z"/>
<polygon fill="#A2A1A1" points="134.059,165.353 131.207,168.523 144.83,174.647 146.31,163.031 164.896,147.824 166.883,146.271 
	111.193,146.271 "/>
<path fill="#678EB5" d="M153.766,156.824l-13.425,11.186c-0.422,0.358-0.941,0.533-1.474,0.533c-0.519,0-1.038-0.175-1.467-0.533
	l-13.422-11.181L87.22,193.583c0.363,0.097,0.723,0.228,1.111,0.228h101.073c0.398,0,0.757-0.131,1.126-0.228L153.766,156.824z"/>
<path fill="#678EB5" d="M194,124.897c0-0.481-0.136-0.928-0.276-1.366l-36.406,30.336l36.463,36.468
	c0.089-0.367,0.22-0.722,0.22-1.118V124.897z"/>
<path fill="#678EB5" d="M84.021,123.523c-0.144,0.441-0.284,0.887-0.284,1.374v64.319c0,0.398,0.135,0.755,0.23,1.12l36.463-36.465
	L84.021,123.523z"/>
</svg>
