<?xml version="1.0" encoding="utf-8"?>
<!-- Generator: Adobe Illustrator 16.0.0, SVG Export Plug-In . SVG Version: 6.00 Build 0)  -->
<!DOCTYPE svg PUBLIC "-//W3C//DTD SVG 1.1//EN" "http://www.w3.org/Graphics/SVG/1.1/DTD/svg11.dtd">
<svg version="1.1" id="Layer_1" xmlns="http://www.w3.org/2000/svg" xmlns:xlink="http://www.w3.org/1999/xlink" x="0px" y="0px"
	 width="406.167px" height="262.5px" viewBox="-18.167 -8.5 406.167 262.5" enable-background="new -18.167 -8.5 406.167 262.5"
	 xml:space="preserve">
<g>
	<polygon fill="#B3B3B3" points="218.367,85.948 218.367,92.49 248.543,92.49 248.543,71.162 218.367,71.162 	"/>
	<path fill="#CCCCCC" d="M248.544,29.635v51.878l-3.88,39.921h-0.748V81.513c0-0.154-0.004-0.308-0.019-0.459
		c-0.02-0.323-0.058-0.64-0.12-0.949c-0.127-0.694-0.354-1.354-0.66-1.966c-0.166-0.332-0.356-0.649-0.571-0.949
		c-0.55-0.78-1.239-1.451-2.037-1.971c-0.638-0.417-1.34-0.741-2.093-0.95c-0.644-0.181-1.32-0.277-2.023-0.277
		c-4.154,0-7.521,3.367-7.521,7.521c0,0.753-0.075,1.485-0.219,2.195c-0.064,0.324-0.144,0.64-0.24,0.948
		c-0.143,0.487-0.317,0.961-0.529,1.416c-0.146,0.324-0.313,0.645-0.491,0.948c-0.479,0.83-1.063,1.594-1.737,2.265
		c-1.986,1.991-4.738,3.221-7.772,3.221c-6.071,0-10.994-4.92-10.994-10.993V29.635H248.544z"/>
	<g>
		<rect x="211.809" y="38.104" fill="#B3B3B3" width="33.944" height="0.948"/>
		<rect x="211.809" y="58.994" fill="#B3B3B3" width="33.944" height="0.949"/>
		<path fill="#B3B3B3" d="M228.652,83.708c-0.063,0.324-0.143,0.64-0.24,0.948h-16.604v-0.948H228.652z"/>
		<rect x="244.98" y="83.706" fill="#B3B3B3" width="0.773" height="0.949"/>
		<path fill="#B3B3B3" d="M227.883,86.072c-0.145,0.324-0.311,0.645-0.491,0.948h-15.583v-0.948H227.883z"/>
		<rect x="244.98" y="86.071" fill="#B3B3B3" width="0.773" height="0.949"/>
		<g>
			<rect x="238.938" y="41.788" fill="#B3B3B3" width="6.816" height="0.949"/>
			<rect x="211.809" y="41.788" fill="#B3B3B3" width="13.887" height="0.949"/>
		</g>
		<g>
			<rect x="238.938" y="62.595" fill="#B3B3B3" width="6.816" height="0.948"/>
			<rect x="211.809" y="62.595" fill="#B3B3B3" width="13.887" height="0.948"/>
		</g>
		<g>
			<rect x="238.938" y="65.514" fill="#B3B3B3" width="6.816" height="0.948"/>
			<rect x="211.809" y="65.514" fill="#B3B3B3" width="13.887" height="0.948"/>
		</g>
		<g>
			<rect x="238.938" y="68.433" fill="#B3B3B3" width="6.816" height="0.947"/>
			<rect x="211.809" y="68.433" fill="#B3B3B3" width="13.887" height="0.947"/>
		</g>
		<g>
			<rect x="238.938" y="71.352" fill="#B3B3B3" width="6.816" height="0.948"/>
			<rect x="211.809" y="71.352" fill="#B3B3B3" width="13.887" height="0.948"/>
		</g>
		<g>
			<path fill="#B3B3B3" d="M245.754,74.268v0.949h-4.18c-0.639-0.416-1.338-0.74-2.09-0.949H245.754z"/>
			<rect x="211.809" y="74.269" fill="#B3B3B3" width="13.887" height="0.948"/>
		</g>
		<g>
			<path fill="#B3B3B3" d="M245.754,77.188v0.948h-1.57c-0.167-0.332-0.354-0.646-0.571-0.948H245.754z"/>
			<rect x="211.809" y="77.187" fill="#B3B3B3" width="13.887" height="0.948"/>
		</g>
		<g>
			<path fill="#B3B3B3" d="M245.754,80.104v0.95h-0.788c-0.021-0.325-0.06-0.642-0.119-0.95H245.754z"/>
			<rect x="211.809" y="80.106" fill="#B3B3B3" width="13.887" height="0.948"/>
		</g>
		<g>
			<rect x="238.938" y="44.894" fill="#B3B3B3" width="6.816" height="0.948"/>
			<rect x="211.809" y="44.894" fill="#B3B3B3" width="13.887" height="0.948"/>
		</g>
		<g>
			<rect x="238.938" y="48" fill="#B3B3B3" width="6.816" height="0.948"/>
			<rect x="211.809" y="48" fill="#B3B3B3" width="13.887" height="0.948"/>
		</g>
		<g>
			<rect x="238.938" y="51.105" fill="#B3B3B3" width="6.816" height="0.949"/>
			<rect x="211.809" y="51.105" fill="#B3B3B3" width="13.887" height="0.949"/>
		</g>
		<g>
			<rect x="238.938" y="54.211" fill="#B3B3B3" width="6.816" height="0.948"/>
			<rect x="211.809" y="54.211" fill="#B3B3B3" width="13.887" height="0.948"/>
		</g>
	</g>
	<path fill="#E6E6E6" d="M243.961,81.512v82.462h41.656V81.512c0-4.155-3.366-7.522-7.521-7.522h-41.658
		C240.593,73.99,243.961,77.357,243.961,81.512z"/>
	<g>
		<rect x="247.771" y="96.803" fill="#CCCCCC" width="33.944" height="0.947"/>
		<rect x="247.771" y="119.203" fill="#CCCCCC" width="33.944" height="0.947"/>
		<rect x="247.771" y="122.511" fill="#CCCCCC" width="33.944" height="0.947"/>
		<rect x="247.771" y="125.818" fill="#CCCCCC" width="33.944" height="0.947"/>
		<rect x="247.771" y="129.126" fill="#CCCCCC" width="33.944" height="0.949"/>
		<rect x="247.771" y="132.434" fill="#CCCCCC" width="33.944" height="0.948"/>
		<rect x="247.771" y="135.742" fill="#CCCCCC" width="33.944" height="0.947"/>
		<rect x="247.771" y="139.05" fill="#CCCCCC" width="33.944" height="0.948"/>
		<rect x="247.771" y="147.277" fill="#CCCCCC" width="33.944" height="0.949"/>
		<rect x="247.771" y="150.57" fill="#CCCCCC" width="33.944" height="0.949"/>
		<rect x="247.771" y="153.865" fill="#CCCCCC" width="33.944" height="0.947"/>
		<rect x="247.771" y="157.465" fill="#CCCCCC" width="33.944" height="0.948"/>
		<g>
			<rect x="274.9" y="79.597" fill="#CCCCCC" width="6.814" height="0.948"/>
			<rect x="247.771" y="79.597" fill="#CCCCCC" width="13.887" height="0.948"/>
		</g>
		<g>
			<rect x="274.9" y="100.404" fill="#CCCCCC" width="6.814" height="0.948"/>
			<rect x="247.771" y="100.404" fill="#CCCCCC" width="13.887" height="0.948"/>
		</g>
		<g>
			<rect x="274.9" y="103.322" fill="#CCCCCC" width="6.814" height="0.947"/>
			<rect x="247.771" y="103.322" fill="#CCCCCC" width="13.887" height="0.947"/>
		</g>
		<g>
			<rect x="274.9" y="106.241" fill="#CCCCCC" width="6.814" height="0.948"/>
			<rect x="247.771" y="106.241" fill="#CCCCCC" width="13.887" height="0.948"/>
		</g>
		<g>
			<rect x="274.9" y="109.159" fill="#CCCCCC" width="6.814" height="0.948"/>
			<rect x="247.771" y="109.159" fill="#CCCCCC" width="13.887" height="0.948"/>
		</g>
		<g>
			<rect x="274.9" y="112.078" fill="#CCCCCC" width="6.814" height="0.947"/>
			<rect x="247.771" y="112.078" fill="#CCCCCC" width="13.887" height="0.947"/>
		</g>
		<g>
			<rect x="274.9" y="114.996" fill="#CCCCCC" width="6.814" height="0.948"/>
			<rect x="247.771" y="114.996" fill="#CCCCCC" width="13.887" height="0.948"/>
		</g>
		<g>
			<rect x="274.9" y="82.703" fill="#CCCCCC" width="6.814" height="0.948"/>
			<rect x="247.771" y="82.703" fill="#CCCCCC" width="13.887" height="0.948"/>
		</g>
		<g>
			<rect x="274.9" y="85.809" fill="#CCCCCC" width="6.814" height="0.948"/>
			<rect x="247.771" y="85.809" fill="#CCCCCC" width="13.887" height="0.948"/>
		</g>
		<g>
			<rect x="274.9" y="88.914" fill="#CCCCCC" width="6.814" height="0.948"/>
			<rect x="247.771" y="88.914" fill="#CCCCCC" width="13.887" height="0.948"/>
		</g>
		<g>
			<rect x="274.9" y="92.019" fill="#CCCCCC" width="6.814" height="0.949"/>
			<rect x="247.771" y="92.019" fill="#CCCCCC" width="13.887" height="0.949"/>
		</g>
	</g>
</g>
<path opacity="0.3" enable-background="new    " d="M299.353,114.686v31.113c0,1.955-1.586,3.536-3.537,3.536h-57.6
	c-1.955,0-3.537-1.581-3.537-3.536v-31.113c0-1.954,1.582-3.537,3.537-3.537h57.6C297.766,111.148,299.353,112.731,299.353,114.686z
	"/>
<path fill="#A2B2D6" d="M296.91,113.529v31.112c0,1.957-1.588,3.537-3.537,3.537h-57.602c-1.955,0-3.535-1.58-3.535-3.537v-31.112
	c0-1.956,1.582-3.537,3.535-3.537h57.602C295.324,109.992,296.91,111.573,296.91,113.529z"/>
<path opacity="0.5" fill="#445D7B" enable-background="new    " d="M296.91,128.83v15.813c0,1.955-1.588,3.537-3.537,3.537h-32.146
	c-0.042-0.553-0.062-1.104-0.062-1.672c0-12.283,9.959-22.244,22.245-22.244C288.489,124.264,293.168,125.968,296.91,128.83z"/>
<path opacity="0.5" fill="#445D7B" enable-background="new    " d="M244.837,115.007c0,5.042-4.089,9.13-9.13,9.13
	c-1.229,0-2.402-0.242-3.471-0.687v-9.921c0-1.956,1.582-3.537,3.535-3.537h7.563C244.286,111.432,244.837,113.154,244.837,115.007z
	"/>
<circle fill="#B3B3B3" cx="279.626" cy="139.457" r="3.781"/>
<circle fill="#E6E6E6" cx="288.028" cy="139.457" r="3.781"/>
<text transform="matrix(1 0 0 1 237.334 131.8848)" fill="#FFFFFF" font-family="'ArialMT'" font-size="5.165">00  000   00000   000  00000</text>
<text transform="matrix(1 0 0 1 237.334 134.6875)" fill="#FFFFFF" font-family="'ArialMT'" font-size="1.8748">12  345   6789   1111  223344</text>
<rect x="237.332" y="136.583" fill="#FFFFFF" width="20.638" height="3.616"/>
<rect x="237.332" y="141.791" fill="#FFFFFF" width="12.248" height="1.447"/>
<path fill="#88BDED" d="M247.941,118.767v5.111c0,0.799-0.646,1.446-1.444,1.446h-7.716c-0.802,0-1.447-0.647-1.447-1.446v-5.111
	c0-0.797,0.646-1.445,1.447-1.445h7.716C247.295,117.321,247.941,117.97,247.941,118.767z"/>
<g>
	<rect x="245.446" y="122.578" fill="#FCE4A2" width="2.495" height="0.32"/>
	<polygon fill="#FCE4A2" points="242.041,117.321 242.041,125.324 241.717,125.324 241.717,122.898 237.334,122.898 
		237.334,122.575 241.717,122.575 241.717,120.067 237.334,120.067 237.334,119.748 241.717,119.748 241.717,117.321 	"/>
</g>
<rect x="271.29" y="115.102" fill="#FFFFFF" width="5.979" height="5.98"/>
<rect x="278.215" y="115.102" fill="#FFFFFF" width="13.596" height="5.98"/>
<circle opacity="0.3" enable-background="new    " cx="241.176" cy="100.586" r="12.323"/>
<circle fill="#88BDED" cx="238.334" cy="100.586" r="12.323"/>
<circle fill="#445D7B" cx="238.332" cy="100.586" r="11.001"/>
<circle fill="#668DB5" cx="238.334" cy="100.586" r="9.305"/>
<g>
	<path fill="#88BDED" d="M238.988,105.551v1.087h-1.142v-1.087c-1.836-0.152-3.06-1.084-3.199-2.864h1.878
		c0.125,0.793,0.598,1.292,1.321,1.461v-2.824c-1.78-0.569-2.824-1.308-2.824-2.894c0-1.711,1.294-2.614,2.824-2.808v-1.086h1.142
		v1.086c1.861,0.179,2.793,1.334,2.978,2.85h-1.878c-0.083-0.724-0.403-1.25-1.1-1.446v2.684c2.168,0.682,3.03,1.559,3.03,3.103
		C242.019,104.41,240.726,105.385,238.988,105.551z M237.847,99.488v-2.477c-0.612,0.139-1.001,0.542-1.001,1.195
		C236.846,98.903,237.179,99.238,237.847,99.488z M238.988,104.175c0.721-0.111,1.142-0.487,1.142-1.224
		c0-0.599-0.267-1.058-1.142-1.377V104.175z"/>
</g>
<circle opacity="0.3" enable-background="new    " cx="224.924" cy="109.891" r="12.323"/>
<circle fill="#88BDED" cx="222.08" cy="109.891" r="12.323"/>
<circle fill="#445D7B" cx="222.082" cy="109.891" r="11.001"/>
<circle fill="#668DB5" cx="222.08" cy="109.891" r="9.305"/>
<g>
	<path fill="#88BDED" d="M222.734,114.857v1.085h-1.141v-1.085c-1.835-0.154-3.059-1.086-3.198-2.865h1.877
		c0.126,0.791,0.599,1.293,1.321,1.459v-2.822c-1.78-0.57-2.823-1.308-2.823-2.893c0-1.713,1.292-2.615,2.823-2.812v-1.084h1.141
		v1.084c1.864,0.183,2.795,1.335,2.979,2.853h-1.878c-0.085-0.723-0.403-1.252-1.1-1.446v2.683c2.168,0.684,3.031,1.56,3.031,3.104
		C225.767,113.716,224.473,114.689,222.734,114.857z M221.595,108.794v-2.477c-0.61,0.139-1.001,0.541-1.001,1.195
		C220.594,108.209,220.927,108.541,221.595,108.794z M222.734,113.479c0.723-0.11,1.141-0.486,1.141-1.223
		c0-0.6-0.264-1.059-1.141-1.378V113.479z"/>
</g>
<path fill="#EFC7B0" d="M354.973,144.055l0.547,1.354l5.594,13.804l1.703,4.202l2.504-3.337l6.649-8.868
	c0.864-0.998,1.616-2.029,2.255-3.066c4.523-7.332,3.566-15.111-1.426-15.393c-0.482-0.023-1.009,0.032-1.57,0.163
	c-5.104,1.172-13.063,8.202-15.515,10.452C355.239,143.798,354.973,144.055,354.973,144.055z"/>
<path fill="#EFC7B0" d="M355.52,145.405l5.594,13.804l4.207,0.865l6.649-8.868c0.864-0.998,1.616-2.029,2.255-3.067
	c-1.382-1.949-3.028-2.603-3.028-2.603l0.032-12.626c-5.104,1.172-13.063,8.201-15.515,10.451L355.52,145.405z"/>
<path d="M310.558,196.377c-0.012,4.37,3.271,7.979,7.506,8.479c0.323,0.037,0.653,0.063,0.988,0.063l40.906,0.109
	c4.7,0.018,8.521-3.785,8.54-8.489l0.007-2.247l0.123-45.426l0.137-49.742c0.015-4.704-3.791-8.528-8.491-8.541l-40.91-0.111
	c-4.697-0.015-8.521,3.791-8.532,8.492l-0.174,61.436L310.558,196.377z"/>
<polygon fill="#FFFFFF" points="313.858,191.854 365.222,191.994 365.232,187.639 365.441,111.771 365.471,101.223 314.107,101.082 
	314.079,111.632 313.87,187.498 "/>
<path opacity="0.5" fill="#4D4D4D" enable-background="new    " d="M361.849,185.463c1.681,4.34,5.084,7.521,6.656,8.826
	l0.123-45.426l-1.393-0.127c0,0-6.563,6.813-6.009,13.563c0.561,6.748,6.44,13.938,6.44,13.938l-5.142,0.615
	C362.529,176.854,359.621,179.703,361.849,185.463z"/>
<rect x="318.585" y="178.818" fill="#D2672D" width="39.876" height="0.478"/>
<rect x="318.629" y="182.582" fill="#D2672D" width="39.875" height="0.477"/>
<rect x="314.091" y="101.16" transform="matrix(1 0.0027 -0.0027 1 0.2886 -0.917)" fill="#323C49" width="51.362" height="10.549"/>
<rect x="319.986" y="131.577" transform="matrix(-1 -0.0027 0.0027 -1 664.5558 264.5286)" fill="#8FB928" width="24.941" height="0.478"/>
<rect x="319.945" y="128.329" transform="matrix(-1 -0.0027 0.0027 -1 664.531 258.0308)" fill="#8FB928" width="24.988" height="0.478"/>
<rect x="319.905" y="125.091" transform="matrix(-1 -0.0028 0.0028 -1 664.4924 251.5908)" fill="#8FB928" width="25.036" height="0.476"/>
<rect x="319.868" y="121.843" transform="matrix(-1 -0.0028 0.0028 -1 664.4749 245.0939)" fill="#8FB928" width="25.082" height="0.477"/>
<rect x="313.864" y="187.564" transform="matrix(1 0.0028 -0.0028 1 0.5316 -0.9482)" fill="#333232" width="51.363" height="4.355"/>
<circle fill="#323C49" cx="339.72" cy="156.801" r="16.687"/>
<text transform="matrix(0.9999 0.0115 -0.0115 0.9999 332.2031 162.3525)" fill="#FFFFFF" font-family="'ArialMT'" font-size="11.835">PAY</text>
<path opacity="0.5" fill="#4D4D4D" enable-background="new    " d="M310.558,196.378c-0.012,4.367,3.271,7.979,7.507,8.479
	c10.772-10.948,6.196-28.842,6.196-28.842s6.922-2.933,11.819-13.363c4.896-10.43-2.6-17.646-2.6-17.646l-22.826,15.387
	L310.558,196.378z"/>
<path fill="#EFC7B0" d="M363.334,156.707c0.228,6.492,5.211,13.575,5.211,13.575l-0.152,14.327l0.043,1.035l0.368,8.926
	c0,0,1.542-3.002,3.479-7.035c1.466-3.046,3.153-6.682,4.577-10.057c1.649-3.916,2.941-7.482,3.108-9.381
	c0.551-6.279-6.057-16.938-6.057-16.938s-5.432-8.666-9.807,1.114C363.492,153.65,363.277,155.161,363.334,156.707z"/>
<path fill="#EFC7B0" d="M368.545,170.282l-0.152,14.327l0.043,1.035l3.847,1.891c1.466-3.046,3.153-6.682,4.577-10.057l-6.076-3.211
	l0.021-7.354c0,0-5.238-4.659-7.468-10.207C363.561,163.199,368.545,170.282,368.545,170.282z"/>
<path fill="#EFC7B0" d="M250.691,247.335l30.508-33.74c2.954-4.646,5.422-32.575,5.422-32.575l9.895-21.521
	c0.546-1.183,1.649-2.007,2.938-2.192c3.254-0.469,6.774-1.525,10.27-2.882c8.436-3.269,16.701-8.25,20.578-10.722
	c1.34-0.854,3.123-0.307,3.754,1.15c0.12,0.274,0.242,0.578,0.363,0.896c0.391,1.043,0.771,2.313,1.055,3.805
	c1.049,5.591-3.734,22.972-19.332,22.96c0,0,3.498,12.641-0.591,24.738c-0.438,1.29-0.959,2.578-1.583,3.842
	c-0.237,0.48-0.488,0.96-0.754,1.432c0.237,0.252,0.505,0.496,0.799,0.721c0.142,0.109,0.289,0.214,0.438,0.311
	c2.438,1.575,5.521,1.364,5.521,1.364l17.623,0.049l0.005-0.003l22.746,0.055c1.763-0.002,4.229-0.856,6.311-3.217
	c2.084-2.354,1.853-5.894,1.853-5.894l0.015-5.438V190.4c-0.207-0.158-0.599-0.438-1.304-0.924c-2.24-1.541-3.865-4.396-3.914-4.481
	c-1.047-1.97-1.771-4.587-1.294-7.851c0.036-0.256,0.104-0.494,0.2-0.72c0.601-1.42,2.261-2.171,3.769-1.552
	c3.523,1.447,9.053,3.813,10.729,5.068c2.521,1.896,2.661,2.049,2.771,3.076c0.897,8.515-1.671,13.818-1.671,13.818
	s-7.85,10.227-17.594,15.559c-7.13,7.822-23.284,16.729-38.148,17.969l-14.863,16.971L250.691,247.335L250.691,247.335z"/>
<path fill="#EFC7B0" d="M319.965,204.918l17.623,0.049l0.005-0.002l22.745,0.057c1.763-0.006,4.229-0.858,6.312-3.217
	c2.084-2.354,1.852-5.895,1.852-5.895l0.015-5.439v-0.074c-0.207-0.152-0.599-0.436-1.305-0.92c-2.238-1.541-3.864-4.396-3.914-4.48
	c-1.047-1.973-1.771-4.587-1.293-7.852c0.036-0.256,0.104-0.494,0.202-0.72c0.604,2.753,2.234,8.779,8.687,12.153l-0.027,10.717
	c0,0-0.006,0.284-0.084,0.745c-0.177,1.462-1.27,6.792-7.78,7.464c-0.642,0.143-1.327,0.249-2.074,0.316l-38.994-0.098
	c0,0-5.752-0.57-7.481-4.172C316.883,205.13,319.965,204.918,319.965,204.918z"/>
<path fill="#EFC7B0" d="M297.649,181.184c0.064,5.644,1.128,31.285-2.675,35.178c-2.367,2.422-16.882,18.882-27.517,30.977h-16.77
	l30.508-33.738c2.954-4.647,5.421-32.574,5.421-32.574l9.896-21.521c0.546-1.182,1.649-2.007,2.938-2.191
	c3.254-0.47,6.774-1.526,10.27-2.883c-2.916,1.665-5.994,3.534-7.192,4.639C299.988,161.4,297.586,175.54,297.649,181.184z"/>
<path fill="#4D4D4D" d="M336.076,97.889l7.752-0.025c0.301-0.002,0.546-0.249,0.545-0.55l0,0c0-0.302-0.248-0.547-0.552-0.546
	l-7.751,0.026c-0.301,0.001-0.546,0.249-0.545,0.549l0,0C335.528,97.645,335.774,97.89,336.076,97.889z"/>
<g>
	<polygon fill="#B3B3B3" points="345.814,118.559 360.607,118.599 360.572,131.348 360.569,132.604 345.776,132.563 345.78,131.307 
			"/>
</g>
<g>
	<g>
		<path fill="#445D7B" d="M201.859,43.15v-3.857c13.027,0,23.625,10.598,23.625,23.625h-3.854
			C221.627,52.018,212.76,43.15,201.859,43.15z"/>
	</g>
	<g>
		<path fill="#445D7B" d="M201.859,49.518v-3.47c9.303,0,16.869,7.568,16.869,16.87h-3.471
			C215.258,55.53,209.246,49.518,201.859,49.518z"/>
	</g>
	<g>
		<path fill="#445D7B" d="M201.859,55.672v-3.086c5.696,0,10.331,4.635,10.331,10.332h-3.086
			C209.104,58.922,205.854,55.672,201.859,55.672z"/>
	</g>
</g>
<g id="DESIGNED_BY_FREEPIK">
</g>
<g>
	<ellipse fill="#171613" cx="79.166" cy="238.253" rx="8.329" ry="8.35"/>
	<ellipse fill="#171613" cx="27.997" cy="238.253" rx="8.328" ry="8.35"/>
	<ellipse fill="#171613" cx="152.572" cy="238.253" rx="8.328" ry="8.35"/>
	<ellipse fill="#171613" cx="101.404" cy="238.253" rx="8.329" ry="8.35"/>
	<rect x="33.564" y="203.508" fill="#171613" width="116.915" height="15.878"/>
	<path fill="#445D7B" d="M170.166,241.037v-25.863c0-3.854-3.155-7.011-7.01-7.011H18.721c-3.856,0-7.01,3.155-7.01,7.011v25.863
		H170.166z"/>
	<path fill="#C7D5D2" d="M86.401,208.163h76.755c3.854,0,7.011,3.157,7.011,7.012v25.863H93.413v-25.863
		C93.413,211.32,90.257,208.163,86.401,208.163z"/>
	<rect x="130.957" y="215.174" fill="#C7D5D2" width="39.209" height="26.467"/>
	<g>
		<path fill="#171613" d="M162.715,227.427c0,1.36,0.956,2.477,2.129,2.477s2.13-1.116,2.13-2.477v-2.207
			c0-1.361-0.957-2.476-2.13-2.476s-2.129,1.114-2.129,2.476V227.427z"/>
		<path fill="#171613" d="M154.5,227.427c0,1.36,0.957,2.477,2.131,2.477c1.171,0,2.13-1.116,2.13-2.477v-2.207
			c0-1.361-0.959-2.476-2.13-2.476c-1.172,0-2.131,1.114-2.131,2.476V227.427z"/>
		<path fill="#171613" d="M146.287,227.427c0,1.36,0.957,2.477,2.13,2.477c1.174,0,2.131-1.116,2.131-2.477v-2.207
			c0-1.361-0.957-2.476-2.131-2.476c-1.173,0-2.13,1.114-2.13,2.476V227.427z"/>
		<path fill="#171613" d="M138.073,227.427c0,1.36,0.957,2.477,2.131,2.477c1.173,0,2.13-1.116,2.13-2.477v-2.207
			c0-1.361-0.957-2.476-2.13-2.476c-1.174,0-2.131,1.114-2.131,2.476V227.427z"/>
		<path fill="#171613" d="M129.859,227.427c0,1.36,0.958,2.477,2.13,2.477c1.174,0,2.131-1.116,2.131-2.477v-2.207
			c0-1.361-0.957-2.476-2.131-2.476c-1.172,0-2.13,1.114-2.13,2.476V227.427z"/>
		<path fill="#171613" d="M121.645,227.427c0,1.36,0.958,2.477,2.131,2.477s2.13-1.116,2.13-2.477v-2.207
			c0-1.361-0.957-2.476-2.13-2.476s-2.131,1.114-2.131,2.476V227.427z"/>
		<path fill="#171613" d="M113.431,227.427c0,1.36,0.958,2.477,2.131,2.477s2.131-1.116,2.131-2.477v-2.207
			c0-1.361-0.958-2.476-2.131-2.476s-2.131,1.114-2.131,2.476V227.427z"/>
		<path fill="#171613" d="M105.217,227.427c0,1.36,0.958,2.477,2.131,2.477s2.131-1.116,2.131-2.477v-2.207
			c0-1.361-0.958-2.476-2.131-2.476c-1.172,0-2.131,1.114-2.131,2.476V227.427z"/>
		<path fill="#171613" d="M97.004,227.427c0,1.36,0.958,2.477,2.131,2.477s2.131-1.116,2.131-2.477v-2.207
			c0-1.361-0.958-2.476-2.131-2.476c-1.172,0-2.131,1.114-2.131,2.476V227.427z"/>
	</g>
	<rect x="10.676" y="239.885" fill="#484640" width="160.837" height="3.508"/>
	<rect x="10.676" y="239.885" fill="#171613" width="84.541" height="3.508"/>
	<polygon fill="#333232" points="185.392,29.553 185.392,181.728 -0.179,181.728 -0.179,0.371 128.483,0.371 128.483,29.553 	"/>
	<rect x="130.957" y="29.553" fill="#46607E" width="54.435" height="152.174"/>
	<rect x="74.048" y="0.371" fill="#46607E" width="54.435" height="181.356"/>
	<rect x="38.171" y="0.371" fill="#323C49" width="35.877" height="181.356"/>
	<rect x="-0.179" y="0.371" fill="#323C49" width="35.876" height="181.356"/>
	<g>
		<g>
			<rect x="74.048" y="148.527" fill="#816035" width="111.343" height="1.238"/>
		</g>
		<g>
			<rect x="-0.32" y="148.527" fill="#554431" width="74.226" height="1.238"/>
		</g>
	</g>
	<g>
		<g>
			<rect x="74.048" y="118.631" fill="#816035" width="111.343" height="1.237"/>
		</g>
		<g>
			<rect x="-0.32" y="118.631" fill="#554431" width="74.226" height="1.237"/>
		</g>
	</g>
	<g>
		<g>
			<rect x="74.048" y="88.731" fill="#816035" width="111.343" height="1.237"/>
		</g>
		<g>
			<rect x="-0.32" y="88.731" fill="#554431" width="74.226" height="1.237"/>
		</g>
	</g>
	<g>
		<g>
			<rect x="74.048" y="58.833" fill="#816035" width="111.343" height="1.237"/>
		</g>
		<g>
			<rect x="-0.32" y="58.833" fill="#554431" width="74.226" height="1.237"/>
		</g>
	</g>
	<g>
		<g>
			<rect x="74.048" y="28.934" fill="#816035" width="111.343" height="1.237"/>
		</g>
		<g>
			<rect x="-0.32" y="28.934" fill="#554431" width="74.226" height="1.237"/>
		</g>
	</g>
	<rect x="51.163" y="0.371" fill="#414242" width="7.148" height="7.108"/>
	<rect x="116.553" y="21.211" opacity="0.7" fill="#E5E5E6" enable-background="new    " width="9.157" height="5.773"/>
	<rect x="116.553" y="50.555" opacity="0.7" fill="#E5E5E6" enable-background="new    " width="9.157" height="5.773"/>
	<rect x="116.553" y="80.248" opacity="0.7" fill="#E5E5E6" enable-background="new    " width="9.157" height="5.773"/>
	<rect x="116.553" y="110.687" opacity="0.7" fill="#E5E5E6" enable-background="new    " width="9.157" height="5.773"/>
	<rect x="133.599" y="123.719" opacity="0.7" fill="#E5E5E6" enable-background="new    " width="9.155" height="5.775"/>
	<rect x="138.177" y="50.555" opacity="0.7" fill="#E5E5E6" enable-background="new    " width="9.155" height="5.773"/>
	
		<rect x="135.123" y="80.249" transform="matrix(0.9919 0.1268 -0.1268 0.9919 11.6658 -17.0384)" opacity="0.7" fill="#E5E5E6" enable-background="new    " width="9.152" height="5.774"/>
	<rect x="172.64" y="110.687" opacity="0.7" fill="#E5E5E6" enable-background="new    " width="9.155" height="5.773"/>
	<rect x="78.337" y="140.271" opacity="0.7" fill="#E5E5E6" enable-background="new    " width="9.157" height="5.773"/>
	
		<rect x="81.632" y="171.193" transform="matrix(0.9176 0.3975 -0.3975 0.9176 76.2963 -19.9247)" opacity="0.7" fill="#E5E5E6" enable-background="new    " width="9.157" height="5.773"/>
	<rect x="133.599" y="174.088" opacity="0.7" fill="#E5E5E6" enable-background="new    " width="9.155" height="5.773"/>
	<rect x="51.163" y="30.026" fill="#414242" width="7.148" height="7.108"/>
	<rect x="51.163" y="59.924" fill="#414242" width="7.148" height="7.108"/>
	<rect x="51.163" y="89.952" fill="#414242" width="7.148" height="7.108"/>
	<rect x="51.163" y="119.499" fill="#414242" width="7.148" height="7.108"/>
	<rect x="51.163" y="149.914" fill="#414242" width="7.148" height="7.108"/>
	<rect x="14.185" y="0.371" fill="#414242" width="7.147" height="7.108"/>
	<rect x="14.185" y="30.026" fill="#414242" width="7.147" height="7.108"/>
	<rect x="14.185" y="59.924" fill="#414242" width="7.147" height="7.108"/>
	<rect x="14.185" y="89.952" fill="#414242" width="7.147" height="7.108"/>
	<rect x="14.185" y="119.499" fill="#414242" width="7.147" height="7.108"/>
	<rect x="14.185" y="149.914" fill="#414242" width="7.147" height="7.108"/>
	<rect x="-0.091" y="203.37" fill="#5D5B52" width="7.564" height="43.735"/>
	<rect x="-7.47" y="203.37" fill="#484640" width="7.565" height="43.735"/>
	<rect x="-7.47" y="194.119" fill="#414242" width="200.428" height="9.251"/>
	<rect x="185.392" y="203.37" fill="#414242" width="7.565" height="43.735"/>
	<rect x="178.014" y="203.37" fill="#484640" width="7.565" height="43.735"/>
	<rect x="78.215" y="203.37" fill="#5D5B52" width="7.565" height="43.735"/>
	<rect x="70.837" y="203.37" fill="#484640" width="7.566" height="43.735"/>
	<rect x="-7.47" y="194.119" fill="#484640" width="85.874" height="9.251"/>
	<rect x="-5.076" y="181.728" fill="#46607E" width="196.302" height="12.409"/>
	<rect x="-3.632" y="183.171" fill="#1B1508" width="80.831" height="9.524"/>
	<path fill="#5D5B52" d="M75.754,184.615v6.636H-2.19v-6.636H75.754L75.754,184.615z M78.641,181.728H-5.076v12.409h83.717V181.728
		L78.641,181.728z"/>
	<rect x="28.329" y="181.728" fill="#5D5B52" width="11.135" height="12.409"/>
	<rect x="152.623" y="214.07" fill="#323C49" width="42.063" height="32.895"/>
	<rect x="193.153" y="214.07" fill="#46607E" width="35.876" height="32.895"/>
	<rect x="208.893" y="214.07" fill="#414242" width="7.148" height="7.108"/>
	<rect x="155.101" y="238.622" opacity="0.7" fill="#E5E5E6" enable-background="new    " width="9.157" height="5.773"/>
</g>
</svg>
