<?xml version="1.0" encoding="utf-8"?>
<!-- Generator: Adobe Illustrator 16.0.0, SVG Export Plug-In . SVG Version: 6.00 Build 0)  -->
<!DOCTYPE svg PUBLIC "-//W3C//DTD SVG 1.1//EN" "http://www.w3.org/Graphics/SVG/1.1/DTD/svg11.dtd">
<svg version="1.1" xmlns="http://www.w3.org/2000/svg" xmlns:xlink="http://www.w3.org/1999/xlink" x="0px" y="0px"
	 width="1386.139px" height="894.09px" viewBox="0 0 1386.139 894.09" enable-background="new 0 0 1386.139 894.09"
	 xml:space="preserve">
<g id="bg">
</g>
<g id="objects">
	<path fill="#6CA6E0" d="M1018.343,737.353v-93.615c-0.181-0.419-0.374-0.83-0.526-1.267l-0.007-76.662l-0.005-44.023l-0.001-1.676
		l-123.814,0.013c-10.226-4.563-15.114-17.592-8.559-28.106c16.821-26.979,20.66-60.337-10.521-78.682
		c-25.283-14.875-59.987-5.322-74.006,20.473c-11.525,21.207-2.083,39.889,8.746,58.861c5.981,10.479,1.027,23.013-8.964,27.464
		l-122.271,0.012l0,1.677l0.004,47.677l0.008,71.724c3.049,12.332,17.611,18.966,29.168,11.767
		c26.985-16.812,60.345-20.638,78.678,10.55c14.866,25.289,3.866,59.402-21.934,73.411c-21.211,11.518-38.226,2.239-57.425-8.182
		c-12.681-6.882-25.695-1.629-28.478,11.827l0.012,118.939l85.819-0.009v0.277h184.424v-0.297l69.146-0.007l-0.013-120.932
		C1017.978,738.148,1018.167,737.754,1018.343,737.353z"/>
	<path fill="#445D7B" d="M786.347,663.296c-18.348-31.179-51.705-27.336-78.683-10.513c-12.974,8.091-29.784-1.238-29.784-16.524
		v-112.86H557.487c-10.844,3.913-16.497,17.042-10.257,27.961c10.838,18.968,20.29,37.646,8.775,58.857
		c-14.006,25.802-48.706,35.372-73.997,20.509c-31.189-18.33-27.366-51.689-10.558-78.677c6.857-11.009,1.154-24.733-10.058-28.65
		H384.73h-44.023l-0.032-0.933h-1.679v-2.054h-0.504v11.36v112.455v93.303v117.237v5.034h1.676h22.65h25.026h71.724h99.373h66.756
		h52.183V745.473c0-14.951,16.153-24.319,29.138-16.909c18.975,10.827,37.657,20.268,58.862,8.74
		C791.675,723.282,801.225,688.578,786.347,663.296z"/>
	<g id="XMLID_790_">
		<path fill="none" d="M176.318,241.847c-0.244-7.752-2.576-15.522-6.515-22.292c2.89,6.643,4.904,13.62,5.219,20.829
			c0.482,11.05-3.561,22.74-12.413,29.453c-0.05,0.038-0.102,0.072-0.153,0.11c0.667,1.686,1.333,3.372,2,5.058l9.883-0.4
			c1.41,0.307,3.504,0.752,6.127,1.363c-1.654-2.176-3.097-4.525-4.269-7.003C170.925,257.805,176.667,252.921,176.318,241.847z"/>
	</g>
	<g id="XMLID_789_">
		<path fill="none" d="M107.677,251.252c-0.333,2.348-0.104,4.826,0.749,7.103c0.424,1.131,1.012,2.244,1.914,3.013
			c1.115,0.951,2.571,1.269,3.78,2.074c4.959,3.305,3.057,10.446,3.828,15.323c0.219,1.385,0.582,2.723,1.002,4.043l4.383-6.137
			l18.757-0.76c-0.011-0.051-0.024-0.102-0.035-0.152C128.215,274.488,114.764,264.129,107.677,251.252z"/>
	</g>
	<g id="XMLID_788_">
		<path fill="#DBC6A4" d="M376.145,216.467l8.1-6.853l10.492,3.348l6.02,8.763l-2.747,7.481l-8.521,4.939l3.235,0.863l-0.592,2.637
			l-13.382,6.096c-3.217-3.353-14.064-5.928-15.788-7.724l8.951-7.69L376.145,216.467z"/>
	</g>
	<g id="XMLID_787_">
		<polygon fill="#4B505B" points="112.644,832.038 112.33,835.095 111.29,845.24 131.5,857.57 143.166,848.519 133.581,837.281 
			132.689,836.737 132.217,837.904 		"/>
	</g>
	<path fill="#A5A6A9" d="M196.79,613.519c-22.903,1.505-44.156,2.127-60.856,2.349l0.594,78.311l-24.975,137.534l1.091,0.326
		l19.573,5.866l0.472-1.167l65.632-162.148l2.292-33.061L196.79,613.519z"/>
	<g id="XMLID_786_">
		<path fill="#A5A6A9" d="M200.613,641.528l5.866,42.987l6.687,155.146l0.114,0.004l0.084-2.243l19.973,0.608l31.517-164.716
			l1.699-67.297c-21.654,3.456-51.868,6.006-73.303,7.5L200.613,641.528z"/>
	</g>
	<polygon fill="#4B505B" points="234.713,838.073 233.336,838.031 213.364,837.423 213.28,839.666 212.982,847.614 233.952,858.456 
		245.008,848.59 	"/>
	<g>
		<path fill="#DBC6A4" d="M164.457,275.005c-0.667-1.686-1.334-3.372-2-5.058c0.051-0.038,0.103-0.072,0.153-0.11
			c8.852-6.713,12.896-18.403,12.413-29.453c-0.315-7.209-2.329-14.186-5.219-20.829c-2.211-3.8-4.923-7.288-8.071-10.271
			c-5.698-5.399-13.411-9.69-20.943-9.428c-3.063,0.107-1.787,2.494-5.49,0.608c-0.5-0.255-1.088-0.778-1.679-1.429
			c-0.542,0.594-0.917,1.014-1.021,1.121c-3.556,3.699-7.484,5.466-11.751,8.148c-6.476,4.07-9.959,12.723-8.407,20.88
			c0.642,3.375,2.062,6.85,1.248,10.085c-0.711,2.824-2.97,4.772-4.407,7.223c-0.839,1.431-1.365,3.063-1.606,4.76
			c7.087,12.877,20.539,23.235,34.377,24.507c0.011,0.05,0.024,0.101,0.035,0.152c0.185,0.819,0.375,1.636,0.603,2.434
			c1.014,3.547,3.428,7.296,7.125,7.561c1.688,0.121,3.329-0.525,4.899-1.16c3.169-1.281,6.338-2.563,9.507-3.843
			c0.649-0.263,1.365-0.591,1.609-1.244c0.213-0.574-0.013-1.207-0.237-1.775C165.216,276.924,164.836,275.965,164.457,275.005z"/>
	</g>
	<g>
		<path fill="#3A332D" d="M232.691,185.276c-7.494-0.451-14.118,3.936-20.21,8.166c-1.085-7.372-8.175-12.451-14.98-14.44
			c-6.804-1.99-13.966-1.977-20.619-4.58c-7.997-3.13-15.896-10.043-23.837-7.792c-7.148,2.027-11.61,10.72-16.055,18.436
			c-0.117-0.124-0.234-0.249-0.351-0.371c-3.421-3.556-7.151-6.968-11.561-8.791c-14.257-5.893-12.621,11.904-23.579,10.961
			c-2.644-0.228-4.881-2.32-7.375-3.419c-4.711-2.075-9.958-0.432-14.174,2.132c-4.216,2.563-7.934,6.032-12.471,7.947
			c-4.028,1.7-8.584,2.121-12.339,4.375c-5.642,3.386-4.486,9.509-5.488,15.091c-1.11,6.179-2.808,14.502-6.149,19.631
			c-2.408,3.696-6.133,6.109-9.257,9.126s-5.812,7.22-5.144,11.837c0.633,4.375,4.102,7.927,5.099,12.248
			c1.367,6.46,0.662,9.95,3.542,16.358c1.486,3.307,3.123,6.801,6.022,8.811c3.82,2.648,8.687,1.954,12.877,0.685
			c4.188-1.269,8.461-3.026,12.865-2.163c9.548,1.872,9.024,11.308,12.454,18.712c2.286,4.934,6.365,8.679,11.063,10.868
			c6.031,2.809,13.083,3.049,18.67-0.067c8.427-4.699,12.249-15.63,10.545-25.708c-0.62-3.664-2.175-7.022-3.289-10.522
			c-0.42-1.32-0.783-2.659-1.001-4.043c-0.771-4.877,1.13-12.019-3.829-15.323c-1.208-0.805-2.665-1.123-3.78-2.074
			c-0.901-0.769-1.49-1.881-1.914-3.013c-0.853-2.277-1.082-4.754-0.749-7.103c0.241-1.697,0.767-3.329,1.606-4.76
			c1.437-2.45,3.696-4.399,4.407-7.223c0.814-3.235-0.606-6.71-1.248-10.085c-1.552-8.158,1.931-16.81,8.407-20.88
			c4.267-2.682,8.195-4.449,11.751-8.148c0.103-0.107,0.479-0.527,1.021-1.121c0.591,0.651,1.179,1.174,1.679,1.429
			c3.703,1.886,2.428-0.501,5.49-0.608c7.533-0.263,15.245,4.028,20.943,9.428c3.148,2.983,5.86,6.471,8.071,10.271
			c3.939,6.77,6.271,14.54,6.515,22.292c0.349,11.074-5.393,15.958-0.119,27.118c1.171,2.478,2.614,4.827,4.268,7.003
			c4.525,5.954,10.671,10.577,17.476,12.735c0.774,0.002,1.543-0.033,2.309-0.094c3.84-0.306,7.552-1.397,10.964-3.125
			c3.403-1.724,6.508-4.076,9.137-6.92c3.944-4.268,6.823-9.631,8.048-15.596c0.667-3.248,0.986-6.845,3.12-9.193
			c1.718-1.89,4.339-2.622,6.097-4.47c7.313-7.686-6.645-21.637-3.503-32.199c1.986-6.677,10.2-9.282,11.985-16.035
			C248.092,193.531,240.185,185.727,232.691,185.276z"/>
	</g>
	<g>
		<g>
			<path fill="#C7D5D2" d="M389.981,239.584c-2.449-0.444-27.914-7.667-27.918-7.667c1.492,0.235-61.405,46.407-67.361,50
				c-18.286,11.032-52.875-2.432-74.349-3.353c-2.629,2.844-5.734,5.196-9.137,6.92c-3.412,1.728-7.124,2.819-10.964,3.125
				c-0.765,0.061-1.535,0.097-2.309,0.094c-6.805-2.158-12.951-6.781-17.476-12.735c-2.623-0.611-4.717-1.057-6.127-1.363
				l-9.883,0.4c0.379,0.959,0.759,1.918,1.138,2.878c0.225,0.568,0.451,1.201,0.237,1.775c-0.244,0.653-0.96,0.981-1.609,1.244
				c-3.169,1.281-6.338,2.562-9.507,3.843c-1.57,0.635-3.211,1.281-4.899,1.16c-3.697-0.265-6.111-4.014-7.125-7.561
				c-0.228-0.798-0.418-1.615-0.603-2.434l-18.757,0.76l-4.383,6.137c1.114,3.5,2.669,6.858,3.289,10.522
				c1.704,10.078-2.118,21.009-10.545,25.708c-5.587,3.116-12.639,2.875-18.67,0.067l-3.898,220.139l18.409,83.107
				c0,0,13.237,0.362,33.704,0.091c15.794-0.209,35.896-0.797,57.557-2.221c1.247-0.082,2.498-0.167,3.754-0.254
				c20.273-1.413,41.746-3.57,62.226-6.839c7.895-1.26,15.643-2.683,23.115-4.293c0,0,19.218-52.225-8.395-183.268
				c-4.338-20.589-10.34-43.726-16.166-64.217c18.409-15.793,67.733-43.093,83.845-61.224c17.649-19.86,42.97-60.513,43.527-60.412
				C390.698,239.714,390.432,239.666,389.981,239.584z"/>
		</g>
	</g>
	<path fill="#C7D5D2" d="M663.401,354.655c-4.377-13.025-17.929-16.679-29.691-8.325c-17.811,12.649-33.589,23.902-56.029,15.013
		c-27.295-10.812-42.308-43.359-30.583-70.249c14.458-33.163,48.036-33.366,76.843-19.915c12.338,5.761,25.999-2.572,27.546-15.181
		l-8.598-71.207l-5.716-47.333l-0.201-1.664l-38.334,4.629l-284.092,34.334l-0.003-0.029l-14.513,1.752l0.201,1.664l5.278,43.706
		l9.191,76.11c-0.099,0.451-0.241,0.882-0.371,1.319l11.233,92.941c0.224,0.377,0.458,0.746,0.657,1.142l14.498,120.06l1.667-0.201
		l0.143,0.922l43.706-5.282l76.108-9.198c11.602,2.544,18.91,15.484,13.423,27.236c-13.448,28.809-13.242,62.387,19.922,76.842
		c26.891,11.722,60.192-1.943,71.001-29.238c8.887-22.441-2.738-39.85-15.773-57.38c-7.504-10.092-3.468-23.804,6.828-28.989
		l120.059-14.511l-5.964-49.345l-0.029,0.003L663.401,354.655z"/>
	<polygon fill="#DBC6A4" points="311.984,407.912 311.612,419.464 332.003,426.887 343.755,417.983 343.763,404.534 
		332.417,403.901 332.062,400.944 328.346,398.554 	"/>
	<path fill="#C7D5D2" d="M252.286,382.382l62.916,12.442c0,0-3.625,38.374-3.59,35.184c0.035-3.19-82.617-6.936-82.617-6.936
		L252.286,382.382z"/>
	<polygon fill="#FFFFFF" points="1221.789,255.955 1178.75,263.538 1102.435,322.646 1000.541,296.044 988.737,320.531 
		1083.47,366.119 1124.745,376.53 1178.371,359.03 	"/>
	<polygon fill="#DBC6A4" points="997.771,312.069 981.83,320.046 970.442,318.758 970.371,314.872 977.051,312.208 955.433,307.518 
		953.449,297.086 979.355,290.932 1002.833,297.769 	"/>
	<path fill="#C7D5D2" d="M1174.096,817.673L1154,831.907l-6.699,10.886c0,0,7.536,3.35,11.723,4.187
		c4.187,0.838,36.843-4.187,36.843-4.187v-19.259L1174.096,817.673z"/>
	<path fill="#C7D5D2" d="M1330.25,823.735l-7.417,13.49c0,0-4.641,17.043-0.62,15.875s26.433-5.063,27.34-7.942
		c0.907-2.879,10.633-14.424,11.773-16.499c1.142-2.076-3.699-15.961-3.699-15.961L1330.25,823.735z"/>
	<path fill="#414242" d="M1192.802,506.255l64.888,193.709l72.56,123.771l28.143-8.176l-48.105-141.166
		c0,0-5.811-141.807-15.312-183.517L1192.802,506.255z"/>
	<polygon fill="#414242" points="1141.44,535.488 1166.56,823.534 1196.705,823.534 1205.916,676.162 1223.22,545.687 
		1157.349,468.501 	"/>
	<path fill="#445D7B" d="M1140.473,351.174c3.12-14.846,4.35-30.826,11.702-44.668c7.354-13.842,21.242-24.328,31.965-36.097
		c4.543-4.986,9.391-10.176,16.144-12.553c4.628-1.629,9.733-1.775,14.719-1.901c15.12-0.381,30.241-0.762,45.362-1.143
		c5.513-0.139,11.246-0.241,16.271,1.75c7.53,2.985,11.787,9.921,15.508,16.392c9.504,16.527,11.257,34.858,12.107,53.538
		c-0.028,0.176,11.797,234.622,2.417,230.219c-11.68-5.481-25.042-8.395-38.146-10.434c-18.478-2.961-37.342-4.843-56.173-5.307
		l-33.149,2.236h-20.004c-12.006,1.166-11.021,4.774-23.359,4.024C1127.943,546.753,1136.898,368.19,1140.473,351.174z"/>
	<g>
		<path fill="#DBC6A4" d="M1227.332,263.538c7.504-0.326,15.009-0.652,22.513-0.978c0.405-5.977,0.331-11.985-0.222-17.951
			c6.343-1.842,13.713-4.723,15.157-11.167c0.455-2.029,0.217-4.143-0.022-6.209c-0.993-8.542-1.985-17.083-2.979-25.625
			c-0.344-2.955-0.714-5.997-2.166-8.592c-2.549-4.554-7.861-6.78-12.945-7.956c-12.976-3.001-27.41-0.955-38.044,7.062
			c-2.83,2.134-5.427,4.744-6.804,8.01c-2.123,5.036-1.063,10.779,0.03,16.134c1.009,4.942,2.018,9.885,3.026,14.827
			c1.16,5.685,2.932,12.172,8.213,14.572c2.805,1.274,6.207,1.136,8.711,2.931C1226.215,251.761,1225.221,258.532,1227.332,263.538z
			"/>
		<path fill="#434244" d="M1185.754,154.984c1.666-0.297,3.365-0.649,5.087-1.398c5.437-2.366,9.246-7.111,15.019-9.332
			c11.677-4.492,26.321-3.84,37.791,0.984c10.976,4.617,25.956,6.393,35.78,12.596c4.102,2.59,7.275,6.459,9.683,10.671
			c8.339,14.594,7.313,34.021-2.52,47.654c-2.206,3.059-4.796,5.822-7.502,8.449c-5.601,5.437-12.313,12.162-19.698,13.882
			c0.188-6.511,7.247-26.682,2.55-32.288c-6.229-7.433-18.454-7.243-27.215-6.422c-10.438,0.978-19.032-2.374-29.442-1.853
			c-5.303,0.266-11.299,1.332-15.364-2.083c-4.7-3.947-14.638-16.484-16.994-21.986c-2.063-4.817-0.688-10.75,2.899-14.57
			C1178.923,155.99,1182.265,155.606,1185.754,154.984z"/>
	</g>
	<path fill="#FDFCF1" d="M1229.361,263.353c-0.785,5.494-2.47,11.728-2.47,11.728s-41.812,120.447-45.786,130.064
		c-0.889,2.149-1.328,4.448-1.328,6.773l9.6,28.192l19.051-23.56l25.849-134.963l6.278-5.389l2.204-13.683L1229.361,263.353z"/>
	<path fill="#405972" d="M1057.523,460.721l109.238-313.979l-1.584-0.551L846.218,35.22l-38.066,109.413
		c-5.023,14.438-23.966,17.725-33.561,5.82c-19.95-24.754-50.192-39.345-77.768-15.926c-22.359,18.989-24.743,54.905-4.989,76.623
		c16.24,17.855,36.988,15.078,58.466,11.087c14.699-2.731,26.877,11.424,21.964,25.545l-37.567,107.98l112.334,39.083
		c12.24,0.924,22.939-10.061,20.525-23.012c-4.004-21.476-6.793-42.222,11.053-58.472c21.707-19.767,57.624-17.403,76.626,4.945
		c23.436,27.561,8.862,57.812-15.88,77.777c-10.598,8.551-9.115,24.484,1.531,31.416l67.741,23.568l45.028,15.666l1.583,0.551
		L1057.523,460.721L1057.523,460.721z"/>
	<polygon fill="#445D7B" points="1265.706,297.092 1188.598,369.9 1074.212,335.801 1066.028,361.531 1191.746,419.046 
		1224.828,419.046 1294.733,359.577 	"/>
	<polygon fill="#DBC6A4" points="1066.766,359.211 1046.855,359.577 1034.699,342.418 1065.603,325.237 1074.212,335.801 	"/>
</g>
</svg>
