<?xml version="1.0" encoding="utf-8"?>
<!-- Generator: Adobe Illustrator 16.0.0, SVG Export Plug-In . SVG Version: 6.00 Build 0)  -->
<!DOCTYPE svg PUBLIC "-//W3C//DTD SVG 1.1//EN" "http://www.w3.org/Graphics/SVG/1.1/DTD/svg11.dtd">
<svg version="1.1" id="Слой_1" xmlns="http://www.w3.org/2000/svg" xmlns:xlink="http://www.w3.org/1999/xlink" x="0px" y="0px"
	 width="1316px" height="1664px" viewBox="0 0 1316 1664" enable-background="new 0 0 1316 1664" xml:space="preserve">
<g>
	<path fill="#FFFFFF" d="M264.717,48.646c6.776,0,13.259,0.998,19.229,2.824c7.873-19.102,27.435-32.629,50.326-32.629
		c25.442,0,46.777,16.717,52.508,39.226c4.396-1.661,9.184-2.579,14.204-2.579c21.179,0,38.351,16.319,38.351,36.453h-56.108
		h-20.593h-43.886h-33.435H210.69C210.69,68.031,234.879,48.646,264.717,48.646z"/>
</g>
<g>
	<g>
		<path fill="#F09B56" d="M4836.193,442.559c-0.111,270.358-7.682,323.281-75.572,383.855
			c-26.588,23.722-75.483,73.004-216.565,97.537c-42.353,7.369-92.997,12.506-153.839,14.053
			c-24.824,0.633-47.608-0.268-68.449-2.537c-17.478-1.891-33.585-4.749-48.39-8.456
			c-155.053-38.854-166.635-171.704-98.818-283.466c17.961-29.595,38.482-56.801,60.001-82.167
			c33.213-39.175,68.822-73.973,101.066-106.456c29.722-29.93,56.592-57.895,76.123-85.501c8.24-11.634,15.17-23.201,20.461-34.828
			c1.259-2.754,2.524-5.479,3.797-8.173c4.176-8.79,8.471-17.231,12.803-25.307c8.143-15.178,16.436-29.045,24.437-41.453
			c6.379-9.914,12.572-18.898,18.333-26.862c19.807-27.37,34.508-42.732,34.508-42.732s1.839-0.864,5.225-2.271
			c1.802-0.752,4.057-1.66,6.707-2.672c1.064-0.41,2.188-0.834,3.379-1.273c1.176-0.432,2.419-0.886,3.722-1.347
			c1.191-0.417,2.427-0.849,3.706-1.288c1.505-0.514,3.066-1.034,4.697-1.563c0.953-0.313,1.929-0.626,2.926-0.938
			c0.588-0.187,1.184-0.372,1.786-0.558c0.224-0.067,0.454-0.142,0.685-0.209c20.127-6.17,47.742-12.602,77.791-13.674
			C4725.815,161.096,4836.298,205.033,4836.193,442.559z"/>
	</g>
	<g>
		<path fill="#213A70" d="M4475.487,849.573c0,0,2.22,18.123,5.164,26.116c2.943,7.994,18.933,26.445,12.179,44.172
			c-7.323,19.225-39.293,0.695-52.331-5.17c-13.04-5.866-10.071-16.503-11.461-29.536c-1.391-13.033-7.753-13.386-5.405-22.551
			s16.609-26.708,16.609-26.708L4475.487,849.573z"/>
	</g>
	<g>
		<g>
			<path fill="#EEA886" d="M4446.4,826.412c0,0-8.185,11.453-7.959,11.766c0.226,0.314,35.053,21.52,37.479,14.641
				c1.927-5.463,2.734-13.381,2.734-13.381L4446.4,826.412z"/>
		</g>
	</g>
	<g>
		<path fill="#213A70" d="M4328.334,862.388c0,0-10.626,9.313-20.167,23.625c-9.542,14.312-34.87,15.072-35.954,34.608
			c-1.084,19.537,34.436,20.139,53.086,13.778c18.649-6.36,21.469-25.442,32.744-30.213c11.277-4.771,17.133-8.633,16.266-17.946
			c-0.868-9.314-7.107-24.434-7.107-24.434s-7.007,2.237-11.127,2.692C4351.954,864.953,4338.092,865.113,4328.334,862.388z"/>
	</g>
	<g>
		<path fill="#FFCA55" d="M4456.164,333.07c0,0-7.147,42.506-12.907,70.581c0,0,0,0,0,0.003
			c-2.338,11.384-4.446,20.397-5.755,23.234c-1.647,3.571-15.064,17.977-31.482,34.882c-28.812,29.659-66.876,67.007-66.876,67.007
			l-14.88-28.246c0,0,33.811-39.636,56.73-66.084c10.609-12.239,18.885-21.651,20.398-23.008
			c4.793-4.288,10.354-46.526,18.172-81.33c7.818-34.803,23.485-54.035,23.485-54.035L4456.164,333.07z"/>
	</g>
	<g>
		<path fill="#EEA886" d="M4406.02,461.771c-28.812,29.659-66.876,67.007-66.876,67.007l-14.88-28.246
			c0,0,33.811-39.636,56.73-66.084C4388.02,437.893,4400.917,446.111,4406.02,461.771z"/>
	</g>
	<g>
		<path fill="#EEA886" d="M4330.003,849.372l-1.669,13.016c0,0,18.492,6.533,38.867-0.581l0.414-11.572L4330.003,849.372z"/>
	</g>
	<g>
		<path fill="#FFCA55" d="M4592.511,523.032c1.064,3.783-195.866,0-195.866,0s54.476-39.65,58.007-50.243
			c3.53-10.592-13.871-74.146-16.141-94.827c-1.816-16.546-6.366-90.581,4.539-101.888c11.401-11.822,52.458-24.212,52.458-24.212
			l59.855,2.222c0,0,9.877,2.065,16.939,5.344c7.061,3.279,47.444,17.663,54.001,37.84c6.558,20.176-40.294,85.045-40.294,85.045
			s-0.092,2.916-0.232,7.692c0,0.002,0,0.002,0,0.002c-0.182,6.371-0.449,16.053-0.693,26.555
			c-0.313,13.601-0.588,28.576-0.588,39.517C4584.496,481.801,4591.449,519.25,4592.511,523.032z"/>
	</g>
	<g>
		<path fill="#E8E8E8" d="M4592.512,523.033c0,0,26.786,39.341,27.164,66.199c0.379,26.857-47.534,116.813-54.785,129.684
			c-21.797,38.686-81.575,122.136-81.575,122.136s-10.305-0.261-42.459-12.744c0,0,39.768-110.228,44.81-121.673
			c21.377-48.53,33.311-82.957,26.123-91.279s-26.781-16.666-32.455-21.584s-104.526,18.679-114.883,21.364
			c-26.82,6.956-14.596,53.623-8.662,74.545c9.927,35.001,18.604,161.408,18.604,161.408s-19.104,8.14-51.102,1.261
			c0,0-62.834-228.24-64.852-250.938s-3.008-60.124,151.833-88.572L4592.512,523.033z"/>
	</g>
	<g>
		<path fill="#EEA886" d="M4511.932,121.816c0,0-51.958-11.721-40.09,53.668c11.868,65.388,24.363,70.527,55.711,56.995
			c31.346-13.532,28.539-55.426,30.117-75.969C4559.248,135.969,4528.506,122.53,4511.932,121.816z"/>
	</g>
	<g>
		<path fill="#EEA886" d="M4498.183,268.646c0,0,23.011,24.396,59.378,2.225c0,0-8.133-52.869-3.853-78.619
			c4.281-25.752-47.449,39.899-47.449,39.899c0.682,0.357,1.131,2.814,1.235,6.311c0.089,2.964-0.069,6.673-0.543,10.479
			C4505.883,257.501,4503.22,266.541,4498.183,268.646z"/>
	</g>
	<g>
		<path fill="#3A3F47" d="M4555.139,190.063c0,0-1.342-20.602-8.866-21.245c-7.525-0.643-8.683,7.654-8.683,7.654l-7.6,1.435
			c0,0,2.401-18.058-5.111-21.212c-7.514-3.155-48.684,9.94-54.714,4.641c-6.031-5.3-3.193-41.929,7.714-46.941
			c10.908-5.012,41.033-16.245,63.105-1.306c0,0,17.204-1.961,19.756,11.923C4563.291,138.896,4559.815,179.74,4555.139,190.063z"/>
	</g>
	<g>
		<path fill="#A77860" d="M4506.951,248.94c37.519-11.569,40.344-34.16,40.385-34.513c-12.354,21.229-39.842,24.034-39.842,24.034
			C4507.583,241.426,4507.425,245.135,4506.951,248.94z"/>
	</g>
	<g>
		<path fill="#EEA886" d="M4572.918,259.713c0,0-27.476,54.695-71.862,51.164s-7.565-58.506-5.548-59.015
			C4497.725,251.303,4541.029,240.514,4572.918,259.713z"/>
	</g>
	<g>
		<path fill="#FFCA55" d="M4374.118,520.263c0,0,136.001,16.767,218.394,2.771l-157.437-19.671
			C4435.075,503.362,4434.145,507.376,4374.118,520.263z"/>
	</g>
	<g>
		<path fill="#EEA886" d="M4475.836,497.169l-10.13,5.132c0,0,2.306,16.094,7.854,20.969l11.369-2.9
			C4484.93,520.369,4482.561,502.717,4475.836,497.169z"/>
	</g>
	<g>
		<path fill="#FFCA55" d="M4633.208,464.215c-2.024,2.345-28.763,13.099-58.966,24.732l-0.003,0.003
			c-41.263,15.896-87.808,30.932-87.808,30.932l-10.596-22.713c0,0,48.742-26.485,81.68-45.06
			c15.559-8.774,27.588-15.783,29.288-17.402c5.296-5.044,6.668-13.132,2.774-27.237c-3.895-14.105-12.862-78.938-13.871-86.505
			s2.521-27.742,21.438-28.75c18.914-1.01,28.541,4.33,28.541,4.33s4.748,1.975,8.279,47.875S4638,458.666,4633.208,464.215z"/>
	</g>
	<g>
		<path fill="#C9A043" d="M4585.777,390.005c0,0.002,0,0.002,0,0.002c-0.182,6.371-0.449,16.053-0.693,26.555
			c-18.461-45.25-7.796-81.362-7.614-81.97C4575.473,346.871,4585.633,389.402,4585.777,390.005z"/>
	</g>
	<g>
		<path fill="#C9A043" d="M4443.257,403.651c0,0,0,0,0,0.003c-2.338,11.384-4.446,20.397-5.755,23.234
			c-6.307-30.516-0.634-69.584-0.634-69.584C4437.73,375.967,4443.257,403.651,4443.257,403.651z"/>
	</g>
	<g>
		<path fill="#EEA886" d="M4574.242,488.947l-0.003,0.003c-41.263,15.896-89.31,31.419-89.31,31.419l-9.094-23.2
			c0,0,48.742-26.485,81.68-45.06C4557.516,452.109,4569.498,457.944,4574.242,488.947z"/>
	</g>
	<g>
		<polygon fill="#444C94" points="4472.903,521.716 4279.602,518.872 4377.198,568.427 		"/>
	</g>
	<g>
		<polygon fill="#303669" points="4377.198,568.427 4472.903,531.355 4472.903,521.716 4369.633,558.97 		"/>
	</g>
	<g>
		<g>
			<path fill="#EEA886" d="M4467.895,502.652c0,0-12.075-1.88-20.422-3.822c-6.458-1.504-22.517,0.568-26.606,4.713
				s-17.098,33.023-19.558,34.786c-2.461,1.763,1.26,5.841,5.581,3.792c0,0,3.966,12.637,13.755,7.907
				c9.791-4.73,16.438-15.06,21.564-16.88c5.128-1.818,34.982-10.997,34.982-10.997S4475.586,499.576,4467.895,502.652z"/>
		</g>
	</g>
	<g>
		<g>
			<path fill="#EEA886" d="M4423.814,501.649c0,0-7.757,3.747-9.781,5.417c-2.025,1.669-10.232,7.813-12.221,9.258
				c-1.988,1.446,2.999,5.556,17.672-0.799C4434.158,509.171,4423.814,501.649,4423.814,501.649z"/>
		</g>
	</g>
	<g>
		<polygon fill="#303669" points="4377.198,568.427 4319.699,411.44 4134.342,414.467 4189.14,559.133 		"/>
	</g>
	<g>
		<path fill="#EEA886" d="M4537.75,167.742c0.685-5.768,12.087-7.883,13.005,0.766c0.919,8.65-5.181,23.829-9.509,22.336
			C4536.919,189.351,4536.806,175.697,4537.75,167.742z"/>
	</g>
</g>
<g>
	<linearGradient id="SVGID_1_" gradientUnits="userSpaceOnUse" x1="4857.5908" y1="904.457" x2="4857.5908" y2="798.0669">
		<stop  offset="0" style="stop-color:#FF9F55"/>
		<stop  offset="1" style="stop-color:#FFD255"/>
	</linearGradient>
	<path fill="url(#SVGID_1_)" d="M5058.882,913.256h-375.204c-15.121,0-27.378-12.258-27.378-27.379v-44.441
		c0-15.121,12.257-27.378,27.378-27.378h375.204V913.256z"/>
	<path fill="#FF9F55" d="M5123.319,824.271v78.778h6.581v10.212h-271.96c-15.121,0-27.378-12.258-27.378-27.379v-44.444
		c0-15.12,12.257-27.378,27.378-27.378h271.96v10.211H5123.319z"/>
	<path fill="#EFF7FE" d="M5123.313,903.046h-245.298c-15.12,0-27.378-12.258-27.378-27.378v-24.022
		c0-15.12,12.258-27.378,27.378-27.378h245.298V903.046z"/>
	<linearGradient id="SVGID_2_" gradientUnits="userSpaceOnUse" x1="4853.8359" y1="664.5737" x2="4853.8359" y2="811.8506">
		<stop  offset="0" style="stop-color:#40D5E6"/>
		<stop  offset="1" style="stop-color:#5577FF"/>
	</linearGradient>
	<path fill="url(#SVGID_2_)" d="M5076.41,814.054h-410.748c-19,0-34.4-15.401-34.4-34.399V733.09c0-18.998,15.4-34.4,34.4-34.4
		h410.748V814.054z"/>
	<path fill="#5284FC" d="M5149.27,710.568v91.616h5.668v11.876h-223.398c-18.998,0-34.399-15.401-34.399-34.4v-46.567
		c0-18.998,15.401-34.399,34.399-34.399h223.398v11.875H5149.27z"/>
	<path fill="#EFF7FE" d="M5149.265,802.18h-200.437c-18.998,0-34.4-15.4-34.4-34.399v-22.817c0-18.998,15.402-34.399,34.4-34.399
		h200.437V802.18z"/>
	<linearGradient id="SVGID_3_" gradientUnits="userSpaceOnUse" x1="4955.1924" y1="671.6406" x2="4955.1924" y2="561.5322">
		<stop  offset="0" style="stop-color:#FF9F55"/>
		<stop  offset="1" style="stop-color:#FFD255"/>
	</linearGradient>
	<path fill="url(#SVGID_3_)" d="M4780.484,698.668h312.188c20.561,0,37.229-16.668,37.229-37.229V594.46
		c0-20.561-16.668-37.229-37.229-37.229h-312.188V698.668z"/>
	<path fill="#FF9F55" d="M4724.557,571.794v112.323h-5.711v14.559h222.577c20.561,0,37.229-16.668,37.229-37.229v-66.983
		c0-20.561-16.668-37.228-37.229-37.228h-222.577v14.558H4724.557z"/>
	<path fill="#EFF7FE" d="M4724.563,684.11h196.827c20.437,0,37.005-16.567,37.005-37.005v-38.312
		c0-20.438-16.568-37.005-37.005-37.005h-196.827V684.11z"/>
	<linearGradient id="SVGID_4_" gradientUnits="userSpaceOnUse" x1="4829.1768" y1="375.5991" x2="4829.1768" y2="499.2977">
		<stop  offset="0" style="stop-color:#40D5E6"/>
		<stop  offset="1" style="stop-color:#5577FF"/>
	</linearGradient>
	<path fill="url(#SVGID_4_)" d="M5014.26,557.198H4683.23c-21.615,0-39.137-17.522-39.137-39.138v-63.161
		c0-21.615,17.521-39.138,39.137-39.138h331.029V557.198z"/>
	<path fill="#5284FC" d="M5073.51,430.324v112.322h6.051v14.56h-236.099c-21.616,0-39.138-17.522-39.138-39.138v-63.165
		c0-21.615,17.521-39.138,39.138-39.138h236.099v14.559H5073.51z"/>
	<path fill="#EFF7FE" d="M5073.504,542.641h-209.662c-21.524,0-38.974-17.449-38.974-38.975v-34.373
		c0-21.524,17.449-38.974,38.974-38.974h209.662V542.641z"/>
	<linearGradient id="SVGID_5_" gradientUnits="userSpaceOnUse" x1="4922.542" y1="314.6055" x2="4922.542" y2="413.5453">
		<stop  offset="0" style="stop-color:#40D5E6"/>
		<stop  offset="1" style="stop-color:#5577FF"/>
	</linearGradient>
	<path fill="url(#SVGID_5_)" d="M5107.625,415.722h-345.873c-13.417,0-24.293-10.876-24.293-24.292V332.98
		c0-13.416,10.876-24.293,24.293-24.293h345.873V415.722z"/>
	<path fill="#5284FC" d="M5166.875,319.709v85.001h6.051v11.019h-250.943c-13.416,0-24.292-10.877-24.292-24.293v-58.452
		c0-13.416,10.876-24.292,24.292-24.292h250.943v11.018H5166.875z"/>
	<path fill="#EFF7FE" d="M5166.869,404.705H4940.44c-13.416,0-24.292-10.876-24.292-24.292v-36.416
		c0-13.417,10.876-24.292,24.292-24.292h226.429V404.705z"/>
</g>
<path fill="#587AA3" d="M127.341,1424.792H644.25c21.06,0,38.132-17.072,38.132-38.133V86.068c0-21.06-17.072-38.132-38.132-38.132
	H127.341c-21.06,0-38.132,17.072-38.132,38.132v1300.591C89.209,1407.72,106.282,1424.792,127.341,1424.792z"/>
<path fill="#88BDED" d="M103.549,1435.364h624.587c21.06,0,38.132-17.072,38.132-38.133V73.739
	c0-21.061-17.072-38.133-38.132-38.133H103.549c-21.06,0-38.132,17.072-38.132,38.133v1323.492
	C65.417,1418.292,82.49,1435.364,103.549,1435.364z"/>
<path opacity="0.73" fill="#6BB0FF" d="M707.828,86.074v1300.573c0,21.06-17.072,38.132-38.132,38.132H152.787
	c-21.061,0-38.132-17.072-38.132-38.132V86.074c0-21.06,17.071-38.132,38.132-38.132h516.909
	C690.755,47.942,707.828,65.015,707.828,86.074z"/>
<defs>
	<filter id="Adobe_OpacityMaskFilter" filterUnits="userSpaceOnUse" x="114.629" y="47.903" width="641.37" height="1376.885">
		<feFlood  style="flood-color:white;flood-opacity:1" result="back"/>
		<feBlend  in="SourceGraphic" in2="back" mode="normal"/>
	</filter>
</defs>
<mask maskUnits="userSpaceOnUse" x="114.629" y="47.903" width="641.37" height="1376.885" id="SVGID_6_">
	<g filter="url(#Adobe_OpacityMaskFilter)">
		<defs>
			<filter id="Adobe_OpacityMaskFilter_1_" filterUnits="userSpaceOnUse" x="114.629" y="47.903" width="641.37" height="1376.885">
				<feFlood  style="flood-color:white;flood-opacity:1" result="back"/>
				<feBlend  in="SourceGraphic" in2="back" mode="normal"/>
			</filter>
		</defs>
		<mask maskUnits="userSpaceOnUse" x="114.629" y="47.903" width="641.37" height="1376.885" id="SVGID_6_">
			<g filter="url(#Adobe_OpacityMaskFilter_1_)">
			</g>
		</mask>
		<linearGradient id="SVGID_7_" gradientUnits="userSpaceOnUse" x1="435.3145" y1="140.4272" x2="435.3144" y2="1888.2316">
			<stop  offset="0" style="stop-color:#FFFFFF"/>
			<stop  offset="1" style="stop-color:#000000"/>
		</linearGradient>
		<path mask="url(#SVGID_6_)" fill="url(#SVGID_7_)" d="M756,86.035v1300.62c0,21.061-17.072,38.133-38.133,38.133H152.762
			c-21.06,0-38.133-17.072-38.133-38.133V86.035c0-21.06,17.073-38.132,38.133-38.132h565.104C738.927,47.903,756,64.976,756,86.035
			z"/>
	</g>
</mask>
<path fill="#CCCCCC" d="M756,86.035v1300.62c0,21.061-17.072,38.133-38.133,38.133H152.762c-21.06,0-38.133-17.072-38.133-38.133
	V86.035c0-21.06,17.073-38.132,38.133-38.132h565.104C738.927,47.903,756,64.976,756,86.035z"/>
<g>
	<g>
		<path fill="#4DA8F2" d="M928.836,494.009H818.869c-3.713,0-6.723-3.01-6.723-6.723v-23.748c0-3.713,3.01-6.723,6.723-6.723
			h109.967c3.713,0,6.723,3.01,6.723,6.723v23.748C935.559,490.999,932.549,494.009,928.836,494.009z"/>
	</g>
	<g>
		<path fill="#E8E8E8" d="M928.836,583.192H818.869c-3.713,0-6.723-3.01-6.723-6.723v-23.748c0-3.713,3.01-6.723,6.723-6.723
			h109.967c3.713,0,6.723,3.01,6.723,6.723v23.748C935.559,580.183,932.549,583.192,928.836,583.192z"/>
	</g>
	<g>
		<path fill="#E8E8E8" d="M928.836,672.377H818.869c-3.713,0-6.723-3.01-6.723-6.723v-23.748c0-3.713,3.01-6.723,6.723-6.723
			h109.967c3.713,0,6.723,3.01,6.723,6.723v23.748C935.559,669.367,932.549,672.377,928.836,672.377z"/>
	</g>
	<g>
		<path fill="#E8E8E8" d="M928.836,761.562H818.869c-3.713,0-6.723-3.011-6.723-6.724v-23.747c0-3.713,3.01-6.724,6.723-6.724
			h109.967c3.713,0,6.723,3.011,6.723,6.724v23.747C935.559,758.551,932.549,761.562,928.836,761.562z"/>
	</g>
	<g>
		<path fill="#E8E8E8" d="M928.836,850.745H818.869c-3.713,0-6.723-3.01-6.723-6.723v-23.748c0-3.713,3.01-6.723,6.723-6.723
			h109.967c3.713,0,6.723,3.01,6.723,6.723v23.748C935.559,847.735,932.549,850.745,928.836,850.745z"/>
	</g>
	<g>
		<path fill="#E8E8E8" d="M928.836,939.929H818.869c-3.713,0-6.723-3.01-6.723-6.723v-23.748c0-3.713,3.01-6.723,6.723-6.723
			h109.967c3.713,0,6.723,3.01,6.723,6.723v23.748C935.559,936.919,932.549,939.929,928.836,939.929z"/>
	</g>
	<g>
		<path fill="#4DA8F2" d="M1014.908,494.009h-21.67c-3.713,0-6.723-3.01-6.723-6.723v-23.748c0-3.713,3.01-6.723,6.723-6.723h21.67
			c3.713,0,6.723,3.01,6.723,6.723v23.748C1021.631,490.999,1018.621,494.009,1014.908,494.009z"/>
	</g>
	<g>
		<path fill="#E8E8E8" d="M1014.908,583.192h-21.67c-3.713,0-6.723-3.01-6.723-6.723v-23.748c0-3.713,3.01-6.723,6.723-6.723h21.67
			c3.713,0,6.723,3.01,6.723,6.723v23.748C1021.631,580.183,1018.621,583.192,1014.908,583.192z"/>
	</g>
	<g>
		<path fill="#E8E8E8" d="M1014.908,672.377h-21.67c-3.713,0-6.723-3.01-6.723-6.723v-23.748c0-3.713,3.01-6.723,6.723-6.723h21.67
			c3.713,0,6.723,3.01,6.723,6.723v23.748C1021.631,669.367,1018.621,672.377,1014.908,672.377z"/>
	</g>
	<g>
		<path fill="#E8E8E8" d="M1014.908,761.562h-21.67c-3.713,0-6.723-3.011-6.723-6.724v-23.747c0-3.713,3.01-6.724,6.723-6.724h21.67
			c3.713,0,6.723,3.011,6.723,6.724v23.747C1021.631,758.551,1018.621,761.562,1014.908,761.562z"/>
	</g>
	<g>
		<path fill="#E8E8E8" d="M1014.908,850.745h-21.67c-3.713,0-6.723-3.01-6.723-6.723v-23.748c0-3.713,3.01-6.723,6.723-6.723h21.67
			c3.713,0,6.723,3.01,6.723,6.723v23.748C1021.631,847.735,1018.621,850.745,1014.908,850.745z"/>
	</g>
	<g>
		<path fill="#E8E8E8" d="M1014.908,939.929h-21.67c-3.713,0-6.723-3.01-6.723-6.723v-23.748c0-3.713,3.01-6.723,6.723-6.723h21.67
			c3.713,0,6.723,3.01,6.723,6.723v23.748C1021.631,936.919,1018.621,939.929,1014.908,939.929z"/>
	</g>
</g>
<g>
	<g>
		<path fill="#7DC6FF" d="M634.933,490.807h-98.498c-3.933,0-7.121-4.148-7.121-9.267c0-5.117,3.188-9.266,7.121-9.266h98.498
			c3.933,0,7.121,4.148,7.121,9.266C642.054,486.658,638.866,490.807,634.933,490.807z"/>
	</g>
	<g>
		<path fill="#7DC6FF" d="M594.951,432.292v98.497c0,3.933-4.149,7.122-9.267,7.122c-5.118,0-9.267-3.189-9.267-7.122v-98.497
			c0-3.934,4.148-7.122,9.267-7.122C590.801,425.17,594.951,428.358,594.951,432.292z"/>
	</g>
</g>
<g>
	<path fill="#445D7B" d="M364.824,290.406c-2.537,0-4.89-0.436-7.063-1.304c-2.174-0.87-4.058-2.047-5.65-3.532
		c-1.595-1.483-2.863-3.224-3.803-5.217c-0.942-1.99-1.414-4.145-1.414-6.465c0-2.243,0.472-4.382,1.414-6.411
		c0.939-2.027,2.208-3.766,3.803-5.215c1.593-1.449,3.477-2.607,5.65-3.478c2.173-0.87,4.525-1.304,7.063-1.304
		c2.462,0,4.798,0.434,7.009,1.304c2.21,0.87,4.11,2.028,5.705,3.478c1.593,1.449,2.861,3.188,3.804,5.215
		c0.939,2.029,1.412,4.168,1.412,6.411c0,2.32-0.473,4.475-1.412,6.465c-0.942,1.993-2.211,3.733-3.804,5.217
		c-1.595,1.485-3.495,2.662-5.705,3.532C369.622,289.971,367.286,290.406,364.824,290.406z M352.98,330.61l30.643-35.749
		l28.252-37.162l6.629,5.866l-29.665,35.098l-29.229,37.816L352.98,330.61z M364.824,283.126c1.087,0,2.082-0.254,2.988-0.761
		c0.905-0.507,1.72-1.177,2.444-2.012c0.724-0.831,1.286-1.808,1.685-2.933c0.397-1.122,0.598-2.299,0.598-3.532
		c0-2.534-0.76-4.688-2.282-6.465c-1.521-1.774-3.332-2.662-5.433-2.662c-1.086,0-2.082,0.255-2.988,0.761
		c-0.906,0.508-1.721,1.178-2.444,2.01c-0.725,0.834-1.287,1.792-1.685,2.88c-0.398,1.087-0.598,2.247-0.598,3.477
		c0,2.537,0.761,4.71,2.282,6.521C360.912,282.22,362.722,283.126,364.824,283.126z M406.768,336.805
		c-2.537,0-4.891-0.435-7.063-1.304c-2.175-0.87-4.06-2.027-5.651-3.479c-1.594-1.447-2.862-3.167-3.804-5.16
		c-0.942-1.992-1.412-4.147-1.412-6.465c0-2.318,0.47-4.473,1.412-6.467c0.941-1.991,2.21-3.729,3.804-5.215
		c1.592-1.483,3.477-2.664,5.651-3.531c2.172-0.869,4.525-1.305,7.063-1.305c2.534,0,4.891,0.436,7.063,1.305
		c2.174,0.867,4.075,2.048,5.705,3.531c1.63,1.485,2.897,3.224,3.804,5.215c0.904,1.994,1.358,4.148,1.358,6.467
		c0,2.317-0.454,4.473-1.358,6.465c-0.906,1.993-2.174,3.713-3.804,5.16c-1.63,1.451-3.531,2.608-5.705,3.479
		C411.659,336.37,409.302,336.805,406.768,336.805z M406.768,329.524c1.086,0,2.081-0.252,2.988-0.762
		c0.904-0.504,1.72-1.176,2.444-2.009c0.724-0.832,1.285-1.792,1.685-2.88c0.397-1.088,0.598-2.244,0.598-3.477
		c0-1.305-0.218-2.518-0.652-3.641c-0.434-1.122-0.996-2.102-1.684-2.935c-0.689-0.832-1.505-1.484-2.444-1.956
		c-0.943-0.471-1.921-0.706-2.935-0.706c-1.086,0-2.083,0.255-2.988,0.761c-0.907,0.508-1.722,1.179-2.444,2.01
		c-0.727,0.834-1.287,1.813-1.685,2.935c-0.399,1.124-0.598,2.3-0.598,3.532c0,2.537,0.761,4.69,2.282,6.465
		C402.856,328.639,404.666,329.524,406.768,329.524z"/>
</g>
<g>
	<path fill="#445D7B" d="M209.193,170.542v-20.245h72.836v20.245H209.193z M209.193,211.731v-20.244h72.836v20.244H209.193z"/>
</g>
<g>
	<path fill="#445D7B" d="M397.453,154.799c-1.619,0-3.133-0.267-4.537-0.799c-1.407-0.532-2.621-1.278-3.643-2.236
		c-1.022-0.959-1.823-2.077-2.398-3.354c-0.574-1.278-0.863-2.685-0.863-4.219c0-1.575,0.354-3.035,1.057-4.377
		c0.701-1.343,1.682-2.481,2.938-3.42c1.257-0.936,2.76-1.671,4.507-2.204c1.747-0.532,3.664-0.799,5.752-0.799
		c1.49,0,2.948,0.128,4.376,0.384c1.428,0.255,2.694,0.618,3.805,1.086v-1.917c0-2.215-0.63-3.919-1.886-5.112
		c-1.258-1.192-3.123-1.789-5.593-1.789c-1.789,0-3.537,0.319-5.24,0.958c-1.705,0.64-3.45,1.577-5.239,2.812l-2.621-5.432
		c4.304-2.854,8.948-4.281,13.933-4.281c4.813,0,8.553,1.183,11.215,3.547c2.663,2.364,3.994,5.783,3.994,10.257v10.416
		c0,0.895,0.159,1.533,0.479,1.917c0.32,0.384,0.84,0.598,1.565,0.639v7.286c-1.448,0.298-2.704,0.447-3.771,0.447
		c-1.62,0-2.865-0.362-3.736-1.087c-0.874-0.724-1.417-1.682-1.631-2.875l-0.192-1.854c-1.492,1.96-3.302,3.451-5.432,4.474
		S399.879,154.799,397.453,154.799z M399.879,148.536c1.448,0,2.824-0.256,4.124-0.767c1.298-0.512,2.309-1.192,3.034-2.045
		c0.937-0.725,1.407-1.534,1.407-2.429v-3.834c-1.024-0.384-2.133-0.691-3.323-0.927c-1.193-0.233-2.346-0.352-3.451-0.352
		c-2.218,0-4.027,0.501-5.432,1.502c-1.407,1.001-2.109,2.269-2.109,3.802c0,1.449,0.552,2.652,1.662,3.611
		C396.897,148.058,398.262,148.536,399.879,148.536z"/>
</g>
<g>
	<path fill="#445D7B" d="M190.309,385.995c-2.556,0-4.837-0.575-6.839-1.726s-3.578-2.726-4.728-4.729v5.816h-7.479v-46.651h8.563
		v19.044c1.193-2.045,2.759-3.632,4.698-4.761c1.938-1.129,4.205-1.694,6.806-1.694c2.174,0,4.152,0.47,5.944,1.406
		c1.788,0.938,3.331,2.195,4.631,3.771c1.3,1.577,2.301,3.431,3.003,5.56c0.705,2.131,1.056,4.368,1.056,6.711
		c0,2.428-0.395,4.687-1.183,6.773c-0.788,2.088-1.886,3.909-3.289,5.464c-1.407,1.556-3.068,2.779-4.985,3.675
		C194.589,385.548,192.522,385.995,190.309,385.995z M187.943,378.71c1.365,0,2.621-0.266,3.771-0.799
		c1.152-0.532,2.132-1.246,2.941-2.141c0.809-0.895,1.438-1.938,1.885-3.131s0.671-2.472,0.671-3.836
		c0-1.361-0.213-2.661-0.64-3.897c-0.427-1.235-1.032-2.321-1.82-3.259c-0.79-0.938-1.716-1.683-2.779-2.236
		c-1.066-0.554-2.236-0.831-3.516-0.831c-1.917,0-3.633,0.628-5.144,1.885c-1.514,1.257-2.676,2.802-3.484,4.634v7.988
		c0.299,0.852,0.735,1.619,1.311,2.3c0.574,0.683,1.225,1.269,1.95,1.758c0.723,0.49,1.511,0.873,2.363,1.149
		C186.305,378.572,187.134,378.71,187.943,378.71z"/>
</g>
<g>
	<path fill="#46607E" d="M1176.693,1279.417H588.898c-43.428,0-78.632-35.205-78.632-78.633V272.249
		c0-43.427,35.204-78.631,78.632-78.631h587.795c43.428,0,78.631,35.204,78.631,78.631v928.535
		C1255.324,1244.212,1220.121,1279.417,1176.693,1279.417z"/>
</g>
<g>
	<g>
		<g>
			<g>
				<rect x="1137.568" y="894.827" fill="#88BDED" width="38.602" height="293.789"/>
			</g>
		</g>
	</g>
</g>
<g>
	<g>
		<g>
			<g>
				<rect x="1061.299" y="927.751" fill="#88BDED" width="38.6" height="260.865"/>
			</g>
		</g>
	</g>
</g>
<g>
	<g>
		<g>
			<g>
				<rect x="978.436" y="970.579" fill="#88BDED" width="38.602" height="218.037"/>
			</g>
		</g>
	</g>
</g>
<g>
	<g>
		<g>
			<g>
				<rect x="893.336" y="1024.578" fill="#88BDED" width="38.602" height="164.038"/>
			</g>
		</g>
	</g>
</g>
<g>
	<g>
		<g>
			<polygon fill="#88BDED" points="662.987,989.772 654.619,986.789 727.417,782.575 885.281,740.815 942.014,516.673 
				1063.838,462.904 1091.123,288.617 1099.898,289.991 1071.865,469.072 949.564,523.052 892.611,748.066 734.212,789.968 			"/>
		</g>
	</g>
</g>
<g>
	<circle fill="#7DC6FF" cx="888.946" cy="744.44" r="23.69"/>
</g>
<g>
	<g>
		<path fill="#88BDED" d="M906.75,766.223c-12.01,9.816-29.768,8.032-39.586-3.979c-9.816-12.011-8.031-29.769,3.979-39.585
			c12.012-9.817,29.77-8.033,39.586,3.979C920.545,738.647,918.76,756.405,906.75,766.223z M876.766,729.537
			c-8.219,6.717-9.439,18.866-2.723,27.085c6.717,8.218,18.867,9.438,27.084,2.722c8.219-6.717,9.439-18.867,2.723-27.085
			S884.982,722.82,876.766,729.537z"/>
	</g>
</g>
<g>
	<g>
		<circle fill="#7DC6FF" cx="946.429" cy="521.216" r="23.69"/>
	</g>
</g>
<g>
	<path fill="#88BDED" d="M964.232,542.998c-12.012,9.817-29.77,8.032-39.586-3.978c-9.816-12.012-8.033-29.77,3.979-39.586
		c12.01-9.817,29.768-8.033,39.586,3.979C978.027,515.423,976.242,533.181,964.232,542.998z M934.246,506.313
		c-8.217,6.717-9.438,18.867-2.721,27.085s18.867,9.439,27.084,2.723c8.219-6.718,9.439-18.867,2.723-27.085
		S942.465,499.596,934.246,506.313z"/>
</g>
<g>
	<g>
		<circle fill="#7DC6FF" cx="1066.378" cy="465.917" r="23.69"/>
	</g>
</g>
<g>
	<path fill="#88BDED" d="M1084.182,487.698c-12.012,9.817-29.77,8.033-39.586-3.978c-9.818-12.011-8.033-29.769,3.979-39.586
		c12.01-9.817,29.768-8.032,39.584,3.979C1097.977,460.124,1096.191,477.882,1084.182,487.698z M1054.195,451.013
		c-8.217,6.718-9.438,18.867-2.721,27.086c6.717,8.217,18.865,9.438,27.084,2.722c8.217-6.717,9.439-18.867,2.723-27.085
		S1062.414,444.296,1054.195,451.013z"/>
</g>
<g>
	<circle fill="#7DC6FF" cx="731.698" cy="788.282" r="23.69"/>
</g>
<g>
	<g>
		<path fill="#88BDED" d="M749.501,810.063c-12.011,9.817-29.769,8.033-39.586-3.979c-9.816-12.01-8.032-29.768,3.979-39.585
			s29.769-8.032,39.585,3.978C763.296,782.489,761.512,800.247,749.501,810.063z M719.516,773.378
			c-8.218,6.717-9.438,18.867-2.722,27.085s18.867,9.439,27.085,2.723c8.218-6.718,9.438-18.867,2.722-27.085
			S727.734,766.661,719.516,773.378z"/>
	</g>
</g>
<g>
	<g>
		<g>
			<g>
				<path fill="#88BDED" d="M809.588,550.952H606.425c-9.391,0-17.004-7.612-17.004-17.004v-15.125
					c0-9.391,7.613-17.004,17.004-17.004h203.163c9.391,0,17.004,7.613,17.004,17.004v15.125
					C826.592,543.34,818.979,550.952,809.588,550.952z"/>
			</g>
		</g>
	</g>
</g>
<g>
	<g>
		<g>
			<g>
				<path fill="#88BDED" d="M809.588,465.058H606.425c-9.391,0-17.004-7.613-17.004-17.005v-15.124
					c0-9.392,7.613-17.005,17.004-17.005h203.163c9.391,0,17.004,7.613,17.004,17.005v15.124
					C826.592,457.444,818.979,465.058,809.588,465.058z"/>
			</g>
		</g>
	</g>
</g>
<g>
	<ellipse fill="#7DC6FF" cx="5454.799" cy="988.848" rx="355.416" ry="29.098"/>
	<g>
		<polygon fill="#695C54" points="6046.646,608.499 5963.652,959.415 5945.967,959.415 6038.116,564.912 		"/>
		<polygon fill="#807066" points="5993.742,233.148 6080.934,959.415 6099.55,959.415 6010.191,226.867 		"/>
		<rect x="6075.785" y="954.782" fill="#695C54" width="28.402" height="13.495"/>
		<rect x="5941.385" y="954.782" fill="#695C54" width="28.401" height="13.495"/>
		
			<rect x="5895.009" y="146.495" transform="matrix(0.9927 -0.1205 0.1205 0.9927 19.0449 724.3558)" fill="#FAB869" width="203.936" height="116.514"/>
		
			<rect x="5887.315" y="135.826" transform="matrix(0.9927 -0.1205 0.1205 0.9927 26.626 722.9664)" fill="#F09B56" width="203.936" height="11.135"/>
	</g>
	<rect x="5044.125" y="846.049" fill="#66658C" width="833.14" height="20.458"/>
	<path fill="#FAB869" d="M5460.695,412.96c-585.346,0-512.566,169.39-512.566,169.39l96.304,213.578h416.263h416.263l96.306-213.578
		C5973.264,582.35,6046.041,412.96,5460.695,412.96z"/>
	<polygon fill="#66658C" points="5044.126,866.507 5017.735,970.227 5029.09,970.227 5067.141,866.507 	"/>
	<polygon fill="#66658C" points="5877.266,866.507 5903.657,970.227 5892.304,970.227 5854.252,866.507 	"/>
	<rect x="5029.396" y="729.031" fill="#E38A42" width="862.598" height="49.099"/>
	<path fill="#F09B56" d="M6034.629,550.572L6034.629,550.572c-20.986-13.18-48.682-6.85-61.861,14.138l-126.118,200.838h-771.076
		L4949.455,564.71c-13.178-20.987-40.875-27.317-61.861-14.138l0,0c-21.449,13.469-27.918,41.775-14.449,63.225l152.263,242.473
		v0.009h870.577v-0.52l0.826,0.52l152.268-242.481C6062.547,592.348,6056.078,564.041,6034.629,550.572z"/>
	<g>
		<path fill="#DECDC5" d="M5429.188,729.848c0,0-6.65-10.079-7.735-15.998c-1.086-5.919-4.422-9.293-4.422-9.293
			s-25.201-3.666-34.887-12.656c-9.684-8.989-30.201-33.479-39.889-26.141s7.021,38.219,16.906,47.549
			c9.887,9.33,23.27,25.682,35.43,24.471C5406.753,736.566,5423.309,730.795,5429.188,729.848z"/>
		<path fill="#25354D" d="M5429.188,728.301l-12.157-23.744c0,0,58.19-10.662,75.211-20.912c4.266-2.57,8.51-5.146,12.461-7.586
			c8.988-5.547,16.441-10.348,19.07-12.582c8.4-7.145,42.084-31.007,51.186-39.771c9.093-8.762,19.84-3.421,34.023-3.278
			c14.186,0.153,65.564,14.382,80.933,16.423c15.375,2.027,70.878,12.349,70.878,12.349
			C5751.021,675.899,5429.188,728.301,5429.188,728.301z"/>
		<path fill="#2F4563" d="M5764.034,648.332c0,0-31.315,4.513-39.366,5.126c-8.242,0.628-54.873,4.379-77.361,6.539
			s-66.66,0.87-75.424,4.722c-8.766,3.853-59.414,21.017-75.993,26.372s-124.296,25.074-124.296,25.074s-1.846,14.595,7.689,25.797
			c0,0,47.479-4.24,72.535-0.557c25.057,3.684,68.822-1.928,95.385-13.978c26.563-12.049,68.669-1.056,92.201,7.213
			c23.531,8.27,113.496,14.909,124.723,12.389c11.229-2.521,33.618-13.326,49.839-30.967
			C5830.188,698.421,5764.034,648.332,5764.034,648.332z"/>
		<path fill="#F5E1DA" d="M5379.283,741.962c0,0-4.014-11.389-3.637-17.395c0.379-6.006-1.459-8.879-1.459-8.879
			s-24.148-10.86-31.372-21.925c-7.224-11.065-21.207-39.789-32.382-35.013c-11.175,4.777-2.432,38.781,4.904,50.226
			c7.336,11.445,11.871,41.899,23.963,43.665C5351.393,754.406,5373.351,741.459,5379.283,741.962z"/>
		<path fill="#2F4563" d="M5834.435,628.285c0,0,39.579,89.816-21.86,111.594c-49.001,17.368-139.338,1.379-139.338,1.379
			l55.578-87.577L5834.435,628.285z"/>
		<path fill="#323657" d="M5732.561,289.355c15.07,3.353,6.086,41.189,16.186,94.091c10.102,52.901,41.984,61.171,41.984,61.171
			s-14.158-23.458-12.609-47.984c1.209-19.164,24.426-71.449,1.478-105.625c-17.729-26.405-48.972-2.434-48.972-2.434
			L5732.561,289.355z"/>
		<path fill="#EEA886" d="M5755.236,399.495l-29.303,30.157c-0.271-5.536-2.305-12.271-4.392-17.89
			c-1.023-2.748-2.068-5.235-2.906-7.159c-1.112-2.529-1.896-4.104-1.896-4.104l26.141-27.642L5755.236,399.495z"/>
		<path fill="#E65555" d="M5720.352,426.691c0,0-1.134,14.503-9.029,27.883c-7.895,13.379-20.947,35.588-19.098,50.026
			s7.99,19.685,13.54,24.883s20.782,42.721,22.632,57.159c1.85,14.439,3.016,44.443-0.495,66.504c0,0,102.757,11.924,113.093-6.029
			c0,0-12.752-57.731-18.768-72.199c-6.016-14.467-18.607-101.019-24.009-115.735s-18.138-28.945-25.927-39.152
			c-6.955-9.116-19.629-26.081-19.629-26.081L5720.352,426.691z"/>
		<path fill="#EEA886" d="M5707.51,292.43c-13.563,0.905-42.689,11.145-43.172,47.418c0,0,2.193,9.512,5.404,16.812
			c3.214,7.3-0.99,30.405,0.906,31.302c1.897,0.896,9.375,1.458,9.375,1.458s10.685,23.478,19.221,22.279
			c8.537-1.198,40.172-11.632,51.932-43.733C5762.935,335.863,5762.271,288.774,5707.51,292.43z"/>
		<path fill="#323657" d="M5664.338,339.848c0,0,23.617,12.396,45.693,12.9s40.17,35.894,40.17,35.894s26.729-59.967-3.881-90.394
			C5715.801,267.914,5654.803,298.764,5664.338,339.848z"/>
		<path fill="#EEA886" d="M5715.192,352.533c-0.367-4.221,3.584-11.072,11.141-6.121c7.556,4.951,0.597,26.022-5.277,24.715
			S5715.572,356.895,5715.192,352.533z"/>
		<path fill="#A77860" d="M5739.589,387.837c-0.411,0.683-11.162,18.294-18.047,23.926c-1.023-2.748-2.068-5.235-2.906-7.159
			C5718.636,404.604,5733.99,395.451,5739.589,387.837z"/>
		
			<rect x="5518.292" y="656.37" transform="matrix(-0.9826 0.1855 -0.1855 -0.9826 11208.6094 276.7013)" fill="#FFFFFF" width="146.134" height="12.719"/>
		
			<rect x="5411.543" y="612.326" transform="matrix(-0.5655 -0.8247 0.8247 -0.5655 8075.9995 5491.9209)" fill="#FFFFFF" width="146.135" height="12.718"/>
		<path fill="#EEA886" d="M5548.189,664.408c-0.711-3.192,0-8.519,10.05-13.901s31.757-17.63,39.388-17.921
			c7.633-0.29,22.667,0.912,25.752,0.896c3.086-0.016-4.836,18.161-4.836,18.161L5548.189,664.408z"/>
		<path fill="#EEA886" d="M5619.852,634.874c0,0,41.895-16.489,48.697-19.772c6.802-3.284,38.527-13.953,41.342-15.361
			c2.815-1.407,16.076-80.612,17.249-100.551c1.173-19.939,2.347-62.162,24.864-60.286c22.52,1.877,27.915,16.655,25.1,45.742
			c-2.814,29.087-19.47,133.238-26.508,136.757c-7.036,3.52-87.821,21.588-130.417,30.085
			C5579.415,659.619,5619.852,634.874,5619.852,634.874z"/>
		<path fill="#E65555" d="M5724.837,505.391c0,0,32.451,6.055,51.159,7.936c0,0,23.281-66.32-8.409-76.914
			C5730.017,423.853,5721.623,475.248,5724.837,505.391z"/>
	</g>
	<path fill="#F4EAE1" d="M5243.197,734.544c-2.193,0.781-4.506,1.382-6.877,1.772l-99.615,16.007
		c-20.934,3.333-40.633-10.901-43.997-31.834l-19.49-121.538c-3.363-20.932,10.871-40.633,31.804-43.996l14.145-2.282l85.47-13.694
		c20.932-3.363,40.633,10.901,43.966,31.833l19.521,121.538C5271.096,710.91,5260.254,728.448,5243.197,734.544z"/>
	<path fill="#E6DCD4" d="M5243.197,734.544c-2.193,0.781-4.506,1.382-6.877,1.772l-99.615,16.007
		c-20.934,3.333-40.633-10.901-43.997-31.834l-19.49-121.538c-3.363-20.932,10.871-40.633,31.804-43.996l14.145-2.282
		c0,0.03,0.029,0.03,0.029,0.03S5124.031,717.816,5243.197,734.544z"/>
</g>
<g>
	<g>
		<g>
			<polygon fill="#FFC655" points="5413.818,128.883 5622.609,129.844 5621.912,281.177 5621.767,313.054 5590.038,281.03 
				5413.122,280.217 			"/>
		</g>
	</g>
	<circle fill="#FFFFFF" cx="5517.847" cy="211.081" r="15.946"/>
	<circle fill="#FFFFFF" cx="5465.475" cy="210.916" r="15.945"/>
	<circle fill="#FFFFFF" cx="5569.017" cy="211.242" r="15.946"/>
</g>
<g>
	<g>
		<g>
			<polygon fill="#7DC6FF" points="4224.287,-69.763 4433.078,-68.802 4432.382,82.531 4432.235,114.408 4400.507,82.385 
				4223.591,81.57 			"/>
		</g>
	</g>
	<circle fill="#FFFFFF" cx="4328.315" cy="12.435" r="15.946"/>
	<circle fill="#FFFFFF" cx="4275.943" cy="12.27" r="15.946"/>
	<circle fill="#FFFFFF" cx="4379.485" cy="12.597" r="15.946"/>
</g>
<g>
	<g>
		<path fill="#16191E" d="M298.186,1588.245c-3.401,0.988-8.299,2.9-7.91,38.801h161.598
			C451.874,1578.304,336.954,1576.899,298.186,1588.245z"/>
		<rect x="290.276" y="1622.919" fill="#6B6A58" width="161.598" height="14.865"/>
	</g>
	<path fill="#3D3D3C" d="M387.997,1035.586l-3.435,548.882l-94.272,38.438l-19.559-502.545l-0.166,2.34l-37.231,504.346h-99.672
		l0.079-4.141v-0.078l17.106-525.599l2.044-61.643c0-4.687,2.129-45.083,5.813-68.676c1.55-9.928,3.435-16.883,5.563-16.883h211.533
		c1.965,0,3.764,6.019,5.398,14.925c1.313,7.271,2.459,16.407,3.441,25.702C386.684,1011.051,387.997,1032.224,387.997,1035.586z"/>
	<path fill="#16191E" d="M158.026,971.458c0-12.485-0.436-17.133,0-23.441h224.183c1.312,4.417,0.468,11.721,0,23.441H158.026z"/>
	<rect x="272.102" y="950.021" fill="#FBF7CF" width="26.295" height="18.734"/>
	<g>
		<path fill="#16191E" d="M183.471,1588.245c-27.528,0-49.822,2.894-49.822,38.801h99.645
			C233.293,1589.49,211,1588.245,183.471,1588.245z"/>
		<rect x="133.649" y="1622.919" fill="#6B6A58" width="99.645" height="14.865"/>
	</g>
	<path opacity="0.07" d="M183.471,1057.999c3.283,1.865,6.836,3.665,10.6,5.261C190.518,1061.46,187.031,1059.732,183.471,1057.999z
		"/>
	<path opacity="0.15" d="M133.622,1622.926h0.139l36.883,4.126h62.684l37.232-504.345l0.139-2.327l19.592,502.546l94.266-38.479
		h-0.765c-41.905-1.134-75.788-33.085-77.391-73.099l-23.079-388.438c8.576-26.368,36.672-45.472,65.4-61.583
		c-37.865,21.839-111.143,20.706-154.65,1.932c32.281,16.177,63.1,34.753,66.725,58.781l-39.742,371.667
		c-4.668,50.126-33.186,95.466-77.318,122.955l-9.975,6.196L133.622,1622.926z"/>
	<path opacity="0.1" d="M384.641,990.654c-55.07,4.377-111.373,11.411-159.982,36.646c-30.687,15.86-57.852,40.634-73.812,69.929
		l2.044-61.643c0-4.687,2.129-45.083,5.813-68.676c74.22-0.633,148.361-1.332,222.495-1.958
		C382.512,972.223,383.659,981.359,384.641,990.654z"/>
</g>
<path fill="#575756" d="M422.717,790.071C416.995,762.477,409.889,684.77,402.44,662c-5.518-16.849-6.031-19.077-17.871-32.301
	c-5.287-5.939-11.682-10.745-18.801-14.312c-0.053-0.053-0.165-0.112-0.244-0.138c-3.737-1.912-7.693-3.441-11.74-4.555
	c-6.361-1.839-13.025-2.67-19.631-2.433c-40.238,41.859-34.41,90.456-18.307,143.588c0.725,2.518,1.51,4.983,2.32,7.476
	c0.105,0.276,0.158,0.547,0.264,0.817c0.494,1.621,1.042,3.236,1.563,4.878c6.955,21.529,15.175,43.765,22.242,66.527
	c4.469,14.357,11.608,20.62,23.547,25.992l57.588-67.352C423.165,790.157,422.915,790.104,422.717,790.071z"/>
<g>
	<path fill="#F2C799" d="M618.178,733.518l3.698-7.982l-4.489-2.663c-0.205,1.338-0.732,2.617-1.543,3.73
		c-1.088,1.503-2.683,2.716-4.654,3.322c-2.689,0.844-5.372,1.662-8.074,2.446c-5.379,1.522-10.799,2.867-16.27,4.08
		c-1.102,0.251-2.201,0.462-3.297,0.699l-10.025,8.26c0.171,0.461,0.316,0.969,0.389,1.595
		c-0.119,0.297-32.815,55.802-36.085,59.679l-8.208,20.896c0.08-2.703,30.562-11.306,30.74-11.549
		c11.555-0.317,36.223-15.018,37.416-25.367c0.428-3.744,16.533-15.616,16.533-15.616l11.021-39.388l-7.126-2.148L618.178,733.518z"
		/>
	<polygon fill="#575756" points="603.577,780.618 594.637,777.428 674.461,578.453 676.321,579.119 	"/>
	<path fill="#FFD2A1" d="M632.411,738.409c-2.189,5.412-7.509,8.365-11.893,6.599c-4.377-1.773-6.164-7.594-3.975-12.999
		c2.182-5.419,7.508-8.372,11.885-6.599C632.813,727.183,634.592,732.997,632.411,738.409z"/>
	<path fill="#FFD2A1" d="M618.922,763.373c-1.898,0.191-7.686,0.119-7.686,0.119c-5.617,0.079-10.225-3.909-10.297-8.913v-0.184
		c-0.072-5.004,4.424-9.124,10.033-9.203l7.686-0.125C634.065,745.681,633.202,763.65,618.922,763.373z"/>
	<path fill="#FFD2A1" d="M614.995,781.502l-13.06,0.185c-5.616,0.079-10.224-3.956-10.296-9.019l-0.008-0.185
		c-0.065-5.056,4.424-9.222,10.04-9.301l13.06-0.185C625.963,763.229,627.631,779.643,614.995,781.502z"/>
	<path fill="#FFD2A1" d="M607.842,798.008l-10.482,0.146c-4.508,0.065-8.213-3.54-8.279-8.043v-0.171
		c-0.066-4.503,3.54-8.207,8.043-8.273l10.48-0.151C617.967,781.152,619.081,796.828,607.842,798.008z"/>
	<path fill="#FFD2A1" d="M606.616,719.332c-7.271,2.313-25.795,6.822-27.482,7.073c-11.576,3.836-32.328,19.038-32.328,19.038
		c-1.72,2.168-12.465,32.063-8.496,49.348c0.006,0.026-1.51,1.147-3.811,2.874c0,0,14.628,12.65,15.775,12.084
		c8.767-4.305,18.227-10.35,21.482-21.181c0.225-0.778,0.344-1.582,0.627-2.334c4.324-11.259,2.063-32.974,2.188-33.276
		c-0.079-0.633-0.218-1.134-0.396-1.596l10.033-8.266c1.094-0.231,2.195-0.449,3.289-0.699c5.472-1.206,10.896-2.558,16.275-4.074
		c2.703-0.791,5.387-1.595,8.069-2.445c1.971-0.613,3.573-1.819,4.661-3.329c0.811-1.107,1.338-2.386,1.542-3.731
		c0.204-1.292,0.099-2.649-0.362-3.948l-0.047-0.178C616.03,720.235,611.131,717.921,606.616,719.332z"/>
</g>
<polygon fill="#EDEDED" points="520.674,837.534 505.17,779.656 537.406,770.177 554.071,828.582 "/>
<path fill="#575756" d="M541.987,835.484c-0.23,0.23-1.153,0.54-2.617,1.074c-15.933,5.234-99.283,25.479-136.838,33.56
	c-9.624,2.077-16.242,3.31-17.937,3.31c-3.079-0.079-5.92-0.151-8.616-0.389l20.475-55.334l10.231-27.779
	c24.476-4.231,92.354-11.7,119.065-19.242C533.595,797.006,537.834,817.244,541.987,835.484z"/>
<circle fill="#FFFFFF" cx="521.367" cy="826.868" r="4.845"/>
<path fill="#FFFFFF" d="M510.016,831.713c0,2.677-2.17,4.846-4.846,4.846s-4.838-2.169-4.838-4.846c0-2.676,2.162-4.845,4.838-4.845
	S510.016,829.037,510.016,831.713z"/>
<path opacity="0.2" fill="#1D1D1B" d="M539.37,836.559c-15.933,5.234-99.283,25.479-136.838,33.56l-6.078-52.413l-15.551-132.988
	l25.782,105.209l13.698,55.796L539.37,836.559z"/>
<path fill="#FFFFFF" d="M133.622,939.382l265.846,3.678c-3.844-44.839-55.256-324.777-55.256-324.777l-31.74-5.05l-95.434-15.346
	C217.038,597.886,132.983,898.774,133.622,939.382z"/>
<path fill="#F2C799" d="M236.913,583.687l7.852-79.533c33.942,4.008,79.435,8.576,87.496,7.983c0,0-5.247,57.872-5.332,82.915
	C332.26,660.181,256.966,657.735,236.913,583.687z"/>
<path fill="#575756" d="M103.239,1069.904l165.436,11.424c-0.383-34.654-0.105-76.514-0.383-119.942v-0.218
	c-0.053-2.438-0.053-4.924-0.053-7.416c-0.053-4.12-0.105-8.346-0.105-12.512c-0.112-6.658-0.218-13.375-0.271-20.093
	c-0.112-5.847-0.218-11.747-0.382-17.541c0-2.063-0.053-4.12-0.105-6.124v-0.211c0-0.541,0-1.081-0.053-1.569
	c-0.488-20.686-1.246-40.996-2.334-60.436c-4.871-85.829-15.162-159.258-30.864-206.424c-3.955-11.8-8.233-21.985-12.835-30.271
	l-4.277-0.699l-11.748,5.577l-0.053,0.053l-68.557,32.545c-0.053,0.053-0.165,0.053-0.218,0.112
	c-2.327,25.663-3.685,51.656-6.013,79.54c-1.027,12.242-2.057,25.182-3.189,38.616v0.105
	c-4.227,49.441-9.098,105.157-13.376,156.278c-3.85,46.514-7.205,89.185-9.044,119.726
	C103.674,1048.243,103.133,1061.941,103.239,1069.904z"/>
<path fill="#575756" d="M382.307,641.532l-4.897-2.973l-33.198-20.277l-4.555-0.725l9.5,452.347l84.404-6.27
	C429.711,1018.789,382.848,664.321,382.307,641.532z"/>
<polygon fill="#CCCCCC" points="294.238,672.139 314.786,670.01 321.582,629.152 287.098,630.464 "/>
<path fill="#DADADA" d="M307,629.502L335.333,662c4.324-19.75,9.986-35.979,7.739-47.99l-16.335-17.739
	C328.405,609.976,321.483,624.966,307,629.502z"/>
<path fill="#DADADA" d="M307,629.502l-35.012,40.508c-23.896-23.468-48.721-49.526-54.964-72.124l20.726-22.729
	C237.731,595.506,279.94,630.603,307,629.502z"/>
<polygon fill="#CCCCCC" points="294.238,672.139 314.786,670.01 325.293,858.596 304.343,891.523 281.917,864.95 "/>
<path fill="#3C3C3B" d="M264.995,835.253c-17.481-62.288-60.627-177.122-60.627-177.122s27.469-14.266,25.538-16.441l-30.172,1.062
	l5.452-39.236l27.693-23.02C254.711,652.627,266.828,755.614,264.995,835.253z"/>
<path fill="#3C3C3B" d="M345.577,833.328c17.482-62.288,28.596-178.961,28.596-178.961s-25.945-9.559-24.014-11.741l21.885-2.656
	l-16.81-28.735l-22.974-8.972C339.657,674.242,343.745,753.689,345.577,833.328z"/>
<g>
	<path fill="#FFD2A1" d="M231.699,523.119c-6.138-15.749-5.952-22.584-6.249-39.697c3.414-77.859,47.924-66.435,76.797-66.079
		c33.726,1.898,65.361,25.083,66.527,76.943c-1.773,5.063-3.863,9.215-3.863,9.215l10.759,29.098
		c1.772,4.799-1.128,10.046-6.124,11.101l-7.476,1.938c-0.211,5.234,0.151,27.627,0.151,27.627
		c-0.639,13.19-6.605,33.666-24.166,31.846c-50.574-5.287-69.533-29.164-65.42-73.686
		C260.341,529.823,236.194,534.668,231.699,523.119z"/>
	<path fill="#3C3C3B" d="M239.853,558.374c39.941,11.305,23.62-48.438,23.62-48.438s10.816,12.103,15.01,17.456
		c8.563,0,9.4,1.107,17.139,0.6c3.303-51.122-8.682-90.16,64.128-73.877c14.403-2.313,1.635-49.032-65.116-46.184
		c-38.959,1.662-71.531,21.345-77.074,59.948C214.072,492.136,212.16,524.378,239.853,558.374z"/>
	<path fill="#FFD2A1" d="M254.54,510.634c-0.105,12.208,10.066,26.388,18.05,26.46c7.976,0.066,8.734-10.178,8.958-22.387
		c0.158-8.068,0.752-19.183-7.982-21.807C265.924,490.594,254.692,492.729,254.54,510.634z"/>
</g>
<path opacity="0.2" fill="#1D1D1B" d="M113.859,910.699c-3.85,46.514-7.205,89.185-9.044,119.726
	c34.331-40.396,78.135-66.007,136.35-69.092c4.714-0.33,9.473-0.436,14.404-0.33c4.172,0,8.392,0.105,12.723,0.383
	c0.277,0,0.547,0.053,0.817,0.053l-0.165-7.581l-0.27-12.564l-0.436-21.385l-0.376-16.249l-0.112-6.064l-0.375-0.323l-7.152-5.419
	l-84.201-64.272l15.867-109.765l-8.721,4.925l-55.934,31.575v0.105L99.125,901.543C103.674,904.635,108.605,907.667,113.859,910.699
	z"/>
<g>
	<path fill="#F2C799" d="M287.178,912.815c-0.014-0.066-0.021-0.125-0.027-0.185c-0.738-5.063,3.158-9.374,8.484-9.849
		c20.416-2.043,39.895-6.223,58.129-12.169c4.766-1.483,9.855,0.989,11.635,5.689c0.02,0.059,0.039,0.111,0.059,0.171
		c1.773,4.693-0.665,9.921-5.715,11.529c-19.13,6.342-39.525,10.838-60.885,13.145C293.243,921.701,287.909,917.865,287.178,912.815
		z"/>
	<polygon fill="#FFD2A1" points="246.887,949.863 255.713,901.451 299.92,909.506 291.093,957.925 	"/>
	<path fill="#F2C799" d="M312.603,913.007l0.026-0.165c0.838-4.568,5.208-7.594,9.775-6.764l66.851,12.188
		c4.562,0.838,7.588,5.208,6.757,9.776l-0.033,0.165c-0.83,4.568-5.207,7.587-9.77,6.757l-66.85-12.188
		C314.798,921.945,311.772,917.568,312.603,913.007z"/>
	<path fill="#F2C799" d="M333.408,933.989l0.026-0.172c0.837-4.562,5.207-7.58,9.775-6.75l30.785,5.61
		c4.568,0.837,7.594,5.207,6.758,9.775l-0.027,0.165c-0.83,4.562-5.207,7.588-9.77,6.757l-30.791-5.616
		C335.596,942.928,332.577,938.551,333.408,933.989z"/>
	<path fill="#F2C799" d="M321.733,948.63l0.026-0.165c0.831-4.567,5.208-7.594,9.77-6.763l25.814,4.706
		c4.562,0.831,7.587,5.208,6.757,9.77l-0.033,0.172c-0.83,4.562-5.207,7.594-9.77,6.757l-25.808-4.707
		C323.922,957.569,320.896,953.198,321.733,948.63z"/>
	<path fill="#F2C799" d="M318.859,964.379l0.026-0.146c0.738-4.054,4.621-6.737,8.676-5.999l22.927,4.18
		c4.054,0.738,6.737,4.621,5.999,8.675l-0.027,0.146c-0.738,4.061-4.621,6.743-8.674,6.005l-22.928-4.179
		C320.803,972.322,318.121,968.439,318.859,964.379z"/>
	<path fill="#FFD2A1" d="M273.704,938.604l2.967-16.275c2.451-13.429,15.319-22.334,28.754-19.889l19.889,3.626l-11.84,64.918
		l-19.889-3.625C280.157,964.906,271.25,952.038,273.704,938.604z"/>
	<path fill="#FFD2A1" d="M310.454,970.437l14.793,2.696c4.055,0.738,7.938-1.951,8.676-5.999l0.025-0.151
		c0.745-4.054-1.944-7.943-5.998-8.682l2.689,0.487c4.562,0.831,8.938-2.188,9.77-6.75l0.033-0.171
		c0.83-4.563-2.195-8.939-6.758-9.77l2.486,0.454c4.567,0.831,8.938-2.194,9.775-6.757l0.026-0.171
		c0.837-4.562-2.188-8.938-6.757-9.77c4.568,0.831,8.939-2.188,9.77-6.757l0.033-0.165c0.83-4.562-2.195-8.938-6.758-9.77
		l-19.967-3.646L310.454,970.437z"/>
</g>
<g>
	<g>
		<polygon fill="#EDEDED" points="236.227,950.687 254.843,893.738 287.02,903.396 269.088,961.425 		"/>
	</g>
</g>
<g>
	<path fill="#575756" d="M99.125,901.543c4.549,3.092,9.479,6.124,14.733,9.156c6.711,3.844,13.969,7.693,21.603,11.424
		c12.834,6.282,26.75,12.295,40.996,17.871c21.496,8.339,43.857,15.703,64.707,21.339c4.496,1.239,8.933,2.38,13.27,3.408
		l1.135-3.738l1.141-3.625l1.674-5.419l3.303-10.771l6.177-20.04l0.376-1.239l4.713-15.333l1.516-4.924
		c-0.053,0-0.053-0.053-0.111-0.053c-2.38-1.299-4.707-2.604-7.033-3.896c-2.387-1.252-4.767-2.544-7.1-3.85
		c-55.288-30.429-102.995-58.426-102.995-58.426s26.157-79.876,34.661-115.611c1.404-5.959,2.327-10.725,2.545-13.652
		c0.487-6.381,0-12.723-1.299-18.84c-2.874-13.646-9.75-26.315-19.117-36.605c-10.777-11.859-24.477-17.278-37.363-12.67
		c-0.053,0.053-0.165,0.053-0.218,0.112c-3.25,1.187-6.447,2.973-9.532,5.518c-11.747,9.585-21.932,25.94-25.287,41.207
		C89.976,735.95,76.706,808.41,67.668,860.23C65.447,873.013,78.169,887.409,99.125,901.543z"/>
	<path fill="#FFFFFF" d="M244.62,950.496c-1.457,2.241-4.463,2.874-6.705,1.41c-2.24-1.463-2.867-4.456-1.41-6.697
		c1.463-2.241,4.463-2.874,6.704-1.417C245.45,945.248,246.083,948.254,244.62,950.496z"/>
	<path fill="#FFFFFF" d="M228.409,945.71c-1.463,2.241-4.463,2.874-6.703,1.41c-2.242-1.463-2.875-4.456-1.411-6.697
		c1.457-2.241,4.463-2.874,6.704-1.417S229.866,943.469,228.409,945.71z"/>
</g>
</svg>
