<?xml version="1.0" encoding="utf-8"?>
<!-- Generator: Adobe Illustrator 16.0.0, SVG Export Plug-In . SVG Version: 6.00 Build 0)  -->
<!DOCTYPE svg PUBLIC "-//W3C//DTD SVG 1.1//EN" "http://www.w3.org/Graphics/SVG/1.1/DTD/svg11.dtd">
<svg version="1.1" id="Слой_1" xmlns="http://www.w3.org/2000/svg" xmlns:xlink="http://www.w3.org/1999/xlink" x="0px" y="0px"
	 width="485px" height="249px" viewBox="0 0 485 249" enable-background="new 0 0 485 249" xml:space="preserve">
<g>
	<g>
		<g>
			<path fill="#5D81A5" d="M417.33,124.214c0,0-55.289-23.76-76.641,8.443c-21.354,32.202,8.56,30.196,8.56,30.196
				s1.661,14.889,29.902-20.349C392.463,125.898,417.33,124.214,417.33,124.214z"/>
		</g>
	</g>
</g>
<g>
	<g>
		<g>
			<path fill="#445D7B" d="M426.973,32.417c0,0-49.078-15.222-81.392,47.031c-32.313,62.253-61.362,67.173-61.362,67.173
				S395.223,166.539,426.973,32.417z"/>
		</g>
	</g>
</g>
<g>
	<g>
		<g>
			<path fill="#323C49" d="M304.627,150.216c4.299,20.695,51.672-19.215,56.336-55.004c4.666-35.789-4.623-62.049,4.793-85.007
				C365.756,10.205,283.462,48.298,304.627,150.216z"/>
		</g>
	</g>
</g>
<g>
	<path fill="#E5E5E5" d="M312.681,46.541c1.951,0,3.821,0.287,5.541,0.814c2.271-5.506,7.907-9.405,14.504-9.405
		c7.333,0,13.481,4.819,15.134,11.305c1.268-0.479,2.646-0.743,4.094-0.743c6.104,0,11.054,4.703,11.054,10.505h-16.172H340.9
		h-12.648h-9.636h-21.507C297.109,52.126,304.081,46.541,312.681,46.541z"/>
</g>
<g>
	<path fill="#E5E5E5" d="M410.318,88.044c1.49,0,2.915,0.219,4.227,0.622c1.73-4.199,6.031-7.171,11.061-7.171
		c5.593,0,10.279,3.673,11.537,8.619c0.97-0.364,2.021-0.566,3.123-0.566c4.655,0,8.43,3.584,8.43,8.01h-12.331h-4.524h-9.646
		h-7.349h-16.397C398.447,92.305,403.764,88.044,410.318,88.044z"/>
</g>
<linearGradient id="SVGID_1_" gradientUnits="userSpaceOnUse" x1="71.2021" y1="102.6914" x2="475.6221" y2="102.6914" gradientTransform="matrix(1 0 0 -1 0 250)">
	<stop  offset="0" style="stop-color:#6B9E34"/>
	<stop  offset="0.1351" style="stop-color:#61933C"/>
	<stop  offset="1" style="stop-color:#1F4A6E"/>
</linearGradient>
<path fill="url(#SVGID_1_)" d="M395.059,119.221c-13.604,0-26.416,3.377-37.655,9.331c-21.932-29.871-57.292-49.268-97.188-49.268
	c-47.627,0-88.798,27.638-108.362,67.747c-7.064-3.094-14.863-4.823-23.068-4.823c-31.805,0-57.583,25.78-57.583,57.577
	c0,5.387,0.738,10.604,2.13,15.548h67.379h43.52h131.773h63.716h94.394c0.996-5.03,1.509-10.231,1.509-15.548
	C475.62,155.293,439.549,119.221,395.059,119.221z"/>
<path fill="#816035" d="M339.38,196.174h85.208c3.075,0,5.569-2.492,5.569-5.568v-19.06c0-3.075-2.494-5.567-5.569-5.567H339.38
	V196.174z"/>
<path fill="#816035" d="M312.5,241.416h103.839c2.212,0,4.003-1.792,4.003-4.002v-12.662c0-2.21-1.791-4.002-4.003-4.002H312.5
	V241.416z"/>
<path fill="#816035" d="M301.436,223.01v16.147h-2.742v2.258h48.723c1.523,0,2.765-1.237,2.765-2.765v-15.135
	c0-1.526-1.24-2.765-2.765-2.765h-48.723v2.258L301.436,223.01L301.436,223.01z"/>
<path fill="#FDFCF1" d="M301.438,239.156h43.616c1.468,0,2.657-1.189,2.657-2.657v-10.833c0-1.467-1.189-2.656-2.657-2.656h-43.616
	V239.156z"/>
<path fill="#816035" d="M324.851,169.086v23.98h-1.483v3.107h61.741c3.18,0,5.755-2.574,5.755-5.755V171.73
	c0-3.178-2.575-5.754-5.755-5.754h-61.741v3.107h1.483V169.086z"/>
<path fill="#FDFCF1" d="M324.851,193.064h57.099c3.18,0,5.757-2.576,5.757-5.754V174.84c0-3.179-2.577-5.755-5.757-5.755h-57.099
	V193.064z"/>
<path fill="#5D81A5" d="M357.784,220.75h83.662c3.929,0,7.114-3.188,7.114-7.116v-10.343c0-3.93-3.187-7.116-7.114-7.116h-83.662
	V220.75z"/>
<path fill="#46607E" d="M343.252,198.705v19.516h-1.482v2.531h60.383c3.93,0,7.114-3.186,7.114-7.115v-10.346
	c0-3.93-3.186-7.115-7.114-7.115H341.77v2.529H343.252z"/>
<path fill="#FDFCF1" d="M343.255,218.221h55.931c3.931,0,7.115-3.186,7.115-7.115v-5.285c0-3.93-3.186-7.114-7.115-7.114h-55.931
	V218.221z"/>
<rect x="353.12" y="204.928" fill="#DECCC5" width="23.958" height="0.617"/>
<rect x="362.727" y="206.805" fill="#FDFCF1" width="25.583" height="0.615"/>
<rect x="307.199" y="227.186" fill="#DECCC5" width="23.957" height="0.619"/>
<rect x="316.805" y="229.063" fill="#FDFCF1" width="25.584" height="0.617"/>
<rect x="334.363" y="230.773" fill="#DECCC5" width="10.583" height="0.617"/>
<rect x="352.861" y="185.301" fill="#DECCC5" width="25.582" height="0.617"/>
<rect x="350.755" y="187.014" fill="#DECCC5" width="10.583" height="0.616"/>
<path fill="#EEA886" d="M354.554,189.366c0-0.308,0.331-0.78,0.85-0.373c0.517,0.407-0.123,1.893-0.541,1.761
	C354.443,190.621,354.554,189.686,354.554,189.366z"/>
<g>
	<path fill="#C7D5D2" d="M232.16,38.839c-0.514-1.988-1.302-3.867-2.319-5.593l2.361-3.552l-3.276-3.276l-3.275-3.275l-3.552,2.361
		c-1.727-1.019-3.604-1.807-5.593-2.32l-0.842-4.178h-4.633h-4.633l-0.842,4.178c-1.988,0.514-3.866,1.302-5.592,2.32l-3.552-2.361
		l-3.276,3.275l-3.276,3.276l2.362,3.552c-1.019,1.726-1.807,3.604-2.32,5.593l-4.178,0.841v4.633v4.634l4.178,0.84
		c0.514,1.989,1.302,3.866,2.32,5.592l-2.362,3.551l3.276,3.276l3.276,3.276l3.552-2.361c1.726,1.019,3.604,1.806,5.592,2.32
		l0.842,4.177h4.633h4.633l0.842-4.177c1.988-0.515,3.866-1.302,5.593-2.32l3.552,2.361l3.275-3.276l3.276-3.276l-2.361-3.551
		c1.018-1.726,1.806-3.604,2.319-5.592l4.178-0.84v-4.634V39.68L232.16,38.839z M211.031,60.549c-8.967,0-16.234-7.27-16.234-16.236
		s7.268-16.235,16.234-16.235c8.966,0,16.235,7.269,16.235,16.235C227.267,53.279,219.998,60.549,211.031,60.549z"/>
</g>
<g>
	<path fill="#C7D5D2" d="M259.277,20.015c-0.234-0.912-0.598-1.773-1.064-2.565l1.084-1.628l-1.503-1.502l-1.503-1.502l-1.628,1.083
		c-0.79-0.467-1.651-0.828-2.563-1.063l-0.385-1.915h-2.124h-2.125l-0.385,1.915c-0.912,0.235-1.772,0.597-2.565,1.063l-1.627-1.083
		l-1.501,1.502l-1.503,1.502l1.083,1.628c-0.466,0.792-0.828,1.653-1.063,2.565l-1.916,0.385v2.124v2.124l1.916,0.386
		c0.234,0.911,0.597,1.772,1.063,2.564l-1.083,1.628l1.503,1.502l1.501,1.501l1.627-1.083c0.793,0.467,1.653,0.828,2.565,1.063
		l0.385,1.915h2.125h2.124l0.385-1.915c0.912-0.235,1.773-0.597,2.563-1.063l1.628,1.083l1.503-1.501l1.503-1.502l-1.084-1.628
		c0.469-0.792,0.83-1.653,1.064-2.564l1.914-0.386v-2.124V20.4L259.277,20.015z M249.591,29.966c-4.112,0-7.444-3.331-7.444-7.442
		c0-4.11,3.332-7.442,7.444-7.442c4.109,0,7.441,3.332,7.441,7.442C257.032,26.635,253.7,29.966,249.591,29.966z"/>
</g>
<g>
	<path fill="#C7D5D2" d="M174.072,46.877c-0.234-0.912-0.596-1.773-1.063-2.565l1.084-1.629l-1.503-1.501l-1.503-1.502l-1.628,1.083
		c-0.789-0.466-1.65-0.828-2.563-1.063l-0.385-1.915h-2.125h-2.125l-0.384,1.915c-0.912,0.235-1.773,0.597-2.566,1.063l-1.627-1.083
		l-1.5,1.502l-1.503,1.501l1.083,1.629c-0.466,0.792-0.828,1.653-1.062,2.565l-1.916,0.384v2.125v2.124l1.916,0.386
		c0.234,0.91,0.596,1.772,1.062,2.564l-1.083,1.628l1.503,1.501l1.5,1.502l1.627-1.083c0.793,0.467,1.654,0.828,2.566,1.064
		l0.384,1.915h2.125h2.125l0.385-1.915c0.912-0.236,1.773-0.597,2.563-1.064l1.628,1.083l1.503-1.502l1.503-1.501l-1.084-1.628
		c0.467-0.792,0.829-1.654,1.063-2.564l1.916-0.386v-2.124v-2.125L174.072,46.877z M164.386,56.829
		c-4.111,0-7.444-3.332-7.444-7.443c0-4.11,3.333-7.442,7.444-7.442c4.109,0,7.442,3.333,7.442,7.442
		C171.828,53.497,168.495,56.829,164.386,56.829z"/>
</g>
<g>
	<path fill="#C7D5D2" d="M187.264,12.818c-0.182-0.711-0.465-1.382-0.829-2l0.846-1.27l-1.173-1.171l-1.172-1.171l-1.27,0.845
		c-0.616-0.363-1.287-0.646-1.998-0.829l-0.301-1.493h-1.656h-1.657l-0.301,1.493c-0.71,0.183-1.382,0.466-2,0.829l-1.271-0.845
		l-1.17,1.171l-1.172,1.171l0.844,1.27c-0.363,0.618-0.646,1.289-0.828,2l-1.495,0.3v1.657v1.656l1.495,0.301
		c0.182,0.71,0.465,1.383,0.828,1.999l-0.844,1.271l1.172,1.17l1.17,1.172l1.271-0.844c0.617,0.364,1.289,0.646,2,0.829l0.301,1.493
		h1.657h1.656l0.301-1.493c0.711-0.184,1.382-0.465,1.998-0.829l1.27,0.844l1.172-1.172l1.173-1.17l-0.846-1.271
		c0.364-0.616,0.647-1.289,0.829-1.999l1.494-0.301v-1.656v-1.657L187.264,12.818z M179.711,20.579
		c-3.207,0-5.806-2.598-5.806-5.804c0-3.205,2.599-5.804,5.806-5.804c3.204,0,5.803,2.599,5.803,5.804
		C185.514,17.981,182.915,20.579,179.711,20.579z"/>
</g>
<path fill="#FFFFFF" d="M308.352,209.025H138.729c-6.254,0-11.325-5.071-11.325-11.324V87.257c0-6.254,5.071-11.324,11.325-11.324
	h169.623c6.256,0,11.324,5.07,11.324,11.324v110.444C319.676,203.954,314.606,209.025,308.352,209.025z"/>
<rect x="222.755" y="74.448" fill="#E8E8E8" width="1.571" height="136.125"/>
<g>
	<rect x="140.385" y="89.956" fill="#C1DBD1" width="70.646" height="2.671"/>
	<rect x="140.385" y="99.744" fill="#C1DBD1" width="70.646" height="2.671"/>
	<rect x="140.385" y="109.532" fill="#C1DBD1" width="70.646" height="2.671"/>
	<rect x="140.385" y="119.32" fill="#C1DBD1" width="70.646" height="2.671"/>
	<rect x="140.385" y="129.107" fill="#C1DBD1" width="70.646" height="2.672"/>
	<rect x="140.385" y="138.896" fill="#C1DBD1" width="70.646" height="2.67"/>
	<rect x="140.385" y="148.686" fill="#C1DBD1" width="70.646" height="2.67"/>
	<rect x="140.385" y="158.475" fill="#C1DBD1" width="70.646" height="2.67"/>
	<rect x="140.385" y="168.264" fill="#C1DBD1" width="70.646" height="2.67"/>
	<rect x="140.385" y="178.051" fill="#C1DBD1" width="70.646" height="2.67"/>
	<rect x="140.385" y="187.839" fill="#C1DBD1" width="70.646" height="2.67"/>
</g>
<g>
	<rect x="235.653" y="89.956" fill="#C1DBD1" width="70.646" height="2.671"/>
	<rect x="235.653" y="99.744" fill="#C1DBD1" width="70.646" height="2.671"/>
	<rect x="235.653" y="109.532" fill="#C1DBD1" width="70.646" height="2.671"/>
	<rect x="235.653" y="119.32" fill="#C1DBD1" width="70.646" height="2.671"/>
	<rect x="235.653" y="129.107" fill="#C1DBD1" width="70.646" height="2.672"/>
	<rect x="235.653" y="138.896" fill="#C1DBD1" width="70.646" height="2.67"/>
	<rect x="235.653" y="148.686" fill="#C1DBD1" width="70.646" height="2.67"/>
	<rect x="235.653" y="158.475" fill="#C1DBD1" width="70.646" height="2.67"/>
	<rect x="235.653" y="168.264" fill="#C1DBD1" width="70.646" height="2.67"/>
	<rect x="235.653" y="178.051" fill="#C1DBD1" width="70.646" height="2.67"/>
	<rect x="235.653" y="187.839" fill="#C1DBD1" width="70.646" height="2.67"/>
</g>
<g>
	<g>
		<path fill="#E0CBAF" d="M199.012,108.257c0,0-1.075-1.879,0.628-6.914c1.647-4.87,7.349-4.428,9.16-1.309
			c1.812,3.12,1.2,5.059-1.468,8.581C204.665,112.139,200.119,109.867,199.012,108.257z"/>
	</g>
</g>
<g>
	<g>
		<path fill="#EEA886" d="M212.252,194.895c0,0,0.283,2.066,0.315,2.377c0.036,0.312,3.139-0.184,3.139-0.184l0.253-2.461
			C215.959,194.627,212.639,194.602,212.252,194.895z"/>
	</g>
</g>
<g>
	<g>
		<path fill="#152B3D" d="M212.536,197.01c0,0-0.982,1.245-1.933,1.788c-0.953,0.542-2.445,0.759-3.009,1.321
			c-0.405,0.406-1.478,2.152,2.472,2.117c3.948-0.035,5.852,0.246,6.274-0.424c0.422-0.67-0.611-4.943-0.611-4.943
			S214.764,197.143,212.536,197.01z"/>
	</g>
</g>
<g>
	<g>
		<path fill="#EEA886" d="M190.769,194.895c0,0,0.282,2.066,0.317,2.377c0.035,0.312,3.139-0.184,3.139-0.184l0.25-2.461
			C194.475,194.627,191.157,194.602,190.769,194.895z"/>
	</g>
</g>
<g>
	<g>
		<path fill="#152B3D" d="M191.053,197.01c0,0-0.983,1.245-1.934,1.788c-0.95,0.542-4.451,0.989-5.012,1.552
			c-0.406,0.406-1.081,2.041,4.475,1.887c3.948-0.108,5.854,0.246,6.277-0.424c0.423-0.67-0.613-4.942-0.613-4.942
			S193.02,197.087,191.053,197.01z"/>
	</g>
</g>
<g>
	<g>
		<path fill="#323657" d="M211.207,143.4c0,0,1.59,4.942,1.381,9.203c-0.209,4.26,0.823,8.922,1.244,13.373
			c0.471,4.961,2.396,16.707,2.465,19.359c0.072,2.653-0.298,11.128-0.298,11.128l-3.854,0.095c0,0-3.235-20.535-4.073-22.629
			c-0.839-2.096-4.993-17.031-5.134-18.71C202.797,153.544,211.207,143.4,211.207,143.4z"/>
	</g>
</g>
<g>
	<g>
		<path fill="#323657" d="M195.23,142.886c0,0-2.338,13.071-2.616,15.679c-0.28,2.607-0.466,12.619-0.606,14.248
			c-0.14,1.631-0.932,21.326-1.676,23.746h4.295c0,0,4.413-14.317,4.413-21.092c0-6.775,2.919-14.729,4.805-19.197
			c1.888-4.47,6.203-4.576,7.362-12.869C211.207,143.4,196.801,140.256,195.23,142.886z"/>
	</g>
</g>
<g>
	<g>
		<path fill="#E0CBAF" d="M200.569,109.587c0,0,0.485,1.41,0,2.418c-0.485,1.006,6.192,0.401,6.192,0.401s-0.303-2.081,0.57-3.791
			C208.203,106.904,200.569,109.587,200.569,109.587z"/>
	</g>
</g>
<g>
	<g>
		<path fill="#323657" d="M211.517,144.477c0,0-2.401,2.467-16.5-0.385l0.214-1.206l16.027,0.604L211.517,144.477z"/>
	</g>
</g>
<g>
	<g>
		<path fill="#E0CBAF" d="M199.56,112.331c0,0-2.466,0.251-3.171,0.386c-0.704,0.134-5.448-0.849-6.42-0.949
			c-0.975-0.101-5.122-2.943-5.257-3.278c-0.133-0.335-2.522-6.386-2.657-7.694c-0.134-1.31-2.329-0.634-2.14,0.268
			c0.352,1.687,0.805,5.78,1.052,6.968c0.268,1.281,0.983,4.184,1.386,4.54c0.402,0.358,4.138,3.2,7.796,4.407
			c3.656,1.208,6.41,2.986,6.41,2.986h18.021c0,0,7.012-10.02,7.162-11.531c0.151-1.509-4.896-11.544-5.903-12.802
			c-1.007-1.259-2.461,0.41-2.461,0.41s3.014,8.85,3.417,10.106c0.402,1.259-3.509,6.787-4.581,6.804
			c-1.073,0.017-3.832-0.335-5.055-0.386c-1.226-0.05-2.518-0.588-2.518-0.588L199.56,112.331z"/>
	</g>
</g>
<g>
	<g>
		<path fill="#445D7B" d="M191.792,119.023c0,0,2.206,1.467,2.407,3.983c0.201,2.518,1.006,6.492,1.408,7.852
			c0.403,1.358-0.352,11.223-0.451,11.927c-0.102,0.704,13.946,2.378,16.102,0.704c0,0,0.606-9.208,0.856-11.826
			c0.252-2.616,1.46-8.957,1.862-9.813c0.402-0.854,5.283-7.701,5.485-8.604c0,0-2.525-4.026-4.337-4.076
			c0,0-2.879,3.372-3.816,3.523c-0.938,0.15-6.688-0.903-6.688-0.912c0,0-0.628,0.854-3.964-0.151c0,0-3.973,0.448-4.62,0.529
			c-0.782,0.101-6.224-0.683-6.224-0.683s-2.184,3.687-1.802,5.548L191.792,119.023z"/>
	</g>
</g>
<g>
	<g>
		<path fill="#E0CBAF" d="M182.181,101.581c0,0-0.493-2.333,0.101-3.002c0.339-0.381,1.148-1.391,1.223-1.539
			c0.075-0.148,0.945-0.648,0.945-0.89c0-0.242-0.851-0.539-1.594,0.148c-0.74,0.685-1.203,0.833-1.502,0.759
			c-0.295-0.074-0.722-2.539-0.759-3.15c-0.038-0.612-0.272-2.225-0.656-2.113c-0.383,0.111-0.363,0.815-0.363,0.815
			s-0.446-1.223-0.742-0.983c-0.298,0.242-0.26,0.836-0.26,0.836s-0.557-0.687-0.705-0.187s0,0.945,0,0.945
			s-0.573-0.315-0.612,0.464c-0.036,0.778,0.168,3.059,0.576,3.874c0.408,0.816,1.934,2.95,2.116,3.783
			C180.131,102.175,182.181,101.581,182.181,101.581z"/>
	</g>
</g>
<g>
	<g>
		<path fill="#E0CBAF" d="M213.868,97.484c0,0-1.678-2.819-2.248-3.07c-0.569-0.252-1.376-0.394-2.079-0.898
			c-0.705-0.503-1.636-0.922-1.586-1.091c0.05-0.168,0.881-0.099,1.77,0.286c0.889,0.386,1.279,0.2,1.363-0.001
			c0.084-0.202-0.475-1.623-0.742-1.958c-0.27-0.336-2.181-2.26-1.861-2.545c0.318-0.285,1.559,0.772,1.76,0.99
			c0,0-0.988-2.08-0.604-2.181c0.387-0.101,1.107,0.638,1.107,0.638s-0.084-1.778,1.83,1.107c0,0-0.402-0.957,0.184-0.638
			c0.588,0.318,1.157,2.114,1.342,3.021c0.184,0.905,1.021,3.792,1.735,4.487C216.553,96.326,213.868,97.484,213.868,97.484z"/>
	</g>
</g>
<g>
	<g>
		<path fill="#353A3D" d="M207.332,108.615c0,0-0.884,0.077-2.763-0.571c-1.879-0.648-2.019-3.934-2.425-3.545
			c-0.83,0.794-1.611,0.246-1.926-0.223c0,0,0.918-1.209,0.492-1.79c-0.426-0.582-1.117-1.006-1.117-1.006s1.321-6.369,7.336-3.468
			C213.974,101.414,207.332,108.615,207.332,108.615z"/>
	</g>
</g>
<g>
	<g>
		<path fill="#254380" d="M200.569,112.005l0.213-0.923c0,0,3.837-0.076,5.931,0.227l0.222,1.099
			C206.935,112.408,204.252,113.625,200.569,112.005z"/>
	</g>
</g>
<g>
	<g>
		<path fill="#EEA886" d="M201.516,103.694c0.35-0.58,1.639-0.971,1.789,0.671c0.117,1.273-2.303,2.661-2.325,1.477
			C200.957,104.656,201.284,104.079,201.516,103.694z"/>
	</g>
</g>
<g>
	<g>
		<path fill="#E55353" d="M182.09,101.05c0,0-1.386,0.036-2.057,0.642c0,0-0.045,0.384,0.111,0.689c0,0,1.2-0.559,2.122-0.665
			C182.266,101.716,182.251,101.213,182.09,101.05z"/>
	</g>
</g>
<g>
	<g>
		<circle fill="#353A3D" cx="181.006" cy="101.628" r="0.596"/>
	</g>
</g>
<g>
	<polygon fill="#C7D5D2" points="219.852,202.829 182.235,202.829 194.09,239.239 192.981,239.6 180.628,201.664 220.697,201.664 
		232.934,239.239 231.825,239.6 	"/>
</g>
<g>
	<polygon fill="#C7D5D2" points="207.05,239.239 218.903,202.829 181.288,202.829 169.314,239.6 168.205,239.239 180.442,201.664 
		220.512,201.664 208.158,239.6 	"/>
</g>
<g>
	<rect x="177.309" y="213.128" fill="#C7D5D2" width="46.043" height="1.166"/>
</g>
<g>
	<rect x="173.008" y="225.787" fill="#C7D5D2" width="55.088" height="1.166"/>
</g>
<g>
	<path fill="#213A70" d="M346.969,195.021c0,0,0.25,2.045,0.581,2.945c0.334,0.902,2.138,2.983,1.375,4.983
		c-0.827,2.168-4.432,0.077-5.903-0.583c-1.471-0.661-1.138-1.861-1.293-3.332c-0.157-1.471-0.875-1.51-0.607-2.545
		c0.263-1.033,1.872-3.014,1.872-3.014L346.969,195.021z"/>
</g>
<g>
	<g>
		<path fill="#EEA886" d="M343.688,192.408c0,0-0.925,1.292-0.897,1.326c0.025,0.037,3.953,2.428,4.229,1.652
			c0.218-0.617,0.31-1.511,0.31-1.511L343.688,192.408z"/>
	</g>
</g>
<g>
	<path fill="#213A70" d="M330.367,196.467c0,0-1.198,1.051-2.276,2.664c-1.075,1.614-3.934,1.701-4.056,3.904
		c-0.122,2.205,3.885,2.273,5.99,1.555c2.104-0.717,2.422-2.869,3.692-3.408c1.272-0.537,1.935-0.974,1.834-2.022
		c-0.097-1.054-0.801-2.759-0.801-2.759s-0.791,0.255-1.255,0.306C333.031,196.756,331.468,196.773,330.367,196.467z"/>
</g>
<g>
	<path fill="#FAE6DE" d="M344.788,136.752c0,0-0.808,4.797-1.454,7.963l0,0c-0.266,1.284-0.505,2.301-0.651,2.621
		c-0.185,0.403-1.699,2.028-3.553,3.936c-3.248,3.346-7.544,7.56-7.544,7.56l-1.678-3.187c0,0,3.813-4.473,6.398-7.455
		c1.197-1.381,2.132-2.441,2.304-2.597c0.54-0.483,1.167-5.247,2.048-9.175c0.885-3.927,2.649-6.096,2.649-6.096L344.788,136.752z"
		/>
</g>
<g>
	<path fill="#E0CBAF" d="M339.13,151.271c-3.248,3.345-7.544,7.559-7.544,7.559l-1.678-3.188c0,0,3.813-4.472,6.398-7.455
		C337.1,148.577,338.557,149.505,339.13,151.271z"/>
</g>
<g>
	<path fill="#EEA886" d="M330.555,194.998l-0.188,1.469c0,0,2.086,0.736,4.385-0.066l0.047-1.305L330.555,194.998z"/>
</g>
<g>
	<path fill="#FAE6DE" d="M360.17,158.182c0.121,0.428-22.098,0-22.098,0s6.146-4.474,6.545-5.668
		c0.397-1.195-1.563-8.363-1.821-10.697c-0.204-1.866-0.718-10.219,0.513-11.493c1.286-1.334,5.918-2.732,5.918-2.732l6.755,0.251
		c0,0,1.112,0.233,1.909,0.604c0.795,0.371,5.354,1.992,6.093,4.27c0.737,2.275-4.545,9.596-4.545,9.596s-0.011,0.328-0.027,0.866
		l0,0c-0.021,0.72-0.051,1.812-0.077,2.996c-0.036,1.534-0.066,3.224-0.066,4.458C359.267,153.53,360.051,157.755,360.17,158.182z"
		/>
</g>
<g>
	<path fill="#323657" d="M360.17,158.182c0,0,3.022,4.439,3.064,7.469c0.042,3.031-5.361,13.18-6.18,14.631
		c-2.462,4.365-9.205,13.779-9.205,13.779s-1.16-0.03-4.79-1.438c0,0,4.487-12.438,5.056-13.727
		c2.413-5.477,3.76-9.358,2.948-10.299c-0.812-0.938-3.021-1.88-3.661-2.436c-0.641-0.555-11.792,2.107-12.96,2.41
		c-3.026,0.785-1.648,6.05-0.979,8.41c1.121,3.949,2.101,18.209,2.101,18.209s-2.155,0.918-5.767,0.143
		c0,0-7.087-25.749-7.315-28.309c-0.229-2.562-0.34-6.783,17.13-9.992L360.17,158.182z"/>
</g>
<g>
	<path fill="#E0CBAF" d="M351.08,112.919c0,0-5.862-1.322-4.523,6.055c1.34,7.377,2.749,7.956,6.285,6.431
		c3.536-1.527,3.22-6.253,3.398-8.57C356.418,114.516,352.949,113,351.08,112.919z"/>
</g>
<g>
	<path fill="#EEA886" d="M349.529,129.484c0,0,2.597,2.75,6.697,0.25c0,0-0.917-5.963-0.436-8.869c0.483-2.905-5.354,4.5-5.354,4.5
		c0.076,0.041,0.128,0.318,0.141,0.713c0.011,0.335-0.008,0.752-0.063,1.184C350.398,128.227,350.098,129.246,349.529,129.484z"/>
</g>
<g>
	<path fill="#3A3F47" d="M355.955,120.619c0,0-0.153-2.324-1.002-2.397c-0.848-0.073-0.979,0.864-0.979,0.864l-0.856,0.162
		c0,0,0.271-2.037-0.576-2.394c-0.849-0.355-5.493,1.121-6.173,0.524c-0.682-0.598-0.359-4.731,0.871-5.296
		c1.229-0.565,4.628-1.833,7.118-0.147c0,0,1.94-0.222,2.229,1.345C356.875,114.847,356.482,119.454,355.955,120.619z"/>
</g>
<g>
	<path fill="#A77860" d="M350.518,127.262c4.232-1.307,4.553-3.854,4.557-3.895c-1.395,2.395-4.494,2.711-4.494,2.711
		C350.59,126.413,350.571,126.83,350.518,127.262z"/>
</g>
<g>
	<path fill="#E0CBAF" d="M357.96,128.477c0,0-3.101,6.17-8.106,5.771c-5.009-0.398-0.854-6.602-0.627-6.658
		C349.478,127.527,354.362,126.311,357.96,128.477z"/>
</g>
<g>
	<path fill="#FAE6DE" d="M335.533,157.87c0,0,15.342,1.892,24.637,0.312l-17.761-2.219
		C342.409,155.963,342.305,156.416,335.533,157.87z"/>
</g>
<g>
	<path fill="#EEA886" d="M347.008,155.266l-1.143,0.578c0,0,0.261,1.816,0.885,2.365l1.284-0.328
		C348.034,157.881,347.767,155.891,347.008,155.266z"/>
</g>
<g>
	<path fill="#FAE6DE" d="M364.762,151.547c-0.229,0.266-3.246,1.479-6.65,2.791h-0.002c-4.655,1.793-9.906,3.488-9.906,3.488
		l-1.194-2.563c0,0,5.499-2.988,9.215-5.082c1.755-0.99,3.113-1.781,3.305-1.965c0.598-0.568,0.752-1.482,0.313-3.072
		c-0.439-1.592-1.452-8.905-1.564-9.76c-0.113-0.854,0.283-3.129,2.419-3.242c2.134-0.113,3.221,0.488,3.221,0.488
		s0.534,0.223,0.932,5.401C365.246,143.209,365.302,150.921,364.762,151.547z"/>
</g>
<g>
	<path fill="#968A86" d="M359.41,143.175L359.41,143.175c-0.021,0.72-0.051,1.812-0.077,2.996c-2.084-5.104-0.879-9.179-0.86-9.248
		C358.248,138.309,359.395,143.107,359.41,143.175z"/>
</g>
<g>
	<path fill="#968A86" d="M343.334,144.715L343.334,144.715c-0.266,1.284-0.505,2.301-0.651,2.621
		c-0.712-3.441-0.068-7.85-0.068-7.85C342.709,141.59,343.334,144.715,343.334,144.715z"/>
</g>
<g>
	<path fill="#E0CBAF" d="M358.11,154.338h-0.002c-4.655,1.793-10.074,3.543-10.074,3.543l-1.026-2.615c0,0,5.499-2.988,9.215-5.084
		C356.223,150.182,357.575,150.84,358.11,154.338z"/>
</g>
<g>
	<polygon fill="#807571" points="346.676,158.034 324.869,157.713 335.879,163.303 	"/>
</g>
<g>
	<polygon fill="#DBCAC2" points="335.879,163.303 346.676,159.122 346.676,158.034 335.025,162.236 	"/>
</g>
<g>
	<g>
		<path fill="#E0CBAF" d="M346.111,155.883c0,0-1.361-0.212-2.305-0.431c-0.729-0.171-2.54,0.063-3.001,0.53
			c-0.461,0.47-1.929,3.727-2.207,3.926c-0.276,0.197,0.145,0.658,0.63,0.428c0,0,0.448,1.426,1.553,0.893
			c1.104-0.535,1.854-1.699,2.433-1.904s3.946-1.239,3.946-1.239S346.979,155.536,346.111,155.883z"/>
	</g>
</g>
<g>
	<g>
		<path fill="#EEA886" d="M341.139,155.77c0,0-0.875,0.424-1.104,0.611s-1.153,0.881-1.378,1.045
			c-0.226,0.162,0.339,0.626,1.995-0.091C342.305,156.617,341.139,155.77,341.139,155.77z"/>
	</g>
</g>
<g>
	<polygon fill="#DBCAC2" points="335.879,163.303 329.393,145.593 308.482,145.934 314.665,162.256 	"/>
</g>
<g>
	
		<ellipse transform="matrix(-0.4477 -0.8942 0.8942 -0.4477 327.0165 510.3867)" fill="#B0A29C" cx="321.122" cy="154.207" rx="2.582" ry="1.774"/>
</g>
<g>
	<path fill="#EEA886" d="M353.993,118.101c0.076-0.651,1.362-0.89,1.468,0.085c0.102,0.976-0.586,2.689-1.074,2.52
		C353.898,120.538,353.886,118.998,353.993,118.101z"/>
</g>
<path fill="#816035" d="M131.229,239.831H24.463c-4.302,0-7.791-3.487-7.791-7.79v-12.646c0-4.304,3.489-7.791,7.791-7.791h106.766
	V239.831z"/>
<path fill="#816035" d="M149.565,214.51v22.417h1.872v2.905H74.05c-4.302,0-7.79-3.488-7.79-7.79v-12.646
	c0-4.304,3.488-7.791,7.79-7.791h77.388v2.904H149.565z"/>
<path fill="#FDFCF1" d="M149.563,236.926h-69.8c-4.303,0-7.791-3.488-7.791-7.791V222.3c0-4.303,3.488-7.791,7.791-7.791h69.801
	L149.563,236.926L149.563,236.926z"/>
<path fill="#5D81A5" d="M136.217,211.604H19.337c-5.406,0-9.789-4.383-9.789-9.789v-13.25c0-5.405,4.383-9.789,9.789-9.789h116.88
	V211.604z"/>
<path fill="#46607E" d="M156.95,182.155v26.069h1.612v3.379H94.994c-5.407,0-9.79-4.383-9.79-9.789v-13.25
	c0-5.405,4.382-9.789,9.79-9.789h63.568v3.38H156.95z"/>
<path fill="#FDFCF1" d="M156.948,208.225H99.914c-5.407,0-9.79-4.384-9.79-9.789v-6.492c0-5.405,4.383-9.788,9.79-9.788h57.035
	L156.948,208.225L156.948,208.225z"/>
<path fill="#816035" d="M52.01,178.77h88.834c5.851,0,10.593-4.744,10.593-10.594v-19.06c0-5.851-4.742-10.593-10.593-10.593H52.01
	V178.77z"/>
<path fill="#816035" d="M36.095,142.667v31.961H34.47v4.144h63.335c5.851,0,10.594-4.742,10.594-10.594v-19.061
	c0-5.852-4.743-10.594-10.594-10.594H34.47v4.144H36.095z"/>
<path fill="#FDFCF1" d="M36.098,174.626h56.007c5.816,0,10.53-4.714,10.53-10.528v-10.901c0-5.815-4.714-10.531-10.53-10.531H36.098
	V174.626z"/>
<path fill="#5D81A5" d="M118.532,138.514H24.336c-6.151,0-11.137-4.986-11.137-11.138v-17.974c0-6.15,4.986-11.136,11.137-11.136
	h94.196V138.514z"/>
<path fill="#46607E" d="M135.392,102.41v31.963h1.722v4.143H69.93c-6.151,0-11.136-4.985-11.136-11.137v-17.974
	c0-6.15,4.985-11.137,11.136-11.137h67.183v4.143L135.392,102.41L135.392,102.41z"/>
<path fill="#FDFCF1" d="M135.39,134.37H75.73c-6.125,0-11.09-4.965-11.09-11.09v-9.781c0-6.125,4.965-11.09,11.09-11.09h59.66
	V134.37z"/>
<path fill="#5D81A5" d="M145.1,98.255H46.68c-3.818,0-6.912-3.095-6.912-6.912V74.711c0-3.817,3.094-6.913,6.912-6.913h98.42V98.255
	z"/>
<path fill="#46607E" d="M161.959,70.934v24.189h1.721v3.135H92.274c-3.818,0-6.913-3.096-6.913-6.913V74.712
	c0-3.817,3.095-6.913,6.913-6.913h71.406v3.135H161.959z"/>
<path fill="#FDFCF1" d="M161.958,95.12H97.526c-3.817,0-6.913-3.096-6.913-6.912V77.846c0-3.817,3.096-6.913,6.913-6.913h64.431
	L161.958,95.12L161.958,95.12z"/>
</svg>
