<?xml version="1.0" encoding="utf-8"?>
<!-- Generator: Adobe Illustrator 16.0.0, SVG Export Plug-In . SVG Version: 6.00 Build 0)  -->
<!DOCTYPE svg PUBLIC "-//W3C//DTD SVG 1.1//EN" "http://www.w3.org/Graphics/SVG/1.1/DTD/svg11.dtd">
<svg version="1.1" id="Layer_1" xmlns="http://www.w3.org/2000/svg" xmlns:xlink="http://www.w3.org/1999/xlink" x="0px" y="0px"
	 width="186px" height="191.5px" viewBox="0 0 186 191.5" enable-background="new 0 0 186 191.5" xml:space="preserve">
<path fill="#7D7D7D" d="M14.457,98.527c0,0,0.007-0.492,0.02-1.447c0.005-0.238,0.002-0.504,0.015-0.801
	c0.013-0.295,0.024-0.616,0.038-0.969c0.017-0.353,0.022-0.732,0.051-1.138c0.025-0.405,0.054-0.841,0.083-1.299
	c0.135-1.841,0.348-4.109,0.762-6.754c0.413-2.642,1.027-5.661,1.942-8.981c0.058-0.208,0.112-0.417,0.173-0.627
	c0.062-0.209,0.125-0.419,0.188-0.631c0.127-0.423,0.256-0.852,0.386-1.287c0.284-0.86,0.558-1.749,0.885-2.642
	c0.307-0.901,0.662-1.807,1.016-2.736c0.376-0.923,0.751-1.867,1.177-2.814c1.661-3.803,3.774-7.782,6.408-11.789
	c2.634-4.006,5.799-8.037,9.552-11.892c3.751-3.851,8.08-7.539,12.989-10.814c2.455-1.636,5.049-3.171,7.774-4.582
	c2.725-1.413,5.59-2.676,8.566-3.795c2.976-1.123,6.073-2.07,9.265-2.839c0.796-0.204,1.603-0.367,2.411-0.544
	c0.403-0.093,0.812-0.163,1.218-0.242c0.408-0.076,0.816-0.158,1.226-0.23c0.411-0.068,0.823-0.135,1.235-0.203l0.619-0.102
	l0.624-0.087c0.415-0.057,0.831-0.115,1.249-0.173c0.417-0.054,0.836-0.096,1.256-0.146c0.838-0.104,1.683-0.169,2.529-0.244
	c0.424-0.042,0.849-0.061,1.275-0.089c0.426-0.025,0.852-0.057,1.28-0.077c0.429-0.015,0.856-0.031,1.288-0.047l0.646-0.024
	l0.642-0.007c0.428-0.004,0.857-0.01,1.287-0.015c0.44,0,0.867,0.011,1.303,0.015c0.867,0.002,1.733,0.047,2.605,0.08
	c0.436,0.011,0.871,0.05,1.308,0.076c0.435,0.03,0.873,0.05,1.311,0.09c0.872,0.082,1.75,0.146,2.625,0.257
	c0.438,0.053,0.878,0.098,1.314,0.156c0.437,0.061,0.877,0.124,1.316,0.185c0.438,0.058,0.877,0.132,1.315,0.206
	c0.438,0.075,0.877,0.144,1.314,0.223c0.876,0.173,1.758,0.325,2.63,0.527c1.754,0.368,3.497,0.827,5.238,1.317
	c0.867,0.259,1.737,0.511,2.6,0.802c0.868,0.273,1.723,0.585,2.584,0.889c0.431,0.154,0.855,0.323,1.283,0.483l0.642,0.244
	c0.214,0.083,0.426,0.173,0.636,0.26c0.425,0.173,0.851,0.348,1.275,0.523c0.421,0.185,0.842,0.37,1.264,0.554
	c6.73,2.995,13.154,6.984,18.956,11.863c5.803,4.876,10.98,10.641,15.254,17.083c4.276,6.44,7.644,13.558,9.897,21.049
	c2.261,7.487,3.403,15.339,3.396,23.188c-0.009,7.847-1.166,15.694-3.442,23.173c-2.267,7.479-5.646,14.586-9.931,21.01
	c-4.28,6.427-9.463,12.171-15.264,17.025c-5.803,4.859-12.222,8.828-18.941,11.801c-0.422,0.184-0.843,0.368-1.264,0.551
	c-0.425,0.175-0.847,0.346-1.27,0.52c-0.213,0.084-0.425,0.174-0.639,0.258l-0.64,0.242c-0.427,0.159-0.853,0.329-1.28,0.48
	c-0.859,0.3-1.715,0.609-2.579,0.88c-0.861,0.286-1.729,0.538-2.594,0.794c-1.739,0.488-3.479,0.941-5.229,1.304
	c-0.87,0.198-1.749,0.349-2.622,0.52c-0.436,0.078-0.876,0.146-1.313,0.221c-0.437,0.071-0.874,0.147-1.313,0.199
	c-0.437,0.063-0.873,0.124-1.312,0.185c-0.437,0.058-0.876,0.102-1.31,0.151c-0.875,0.108-1.75,0.172-2.619,0.252
	c-0.436,0.038-0.871,0.058-1.306,0.086c-0.438,0.024-0.87,0.063-1.305,0.076c-0.87,0.028-1.737,0.071-2.599,0.071
	c-0.432,0.003-0.859,0.013-1.293,0.013c-0.431-0.008-0.859-0.013-1.289-0.02l-0.643-0.007l-0.643-0.024
	c-0.428-0.017-0.855-0.033-1.281-0.051c-0.426-0.021-0.851-0.054-1.275-0.08c-0.424-0.028-0.848-0.048-1.27-0.091
	c-0.844-0.076-1.686-0.144-2.521-0.249c-0.419-0.049-0.836-0.092-1.252-0.147c-0.415-0.059-0.83-0.116-1.243-0.174l-0.622-0.09
	l-0.616-0.101c-0.411-0.071-0.821-0.139-1.23-0.206c-0.409-0.073-0.815-0.155-1.221-0.231c-0.407-0.08-0.813-0.149-1.214-0.244
	c-0.805-0.177-1.609-0.343-2.401-0.546c-3.178-0.773-6.262-1.723-9.223-2.848c-2.962-1.123-5.813-2.384-8.523-3.797
	c-2.712-1.41-5.292-2.946-7.732-4.579c-4.882-3.271-9.182-6.949-12.907-10.789c-3.726-3.845-6.869-7.861-9.481-11.854
	c-2.612-3.989-4.706-7.951-6.349-11.736c-0.422-0.944-0.792-1.883-1.164-2.801c-0.35-0.925-0.701-1.826-1.004-2.723
	c-0.324-0.889-0.594-1.772-0.875-2.63c-0.128-0.432-0.255-0.857-0.381-1.28c-0.062-0.21-0.125-0.42-0.186-0.625
	c-0.06-0.21-0.113-0.418-0.17-0.626c-0.904-3.302-1.508-6.304-1.913-8.932c-0.406-2.63-0.613-4.884-0.744-6.712
	c-0.028-0.456-0.055-0.889-0.08-1.292c-0.027-0.403-0.032-0.78-0.048-1.131c-0.013-0.351-0.025-0.671-0.035-0.964
	c-0.013-0.295-0.009-0.56-0.015-0.797c-0.011-0.947-0.015-1.435-0.015-1.435H14.457z M14.969,98.527c0,0,0.005,0.487,0.019,1.435
	c0.005,0.237,0.002,0.502,0.016,0.797c0.011,0.293,0.023,0.613,0.038,0.964c0.016,0.351,0.022,0.728,0.05,1.131
	c0.025,0.403,0.053,0.833,0.083,1.292c0.135,1.828,0.346,4.082,0.756,6.708c0.41,2.627,1.021,5.626,1.931,8.923
	c0.057,0.208,0.111,0.416,0.171,0.624c0.062,0.208,0.125,0.418,0.188,0.628c0.126,0.42,0.255,0.846,0.384,1.278
	c0.282,0.854,0.555,1.735,0.879,2.624c0.306,0.895,0.657,1.795,1.01,2.721c0.374,0.914,0.746,1.854,1.168,2.794
	c1.651,3.78,3.75,7.731,6.368,11.714c2.616,3.98,5.763,7.985,9.491,11.816c3.728,3.828,8.028,7.491,12.906,10.745
	c2.44,1.625,5.018,3.152,7.726,4.552c2.707,1.403,5.555,2.657,8.511,3.771c2.955,1.115,6.034,2.058,9.205,2.823
	c0.79,0.2,1.592,0.361,2.395,0.538c0.401,0.092,0.806,0.162,1.211,0.241c0.405,0.075,0.811,0.158,1.218,0.228
	c0.409,0.067,0.817,0.136,1.227,0.203l0.615,0.102l0.619,0.085c0.414,0.057,0.826,0.115,1.24,0.173
	c0.416,0.053,0.832,0.098,1.25,0.146c0.833,0.104,1.671,0.167,2.514,0.241c0.42,0.043,0.843,0.061,1.265,0.09
	c0.424,0.024,0.849,0.055,1.272,0.074c0.425,0.018,0.85,0.032,1.276,0.048l0.64,0.021l0.641,0.011
	c0.43,0.005,0.857,0.009,1.287,0.015c0.426,0,0.859-0.01,1.289-0.015c0.863-0.002,1.725-0.046,2.589-0.08
	c0.433-0.009,0.867-0.05,1.3-0.074c0.433-0.032,0.867-0.052,1.302-0.09c0.867-0.082,1.739-0.146,2.608-0.256
	c0.436-0.051,0.872-0.097,1.307-0.154c0.435-0.061,0.872-0.123,1.307-0.184c0.438-0.059,0.872-0.131,1.308-0.206
	c0.436-0.072,0.872-0.143,1.309-0.219c0.869-0.174,1.744-0.325,2.61-0.524c1.744-0.364,3.475-0.821,5.205-1.309
	c0.861-0.26,1.728-0.509,2.582-0.798c0.862-0.271,1.712-0.582,2.568-0.881c0.427-0.155,0.849-0.322,1.276-0.481l0.636-0.244
	c0.213-0.082,0.423-0.171,0.633-0.256c0.423-0.174,0.845-0.349,1.267-0.52c0.418-0.183,0.837-0.366,1.255-0.551
	c6.688-2.978,13.07-6.94,18.834-11.789c5.769-4.844,10.912-10.571,15.158-16.975c4.249-6.397,7.594-13.472,9.832-20.911
	c2.247-7.441,3.382-15.24,3.375-23.039c-0.01-7.801-1.159-15.595-3.42-23.026c-2.254-7.432-5.611-14.492-9.866-20.874
	c-4.256-6.386-9.405-12.095-15.169-16.918c-5.764-4.828-12.144-8.77-18.82-11.725c-0.418-0.183-0.836-0.365-1.254-0.547
	c-0.421-0.172-0.841-0.344-1.263-0.516c-0.211-0.084-0.421-0.174-0.631-0.255l-0.639-0.241c-0.424-0.158-0.847-0.326-1.271-0.479
	c-0.854-0.297-1.703-0.606-2.563-0.875c-0.854-0.285-1.719-0.534-2.577-0.788c-1.727-0.483-3.455-0.934-5.193-1.295
	c-0.864-0.198-1.739-0.346-2.605-0.517c-0.436-0.078-0.869-0.145-1.305-0.219c-0.435-0.071-0.87-0.144-1.304-0.2
	c-0.436-0.061-0.87-0.121-1.302-0.181c-0.436-0.057-0.872-0.101-1.305-0.151c-0.866-0.108-1.736-0.171-2.602-0.25
	c-0.433-0.039-0.866-0.058-1.297-0.088c-0.433-0.023-0.864-0.062-1.297-0.071c-0.861-0.03-1.722-0.074-2.581-0.074
	c-0.428-0.003-0.861-0.013-1.28-0.011c-0.431,0.006-0.859,0.011-1.288,0.017l-0.643,0.008l-0.636,0.025
	c-0.424,0.017-0.848,0.033-1.271,0.051c-0.422,0.021-0.845,0.052-1.267,0.078c-0.421,0.028-0.842,0.047-1.261,0.091
	c-0.839,0.076-1.675,0.143-2.505,0.247c-0.416,0.05-0.831,0.093-1.245,0.148c-0.413,0.058-0.824,0.116-1.235,0.173l-0.618,0.087
	l-0.612,0.102c-0.408,0.069-0.816,0.138-1.222,0.206c-0.406,0.071-0.81,0.153-1.213,0.229c-0.403,0.081-0.808,0.15-1.207,0.242
	c-0.799,0.178-1.598,0.342-2.385,0.543c-3.157,0.769-6.222,1.711-9.164,2.83c-2.942,1.114-5.775,2.37-8.468,3.772
	c-2.694,1.401-5.258,2.926-7.683,4.549c-4.851,3.249-9.124,6.906-12.825,10.722c-3.702,3.819-6.825,7.811-9.42,11.775
	c-2.596,3.967-4.676,7.902-6.308,11.663c-0.42,0.936-0.787,1.872-1.157,2.783c-0.348,0.917-0.697,1.815-0.999,2.705
	c-0.321,0.883-0.59,1.761-0.869,2.612c-0.127,0.429-0.254,0.853-0.378,1.271c-0.063,0.21-0.124,0.418-0.185,0.625
	c-0.059,0.207-0.112,0.414-0.169,0.619c-0.898,3.282-1.499,6.265-1.901,8.876c-0.403,2.611-0.608,4.85-0.738,6.668
	c-0.029,0.454-0.055,0.882-0.081,1.282c-0.025,0.404-0.031,0.778-0.047,1.126c-0.013,0.345-0.025,0.664-0.035,0.956
	c-0.013,0.292-0.01,0.556-0.015,0.792c-0.011,0.94-0.017,1.428-0.017,1.428H14.969z"/>
<circle fill="#53627E" cx="163.629" cy="56.983" r="14.084"/>
<circle fill="#53627E" cx="129.521" cy="20.462" r="15.497"/>
<circle fill="#53627E" cx="64.314" cy="23.141" r="16.048"/>
<circle fill="#53627E" cx="27.498" cy="54.111" r="14.527"/>
<circle fill="#53627E" cx="170.325" cy="105.843" r="10.845"/>
<path fill="#53627E" d="M63.816,177.775c0,5.582,4.524,10.107,10.106,10.107c5.583,0,10.108-4.525,10.108-10.107
	c0-5.585-4.525-10.108-10.108-10.108C68.34,167.667,63.816,172.19,63.816,177.775z"/>
<circle fill="#53627E" cx="165.335" cy="148.478" r="14.083"/>
<circle fill="#53627E" cx="32.97" cy="145.819" r="13.604"/>
<path fill="#53627E" d="M5.088,101.922c0,7.776,6.305,14.08,14.083,14.08c7.778,0,14.083-6.304,14.083-14.08
	c0-7.78-6.306-14.084-14.083-14.084C11.394,87.837,5.088,94.142,5.088,101.922z"/>
<g>
	<circle fill="#53627E" cx="133.788" cy="174.038" r="12.72"/>
</g>
<path fill="#124B59" d="M129.415,9.574l-9.566,7.719c0.048,0.009,0.212,0.831,0.265,0.831l1.242,4.67l15.979-0.296l1.337-4.671
	c0.048,0,0.261-0.525,0.309-0.535L129.415,9.574z"/>
<rect x="121.926" y="13.427" fill="#E1E1EB" width="15.261" height="8.653"/>
<path fill="#FFFFFF" d="M119.861,23.621v5.079c0,0.458,0.368,0.827,0.826,0.827H138.2c0.458,0,0.828-0.369,0.828-0.827v-5.079
	c0-0.458-0.37-0.827-0.828-0.827h-0.412v-9.523c0-0.275-0.282-0.499-0.627-0.499h-15.474c-0.347,0-0.626,0.224-0.626,0.499v9.523
	h-0.374C120.229,22.794,119.861,23.163,119.861,23.621z M136.611,14.304c0,0.396-0.407,0.717-0.906,0.717h-12.562
	c-0.501,0-0.906-0.321-0.906-0.717c0-0.396,0.405-0.717,0.906-0.717h12.562C136.204,13.587,136.611,13.908,136.611,14.304z
	 M136.611,16.383c0,0.396-0.407,0.717-0.906,0.717h-12.562c-0.501,0-0.906-0.321-0.906-0.717c0-0.396,0.405-0.718,0.906-0.718
	h12.562C136.204,15.666,136.611,15.987,136.611,16.383z M136.611,18.461c0,0.396-0.407,0.718-0.906,0.718h-12.562
	c-0.501,0-0.906-0.322-0.906-0.718c0-0.396,0.405-0.717,0.906-0.717h12.562C136.204,17.745,136.611,18.066,136.611,18.461z
	 M136.611,20.54c0,0.397-0.407,0.718-0.906,0.718h-12.562c-0.501,0-0.906-0.32-0.906-0.718c0-0.396,0.405-0.717,0.906-0.717h12.562
	C136.204,19.823,136.611,20.145,136.611,20.54z"/>
<path fill="#98B9E2" d="M126.817,23.099l2.341,1.949c0.074,0.063,0.164,0.093,0.257,0.093c0.092,0,0.182-0.03,0.256-0.093
	l2.341-1.949l6.41,6.409c-0.063,0.017-0.125,0.04-0.192,0.04h-17.626c-0.068,0-0.132-0.023-0.196-0.04L126.817,23.099z"/>
<path fill="#98B9E2" d="M119.803,17.531c0-0.084,0.024-0.162,0.046-0.238l6.35,5.29l-6.356,6.358
	c-0.018-0.063-0.039-0.124-0.039-0.194V17.531z"/>
<path fill="#98B9E2" d="M138.979,17.292c0.025,0.077,0.049,0.154,0.049,0.239v11.215c0,0.07-0.023,0.133-0.04,0.196l-6.358-6.358
	L138.979,17.292z"/>
<path fill="#98B9E2" d="M58.15,29.652l-1.036-1.785c-0.214-0.37-0.688-0.497-1.059-0.282l-2.924,1.697
	c-0.001-1.246,0.639-2.459,1.795-3.13c0.896-0.519,1.922-0.606,2.842-0.333c0.186-0.08,0.359-0.193,0.51-0.351l4.383-4.56
	l0.001,0.001l3.092-3.22c0.164-0.17,0.277-0.366,0.349-0.572c-0.488-1.573,0.15-3.329,1.635-4.189
	c1.156-0.671,2.528-0.626,3.609-0.008l-2.925,1.699c-0.37,0.215-0.496,0.687-0.282,1.058l1.035,1.785
	c0.215,0.37,0.689,0.497,1.06,0.281l2.924-1.699c0.001,1.248-0.639,2.461-1.797,3.131c-0.895,0.52-1.92,0.608-2.84,0.335
	c-0.186,0.079-0.36,0.194-0.509,0.348l-4.383,4.561l-0.001-0.001l-3.093,3.22c-0.162,0.169-0.276,0.364-0.347,0.573
	c0.487,1.573-0.151,3.328-1.636,4.188c-1.156,0.67-2.527,0.626-3.609,0.007l2.925-1.699C58.24,30.493,58.365,30.021,58.15,29.652z"
	/>
<path fill="#898888" d="M53.612,13.435l1.265-1.266l2.127,0.865l0.864,2.127l8.408,8.408c0.381,0.382,0.408,0.975,0.058,1.323
	c-0.349,0.349-0.941,0.323-1.323-0.059l-8.409-8.408l-2.127-0.862L53.612,13.435z"/>
<path fill="#98B9E2" d="M71.316,33.036c0.574,0.574,1.463,0.612,1.985,0.088l1.266-1.265c0.523-0.524,0.485-1.413-0.089-1.985
	l-6.563-6.563c-0.573-0.574-1.461-0.612-1.986-0.089l-1.264,1.266c-0.524,0.523-0.485,1.413,0.087,1.984L71.316,33.036z"/>
<g>
	<path fill="#969696" d="M72.875,30.165c0.458,0.459,0.914,0.745,1.019,0.64l0.253-0.252c0.104-0.104-0.183-0.56-0.64-1.02
		l-5.25-5.251c-0.458-0.456-0.914-0.743-1.02-0.638l-0.253,0.253c-0.104,0.104,0.182,0.56,0.641,1.018L72.875,30.165z"/>
	<path fill="#969696" d="M70.978,32.063c0.458,0.458,0.914,0.744,1.019,0.64l0.253-0.253c0.105-0.105-0.182-0.561-0.64-1.018
		l-5.251-5.251c-0.458-0.458-0.914-0.744-1.018-0.64l-0.253,0.253c-0.105,0.105,0.182,0.562,0.638,1.018L70.978,32.063z"/>
	<path fill="#969696" d="M71.925,31.116c0.459,0.456,0.915,0.744,1.019,0.638l0.253-0.252c0.104-0.105-0.182-0.561-0.638-1.019
		l-5.252-5.25c-0.457-0.459-0.913-0.745-1.018-0.64l-0.253,0.252c-0.105,0.105,0.182,0.562,0.64,1.02L71.925,31.116z"/>
</g>
<path fill="#98B9E2" d="M38.383,56.103c0-0.169-0.009-0.293-0.031-0.508c-0.185-1.157-1.013-2.272-2.065-2.773
	c-0.513-0.236-1.075-0.363-1.639-0.359c-1.322,0.004-2.646-0.007-3.968,0.004c-1.097,0.026-2.163,0.568-2.83,1.44
	c-0.539,0.693-0.816,1.58-0.775,2.455c-0.037,0.764,0.143,1.542,0.55,2.194c0.633,1.058,1.835,1.754,3.074,1.766
	c0.172,0.03,0.37-0.043,0.52,0.064c0.888,0.625,1.779,1.246,2.668,1.865c0.311,0.228,0.802-0.071,0.715-0.458
	c-0.138-0.498-0.378-0.961-0.517-1.462c0.476-0.016,0.966,0.034,1.43-0.094c1.018-0.225,1.923-0.904,2.425-1.822
	C38.334,57.717,38.428,56.938,38.383,56.103z"/>
<path fill="#778FB1" d="M25.869,53.487c-0.505,0-0.917-0.394-0.949-0.891h-1.024c-0.031,0.498-0.443,0.891-0.949,0.891
	c-0.505,0-0.917-0.394-0.949-0.891h-1.023c-0.032,0.498-0.444,0.891-0.95,0.891c-0.504,0-0.917-0.394-0.949-0.891h-4.606
	c-0.008,0.358,0.004,0.718,0.018,1.075c0.101,1.83,1.266,3.552,2.912,4.361c0.787,0.403,1.681,0.576,2.561,0.564
	c0.635,0.007,1.275-0.013,1.912,0.012c-0.381,1.089-0.797,2.167-1.197,3.252c1.527-1.064,3.05-2.129,4.574-3.2
	c0.045-0.022,0.085-0.06,0.138-0.06c0.461-0.023,0.928,0.032,1.385-0.06c-0.041-0.202-0.157-0.378-0.206-0.58
	c-0.239-0.681-0.221-1.411-0.198-2.118c-0.044-0.147,0.053-0.28,0.06-0.424c0.177-1.133,0.855-2.152,1.781-2.822h-1.391
	C26.787,53.093,26.375,53.487,25.869,53.487z"/>
<path fill="#E0E1E0" d="M29.901,48.797c0.002-0.002,0.002-0.003,0.003-0.004c-0.001-0.001-0.003-0.002-0.004-0.005
	c-0.005-0.004-0.009-0.008-0.013-0.012c-0.011-0.011-0.018-0.022-0.027-0.033c-0.085-0.046-0.151-0.119-0.224-0.181
	c-0.974-0.864-2.28-1.314-3.575-1.306c-2.16,0.003-4.315,0-6.475,0.003c-0.573,0.041-1.149,0.128-1.685,0.349
	c-0.823,0.288-1.538,0.826-2.13,1.459c0-0.001,0-0.002,0-0.003c-0.002,0.003-0.004,0.006-0.007,0.009c0,0,0,0,0.002,0
	c-0.423,0.527-0.807,1.147-1.017,1.795c-0.2,0.556-0.267,1.141-0.28,1.729h4.606c-0.001-0.021-0.002-0.04-0.002-0.061
	c0-0.525,0.426-0.951,0.951-0.951c0.526,0,0.953,0.426,0.953,0.951c0,0.021-0.002,0.04-0.003,0.061h1.023
	c-0.001-0.021-0.002-0.04-0.002-0.061c0-0.525,0.426-0.951,0.951-0.951c0.526,0,0.952,0.426,0.952,0.951
	c0,0.021-0.001,0.04-0.003,0.061h1.024c-0.001-0.021-0.003-0.04-0.003-0.061c0-0.525,0.427-0.951,0.952-0.951
	c0.526,0,0.952,0.426,0.952,0.951c0,0.021-0.001,0.04-0.003,0.061h1.391c0.579-0.419,1.253-0.702,1.966-0.789
	c0.399-0.064,0.808-0.023,1.208-0.046C31.265,50.646,30.68,49.599,29.901,48.797z"/>
<circle fill="#969696" cx="32.002" cy="145.272" r="9.43"/>
<circle fill="#F7F8F8" cx="32.003" cy="145.272" r="8.176"/>
<g>
	<g>
		<path fill="#0B3654" d="M37.025,144.946c0.082-0.082,0.126-0.2,0.112-0.324c-0.026-0.214-0.22-0.366-0.435-0.34l-4.806,0.575
			c-0.214,0.026-0.367,0.22-0.341,0.435c0.025,0.216,0.22,0.369,0.435,0.344l4.805-0.578
			C36.885,145.046,36.965,145.005,37.025,144.946z"/>
		<path fill="#0B3654" d="M32.082,145.521c0.093-0.092,0.122-0.229,0.065-0.336l-3.129-5.789c-0.069-0.128-0.234-0.16-0.371-0.075
			c-0.137,0.084-0.192,0.256-0.124,0.382l3.129,5.792c0.068,0.125,0.234,0.159,0.371,0.075
			C32.045,145.556,32.064,145.541,32.082,145.521z"/>
	</g>
</g>
<g>
	<g>
		<path fill="#0B3654" d="M28.239,151.799c0.006-0.009,0.014-0.02,0.02-0.028l4.41-7.493c0.056-0.094,0.024-0.212-0.068-0.271
			c-0.094-0.053-0.212-0.02-0.269,0.073l-4.412,7.491c-0.055,0.095-0.023,0.213,0.07,0.269
			C28.074,151.888,28.178,151.868,28.239,151.799z"/>
	</g>
</g>
<g>
	<path fill="#0B3654" d="M36.133,148.371"/>
	<circle fill="#0B3654" cx="32.003" cy="138.918" r="0.44"/>
	<circle fill="#0B3654" cx="32.003" cy="151.628" r="0.44"/>
	<circle fill="#0B3654" cx="25.648" cy="145.381" r="0.439"/>
	<circle fill="#0B3654" cx="38.358" cy="145.381" r="0.439"/>
	<circle fill="#0B3654" cx="28.8" cy="139.841" r="0.241"/>
	<circle fill="#0B3654" cx="26.478" cy="142.218" r="0.241"/>
	<circle fill="#0B3654" cx="26.502" cy="148.48" r="0.241"/>
	<circle fill="#0B3654" cx="28.837" cy="150.815" r="0.241"/>
	<path fill="#0B3654" d="M34.846,150.828c0,0.133,0.107,0.238,0.241,0.238c0.132,0,0.241-0.105,0.241-0.238
		c0-0.136-0.108-0.242-0.241-0.242C34.954,150.586,34.846,150.692,34.846,150.828z"/>
	<circle fill="#0B3654" cx="37.433" cy="148.492" r="0.241"/>
	<circle fill="#0B3654" cx="37.421" cy="142.218" r="0.241"/>
	<circle fill="#0B3654" cx="35.087" cy="139.872" r="0.241"/>
</g>
<g>
	<path fill="#FFFFFF" d="M69.567,174.053l1.126,0.387c0,0,2.194-1.128,3.172-0.949c0.979,0.179,3.054,0.713,3.409,1.362
		c0.355,0.652,0.86,2.372,0,2.313c-0.859-0.061-1.245-1.423-1.245-1.601c0-0.18-1.985,0.147-1.985,0.147s-2.52,0.948-4.298,2.758
		c0,0-1.274-0.416-1.423-0.949L69.567,174.053z"/>
	<path fill="#FFFFFF" d="M78.064,180.432c0.155,0.319,0.524,0.461,0.821,0.316l0,0c0.297-0.147,0.41-0.523,0.253-0.843l-0.189-0.387
		c-0.157-0.318-0.524-0.461-0.821-0.313l0,0c-0.297,0.145-0.41,0.521-0.253,0.84L78.064,180.432z"/>
	<path fill="#FFFFFF" d="M76.932,181.227c0.178,0.361,0.58,0.531,0.898,0.374l0,0c0.319-0.156,0.432-0.577,0.254-0.939l-0.214-0.437
		c-0.178-0.365-0.581-0.532-0.899-0.375l0,0c-0.318,0.157-0.433,0.577-0.254,0.939L76.932,181.227z"/>
	<path fill="#FFFFFF" d="M75.737,181.881c0.185,0.379,0.595,0.561,0.913,0.404l0,0c0.318-0.158,0.426-0.59,0.24-0.969l-0.223-0.457
		c-0.187-0.379-0.595-0.561-0.913-0.403l0,0c-0.319,0.157-0.427,0.59-0.241,0.969L75.737,181.881z"/>
	<g>
		<path fill="#FFFFFF" d="M74.613,182.707c0.187,0.379,0.595,0.56,0.914,0.403l0,0c0.318-0.157,0.426-0.589,0.24-0.969l-0.224-0.456
			c-0.185-0.38-0.594-0.561-0.913-0.403l0,0c-0.319,0.156-0.427,0.589-0.24,0.968L74.613,182.707z"/>
		<g>
			<g>
				<g>
					<path fill="#FFFFFF" d="M69.478,179.005l2.38-1.896l2.208-1.138l1.658-0.197c0,0,0.787,1.997,1.795,1.642
						c1.007-0.357,0.045-2.686,0.045-2.686l1.666-0.705l1.422,3.497l-0.918,0.79c-0.247,0.323-0.502,0.62-0.762,0.896
						c-0.158-0.164-0.372-0.263-0.597-0.263c-0.119,0-0.231,0.026-0.336,0.076c-0.258,0.128-0.411,0.385-0.433,0.66
						c-0.119-0.058-0.248-0.092-0.38-0.092c-0.122,0-0.236,0.027-0.344,0.079c-0.254,0.126-0.41,0.375-0.443,0.657
						c-0.136-0.082-0.287-0.128-0.442-0.128c-0.117,0-0.229,0.027-0.334,0.077c-0.3,0.147-0.459,0.477-0.439,0.828
						c-0.11-0.05-0.229-0.079-0.35-0.079c-0.118,0-0.23,0.026-0.334,0.077c-0.406,0.198-0.556,0.729-0.348,1.198
						c-0.172,0.105-0.708,0.411-0.979,0.261c-0.327-0.177-0.356-0.651-0.356-0.651s-0.623,0.414-1.097,0
						c-0.474-0.416-0.208-0.711-0.208-0.711s-0.682,0.295-0.978,0c-0.296-0.297-0.208-0.712-0.208-0.712s-0.415,0.297-0.89-0.297
						C69.004,179.597,69.478,179.005,69.478,179.005z"/>
				</g>
			</g>
		</g>
	</g>
</g>
<path fill="#E0E1E0" d="M158.428,154.676c0.014-0.041,0.024-0.082,0.041-0.119c0.063-0.14,0.157-0.256,0.285-0.343
	c0.61-0.425,1.228-0.848,1.843-1.268c0.251-0.169,0.505-0.333,0.761-0.493c0.162-0.102,0.338-0.167,0.526-0.187
	c0.092-0.011,0.175,0,0.256,0.052c0.317,0.197,0.634,0.386,0.952,0.579c0.02,0.013,0.035,0.024,0.063,0.041
	c-1.48,1.037-2.956,2.064-4.437,3.1c-0.008-0.021-0.013-0.037-0.017-0.052c-0.071-0.275-0.141-0.55-0.208-0.825
	c-0.026-0.108-0.052-0.218-0.075-0.327C158.42,154.781,158.423,154.729,158.428,154.676z"/>
<path fill="#E0E1E0" d="M168.053,143.389c-0.036,0.43-0.08,0.858-0.123,1.285c-0.015,0.143-0.039,0.284-0.063,0.425
	c-0.015,0.075-0.05,0.106-0.125,0.106c-0.051,0-0.104-0.005-0.152-0.018c-0.121-0.028-0.231-0.084-0.338-0.145
	c-0.131-0.077-0.259-0.154-0.357-0.273c-0.1-0.12-0.194-0.25-0.29-0.376c-0.024-0.029-0.032-0.061-0.029-0.099
	c0.088-1.136,0.175-2.271,0.257-3.406c0.007-0.11,0.046-0.2,0.117-0.28c0.034-0.035,0.071-0.072,0.112-0.103
	c0.229-0.182,0.489-0.303,0.774-0.373c0.075-0.02,0.152-0.029,0.229-0.041c0.068,0.005,0.136,0.007,0.201,0.012
	c0.017,0.008,0.03,0.018,0.045,0.027c-0.002,0.017-0.002,0.031-0.002,0.048C168.224,141.249,168.14,142.319,168.053,143.389z"/>
<path fill="#A8AFD6" d="M163.918,153.563c0.207,0.079,0.422,0.12,0.645,0.11c0.304-0.015,0.567-0.135,0.787-0.345
	c0.121-0.116,0.221-0.249,0.316-0.385c0.355-0.49,0.684-1.002,1.005-1.517c0.782-1.253,1.538-2.524,2.283-3.802
	c0.023-0.041,0.043-0.082,0.061-0.128c0.084-0.21,0.137-0.43,0.154-0.657c0.019-0.275-0.018-0.541-0.141-0.79
	c-0.118-0.248-0.3-0.438-0.524-0.592c-0.065-0.045-0.135-0.084-0.204-0.13c0-0.024,0.002-0.048,0.004-0.072
	c0.018-0.19,0.033-0.379,0.051-0.57c0.051-0.551,0.102-1.102,0.149-1.654c0.034-0.354,0.065-0.712,0.097-1.069
	c0.053-0.58,0.106-1.157,0.159-1.735c0.003-0.023,0.006-0.048,0.008-0.069c0.012-0.002,0.02-0.005,0.026-0.005
	c0.018,0,0.034,0.003,0.054,0.005c0.297,0.039,0.589,0.1,0.878,0.186c0.53,0.159,1.024,0.384,1.467,0.723
	c0.771,0.587,1.167,1.374,1.228,2.335c0.005,0.097,0.012,0.19,0.02,0.288c-0.011,0.19-0.023,0.384-0.034,0.576
	c-0.007,0.025-0.015,0.052-0.015,0.078c-0.031,0.264-0.059,0.528-0.092,0.795c-0.041,0.328-0.08,0.656-0.133,0.985
	c-0.01,0.043-0.017,0.089-0.024,0.135c-0.065,0.39-0.138,0.777-0.218,1.167c-0.097,0.466-0.215,0.93-0.351,1.389
	c-0.011,0.039-0.023,0.08-0.035,0.121c-0.01,0.031-0.02,0.065-0.029,0.099c-0.195,0.636-0.425,1.256-0.711,1.857
	c-0.21,0.439-0.441,0.867-0.729,1.259c-0.536,0.724-1.092,1.435-1.688,2.11c-0.421,0.48-0.862,0.942-1.331,1.374
	c-0.164,0.15-0.333,0.298-0.502,0.439c-0.485,0.401-0.995,0.764-1.551,1.059c-0.519,0.275-1.061,0.48-1.641,0.574
	c-0.19,0.029-0.381,0.049-0.574,0.032c-0.215-0.02-0.43-0.029-0.646-0.041c-0.057-0.002-0.115-0.013-0.171-0.029
	c-0.567-0.177-1.118-0.391-1.649-0.654c-0.385-0.188-0.751-0.399-1.1-0.647c-0.02-0.012-0.035-0.026-0.06-0.046
	c1.444-0.997,2.878-1.991,4.316-2.983C163.613,153.43,163.764,153.504,163.918,153.563z"/>
<path fill="#E0E1E0" d="M154.395,148.917c0,6.387,5.176,11.563,11.563,11.563c6.384,0,11.563-5.176,11.563-11.563
	c0-6.384-5.179-11.562-11.563-11.562C159.57,137.355,154.395,142.533,154.395,148.917z M155.419,148.917
	c0-5.82,4.716-10.538,10.539-10.538c5.819,0,10.539,4.718,10.539,10.538c0,5.821-4.72,10.54-10.539,10.54
	C160.135,159.457,155.419,154.738,155.419,148.917z"/>
<path fill="#98B9E2" d="M135.312,172.604c-0.271-0.297-0.671-0.379-0.887-0.184c-0.218,0.196-0.506,0.277-0.643,0.18
	c-0.135-0.098-0.446-0.544-0.358-0.823c0.089-0.281-0.151-0.609-0.535-0.734c-0.382-0.121-0.771,0.007-0.859,0.284
	c-0.092,0.277-0.302,0.493-0.47,0.476c-0.169-0.015-0.659-0.248-0.721-0.534s-0.434-0.453-0.828-0.366
	c-0.394,0.084-0.665,0.388-0.603,0.676c0.061,0.288-0.015,0.574-0.167,0.647c-0.152,0.067-0.695,0.113-0.893-0.104
	c-0.196-0.217-0.602-0.174-0.901,0.097c-0.298,0.27-0.381,0.668-0.185,0.884c0.196,0.22,0.278,0.507,0.183,0.643
	c-0.1,0.136-0.55,0.449-0.828,0.359c-0.278-0.089-0.608,0.149-0.732,0.534c-0.124,0.384,0.006,0.77,0.285,0.86
	c0.277,0.089,0.492,0.301,0.475,0.468c-0.016,0.169-0.248,0.659-0.535,0.722c-0.286,0.061-0.452,0.436-0.368,0.829
	c0.088,0.394,0.39,0.664,0.677,0.601c0.287-0.061,0.578,0.016,0.648,0.167c0.069,0.153,0.114,0.695-0.104,0.895
	c-0.219,0.195-0.176,0.601,0.097,0.9c0.27,0.297,0.668,0.382,0.885,0.184c0.218-0.195,0.507-0.278,0.643-0.179
	c0.135,0.096,0.449,0.546,0.358,0.826c-0.09,0.277,0.151,0.606,0.534,0.731c0.385,0.123,0.771-0.004,0.86-0.282
	c0.091-0.28,0.302-0.495,0.47-0.479c0.169,0.018,0.659,0.249,0.72,0.536c0.063,0.288,0.435,0.452,0.829,0.367
	c0.394-0.084,0.665-0.389,0.604-0.676c-0.063-0.288,0.013-0.578,0.166-0.647c0.153-0.07,0.695-0.114,0.893,0.104
	c0.196,0.218,0.603,0.174,0.901-0.097s0.383-0.669,0.184-0.886c-0.195-0.218-0.099-0.752-0.015-0.899
	c0.085-0.145,0.383-0.19,0.662-0.102c0.28,0.091,0.609-0.149,0.731-0.533c0.124-0.384-0.005-0.773-0.284-0.862
	c-0.278-0.089-0.492-0.299-0.477-0.468c0.018-0.169,0.249-0.658,0.535-0.721c0.289-0.063,0.454-0.435,0.368-0.828
	s-0.389-0.667-0.676-0.604c-0.287,0.063-0.579-0.011-0.646-0.166c-0.071-0.152-0.115-0.696,0.103-0.892
	C135.625,173.309,135.582,172.903,135.312,172.604z M134.227,177.32c-0.54,1.679-2.34,2.604-4.021,2.063
	c-1.679-0.539-2.603-2.341-2.062-4.02c0.54-1.681,2.34-2.606,4.021-2.064C133.845,173.841,134.768,175.64,134.227,177.32z"/>
<path fill="#FFFFFF" d="M141.089,168.791c-0.176-0.192-0.432-0.245-0.57-0.119c-0.141,0.126-0.326,0.179-0.413,0.115
	c-0.087-0.063-0.289-0.35-0.229-0.531c0.057-0.178-0.1-0.392-0.344-0.47c-0.248-0.08-0.497,0.004-0.555,0.183
	s-0.193,0.316-0.302,0.307c-0.108-0.012-0.423-0.162-0.464-0.345c-0.039-0.184-0.277-0.29-0.531-0.237
	c-0.253,0.056-0.429,0.251-0.389,0.435c0.04,0.187-0.009,0.373-0.109,0.418c-0.097,0.044-0.445,0.072-0.571-0.067
	c-0.127-0.138-0.389-0.111-0.58,0.063c-0.191,0.174-0.247,0.43-0.119,0.569c0.126,0.14,0.179,0.326,0.115,0.413
	c-0.063,0.087-0.352,0.29-0.53,0.231c-0.18-0.06-0.392,0.095-0.472,0.344c-0.078,0.245,0.003,0.494,0.184,0.553
	c0.178,0.058,0.317,0.193,0.307,0.302c-0.012,0.109-0.162,0.423-0.345,0.464c-0.187,0.038-0.291,0.278-0.236,0.531
	c0.054,0.254,0.25,0.428,0.435,0.389c0.184-0.041,0.37,0.008,0.415,0.106c0.047,0.099,0.075,0.447-0.065,0.575
	c-0.139,0.126-0.111,0.386,0.061,0.579c0.174,0.19,0.433,0.247,0.571,0.119c0.14-0.126,0.325-0.18,0.412-0.117
	c0.087,0.063,0.29,0.351,0.232,0.532c-0.059,0.179,0.097,0.391,0.342,0.471c0.248,0.078,0.497-0.002,0.554-0.184
	c0.058-0.179,0.193-0.316,0.302-0.307c0.108,0.012,0.425,0.161,0.464,0.346c0.039,0.186,0.28,0.29,0.532,0.236
	c0.254-0.056,0.43-0.252,0.391-0.435c-0.041-0.186,0.007-0.372,0.106-0.415c0.099-0.046,0.446-0.076,0.573,0.064
	s0.388,0.111,0.58-0.061c0.191-0.176,0.245-0.432,0.119-0.572c-0.126-0.14-0.065-0.482-0.012-0.576
	c0.057-0.095,0.246-0.124,0.427-0.066c0.18,0.059,0.392-0.096,0.471-0.343c0.079-0.249-0.005-0.498-0.183-0.555
	c-0.18-0.059-0.316-0.194-0.308-0.303c0.013-0.106,0.16-0.423,0.345-0.461c0.186-0.042,0.292-0.28,0.236-0.534
	c-0.055-0.253-0.25-0.427-0.434-0.389c-0.185,0.041-0.373-0.007-0.417-0.106c-0.044-0.099-0.074-0.446,0.067-0.574
	C141.291,169.244,141.263,168.983,141.089,168.791z M140.392,171.824c-0.347,1.079-1.506,1.676-2.585,1.328
	c-1.081-0.349-1.677-1.508-1.329-2.587s1.506-1.677,2.587-1.328C140.145,169.585,140.738,170.744,140.392,171.824z"/>
<path fill="#969696" d="M141.258,175.602c-0.135-0.147-0.331-0.188-0.438-0.093c-0.107,0.1-0.25,0.139-0.317,0.09
	c-0.066-0.048-0.223-0.27-0.177-0.408c0.044-0.138-0.074-0.302-0.266-0.362c-0.188-0.061-0.38,0.003-0.425,0.14
	c-0.043,0.139-0.147,0.244-0.231,0.237c-0.082-0.008-0.327-0.123-0.355-0.266c-0.032-0.141-0.216-0.222-0.411-0.182
	c-0.192,0.044-0.329,0.194-0.297,0.333c0.028,0.144-0.007,0.288-0.082,0.322c-0.078,0.033-0.345,0.055-0.442-0.051
	c-0.098-0.109-0.297-0.087-0.444,0.048c-0.148,0.133-0.189,0.328-0.093,0.438c0.098,0.108,0.138,0.249,0.09,0.316
	c-0.049,0.068-0.27,0.223-0.407,0.179c-0.139-0.046-0.302,0.074-0.362,0.263c-0.063,0.188,0.001,0.383,0.139,0.426
	c0.139,0.046,0.245,0.149,0.235,0.232c-0.007,0.084-0.123,0.325-0.265,0.357c-0.141,0.028-0.223,0.215-0.181,0.407
	c0.042,0.195,0.193,0.331,0.335,0.3c0.14-0.031,0.284,0.008,0.318,0.082c0.034,0.075,0.059,0.344-0.05,0.441
	s-0.087,0.297,0.048,0.444c0.132,0.147,0.33,0.188,0.437,0.093c0.109-0.097,0.251-0.139,0.319-0.089
	c0.065,0.048,0.219,0.27,0.177,0.407c-0.044,0.139,0.074,0.302,0.264,0.362s0.381-0.002,0.427-0.14
	c0.043-0.138,0.146-0.244,0.231-0.237c0.082,0.01,0.324,0.123,0.355,0.266c0.029,0.144,0.214,0.222,0.409,0.182
	c0.194-0.041,0.329-0.193,0.299-0.333c-0.031-0.143,0.007-0.288,0.082-0.322c0.075-0.033,0.345-0.055,0.44,0.052
	c0.099,0.108,0.298,0.087,0.446-0.048c0.147-0.132,0.19-0.329,0.091-0.438c-0.097-0.108-0.049-0.372-0.007-0.444
	c0.041-0.073,0.188-0.095,0.325-0.049c0.141,0.043,0.303-0.074,0.362-0.266c0.062-0.188-0.002-0.382-0.139-0.426
	c-0.139-0.043-0.245-0.149-0.235-0.234c0.007-0.082,0.123-0.323,0.263-0.354c0.144-0.029,0.226-0.215,0.182-0.408
	c-0.041-0.195-0.19-0.329-0.333-0.299s-0.287-0.006-0.318-0.082c-0.036-0.076-0.059-0.344,0.05-0.44
	C141.413,175.949,141.393,175.749,141.258,175.602z M140.721,177.932c-0.265,0.831-1.156,1.29-1.987,1.021
	c-0.831-0.268-1.287-1.156-1.021-1.986c0.27-0.832,1.158-1.291,1.989-1.022C140.531,176.213,140.989,177.104,140.721,177.932z"/>
<g>
	<path fill="#969696" d="M12.944,103.362c-1.054,0-1.908-0.854-1.908-1.908c0-1.053,0.854-1.907,1.908-1.907h0.919v3.815H12.944z"/>
</g>
<path fill="#778FB1" d="M12.719,109.785c0,0.302,0.246,0.549,0.549,0.549l0,0c0.303,0,0.549-0.247,0.549-0.549V93.124
	c0-0.301-0.246-0.548-0.549-0.548l0,0c-0.303,0-0.549,0.247-0.549,0.548V109.785z"/>
<path fill="#778FB1" d="M25.398,98.027c1.893,0,3.426,1.533,3.426,3.427s-1.533,3.428-3.426,3.428c-0.008,0-0.016,0-0.023,0
	L25.398,98.027z"/>
<path fill="#969696" d="M25.216,104.895c0,0-1.425,6.139-2.367,6.282c-0.943,0.14-1.32-0.475-1.037-1.273
	c0.283-0.802,0.754-5.28,0.66-5.8c-0.094-0.516,2.902,0.784,2.902,0.784"/>
<g>
	<g>
		<path fill="#FFFEF4" d="M23.895,98.021h1.321v6.867h-1.321c0,0-6.907-1.155-10.315,5.395v-8.763v-0.13v-8.763
			C16.988,99.177,23.895,98.021,23.895,98.021z"/>
	</g>
</g>
<path fill="#CCCBC8" d="M24.593,99.158c0,0-6.929,1.176-10.416-3.961c0,0,1.083,4.666,10.321,4.808L24.593,99.158z"/>
<path fill="#969696" d="M154.347,63.849c0,0.646,0.514,1.17,1.144,1.17h15.756c0.63,0,1.14-0.524,1.14-1.17V52.865
	c0-0.646-0.51-1.169-1.14-1.169H155.49c-0.63,0-1.144,0.523-1.144,1.169V63.849z"/>
<rect x="155.175" y="52.832" fill="#F8FBF7" width="16.388" height="11.049"/>
<g>
	<rect x="164.69" y="53.045" fill="#E0E1E0" width="1.844" height="1.843"/>
	<rect x="162.416" y="53.045" fill="#E0E1E0" width="1.84" height="1.843"/>
	<rect x="160.138" y="53.045" fill="#E0E1E0" width="1.843" height="1.843"/>
	<rect x="155.588" y="53.045" fill="#E0E1E0" width="1.84" height="1.843"/>
	<rect x="157.862" y="53.045" fill="#E0E1E0" width="1.844" height="1.843"/>
</g>
<g>
	<rect x="169.243" y="55.237" fill="#E0E1E0" width="1.841" height="1.842"/>
	<rect x="164.69" y="55.237" fill="#E0E1E0" width="1.844" height="1.842"/>
	<rect x="166.966" y="55.237" fill="#E0E1E0" width="1.843" height="1.842"/>
	<rect x="162.416" y="55.237" fill="#E0E1E0" width="1.84" height="1.842"/>
	<rect x="160.138" y="55.237" fill="#E0E1E0" width="1.843" height="1.842"/>
	<rect x="155.588" y="55.237" fill="#E0E1E0" width="1.84" height="1.842"/>
	<rect x="157.862" y="55.237" fill="#E0E1E0" width="1.844" height="1.842"/>
</g>
<rect x="169.243" y="57.428" fill="#E0E1E0" width="1.841" height="1.842"/>
<rect x="164.69" y="57.428" fill="#414C60" width="1.844" height="1.842"/>
<rect x="166.966" y="57.428" fill="#E0E1E0" width="1.843" height="1.842"/>
<rect x="162.416" y="57.428" fill="#E0E1E0" width="1.84" height="1.842"/>
<rect x="160.138" y="57.428" fill="#E0E1E0" width="1.843" height="1.842"/>
<rect x="155.588" y="57.428" fill="#E0E1E0" width="1.84" height="1.842"/>
<rect x="157.862" y="57.428" fill="#E0E1E0" width="1.844" height="1.842"/>
<g>
	<rect x="169.243" y="59.619" fill="#E0E1E0" width="1.841" height="1.842"/>
	<rect x="164.69" y="59.619" fill="#E0E1E0" width="1.844" height="1.842"/>
	<rect x="166.966" y="59.619" fill="#E0E1E0" width="1.843" height="1.842"/>
	<rect x="162.416" y="59.619" fill="#E0E1E0" width="1.84" height="1.842"/>
	<rect x="160.138" y="59.619" fill="#E0E1E0" width="1.843" height="1.842"/>
	<rect x="155.588" y="59.619" fill="#E0E1E0" width="1.84" height="1.842"/>
	<rect x="157.862" y="59.619" fill="#E0E1E0" width="1.844" height="1.842"/>
</g>
<g>
	<rect x="169.243" y="61.811" fill="#E0E1E0" width="1.841" height="1.842"/>
	<rect x="164.69" y="61.811" fill="#E0E1E0" width="1.844" height="1.842"/>
	<rect x="166.966" y="61.811" fill="#E0E1E0" width="1.843" height="1.842"/>
</g>
<g>
	<path fill="#414C60" d="M167.649,52.151c0,0.231,0.241,0.417,0.538,0.417l0,0c0.299,0,0.541-0.187,0.541-0.417v-1.133
		c0-0.23-0.242-0.419-0.541-0.419l0,0c-0.297,0-0.538,0.188-0.538,0.419V52.151z"/>
	<path fill="#414C60" d="M164.435,52.151c0,0.231,0.241,0.417,0.541,0.417l0,0c0.298,0,0.538-0.187,0.538-0.417v-1.133
		c0-0.23-0.24-0.419-0.538-0.419l0,0c-0.3,0-0.541,0.188-0.541,0.419V52.151z"/>
	<path fill="#414C60" d="M161.22,52.151c0,0.231,0.241,0.417,0.541,0.417l0,0c0.298,0,0.539-0.187,0.539-0.417v-1.133
		c0-0.23-0.241-0.419-0.539-0.419l0,0c-0.3,0-0.541,0.188-0.541,0.419V52.151z"/>
	<path fill="#414C60" d="M158.005,52.151c0,0.231,0.241,0.417,0.538,0.417l0,0c0.301,0,0.542-0.187,0.542-0.417v-1.133
		c0-0.23-0.241-0.419-0.542-0.419l0,0c-0.297,0-0.538,0.188-0.538,0.419V52.151z"/>
</g>
<path fill="#969696" d="M163.807,110.834c-0.45,0.455-0.446,1.188,0.007,1.638c0.229,0.224,0.524,0.335,0.821,0.335
	c0.295-0.003,0.592-0.116,0.816-0.343l5.687-5.739l0.007-0.007c0.85,0.273,1.821,0.07,2.492-0.606c0.64-0.647,0.848-1.56,0.62-2.379
	l-1.381,1.394l-1.363-0.357l-0.368-1.357l1.382-1.394c-0.821-0.22-1.732-0.005-2.372,0.641c-0.646,0.652-0.851,1.574-0.613,2.398
	L163.807,110.834z M164.089,111.833c0-0.243,0.193-0.442,0.439-0.442c0.244-0.002,0.442,0.193,0.442,0.438
	c0.002,0.244-0.195,0.444-0.439,0.444C164.287,112.275,164.089,112.077,164.089,111.833z"/>
<path fill="#FFFFFF" d="M164.681,105.884l-0.053-1.992l1.961-0.053c0.116-0.717,0.37-1.382,0.747-1.969l-1.421-1.348l1.374-1.447
	l1.418,1.344c0.565-0.41,1.22-0.7,1.928-0.855l-0.054-1.959l1.993-0.053l0.053,1.959c0.712,0.117,1.379,0.372,1.969,0.746
	l1.348-1.418l1.446,1.369l-1.341,1.424c0.404,0.564,0.696,1.217,0.854,1.926l1.956-0.052l0.056,1.992l-1.956,0.055
	c-0.118,0.711-0.374,1.38-0.749,1.969l1.417,1.344l-1.369,1.449l-1.422-1.346c-0.565,0.408-1.221,0.7-1.925,0.857l0.052,1.956
	l-1.991,0.056l-0.054-1.959c-0.567-0.094-1.104-0.277-1.597-0.535l0.971-0.94c0.491,0.195,1.026,0.297,1.59,0.28
	c2.203-0.061,3.942-1.896,3.882-4.099c-0.061-2.205-1.897-3.941-4.099-3.881c-2.205,0.061-3.942,1.896-3.884,4.099
	c0.011,0.373,0.071,0.732,0.178,1.072l-0.951,1.04c-0.156-0.342-0.28-0.704-0.364-1.083L164.681,105.884z"/>
<path fill="#49576D" d="M75.044,141.148c-0.186-0.692-0.437-1.37-0.665-2.039c-0.278-0.653-0.546-1.296-0.86-1.896
	c-0.301-0.606-0.63-1.173-0.979-1.689c-0.316-0.532-0.7-0.988-1.027-1.417c-0.695-0.838-1.357-1.463-1.853-1.858
	c-0.502-0.396-0.819-0.571-0.819-0.571s0.216,0.289,0.546,0.804c0.163,0.26,0.357,0.575,0.567,0.941
	c0.22,0.357,0.422,0.792,0.676,1.233c0.217,0.469,0.476,0.956,0.707,1.493c0.251,0.525,0.461,1.105,0.705,1.69
	c0.25,0.582,0.417,1.22,0.659,1.835c0.173,0.643,0.405,1.277,0.569,1.932c0.15,0.635,0.348,1.257,0.474,1.888h1.803
	c-0.014-0.088-0.027-0.176-0.042-0.264C75.415,142.533,75.2,141.845,75.044,141.148z"/>
<path fill="#49576D" d="M119.653,140.483c0.24-0.615,0.408-1.254,0.656-1.836c0.245-0.583,0.454-1.163,0.706-1.688
	c0.232-0.54,0.491-1.027,0.707-1.496c0.255-0.443,0.457-0.876,0.676-1.233c0.21-0.365,0.404-0.681,0.568-0.941
	c0.33-0.515,0.545-0.804,0.545-0.804s-0.317,0.177-0.819,0.569c-0.496,0.398-1.157,1.022-1.854,1.86
	c-0.326,0.429-0.711,0.885-1.026,1.417c-0.348,0.519-0.678,1.084-0.979,1.689c-0.312,0.6-0.582,1.244-0.859,1.896
	c-0.228,0.668-0.479,1.346-0.663,2.038c-0.117,0.523-0.27,1.044-0.374,1.565h1.859c0.096-0.368,0.199-0.735,0.289-1.104
	C119.248,141.76,119.479,141.126,119.653,140.483z"/>
<path fill="#454545" d="M73.418,86.085c0,0-0.773,17.417-5.177,23.653c0,0,24.072,14.313,56.949-0.425c0,0-6.164-9.212-4.257-21.402
	L73.418,86.085z"/>
<rect x="87.6" y="107.174" fill="#FFFFFF" width="17.228" height="19.681"/>
<polygon fill="#B0AFB0" points="87.574,117.519 105.335,107.912 87.57,103.976 "/>
<path fill="#E0E6E3" d="M74.364,82.998c0,14.786,9.566,26.799,21.465,27.13V61.202C84.136,61.569,74.364,68.418,74.364,82.998z"/>
<path fill="#FFFFFF" d="M96.828,61.185c-0.334,0-0.668,0.006-0.999,0.017v48.926c0.167,0.003,0.332,0.017,0.501,0.017
	c12.131,0,21.965-12.155,21.965-27.147S108.96,61.185,96.828,61.185z"/>
<path fill="#454545" d="M105.329,69.559c0,0,2.266,10.4,14.172,12.589c0,0,5.101-27.917-20.976-27.917
	c-26.076,0-27.21,16.422-27.21,27.917C71.315,82.148,90.59,83.79,105.329,69.559z"/>
<path fill="#FFFFFF" d="M116.081,84.701c-0.473,3.13,0.435,5.849,2.025,6.075c1.591,0.229,3.264-2.126,3.734-5.257
	c0.473-3.128-0.435-5.849-2.025-6.076C118.226,79.219,116.552,81.572,116.081,84.701z"/>
<path fill="#E0E6E3" d="M75.853,84.446c0.309,3.089-0.625,5.704-2.085,5.841c-1.458,0.138-2.892-2.255-3.201-5.345
	c-0.308-3.089,0.626-5.705,2.085-5.841C74.112,78.964,75.546,81.357,75.853,84.446z"/>
<path fill="#53627E" d="M111.43,130.863l-3.929,0.271l3.088,2.438l-4.847,9.922h11.194c0.104-0.522,0.257-1.043,0.374-1.568
	c0.184-0.692,0.436-1.367,0.663-2.036c0.277-0.652,0.548-1.297,0.859-1.896c0.302-0.608,0.632-1.173,0.979-1.691
	c0.315-0.53,0.7-0.987,1.026-1.415c0.696-0.839,1.357-1.462,1.854-1.86c0.502-0.394,0.819-0.569,0.819-0.569
	s-0.215,0.289-0.545,0.803c-0.164,0.262-0.358,0.574-0.568,0.942c-0.219,0.357-0.421,0.79-0.676,1.233
	c-0.216,0.47-0.475,0.956-0.707,1.493c-0.252,0.525-0.461,1.104-0.706,1.688c-0.248,0.583-0.416,1.222-0.656,1.839
	c-0.174,0.642-0.405,1.275-0.568,1.931c-0.09,0.371-0.193,0.738-0.289,1.107h11.949c-1.72-6.327-6.91-20.124-20.125-24.019
	l1.371,0.546L111.43,130.863z"/>
<path fill="#53627E" d="M73.27,141.606c-0.164-0.654-0.396-1.289-0.569-1.932c-0.242-0.615-0.409-1.253-0.659-1.835
	c-0.243-0.585-0.453-1.165-0.705-1.69c-0.231-0.537-0.49-1.024-0.707-1.493c-0.254-0.441-0.457-0.876-0.676-1.233
	c-0.21-0.366-0.405-0.682-0.567-0.941c-0.33-0.515-0.546-0.804-0.546-0.804s0.317,0.175,0.819,0.571
	c0.496,0.396,1.158,1.021,1.853,1.858c0.327,0.429,0.711,0.885,1.027,1.417c0.349,0.517,0.678,1.083,0.979,1.689
	c0.314,0.6,0.582,1.242,0.86,1.896c0.228,0.669,0.479,1.347,0.665,2.039c0.155,0.696,0.37,1.385,0.46,2.082
	c0.014,0.088,0.027,0.176,0.042,0.264h11.294l-6.004-9.922l3.369-2.709l-4.491-0.272l0.562-9.485l2.83-1.456
	c-5.057,1.325-18.367,6.429-21.493,23.845h12.131C73.618,142.863,73.42,142.241,73.27,141.606z"/>
<polygon fill="#A9D8E2" points="92.956,120.376 85.403,119.279 85.295,119.384 84.812,119.84 91.875,139.899 93.139,143.494 
	96.217,143.494 96.217,120.944 "/>
<polygon fill="#C8E9EE" points="106.907,118.241 99.859,121.58 96.217,120.944 96.217,143.494 100.209,143.494 101.192,139.899 
	106.561,120.338 107.101,118.522 "/>
<polygon fill="#49576D" points="111.991,120.021 110.62,119.476 107.219,118.124 107.101,118.522 106.561,120.338 101.19,138.349 
	99.656,143.494 101.43,143.494 105.742,143.494 110.589,133.572 107.501,131.134 111.43,130.863 "/>
<polygon fill="#49576D" points="91.869,139.324 84.812,119.84 84.619,119.304 84.486,118.938 83.106,119.649 80.276,121.105 
	79.715,130.591 84.206,130.863 80.837,133.572 86.841,143.494 91.643,143.494 93.379,143.494 "/>
<polygon fill="#8DC3D7" points="87.574,116.499 96.273,121.105 88.747,130.759 84.486,118.938 "/>
<polygon fill="#8DC3D7" points="104.974,116.228 107.219,118.124 103.789,129.666 96.273,121.105 "/>
<path fill="#232323" d="M72.433,78.616c0,0,3.784-18.405,21.971-18.405c18.187,0,22.99,16.017,22.99,16.017l-2.766,0.281
	c0,0-4.511-12.083-19.715-12.083c-15.206,0-20.589,14.191-20.589,14.191H72.433z"/>
<path fill="#49576D" d="M115.356,77.633c0,0,1.747,14.331,1.31,15.314c0,0,5.82,0.843,5.966-3.653v-7.727
	c0,0-0.233-2.713-3.637-3.935h-3.057"/>
<path fill="#232323" d="M99.287,101.16c0,0,12.867-0.975,18.107-6.896c0,0,1.303-0.894,2.227,0.893
	c0.926,1.785-12.856,7.788-20.334,8.113c0,0-0.337,1.3-4.033,1.379c-3.697,0.081-4.537-1.134-4.537-1.134s-1.766-1.949,0.336-3.33
	c2.1-1.376,3.861-0.838,3.861-0.838S98.531,99.538,99.287,101.16z"/>
</svg>
