<?xml version="1.0" encoding="utf-8"?>
<!-- Generator: Adobe Illustrator 16.0.0, SVG Export Plug-In . SVG Version: 6.00 Build 0)  -->
<!DOCTYPE svg PUBLIC "-//W3C//DTD SVG 1.1//EN" "http://www.w3.org/Graphics/SVG/1.1/DTD/svg11.dtd">
<svg version="1.1" xmlns="http://www.w3.org/2000/svg" xmlns:xlink="http://www.w3.org/1999/xlink" x="0px" y="0px" width="1122px"
	 height="664px" viewBox="0 0 1122 664" enable-background="new 0 0 1122 664" xml:space="preserve">
<g id="Bg">
</g>
<g id="object">
	<g opacity="0.7">
		<g>
			<g>
				<g>
					<g>
						<defs>
							
								<filter id="Adobe_OpacityMaskFilter" filterUnits="userSpaceOnUse" x="271.406" y="374.306" width="171.913" height="171.917">
								<feFlood  style="flood-color:white;flood-opacity:1" result="back"/>
								<feBlend  in="SourceGraphic" in2="back" mode="normal"/>
							</filter>
						</defs>
						<mask maskUnits="userSpaceOnUse" x="271.406" y="374.306" width="171.913" height="171.917" id="SVGID_1_">
							<g filter="url(#Adobe_OpacityMaskFilter)">
								<defs>
									
										<filter id="Adobe_OpacityMaskFilter_1_" filterUnits="userSpaceOnUse" x="271.406" y="374.306" width="171.913" height="171.917">
										<feFlood  style="flood-color:white;flood-opacity:1" result="back"/>
										<feBlend  in="SourceGraphic" in2="back" mode="normal"/>
									</filter>
								</defs>
								<mask maskUnits="userSpaceOnUse" x="271.406" y="374.306" width="171.913" height="171.917" id="SVGID_1_">
									<g filter="url(#Adobe_OpacityMaskFilter_1_)">
									</g>
								</mask>
								
									<radialGradient id="SVGID_2_" cx="358.1299" cy="460.6738" r="85.9958" gradientTransform="matrix(0.9996 0.0284 -0.0284 0.9996 12.459 -10.3958)" gradientUnits="userSpaceOnUse">
									<stop  offset="0.338" style="stop-color:#FFFFFF"/>
									<stop  offset="0.5107" style="stop-color:#FCFCFC"/>
									<stop  offset="0.6243" style="stop-color:#F3F3F3"/>
									<stop  offset="0.7208" style="stop-color:#E5E5E5"/>
									<stop  offset="0.8079" style="stop-color:#CFCFCF"/>
									<stop  offset="0.8884" style="stop-color:#B4B4B4"/>
									<stop  offset="0.9633" style="stop-color:#939393"/>
									<stop  offset="1" style="stop-color:#808080"/>
								</radialGradient>
								<path mask="url(#SVGID_1_)" fill="url(#SVGID_2_)" d="M434.912,472.225l7.677-0.547c0.398-2.963,0.641-5.916,0.73-8.843
									l-7.483-1.793c0.051-4.533-0.27-9.002-0.978-13.382l7.097-2.887c-0.54-2.923-1.225-5.794-2.055-8.628l-7.638,0.609
									c-1.352-4.284-3.079-8.432-5.125-12.399l5.885-4.958c-1.407-2.603-2.942-5.134-4.607-7.585l-7.114,2.961
									c-2.588-3.643-5.474-7.071-8.662-10.238l4.053-6.508c-2.132-2.047-4.376-3.974-6.725-5.795l-5.82,4.977
									c-3.57-2.646-7.397-4.991-11.435-7.021l1.849-7.476c-2.648-1.268-5.374-2.412-8.182-3.414l-4.02,6.561
									c-3.293-1.093-6.686-2.001-10.179-2.674c-0.957-0.187-1.904-0.323-2.855-0.474l-0.547-7.682
									c-2.962-0.39-5.91-0.636-8.838-0.724l-1.793,7.479c-4.536-0.056-9.008,0.271-13.382,0.981l-2.887-7.097
									c-2.917,0.538-5.795,1.218-8.629,2.048l0.616,7.645c-4.292,1.353-8.436,3.076-12.406,5.12l-4.959-5.886
									c-2.6,1.41-5.129,2.95-7.576,4.621l2.953,7.104c-3.64,2.597-7.078,5.473-10.238,8.663l-6.515-4.055
									c-2.03,2.138-3.968,4.381-5.78,6.727l4.978,5.818c-2.654,3.571-4.995,7.398-7.031,11.434l-7.474-1.841
									c-1.271,2.642-2.412,5.366-3.418,8.181l6.579,4.021c-1.102,3.289-2.02,6.676-2.692,10.177c-0.18,0.95-0.322,1.9-0.474,2.85
									l-7.676,0.548c-0.402,2.964-0.641,5.907-0.728,8.84l7.482,1.79c-0.05,4.533,0.271,9.008,0.982,13.384l-7.095,2.887
									c0.534,2.921,1.218,5.8,2.043,8.628l7.648-0.605c1.346,4.288,3.076,8.43,5.123,12.396l-5.892,4.963
									c1.415,2.595,2.95,5.137,4.608,7.572l7.118-2.95c2.59,3.647,5.474,7.085,8.66,10.24l-4.049,6.512
									c2.135,2.039,4.375,3.966,6.723,5.791l5.821-4.992c3.57,2.655,7.4,5.01,11.43,7.033l-1.843,7.481
									c2.647,1.267,5.372,2.406,8.181,3.417l4.021-6.578c3.29,1.097,6.675,2.018,10.179,2.689c0.954,0.174,1.902,0.32,2.849,0.473
									l0.552,7.678c2.963,0.388,5.911,0.637,8.842,0.733l1.791-7.493c4.53,0.054,9.008-0.267,13.385-0.98l2.881,7.094
									c2.921-0.53,5.801-1.209,8.628-2.04l-0.604-7.647c4.284-1.35,8.429-3.076,12.396-5.119l4.957,5.889
									c2.603-1.412,5.135-2.952,7.577-4.622l-2.95-7.105c3.642-2.591,7.079-5.479,10.247-8.662l6.503,4.043
									c2.039-2.128,3.969-4.368,5.788-6.701l-4.98-5.834c2.653-3.567,4.995-7.4,7.026-11.432l7.479,1.842
									c1.264-2.651,2.415-5.37,3.414-8.177l-6.578-4.021c1.106-3.289,2.016-6.675,2.69-10.187
									C434.622,474.125,434.765,473.178,434.912,472.225z M395.364,462.746c-4.618,24.051-27.875,39.819-51.948,35.198
									c-24.063-4.624-39.831-27.882-35.202-51.954c4.625-24.072,27.887-39.831,51.961-35.218
									C384.235,415.412,399.997,438.664,395.364,462.746z"/>
							</g>
						</mask>
						
							<radialGradient id="SVGID_3_" cx="358.1299" cy="460.6738" r="85.9958" gradientTransform="matrix(0.9996 0.0284 -0.0284 0.9996 12.459 -10.3958)" gradientUnits="userSpaceOnUse">
							<stop  offset="0.338" style="stop-color:#808285"/>
							<stop  offset="0.5109" style="stop-color:#838588"/>
							<stop  offset="0.6247" style="stop-color:#8C8D90"/>
							<stop  offset="0.7214" style="stop-color:#9A9C9E"/>
							<stop  offset="0.8085" style="stop-color:#B0B1B3"/>
							<stop  offset="0.8892" style="stop-color:#CBCCCD"/>
							<stop  offset="0.9642" style="stop-color:#ECEDED"/>
							<stop  offset="1" style="stop-color:#FFFFFF"/>
						</radialGradient>
						<path fill="url(#SVGID_3_)" d="M434.912,472.225l7.677-0.547c0.398-2.963,0.641-5.916,0.73-8.843l-7.483-1.793
							c0.051-4.533-0.27-9.002-0.978-13.382l7.097-2.887c-0.54-2.923-1.225-5.794-2.055-8.628l-7.638,0.609
							c-1.352-4.284-3.079-8.432-5.125-12.399l5.885-4.958c-1.407-2.603-2.942-5.134-4.607-7.585l-7.114,2.961
							c-2.588-3.643-5.474-7.071-8.662-10.238l4.053-6.508c-2.132-2.047-4.376-3.974-6.725-5.795l-5.82,4.977
							c-3.57-2.646-7.397-4.991-11.435-7.021l1.849-7.476c-2.648-1.268-5.374-2.412-8.182-3.414l-4.02,6.561
							c-3.293-1.093-6.686-2.001-10.179-2.674c-0.957-0.187-1.904-0.323-2.855-0.474l-0.547-7.682
							c-2.962-0.39-5.91-0.636-8.838-0.724l-1.793,7.479c-4.536-0.056-9.008,0.271-13.382,0.981l-2.887-7.097
							c-2.917,0.538-5.795,1.218-8.629,2.048l0.616,7.645c-4.292,1.353-8.436,3.076-12.406,5.12l-4.959-5.886
							c-2.6,1.41-5.129,2.95-7.576,4.621l2.953,7.104c-3.64,2.597-7.078,5.473-10.238,8.663l-6.515-4.055
							c-2.03,2.138-3.968,4.381-5.78,6.727l4.978,5.818c-2.654,3.571-4.995,7.398-7.031,11.434l-7.474-1.841
							c-1.271,2.642-2.412,5.366-3.418,8.181l6.579,4.021c-1.102,3.289-2.02,6.676-2.692,10.177c-0.18,0.95-0.322,1.9-0.474,2.85
							l-7.676,0.548c-0.402,2.964-0.641,5.907-0.728,8.84l7.482,1.79c-0.05,4.533,0.271,9.008,0.982,13.384l-7.095,2.887
							c0.534,2.921,1.218,5.8,2.043,8.628l7.648-0.605c1.346,4.288,3.076,8.43,5.123,12.396l-5.892,4.963
							c1.415,2.595,2.95,5.137,4.608,7.572l7.118-2.95c2.59,3.647,5.474,7.085,8.66,10.24l-4.049,6.512
							c2.135,2.039,4.375,3.966,6.723,5.791l5.821-4.992c3.57,2.655,7.4,5.01,11.43,7.033l-1.843,7.481
							c2.647,1.267,5.372,2.406,8.181,3.417l4.021-6.578c3.29,1.097,6.675,2.018,10.179,2.689c0.954,0.174,1.902,0.32,2.849,0.473
							l0.552,7.678c2.963,0.388,5.911,0.637,8.842,0.733l1.791-7.493c4.53,0.054,9.008-0.267,13.385-0.98l2.881,7.094
							c2.921-0.53,5.801-1.209,8.628-2.04l-0.604-7.647c4.284-1.35,8.429-3.076,12.396-5.119l4.957,5.889
							c2.603-1.412,5.135-2.952,7.577-4.622l-2.95-7.105c3.642-2.591,7.079-5.479,10.247-8.662l6.503,4.043
							c2.039-2.128,3.969-4.368,5.788-6.701l-4.98-5.834c2.653-3.567,4.995-7.4,7.026-11.432l7.479,1.842
							c1.264-2.651,2.415-5.37,3.414-8.177l-6.578-4.021c1.106-3.289,2.016-6.675,2.69-10.187
							C434.622,474.125,434.765,473.178,434.912,472.225z M395.364,462.746c-4.618,24.051-27.875,39.819-51.948,35.198
							c-24.063-4.624-39.831-27.882-35.202-51.954c4.625-24.072,27.887-39.831,51.961-35.218
							C384.235,415.412,399.997,438.664,395.364,462.746z"/>
					</g>
				</g>
			</g>
		</g>
	</g>
	<g opacity="0.3">
		<g>
			<g>
				<g>
					<g>
						<defs>
							
								<filter id="Adobe_OpacityMaskFilter_2_" filterUnits="userSpaceOnUse" x="456.446" y="374.595" width="224.588" height="224.587">
								<feFlood  style="flood-color:white;flood-opacity:1" result="back"/>
								<feBlend  in="SourceGraphic" in2="back" mode="normal"/>
							</filter>
						</defs>
						<mask maskUnits="userSpaceOnUse" x="456.446" y="374.595" width="224.588" height="224.587" id="SVGID_4_">
							<g filter="url(#Adobe_OpacityMaskFilter_2_)">
								<defs>
									
										<filter id="Adobe_OpacityMaskFilter_3_" filterUnits="userSpaceOnUse" x="456.446" y="374.595" width="224.588" height="224.587">
										<feFlood  style="flood-color:white;flood-opacity:1" result="back"/>
										<feBlend  in="SourceGraphic" in2="back" mode="normal"/>
									</filter>
								</defs>
								<mask maskUnits="userSpaceOnUse" x="456.446" y="374.595" width="224.588" height="224.587" id="SVGID_4_">
									<g filter="url(#Adobe_OpacityMaskFilter_3_)">
									</g>
								</mask>
								<radialGradient id="SVGID_5_" cx="568.7402" cy="486.8887" r="112.2939" gradientUnits="userSpaceOnUse">
									<stop  offset="0.338" style="stop-color:#FFFFFF"/>
									<stop  offset="0.5107" style="stop-color:#FCFCFC"/>
									<stop  offset="0.6243" style="stop-color:#F3F3F3"/>
									<stop  offset="0.7208" style="stop-color:#E5E5E5"/>
									<stop  offset="0.8079" style="stop-color:#CFCFCF"/>
									<stop  offset="0.8884" style="stop-color:#B4B4B4"/>
									<stop  offset="0.9633" style="stop-color:#939393"/>
									<stop  offset="1" style="stop-color:#808080"/>
								</radialGradient>
								<path mask="url(#SVGID_4_)" fill="url(#SVGID_5_)" d="M646.254,507.8l33.939-7.065c0.225-1.839,0.416-3.689,0.559-5.578
									c0.313-4.414,0.356-8.785,0.179-13.107l-33.226-9.751c-0.377-2.056-0.854-4.065-1.377-6.069l25.844-23.063
									c-2.441-5.774-5.33-11.32-8.672-16.567l-33.693,8.182c-1.345-1.575-2.75-3.082-4.207-4.547l10.861-32.92
									c-4.958-3.759-10.23-7.124-15.801-10.02l-25.084,23.919c-1.941-0.678-3.926-1.293-5.928-1.832l-7.054-33.946
									c-1.847-0.214-3.704-0.404-5.583-0.54c-4.421-0.337-8.791-0.367-13.113-0.195l-9.754,33.23
									c-2.041,0.376-4.067,0.845-6.053,1.375l-23.074-25.857c-5.771,2.449-11.318,5.35-16.574,8.683l8.182,33.699
									c-1.572,1.341-3.082,2.75-4.541,4.203l-32.918-10.857c-3.756,4.96-7.117,10.227-10.024,15.789l23.931,25.1
									c-0.688,1.941-1.297,3.914-1.84,5.918l-33.944,7.06c-0.227,1.841-0.416,3.709-0.551,5.576
									c-0.325,4.423-0.365,8.788-0.183,13.116l33.233,9.753c0.375,2.047,0.838,4.065,1.375,6.054l-25.861,23.076
									c2.448,5.77,5.337,11.321,8.684,16.564l33.691-8.179c1.345,1.573,2.755,3.078,4.208,4.545l-10.859,32.923
									c4.957,3.746,10.228,7.104,15.789,10.023l25.096-23.935c1.943,0.69,3.914,1.302,5.923,1.845l7.056,33.927
									c1.844,0.23,3.705,0.422,5.585,0.558c4.415,0.338,8.787,0.366,13.112,0.189l9.756-33.226
									c2.049-0.384,4.059-0.849,6.057-1.378l23.068,25.858c5.775-2.455,11.317-5.345,16.572-8.689l-8.181-33.704
									c1.567-1.332,3.069-2.741,4.532-4.199l32.93,10.866c3.75-4.95,7.115-10.233,10.024-15.793l-23.939-25.095
									C645.096,511.777,645.714,509.805,646.254,507.8z M559.455,551.94c-38.85-2.857-68.006-36.65-65.133-75.519
									c2.86-38.822,36.68-67.991,75.495-65.127c38.869,2.869,68.027,36.677,65.167,75.51
									C632.109,525.652,598.299,554.821,559.455,551.94z"/>
							</g>
						</mask>
						<radialGradient id="SVGID_6_" cx="568.7402" cy="486.8887" r="112.2939" gradientUnits="userSpaceOnUse">
							<stop  offset="0.338" style="stop-color:#808285"/>
							<stop  offset="0.5109" style="stop-color:#838588"/>
							<stop  offset="0.6247" style="stop-color:#8C8D90"/>
							<stop  offset="0.7214" style="stop-color:#9A9C9E"/>
							<stop  offset="0.8085" style="stop-color:#B0B1B3"/>
							<stop  offset="0.8892" style="stop-color:#CBCCCD"/>
							<stop  offset="0.9642" style="stop-color:#ECEDED"/>
							<stop  offset="1" style="stop-color:#FFFFFF"/>
						</radialGradient>
						<path fill="url(#SVGID_6_)" d="M646.254,507.8l33.939-7.065c0.225-1.839,0.416-3.689,0.559-5.578
							c0.313-4.414,0.356-8.785,0.179-13.107l-33.226-9.751c-0.377-2.056-0.854-4.065-1.377-6.069l25.844-23.063
							c-2.441-5.774-5.33-11.32-8.672-16.567l-33.693,8.182c-1.345-1.575-2.75-3.082-4.207-4.547l10.861-32.92
							c-4.958-3.759-10.23-7.124-15.801-10.02l-25.084,23.919c-1.941-0.678-3.926-1.293-5.928-1.832l-7.054-33.946
							c-1.847-0.214-3.704-0.404-5.583-0.54c-4.421-0.337-8.791-0.367-13.113-0.195l-9.754,33.23
							c-2.041,0.376-4.067,0.845-6.053,1.375l-23.074-25.857c-5.771,2.449-11.318,5.35-16.574,8.683l8.182,33.699
							c-1.572,1.341-3.082,2.75-4.541,4.203l-32.918-10.857c-3.756,4.96-7.117,10.227-10.024,15.789l23.931,25.1
							c-0.688,1.941-1.297,3.914-1.84,5.918l-33.944,7.06c-0.227,1.841-0.416,3.709-0.551,5.576
							c-0.325,4.423-0.365,8.788-0.183,13.116l33.233,9.753c0.375,2.047,0.838,4.065,1.375,6.054l-25.861,23.076
							c2.448,5.77,5.337,11.321,8.684,16.564l33.691-8.179c1.345,1.573,2.755,3.078,4.208,4.545l-10.859,32.923
							c4.957,3.746,10.228,7.104,15.789,10.023l25.096-23.935c1.943,0.69,3.914,1.302,5.923,1.845l7.056,33.927
							c1.844,0.23,3.705,0.422,5.585,0.558c4.415,0.338,8.787,0.366,13.112,0.189l9.756-33.226c2.049-0.384,4.059-0.849,6.057-1.378
							l23.068,25.858c5.775-2.455,11.317-5.345,16.572-8.689l-8.181-33.704c1.567-1.332,3.069-2.741,4.532-4.199l32.93,10.866
							c3.75-4.95,7.115-10.233,10.024-15.793l-23.939-25.095C645.096,511.777,645.714,509.805,646.254,507.8z M559.455,551.94
							c-38.85-2.857-68.006-36.65-65.133-75.519c2.86-38.822,36.68-67.991,75.495-65.127c38.869,2.869,68.027,36.677,65.167,75.51
							C632.109,525.652,598.299,554.821,559.455,551.94z"/>
					</g>
				</g>
			</g>
		</g>
	</g>
	<g opacity="0.6">
		<g>
			<g>
				<g>
					<defs>
						
							<filter id="Adobe_OpacityMaskFilter_4_" filterUnits="userSpaceOnUse" x="334.576" y="106.606" width="281.822" height="281.831">
							<feFlood  style="flood-color:white;flood-opacity:1" result="back"/>
							<feBlend  in="SourceGraphic" in2="back" mode="normal"/>
						</filter>
					</defs>
					<mask maskUnits="userSpaceOnUse" x="334.576" y="106.606" width="281.822" height="281.831" id="SVGID_7_">
						<g filter="url(#Adobe_OpacityMaskFilter_4_)">
							<defs>
								
									<filter id="Adobe_OpacityMaskFilter_5_" filterUnits="userSpaceOnUse" x="334.576" y="106.606" width="281.822" height="281.831">
									<feFlood  style="flood-color:white;flood-opacity:1" result="back"/>
									<feBlend  in="SourceGraphic" in2="back" mode="normal"/>
								</filter>
							</defs>
							<mask maskUnits="userSpaceOnUse" x="334.576" y="106.606" width="281.822" height="281.831" id="SVGID_7_">
								<g filter="url(#Adobe_OpacityMaskFilter_5_)">
								</g>
							</mask>
							<radialGradient id="SVGID_8_" cx="475.4873" cy="247.522" r="140.9133" gradientUnits="userSpaceOnUse">
								<stop  offset="0.338" style="stop-color:#FFFFFF"/>
								<stop  offset="0.5107" style="stop-color:#FCFCFC"/>
								<stop  offset="0.6243" style="stop-color:#F3F3F3"/>
								<stop  offset="0.7208" style="stop-color:#E5E5E5"/>
								<stop  offset="0.8079" style="stop-color:#CFCFCF"/>
								<stop  offset="0.8884" style="stop-color:#B4B4B4"/>
								<stop  offset="0.9633" style="stop-color:#939393"/>
								<stop  offset="1" style="stop-color:#808080"/>
							</radialGradient>
							<path mask="url(#SVGID_7_)" fill="url(#SVGID_8_)" d="M591.414,266.683l24.437-7.017c1.01-11.46,0.612-22.798-1.101-33.787
								l-24.873-5.334c-1.155-4.923-2.623-9.737-4.398-14.423l17.646-18.257c-4.805-10.251-10.817-19.888-17.896-28.701
								l-24.178,7.805c-3.442-3.665-7.098-7.105-11.001-10.318l6.149-24.634c-9.146-6.401-19.147-11.755-29.86-15.888
								l-17.022,18.837c-3.538-1.059-7.149-1.974-10.842-2.71c-1.282-0.254-2.556-0.451-3.824-0.667l-7.008-24.433
								c-11.469-1.008-22.799-0.618-33.792,1.092l-5.345,24.888c-4.908,1.152-9.727,2.619-14.413,4.391l-18.264-17.641
								c-10.254,4.799-19.894,10.811-28.702,17.894l7.815,24.188c-3.658,3.425-7.113,7.089-10.313,10.981l-24.642-6.14
								c-6.397,9.137-11.75,19.131-15.889,29.863l18.841,17.019c-1.062,3.543-1.979,7.149-2.715,10.845
								c-0.258,1.28-0.455,2.547-0.666,3.824l-24.439,7.003c-0.996,11.462-0.613,22.792,1.101,33.793l24.875,5.329
								c1.161,4.914,2.626,9.727,4.394,14.413l-17.638,18.269c4.798,10.258,10.812,19.9,17.901,28.706l24.177-7.804
								c3.438,3.664,7.093,7.109,10.993,10.309l-6.148,24.641c9.146,6.399,19.141,11.748,29.854,15.891l17.025-18.845
								c3.54,1.06,7.157,1.983,10.856,2.72c1.272,0.26,2.548,0.449,3.815,0.657l7.006,24.45c11.469,1.002,22.798,0.614,33.794-1.096
								l5.341-24.881c4.911-1.168,9.734-2.62,14.412-4.394l18.269,17.632c10.249-4.803,19.886-10.806,28.697-17.896l-7.802-24.174
								c3.65-3.442,7.1-7.1,10.311-10.998l24.63,6.148c6.401-9.146,11.754-19.149,15.888-29.864l-18.83-17.02
								c1.05-3.544,1.981-7.153,2.718-10.853C591.008,269.226,591.204,267.96,591.414,266.683z M568.904,261.965
								c-10.867,54.479-63.815,89.836-118.274,78.969c-54.468-10.851-89.816-63.814-78.958-118.27
								c10.858-54.469,63.815-89.813,118.273-78.953C544.412,154.572,579.757,207.523,568.904,261.965z"/>
						</g>
					</mask>
					<radialGradient id="SVGID_9_" cx="475.4873" cy="247.522" r="140.9133" gradientUnits="userSpaceOnUse">
						<stop  offset="0.338" style="stop-color:#808285"/>
						<stop  offset="0.5109" style="stop-color:#838588"/>
						<stop  offset="0.6247" style="stop-color:#8C8D90"/>
						<stop  offset="0.7214" style="stop-color:#9A9C9E"/>
						<stop  offset="0.8085" style="stop-color:#B0B1B3"/>
						<stop  offset="0.8892" style="stop-color:#CBCCCD"/>
						<stop  offset="0.9642" style="stop-color:#ECEDED"/>
						<stop  offset="1" style="stop-color:#FFFFFF"/>
					</radialGradient>
					<path fill="url(#SVGID_9_)" d="M591.414,266.683l24.437-7.017c1.01-11.46,0.612-22.798-1.101-33.787l-24.873-5.334
						c-1.155-4.923-2.623-9.737-4.398-14.423l17.646-18.257c-4.805-10.251-10.817-19.888-17.896-28.701l-24.178,7.805
						c-3.442-3.665-7.098-7.105-11.001-10.318l6.149-24.634c-9.146-6.401-19.147-11.755-29.86-15.888l-17.022,18.837
						c-3.538-1.059-7.149-1.974-10.842-2.71c-1.282-0.254-2.556-0.451-3.824-0.667l-7.008-24.433
						c-11.469-1.008-22.799-0.618-33.792,1.092l-5.345,24.888c-4.908,1.152-9.727,2.619-14.413,4.391l-18.264-17.641
						c-10.254,4.799-19.894,10.811-28.702,17.894l7.815,24.188c-3.658,3.425-7.113,7.089-10.313,10.981l-24.642-6.14
						c-6.397,9.137-11.75,19.131-15.889,29.863l18.841,17.019c-1.062,3.543-1.979,7.149-2.715,10.845
						c-0.258,1.28-0.455,2.547-0.666,3.824l-24.439,7.003c-0.996,11.462-0.613,22.792,1.101,33.793l24.875,5.329
						c1.161,4.914,2.626,9.727,4.394,14.413l-17.638,18.269c4.798,10.258,10.812,19.9,17.901,28.706l24.177-7.804
						c3.438,3.664,7.093,7.109,10.993,10.309l-6.148,24.641c9.146,6.399,19.141,11.748,29.854,15.891l17.025-18.845
						c3.54,1.06,7.157,1.983,10.856,2.72c1.272,0.26,2.548,0.449,3.815,0.657l7.006,24.45c11.469,1.002,22.798,0.614,33.794-1.096
						l5.341-24.881c4.911-1.168,9.734-2.62,14.412-4.394l18.269,17.632c10.249-4.803,19.886-10.806,28.697-17.896l-7.802-24.174
						c3.65-3.442,7.1-7.1,10.311-10.998l24.63,6.148c6.401-9.146,11.754-19.149,15.888-29.864l-18.83-17.02
						c1.05-3.544,1.981-7.153,2.718-10.853C591.008,269.226,591.204,267.96,591.414,266.683z M568.904,261.965
						c-10.867,54.479-63.815,89.836-118.274,78.969c-54.468-10.851-89.816-63.814-78.958-118.27
						c10.858-54.469,63.815-89.813,118.273-78.953C544.412,154.572,579.757,207.523,568.904,261.965z"/>
				</g>
			</g>
		</g>
	</g>
	<defs>
		<filter id="Adobe_OpacityMaskFilter_6_" filterUnits="userSpaceOnUse" x="366.884" y="140.935" width="205.755" height="205.757">
			<feFlood  style="flood-color:white;flood-opacity:1" result="back"/>
			<feBlend  in="SourceGraphic" in2="back" mode="normal"/>
		</filter>
	</defs>
	<mask maskUnits="userSpaceOnUse" x="366.884" y="140.935" width="205.755" height="205.757" id="SVGID_10_">
		<g filter="url(#Adobe_OpacityMaskFilter_6_)">
			<defs>
				
					<filter id="Adobe_OpacityMaskFilter_7_" filterUnits="userSpaceOnUse" x="366.884" y="140.935" width="205.755" height="205.757">
					<feFlood  style="flood-color:white;flood-opacity:1" result="back"/>
					<feBlend  in="SourceGraphic" in2="back" mode="normal"/>
				</filter>
			</defs>
			<mask maskUnits="userSpaceOnUse" x="366.884" y="140.935" width="205.755" height="205.757" id="SVGID_10_">
				<g filter="url(#Adobe_OpacityMaskFilter_7_)">
				</g>
			</mask>
			<radialGradient id="SVGID_11_" cx="469.7617" cy="243.813" r="128.6008" gradientUnits="userSpaceOnUse">
				<stop  offset="0.5956" style="stop-color:#000000"/>
				<stop  offset="0.6174" style="stop-color:#050505"/>
				<stop  offset="0.6422" style="stop-color:#121212"/>
				<stop  offset="0.6686" style="stop-color:#292929"/>
				<stop  offset="0.696" style="stop-color:#494949"/>
				<stop  offset="0.7242" style="stop-color:#737373"/>
				<stop  offset="0.7527" style="stop-color:#A4A4A4"/>
				<stop  offset="0.7537" style="stop-color:#A6A6A6"/>
				<stop  offset="0.7991" style="stop-color:#A8A8A8"/>
				<stop  offset="0.8155" style="stop-color:#AFAFAF"/>
				<stop  offset="0.8271" style="stop-color:#BBBBBB"/>
				<stop  offset="0.8365" style="stop-color:#CBCBCB"/>
				<stop  offset="0.8445" style="stop-color:#E1E1E1"/>
				<stop  offset="0.8515" style="stop-color:#FCFCFC"/>
				<stop  offset="0.8523" style="stop-color:#FFFFFF"/>
			</radialGradient>
			<path mask="url(#SVGID_10_)" fill="url(#SVGID_11_)" d="M366.884,243.812c0-56.818,46.058-102.877,102.879-102.877
				c56.817,0,102.876,46.059,102.876,102.877c0,56.821-46.06,102.88-102.876,102.88
				C412.942,346.691,366.884,300.632,366.884,243.812z"/>
		</g>
	</mask>
	<radialGradient id="SVGID_12_" cx="469.7617" cy="243.813" r="128.6008" gradientUnits="userSpaceOnUse">
		<stop  offset="0.5956" style="stop-color:#FFFFFF"/>
		<stop  offset="0.6132" style="stop-color:#FAFAFA"/>
		<stop  offset="0.6333" style="stop-color:#EDECED"/>
		<stop  offset="0.6547" style="stop-color:#D7D6D6"/>
		<stop  offset="0.6769" style="stop-color:#B8B6B6"/>
		<stop  offset="0.6997" style="stop-color:#908C8D"/>
		<stop  offset="0.7232" style="stop-color:#5F5A5B"/>
		<stop  offset="0.7466" style="stop-color:#261F21"/>
		<stop  offset="0.7537" style="stop-color:#130C0E"/>
		<stop  offset="0.8384" style="stop-color:#130C0E"/>
		<stop  offset="0.8523" style="stop-color:#130C0E"/>
	</radialGradient>
	<path opacity="0.3" fill="url(#SVGID_12_)" d="M366.884,243.812c0-56.818,46.058-102.877,102.879-102.877
		c56.817,0,102.876,46.059,102.876,102.877c0,56.821-46.06,102.88-102.876,102.88C412.942,346.691,366.884,300.632,366.884,243.812z
		"/>
	<defs>
		<filter id="Adobe_OpacityMaskFilter_8_" filterUnits="userSpaceOnUse" x="311.919" y="413.061" width="87.596" height="87.598">
			<feFlood  style="flood-color:white;flood-opacity:1" result="back"/>
			<feBlend  in="SourceGraphic" in2="back" mode="normal"/>
		</filter>
	</defs>
	<mask maskUnits="userSpaceOnUse" x="311.919" y="413.061" width="87.596" height="87.598" id="SVGID_13_">
		<g filter="url(#Adobe_OpacityMaskFilter_8_)">
			<defs>
				<filter id="Adobe_OpacityMaskFilter_9_" filterUnits="userSpaceOnUse" x="311.919" y="413.061" width="87.596" height="87.598">
					<feFlood  style="flood-color:white;flood-opacity:1" result="back"/>
					<feBlend  in="SourceGraphic" in2="back" mode="normal"/>
				</filter>
			</defs>
			<mask maskUnits="userSpaceOnUse" x="311.919" y="413.061" width="87.596" height="87.598" id="SVGID_13_">
				<g filter="url(#Adobe_OpacityMaskFilter_9_)">
				</g>
			</mask>
			<radialGradient id="SVGID_14_" cx="355.7178" cy="456.8594" r="54.7492" gradientUnits="userSpaceOnUse">
				<stop  offset="0.5956" style="stop-color:#000000"/>
				<stop  offset="0.6174" style="stop-color:#050505"/>
				<stop  offset="0.6422" style="stop-color:#121212"/>
				<stop  offset="0.6686" style="stop-color:#292929"/>
				<stop  offset="0.696" style="stop-color:#494949"/>
				<stop  offset="0.7242" style="stop-color:#737373"/>
				<stop  offset="0.7527" style="stop-color:#A4A4A4"/>
				<stop  offset="0.7537" style="stop-color:#A6A6A6"/>
				<stop  offset="0.7991" style="stop-color:#A8A8A8"/>
				<stop  offset="0.8155" style="stop-color:#AFAFAF"/>
				<stop  offset="0.8271" style="stop-color:#BBBBBB"/>
				<stop  offset="0.8365" style="stop-color:#CBCBCB"/>
				<stop  offset="0.8445" style="stop-color:#E1E1E1"/>
				<stop  offset="0.8515" style="stop-color:#FCFCFC"/>
				<stop  offset="0.8523" style="stop-color:#FFFFFF"/>
			</radialGradient>
			<path mask="url(#SVGID_13_)" fill="url(#SVGID_14_)" d="M311.919,456.857c0-24.189,19.608-43.797,43.799-43.797
				c24.188,0,43.797,19.607,43.797,43.797c0,24.191-19.609,43.801-43.797,43.801C331.528,500.658,311.919,481.049,311.919,456.857z"
				/>
		</g>
	</mask>
	<radialGradient id="SVGID_15_" cx="355.7178" cy="456.8594" r="54.7492" gradientUnits="userSpaceOnUse">
		<stop  offset="0.5956" style="stop-color:#FFFFFF"/>
		<stop  offset="0.6132" style="stop-color:#FAFAFA"/>
		<stop  offset="0.6333" style="stop-color:#EDECED"/>
		<stop  offset="0.6547" style="stop-color:#D7D6D6"/>
		<stop  offset="0.6769" style="stop-color:#B8B6B6"/>
		<stop  offset="0.6997" style="stop-color:#908C8D"/>
		<stop  offset="0.7232" style="stop-color:#5F5A5B"/>
		<stop  offset="0.7466" style="stop-color:#261F21"/>
		<stop  offset="0.7537" style="stop-color:#130C0E"/>
		<stop  offset="0.8384" style="stop-color:#130C0E"/>
		<stop  offset="0.8523" style="stop-color:#130C0E"/>
	</radialGradient>
	<path opacity="0.7" fill="url(#SVGID_15_)" d="M311.919,456.857c0-24.189,19.608-43.797,43.799-43.797
		c24.188,0,43.797,19.607,43.797,43.797c0,24.191-19.609,43.801-43.797,43.801C331.528,500.658,311.919,481.049,311.919,456.857z"/>
	<g>
		<g>
			<g>
				<g>
					<path fill="#8BBCE5" d="M585.689,260.957l24.436-7.016c1.009-11.46,0.613-22.798-1.1-33.788l-24.873-5.334
						c-1.156-4.923-2.623-9.737-4.399-14.423l17.646-18.257c-4.804-10.25-10.816-19.887-17.896-28.7l-24.177,7.805
						c-3.442-3.664-7.097-7.105-11.001-10.317l6.148-24.634c-9.147-6.403-19.148-11.757-29.858-15.888l-17.023,18.837
						c-3.538-1.06-7.15-1.975-10.843-2.711c-1.282-0.254-2.556-0.45-3.824-0.667l-7.008-24.433
						c-11.469-1.008-22.798-0.617-33.792,1.092l-5.345,24.888c-4.908,1.153-9.727,2.619-14.414,4.391l-18.264-17.641
						c-10.255,4.799-19.895,10.811-28.703,17.894l7.815,24.188c-3.657,3.426-7.113,7.089-10.313,10.981l-24.642-6.14
						c-6.397,9.138-11.751,19.132-15.888,29.863l18.84,17.02c-1.06,3.543-1.978,7.148-2.715,10.846
						c-0.257,1.279-0.454,2.546-0.664,3.824l-24.441,7.003c-0.995,11.461-0.612,22.792,1.101,33.792l24.875,5.33
						c1.161,4.913,2.626,9.726,4.394,14.413l-17.639,18.268c4.799,10.258,10.813,19.901,17.901,28.706l24.178-7.803
						c3.437,3.664,7.092,7.109,10.992,10.308l-6.147,24.641c9.146,6.399,19.141,11.749,29.854,15.891l17.025-18.844
						c3.539,1.06,7.157,1.983,10.857,2.72c1.271,0.262,2.547,0.45,3.814,0.657l7.005,24.45c11.47,1.002,22.799,0.614,33.796-1.095
						l5.341-24.881c4.911-1.17,9.732-2.621,14.412-4.395l18.269,17.632c10.247-4.804,19.886-10.807,28.696-17.896l-7.801-24.175
						c3.649-3.441,7.1-7.1,10.31-10.998l24.63,6.149c6.402-9.146,11.754-19.15,15.887-29.864l-18.828-17.021
						c1.05-3.542,1.979-7.153,2.719-10.851C585.283,263.5,585.479,262.234,585.689,260.957z M563.279,260.42
						c-10.305,51.665-60.518,85.195-112.162,74.89c-51.653-10.29-85.177-60.518-74.879-112.159
						c10.298-51.653,60.52-85.172,112.163-74.873C540.053,158.578,573.572,208.792,563.279,260.42z"/>
				</g>
			</g>
		</g>
	</g>
	<g opacity="0.4">
		<g>
			<g>
				<g>
					<defs>
						
							<filter id="Adobe_OpacityMaskFilter_10_" filterUnits="userSpaceOnUse" x="610.311" y="244.689" width="119.219" height="119.229">
							<feFlood  style="flood-color:white;flood-opacity:1" result="back"/>
							<feBlend  in="SourceGraphic" in2="back" mode="normal"/>
						</filter>
					</defs>
					<mask maskUnits="userSpaceOnUse" x="610.311" y="244.689" width="119.219" height="119.229" id="SVGID_16_">
						<g filter="url(#Adobe_OpacityMaskFilter_10_)">
							<defs>
								
									<filter id="Adobe_OpacityMaskFilter_11_" filterUnits="userSpaceOnUse" x="610.311" y="244.689" width="119.219" height="119.229">
									<feFlood  style="flood-color:white;flood-opacity:1" result="back"/>
									<feBlend  in="SourceGraphic" in2="back" mode="normal"/>
								</filter>
							</defs>
							<mask maskUnits="userSpaceOnUse" x="610.311" y="244.689" width="119.219" height="119.229" id="SVGID_16_">
								<g filter="url(#Adobe_OpacityMaskFilter_11_)">
								</g>
							</mask>
							<radialGradient id="SVGID_17_" cx="669.9199" cy="304.3037" r="59.6118" gradientUnits="userSpaceOnUse">
								<stop  offset="0.338" style="stop-color:#FFFFFF"/>
								<stop  offset="0.5107" style="stop-color:#FCFCFC"/>
								<stop  offset="0.6243" style="stop-color:#F3F3F3"/>
								<stop  offset="0.7208" style="stop-color:#E5E5E5"/>
								<stop  offset="0.8079" style="stop-color:#CFCFCF"/>
								<stop  offset="0.8884" style="stop-color:#B4B4B4"/>
								<stop  offset="0.9633" style="stop-color:#939393"/>
								<stop  offset="1" style="stop-color:#808080"/>
							</radialGradient>
							<path mask="url(#SVGID_16_)" fill="url(#SVGID_17_)" d="M703.434,329.459c0.272-0.358,0.524-0.737,0.785-1.106l18.805,3.19
								c1.113-2.176,2.099-4.394,2.926-6.656l-15.093-11.658c0.388-1.742,0.645-3.49,0.808-5.258l17.865-6.638
								c-0.125-2.417-0.4-4.833-0.816-7.208l-18.883-2.566c-0.537-1.682-1.172-3.339-1.922-4.947l12.16-14.698
								c-1.299-2.02-2.748-3.959-4.311-5.837l-17.641,7.226c-0.97-0.875-1.978-1.713-3.041-2.516
								c-0.365-0.278-0.734-0.528-1.104-0.785l3.184-18.804c-2.172-1.114-4.391-2.091-6.646-2.92l-11.666,15.082
								c-1.742-0.377-3.494-0.646-5.254-0.803l-6.639-17.867c-2.426,0.123-4.834,0.402-7.219,0.811l-2.553,18.887
								c-1.689,0.546-3.343,1.177-4.954,1.917l-14.702-12.151c-2.011,1.302-3.955,2.741-5.833,4.312l7.231,17.647
								c-0.879,0.961-1.721,1.968-2.521,3.032c-0.275,0.37-0.525,0.741-0.785,1.107l-18.801-3.187
								c-1.121,2.177-2.097,4.399-2.928,6.653l15.092,11.658c-0.383,1.738-0.65,3.499-0.808,5.251l-17.86,6.641
								c0.118,2.421,0.391,4.832,0.807,7.216l18.895,2.559c0.525,1.689,1.162,3.339,1.914,4.955l-12.164,14.688
								c1.303,2.027,2.752,3.967,4.31,5.839l17.647-7.232c0.96,0.889,1.981,1.733,3.045,2.533c0.359,0.269,0.728,0.522,1.104,0.787
								l-3.191,18.798c2.174,1.12,4.393,2.1,6.646,2.916l11.668-15.078c1.736,0.377,3.493,0.642,5.25,0.794l6.642,17.875
								c2.419-0.123,4.833-0.399,7.222-0.813l2.555-18.893c1.686-0.535,3.34-1.165,4.949-1.915l14.7,12.162
								c2.015-1.297,3.964-2.754,5.835-4.317l-7.229-17.645C701.79,331.532,702.633,330.531,703.434,329.459z M687.799,314.082
								c-8.088,10.783-23.377,12.96-34.156,4.878c-10.771-8.087-12.955-23.372-4.871-34.139
								c8.095-10.774,23.375-12.951,34.153-4.873C693.692,288.032,695.871,303.321,687.799,314.082z"/>
						</g>
					</mask>
					<radialGradient id="SVGID_18_" cx="669.9199" cy="304.3037" r="59.6118" gradientUnits="userSpaceOnUse">
						<stop  offset="0.338" style="stop-color:#808285"/>
						<stop  offset="0.5109" style="stop-color:#838588"/>
						<stop  offset="0.6247" style="stop-color:#8C8D90"/>
						<stop  offset="0.7214" style="stop-color:#9A9C9E"/>
						<stop  offset="0.8085" style="stop-color:#B0B1B3"/>
						<stop  offset="0.8892" style="stop-color:#CBCCCD"/>
						<stop  offset="0.9642" style="stop-color:#ECEDED"/>
						<stop  offset="1" style="stop-color:#FFFFFF"/>
					</radialGradient>
					<path fill="url(#SVGID_18_)" d="M703.434,329.459c0.272-0.358,0.524-0.737,0.785-1.106l18.805,3.19
						c1.113-2.176,2.099-4.394,2.926-6.656l-15.093-11.658c0.388-1.742,0.645-3.49,0.808-5.258l17.865-6.638
						c-0.125-2.417-0.4-4.833-0.816-7.208l-18.883-2.566c-0.537-1.682-1.172-3.339-1.922-4.947l12.16-14.698
						c-1.299-2.02-2.748-3.959-4.311-5.837l-17.641,7.226c-0.97-0.875-1.978-1.713-3.041-2.516
						c-0.365-0.278-0.734-0.528-1.104-0.785l3.184-18.804c-2.172-1.114-4.391-2.091-6.646-2.92l-11.666,15.082
						c-1.742-0.377-3.494-0.646-5.254-0.803l-6.639-17.867c-2.426,0.123-4.834,0.402-7.219,0.811l-2.553,18.887
						c-1.689,0.546-3.343,1.177-4.954,1.917l-14.702-12.151c-2.011,1.302-3.955,2.741-5.833,4.312l7.231,17.647
						c-0.879,0.961-1.721,1.968-2.521,3.032c-0.275,0.37-0.525,0.741-0.785,1.107l-18.801-3.187
						c-1.121,2.177-2.097,4.399-2.928,6.653l15.092,11.658c-0.383,1.738-0.65,3.499-0.808,5.251l-17.86,6.641
						c0.118,2.421,0.391,4.832,0.807,7.216l18.895,2.559c0.525,1.689,1.162,3.339,1.914,4.955l-12.164,14.688
						c1.303,2.027,2.752,3.967,4.31,5.839l17.647-7.232c0.96,0.889,1.981,1.733,3.045,2.533c0.359,0.269,0.728,0.522,1.104,0.787
						l-3.191,18.798c2.174,1.12,4.393,2.1,6.646,2.916l11.668-15.078c1.736,0.377,3.493,0.642,5.25,0.794l6.642,17.875
						c2.419-0.123,4.833-0.399,7.222-0.813l2.555-18.893c1.686-0.535,3.34-1.165,4.949-1.915l14.7,12.162
						c2.015-1.297,3.964-2.754,5.835-4.317l-7.229-17.645C701.79,331.532,702.633,330.531,703.434,329.459z M687.799,314.082
						c-8.088,10.783-23.377,12.96-34.156,4.878c-10.771-8.087-12.955-23.372-4.871-34.139c8.095-10.774,23.375-12.951,34.153-4.873
						C693.692,288.032,695.871,303.321,687.799,314.082z"/>
				</g>
			</g>
		</g>
	</g>
	<defs>
		<filter id="Adobe_OpacityMaskFilter_12_" filterUnits="userSpaceOnUse" x="643.767" y="278.116" width="45.541" height="45.542">
			<feFlood  style="flood-color:white;flood-opacity:1" result="back"/>
			<feBlend  in="SourceGraphic" in2="back" mode="normal"/>
		</filter>
	</defs>
	<mask maskUnits="userSpaceOnUse" x="643.767" y="278.116" width="45.541" height="45.542" id="SVGID_19_">
		<g filter="url(#Adobe_OpacityMaskFilter_12_)">
			<defs>
				
					<filter id="Adobe_OpacityMaskFilter_13_" filterUnits="userSpaceOnUse" x="643.767" y="278.116" width="45.541" height="45.542">
					<feFlood  style="flood-color:white;flood-opacity:1" result="back"/>
					<feBlend  in="SourceGraphic" in2="back" mode="normal"/>
				</filter>
			</defs>
			<mask maskUnits="userSpaceOnUse" x="643.767" y="278.116" width="45.541" height="45.542" id="SVGID_19_">
				<g filter="url(#Adobe_OpacityMaskFilter_13_)">
				</g>
			</mask>
			
				<radialGradient id="SVGID_20_" cx="2620.8359" cy="-2803.4351" r="28.4571" gradientTransform="matrix(0.8958 0.4445 -0.4445 0.8958 -2927.3362 1647.241)" gradientUnits="userSpaceOnUse">
				<stop  offset="0.5744" style="stop-color:#000000"/>
				<stop  offset="0.6025" style="stop-color:#040404"/>
				<stop  offset="0.63" style="stop-color:#101010"/>
				<stop  offset="0.6574" style="stop-color:#242424"/>
				<stop  offset="0.6847" style="stop-color:#3F3F3F"/>
				<stop  offset="0.712" style="stop-color:#636363"/>
				<stop  offset="0.7392" style="stop-color:#8F8F8F"/>
				<stop  offset="0.7658" style="stop-color:#C2C2C2"/>
				<stop  offset="0.788" style="stop-color:#F2F2F2"/>
			</radialGradient>
			<path mask="url(#SVGID_19_)" fill="url(#SVGID_20_)" d="M646.144,290.764c5.591-11.26,19.253-15.858,30.515-10.27
				c11.261,5.586,15.862,19.252,10.27,30.512c-5.586,11.262-19.243,15.863-30.51,10.274
				C645.156,315.694,640.555,302.028,646.144,290.764z"/>
		</g>
	</mask>
	
		<radialGradient id="SVGID_21_" cx="2620.8359" cy="-2803.4351" r="28.4571" gradientTransform="matrix(0.8958 0.4445 -0.4445 0.8958 -2927.3362 1647.241)" gradientUnits="userSpaceOnUse">
		<stop  offset="0.5744" style="stop-color:#FFFFFF"/>
		<stop  offset="0.6162" style="stop-color:#D6D4D5"/>
		<stop  offset="0.7097" style="stop-color:#6E6A6B"/>
		<stop  offset="0.788" style="stop-color:#130C0E"/>
	</radialGradient>
	<path opacity="0.7" fill="url(#SVGID_21_)" d="M646.144,290.764c5.591-11.26,19.253-15.858,30.515-10.27
		c11.261,5.586,15.862,19.252,10.27,30.512c-5.586,11.262-19.243,15.863-30.51,10.274
		C645.156,315.694,640.555,302.028,646.144,290.764z"/>
	<g>
		<g>
			<g>
				<g>
					<g>
						<path fill="#B9E5FB" d="M699.999,326.023c0.272-0.357,0.524-0.735,0.786-1.105l18.805,3.19
							c1.111-2.176,2.096-4.396,2.925-6.656l-15.093-11.659c0.386-1.743,0.645-3.489,0.807-5.258l17.865-6.638
							c-0.123-2.418-0.402-4.833-0.817-7.209l-18.881-2.567c-0.538-1.681-1.171-3.338-1.923-4.946l12.16-14.699
							c-1.298-2.02-2.748-3.958-4.311-5.836l-17.639,7.226c-0.971-0.874-1.98-1.713-3.043-2.517
							c-0.365-0.277-0.734-0.527-1.104-0.784l3.183-18.805c-2.17-1.114-4.39-2.09-6.644-2.919l-11.669,15.082
							c-1.74-0.378-3.491-0.646-5.253-0.803l-6.639-17.868c-2.426,0.125-4.833,0.403-7.219,0.812l-2.553,18.887
							c-1.689,0.545-3.344,1.176-4.953,1.917l-14.702-12.152c-2.013,1.302-3.956,2.74-5.833,4.31l7.23,17.648
							c-0.879,0.961-1.721,1.969-2.521,3.032c-0.276,0.369-0.524,0.741-0.784,1.107l-18.802-3.187
							c-1.122,2.176-2.099,4.399-2.928,6.653l15.091,11.658c-0.383,1.738-0.65,3.499-0.807,5.252l-17.861,6.64
							c0.117,2.421,0.391,4.833,0.809,7.218l18.895,2.559c0.522,1.688,1.162,3.338,1.914,4.953l-12.166,14.688
							c1.303,2.028,2.753,3.969,4.311,5.84l17.648-7.233c0.959,0.89,1.979,1.734,3.043,2.535c0.359,0.269,0.729,0.522,1.104,0.787
							l-3.191,18.797c2.174,1.121,4.394,2.101,6.646,2.917l11.67-15.079c1.734,0.378,3.492,0.643,5.248,0.795l6.643,17.875
							c2.418-0.124,4.832-0.399,7.221-0.814l2.557-18.892c1.684-0.536,3.338-1.165,4.948-1.914l14.7,12.16
							c2.014-1.297,3.963-2.753,5.836-4.315l-7.23-17.647C698.355,328.098,699.199,327.096,699.999,326.023z M683.101,313.325
							c-6.887,9.184-19.909,11.04-29.088,4.155c-9.177-6.888-11.035-19.906-4.151-29.076c6.896-9.178,19.91-11.031,29.09-4.151
							C688.123,291.139,689.979,304.16,683.101,313.325z"/>
					</g>
				</g>
			</g>
		</g>
	</g>
	<g>
		<g>
			<g>
				<g>
					<path fill="#004A7A" d="M431.784,464.296l7.659-0.765c0.313-2.973,0.474-5.932,0.479-8.858l-7.531-1.581
						c-0.078-4.533-0.525-8.992-1.357-13.35l7.012-3.087c-0.622-2.904-1.39-5.755-2.299-8.564l-7.618,0.824
						c-1.473-4.242-3.315-8.339-5.475-12.248l5.743-5.124c-1.48-2.561-3.087-5.047-4.821-7.45l-7.027,3.161
						c-2.69-3.567-5.672-6.914-8.949-9.988l3.866-6.62c-2.188-1.985-4.487-3.849-6.886-5.602l-5.677,5.138
						c-3.644-2.542-7.535-4.778-11.629-6.692l1.637-7.525c-2.683-1.192-5.44-2.259-8.275-3.18l-3.833,6.671
						c-3.322-0.999-6.739-1.811-10.25-2.385c-0.962-0.158-1.912-0.268-2.867-0.391l-0.766-7.665
						c-2.972-0.305-5.925-0.467-8.854-0.471l-1.581,7.526c-4.535,0.073-8.998,0.527-13.35,1.36l-3.086-7.012
						c-2.901,0.618-5.759,1.382-8.568,2.292l0.832,7.624c-4.251,1.473-8.345,3.313-12.255,5.47l-5.124-5.743
						c-2.56,1.482-5.044,3.095-7.442,4.833l3.153,7.018c-3.564,2.699-6.919,5.672-9.988,8.95l-6.626-3.867
						c-1.97,2.192-3.841,4.488-5.587,6.887l5.14,5.676c-2.551,3.646-4.781,7.537-6.703,11.627l-7.523-1.628
						c-1.197,2.677-2.259,5.433-3.185,8.275l6.691,3.831c-1.01,3.318-1.83,6.731-2.404,10.25c-0.151,0.953-0.268,1.907-0.393,2.862
						l-7.656,0.765c-0.319,2.975-0.474,5.922-0.478,8.856l7.53,1.577c0.078,4.533,0.526,8.996,1.361,13.351l-7.011,3.087
						c0.617,2.904,1.382,5.763,2.287,8.567l7.628-0.822c1.467,4.248,3.313,8.339,5.472,12.243l-5.748,5.129
						c1.487,2.554,3.095,5.052,4.821,7.438l7.032-3.148c2.692,3.571,5.672,6.926,8.946,9.991l-3.864,6.624
						c2.192,1.977,4.487,3.839,6.884,5.597l5.677-5.154c3.644,2.551,7.539,4.796,11.625,6.707l-1.631,7.528
						c2.683,1.191,5.438,2.253,8.275,3.184l3.832-6.689c3.32,1.006,6.73,1.828,10.251,2.399c0.958,0.148,1.911,0.267,2.861,0.393
						l0.77,7.659c2.973,0.305,5.926,0.47,8.859,0.481l1.579-7.539c4.529-0.076,8.996-0.521,13.351-1.36l3.081,7.01
						c2.905-0.613,5.764-1.374,8.566-2.283l-0.819-7.629c4.243-1.47,8.337-3.314,12.246-5.469l5.123,5.746
						c2.561-1.485,5.048-3.096,7.443-4.836l-3.15-7.018c3.566-2.695,6.919-5.678,9.996-8.95l6.615,3.858
						c1.979-2.186,3.843-4.48,5.596-6.864l-5.143-5.689c2.55-3.641,4.782-7.539,6.698-11.627l7.528,1.628
						c1.188-2.684,2.261-5.435,3.18-8.268l-6.689-3.836c1.013-3.318,1.827-6.728,2.401-10.259
						C431.55,466.203,431.664,465.254,431.784,464.296z M392.06,460.753c-3.426,21.05-23.28,35.351-44.349,31.922
						c-21.061-3.432-35.358-23.287-31.924-44.354c3.432-21.07,23.291-35.36,44.36-31.938
						C381.204,419.827,395.498,439.678,392.06,460.753z"/>
				</g>
			</g>
		</g>
	</g>
	<g opacity="0.5">
		<g>
			<g>
				<g>
					<defs>
						
							<filter id="Adobe_OpacityMaskFilter_14_" filterUnits="userSpaceOnUse" x="678.387" y="318.016" width="256.838" height="256.857">
							<feFlood  style="flood-color:white;flood-opacity:1" result="back"/>
							<feBlend  in="SourceGraphic" in2="back" mode="normal"/>
						</filter>
					</defs>
					<mask maskUnits="userSpaceOnUse" x="678.387" y="318.016" width="256.838" height="256.857" id="SVGID_22_">
						<g filter="url(#Adobe_OpacityMaskFilter_14_)">
							<defs>
								
									<filter id="Adobe_OpacityMaskFilter_15_" filterUnits="userSpaceOnUse" x="678.387" y="318.016" width="256.838" height="256.857">
									<feFlood  style="flood-color:white;flood-opacity:1" result="back"/>
									<feBlend  in="SourceGraphic" in2="back" mode="normal"/>
								</filter>
							</defs>
							<mask maskUnits="userSpaceOnUse" x="678.387" y="318.016" width="256.838" height="256.857" id="SVGID_22_">
								<g filter="url(#Adobe_OpacityMaskFilter_15_)">
								</g>
							</mask>
							<radialGradient id="SVGID_23_" cx="806.8057" cy="446.4443" r="128.4238" gradientUnits="userSpaceOnUse">
								<stop  offset="0.338" style="stop-color:#FFFFFF"/>
								<stop  offset="0.5107" style="stop-color:#FCFCFC"/>
								<stop  offset="0.6243" style="stop-color:#F3F3F3"/>
								<stop  offset="0.7208" style="stop-color:#E5E5E5"/>
								<stop  offset="0.8079" style="stop-color:#CFCFCF"/>
								<stop  offset="0.8884" style="stop-color:#B4B4B4"/>
								<stop  offset="0.9633" style="stop-color:#939393"/>
								<stop  offset="1" style="stop-color:#808080"/>
							</radialGradient>
							<path mask="url(#SVGID_22_)" fill="url(#SVGID_23_)" d="M928.738,486.924l-31.574-23.961
								c0.434-2.341,0.794-4.696,1.029-7.024l37.031-14.147c-0.261-7.177-1.129-14.275-2.583-21.251l-39.337-4.963
								c-0.799-2.223-1.666-4.424-2.631-6.58l25.01-30.779c-3.781-6.025-8.055-11.757-12.815-17.147l-36.55,15.374
								c-1.793-1.529-3.673-2.984-5.6-4.381l6.26-39.127c-3.139-1.656-6.342-3.221-9.662-4.643
								c-3.314-1.424-6.658-2.652-10.03-3.778l-23.96,31.577c-2.344-0.428-4.689-0.791-7.029-1.038l-14.145-37.04
								c-7.178,0.27-14.283,1.151-21.25,2.594l-4.976,39.338c-2.228,0.794-4.415,1.683-6.567,2.641l-30.779-25.017
								c-6.027,3.779-11.771,8.058-17.138,12.816l15.361,36.554c-1.526,1.801-2.97,3.668-4.374,5.611l-39.129-6.272
								c-1.651,3.137-3.228,6.339-4.648,9.655c-1.418,3.326-2.645,6.672-3.772,10.04l31.575,23.96
								c-0.43,2.337-0.79,4.686-1.033,7.021l-37.035,14.151c0.268,7.185,1.145,14.282,2.583,21.25l39.349,4.954
								c0.789,2.233,1.674,4.426,2.631,6.582l-25.006,30.784c3.77,6.031,8.049,11.77,12.816,17.133l36.548-15.364
								c1.79,1.525,3.665,2.977,5.597,4.367l-6.27,39.139c3.148,1.647,6.352,3.223,9.66,4.645c3.322,1.42,6.676,2.648,10.046,3.769
								l23.961-31.57c2.339,0.426,4.675,0.794,7.021,1.03l14.15,37.045c7.178-0.276,14.277-1.138,21.248-2.58l4.973-39.346
								c2.217-0.812,4.412-1.688,6.565-2.639l30.782,25.003c6.033-3.774,11.769-8.043,17.144-12.813l-15.363-36.539
								c1.505-1.797,2.964-3.681,4.363-5.615l39.128,6.26c1.663-3.117,3.238-6.334,4.652-9.652
								C926.385,493.646,927.615,490.287,928.738,486.924z M854.355,460.73c-12.082,28.252-44.799,41.382-73.074,29.302
								c-28.273-12.088-41.391-44.805-29.309-73.077c12.088-28.276,44.801-41.384,73.07-29.309
								C853.32,399.736,866.443,432.446,854.355,460.73z"/>
						</g>
					</mask>
					<radialGradient id="SVGID_24_" cx="806.8057" cy="446.4443" r="128.4238" gradientUnits="userSpaceOnUse">
						<stop  offset="0.338" style="stop-color:#808285"/>
						<stop  offset="0.5109" style="stop-color:#838588"/>
						<stop  offset="0.6247" style="stop-color:#8C8D90"/>
						<stop  offset="0.7214" style="stop-color:#9A9C9E"/>
						<stop  offset="0.8085" style="stop-color:#B0B1B3"/>
						<stop  offset="0.8892" style="stop-color:#CBCCCD"/>
						<stop  offset="0.9642" style="stop-color:#ECEDED"/>
						<stop  offset="1" style="stop-color:#FFFFFF"/>
					</radialGradient>
					<path fill="url(#SVGID_24_)" d="M928.738,486.924l-31.574-23.961c0.434-2.341,0.794-4.696,1.029-7.024l37.031-14.147
						c-0.261-7.177-1.129-14.275-2.583-21.251l-39.337-4.963c-0.799-2.223-1.666-4.424-2.631-6.58l25.01-30.779
						c-3.781-6.025-8.055-11.757-12.815-17.147l-36.55,15.374c-1.793-1.529-3.673-2.984-5.6-4.381l6.26-39.127
						c-3.139-1.656-6.342-3.221-9.662-4.643c-3.314-1.424-6.658-2.652-10.03-3.778l-23.96,31.577
						c-2.344-0.428-4.689-0.791-7.029-1.038l-14.145-37.04c-7.178,0.27-14.283,1.151-21.25,2.594l-4.976,39.338
						c-2.228,0.794-4.415,1.683-6.567,2.641l-30.779-25.017c-6.027,3.779-11.771,8.058-17.138,12.816l15.361,36.554
						c-1.526,1.801-2.97,3.668-4.374,5.611l-39.129-6.272c-1.651,3.137-3.228,6.339-4.648,9.655
						c-1.418,3.326-2.645,6.672-3.772,10.04l31.575,23.96c-0.43,2.337-0.79,4.686-1.033,7.021l-37.035,14.151
						c0.268,7.185,1.145,14.282,2.583,21.25l39.349,4.954c0.789,2.233,1.674,4.426,2.631,6.582l-25.006,30.784
						c3.77,6.031,8.049,11.77,12.816,17.133l36.548-15.364c1.79,1.525,3.665,2.977,5.597,4.367l-6.27,39.139
						c3.148,1.647,6.352,3.223,9.66,4.645c3.322,1.42,6.676,2.648,10.046,3.769l23.961-31.57c2.339,0.426,4.675,0.794,7.021,1.03
						l14.15,37.045c7.178-0.276,14.277-1.138,21.248-2.58l4.973-39.346c2.217-0.812,4.412-1.688,6.565-2.639l30.782,25.003
						c6.033-3.774,11.769-8.043,17.144-12.813l-15.363-36.539c1.505-1.797,2.964-3.681,4.363-5.615l39.128,6.26
						c1.663-3.117,3.238-6.334,4.652-9.652C926.385,493.646,927.615,490.287,928.738,486.924z M854.355,460.73
						c-12.082,28.252-44.799,41.382-73.074,29.302c-28.273-12.088-41.391-44.805-29.309-73.077
						c12.088-28.276,44.801-41.384,73.07-29.309C853.32,399.736,866.443,432.446,854.355,460.73z"/>
				</g>
			</g>
		</g>
	</g>
	<defs>
		
			<filter id="Adobe_OpacityMaskFilter_16_" filterUnits="userSpaceOnUse" x="747.679" y="387.134" width="111.285" height="111.284">
			<feFlood  style="flood-color:white;flood-opacity:1" result="back"/>
			<feBlend  in="SourceGraphic" in2="back" mode="normal"/>
		</filter>
	</defs>
	<mask maskUnits="userSpaceOnUse" x="747.679" y="387.134" width="111.285" height="111.284" id="SVGID_25_">
		<g filter="url(#Adobe_OpacityMaskFilter_16_)">
			<defs>
				
					<filter id="Adobe_OpacityMaskFilter_17_" filterUnits="userSpaceOnUse" x="747.679" y="387.134" width="111.285" height="111.284">
					<feFlood  style="flood-color:white;flood-opacity:1" result="back"/>
					<feBlend  in="SourceGraphic" in2="back" mode="normal"/>
				</filter>
			</defs>
			<mask maskUnits="userSpaceOnUse" x="747.679" y="387.134" width="111.285" height="111.284" id="SVGID_25_">
				<g filter="url(#Adobe_OpacityMaskFilter_17_)">
				</g>
			</mask>
			
				<radialGradient id="SVGID_26_" cx="2403.7227" cy="-1785.4185" r="69.5381" gradientTransform="matrix(0.9432 0.3321 -0.3321 0.9432 -2056.8091 1328.5046)" gradientUnits="userSpaceOnUse">
				<stop  offset="0.5744" style="stop-color:#000000"/>
				<stop  offset="0.5966" style="stop-color:#060606"/>
				<stop  offset="0.6258" style="stop-color:#171717"/>
				<stop  offset="0.6591" style="stop-color:#323232"/>
				<stop  offset="0.6953" style="stop-color:#585858"/>
				<stop  offset="0.734" style="stop-color:#8A8A8A"/>
				<stop  offset="0.774" style="stop-color:#C5C5C5"/>
				<stop  offset="0.8017" style="stop-color:#F2F2F2"/>
			</radialGradient>
			<path mask="url(#SVGID_25_)" fill="url(#SVGID_26_)" d="M750.851,424.299c10.204-28.978,41.97-44.196,70.948-33.992
				c28.979,10.201,44.197,41.967,33.99,70.942c-10.203,28.98-41.961,44.202-70.943,33.993
				C755.87,485.04,740.648,453.278,750.851,424.299z"/>
		</g>
	</mask>
	
		<radialGradient id="SVGID_27_" cx="2403.7227" cy="-1785.4185" r="69.5381" gradientTransform="matrix(0.9432 0.3321 -0.3321 0.9432 -2056.8091 1328.5046)" gradientUnits="userSpaceOnUse">
		<stop  offset="0.5744" style="stop-color:#FFFFFF"/>
		<stop  offset="0.5965" style="stop-color:#F9F9F9"/>
		<stop  offset="0.6257" style="stop-color:#E9E8E9"/>
		<stop  offset="0.6589" style="stop-color:#CECDCD"/>
		<stop  offset="0.6951" style="stop-color:#A9A7A7"/>
		<stop  offset="0.7337" style="stop-color:#797576"/>
		<stop  offset="0.7737" style="stop-color:#403A3C"/>
		<stop  offset="0.8017" style="stop-color:#130C0E"/>
	</radialGradient>
	<path opacity="0.8" fill="url(#SVGID_27_)" d="M750.851,424.299c10.204-28.978,41.97-44.196,70.948-33.992
		c28.979,10.201,44.197,41.967,33.99,70.942c-10.203,28.98-41.961,44.202-70.943,33.993
		C755.87,485.04,740.648,453.278,750.851,424.299z"/>
	<defs>
		<filter id="Adobe_OpacityMaskFilter_18_" filterUnits="userSpaceOnUse" x="492.11" y="409.114" width="144.102" height="144.1">
			<feFlood  style="flood-color:white;flood-opacity:1" result="back"/>
			<feBlend  in="SourceGraphic" in2="back" mode="normal"/>
		</filter>
	</defs>
	<mask maskUnits="userSpaceOnUse" x="492.11" y="409.114" width="144.102" height="144.1" id="SVGID_28_">
		<g filter="url(#Adobe_OpacityMaskFilter_18_)">
			<defs>
				<filter id="Adobe_OpacityMaskFilter_19_" filterUnits="userSpaceOnUse" x="492.11" y="409.114" width="144.102" height="144.1">
					<feFlood  style="flood-color:white;flood-opacity:1" result="back"/>
					<feBlend  in="SourceGraphic" in2="back" mode="normal"/>
				</filter>
			</defs>
			<mask maskUnits="userSpaceOnUse" x="492.11" y="409.114" width="144.102" height="144.1" id="SVGID_28_">
				<g filter="url(#Adobe_OpacityMaskFilter_19_)">
				</g>
			</mask>
			
				<radialGradient id="SVGID_29_" cx="2190.8789" cy="-1669.7759" r="90.0434" gradientTransform="matrix(0.9432 0.3321 -0.3321 0.9432 -2056.8091 1328.5046)" gradientUnits="userSpaceOnUse">
				<stop  offset="0.5744" style="stop-color:#000000"/>
				<stop  offset="0.5966" style="stop-color:#060606"/>
				<stop  offset="0.6258" style="stop-color:#171717"/>
				<stop  offset="0.6591" style="stop-color:#323232"/>
				<stop  offset="0.6953" style="stop-color:#585858"/>
				<stop  offset="0.734" style="stop-color:#8A8A8A"/>
				<stop  offset="0.774" style="stop-color:#C5C5C5"/>
				<stop  offset="0.8017" style="stop-color:#F2F2F2"/>
			</radialGradient>
			<path mask="url(#SVGID_28_)" fill="url(#SVGID_29_)" d="M496.218,457.241c13.212-37.525,54.347-57.231,91.868-44.019
				c37.526,13.209,57.232,54.343,44.016,91.863c-13.213,37.526-54.337,57.234-91.865,44.018
				C502.717,535.892,483.007,494.766,496.218,457.241z"/>
		</g>
	</mask>
	
		<radialGradient id="SVGID_30_" cx="2190.8789" cy="-1669.7759" r="90.0434" gradientTransform="matrix(0.9432 0.3321 -0.3321 0.9432 -2056.8091 1328.5046)" gradientUnits="userSpaceOnUse">
		<stop  offset="0.5744" style="stop-color:#FFFFFF"/>
		<stop  offset="0.5965" style="stop-color:#F9F9F9"/>
		<stop  offset="0.6257" style="stop-color:#E9E8E9"/>
		<stop  offset="0.6589" style="stop-color:#CECDCD"/>
		<stop  offset="0.6951" style="stop-color:#A9A7A7"/>
		<stop  offset="0.7337" style="stop-color:#797576"/>
		<stop  offset="0.7737" style="stop-color:#403A3C"/>
		<stop  offset="0.8017" style="stop-color:#130C0E"/>
	</radialGradient>
	<path opacity="0.5" fill="url(#SVGID_30_)" d="M496.218,457.241c13.212-37.525,54.347-57.231,91.868-44.019
		c37.526,13.209,57.232,54.343,44.016,91.863c-13.213,37.526-54.337,57.234-91.865,44.018
		C502.717,535.892,483.007,494.766,496.218,457.241z"/>
	<g>
		<g>
			<g>
				<g>
					<path fill="#688FB5" d="M924.158,482.345l-31.574-23.962c0.434-2.342,0.795-4.697,1.029-7.024l37.029-14.148
						c-0.259-7.177-1.127-14.275-2.58-21.251l-39.338-4.961c-0.799-2.225-1.666-4.425-2.632-6.58l25.011-30.78
						c-3.781-6.026-8.055-11.756-12.815-17.147l-36.55,15.374c-1.792-1.531-3.674-2.985-5.601-4.381l6.261-39.128
						c-3.139-1.654-6.344-3.22-9.662-4.643c-3.316-1.424-6.658-2.652-10.03-3.777l-23.962,31.576
						c-2.344-0.427-4.688-0.79-7.027-1.038l-14.145-37.041c-7.178,0.271-14.282,1.154-21.25,2.595l-4.977,39.339
						c-2.227,0.793-4.414,1.683-6.566,2.642l-30.78-25.017c-6.025,3.779-11.771,8.058-17.136,12.815l15.359,36.556
						c-1.526,1.8-2.969,3.668-4.371,5.611l-39.13-6.273c-1.653,3.136-3.229,6.338-4.649,9.654
						c-1.418,3.328-2.645,6.671-3.772,10.039l31.573,23.961c-0.428,2.339-0.789,4.687-1.033,7.023l-37.035,14.149
						c0.271,7.187,1.146,14.281,2.585,21.251l39.35,4.954c0.788,2.233,1.673,4.426,2.63,6.58L693.363,510.1
						c3.77,6.033,8.048,11.771,12.815,17.134l36.549-15.364c1.791,1.525,3.665,2.978,5.597,4.368l-6.27,39.137
						c3.148,1.649,6.353,3.224,9.66,4.646c3.323,1.42,6.674,2.647,10.047,3.768l23.959-31.568c2.342,0.425,4.676,0.793,7.02,1.028
						l14.152,37.047c7.178-0.277,14.275-1.139,21.247-2.581l4.972-39.345c2.219-0.813,4.416-1.688,6.568-2.64l30.779,25.003
						c6.034-3.774,11.771-8.042,17.146-12.813L872.24,501.38c1.508-1.799,2.965-3.681,4.363-5.614l39.129,6.258
						c1.662-3.117,3.239-6.333,4.653-9.651C921.805,489.066,923.035,485.707,924.158,482.345z M847.938,461.411
						c-10.789,25.227-40.001,36.95-65.246,26.163c-25.246-10.792-36.959-40.006-26.172-65.249
						c10.795-25.247,40.003-36.95,65.244-26.169C847.012,406.951,858.729,436.156,847.938,461.411z"/>
				</g>
			</g>
		</g>
	</g>
	<g>
		<g>
			<g>
				<g>
					<g>
						<path fill="#A6B2DB" d="M641.674,502.074l33.939-7.065c0.224-1.838,0.414-3.688,0.559-5.579
							c0.311-4.414,0.356-8.784,0.178-13.106l-33.225-9.751c-0.377-2.056-0.854-4.065-1.377-6.069l25.846-23.063
							c-2.443-5.774-5.331-11.32-8.674-16.568l-33.693,8.182c-1.345-1.573-2.75-3.081-4.209-4.546l10.863-32.92
							c-4.958-3.76-10.232-7.125-15.802-10.021l-25.085,23.92c-1.941-0.679-3.925-1.293-5.926-1.833l-7.054-33.946
							c-1.847-0.214-3.704-0.404-5.583-0.54c-4.42-0.336-8.791-0.367-13.113-0.195l-9.754,33.23
							c-2.043,0.376-4.068,0.845-6.055,1.377l-23.071-25.858c-5.773,2.448-11.319,5.348-16.575,8.681l8.182,33.699
							c-1.572,1.341-3.081,2.751-4.539,4.204l-32.921-10.858c-3.755,4.96-7.116,10.228-10.023,15.789l23.93,25.1
							c-0.688,1.941-1.297,3.914-1.84,5.918l-33.944,7.061c-0.226,1.841-0.416,3.708-0.55,5.575
							c-0.325,4.424-0.365,8.788-0.183,13.116l33.232,9.753c0.375,2.047,0.838,4.066,1.375,6.055l-25.861,23.075
							c2.447,5.771,5.337,11.321,8.684,16.565l33.691-8.179c1.345,1.572,2.755,3.077,4.21,4.544l-10.861,32.923
							c4.956,3.747,10.23,7.105,15.789,10.024l25.095-23.935c1.944,0.69,3.915,1.301,5.924,1.845l7.058,33.927
							c1.842,0.229,3.702,0.423,5.584,0.557c4.414,0.338,8.787,0.366,13.112,0.189l9.755-33.226
							c2.049-0.384,4.059-0.848,6.057-1.379l23.068,25.859c5.775-2.455,11.317-5.344,16.572-8.689l-8.181-33.703
							c1.567-1.333,3.069-2.741,4.532-4.199l32.93,10.866c3.75-4.951,7.115-10.233,10.024-15.794l-23.94-25.095
							C640.516,506.052,641.133,504.079,641.674,502.074z M559.316,546.777c-36.251-2.666-63.458-34.199-60.775-70.468
							c2.667-36.226,34.226-63.442,70.444-60.77c36.27,2.676,63.478,34.223,60.808,70.458
							C627.111,522.249,595.563,549.466,559.316,546.777z"/>
					</g>
				</g>
			</g>
		</g>
	</g>
	<g>
		<g opacity="0.3">
			<g>
				<g>
					<g>
						<defs>
							
								<filter id="Adobe_OpacityMaskFilter_20_" filterUnits="userSpaceOnUse" x="217.284" y="309.471" width="91.809" height="91.801">
								<feFlood  style="flood-color:white;flood-opacity:1" result="back"/>
								<feBlend  in="SourceGraphic" in2="back" mode="normal"/>
							</filter>
						</defs>
						<mask maskUnits="userSpaceOnUse" x="217.284" y="309.471" width="91.809" height="91.801" id="SVGID_31_">
							<g filter="url(#Adobe_OpacityMaskFilter_20_)">
								<defs>
									
										<filter id="Adobe_OpacityMaskFilter_21_" filterUnits="userSpaceOnUse" x="217.284" y="309.471" width="91.809" height="91.801">
										<feFlood  style="flood-color:white;flood-opacity:1" result="back"/>
										<feBlend  in="SourceGraphic" in2="back" mode="normal"/>
									</filter>
								</defs>
								<mask maskUnits="userSpaceOnUse" x="217.284" y="309.471" width="91.809" height="91.801" id="SVGID_31_">
									<g filter="url(#Adobe_OpacityMaskFilter_21_)">
									</g>
								</mask>
								<radialGradient id="SVGID_32_" cx="263.1885" cy="355.3711" r="45.9026" gradientUnits="userSpaceOnUse">
									<stop  offset="0.338" style="stop-color:#FFFFFF"/>
									<stop  offset="0.5107" style="stop-color:#FCFCFC"/>
									<stop  offset="0.6243" style="stop-color:#F3F3F3"/>
									<stop  offset="0.7208" style="stop-color:#E5E5E5"/>
									<stop  offset="0.8079" style="stop-color:#CFCFCF"/>
									<stop  offset="0.8884" style="stop-color:#B4B4B4"/>
									<stop  offset="0.9633" style="stop-color:#939393"/>
									<stop  offset="1" style="stop-color:#808080"/>
								</radialGradient>
								<path mask="url(#SVGID_31_)" fill="url(#SVGID_32_)" d="M296.228,354.624l12.542-7.348c-0.585-3.325-1.539-6.56-2.82-9.646
									l-14.518,0.578l7.188-12.636c-2.147-2.557-4.577-4.882-7.263-6.941l-12.296,7.753l-0.086-14.538
									c-1.563-0.563-3.166-1.054-4.817-1.457c-1.648-0.407-3.301-0.701-4.945-0.919l-6.771,12.863l-7.345-12.552
									c-3.33,0.593-6.563,1.547-9.644,2.829l0.564,14.522l-12.625-7.201c-2.56,2.155-4.89,4.586-6.946,7.265l7.755,12.303
									l-14.537,0.086c-0.565,1.563-1.061,3.165-1.46,4.812s-0.707,3.302-0.923,4.946l12.87,6.769l-12.549,7.35
									c0.59,3.325,1.541,6.555,2.824,9.638l14.518-0.566l-7.188,12.632c2.149,2.556,4.579,4.886,7.258,6.95l12.3-7.754
									l0.089,14.532c1.561,0.564,3.165,1.059,4.813,1.453c1.651,0.402,3.299,0.71,4.944,0.923l6.773-12.862l7.339,12.549
									c3.334-0.595,6.566-1.54,9.649-2.83l-0.57-14.512l12.632,7.186c2.558-2.149,4.887-4.578,6.944-7.255l-7.757-12.303
									l14.539-0.086c0.563-1.564,1.055-3.167,1.467-4.816c0.393-1.647,0.692-3.304,0.916-4.943L296.228,354.624z M286.203,359.676
									c-3.627,14.866-18.635,23.99-33.502,20.369c-14.886-3.631-23.998-18.639-20.37-33.516
									c3.631-14.872,18.625-23.988,33.506-20.36C280.719,329.803,289.826,344.792,286.203,359.676z"/>
							</g>
						</mask>
						<radialGradient id="SVGID_33_" cx="263.1885" cy="355.3711" r="45.9026" gradientUnits="userSpaceOnUse">
							<stop  offset="0.338" style="stop-color:#808285"/>
							<stop  offset="0.5109" style="stop-color:#838588"/>
							<stop  offset="0.6247" style="stop-color:#8C8D90"/>
							<stop  offset="0.7214" style="stop-color:#9A9C9E"/>
							<stop  offset="0.8085" style="stop-color:#B0B1B3"/>
							<stop  offset="0.8892" style="stop-color:#CBCCCD"/>
							<stop  offset="0.9642" style="stop-color:#ECEDED"/>
							<stop  offset="1" style="stop-color:#FFFFFF"/>
						</radialGradient>
						<path fill="url(#SVGID_33_)" d="M296.228,354.624l12.542-7.348c-0.585-3.325-1.539-6.56-2.82-9.646l-14.518,0.578
							l7.188-12.636c-2.147-2.557-4.577-4.882-7.263-6.941l-12.296,7.753l-0.086-14.538c-1.563-0.563-3.166-1.054-4.817-1.457
							c-1.648-0.407-3.301-0.701-4.945-0.919l-6.771,12.863l-7.345-12.552c-3.33,0.593-6.563,1.547-9.644,2.829l0.564,14.522
							l-12.625-7.201c-2.56,2.155-4.89,4.586-6.946,7.265l7.755,12.303l-14.537,0.086c-0.565,1.563-1.061,3.165-1.46,4.812
							s-0.707,3.302-0.923,4.946l12.87,6.769l-12.549,7.35c0.59,3.325,1.541,6.555,2.824,9.638l14.518-0.566l-7.188,12.632
							c2.149,2.556,4.579,4.886,7.258,6.95l12.3-7.754l0.089,14.532c1.561,0.564,3.165,1.059,4.813,1.453
							c1.651,0.402,3.299,0.71,4.944,0.923l6.773-12.862l7.339,12.549c3.334-0.595,6.566-1.54,9.649-2.83l-0.57-14.512l12.632,7.186
							c2.558-2.149,4.887-4.578,6.944-7.255l-7.757-12.303l14.539-0.086c0.563-1.564,1.055-3.167,1.467-4.816
							c0.393-1.647,0.692-3.304,0.916-4.943L296.228,354.624z M286.203,359.676c-3.627,14.866-18.635,23.99-33.502,20.369
							c-14.886-3.631-23.998-18.639-20.37-33.516c3.631-14.872,18.625-23.988,33.506-20.36
							C280.719,329.803,289.826,344.792,286.203,359.676z"/>
					</g>
				</g>
			</g>
		</g>
		<defs>
			<filter id="Adobe_OpacityMaskFilter_22_" filterUnits="userSpaceOnUse" x="231.677" y="326.97" width="53.542" height="53.548">
				<feFlood  style="flood-color:white;flood-opacity:1" result="back"/>
				<feBlend  in="SourceGraphic" in2="back" mode="normal"/>
			</filter>
		</defs>
		<mask maskUnits="userSpaceOnUse" x="231.677" y="326.97" width="53.542" height="53.548" id="SVGID_34_">
			<g filter="url(#Adobe_OpacityMaskFilter_22_)">
				<defs>
					
						<filter id="Adobe_OpacityMaskFilter_23_" filterUnits="userSpaceOnUse" x="231.677" y="326.97" width="53.542" height="53.548">
						<feFlood  style="flood-color:white;flood-opacity:1" result="back"/>
						<feBlend  in="SourceGraphic" in2="back" mode="normal"/>
					</filter>
				</defs>
				<mask maskUnits="userSpaceOnUse" x="231.677" y="326.97" width="53.542" height="53.548" id="SVGID_34_">
					<g filter="url(#Adobe_OpacityMaskFilter_23_)">
					</g>
				</mask>
				<radialGradient id="SVGID_35_" cx="258.4482" cy="353.7437" r="33.4661" gradientUnits="userSpaceOnUse">
					<stop  offset="0.5744" style="stop-color:#000000"/>
					<stop  offset="0.6025" style="stop-color:#040404"/>
					<stop  offset="0.63" style="stop-color:#101010"/>
					<stop  offset="0.6574" style="stop-color:#242424"/>
					<stop  offset="0.6847" style="stop-color:#3F3F3F"/>
					<stop  offset="0.712" style="stop-color:#636363"/>
					<stop  offset="0.7392" style="stop-color:#8F8F8F"/>
					<stop  offset="0.7658" style="stop-color:#C2C2C2"/>
					<stop  offset="0.788" style="stop-color:#F2F2F2"/>
				</radialGradient>
				<path mask="url(#SVGID_34_)" fill="url(#SVGID_35_)" d="M231.677,353.742c0-14.783,11.989-26.772,26.771-26.772
					c14.788,0,26.77,11.99,26.77,26.772c0,14.786-11.982,26.775-26.77,26.775C243.666,380.518,231.677,368.528,231.677,353.742z"/>
			</g>
		</mask>
		<radialGradient id="SVGID_36_" cx="258.4482" cy="353.7437" r="33.4661" gradientUnits="userSpaceOnUse">
			<stop  offset="0.5744" style="stop-color:#FFFFFF"/>
			<stop  offset="0.6024" style="stop-color:#FBFBFB"/>
			<stop  offset="0.63" style="stop-color:#F0EFEF"/>
			<stop  offset="0.6573" style="stop-color:#DCDBDC"/>
			<stop  offset="0.6846" style="stop-color:#C1C0C0"/>
			<stop  offset="0.7118" style="stop-color:#9F9C9D"/>
			<stop  offset="0.7389" style="stop-color:#747071"/>
			<stop  offset="0.7655" style="stop-color:#433D3F"/>
			<stop  offset="0.788" style="stop-color:#130C0E"/>
		</radialGradient>
		<path opacity="0.8" fill="url(#SVGID_36_)" d="M231.677,353.742c0-14.783,11.989-26.772,26.771-26.772
			c14.788,0,26.77,11.99,26.77,26.772c0,14.786-11.982,26.775-26.77,26.775C243.666,380.518,231.677,368.528,231.677,353.742z"/>
		<g>
			<g>
				<g>
					<g>
						<path fill="#008FD5" d="M292.792,352.334l12.542-7.348c-0.585-3.325-1.539-6.56-2.82-9.646l-14.518,0.577l7.189-12.636
							c-2.147-2.556-4.577-4.883-7.262-6.94l-12.297,7.752l-0.086-14.537c-1.563-0.563-3.165-1.053-4.816-1.458
							c-1.649-0.407-3.302-0.701-4.945-0.92l-6.771,12.864l-7.345-12.551c-3.331,0.593-6.563,1.547-9.644,2.828l0.564,14.522
							l-12.625-7.2c-2.56,2.155-4.89,4.586-6.946,7.266l7.756,12.303l-14.537,0.086c-0.565,1.563-1.06,3.165-1.46,4.813
							c-0.398,1.647-0.706,3.302-0.921,4.945l12.868,6.77l-12.549,7.347c0.591,3.326,1.542,6.558,2.824,9.64l14.519-0.566
							l-7.188,12.63c2.148,2.558,4.579,4.887,7.258,6.951l12.299-7.755l0.089,14.533c1.562,0.564,3.165,1.058,4.813,1.454
							c1.652,0.402,3.298,0.708,4.944,0.922l6.773-12.862l7.339,12.549c3.335-0.595,6.566-1.541,9.649-2.829l-0.57-14.513
							l12.633,7.187c2.558-2.15,4.887-4.578,6.944-7.255l-7.757-12.305l14.541-0.087c0.561-1.563,1.053-3.166,1.465-4.815
							c0.393-1.647,0.693-3.304,0.916-4.943L292.792,352.334z M282.85,359.593c-3.249,13.317-16.691,21.487-30.008,18.246
							c-13.333-3.254-21.494-16.695-18.245-30.021c3.253-13.321,16.685-21.484,30.011-18.238
							C277.939,332.835,286.095,346.262,282.85,359.593z"/>
					</g>
				</g>
			</g>
		</g>
	</g>
	<g>
		<path fill="#004A7A" d="M101.223,266.739v18.669c0,1.412,1.18,2.558,2.636,2.558h37.279c1.458,0,2.638-1.146,2.638-2.558v-18.649
			l-21.281,11.438L101.223,266.739z"/>
		<path fill="#004A7A" d="M141.138,261.463h-37.279c-1.456,0-2.636,1.181-2.636,2.64v0.442L122.5,275.07l21.276-10.525v-0.442
			C143.776,262.645,142.595,261.463,141.138,261.463z"/>
	</g>
	<g>
		<path fill="#A6B2DB" d="M346.967,598.234h-29.064c-1.16,0-2.112,0.949-2.112,2.11v19.127c0,1.161,0.952,2.112,2.112,2.112h12.581
			l8.248,6.957l-2.481-6.957h10.717c1.162,0,2.114-0.951,2.114-2.112v-19.127C349.081,599.184,348.129,598.234,346.967,598.234z"/>
		<path fill="#A6B2DB" d="M313.382,621.493v-10.717h-11.811c-0.933,0-1.7,0.763-1.7,1.695v15.403c0,0.935,0.767,1.699,1.7,1.699
			h8.631l-1.998,5.605l6.642-5.605h10.128c0.936,0,1.701-0.765,1.701-1.699v-4.27h-11.181
			C314.333,623.605,313.382,622.653,313.382,621.493z"/>
	</g>
	<g>
		<rect x="740.186" y="33.595" fill="#8BBCE5" width="6.085" height="30.861"/>
		<rect x="732.867" y="38.401" fill="#8BBCE5" width="6.082" height="26.054"/>
		<rect x="725.547" y="45.002" fill="#8BBCE5" width="6.083" height="19.453"/>
		<rect x="718.227" y="51.799" fill="#8BBCE5" width="6.082" height="12.656"/>
		<rect x="710.907" y="57.484" fill="#8BBCE5" width="6.08" height="6.972"/>
	</g>
	<g>
		<path fill="#688FB5" d="M1058.448,232.569H1012.5c-0.944,0-1.709,0.713-1.709,1.591v32.028c0,0.88,0.765,1.594,1.709,1.594h45.948
			c0.946,0,1.712-0.714,1.712-1.594V234.16C1060.16,233.282,1059.395,232.569,1058.448,232.569z M1056.211,263.213
			c0,0.716-0.645,1.295-1.438,1.295h-38.599c-0.794,0-1.435-0.58-1.435-1.295v-26.077c0-0.717,0.641-1.296,1.435-1.296h38.599
			c0.793,0,1.438,0.58,1.438,1.296V263.213z"/>
		<path fill="#688FB5" d="M1007.541,269.092v1.62c0,0.889,0.869,1.609,1.936,1.609h51.994c1.074,0,1.938-0.72,1.938-1.609v-1.62
			H1007.541z M1039.32,270.969h-7.693c-0.285,0-0.521-0.185-0.521-0.416c0-0.229,0.235-0.416,0.521-0.416h7.693
			c0.291,0,0.523,0.188,0.523,0.416C1039.844,270.784,1039.611,270.969,1039.32,270.969z"/>
	</g>
	<path fill="#004A7A" d="M55.914,280.865v-14.134c0-4.859,3.975-8.834,8.834-8.834c4.858,0,8.833,3.975,8.833,8.834v14.134
		c0,4.858-3.975,8.834-8.833,8.834C59.889,289.699,55.914,285.724,55.914,280.865z M69.916,280.865v-14.134
		c0-2.871-2.297-5.168-5.167-5.168c-2.872,0-5.169,2.297-5.169,5.168v14.134c0,2.872,2.297,5.168,5.169,5.168
		C67.619,286.034,69.916,283.737,69.916,280.865z"/>
	<path fill="#004A7A" d="M88.469,280.07H76.235v-3.886l11.572-17.844h4.329v18.065h3.533v3.665h-3.533v9.188h-3.667V280.07z
		 M88.469,276.405v-12.588l-8.26,12.588H88.469z"/>
	<g>
		<path fill="#A6B2DB" d="M254.548,627.812v-14.135c0-4.856,3.975-8.834,8.834-8.834c4.858,0,8.833,3.978,8.833,8.834v14.135
			c0,4.859-3.976,8.834-8.833,8.834C258.523,636.646,254.548,632.671,254.548,627.812z M268.55,627.812v-14.135
			c0-2.871-2.296-5.167-5.167-5.167c-2.871,0-5.167,2.296-5.167,5.167v14.135c0,2.871,2.296,5.168,5.167,5.168
			C266.253,632.979,268.55,630.683,268.55,627.812z"/>
		<path fill="#A6B2DB" d="M278.977,627.371v0.53c0,2.781,2.208,5.078,5.036,5.078c2.782,0,5.079-2.429,5.079-5.256
			c0-2.694-2.165-5.124-5.079-5.124h-3.269v-3.666h3.269c2.915,0,5.079-2.385,5.079-5.167c0-2.826-2.297-5.257-5.079-5.257
			c-2.827,0-5.036,2.296-5.036,5.08v0.529h-3.667v-0.529c0-4.815,3.887-8.747,8.702-8.747c4.813,0,8.746,4.108,8.746,8.924
			c0,2.827-1.502,5.3-3.844,6.978c2.341,1.679,3.844,4.152,3.844,6.979c0,4.813-3.932,8.922-8.746,8.922
			c-4.815,0-8.702-3.931-8.702-8.744v-0.53H278.977z"/>
	</g>
	<g>
		<path fill="#8BBCE5" d="M673.844,56.468V42.356c0-4.851,3.97-8.82,8.82-8.82c4.852,0,8.821,3.969,8.821,8.82v14.112
			c0,4.851-3.97,8.82-8.821,8.82C677.813,65.289,673.844,61.319,673.844,56.468z M687.824,56.468V42.356
			c0-2.866-2.293-5.159-5.16-5.159s-5.158,2.293-5.158,5.159v14.112c0,2.867,2.291,5.16,5.158,5.16S687.824,59.335,687.824,56.468z"
			/>
		<path fill="#8BBCE5" d="M698.984,38.079l-5.293,2.69v-3.263l5.293-3.528h3.66v30.87h-3.66V38.079z"/>
	</g>
	<g>
		<path fill="#688FB5" d="M961.658,263.982v-14.135c0-4.858,3.977-8.833,8.833-8.833c4.858,0,8.835,3.974,8.835,8.833v14.135
			c0,4.858-3.977,8.833-8.835,8.833C965.635,272.815,961.658,268.84,961.658,263.982z M975.661,263.982v-14.135
			c0-2.871-2.298-5.167-5.17-5.167c-2.87,0-5.168,2.296-5.168,5.167v14.135c0,2.87,2.298,5.167,5.168,5.167
			C973.363,269.149,975.661,266.852,975.661,263.982z"/>
		<path fill="#688FB5" d="M982.421,266.367c0-10.027,14-9.452,14-16.52c0-2.871-2.298-5.167-5.168-5.167
			c-2.868,0-5.165,2.296-5.165,5.167v0.442h-3.667v-0.442c0-4.858,3.974-8.833,8.832-8.833s8.835,3.974,8.835,8.833
			c0,9.718-14,9.409-14,16.52v2.341h13.559v3.666h-17.226V266.367z"/>
	</g>
	<g>
		<polygon fill="#A7A9AC" points="255.025,460.642 29.601,460.642 29.601,281.895 30.712,281.895 30.712,459.53 255.025,459.53 		
			"/>
	</g>
	<g>
		<polygon fill="#A7A9AC" points="559.73,617.35 405.383,617.345 405.383,616.232 559.771,616.242 		"/>
	</g>
	<g>
		<polygon fill="#A7A9AC" points="1095.156,430.239 940.748,430.239 940.748,429.177 1094.098,429.177 1094.098,269.671 
			1095.156,269.671 		"/>
	</g>
	<g>
		<polygon fill="#A7A9AC" points="467.856,88.515 466.746,88.515 466.746,46.836 625.785,46.836 625.785,47.948 467.856,47.948 		
			"/>
	</g>
	<path fill="#FFFFFF" d="M645.122,56.285c-4.698,0-8.519-3.822-8.519-8.52c0-4.7,3.82-8.523,8.519-8.523s8.521,3.823,8.521,8.523
		C653.643,52.462,649.82,56.285,645.122,56.285z"/>
	<path fill="#8BBCE5" d="M645.122,37.019c-5.935,0-10.742,4.811-10.742,10.746c0,5.934,4.808,10.742,10.742,10.742
		s10.743-4.808,10.743-10.742C655.865,41.83,651.057,37.019,645.122,37.019z M645.122,54.061c-3.474,0-6.296-2.824-6.296-6.296
		c0-3.474,2.822-6.299,6.296-6.299c3.472,0,6.298,2.826,6.298,6.299C651.42,51.237,648.594,54.061,645.122,54.061z"/>
	<path fill="#FFFFFF" d="M30.897,273.003c-4.698,0-8.521-3.821-8.521-8.517c0-4.703,3.823-8.524,8.521-8.524
		c4.697,0,8.52,3.821,8.52,8.519C39.417,269.182,35.594,273.003,30.897,273.003z"/>
	<path fill="#004A7A" d="M30.897,253.741c-5.933,0-10.743,4.811-10.743,10.741v0.005c0,5.933,4.811,10.74,10.743,10.74
		c5.935,0,10.741-4.807,10.741-10.74v-0.005C41.638,258.551,36.832,253.741,30.897,253.741z M30.897,270.78
		c-3.473,0-6.297-2.822-6.297-6.299c0-3.471,2.825-6.295,6.297-6.295c3.471,0,6.296,2.824,6.296,6.3
		C37.193,267.958,34.368,270.78,30.897,270.78z"/>
	<path fill="#FFFFFF" d="M1094.26,258.928c-4.698,0-8.521-3.823-8.521-8.519c0-4.702,3.823-8.523,8.521-8.523
		c4.697,0,8.518,3.821,8.518,8.519C1102.777,255.105,1098.957,258.928,1094.26,258.928z"/>
	<path fill="#688FB5" d="M1094.26,239.662c-5.936,0-10.744,4.809-10.744,10.743v0.004c0,5.935,4.809,10.74,10.744,10.74
		c5.935,0,10.74-4.806,10.74-10.74v-0.004C1105,244.471,1100.194,239.662,1094.26,239.662z M1094.26,256.704
		c-3.473,0-6.298-2.824-6.298-6.299c0-3.473,2.825-6.296,6.298-6.296c3.471,0,6.295,2.823,6.295,6.3
		C1100.555,253.88,1097.73,256.704,1094.26,256.704z"/>
	<path fill="#FFFFFF" d="M385.448,625.293c-4.698,0-8.521-3.821-8.521-8.521c0-4.697,3.823-8.52,8.521-8.52
		c4.698,0,8.52,3.822,8.52,8.52C393.968,621.472,390.146,625.293,385.448,625.293z"/>
	<path fill="#A6B2DB" d="M385.448,606.027c-5.931,0-10.743,4.813-10.743,10.744c0,5.937,4.813,10.744,10.743,10.744
		c5.936,0,10.743-4.808,10.743-10.744C396.191,610.84,391.384,606.027,385.448,606.027z M385.448,623.07
		c-3.472,0-6.298-2.824-6.298-6.299c0-3.473,2.826-6.297,6.298-6.297c3.473,0,6.297,2.824,6.297,6.297
		C391.745,620.246,388.92,623.07,385.448,623.07z"/>
</g>
</svg>
