<?xml version="1.0" encoding="utf-8"?>
<!-- Generator: Adobe Illustrator 16.0.0, SVG Export Plug-In . SVG Version: 6.00 Build 0)  -->
<!DOCTYPE svg PUBLIC "-//W3C//DTD SVG 1.1//EN" "http://www.w3.org/Graphics/SVG/1.1/DTD/svg11.dtd">
<svg version="1.1" id="Layer_1" xmlns="http://www.w3.org/2000/svg" xmlns:xlink="http://www.w3.org/1999/xlink" x="0px" y="0px"
	 width="200px" height="195.175px" viewBox="0 0 200 195.175" enable-background="new 0 0 200 195.175" xml:space="preserve">
<path fill="#C5E0E3" d="M82.882,146.573c0,0-49.749,12.734-52.482-81.631C71.591,80.076,107.736,121.53,82.882,146.573z"/>
<path fill="#FFFFFF" d="M55.925,130.599c7.141,4.682,14.869,8.328,22.943,11.061c-2.87-5.186-5.821-10.326-8.825-15.441
	c-12.693-6.287-24.86-14.176-35.17-23.961c-0.108-0.453-0.214-0.917-0.319-1.378c10.149,9.832,22.17,17.763,34.761,24.104
	c-4.364-7.387-8.85-14.696-13.419-21.961c-8.757-5-16.85-11.421-24.11-18.479c-0.044-0.396-0.089-0.804-0.131-1.206
	c7.028,6.914,14.867,13.235,23.333,18.239c-7.683-12.176-15.588-24.214-23.517-36.231c0.417,0.158,0.833,0.318,1.248,0.481
	c7.667,11.627,15.305,23.279,22.743,35.058c-1.554-8.826-2.711-17.767-5.165-26.388c0.323,0.198,0.648,0.39,0.972,0.586
	c2.475,9.018,3.609,18.36,5.294,27.551c4.52,7.189,8.962,14.428,13.283,21.732c-0.868-13.697-1.677-27.224-5.861-40.347
	c0.364,0.293,0.724,0.59,1.083,0.887c4.045,13.317,4.761,27.055,5.649,40.954c3.004,5.1,5.947,10.229,8.812,15.408
	c1.496-6.953,1.77-14.248,1.941-21.318c0.153-6.119,0.177-12.389-0.515-18.523c0.313,0.424,0.619,0.851,0.921,1.279
	c0.542,5.701,0.494,11.502,0.373,17.182c-0.164,7.443-0.456,15.148-2.142,22.428c0.793,1.449,1.585,2.9,2.371,4.35
	c-0.202,0.039-0.469,0.088-0.802,0.146c-0.749-1.381-1.496-2.766-2.256-4.143c-8.118-2.674-15.814-6.279-23.033-10.852
	c-5.375-3.41-10.417-7.309-15.323-11.371c-0.251-0.533-0.491-1.072-0.737-1.627C45.334,122.999,50.47,127.022,55.925,130.599z"/>
<path fill="#B5B6B7" d="M73.746,160.636c0,0,10.363-37.771-61.572-41.096C23.175,151.153,54.319,179.269,73.746,160.636z"/>
<path fill="#C4E7EC" d="M61.914,139.872c3.479,5.506,6.156,11.443,8.136,17.643c-3.918-2.26-7.803-4.576-11.661-6.938
	c-4.628-9.764-10.487-19.145-17.816-27.135c-0.343-0.092-0.694-0.174-1.043-0.264c7.363,7.873,13.253,17.145,17.93,26.826
	c-5.578-3.418-11.098-6.941-16.575-10.521c-3.701-6.74-8.491-12.996-13.778-18.625c-0.304-0.043-0.612-0.08-0.917-0.119
	c5.178,5.451,9.899,11.51,13.605,18.035c-9.186-6.02-18.268-12.207-27.324-18.408c0.113,0.318,0.23,0.639,0.35,0.955
	c8.766,6,17.555,11.98,26.44,17.809c-6.712-1.303-13.515-2.305-20.059-4.289c0.144,0.25,0.29,0.5,0.435,0.75
	c6.843,2.008,13.956,2.992,20.941,4.398c5.426,3.541,10.885,7.025,16.405,10.416c-10.437-0.84-20.743-1.637-30.696-4.998
	c0.218,0.281,0.438,0.559,0.66,0.832c10.105,3.266,20.572,3.992,31.161,4.852c3.852,2.354,7.727,4.668,11.637,6.922
	c-5.322,1.047-10.891,1.162-16.287,1.201c-4.666,0.035-9.45-0.025-14.118-0.637c0.32,0.244,0.643,0.482,0.964,0.719
	c4.343,0.488,8.765,0.531,13.098,0.508c5.681-0.023,11.56-0.148,17.135-1.342c1.092,0.629,2.19,1.248,3.285,1.867
	c0.035-0.152,0.074-0.352,0.122-0.609c-1.046-0.588-2.088-1.176-3.128-1.773c-1.935-6.225-4.583-12.146-7.977-17.711
	c-2.53-4.145-5.438-8.039-8.471-11.836c-0.4-0.193-0.81-0.387-1.229-0.582C56.255,131.692,59.255,135.663,61.914,139.872z"/>
<path fill="#C5E0E3" d="M121.659,142.763c0,0,45.256,24.271,70.496-66.699C148.537,80.898,103.522,112.497,121.659,142.763z"/>
<path fill="#FFFFFF" d="M151.655,133.702c-8.053,2.838-16.428,4.527-24.923,5.25c4.029-4.35,8.125-8.635,12.265-12.883
	c13.828-3.064,27.532-7.814,39.882-14.846c0.215-0.414,0.429-0.838,0.641-1.26c-12.207,7.115-25.777,11.941-39.52,15.082
	c6.004-6.125,12.11-12.15,18.284-18.111c9.7-2.759,19.093-7.055,27.833-12.17c0.137-0.374,0.279-0.761,0.415-1.141
	c-8.479,5.031-17.602,9.295-27.021,12.124c10.375-9.982,20.932-19.779,31.505-29.548c-0.441,0.054-0.884,0.111-1.328,0.168
	c-10.225,9.454-20.43,18.939-30.471,28.597c3.62-8.198,6.886-16.602,11.329-24.386c-0.359,0.114-0.723,0.223-1.085,0.337
	c-4.558,8.164-7.896,16.962-11.733,25.483c-6.106,5.898-12.153,11.859-18.097,17.92c4.12-13.09,8.145-26.03,15.347-37.771
	c-0.424,0.199-0.844,0.401-1.263,0.603c-7.116,11.961-11.098,25.127-15.287,38.412c-4.137,4.23-8.223,8.508-12.243,12.852
	c0.212-7.109,1.689-14.258,3.217-21.166c1.316-5.979,2.794-12.07,4.935-17.861c-0.406,0.338-0.804,0.68-1.2,1.022
	c-1.891,5.403-3.234,11.052-4.476,16.593c-1.623,7.268-3.181,14.816-3.288,22.291c-1.118,1.215-2.231,2.436-3.341,3.654
	c0.186,0.086,0.433,0.199,0.743,0.332c1.056-1.162,2.113-2.326,3.181-3.482c8.521-0.65,16.858-2.309,24.963-5.021
	c6.033-2.027,11.863-4.602,17.597-7.373c0.371-0.457,0.734-0.926,1.105-1.402C163.76,128.856,157.809,131.536,151.655,133.702z"/>
<path fill="#B5B6B7" d="M131.257,166.083c0,0-12.848-37.004,58.709-45.094C181.087,153.263,151.879,183.384,131.257,166.083z"/>
<path fill="#C4E7EC" d="M141.685,144.577c-3.104,5.725-5.383,11.826-6.948,18.143c3.762-2.514,7.482-5.086,11.176-7.697
	c3.971-10.045,9.193-19.797,15.977-28.254c0.335-0.113,0.681-0.223,1.022-0.332c-6.823,8.34-12.086,17.984-16.108,27.957
	c5.337-3.785,10.611-7.662,15.841-11.6c3.243-6.971,7.608-13.533,12.511-19.502c0.299-0.063,0.604-0.117,0.908-0.176
	c-4.806,5.781-9.116,12.141-12.377,18.896c8.766-6.617,17.412-13.393,26.039-20.182c-0.092,0.328-0.186,0.652-0.284,0.977
	c-8.35,6.57-16.722,13.119-25.201,19.523c6.611-1.744,13.334-3.195,19.731-5.611c-0.128,0.262-0.257,0.521-0.385,0.781
	c-6.695,2.453-13.727,3.908-20.604,5.777c-5.176,3.895-10.395,7.729-15.678,11.479c10.359-1.527,20.591-3.008,30.298-7.021
	c-0.199,0.295-0.399,0.586-0.603,0.877c-9.868,3.926-20.265,5.344-30.769,6.906c-3.689,2.604-7.403,5.17-11.155,7.678
	c5.381,0.689,10.943,0.436,16.329,0.117c4.66-0.275,9.433-0.652,14.048-1.572c-0.303,0.266-0.609,0.523-0.917,0.781
	c-4.297,0.775-8.707,1.109-13.032,1.377c-5.67,0.354-11.544,0.621-17.187-0.201c-1.05,0.697-2.103,1.391-3.154,2.08
	c-0.047-0.15-0.098-0.348-0.16-0.602c1.002-0.652,2.004-1.311,3.002-1.975c1.518-6.34,3.768-12.422,6.785-18.201
	c2.247-4.303,4.891-8.383,7.664-12.371c0.387-0.221,0.784-0.443,1.19-0.664C146.789,136.04,144.058,140.2,141.685,144.577z"/>
<path fill="#B5B6B7" d="M104.138,134.288c0,0,62.992-3.613,31.052-115.121C92.596,52.225,65.711,114.22,104.138,134.288z"/>
<path fill="#C4E7EC" d="M129.75,105.545c-6.615,8.144-14.546,15.704-22.98,21.913c1.429-7.145,3.198-14.969,4.813-22.077
	c12.52-12.086,23.838-25.562,32.266-40.858c-0.042-0.571-0.045-0.576-0.092-1.154c-8.225,15.291-19.722,29.08-32.103,41.192
	c2.359-10.271,5.178-21.408,7.823-31.615c8.39-9.116,15.517-19.344,21.39-30.313c-0.094-0.479-0.094-0.488-0.194-0.975
	c-5.656,10.713-12.893,21.104-20.941,30.113c4.462-17.117,10.651-35.583,15.459-52.604c-0.429,0.34-0.388,0.293-0.816,0.638
	c-4.646,16.467-10.846,34.825-15.167,51.387c-1.466-10.912-3.723-22.068-4.06-33.077c-0.304,0.35-0.311,0.346-0.616,0.698
	c0.462,11.479,2.804,22.646,4.252,34.033c-2.616,10.102-5.266,21.211-7.6,31.373c-4.085-16.36-8.542-32.808-8.529-49.729
	c-0.316,0.478-0.313,0.481-0.618,0.962c0.222,17.1,4.634,33.295,8.77,49.9c-1.618,7.09-3.31,14.652-4.733,21.783
	c-4.342-7.584-7.359-16.331-10.193-24.547c-2.456-7.107-5.051-13.765-6.526-21.205c-0.21,0.614-0.174,0.553-0.37,1.168
	c1.488,6.876,3.705,13.651,5.961,20.254c2.964,8.655,6.33,17.659,11.015,25.558c-0.391,1.988-0.929,3.893-1.311,5.881
	c0.253-0.029,0.583-0.068,0.996-0.127c0.359-1.896,0.561-3.748,0.938-5.643c8.508-6.15,16.338-13.287,23.088-21.332
	c5.021-5.994,9.475-12.436,13.706-19.018c0.094-0.718,0.092-0.703,0.175-1.441C139.241,93.44,134.806,99.327,129.75,105.545z"/>
<path fill="#6990B5" d="M154.381,135.681H52.762h-1.283c0,0-0.792,0.34-0.792,1.924c0,1.775,0.792,2,0.792,2h1.283h43.376v10.787
	H52.762h-1.283c0,0-0.792,0.34-0.792,1.924c0,1.773,0.792,2,0.792,2h1.283h101.619c0,0,4.979-1.547,4.979-9.318
	C159.36,137.604,154.381,135.681,154.381,135.681z"/>
<path fill="#FFFFFF" d="M123.826,150.392H54.345v-10.787h69.481c0,0,3.168,0.828,3.168,5.393
	C126.994,149.655,123.826,150.392,123.826,150.392z"/>
<rect x="54.345" y="142.019" fill="#D2D2D2" width="52.659" height="1.055"/>
<rect x="54.345" y="147.149" fill="#D2D2D2" width="50.093" height="1.205"/>
<path fill="#C5E0E3" d="M159.36,144.997c0-7.393-4.979-9.316-4.979-9.316h-27.765c0,0,4.98,1.924,4.98,9.316
	c0,7.771-4.98,9.318-4.98,9.318h27.765C154.381,154.315,159.36,152.769,159.36,144.997z"/>
<path fill="#A6B2DB" d="M48.199,117.046h101.62h1.281c0,0,0.792,0.342,0.792,1.924c0,1.773-0.792,2-0.792,2h-1.281h-43.379v10.787
	h43.379h1.281c0,0,0.792,0.342,0.792,1.924c0,1.775-0.792,2-0.792,2h-1.281H48.199c0,0-4.98-1.547-4.98-9.316
	C43.218,118.97,48.199,117.046,48.199,117.046z"/>
<path fill="#FFFFFF" d="M78.753,131.757h69.48V120.97h-69.48c0,0-3.168,0.83-3.168,5.395
	C75.584,131.022,78.753,131.757,78.753,131.757z"/>
<rect x="95.576" y="123.382" fill="#D2D2D2" width="52.657" height="1.059"/>
<rect x="98.141" y="128.513" fill="#D2D2D2" width="50.093" height="1.209"/>
<path fill="#8BBCE5" d="M43.218,126.364c0-7.395,4.98-9.318,4.98-9.318h27.763c0,0-4.98,1.924-4.98,9.318
	c0,7.77,4.98,9.316,4.98,9.316H48.199C48.199,135.681,43.218,134.134,43.218,126.364z"/>
<path fill="#48617F" d="M154.381,98.411H52.762h-1.283c0,0-0.792,0.34-0.792,1.924c0,1.773,0.792,2,0.792,2h1.283h43.376v10.789
	H52.762h-1.283c0,0-0.792,0.34-0.792,1.924c0,1.771,0.792,1.998,0.792,1.998h1.283h101.619c0,0,4.979-1.547,4.979-9.318
	C159.36,100.335,154.381,98.411,154.381,98.411z"/>
<path fill="#FFFFFF" d="M123.826,113.124H54.345v-10.789h69.481c0,0,3.168,0.828,3.168,5.393
	C126.994,112.388,123.826,113.124,123.826,113.124z"/>
<rect x="54.345" y="104.748" fill="#D2D2D2" width="52.659" height="1.058"/>
<rect x="54.345" y="109.878" fill="#D2D2D2" width="50.093" height="1.208"/>
<path fill="#4E6987" d="M159.36,107.728c0-7.393-4.979-9.316-4.979-9.316h-27.765c0,0,4.98,1.924,4.98,9.316
	c0,7.771-4.98,9.318-4.98,9.318h27.765C154.381,117.046,159.36,115.499,159.36,107.728z"/>
<g>
	
		<rect x="76.866" y="18.53" transform="matrix(0.9523 -0.3052 0.3052 0.9523 -13.6982 27.5886)" fill="#2172B0" width="9.054" height="78.156"/>
	
		<rect x="66.02" y="24.027" transform="matrix(0.9523 -0.3052 0.3052 0.9523 -4.1847 21.7364)" fill="#29255C" width="2.829" height="0.453"/>
	
		<rect x="65.506" y="22.425" transform="matrix(0.9523 -0.3053 0.3053 0.9523 -3.7203 21.5112)" fill="#29255C" width="2.829" height="0.452"/>
	
		<rect x="66.555" y="25.698" transform="matrix(0.9522 -0.3053 0.3053 0.9522 -4.6698 21.9915)" fill="#29255C" width="2.829" height="0.452"/>
	
		<rect x="67.08" y="27.332" transform="matrix(0.9522 -0.3055 0.3055 0.9522 -5.1447 22.2461)" fill="#29255C" width="2.83" height="0.453"/>
	
		<rect x="67.579" y="28.79" transform="matrix(0.9523 -0.3051 0.3051 0.9523 -5.5331 22.6275)" fill="#29255C" width="4.102" height="0.453"/>
	
		<rect x="68.692" y="32.366" transform="matrix(0.9523 -0.3052 0.3052 0.9523 -6.6025 22.955)" fill="#29255C" width="2.831" height="0.452"/>
	
		<rect x="68.179" y="30.763" transform="matrix(0.9523 -0.3052 0.3052 0.9523 -6.1373 22.7173)" fill="#29255C" width="2.83" height="0.452"/>
	
		<rect x="69.228" y="34.036" transform="matrix(0.9522 -0.3054 0.3054 0.9522 -7.0892 23.2138)" fill="#29255C" width="2.828" height="0.454"/>
	
		<rect x="69.752" y="35.67" transform="matrix(0.9523 -0.3052 0.3052 0.9523 -7.5599 23.4307)" fill="#29255C" width="2.829" height="0.453"/>
	
		<rect x="70.251" y="37.129" transform="matrix(0.9523 -0.3052 0.3052 0.9523 -7.9512 23.8489)" fill="#29255C" width="4.1" height="0.452"/>
	
		<rect x="71.341" y="40.628" transform="matrix(0.9523 -0.3053 0.3053 0.9523 -8.9988 24.1613)" fill="#29255C" width="2.829" height="0.453"/>
	
		<rect x="70.827" y="39.025" transform="matrix(0.9522 -0.3053 0.3053 0.9522 -8.5349 23.9321)" fill="#29255C" width="2.829" height="0.453"/>
	
		<rect x="71.876" y="42.298" transform="matrix(0.9523 -0.3052 0.3052 0.9523 -9.4812 24.3959)" fill="#29255C" width="2.83" height="0.453"/>
	
		<rect x="72.4" y="43.933" transform="matrix(0.9523 -0.3052 0.3052 0.9523 -9.9551 24.6338)" fill="#29255C" width="2.83" height="0.452"/>
	
		<rect x="72.9" y="45.39" transform="matrix(0.9522 -0.3054 0.3054 0.9522 -10.3494 25.0649)" fill="#29255C" width="4.102" height="0.453"/>
	
		<rect x="74.013" y="48.965" transform="matrix(0.9522 -0.3053 0.3053 0.9522 -11.4178 25.3797)" fill="#29255C" width="2.829" height="0.453"/>
	
		<rect x="73.499" y="47.362" transform="matrix(0.9522 -0.3053 0.3053 0.9522 -10.9531 25.1463)" fill="#29255C" width="2.829" height="0.453"/>
	
		<rect x="74.548" y="50.635" transform="matrix(0.9522 -0.3053 0.3053 0.9522 -11.9023 25.6229)" fill="#29255C" width="2.829" height="0.453"/>
	
		<rect x="75.073" y="52.27" transform="matrix(0.9523 -0.3051 0.3051 0.9523 -12.3704 25.8418)" fill="#29255C" width="2.829" height="0.452"/>
	
		<rect x="75.572" y="53.729" transform="matrix(0.9523 -0.3052 0.3052 0.9523 -12.7628 26.2622)" fill="#29255C" width="4.102" height="0.452"/>
	
		<rect x="76.64" y="57.161" transform="matrix(0.9523 -0.3051 0.3051 0.9523 -13.7881 26.5532)" fill="#29255C" width="2.829" height="0.453"/>
	
		<rect x="76.126" y="55.557" transform="matrix(0.9522 -0.3053 0.3053 0.9522 -13.3298 26.3397)" fill="#29255C" width="2.829" height="0.454"/>
	
		<rect x="77.175" y="58.831" transform="matrix(0.9522 -0.3054 0.3054 0.9522 -14.2827 26.8268)" fill="#29255C" width="2.83" height="0.453"/>
	
		<rect x="77.699" y="60.466" transform="matrix(0.9523 -0.3052 0.3052 0.9523 -14.7478 27.0397)" fill="#29255C" width="2.83" height="0.452"/>
	
		<rect x="78.199" y="61.924" transform="matrix(0.9523 -0.3052 0.3052 0.9523 -15.1409 27.4616)" fill="#29255C" width="4.102" height="0.452"/>
	
		<rect x="79.313" y="65.499" transform="matrix(0.9522 -0.3055 0.3055 0.9522 -16.2194 27.8042)" fill="#29255C" width="2.831" height="0.452"/>
	
		<rect x="78.799" y="63.896" transform="matrix(0.9522 -0.3054 0.3054 0.9522 -15.7522 27.5648)" fill="#29255C" width="2.83" height="0.452"/>
	
		<rect x="79.849" y="67.17" transform="matrix(0.9523 -0.3051 0.3051 0.9523 -16.689 28.0096)" fill="#29255C" width="2.829" height="0.452"/>
	
		<rect x="80.372" y="68.804" transform="matrix(0.9523 -0.3052 0.3052 0.9523 -17.1648 28.2522)" fill="#29255C" width="2.829" height="0.453"/>
	
		<rect x="80.871" y="70.263" transform="matrix(0.9523 -0.3051 0.3051 0.9523 -17.5541 28.6645)" fill="#29255C" width="4.103" height="0.452"/>
	
		<rect x="81.961" y="73.761" transform="matrix(0.9523 -0.305 0.305 0.9523 -18.5945 28.9569)" fill="#29255C" width="2.829" height="0.452"/>
	
		<rect x="81.448" y="72.159" transform="matrix(0.9524 -0.305 0.305 0.9524 -18.1278 28.7187)" fill="#29255C" width="2.829" height="0.452"/>
	
		<rect x="82.496" y="75.431" transform="matrix(0.9522 -0.3053 0.3053 0.9522 -19.0938 29.2338)" fill="#29255C" width="2.829" height="0.453"/>
	
		<rect x="83.02" y="77.065" transform="matrix(0.9522 -0.3054 0.3054 0.9522 -19.5727 29.4826)" fill="#29255C" width="2.828" height="0.454"/>
	
		<rect x="83.52" y="78.524" transform="matrix(0.9523 -0.3051 0.3051 0.9523 -19.9487 29.8668)" fill="#29255C" width="4.103" height="0.453"/>
	
		<rect x="84.634" y="82.1" transform="matrix(0.9524 -0.3048 0.3048 0.9524 -20.9997 30.1474)" fill="#29255C" width="2.831" height="0.453"/>
	
		<rect x="84.12" y="80.497" transform="matrix(0.9523 -0.3051 0.3051 0.9523 -20.5487 29.9419)" fill="#29255C" width="2.828" height="0.452"/>
	
		<rect x="85.168" y="83.77" transform="matrix(0.9522 -0.3055 0.3055 0.9522 -21.5241 30.472)" fill="#29255C" width="2.83" height="0.453"/>
	
		<rect x="85.693" y="85.402" transform="matrix(0.9523 -0.305 0.305 0.9523 -21.9675 30.65)" fill="#29255C" width="2.829" height="0.454"/>
	
		<rect x="86.192" y="86.863" transform="matrix(0.9522 -0.3054 0.3054 0.9522 -22.3805 31.1097)" fill="#29255C" width="4.104" height="0.451"/>
	
		<rect x="84.377" y="18.652" transform="matrix(-0.9523 0.3051 -0.3051 -0.9523 182.4304 84.7551)" fill="#29255C" width="0.434" height="75.957"/>
</g>
<rect x="90.267" y="17.172" fill="#747373" width="7.365" height="52.474"/>
<polygon fill="#FFFFFF" points="97.632,17.172 93.949,7.779 90.267,17.172 "/>
<path fill="#29255C" d="M93.074,10.01l0.875-2.23l0.874,2.23C94.823,10.01,94.177,10.712,93.074,10.01z"/>
<rect x="93.074" y="18.172" fill="#676868" width="1.749" height="52.474"/>
<rect x="93.557" y="39.334" transform="matrix(0.8998 0.4364 -0.4364 0.8998 38.3589 -35.8593)" fill="#B5B6B7" width="7.365" height="52.475"/>
<polygon fill="#D2D2D2" points="112.004,43.572 112.789,33.514 105.377,40.358 "/>
<path fill="#29255C" d="M111.03,35.139l1.759-1.625l-0.188,2.389C112.602,35.903,111.716,36.253,111.03,35.139z"/>
<rect x="96.365" y="39.335" transform="matrix(0.8997 0.4366 -0.4366 0.8997 38.3831 -35.8733)" fill="#29255C" width="1.749" height="52.474"/>
<polygon fill="#48617F" points="103.893,96.685 78.451,96.685 74.438,54.47 107.725,54.47 "/>
<rect x="79.637" y="96.685" fill="#FFFFFF" width="23.254" height="1.727"/>
<g>
	<rect x="115.905" y="89.56" fill="#D2D2D2" width="19.01" height="8.852"/>
	<rect x="124.277" y="89.56" fill="#29255C" width="10.638" height="8.852"/>
	<rect x="126.467" y="89.56" fill="#D91D4C" width="1.734" height="8.852"/>
</g>
<rect x="5.89" y="154.315" fill="#48617F" width="190.798" height="12.916"/>
<rect x="13.641" y="167.231" fill="#48617F" width="175.07" height="11.904"/>
<rect x="13.641" y="167.231" fill="#8BBCE5" width="175.146" height="3.455"/>
<rect x="16.644" y="179.136" fill="#48617F" width="11.45" height="12.02"/>
<rect x="16.644" y="179.136" fill="#8BBCE5" width="11.45" height="2.715"/>
<rect x="174.165" y="179.136" fill="#48617F" width="11.45" height="12.02"/>
<rect x="174.165" y="179.136" fill="#8BBCE5" width="11.45" height="2.715"/>
</svg>
