<?xml version="1.0" encoding="utf-8"?>
<!-- Generator: Adobe Illustrator 16.0.0, SVG Export Plug-In . SVG Version: 6.00 Build 0)  -->
<!DOCTYPE svg PUBLIC "-//W3C//DTD SVG 1.1//EN" "http://www.w3.org/Graphics/SVG/1.1/DTD/svg11.dtd">
<svg version="1.1" id="Layer_1" xmlns="http://www.w3.org/2000/svg" xmlns:xlink="http://www.w3.org/1999/xlink" x="0px" y="0px"
	 width="200px" height="132.433px" viewBox="0 0 200 132.433" enable-background="new 0 0 200 132.433" xml:space="preserve">
<path fill="#808080" stroke="#616262" stroke-miterlimit="10" d="M108.298,126.403c0,1.281-3.752,2.319-8.379,2.319
	c-4.627,0-8.379-1.038-8.379-2.319c0-1.28,4.201-2.842,8.828-2.842C104.996,123.562,108.298,125.123,108.298,126.403z"/>
<radialGradient id="SVGID_1_" cx="61.5776" cy="109.9531" r="28.6256" gradientUnits="userSpaceOnUse">
	<stop  offset="0" style="stop-color:#FFFEF2"/>
	<stop  offset="1" style="stop-color:#F2ECC9"/>
</radialGradient>
<path fill="url(#SVGID_1_)" d="M99.446,121.271c-2.976-17.949-13.244-20.952-22.898-21.522c-11.189-0.661-20.21,2.077-28.933,4.728
	c-7.842,2.381-16.805,4.779-24.907,4.167l1.632-1.155c7.915,0.593,15.231-1.629,22.98-3.982c8.808-2.675,17.914-5.437,29.287-4.768
	c9.465,0.56,20.728,3.606,23.838,22.369L99.446,121.271z"/>
<radialGradient id="SVGID_2_" cx="136.916" cy="111.5244" r="27.5008" gradientUnits="userSpaceOnUse">
	<stop  offset="0" style="stop-color:#FFFEF2"/>
	<stop  offset="1" style="stop-color:#F2ECC9"/>
</radialGradient>
<path fill="url(#SVGID_2_)" d="M100.173,120.88l-1.006-0.109c0.642-5.824,4.171-11.337,9.442-14.75
	c4.711-3.053,12.905-5.858,25.179-1.905c3.783,1.22,7.198,2.343,10.214,3.335c13.409,4.414,20.796,6.845,29.715,7.514l0.949,1.08
	c-9.041-0.677-17.496-3.192-30.98-7.632c-3.014-0.991-6.43-2.114-10.207-3.332c-11.896-3.833-19.791-1.142-24.32,1.79
	C104.142,110.12,100.782,115.357,100.173,120.88z"/>
<polygon fill="#808080" stroke="#616262" stroke-miterlimit="10" points="92.261,114.229 66.786,114.086 11.701,123.162 
	4.939,126.014 92.261,126.014 "/>
<path fill="#FFFFFF" stroke="#24346C" stroke-miterlimit="10" d="M99.669,119.837c-2.147-10.008-16.503-20.456-37.192-12.087
	c-20.688,8.368-32.998,10.312-46.479,10.312c-3.253,3.414-8.148,7.354-8.148,7.354s32.848,1.084,47.653-2.324
	c18.187-4.187,28.36-10.229,36.263,2.557c3.588-2.322,8.136-2.323,8.136-2.323S100.123,121.972,99.669,119.837z"/>
<path fill="#FFFFFF" d="M15.997,119.051c13.481,0,25.791-1.945,46.479-10.313c20.689-8.367,35.045,2.08,37.192,12.089
	c0.173,0.805,0.247,1.499,0.273,2.052c0.031-0.563,0.028-1.629-0.273-3.041c-2.147-10.008-16.503-20.456-37.192-12.087
	c-20.688,8.368-32.998,10.312-46.479,10.312c-3.253,3.414-8.148,7.354-8.148,7.354S13.726,121.434,15.997,119.051z"/>
<g>
	<path fill="#C6C2A6" d="M17.623,120.663c0,0,0.203,0.046,0.584,0.131c0.378,0.11,0.95,0.143,1.657,0.239
		c0.359,0.026,0.758,0.056,1.191,0.088c0.435,0.011,0.905,0.021,1.408,0.032c1.006-0.003,2.138-0.033,3.373-0.087
		c2.468-0.126,5.34-0.393,8.395-0.827c3.052-0.444,6.291-1.027,9.473-1.831c1.595-0.383,3.18-0.812,4.714-1.307
		c1.57-0.503,3.11-0.93,4.604-1.379c1.496-0.43,2.942-0.846,4.313-1.239c1.38-0.375,2.723-0.637,3.943-0.913
		c1.224-0.267,2.342-0.523,3.347-0.683c1.003-0.158,1.878-0.296,2.599-0.409c0.716-0.127,1.29-0.174,1.678-0.212
		c0.388-0.038,0.595-0.059,0.595-0.059s-0.202,0.053-0.58,0.15c-0.379,0.09-0.928,0.249-1.627,0.447
		c-0.699,0.194-1.547,0.432-2.521,0.703c-0.971,0.276-2.045,0.66-3.233,1.011c-1.182,0.379-2.466,0.74-3.818,1.184
		c-1.35,0.463-2.772,0.952-4.245,1.458c-1.475,0.49-2.998,0.998-4.546,1.514c-1.569,0.526-3.186,0.988-4.814,1.396
		c-1.631,0.396-3.276,0.729-4.902,1.013c-1.625,0.292-3.238,0.482-4.799,0.649c-3.125,0.32-6.06,0.407-8.57,0.313
		c-1.256-0.035-2.405-0.141-3.419-0.259c-0.505-0.07-0.979-0.136-1.417-0.197c-0.434-0.083-0.833-0.159-1.193-0.228
		c-0.718-0.172-1.278-0.321-1.633-0.479C17.816,120.739,17.623,120.663,17.623,120.663z"/>
</g>
<g>
	<path fill="#C6C2A6" d="M54.209,114.972c0,0,0.657-0.296,1.818-0.775c1.168-0.462,2.819-1.174,4.848-1.908
		c1.013-0.37,2.116-0.764,3.298-1.135c1.181-0.376,2.433-0.764,3.75-1.094c1.317-0.326,2.683-0.669,4.1-0.894
		c1.413-0.24,2.863-0.432,4.329-0.519c2.924-0.168,5.925,0.063,8.597,0.898c1.33,0.419,2.588,0.939,3.681,1.608
		c0.562,0.304,1.061,0.681,1.555,1.017c0.457,0.39,0.931,0.723,1.32,1.119c0.815,0.747,1.473,1.52,1.998,2.236
		c0.541,0.707,0.94,1.367,1.267,1.909c0.338,0.534,0.518,1.005,0.678,1.3c0.148,0.303,0.228,0.464,0.228,0.464
		s-0.107-0.145-0.308-0.416c-0.206-0.268-0.481-0.676-0.874-1.16c-0.391-0.486-0.865-1.074-1.476-1.683
		c-0.599-0.616-1.322-1.261-2.148-1.898c-0.829-0.637-1.786-1.237-2.848-1.763c-1.052-0.549-2.248-0.934-3.486-1.283
		c-1.244-0.351-2.581-0.5-3.935-0.629c-1.358-0.12-2.756-0.1-4.15-0.012c-2.794,0.137-5.582,0.639-8.185,1.169
		c-2.602,0.553-5.021,1.165-7.1,1.698c-2.083,0.533-3.82,0.978-5.035,1.288C54.913,114.818,54.209,114.972,54.209,114.972z"/>
</g>
<g>
	<path fill="#C6C2A6" d="M29.656,124.729c0,0,1.012-0.116,2.785-0.277c0.882-0.101,1.954-0.223,3.183-0.363
		c1.225-0.164,2.606-0.349,4.114-0.55c1.501-0.229,3.127-0.477,4.848-0.738c1.707-0.328,3.516-0.623,5.369-1.006
		c1.846-0.41,3.767-0.783,5.67-1.324c0.954-0.26,1.93-0.483,2.883-0.778c0.945-0.318,1.893-0.638,2.841-0.957
		c0.947-0.295,1.922-0.661,2.866-1.001c0.969-0.324,1.936-0.676,2.908-0.957c1.927-0.622,3.892-1.052,5.807-1.384
		c1.915-0.35,3.821-0.414,5.613-0.354c1.798,0.095,3.484,0.428,4.972,0.934c0.744,0.246,1.425,0.579,2.074,0.864
		c0.611,0.371,1.205,0.694,1.727,1.047c0.5,0.384,0.968,0.742,1.401,1.074c0.392,0.376,0.751,0.721,1.076,1.032
		c0.16,0.156,0.313,0.304,0.455,0.443c0.126,0.155,0.244,0.301,0.353,0.437c0.218,0.271,0.403,0.501,0.553,0.688
		c0.299,0.372,0.458,0.57,0.458,0.57s-0.184-0.177-0.527-0.508c-0.361-0.313-0.805-0.856-1.517-1.384
		c-0.345-0.273-0.726-0.576-1.142-0.905c-0.447-0.279-0.931-0.582-1.447-0.906c-0.533-0.29-1.129-0.543-1.736-0.839
		c-0.644-0.212-1.298-0.493-2.015-0.673c-0.723-0.161-1.464-0.366-2.263-0.427c-0.785-0.13-1.612-0.141-2.457-0.169
		c-1.695,0.03-3.484,0.185-5.314,0.561c-1.83,0.361-3.697,0.87-5.577,1.478c-0.947,0.284-1.873,0.632-2.821,0.959
		c-0.957,0.354-1.88,0.716-2.871,1.033c-0.98,0.319-1.961,0.639-2.938,0.957c-0.982,0.293-1.978,0.511-2.955,0.768
		c-1.951,0.545-3.917,0.83-5.799,1.201c-1.887,0.348-3.731,0.54-5.468,0.788c-1.746,0.175-3.396,0.344-4.922,0.451
		c-3.051,0.219-5.606,0.24-7.386,0.271C30.674,124.763,29.656,124.729,29.656,124.729z"/>
</g>
<rect x="4.939" y="126.01" fill="#5A5A5A" width="87.322" height="1.462"/>
<g>
	<path fill="#C6C2A6" d="M64.179,117.507c0,0,0.256-0.162,0.712-0.428c0.459-0.25,1.131-0.63,1.972-0.973
		c1.672-0.727,4.017-1.435,6.429-1.785c1.206-0.173,2.423-0.282,3.568-0.272c0.572-0.015,1.125,0.023,1.649,0.063
		c0.523,0.03,1.016,0.121,1.468,0.184c0.904,0.167,1.632,0.411,2.129,0.596c0.489,0.216,0.758,0.348,0.758,0.348
		s-0.293-0.068-0.807-0.188c-0.253-0.063-0.573-0.095-0.929-0.154c-0.358-0.054-0.771-0.062-1.21-0.113
		c-0.447-0.008-0.926-0.041-1.436-0.033c-0.51,0.004-1.046,0.017-1.601,0.052c-0.556,0.012-1.126,0.099-1.708,0.134
		c-0.58,0.075-1.171,0.126-1.756,0.23c-1.179,0.152-2.341,0.407-3.433,0.632c-0.539,0.144-1.072,0.238-1.563,0.382
		c-0.494,0.134-0.965,0.252-1.393,0.386c-0.862,0.249-1.57,0.476-2.067,0.662C64.467,117.412,64.179,117.507,64.179,117.507z"/>
</g>
<polygon fill="#808080" stroke="#616262" stroke-miterlimit="10" points="107.413,114.229 132.887,114.086 187.972,123.162 
	194.733,126.014 107.413,126.014 "/>
<path fill="#FFFFFF" stroke="#24346C" stroke-miterlimit="10" d="M100.003,119.837c2.148-10.008,16.505-20.456,37.194-12.087
	c20.688,8.368,32.995,10.312,46.479,10.312c3.253,3.414,8.147,7.354,8.147,7.354s-32.849,1.084-47.654-2.324
	c-18.187-4.187-28.358-10.229-36.264,2.557c-3.586-2.322-8.135-2.323-8.135-2.323S99.55,121.972,100.003,119.837z"/>
<path fill="#FFFFFF" d="M183.677,119.051c-13.484,0-25.792-1.945-46.479-10.313c-20.689-8.367-35.046,2.08-37.194,12.089
	c-0.171,0.805-0.246,1.499-0.273,2.052c-0.031-0.563-0.025-1.629,0.273-3.041c2.148-10.008,16.505-20.456,37.194-12.087
	c20.688,8.368,32.995,10.312,46.479,10.312c3.253,3.414,8.147,7.354,8.147,7.354S185.948,121.434,183.677,119.051z"/>
<g>
	<path fill="#C6C2A6" d="M182.05,120.663c0,0-0.193,0.076-0.557,0.22c-0.354,0.157-0.915,0.307-1.633,0.479
		c-0.36,0.068-0.759,0.145-1.193,0.228c-0.438,0.062-0.911,0.127-1.416,0.197c-1.015,0.117-2.163,0.224-3.419,0.259
		c-2.511,0.095-5.446,0.008-8.57-0.313c-1.561-0.167-3.175-0.357-4.799-0.649c-1.626-0.282-3.271-0.616-4.901-1.013
		c-1.629-0.407-3.245-0.869-4.814-1.396c-1.548-0.516-3.071-1.022-4.546-1.514c-1.472-0.506-2.896-0.995-4.244-1.458
		c-1.353-0.443-2.637-0.805-3.818-1.184c-1.188-0.351-2.262-0.734-3.232-1.011c-0.974-0.271-1.822-0.509-2.521-0.703
		c-0.7-0.198-1.249-0.357-1.628-0.447c-0.378-0.098-0.579-0.15-0.579-0.15s0.207,0.021,0.595,0.059
		c0.389,0.038,0.962,0.085,1.679,0.212c0.721,0.113,1.595,0.251,2.599,0.409c1.005,0.159,2.122,0.416,3.347,0.683
		c1.22,0.276,2.563,0.538,3.942,0.913c1.371,0.394,2.817,0.81,4.313,1.239c1.493,0.449,3.034,0.876,4.604,1.379
		c1.534,0.496,3.118,0.924,4.714,1.307c3.182,0.804,6.421,1.387,9.473,1.831c3.054,0.435,5.926,0.701,8.395,0.827
		c1.234,0.054,2.366,0.084,3.372,0.087c0.503-0.011,0.973-0.021,1.407-0.032c0.434-0.032,0.832-0.062,1.191-0.088
		c0.707-0.097,1.279-0.129,1.657-0.239C181.847,120.709,182.05,120.663,182.05,120.663z"/>
</g>
<g>
	<path fill="#C6C2A6" d="M145.464,114.972c0,0-0.704-0.153-1.923-0.461c-1.215-0.311-2.951-0.755-5.035-1.288
		c-2.078-0.533-4.498-1.146-7.1-1.698c-2.603-0.53-5.39-1.032-8.185-1.169c-1.394-0.088-2.791-0.108-4.149,0.012
		c-1.354,0.129-2.692,0.278-3.936,0.629c-1.238,0.35-2.435,0.734-3.486,1.283c-1.062,0.525-2.019,1.126-2.848,1.762
		c-0.825,0.639-1.549,1.283-2.147,1.899c-0.611,0.608-1.085,1.196-1.476,1.683c-0.393,0.484-0.668,0.893-0.874,1.16
		c-0.2,0.271-0.308,0.416-0.308,0.416s0.079-0.161,0.228-0.464c0.161-0.295,0.34-0.766,0.679-1.3
		c0.326-0.542,0.726-1.202,1.267-1.909c0.524-0.717,1.183-1.489,1.998-2.236c0.389-0.396,0.862-0.729,1.319-1.119
		c0.494-0.336,0.994-0.713,1.556-1.017c1.093-0.669,2.351-1.189,3.681-1.608c2.672-0.837,5.673-1.066,8.597-0.898
		c1.466,0.087,2.916,0.278,4.329,0.519c1.417,0.226,2.782,0.567,4.1,0.894c1.317,0.33,2.568,0.718,3.749,1.094
		c1.183,0.371,2.285,0.765,3.298,1.135c2.029,0.734,3.681,1.446,4.849,1.908C144.808,114.676,145.464,114.972,145.464,114.972z"/>
</g>
<g>
	<path fill="#C6C2A6" d="M170.018,124.729c0,0-1.019,0.034-2.798,0.054c-1.78-0.03-4.336-0.052-7.387-0.271
		c-1.526-0.107-3.176-0.276-4.923-0.451c-1.736-0.248-3.581-0.44-5.468-0.788c-1.883-0.371-3.849-0.656-5.799-1.201
		c-0.979-0.257-1.974-0.475-2.956-0.768c-0.977-0.318-1.957-0.638-2.938-0.958c-0.991-0.317-1.914-0.678-2.871-1.032
		c-0.948-0.327-1.874-0.675-2.821-0.959c-1.88-0.607-3.747-1.116-5.577-1.478c-1.829-0.376-3.618-0.53-5.313-0.561
		c-0.846,0.028-1.672,0.039-2.457,0.169c-0.799,0.061-1.54,0.266-2.263,0.427c-0.717,0.18-1.371,0.461-2.016,0.673
		c-0.606,0.296-1.203,0.549-1.735,0.84c-0.518,0.323-1.001,0.626-1.448,0.905c-0.415,0.329-0.796,0.632-1.141,0.905
		c-0.712,0.527-1.156,1.071-1.518,1.384c-0.344,0.331-0.527,0.508-0.527,0.508s0.159-0.198,0.458-0.57
		c0.15-0.187,0.335-0.416,0.553-0.688c0.109-0.136,0.228-0.281,0.353-0.437c0.144-0.139,0.295-0.287,0.456-0.443
		c0.324-0.312,0.685-0.656,1.076-1.032c0.433-0.331,0.9-0.69,1.4-1.073c0.522-0.354,1.115-0.677,1.727-1.048
		c0.649-0.285,1.331-0.617,2.074-0.864c1.487-0.506,3.174-0.839,4.973-0.934c1.792-0.06,3.698,0.005,5.612,0.354
		c1.915,0.332,3.88,0.762,5.807,1.384c0.973,0.281,1.939,0.633,2.908,0.956c0.943,0.341,1.919,0.706,2.866,1.002
		c0.948,0.319,1.896,0.639,2.841,0.957c0.954,0.295,1.929,0.518,2.883,0.778c1.903,0.541,3.824,0.914,5.67,1.324
		c1.853,0.383,3.662,0.678,5.369,1.006c1.721,0.262,3.347,0.51,4.848,0.738c1.508,0.201,2.89,0.386,4.114,0.55
		c1.229,0.141,2.3,0.263,3.183,0.363C169.005,124.612,170.018,124.729,170.018,124.729z"/>
</g>
<rect x="107.413" y="126.01" fill="#5A5A5A" width="87.32" height="1.462"/>
<g>
	<path fill="#C6C2A6" d="M135.493,117.507c0,0-0.288-0.095-0.783-0.278c-0.497-0.187-1.204-0.413-2.066-0.662
		c-0.428-0.134-0.898-0.252-1.393-0.386c-0.491-0.144-1.025-0.238-1.563-0.381c-1.092-0.226-2.254-0.48-3.433-0.633
		c-0.585-0.104-1.177-0.155-1.756-0.23c-0.582-0.035-1.153-0.122-1.708-0.134c-0.556-0.035-1.092-0.048-1.602-0.052
		c-0.51-0.008-0.988,0.025-1.436,0.033c-0.439,0.052-0.853,0.06-1.21,0.113c-0.356,0.06-0.676,0.092-0.929,0.154
		c-0.514,0.119-0.807,0.188-0.807,0.188s0.269-0.132,0.759-0.348c0.497-0.185,1.224-0.428,2.128-0.596
		c0.452-0.063,0.944-0.153,1.468-0.184c0.523-0.04,1.077-0.078,1.649-0.063c1.146-0.01,2.362,0.1,3.567,0.272
		c2.412,0.351,4.757,1.059,6.429,1.785c0.841,0.343,1.514,0.723,1.973,0.973C135.237,117.345,135.493,117.507,135.493,117.507z"/>
</g>
<path fill="none" stroke="#4D4D4D" stroke-width="1.8913" stroke-miterlimit="10" d="M91.247,126.393
	c1.031-1.271,10.553-5.676,17.55,0"/>
<path fill="none" stroke="#4D4D4D" stroke-width="1.2797" stroke-miterlimit="10" d="M91.247,127.064
	c1.031,0.582,10.553,2.6,17.55,0"/>
<radialGradient id="SVGID_3_" cx="85.3086" cy="93.4912" r="22.1213" gradientUnits="userSpaceOnUse">
	<stop  offset="0" style="stop-color:#FFFEF2"/>
	<stop  offset="1" style="stop-color:#F2ECC9"/>
</radialGradient>
<path fill="url(#SVGID_3_)" d="M100.51,120.832l-1.013-0.013c0.116-9.283-2.833-20.779-7.889-30.755
	c-5.643-11.139-13.281-19.303-21.503-22.989l0.415-0.924c8.434,3.78,16.244,12.11,21.994,23.457
	C97.638,99.722,100.627,111.394,100.51,120.832z"/>
<radialGradient id="SVGID_4_" cx="117.1465" cy="96.9619" r="21.0062" gradientUnits="userSpaceOnUse">
	<stop  offset="0" style="stop-color:#FFFEF2"/>
	<stop  offset="1" style="stop-color:#F2ECC9"/>
</radialGradient>
<path fill="url(#SVGID_4_)" d="M99.497,120.846c-0.491-12.688,9.274-39.725,35.013-47.768l0.303,0.966
	c-25.216,7.88-34.784,34.346-34.303,46.762L99.497,120.846z"/>
<g>
	<circle fill="#C3E1CC" cx="97.699" cy="39.727" r="2.087"/>
	<circle fill="#C3E1CC" cx="146.744" cy="10.51" r="1.826"/>
	<circle fill="#C3E1CC" cx="181.96" cy="53.814" r="1.826"/>
	<circle fill="#C3E1CC" cx="157.438" cy="96.596" r="1.044"/>
	<circle fill="#C3E1CC" cx="43.701" cy="18.335" r="3.13"/>
	<circle fill="#C3E1CC" cx="22.832" cy="57.204" r="1.043"/>
	<circle fill="#C3E1CC" cx="11.615" cy="101.29" r="1.043"/>
</g>
<circle fill="#C4E0E3" cx="122.539" cy="23.975" r="17.454"/>
<circle fill="none" stroke="#0E3759" stroke-miterlimit="10" cx="122.538" cy="23.975" r="19.013"/>
<path fill="#688FB5" d="M116.716,37.104l-7.699,1.837c-0.5,0.118-0.915-0.289-0.806-0.791l1.695-7.732L116.716,37.104z"/>
<linearGradient id="SVGID_5_" gradientUnits="userSpaceOnUse" x1="-22.3057" y1="-3.8037" x2="-19.0092" y2="-8.2958" gradientTransform="matrix(-0.7135 -0.7006 0.7006 -0.7135 100.5728 15.5868)">
	<stop  offset="0" style="stop-color:#1D1D1B"/>
	<stop  offset="1" style="stop-color:#1D1D1B;stop-opacity:0"/>
</linearGradient>
<path opacity="0.38" fill="url(#SVGID_5_)" d="M110.117,38.677l6.599-1.574l-6.81-6.686l-0.554,2.53
	C111.637,34.055,111.878,36.834,110.117,38.677z"/>
<path fill="#A6B2DB" d="M130.487,8.188c0.364-0.37,0.904-0.507,1.398-0.352c0.922,0.289,2.484,0.986,4.172,2.642
	c1.68,1.648,2.386,3.174,2.68,4.078c0.158,0.488,0.03,1.024-0.33,1.392l-20.824,21.21c-0.239,0.243-0.596,0.331-0.918,0.223
	c-0.857-0.284-2.594-1.02-4.29-2.685c-1.707-1.678-2.549-3.487-2.889-4.374c-0.124-0.326-0.046-0.696,0.199-0.946L130.487,8.188z"/>
<path opacity="0.44" fill="#1D1D1B" d="M132.467,14.136c2.243,2.203,3.039,3.958,3.261,4.541l1.545-1.573
	c-0.222-0.583-1.018-2.338-3.262-4.541c-2.254-2.211-4.061-3.006-4.652-3.224l-1.545,1.572
	C128.405,11.13,130.214,11.924,132.467,14.136z"/>
<path fill="#47607E" d="M128.981,9.441c0,0,2.096,0.58,4.86,3.294c2.763,2.713,3.331,4.749,3.331,4.749l-17.76,18.089
	c0,0-2.178-0.898-4.641-3.315c-2.462-2.417-3.551-4.726-3.551-4.726L128.981,9.441z"/>
<path fill="#3E5166" d="M120.101,34.872c0,0-2.177-0.898-4.639-3.316s-3.552-4.726-3.552-4.726c0.215-0.218,0.528-0.538,0.528-0.538
	s1.091,2.308,3.552,4.726c2.463,2.417,4.64,3.316,4.64,3.316L120.101,34.872z"/>
<path fill="#3E5166" d="M121.031,33.925c0,0-2.177-0.898-4.64-3.316c-2.463-2.417-3.551-4.727-3.551-4.727
	c0.185-0.188,0.72-0.734,0.72-0.734s1.09,2.309,3.552,4.727c2.462,2.417,4.64,3.315,4.64,3.315L121.031,33.925z"/>
<path fill="#3E5166" d="M136.201,18.474c0,0-0.938-2.16-3.4-4.578c-2.462-2.419-4.792-3.464-4.792-3.464
	c-0.041-0.042-0.526,0.538-0.526,0.538s2.328,1.046,4.789,3.464c2.463,2.417,3.402,4.578,3.402,4.578L136.201,18.474z"/>
<path fill="#3E5166" d="M135.271,19.42c0,0-0.937-2.161-3.401-4.579c-2.461-2.417-4.79-3.464-4.79-3.464
	c-0.174,0.179-0.721,0.734-0.721,0.734s2.328,1.047,4.791,3.464c2.462,2.418,3.4,4.579,3.4,4.579L135.271,19.42z"/>
<path opacity="0.27" fill="#1D1D1B" d="M116.665,37.38c0.322,0.108,0.679,0.021,0.918-0.223l1.64-1.67
	c0.124,0.059,0.19,0.086,0.19,0.086l17.76-18.089c0,0-0.02-0.072-0.07-0.208l1.305-1.329c0.36-0.367,0.488-0.904,0.33-1.392
	c-0.152-0.474-0.423-1.118-0.883-1.86l-23.278,23.709C115.44,36.924,116.188,37.222,116.665,37.38z"/>
<path opacity="0.18" fill="#FFFFFF" d="M111.315,27.716l-1.63,1.66c-0.245,0.25-0.323,0.62-0.199,0.946
	c0.116,0.3,0.288,0.706,0.532,1.176l22.854-23.279c-0.376-0.173-0.71-0.298-0.986-0.384c-0.494-0.155-1.034-0.018-1.398,0.352
	L129.19,9.51c-0.136-0.049-0.209-0.069-0.209-0.069l-17.76,18.09C111.222,27.531,111.254,27.597,111.315,27.716z"/>
<path opacity="0.48" fill="#FFFFFF" d="M108.304,38.201l1.073-4.74C109.377,33.461,109.467,36.869,108.304,38.201z"/>
<circle fill="#C4E0E3" cx="78.151" cy="23.975" r="17.454"/>
<circle fill="none" stroke="#0E3759" stroke-width="0.9833" stroke-miterlimit="10" cx="78.151" cy="23.975" r="19.079"/>
<ellipse transform="matrix(0.9993 0.038 -0.038 0.9993 0.9591 -2.9618)" fill="none" stroke="#324F61" stroke-miterlimit="10" cx="78.418" cy="23.758" rx="5.566" ry="9.719"/>
<path fill="none" stroke="#324F61" stroke-miterlimit="10" d="M82.23,27.067c-4.866,3.613-10.519,5.062-12.624,3.234
	c-2.106-1.827,0.132-6.237,4.998-9.851c4.866-3.614,10.518-5.061,12.623-3.234C89.334,19.043,87.096,23.454,82.23,27.067z"/>
<path fill="none" stroke="#324F61" stroke-miterlimit="10" d="M82.47,20.749c4.579,3.972,6.474,8.541,4.236,10.202
	c-2.238,1.663-7.763-0.211-12.341-4.183c-4.577-3.972-6.474-8.54-4.235-10.202C72.367,14.905,77.893,16.778,82.47,20.749z"/>
<ellipse transform="matrix(0.9993 0.0382 -0.0382 0.9993 0.964 -2.9758)" fill="#47607E" cx="78.417" cy="23.759" rx="2.021" ry="1.944"/>
<circle fill="#C4E0E3" cx="157.16" cy="46.169" r="17.454"/>
<circle fill="none" stroke="#0E3759" stroke-miterlimit="10" cx="157.161" cy="46.169" r="19.402"/>
<path fill="#5C5C5C" d="M149.374,59.064l10.323,2.288c0,0-0.59-3.626-4.562-4.553C151.948,56.057,149.374,59.064,149.374,59.064z"/>
<path opacity="0.45" fill="#40BBCF" d="M155.136,56.799c-0.278-0.064-0.551-0.092-0.817-0.104c2.562,1.234,2.445,2.839,1.78,3.859
	l3.599,0.797C159.697,61.352,159.107,57.726,155.136,56.799z"/>
<path fill="none" stroke="#686969" stroke-width="2.075" stroke-linecap="round" stroke-miterlimit="10" d="M146.984,51.784
	c3.193,4.32,8.926,6.285,14.282,4.458c6.626-2.258,10.167-9.46,7.909-16.086c-1.646-4.827-5.914-8.017-10.674-8.521"/>
<circle fill="#A6B2DB" cx="157.005" cy="44.222" r="10.187"/>
<path fill="#3E5166" d="M163.606,47.432c0.102-0.186,0.195-0.366,0.278-0.537c0.67-1.361,1.135-2.801,1.396-4.222l1.888,1.085
	c-0.023-0.465-0.081-0.933-0.168-1.4l-1.547-0.891c0.102-1.028,0.092-2.029-0.035-2.961c-0.484-0.716-1.05-1.358-1.685-1.917
	c0.535,1.185,0.746,2.669,0.646,4.262l-3.402-1.958l1.736-3.091c-0.313-0.211-0.636-0.407-0.969-0.583l-1.748,3.11l-3.969-2.284
	c1.361-0.687,3.042-1.137,5.088-1.129c-0.931-0.413-1.922-0.686-2.943-0.805c-1.166,0.271-2.264,0.701-3.271,1.286l-1.328-0.766
	c-0.447,0.16-0.873,0.353-1.284,0.566l1.555,0.894c-1.319,0.975-2.444,2.241-3.322,3.771l-2.059-1.192
	c-0.207,0.317-0.398,0.641-0.566,0.978l2.104,1.218c-0.725,1.552-1.154,3.233-1.291,4.908l-1.886-1.085
	c0.022,0.466,0.082,0.934,0.169,1.402l1.667,0.958c0.009,1.301,0.206,2.573,0.576,3.761c0.604,0.709,1.295,1.324,2.057,1.838
	c-0.883-1.423-1.382-3.14-1.491-4.941l3.724,2.144l-1.75,3.111c0.325,0.194,0.661,0.366,1.004,0.521l1.726-3.069l3.11,1.79
	c-1.154,0.691-2.515,1.255-4.113,1.582c0.729,0.265,1.488,0.443,2.265,0.538c1.109-0.4,2.091-0.909,2.958-1.482l1.686,0.971
	c0.446-0.16,0.872-0.353,1.283-0.566l-1.965-1.13c1.475-1.176,2.547-2.516,3.304-3.708l2.455,1.42
	c0.21-0.315,0.401-0.638,0.572-0.975L163.606,47.432z M154.911,36.705l4.533,2.609l-2.421,4.309l-5.522-3.196
	C152.144,39.307,153.228,37.846,154.911,36.705z M154.079,48.862l-4.281-2.463c0.068-1.683,0.465-3.391,1.188-4.965l5.484,3.174
	L154.079,48.862z M158.666,51.502l-3.607-2.076l2.39-4.253l4.607,2.666C161.297,49.029,160.196,50.368,158.666,51.502z
	 M162.872,46.396c-0.074,0.149-0.155,0.308-0.244,0.47l-4.627-2.677l2.423-4.313l3.821,2.2
	C164.018,43.514,163.561,44.997,162.872,46.396z"/>
<path opacity="0.63" fill="#006F9F" d="M166.647,40.936c-0.211-0.622-0.482-1.206-0.795-1.756c0.847,4.856-1.929,9.741-6.74,11.38
	c-4.704,1.603-9.764-0.435-12.133-4.602c0.09,0.518,0.209,1.037,0.384,1.549c1.813,5.325,7.603,8.17,12.928,6.356
	C165.616,52.048,168.462,46.261,166.647,40.936z"/>
<circle fill="#C4E0E3" cx="176.692" cy="79.904" r="17.455"/>
<circle fill="none" stroke="#0E3759" stroke-width="1.067" stroke-miterlimit="10" cx="176.691" cy="79.904" r="18.623"/>
<polygon fill="#47607E" points="188.783,94.38 174.104,88.041 179.154,72.06 194.854,75.173 "/>
<polygon fill="#47607E" points="158.223,84.799 174.1,88.038 179.149,72.058 164.294,65.59 "/>
<polyline fill="#688FB5" points="166.205,67.206 164.787,66.565 159.317,84.244 160.754,84.499 "/>
<polygon fill="#A6B2DB" points="162.098,84.919 160.661,84.665 166.13,66.984 167.55,67.626 "/>
<polyline fill="#688FB5" points="192.453,75.542 193.985,75.822 188.41,93.468 187.086,92.86 "/>
<polygon fill="#A6B2DB" points="185.741,92.441 187.066,93.049 192.641,75.404 191.109,75.121 "/>
<polygon fill="#C4E0E3" points="185.374,92.621 173.982,87.392 178.622,72.71 190.949,74.976 "/>
<path fill="#C4E0E3" d="M180.729,73.037l-1.779-0.327l-4.639,14.682l11.392,5.229l0.653-2.071
	C178.003,89.978,177.037,82.085,180.729,73.037z"/>
<line fill="none" stroke="#4D4D4D" stroke-width="1.1577" stroke-linecap="round" stroke-linejoin="round" stroke-miterlimit="10" x1="181.188" y1="75.677" x2="187.579" y2="76.907"/>
<line fill="none" stroke="#4D4D4D" stroke-width="1.1577" stroke-linecap="round" stroke-linejoin="round" stroke-miterlimit="10" x1="180.509" y1="77.826" x2="186.809" y2="79.346"/>
<line fill="none" stroke="#4D4D4D" stroke-width="1.1577" stroke-linecap="round" stroke-linejoin="round" stroke-miterlimit="10" x1="179.828" y1="79.978" x2="186.038" y2="81.782"/>
<line fill="none" stroke="#4D4D4D" stroke-width="1.1577" stroke-linecap="round" stroke-linejoin="round" stroke-miterlimit="10" x1="179.149" y1="82.129" x2="185.374" y2="83.885"/>
<line fill="none" stroke="#4D4D4D" stroke-width="1.1577" stroke-linecap="round" stroke-linejoin="round" stroke-miterlimit="10" x1="178.47" y1="84.278" x2="184.618" y2="86.275"/>
<line fill="none" stroke="#4D4D4D" stroke-width="1.1577" stroke-linecap="round" stroke-linejoin="round" stroke-miterlimit="10" x1="177.789" y1="86.429" x2="183.819" y2="88.807"/>
<polygon fill="#C4E0E3" points="161.649,85.123 173.978,87.39 178.616,72.709 167.224,67.479 "/>
<line fill="none" stroke="#4D4D4D" stroke-width="1.1577" stroke-linecap="round" stroke-linejoin="round" stroke-miterlimit="10" x1="175.41" y1="73.85" x2="169.47" y2="71.186"/>
<line fill="none" stroke="#4D4D4D" stroke-width="1.1577" stroke-linecap="round" stroke-linejoin="round" stroke-miterlimit="10" x1="174.729" y1="76" x2="168.7" y2="73.622"/>
<line fill="none" stroke="#4D4D4D" stroke-width="1.1577" stroke-linecap="round" stroke-linejoin="round" stroke-miterlimit="10" x1="174.05" y1="78.151" x2="167.929" y2="76.061"/>
<line fill="none" stroke="#4D4D4D" stroke-width="1.1577" stroke-linecap="round" stroke-linejoin="round" stroke-miterlimit="10" x1="173.369" y1="80.303" x2="167.267" y2="78.163"/>
<line fill="none" stroke="#4D4D4D" stroke-width="1.1577" stroke-linecap="round" stroke-linejoin="round" stroke-miterlimit="10" x1="172.69" y1="82.452" x2="166.511" y2="80.552"/>
<line fill="none" stroke="#4D4D4D" stroke-width="1.1577" stroke-linecap="round" stroke-linejoin="round" stroke-miterlimit="10" x1="172.011" y1="84.603" x2="165.709" y2="83.085"/>
<path fill="#C4E0E3" d="M174.305,87.39l4.641-14.681l-1.677-0.77c-0.895,7.781-5.976,17.803-14.128,9.503l-1.164,3.681
	L174.305,87.39z"/>
<g>
	<path fill="#787878" d="M178.945,72.709c0,0-0.105,0.976-0.409,2.394c-0.296,1.421-0.783,3.285-1.359,5.121
		c-0.584,1.834-1.255,3.641-1.83,4.973c-0.566,1.335-1.042,2.193-1.042,2.193s0.104-0.977,0.408-2.394
		c0.295-1.421,0.784-3.285,1.36-5.121c0.584-1.834,1.257-3.64,1.831-4.972C178.471,73.568,178.945,72.709,178.945,72.709z"/>
</g>
<polygon fill="#3E5166" points="177.159,71.893 176.299,74.726 176.968,74.318 177.399,75.004 178.157,72.33 "/>
<circle fill="#C4E0E3" cx="43.529" cy="46.169" r="17.455"/>
<circle fill="none" stroke="#0E3759" stroke-width="1.0116" stroke-miterlimit="10" cx="43.528" cy="46.169" r="18.867"/>
<polygon fill="#688FB5" stroke="#24346C" stroke-miterlimit="10" points="49.206,56.951 29.227,34.577 30.687,32.102 32.78,30.232 
	35.091,29.34 55.07,51.713 "/>
<path fill="#A6B2DB" d="M32.582,30.41l-1.896,1.692l-1.459,2.475l19.979,22.374l2.744-2.452
	C43.135,48.723,33.795,37.282,32.582,30.41z"/>
<g>
	<polygon fill="#3E5166" points="53.536,53.083 33.04,30.132 32.78,30.232 32.56,30.429 53.122,53.455 	"/>
	<polygon fill="#3E5166" points="30.687,32.102 30.5,32.418 50.987,55.359 51.402,54.989 30.841,31.964 	"/>
</g>
<path fill="#B3B3B3" d="M49.206,56.951l7.501,2.989c0.261,0.103,0.526-0.135,0.456-0.404l-2.092-7.823l-2.144,1.019l-2.192,1.957
	L49.206,56.951z"/>
<path fill="#505050" d="M57.125,59.395c-2.446-1.32-4.556-3.445-5.783-5.247l-0.606,0.542l-1.529,2.261l7.501,2.989
	c0.261,0.103,0.526-0.135,0.456-0.404L57.125,59.395z"/>
<path fill="#36311C" d="M57.163,59.536l-0.725-2.706c-0.975,0.107-1.887,0.814-2.525,1.996l2.794,1.114
	C56.968,60.042,57.233,59.805,57.163,59.536z"/>
<circle fill="#C4E0E3" cx="23.998" cy="79.904" r="17.454"/>
<circle fill="none" stroke="#0E3759" stroke-miterlimit="10" cx="23.998" cy="79.904" r="19.162"/>
<path fill="#8BBCE5" d="M25.928,75.163l-1.651-7.747l-4.591,0.979l1.65,7.747l-2.404,16.647c-0.156,1.08,0.813,1.988,1.881,1.76
	l13.094-2.79c1.07-0.229,1.584-1.451,1.001-2.375L25.928,75.163z"/>
<path fill="#77CCF2" d="M24.494,64.604l-6.153,1.311c-0.342,0.073-0.56,0.41-0.487,0.753l0.301,1.408
	c0.072,0.342,0.409,0.561,0.751,0.488l6.153-1.311c0.342-0.073,0.56-0.41,0.487-0.752l-0.3-1.409
	C25.174,64.75,24.836,64.532,24.494,64.604z"/>
<path fill="#3E5166" d="M26.104,77.159l-4.109,0.876l-1.905,14.75c-0.054,0.413,0.317,0.755,0.726,0.67l12.651-2.696
	c0.408-0.088,0.607-0.552,0.39-0.906L26.104,77.159z"/>
<circle fill="none" stroke="#7D7D7D" stroke-width="1.0272" stroke-linecap="round" stroke-linejoin="round" stroke-miterlimit="10" cx="24.65" cy="84.05" r="0.57"/>
<circle fill="none" stroke="#7D7D7D" stroke-width="2.0545" stroke-linecap="round" stroke-linejoin="round" stroke-miterlimit="10" cx="24.748" cy="88.028" r="1.018"/>
<circle fill="none" stroke="#7D7D7D" stroke-width="1.0272" stroke-linecap="round" stroke-linejoin="round" stroke-miterlimit="10" cx="27.866" cy="85.657" r="0.692"/>
<path opacity="0.45" fill="#40BBCF" d="M22.736,78.797c0.245-1.692,0.348-2.572,0.114-3.677c-0.236-1.103-1.136-6.229-1.136-6.229
	l2.752-0.587l-0.189-0.888l-4.591,0.979l1.65,7.747l-2.404,16.647c-0.156,1.08,0.813,1.988,1.881,1.76l6.682-1.424
	C19.412,93.437,21.879,84.717,22.736,78.797z"/>
<path fill="#FFFFFF" d="M27.385,79.284c0,0,3.221,6.137,6.084,9.749C32.643,87.181,28.366,80.696,27.385,79.284z"/>
</svg>
