<?xml version="1.0" encoding="utf-8"?>
<!-- Generator: Adobe Illustrator 16.0.0, SVG Export Plug-In . SVG Version: 6.00 Build 0)  -->
<!DOCTYPE svg PUBLIC "-//W3C//DTD SVG 1.1//EN" "http://www.w3.org/Graphics/SVG/1.1/DTD/svg11.dtd">
<svg version="1.1" id="Layer_1" xmlns="http://www.w3.org/2000/svg" xmlns:xlink="http://www.w3.org/1999/xlink" x="0px" y="0px"
	 width="794px" height="250.576px" viewBox="0 0 794 250.576" enable-background="new 0 0 794 250.576" xml:space="preserve">
<polygon opacity="0.3" fill="#695F6D" points="266.019,237.742 16.598,237.742 16.598,215.381 277.49,216.056 "/>
<polygon fill="#3E3C39" points="582.153,84.054 299.878,16.51 22.762,82.819 16.598,82.819 16.598,235.534 96.354,212.793 
	96.354,84.295 501.157,84.295 501.157,213.078 548.534,225.784 548.534,114.704 583.159,117.063 583.159,84.054 "/>
<g>
	<rect x="545.166" y="114.704" fill="#666461" width="6.736" height="111.08"/>
</g>
<polygon opacity="0.4" fill="#1A2026" points="582.153,84.054 299.878,16.51 22.762,82.819 16.598,82.819 16.598,88.656 
	96.354,83.829 96.354,84.295 486.521,84.295 501.157,84.128 583.159,88.656 583.159,84.054 "/>
<polygon fill="#8C8D8B" points="501.157,213.152 96.13,213.152 96.13,83.903 299.653,39.507 501.157,84.128 "/>
<rect x="182.054" y="102.392" fill="#47454F" width="76.785" height="115.439"/>
<rect x="262.179" y="126.156" fill="#88BDED" width="141.5" height="86.9"/>
<g>
	<g>
		<polygon fill="#47454F" points="501.084,84.457 299.652,39.852 96.201,84.232 96.058,83.574 299.654,39.162 299.727,39.178 
			501.23,83.799 		"/>
	</g>
	<g opacity="0.9836">
		<polygon fill="#47454F" points="501.084,84.897 299.652,40.292 96.201,84.672 96.058,84.014 299.654,39.603 299.727,39.618 
			501.23,84.239 		"/>
	</g>
	<g opacity="0.9672">
		<polygon fill="#47454F" points="501.085,85.338 299.652,40.731 96.201,85.112 96.058,84.454 299.654,40.042 299.727,40.058 
			501.231,84.68 		"/>
	</g>
	<g opacity="0.9508">
		<polygon fill="#47454F" points="501.084,85.776 299.652,41.172 96.201,85.553 96.057,84.895 299.654,40.482 299.727,40.498 
			501.23,85.118 		"/>
	</g>
	<g opacity="0.9344">
		<polygon fill="#47454F" points="501.084,86.217 299.652,41.611 96.201,85.992 96.058,85.334 299.654,40.922 299.727,40.938 
			501.23,85.559 		"/>
	</g>
	<g opacity="0.918">
		<polygon fill="#47454F" points="501.084,86.657 299.652,42.052 96.201,86.433 96.058,85.774 299.654,41.362 299.727,41.378 
			501.23,85.999 		"/>
	</g>
	<g opacity="0.9016">
		<polygon fill="#47454F" points="501.084,87.097 299.652,42.491 96.201,86.872 96.058,86.214 299.654,41.802 299.727,41.817 
			501.23,86.438 		"/>
	</g>
	<g opacity="0.8852">
		<polygon fill="#47454F" points="501.084,87.537 299.652,42.932 96.201,87.313 96.058,86.654 299.654,42.242 299.727,42.258 
			501.23,86.879 		"/>
	</g>
	<g opacity="0.8689">
		<polygon fill="#47454F" points="501.084,87.978 299.652,43.372 96.201,87.753 96.058,87.095 299.654,42.683 299.727,42.698 
			501.23,87.319 		"/>
	</g>
	<g opacity="0.8525">
		<polygon fill="#47454F" points="501.084,88.417 299.652,43.812 96.201,88.192 96.058,87.534 299.654,43.122 299.727,43.138 
			501.23,87.759 		"/>
	</g>
	<g opacity="0.8361">
		<polygon fill="#47454F" points="501.084,88.857 299.652,44.252 96.201,88.633 96.058,87.975 299.654,43.563 299.727,43.578 
			501.23,88.199 		"/>
	</g>
	<g opacity="0.8197">
		<polygon fill="#47454F" points="501.084,89.298 299.652,44.691 96.201,89.073 96.058,88.415 299.654,44.002 299.727,44.018 
			501.23,88.64 		"/>
	</g>
	<g opacity="0.8033">
		<polygon fill="#47454F" points="501.084,89.737 299.652,45.132 96.201,89.513 96.058,88.854 299.654,44.442 299.727,44.458 
			501.23,89.079 		"/>
	</g>
	<g opacity="0.7869">
		<polygon fill="#47454F" points="501.084,90.177 299.652,45.571 96.201,89.952 96.058,89.294 299.654,44.882 299.727,44.897 
			501.23,89.519 		"/>
	</g>
	<g opacity="0.7705">
		<polygon fill="#47454F" points="501.084,90.617 299.652,46.012 96.201,90.393 96.058,89.734 299.654,45.322 299.727,45.338 
			501.23,89.959 		"/>
	</g>
	<g opacity="0.7541">
		<polygon fill="#47454F" points="501.084,91.058 299.652,46.451 96.201,90.833 96.058,90.175 299.654,45.762 299.727,45.777 
			501.23,90.399 		"/>
	</g>
	<g opacity="0.7377">
		<polygon fill="#47454F" points="501.084,91.497 299.652,46.892 96.201,91.272 96.058,90.614 299.654,46.202 299.727,46.218 
			501.23,90.839 		"/>
	</g>
	<g opacity="0.7213">
		<polygon fill="#47454F" points="501.084,91.938 299.652,47.331 96.201,91.713 96.058,91.055 299.654,46.642 299.727,46.657 
			501.23,91.279 		"/>
	</g>
	<g opacity="0.7049">
		<polygon fill="#47454F" points="501.084,92.377 299.652,47.771 96.201,92.152 96.058,91.494 299.654,47.082 299.727,47.098 
			501.23,91.719 		"/>
	</g>
	<g opacity="0.6885">
		<polygon fill="#47454F" points="501.084,92.817 299.652,48.212 96.201,92.593 96.058,91.935 299.654,47.522 299.727,47.538 
			501.23,92.159 		"/>
	</g>
	<g opacity="0.6721">
		<polygon fill="#47454F" points="501.084,93.258 299.652,48.651 96.201,93.033 96.058,92.375 299.654,47.962 299.727,47.978 
			501.23,92.6 		"/>
	</g>
	<g opacity="0.6557">
		<polygon fill="#47454F" points="501.084,93.697 299.652,49.092 96.201,93.473 96.058,92.814 299.654,48.402 299.727,48.418 
			501.23,93.039 		"/>
	</g>
	<g opacity="0.6393">
		<polygon fill="#47454F" points="501.084,94.138 299.652,49.531 96.201,93.912 96.058,93.254 299.654,48.842 299.727,48.857 
			501.23,93.479 		"/>
	</g>
	<g opacity="0.6229">
		<polygon fill="#47454F" points="501.084,94.577 299.652,49.972 96.201,94.353 96.058,93.694 299.654,49.282 299.727,49.298 
			501.23,93.919 		"/>
	</g>
	<g opacity="0.6066">
		<polygon fill="#47454F" points="501.084,95.018 299.652,50.412 96.201,94.793 96.058,94.135 299.654,49.723 299.727,49.738 
			501.23,94.359 		"/>
	</g>
	<g opacity="0.5902">
		<polygon fill="#47454F" points="501.084,95.457 299.652,50.852 96.201,95.233 96.058,94.575 299.654,50.162 299.727,50.178 
			501.23,94.799 		"/>
	</g>
	<g opacity="0.5738">
		<polygon fill="#47454F" points="501.084,95.897 299.652,51.291 96.201,95.673 96.058,95.015 299.654,50.602 299.727,50.617 
			501.23,95.239 		"/>
	</g>
	<g opacity="0.5574">
		<polygon fill="#47454F" points="501.084,96.338 299.652,51.731 96.201,96.112 96.058,95.454 299.654,51.042 299.727,51.058 
			501.23,95.68 		"/>
	</g>
	<g opacity="0.541">
		<polygon fill="#47454F" points="501.084,96.777 299.652,52.172 96.201,96.554 96.058,95.896 299.654,51.482 299.727,51.498 
			501.23,96.119 		"/>
	</g>
	<g opacity="0.5246">
		<polygon fill="#47454F" points="501.084,97.218 299.652,52.611 96.201,96.993 96.058,96.335 299.654,51.922 299.727,51.938 
			501.23,96.56 		"/>
	</g>
	<g opacity="0.5082">
		<polygon fill="#47454F" points="501.084,97.657 299.652,53.052 96.201,97.433 96.058,96.774 299.654,52.362 299.727,52.378 
			501.23,96.999 		"/>
	</g>
	<g opacity="0.4918">
		<polygon fill="#47454F" points="501.084,98.098 299.652,53.491 96.201,97.873 96.058,97.215 299.654,52.802 299.727,52.817 
			501.23,97.439 		"/>
	</g>
	<g opacity="0.4754">
		<polygon fill="#47454F" points="501.084,98.537 299.652,53.932 96.201,98.313 96.058,97.655 299.654,53.242 299.727,53.258 
			501.23,97.879 		"/>
	</g>
	<g opacity="0.459">
		<polygon fill="#47454F" points="501.084,98.978 299.652,54.371 96.201,98.753 96.058,98.095 299.654,53.682 299.727,53.697 
			501.23,98.319 		"/>
	</g>
	<g opacity="0.4426">
		<polygon fill="#47454F" points="501.084,99.417 299.652,54.812 96.201,99.192 96.058,98.534 299.654,54.122 299.727,54.138 
			501.23,98.759 		"/>
	</g>
	<g opacity="0.4262">
		<polygon fill="#47454F" points="501.084,99.857 299.652,55.252 96.201,99.633 96.058,98.975 299.654,54.563 299.727,54.578 
			501.23,99.199 		"/>
	</g>
	<g opacity="0.4098">
		<polygon fill="#47454F" points="501.084,100.298 299.652,55.691 96.201,100.073 96.058,99.415 299.654,55.002 299.727,55.018 
			501.23,99.64 		"/>
	</g>
	<g opacity="0.3934">
		<polygon fill="#47454F" points="501.084,100.737 299.652,56.132 96.201,100.513 96.058,99.854 299.654,55.442 299.727,55.458 
			501.23,100.079 		"/>
	</g>
	<g opacity="0.377">
		<polygon fill="#47454F" points="501.084,101.178 299.652,56.571 96.201,100.953 96.058,100.295 299.654,55.882 299.727,55.897 
			501.23,100.52 		"/>
	</g>
	<g opacity="0.3607">
		<polygon fill="#47454F" points="501.084,101.618 299.652,57.011 96.201,101.393 96.058,100.734 299.654,56.321 299.727,56.337 
			501.23,100.96 		"/>
	</g>
	<g opacity="0.3443">
		<polygon fill="#47454F" points="501.084,102.058 299.652,57.452 96.201,101.833 96.058,101.175 299.654,56.763 299.727,56.778 
			501.23,101.399 		"/>
	</g>
	<g opacity="0.3279">
		<polygon fill="#47454F" points="501.084,102.497 299.652,57.892 96.201,102.272 96.058,101.614 299.654,57.202 299.727,57.218 
			501.23,101.839 		"/>
	</g>
	<g opacity="0.3115">
		<polygon fill="#47454F" points="501.084,102.938 299.652,58.331 96.201,102.713 96.058,102.055 299.654,57.642 299.727,57.657 
			501.23,102.279 		"/>
	</g>
	<g opacity="0.2951">
		<polygon fill="#47454F" points="501.084,103.378 299.652,58.771 96.201,103.153 96.058,102.495 299.654,58.082 299.727,58.098 
			501.23,102.72 		"/>
	</g>
	<g opacity="0.2787">
		<polygon fill="#47454F" points="501.084,103.817 299.652,59.211 96.201,103.593 96.058,102.935 299.654,58.521 299.727,58.537 
			501.23,103.159 		"/>
	</g>
	<g opacity="0.2623">
		<polygon fill="#47454F" points="501.084,104.258 299.652,59.651 96.201,104.033 96.058,103.375 299.654,58.962 299.727,58.978 
			501.23,103.6 		"/>
	</g>
	<g opacity="0.2459">
		<polygon fill="#47454F" points="501.084,104.698 299.652,60.092 96.201,104.473 96.058,103.814 299.654,59.402 299.727,59.418 
			501.23,104.04 		"/>
	</g>
	<g opacity="0.2295">
		<polygon fill="#47454F" points="501.084,105.138 299.652,60.531 96.201,104.913 96.058,104.255 299.654,59.842 299.727,59.857 
			501.23,104.479 		"/>
	</g>
	<g opacity="0.2131">
		<polygon fill="#47454F" points="501.084,105.578 299.652,60.972 96.201,105.354 96.058,104.695 299.654,60.282 299.727,60.298 
			501.23,104.92 		"/>
	</g>
	<g opacity="0.1967">
		<polygon fill="#47454F" points="501.084,106.018 299.652,61.411 96.201,105.793 96.058,105.135 299.654,60.722 299.727,60.737 
			501.23,105.359 		"/>
	</g>
	<g opacity="0.1803">
		<polygon fill="#47454F" points="501.084,106.458 299.652,61.852 96.201,106.233 96.058,105.575 299.654,61.162 299.727,61.178 
			501.23,105.8 		"/>
	</g>
	<g opacity="0.1639">
		<polygon fill="#47454F" points="501.084,106.897 299.652,62.292 96.201,106.673 96.058,106.015 299.654,61.603 299.727,61.618 
			501.23,106.239 		"/>
	</g>
	<g opacity="0.1475">
		<polygon fill="#47454F" points="501.084,107.338 299.652,62.731 96.201,107.113 96.058,106.455 299.654,62.042 299.727,62.058 
			501.23,106.68 		"/>
	</g>
	<g opacity="0.1311">
		<polygon fill="#47454F" points="501.084,107.777 299.652,63.171 96.201,107.554 96.058,106.896 299.654,62.481 299.727,62.497 
			501.23,107.119 		"/>
	</g>
	<g opacity="0.1148">
		<polygon fill="#47454F" points="501.084,108.218 299.652,63.611 96.201,107.993 96.058,107.335 299.654,62.922 299.727,62.938 
			501.23,107.56 		"/>
	</g>
	<g opacity="0.0984">
		<polygon fill="#47454F" points="501.084,108.658 299.652,64.052 96.201,108.433 96.058,107.774 299.654,63.362 299.727,63.378 
			501.23,108 		"/>
	</g>
	<g opacity="0.082">
		<polygon fill="#47454F" points="501.084,109.098 299.652,64.491 96.201,108.873 96.058,108.215 299.654,63.802 299.727,63.817 
			501.23,108.439 		"/>
	</g>
	<g opacity="0.0656">
		<polygon fill="#47454F" points="501.084,109.538 299.652,64.932 96.201,109.313 96.058,108.655 299.654,64.242 299.727,64.258 
			501.23,108.88 		"/>
	</g>
	<g opacity="0.0492">
		<polygon fill="#47454F" points="501.084,109.978 299.652,65.371 96.201,109.753 96.058,109.095 299.654,64.682 299.727,64.697 
			501.23,109.319 		"/>
	</g>
	<g opacity="0.0328">
		<polygon fill="#47454F" points="501.084,110.418 299.652,65.812 96.201,110.193 96.058,109.535 299.654,65.122 299.727,65.138 
			501.23,109.76 		"/>
	</g>
	<g opacity="0.0164">
		<polygon fill="#47454F" points="501.084,110.858 299.652,66.252 96.201,110.633 96.058,109.975 299.654,65.563 299.727,65.578 
			501.23,110.2 		"/>
	</g>
	<g opacity="0">
		<polygon fill="#47454F" points="501.084,111.298 299.652,66.691 96.201,111.073 96.058,110.415 299.654,66.002 299.727,66.018 
			501.23,110.64 		"/>
	</g>
</g>
<rect x="266.079" y="122.581" fill="#3F5770" width="40.767" height="84.869"/>
<rect x="312.118" y="122.581" fill="#3F5770" width="40.767" height="86.217"/>
<rect x="357.376" y="122.581" fill="#3F5770" width="40.767" height="86.217"/>
<polygon fill="#323C49" points="198.396,214.187 183.4,235.534 183.4,99.215 198.396,99.215 "/>
<rect x="136.635" y="99.214" fill="#46607E" width="47.551" height="117.892"/>
<rect x="358.274" y="209.451" fill="#332820" width="39.46" height="3.707"/>
<path fill="#5D5B52" d="M397.081,210.104v2.4h-38.153v-2.4H397.081L397.081,210.104z M398.388,208.798h-40.767v5.014h40.767V208.798
	L398.388,208.798z"/>
<rect x="358.274" y="163.134" fill="#332820" width="39.46" height="3.707"/>
<path fill="#5D5B52" d="M397.081,163.787v2.4h-38.153v-2.4H397.081L397.081,163.787z M398.388,162.48h-40.767v5.014h40.767V162.48
	L398.388,162.48z"/>
<rect x="266.672" y="209.451" fill="#332820" width="39.461" height="3.707"/>
<path fill="#5D5B52" d="M305.479,210.104v2.4h-38.154v-2.4H305.479L305.479,210.104z M306.786,208.798h-40.768v5.014h40.768V208.798
	L306.786,208.798z"/>
<rect x="266.672" y="163.134" fill="#332820" width="39.461" height="3.707"/>
<path fill="#5D5B52" d="M305.479,163.787v2.4h-38.154v-2.4H305.479L305.479,163.787z M306.786,162.48h-40.768v5.014h40.768V162.48
	L306.786,162.48z"/>
<polygon fill="#323C49" points="251.278,214.187 236.281,235.534 236.281,99.215 251.278,99.215 "/>
<polygon fill="#323C49" points="280.845,141.205 240.444,211.281 240.444,143.004 252.586,141.205 "/>
<rect x="240.444" y="143.004" fill="#46607E" width="34.079" height="72.769"/>
<polygon fill="#323C49" points="280.845,198.025 274.523,215.989 274.523,143.004 280.845,141.205 "/>
<rect x="189.516" y="99.215" fill="#46607E" width="47.552" height="127.336"/>
<polygon fill="#323C49" points="149.366,213.078 98.131,235.534 98.131,99.215 149.366,99.215 "/>
<rect x="50.58" y="99.215" fill="#46607E" width="47.551" height="136.319"/>
<rect x="104.475" y="99.215" fill="#46607E" width="47.552" height="136.319"/>
<polygon fill="#323C49" points="180.018,219.716 151.914,235.534 151.914,99.215 180.018,99.215 "/>
<g>
	<rect x="166.658" y="99.215" fill="#664C33" width="1.123" height="136.319"/>
</g>
<polygon fill="#323C49" points="230.769,215.769 204.909,235.534 204.909,109.32 230.769,109.32 "/>
<rect x="158.145" y="109.32" fill="#46607E" width="47.551" height="126.214"/>
<polygon fill="#323C49" points="451.624,199.604 478.754,222.06 478.754,92.479 451.624,92.479 "/>
<rect x="478.754" y="92.479" fill="#517191" width="43.046" height="129.581"/>
<rect x="440.579" y="99.215" fill="#46607E" width="47.553" height="129.581"/>
<polygon fill="#323C49" points="412.587,212.978 440.693,228.796 440.693,99.215 412.587,99.215 "/>
<polygon fill="#323C49" points="369.102,212.614 387.696,228.796 387.696,99.215 369.102,99.215 "/>
<rect x="386.91" y="99.215" fill="#46607E" width="47.551" height="129.581"/>
<g>
	<rect x="73.933" y="99.215" fill="#96724B" width="1.123" height="136.319"/>
</g>
<g>
	<rect x="127.688" y="99.215" fill="#96724B" width="1.123" height="136.319"/>
</g>
<g>
	<rect x="181.492" y="109.32" fill="#96724B" width="1.123" height="126.214"/>
</g>
<g>
	<rect x="214.938" y="109.32" fill="#664C33" width="1.123" height="126.214"/>
</g>
<g>
	<rect x="223.695" y="109.32" fill="#664C33" width="1.123" height="126.214"/>
</g>
<g>
	<g>
		<rect x="50.58" y="117.963" fill="#96724B" width="47.551" height="1.123"/>
	</g>
	<g>
		<rect x="50.58" y="215.87" fill="#96724B" width="47.551" height="1.123"/>
	</g>
	<g>
		<rect x="50.58" y="196.289" fill="#96724B" width="47.551" height="1.123"/>
	</g>
	<g>
		<rect x="50.58" y="176.707" fill="#96724B" width="47.551" height="1.123"/>
	</g>
	<g>
		<rect x="50.58" y="157.126" fill="#96724B" width="47.551" height="1.123"/>
	</g>
	<g>
		<rect x="50.58" y="137.544" fill="#96724B" width="47.551" height="1.123"/>
	</g>
</g>
<g>
	<g>
		<rect x="104.475" y="215.87" fill="#96724B" width="47.552" height="1.123"/>
	</g>
	<g>
		<rect x="104.475" y="176.707" fill="#96724B" width="47.552" height="1.123"/>
	</g>
	<g>
		<rect x="104.475" y="137.544" fill="#96724B" width="47.552" height="1.123"/>
	</g>
</g>
<g>
	<g>
		<rect x="158.277" y="209.642" fill="#96724B" width="47.552" height="1.275"/>
	</g>
	<g>
		<rect x="158.277" y="184.401" fill="#96724B" width="47.552" height="1.275"/>
	</g>
	<g>
		<rect x="158.277" y="159.162" fill="#96724B" width="47.552" height="1.275"/>
	</g>
	<g>
		<rect x="158.277" y="133.922" fill="#96724B" width="47.552" height="1.275"/>
	</g>
</g>
<rect x="51.001" y="116.855" fill="#1B1508" width="46.675" height="3.486"/>
<path fill="#5D5B52" d="M97.022,117.508v2.18l-45.368,0.002v-2.18L97.022,117.508L97.022,117.508z M98.329,116.201l-47.981,0.002
	v4.793l47.981-0.002V116.201L98.329,116.201z"/>
<rect x="72.405" y="116.201" fill="#5D5B52" width="3.867" height="4.795"/>
<rect x="51.001" y="136.363" fill="#1B1508" width="46.675" height="3.484"/>
<path fill="#5D5B52" d="M97.022,137.017v2.178H51.654v-2.178H97.022L97.022,137.017z M98.329,135.71H50.348v4.791h47.981V135.71
	L98.329,135.71z"/>
<rect x="72.405" y="135.71" fill="#5D5B52" width="3.867" height="4.791"/>
<rect x="51.001" y="155.945" fill="#1B1508" width="46.675" height="3.484"/>
<path fill="#5D5B52" d="M97.022,156.599v2.178H51.654v-2.178H97.022L97.022,156.599z M98.329,155.292H50.348v4.791h47.981V155.292
	L98.329,155.292z"/>
<rect x="72.405" y="155.294" fill="#5D5B52" width="3.867" height="4.789"/>
<rect x="51.001" y="175.526" fill="#1B1508" width="46.675" height="3.484"/>
<path fill="#5D5B52" d="M97.022,176.18v2.178H51.654v-2.178H97.022L97.022,176.18z M98.329,174.873H50.348v4.791h47.981V174.873
	L98.329,174.873z"/>
<rect x="72.407" y="174.873" fill="#5D5B52" width="3.865" height="4.793"/>
<rect x="51.001" y="195.108" fill="#1B1508" width="46.675" height="3.484"/>
<path fill="#5D5B52" d="M97.022,195.762v2.178H51.654v-2.178H97.022L97.022,195.762z M98.329,194.455H50.348v4.791h47.981V194.455
	L98.329,194.455z"/>
<rect x="72.407" y="194.457" fill="#5D5B52" width="3.865" height="4.793"/>
<rect x="98.131" y="116.129" fill="#47463F" width="6.344" height="4.791"/>
<rect x="98.131" y="135.71" fill="#47463F" width="6.438" height="4.791"/>
<rect x="104.453" y="136.363" fill="#1B1508" width="46.676" height="3.484"/>
<path fill="#5D5B52" d="M150.476,137.017v2.178h-45.369v-2.178H150.476L150.476,137.017z M151.782,135.71H103.8v4.791h47.982V135.71
	L151.782,135.71z"/>
<rect x="125.858" y="135.71" fill="#5D5B52" width="3.865" height="4.791"/>
<rect x="151.583" y="135.71" fill="#47463F" width="6.438" height="4.791"/>
<rect x="158.125" y="132.817" fill="#332820" width="46.674" height="3.484"/>
<path fill="#5D5B52" d="M204.146,133.471v2.178h-45.367v-2.178H204.146L204.146,133.471z M205.452,132.164h-47.98v4.791h47.98
	V132.164L205.452,132.164z"/>
<rect x="179.528" y="132.164" fill="#5D5B52" width="3.865" height="4.791"/>
<g>
	<polygon fill="#47463F" points="205.814,132.679 230.655,130.531 230.655,134.195 205.814,136.343 	"/>
	<path fill="#47463F" d="M230.094,131.143v2.537l-23.718,2.052v-2.537L230.094,131.143L230.094,131.143z M231.217,129.919
		l-25.964,2.245v4.791l25.964-2.245V129.919L231.217,129.919z"/>
</g>
<rect x="158.125" y="158.058" fill="#332820" width="46.674" height="3.484"/>
<path fill="#5D5B52" d="M204.146,158.711v2.178h-45.367v-2.178H204.146L204.146,158.711z M205.452,157.404h-47.98v4.791h47.98
	V157.404L205.452,157.404z"/>
<rect x="179.528" y="157.404" fill="#5D5B52" width="3.865" height="4.791"/>
<g>
	<polygon fill="#47463F" points="205.814,157.869 230.655,153.142 230.655,156.791 205.814,161.517 	"/>
	<path fill="#47463F" d="M230.094,153.819v2.507l-23.718,4.513v-2.505L230.094,153.819L230.094,153.819z M231.217,152.463
		l-25.964,4.941v4.791l25.964-4.939V152.463L231.217,152.463z"/>
</g>
<g>
	<rect x="387.811" y="224.976" fill="#47463F" width="46.674" height="3.484"/>
	<path fill="#47463F" d="M433.831,225.629v2.178h-45.367v-2.178H433.831L433.831,225.629z M435.138,224.322h-47.98v4.791h47.98
		V224.322L435.138,224.322z"/>
</g>
<rect x="409.216" y="224.322" fill="#5D5B52" width="3.865" height="4.791"/>
<g>
	<polygon fill="#33271F" points="369.663,213.251 369.663,209.938 386.795,224.581 386.795,227.895 	"/>
	<path fill="#604732" d="M370.225,211.155l16.009,13.685v1.837l-16.009-13.685V211.155L370.225,211.155z M369.102,208.719v4.791
		l18.255,15.604v-4.791L369.102,208.719L369.102,208.719z"/>
</g>
<g>
	<rect x="387.811" y="161.801" fill="#47463F" width="46.674" height="3.484"/>
	<path fill="#47463F" d="M433.831,162.454v2.178h-45.367v-2.178H433.831L433.831,162.454z M435.138,161.147h-47.98v4.791h47.98
		V161.147L435.138,161.147z"/>
</g>
<rect x="409.216" y="161.147" fill="#96724B" width="3.865" height="4.791"/>
<g>
	<polygon fill="#33271F" points="369.663,158.702 369.663,155.109 386.795,161.536 386.795,165.128 	"/>
	<path fill="#604732" d="M370.225,155.919l16.009,6.007v2.393l-16.009-6.006V155.919L370.225,155.919z M369.102,154.299v4.792
		l18.255,6.848v-4.791L369.102,154.299L369.102,154.299z"/>
</g>
<rect x="158.125" y="182.863" fill="#332820" width="46.674" height="3.487"/>
<path fill="#5D5B52" d="M204.146,183.517v2.181h-45.367v-2.181H204.146L204.146,183.517z M205.452,182.21h-47.98v4.794h47.98V182.21
	L205.452,182.21z"/>
<rect x="179.528" y="182.21" fill="#5D5B52" width="3.865" height="4.794"/>
<g>
	<polygon fill="#47463F" points="205.814,182.637 230.655,175.764 230.655,179.39 205.814,186.266 	"/>
	<path fill="#47463F" d="M230.094,176.501v2.461l-23.718,6.566v-2.464L230.094,176.501L230.094,176.501z M231.217,175.025
		l-25.964,7.185v4.794l25.964-7.188V175.025L231.217,175.025z"/>
</g>
<rect x="158.125" y="208.104" fill="#332820" width="46.674" height="3.486"/>
<path fill="#5D5B52" d="M204.146,208.757v2.18h-45.367v-2.18H204.146L204.146,208.757z M205.452,207.45h-47.98v4.793h47.98V207.45
	L205.452,207.45z"/>
<rect x="179.528" y="207.45" fill="#5D5B52" width="3.865" height="4.793"/>
<g>
	<polygon fill="#47463F" points="205.814,207.844 230.655,198.818 230.655,202.415 205.814,211.441 	"/>
	<path fill="#47463F" d="M230.094,199.62v2.401l-23.718,8.619v-2.403L230.094,199.62L230.094,199.62z M231.217,198.018
		l-25.964,9.433v4.793l25.964-9.435V198.018L231.217,198.018z"/>
</g>
<rect x="98.131" y="155.292" fill="#47463F" width="6.344" height="4.791"/>
<polygon fill="#47463F" points="104.569,179.218 98.131,179.666 98.131,174.875 104.569,174.425 "/>
<rect x="104.453" y="175.526" fill="#1B1508" width="46.676" height="3.484"/>
<path fill="#5D5B52" d="M150.476,176.18v2.178h-45.369v-2.178H150.476L150.476,176.18z M151.782,174.873H103.8v4.791h47.982V174.873
	L151.782,174.873z"/>
<rect x="125.858" y="174.873" fill="#5D5B52" width="3.865" height="4.793"/>
<polygon fill="#47463F" points="158.021,179.218 151.583,179.666 151.583,174.875 158.021,174.425 "/>
<polygon fill="#47463F" points="104.475,198.126 98.132,199.25 98.131,194.457 104.475,193.333 "/>
<polygon fill="#47463F" points="104.453,217.034 98.131,218.831 98.131,214.04 104.453,212.243 "/>
<rect x="51.001" y="214.689" fill="#1B1508" width="46.675" height="3.484"/>
<path fill="#5D5B52" d="M97.022,215.343v2.178l-45.368,0.002v-2.18H97.022L97.022,215.343z M98.329,214.036H50.348v4.793
	l47.981-0.002V214.036L98.329,214.036z"/>
<rect x="72.407" y="214.038" fill="#5D5B52" width="3.865" height="4.793"/>
<polygon fill="#47463F" points="158.246,217.034 151.808,218.831 151.808,214.04 158.246,212.243 "/>
<rect x="104.679" y="214.689" fill="#1B1508" width="46.675" height="3.484"/>
<path fill="#5D5B52" d="M150.7,215.343v2.178l-45.368,0.002v-2.18H150.7L150.7,215.343z M152.007,214.036h-47.981v4.793
	l47.981-0.002V214.036L152.007,214.036z"/>
<rect x="126.083" y="214.038" fill="#5D5B52" width="3.866" height="4.793"/>
<polygon fill="#47463F" points="104.453,235.236 98.131,237.93 98.131,233.139 104.453,230.442 "/>
<rect x="51.001" y="233.788" fill="#1B1508" width="46.675" height="3.486"/>
<path fill="#5D5B52" d="M97.022,234.441v2.18H51.654v-2.18H97.022L97.022,234.441z M98.329,233.135H50.348v4.793h47.981V233.135
	L98.329,233.135z"/>
<rect x="72.407" y="233.139" fill="#5D5B52" width="3.865" height="4.791"/>
<polygon fill="#47463F" points="158.246,235.236 151.808,237.93 151.808,233.139 158.246,230.442 "/>
<rect x="104.679" y="233.788" fill="#1B1508" width="46.675" height="3.486"/>
<path fill="#5D5B52" d="M150.7,234.441v2.18h-45.368v-2.18H150.7L150.7,234.441z M152.007,233.135h-47.981v4.793h47.981V233.135
	L152.007,233.135z"/>
<rect x="126.083" y="233.139" fill="#5D5B52" width="3.866" height="4.791"/>
<polygon fill="#47463F" points="211.746,233.888 205.308,237.93 205.308,233.139 211.746,229.097 "/>
<rect x="158.178" y="233.788" fill="#332820" width="46.675" height="3.486"/>
<path fill="#5D5B52" d="M204.199,234.441v2.18h-45.368v-2.18H204.199L204.199,234.441z M205.506,233.135h-47.981v4.793h47.981
	V233.135L205.506,233.135z"/>
<rect x="179.583" y="233.139" fill="#5D5B52" width="3.865" height="4.791"/>
<polygon fill="#323C49" points="268.944,160.517 211.701,235.534 211.701,167.255 238.459,160.517 "/>
<rect x="211.701" y="167.255" fill="#46607E" width="47.552" height="68.279"/>
<rect x="216.669" y="118.524" fill="#46607E" width="47.552" height="39.784"/>
<rect x="262.687" y="118.524" fill="#323C49" width="7.156" height="41.317"/>
<polygon fill="#323C49" points="268.944,217.569 259.253,235.534 259.253,167.255 268.944,160.517 "/>
<g>
	<polygon fill="#96724B" points="235.927,235.534 235.028,235.534 235.028,166.937 254.498,160.093 254.797,160.94 235.927,167.573 
			"/>
</g>
<g>
	<rect x="263.537" y="164.009" fill="#664C33" width="1.123" height="59.737"/>
</g>
<polygon fill="#47463F" points="269.394,218.447 258.453,237.93 258.453,233.139 269.394,213.656 "/>
<rect x="211.324" y="233.788" fill="#332820" width="46.676" height="3.486"/>
<path fill="#5D5B52" d="M257.347,234.441v2.18h-45.369v-2.18H257.347L257.347,234.441z M258.653,233.135h-47.982v4.793h47.982
	V233.135L258.653,233.135z"/>
<rect x="232.729" y="233.139" fill="#5D5B52" width="3.865" height="4.791"/>
<rect x="138.25" y="140.501" opacity="0.5" fill="#754C29" width="3.143" height="34.372"/>
<rect x="138.25" y="99.215" opacity="0.5" fill="#754C29" width="3.143" height="36.569"/>
<rect x="114.521" y="140.501" opacity="0.5" fill="#754C29" width="3.145" height="34.372"/>
<rect x="138.25" y="179.666" opacity="0.5" fill="#754C29" width="3.143" height="34.372"/>
<rect x="114.521" y="179.666" opacity="0.5" fill="#754C29" width="3.145" height="34.372"/>
<polygon opacity="0.5" fill="#754C29" points="117.668,222.005 114.521,221.993 114.521,218.827 117.668,218.839 "/>
<polygon opacity="0.5" fill="#754C29" points="141.396,222.005 138.249,221.993 138.249,218.827 141.395,218.839 "/>
<polygon opacity="0.5" fill="#754C29" points="87.726,222.005 84.578,221.993 84.578,218.827 87.726,218.839 "/>
<polygon opacity="0.5" fill="#754C29" points="64.222,222.005 61.075,221.993 61.075,218.827 64.222,218.839 "/>
<polygon opacity="0.5" fill="#754C29" points="87.681,202.423 84.533,202.412 84.533,199.246 87.68,199.258 "/>
<polygon opacity="0.5" fill="#754C29" points="64.177,202.423 61.029,202.412 61.029,199.246 64.177,199.258 "/>
<polygon opacity="0.5" fill="#754C29" points="87.726,182.842 84.578,182.83 84.578,179.664 87.726,179.676 "/>
<polygon opacity="0.5" fill="#754C29" points="64.222,182.842 61.075,182.83 61.075,179.664 64.222,179.676 "/>
<polygon opacity="0.5" fill="#754C29" points="87.726,163.306 84.578,163.296 84.578,160.131 87.726,160.142 "/>
<polygon opacity="0.5" fill="#754C29" points="64.222,163.306 61.075,163.296 61.075,160.131 64.222,160.142 "/>
<polygon opacity="0.5" fill="#754C29" points="87.726,143.679 84.578,143.667 84.578,140.501 87.726,140.513 "/>
<polygon opacity="0.5" fill="#754C29" points="64.222,143.679 61.075,143.667 61.075,140.501 64.222,140.513 "/>
<polygon opacity="0.5" fill="#754C29" points="87.726,124.169 84.578,124.159 84.578,120.996 87.726,121.005 "/>
<polygon opacity="0.5" fill="#754C29" points="64.222,124.169 61.075,124.159 61.075,120.996 64.222,121.005 "/>
<polygon opacity="0.5" fill="#754C29" points="87.726,102.392 84.578,102.38 84.578,99.215 87.726,99.224 "/>
<polygon opacity="0.5" fill="#754C29" points="171.374,112.495 168.227,112.483 168.227,109.32 171.374,109.329 "/>
<polygon opacity="0.5" fill="#754C29" points="194.841,112.495 191.694,112.483 191.694,109.32 194.84,109.329 "/>
<polygon opacity="0.5" fill="#754C29" points="171.374,140.133 168.227,140.123 168.227,136.955 171.374,136.967 "/>
<polygon opacity="0.5" fill="#754C29" points="194.841,140.133 191.694,140.123 191.694,136.955 194.84,136.967 "/>
<polygon opacity="0.5" fill="#754C29" points="171.374,165.372 168.227,165.361 168.227,162.195 171.374,162.207 "/>
<polygon opacity="0.5" fill="#754C29" points="194.841,165.372 191.694,165.361 191.694,162.195 194.84,162.207 "/>
<polygon opacity="0.5" fill="#754C29" points="226.122,174.08 222.976,174.058 222.976,167.255 226.122,167.277 "/>
<polygon opacity="0.5" fill="#754C29" points="249.589,176.263 246.441,176.234 246.441,167.255 249.588,167.285 "/>
<polygon opacity="0.5" fill="#754C29" points="249.589,167.388 246.441,167.355 255.692,162.866 258.839,162.898 "/>
<polygon opacity="0.5" fill="#754C29" points="226.122,167.388 222.976,167.355 236.267,162.866 239.414,162.898 "/>
<polygon opacity="0.5" fill="#754C29" points="171.374,190.179 168.227,190.167 168.227,187.004 171.374,187.013 "/>
<polygon opacity="0.5" fill="#754C29" points="194.841,190.179 191.694,190.167 191.694,187.004 194.84,187.013 "/>
<polygon opacity="0.5" fill="#754C29" points="171.374,215.399 168.227,215.388 168.227,212.223 171.374,212.233 "/>
<polygon opacity="0.5" fill="#754C29" points="194.841,215.399 191.694,215.388 191.694,212.223 194.84,212.233 "/>
<polygon opacity="0.5" fill="#754C29" points="64.222,102.392 61.075,102.38 61.075,99.215 64.222,99.224 "/>
<rect x="114.521" y="99.215" opacity="0.5" fill="#754C29" width="3.145" height="36.567"/>
<g>
	
		<rect x="122.68" y="170.854" transform="matrix(0.998 -0.0639 0.0639 0.998 -10.7368 8.2884)" fill="#D1D3D4" width="3.18" height="2.448"/>
	<g opacity="0.4">
		<path fill="#895F3F" d="M125.778,170.755l0.156,2.443l-3.174,0.203l-0.154-2.443L125.778,170.755L125.778,170.755z
			 M126.198,170.278l-0.448,0.028l-3.172,0.203l-0.448,0.028l0.028,0.448l0.154,2.443l0.028,0.448l0.448-0.028l3.174-0.203
			l0.448-0.028l-0.028-0.448l-0.156-2.443L126.198,170.278L126.198,170.278z"/>
	</g>
</g>
<g>
	<rect x="223.732" y="163.746" fill="#96724B" width="41.581" height="0.898"/>
</g>
<g>
	
		<rect x="123.13" y="132.262" transform="matrix(0.9958 0.0916 -0.0916 0.9958 12.746 -10.8586)" fill="#D1D3D4" width="3.178" height="2.448"/>
	<g opacity="0.4">
		<path fill="#895F3F" d="M123.248,132.122l3.165,0.293l-0.224,2.436l-3.165-0.291L123.248,132.122L123.248,132.122z
			 M122.842,131.634l-0.041,0.447l-0.224,2.438l-0.041,0.447l0.447,0.041l3.165,0.291l0.447,0.041l0.041-0.447l0.224-2.436
			l0.041-0.447l-0.447-0.041l-3.165-0.293L122.842,131.634L122.842,131.634z"/>
	</g>
</g>
<g>
	
		<rect x="147.157" y="131.544" transform="matrix(0.9969 -0.0783 0.0783 0.9969 -9.9439 12.061)" fill="#D1D3D4" width="3.179" height="2.447"/>
	<g opacity="0.4">
		<path fill="#895F3F" d="M150.235,131.423l0.191,2.439l-3.169,0.249l-0.191-2.439L150.235,131.423L150.235,131.423z
			 M150.647,130.939l-0.447,0.035l-3.169,0.25l-0.448,0.035l0.035,0.447l0.191,2.439l0.035,0.447l0.448-0.035l3.169-0.248
			l0.447-0.036l-0.035-0.447l-0.191-2.439L150.647,130.939L150.647,130.939z"/>
	</g>
</g>
<polygon fill="#47463F" points="260.345,166.494 214.509,166.494 230.769,162.275 266.998,162.275 "/>
<g>
	
		<rect x="147.158" y="171.203" transform="matrix(0.9944 -0.1054 0.1054 0.9944 -17.3409 16.6338)" fill="#D1D3D4" width="3.179" height="2.447"/>
	<g opacity="0.4">
		<path fill="#895F3F" d="M150.196,171.042l0.261,2.434l-3.161,0.335l-0.259-2.434L150.196,171.042L150.196,171.042z
			 M150.595,170.548l-0.445,0.048l-3.16,0.335l-0.446,0.047l0.048,0.447l0.259,2.434l0.047,0.446l0.446-0.048l3.162-0.335
			l0.446-0.047l-0.048-0.447l-0.261-2.434L150.595,170.548L150.595,170.548z"/>
	</g>
</g>
<g>
	
		<rect x="122.68" y="209.794" transform="matrix(0.9957 -0.0925 0.0925 0.9957 -18.9813 12.396)" fill="#D1D3D4" width="3.179" height="2.448"/>
	<g opacity="0.4">
		<path fill="#895F3F" d="M125.738,209.652l0.228,2.438l-3.165,0.294l-0.228-2.438L125.738,209.652L125.738,209.652z
			 M126.144,209.164l-0.447,0.041l-3.164,0.294l-0.448,0.042l0.042,0.447l0.228,2.438l0.042,0.446l0.447-0.041l3.164-0.294
			l0.448-0.042l-0.042-0.447l-0.228-2.438L126.144,209.164L126.144,209.164z"/>
	</g>
</g>
<g>
	
		<rect x="146.634" y="209.057" transform="matrix(0.9929 0.1192 -0.1192 0.9929 26.1291 -16.1726)" fill="#D1D3D4" width="3.178" height="2.447"/>
	<g opacity="0.4">
		<path fill="#895F3F" d="M146.791,208.876l3.155,0.379l-0.291,2.43l-3.155-0.379L146.791,208.876L146.791,208.876z
			 M146.398,208.377l-0.054,0.445l-0.291,2.43l-0.053,0.446l0.445,0.054l3.155,0.379l0.446,0.053l0.054-0.445l0.291-2.43
			l0.053-0.446L150,208.809l-3.155-0.379L146.398,208.377L146.398,208.377z"/>
	</g>
</g>
<g>
	<rect x="239.204" y="118.524" fill="#96724B" width="1.123" height="40.159"/>
</g>
<g>
	<rect x="411.877" y="99.215" fill="#96724B" width="1.123" height="125.138"/>
</g>
<g>
	<rect x="463.527" y="99.215" fill="#96724B" width="1.123" height="125.138"/>
</g>
<g>
	<rect x="377.838" y="99.215" fill="#664C33" width="1.123" height="118.401"/>
</g>
<rect x="216.959" y="158.897" fill="#332820" width="46.674" height="3.484"/>
<path fill="#5D5B52" d="M262.979,159.551v2.178h-45.367v-2.178H262.979L262.979,159.551z M264.286,158.244h-47.98v4.791h47.98
	V158.244L264.286,158.244z"/>
<rect x="237.716" y="158.72" fill="#5D5B52" width="3.865" height="3.966"/>
<rect x="226.727" y="118.507" opacity="0.5" fill="#754C29" width="3.146" height="39.743"/>
<rect x="250.081" y="118.507" opacity="0.5" fill="#754C29" width="3.146" height="39.743"/>
<circle fill="#2A2F38" cx="431.945" cy="219.86" r="12.74"/>
<circle fill="#2A2F38" cx="465.534" cy="219.86" r="12.74"/>
<g>
	<rect x="402.893" y="138.261" fill="#EAF0F4" width="295.032" height="60.452"/>
	<g>
		<path fill="#A39396" d="M696.891,139.295v58.384H403.927v-58.384H696.891L696.891,139.295z M698.958,137.228H401.859v62.519
			h297.099V137.228L698.958,137.228z"/>
	</g>
</g>
<polygon fill="#1A2026" points="401.859,217.831 567.977,217.831 567.977,207.884 698.539,207.884 698.539,204.395 401.859,204.396 
	"/>
<rect x="637.35" y="204.395" fill="#1A2026" width="49.991" height="13.437"/>
<path fill="#517191" d="M723.321,161.695l-0.295-6.69l1.901-13.916c0,0,31.156,8.831,30.09,16.593
	c-1.072,7.759-6.156,6.688-6.156,6.688L723.321,161.695z"/>
<path fill="#A2B2D6" d="M724.259,146.938c0,0,19.001,4.128,30.552,9.17c-2.772-7.334-29.883-15.019-29.883-15.019l-1.901,13.916
	l0.032,0.733L724.259,146.938z"/>
<path fill="#445D7B" d="M723.026,155.005l0.295,6.69l25.54,2.675c0,0,5.084,1.07,6.156-6.688c0.204-1.478-0.765-2.993-2.456-4.478
	l-29.014-2.008L723.026,155.005z"/>
<g>
	<path fill="#FFF0FF" d="M769.974,213.763c0-9.543-7.738-17.281-17.285-17.281c-9.544,0-17.284,7.738-17.284,17.281
		c0,9.548,7.74,17.288,17.284,17.288C762.235,231.051,769.974,223.311,769.974,213.763z"/>
</g>
<path fill="#88BDED" d="M723.028,216.558v-62.323c28.915,0,31.554-0.452,42.504,0.951c1.034,0.131,1.757,0.471,2.454,0.89
	c8.651,5.152,13.815,33.617,13.815,47.852c0,2.624,0.266,5.326,0.279,7.902L723.028,216.558z"/>
<path fill="#F55640" d="M782.081,211.829c0.038,7.668,0.114,14.191,0.114,14.191h-59.167v-16.257L782.081,211.829z"/>
<g>
	<path fill="#517191" d="M773.345,186.633l-0.299-1.897c-0.805-5.105-2.266-9.421-3.963-14.414
		c-0.191-0.566-0.387-1.141-0.585-1.727l-0.612-1.821l3.639-1.227l0.613,1.82c0.197,0.583,0.393,1.155,0.585,1.719
		c1.749,5.162,3.263,9.618,4.116,15.053l0.299,1.898L773.345,186.633z"/>
</g>
<g>
	<path fill="#517191" d="M755.102,185.081l-3.247-0.049c0.113-7.537,0.233-19.949,0.063-21.164c0.051,0.35,0.372,0.955,1.055,1.187
		l0.514-1.532l-1.154-1.156l1.791-0.352c1.012,0.43,1.044,1.344,1.082,2.403c0.021,0.582,0.034,1.426,0.042,2.506
		c0.011,1.801,0.006,4.299-0.02,7.425C755.185,179.662,755.104,185.028,755.102,185.081z"/>
</g>
<path fill="#434C54" d="M723.432,203.613v1.35h16.202l1.917,24.891c0,0,35.462,0,38.218,0s3.413-3.174,3.413-5.272
	c0-2.096,0.038-12.059,0-20.082L723.432,203.613z"/>
<path fill="#88BDED" d="M723.432,201.937v3.267h16.202v10.516c0,0,37.379,0,40.135,0s3.413,0.181,3.413-1.916
	c0-2.098,0.038-2.955,0-10.98L723.432,201.937z"/>
<g>
	<polygon fill="#A2B2D6" points="783.22,203.485 776.742,203.485 753.173,200.047 731.893,200.052 731.893,199.019 753.248,199.019 
		776.817,202.457 783.22,202.452 	"/>
</g>
<polygon fill="#1A2026" points="776.814,225.64 776.814,217.843 776.814,216.447 775.158,216.447 774.08,225.64 "/>
<g>
	<polygon fill="#434C54" points="783.189,218.521 783.189,205.091 780.021,205.039 780.021,217.289 	"/>
</g>
<g>
	<path fill="#75A5C9" d="M781.987,201.453c-0.665-14.931-5.924-40.828-14.001-45.637c-0.697-0.418-1.42-0.757-2.454-0.89
		c-10.95-1.401-13.589-0.951-42.504-0.951v2.365c28.634-0.004,31.297-0.45,42.209,0.949c1.034,0.131,1.757,0.472,2.457,0.888
		c7.709,4.594,12.855,28.178,13.881,43.27L781.987,201.453z"/>
</g>
<g>
	<path fill="#75A5C9" d="M777.181,185.617l0.297,1.479l3.158,0.99c-0.96-6.097-2.787-13.421-4.546-18.629c0,0-1.024,0-3.152,0
		c0.124,0.371,0.251,0.743,0.374,1.104C775.063,175.727,776.327,180.184,777.181,185.617z"/>
</g>
<path fill="#445D7B" d="M776.991,201.736c0-9.658-2.947-24.773-7.514-35.198h-15.589v32.541l22.806,2.855h0.194L776.991,201.736z"/>
<g>
	<path fill="#39424B" d="M776.839,184.139l0.342,1.48l3.271,0.991c-1.196-7.768-3.313-14.808-5.282-20.076c0,0-1.319,0-3.447,0
		c0.124,0.369,0.874,2.19,1,2.552C774.472,174.248,775.985,178.704,776.839,184.139z"/>
</g>
<path fill="#39424B" d="M751.744,167.98c-6.011,0-10.724,0-11.427,0c-1.921,0,1.737,11.916,5.348,12.177
	c2.576,0.186,4.349,0.338,5.991,0.466C751.712,176.238,751.751,171.359,751.744,167.98z"/>
<path fill="#A2B2D6" d="M773.943,185.324h-10.481c0,0-2.417-3.006-4.549-3.211c-0.673-0.066-2.583-0.135-3.547-0.223v14.898
	l20.226,3.533C775.339,196.295,774.978,190.277,773.943,185.324z"/>
<path fill="#39424B" d="M772.841,180.712L772.841,180.712c0-0.002-0.002-0.01-0.004-0.015c-0.096-0.399-0.193-0.799-0.295-1.196
	c-0.016-0.05-0.026-0.101-0.042-0.152c-0.211-0.812-0.438-1.62-0.677-2.424c-0.014-0.048-0.028-0.092-0.04-0.137
	c-0.241-0.805-0.494-1.608-0.757-2.423c-0.019-0.055-0.033-0.11-0.053-0.163c-0.263-0.805-0.532-1.616-0.813-2.443
	c-0.029-0.088-0.059-0.175-0.089-0.261c-0.131-0.39-0.263-0.779-0.397-1.177c-0.191-0.566-0.388-1.141-0.584-1.727l-0.207-0.614
	c-3.795,0-9.13,0-13.634,0c0.006,1.68-0.002,3.809-0.023,6.368c-0.003,0.576-0.009,1.152-0.015,1.723
	c0,0.133-0.002,0.268-0.002,0.399c0,0.135-0.004,0.27-0.006,0.398c-0.016,1.371-0.026,2.685-0.042,3.843l0,0
	c0,0.058,0,0.118-0.002,0.173c1.725,0.146,3.383,0.249,4.345,0.341c2.131,0.207,4.548,3.211,4.548,3.211h9.535
	C773.377,183.155,773.126,181.923,772.841,180.712z"/>
<path fill="#88BDED" d="M774.24,186.506h-10.778c0,0-2.417-3.007-4.549-3.21c-0.673-0.066-2.583-0.137-3.547-0.223v14.898
	l20.521,3.236C775.634,197.184,775.274,191.458,774.24,186.506z"/>
<g>
	<polygon fill="#445D7B" points="777.276,202.469 753.191,198.923 723.044,198.927 723.044,198.151 753.248,198.151 777.39,201.701 
			"/>
</g>
<path fill="#434C54" d="M776.925,201.356v14.205c0,0-6.445,0-7.406,0c-0.96,0-1.254-0.185-1.439-0.518
	c-0.041-0.074-0.079-0.158-0.117-0.241c-1.793-5.628-6.62-12.777-10.77-12.777c-5.315,0-6.305,0-12.082,0
	c-3.399,0-6.82,4.192-9.061,8.636c-0.033,0.066-1.37,0-1.37,0v-2.912h-11.519c0,0-0.038,9.521-0.038,11.254
	c0,3.654,10.372,5.867,10.372,5.867h35.26c0,0,0-3.309,0-5.866c0-0.103-0.002-0.209-0.008-0.317c0-0.074-0.004-0.147-0.008-0.215
	c-0.076-0.94-0.221-1.766,0.62-1.766c0.69,0,6.598,0,6.598,0h7.286v-14.402l-1.204-0.957L776.925,201.356z"/>
<rect x="615.442" y="212.341" fill="#454F58" width="126.481" height="14.183"/>
<g opacity="0.7">
	<rect x="689.508" y="212.34" fill="#1A2026" width="48.507" height="14.183"/>
</g>
<g opacity="0.7">
	<rect x="620.331" y="212.34" fill="#1A2026" width="38.446" height="14.185"/>
</g>
<path fill="#434C54" d="M767.403,226.306c0,0,0-4.56,0-7.017c0-5.026-5.718-16.311-10.824-16.311c-5.109,0-5.774,0-11.326,0
	s-10.68,11.636-10.68,16.311c0,3.511,0,7.275,0,7.275L767.403,226.306z"/>
<path fill="#1A2026" d="M765.005,229.854c0,0,0-7.387,0-9.455c0-4.234-5.072-13.737-9.602-13.737c-4.53,0-4.088,0-9.012,0
	c-4.923,0-9.896,9.798-9.896,13.737c0,2.956,0,6.166,0,6.166l20.154,1.083l4.715,2.206H765.005z"/>
<polygon fill="#1A2026" points="767.141,218.803 776.507,218.803 776.507,216.769 776.507,216.708 766.593,216.708 "/>
<g>
	<circle fill="#2A2F38" cx="750.729" cy="222.33" r="12.74"/>
	<path fill="#A19FAA" d="M750.73,231.453c-5.031,0-9.124-4.093-9.124-9.123c0-5.029,4.093-9.12,9.124-9.12
		c5.029,0,9.121,4.091,9.121,9.12C759.852,227.36,755.76,231.453,750.73,231.453z"/>
</g>
<rect x="756.853" y="193.516" fill="#39424B" width="4.283" height="2.068"/>
<g opacity="0.7">
	<path fill="#88A59C" d="M767.92,219.289c0-5.026-5.719-16.311-10.826-16.311c-5.108,0-6.289,0-11.841,0
		c-1.746,0-3.497,1.152-5.077,2.875c1.337-1.219,2.765-1.989,4.19-1.989c5.553,0,7.067,0.095,12.175,0.095
		c5.106,0,10.345,11.283,10.345,16.312c0,1.785,0,4.687,0,6.136h1.034C767.92,226.406,767.92,221.746,767.92,219.289z"/>
</g>
<path fill="#A2B2D6" d="M737.729,166.781c-2.182,0,2.566,15.376,6.675,15.674c2.927,0.214,6.419,0.387,8.284,0.531l0.078-16.205
	H737.729z"/>
<path fill="#445D7B" d="M752.668,182.025c-1.867-0.145-4.598-0.317-7.525-0.528c-4.108-0.298-8.267-14.731-6.083-14.731h13.757
	L752.668,182.025z"/>
<path fill="#434C54" d="M657.255,229.057l-0.023-7.36c0-9.795-7.941-17.739-17.739-17.739c-9.795,0-17.739,7.944-17.739,17.739v7.36
	H657.255z"/>
<path fill="#39424B" d="M751.656,167.98c-6.01,0-10.636,0-11.339,0c-1.921,0,1.737,11.916,5.348,12.177
	c2.576,0.186,4.349,0.338,5.991,0.466c0.056-4.385,0.095-9.264,0.088-12.643H751.656z"/>
<path fill="#1A2026" d="M655.264,229.034l-0.021-7.387c0-8.698-7.051-15.751-15.751-15.751c-8.696,0-15.748,7.053-15.748,15.751
	v7.387H655.264z"/>
<g>
	<rect x="731.247" y="153.682" fill="#445D7B" width="1.291" height="54.154"/>
</g>
<path opacity="0.4" fill="#6499A1" d="M773.841,167.962c0.181,0.456,0.344,0.867,0.396,1.021c1.821,5.368,3.394,10.001,4.283,15.65
	l0.347,1.498l1.586,0.479c-1.092-7.089-2.949-13.564-4.764-18.648H773.841z"/>
<circle fill="#7F7F89" cx="750.73" cy="222.332" r="6.202"/>
<g>
	<circle fill="#2A2F38" cx="639.512" cy="222.33" r="12.74"/>
	<path fill="#A19FAA" d="M639.514,231.453c-5.031,0-9.124-4.093-9.124-9.123c0-5.029,4.093-9.12,9.124-9.12
		c5.029,0,9.121,4.091,9.121,9.12C648.635,227.36,644.543,231.453,639.514,231.453z"/>
</g>
<circle fill="#7F7F89" cx="639.513" cy="222.332" r="6.201"/>
<g>
	<path fill="#434C54" d="M464.508,229.057l-0.023-7.36c0-9.795-7.941-17.739-17.739-17.739c-9.795,0-17.736,7.944-17.736,17.739
		v7.36H464.508z"/>
	<path fill="#1A2026" d="M462.517,229.034l-0.021-7.387c0-8.698-7.05-15.751-15.749-15.751c-8.698,0-15.75,7.053-15.75,15.751v7.387
		H462.517z"/>
	<g>
		<path fill="#2A2F38" d="M434.026,222.33c0-7.033,5.705-12.737,12.738-12.737c7.039,0,12.74,5.704,12.74,12.737
			c0,7.036-5.701,12.74-12.74,12.74C439.731,235.07,434.026,229.366,434.026,222.33z"/>
		<path fill="#A19FAA" d="M446.765,231.453c-5.029,0-9.121-4.093-9.121-9.123c0-5.029,4.092-9.12,9.121-9.12
			c5.03,0,9.123,4.091,9.123,9.12C455.888,227.36,451.795,231.453,446.765,231.453z"/>
	</g>
	<path fill="#7F7F89" d="M440.564,222.332c0-3.427,2.778-6.2,6.2-6.2c3.426,0,6.204,2.773,6.204,6.2
		c0,3.424-2.778,6.202-6.204,6.202C443.343,228.534,440.564,225.756,440.564,222.332z"/>
	<path fill="#434C54" d="M498.096,229.057l-0.022-7.36c0-9.795-7.941-17.739-17.739-17.739c-9.796,0-17.737,7.944-17.737,17.739
		v7.36H498.096z"/>
	<path fill="#1A2026" d="M496.107,229.034l-0.022-7.387c0-8.698-7.051-15.751-15.749-15.751s-15.75,7.053-15.75,15.751v7.387
		H496.107z"/>
	<g>
		<circle fill="#2A2F38" cx="480.354" cy="222.33" r="12.74"/>
		<path fill="#A19FAA" d="M480.354,231.453c-5.03,0-9.123-4.093-9.123-9.123c0-5.029,4.093-9.12,9.123-9.12s9.122,4.091,9.122,9.12
			C489.477,227.36,485.385,231.453,480.354,231.453z"/>
	</g>
	<circle fill="#7F7F89" cx="480.354" cy="222.332" r="6.202"/>
</g>
<rect x="691.664" y="209.43" fill="#93939D" width="41.12" height="18.315"/>
<rect x="691.664" y="209.43" opacity="0.6" fill="#DFDFDF" width="41.12" height="2.757"/>
<rect x="691.664" y="224.722" fill="#7F7F89" width="41.12" height="3.114"/>
<g>
	<rect x="695.879" y="209.034" fill="#1A2026" width="2.066" height="19.203"/>
</g>
<g>
	<rect x="726.417" y="208.948" fill="#1A2026" width="2.066" height="19.203"/>
</g>
<polygon fill="#EEEEEE" points="783.402,216.453 783.402,206.902 781.522,206.902 781.522,215.518 "/>
<rect x="767.331" y="225.163" fill="#88A59C" width="9.483" height="1.243"/>
<g opacity="0.5">
	<path fill="#FFFFFF" d="M765.532,154.927c1.034,0.133,1.757,0.472,2.454,0.89c1.666,0.99,3.214,2.869,4.622,5.357l-1.148,0.936
		c-1.175-1.779-2.432-3.135-3.766-3.932c-0.7-0.416-1.423-0.757-2.457-0.888L765.532,154.927z"/>
</g>
<rect x="401.859" y="204.868" fill="#17161B" width="10.728" height="12.963"/>
<polygon fill="#1A2026" points="413.111,194.648 403.679,193.976 403.679,139.292 413.111,139.292 "/>
<rect x="401.859" y="193.285" fill="#A39396" width="297.099" height="11.627"/>
<rect x="412.663" y="193.285" fill="#C1B6B8" width="286.295" height="11.627"/>
<polygon fill="#3E3C39" points="583.159,235.843 571.424,232.394 571.424,113.02 583.159,113.02 "/>
<rect x="312.771" y="209.451" fill="#332820" width="39.46" height="3.707"/>
<path fill="#5D5B52" d="M351.578,210.104v2.4h-38.153v-2.4H351.578L351.578,210.104z M352.885,208.798h-40.767v5.014h40.767V208.798
	L352.885,208.798z"/>
<rect x="312.771" y="163.134" fill="#332820" width="39.46" height="3.707"/>
<path fill="#5D5B52" d="M351.578,163.787v2.4h-38.153v-2.4H351.578L351.578,163.787z M352.885,162.48h-40.767v5.014h40.767V162.48
	L352.885,162.48z"/>
<g>
	<polygon fill="#666461" points="19.966,237.742 13.229,237.742 13.229,81.638 15.813,81.019 299.878,13.046 300.662,13.233 
		586.527,81.638 586.527,236.194 579.791,236.194 579.791,86.952 299.878,19.974 19.966,86.952 	"/>
</g>
<path opacity="0.3" fill="#695F6D" d="M561.107,137.228H401.859v71.5l0,0v9.104h17.507c-0.105,0.662-0.161,1.339-0.161,2.029
	c0,7.036,5.704,12.74,12.741,12.74c2.057,0,4-0.492,5.721-1.357c2.312,2.361,5.534,3.827,9.098,3.827
	c4.357,0,8.202-2.188,10.499-5.523c2.227,1.903,5.112,3.054,8.271,3.054c2.058,0,3.998-0.492,5.721-1.357
	c2.313,2.361,5.535,3.827,9.1,3.827c4.565,0,8.569-2.403,10.819-6.014h6.922l-0.022-7.36c0-1.327-0.15-2.622-0.428-3.865h46.275
	L561.107,137.228z"/>
</svg>
