<?xml version="1.0" encoding="utf-8"?>
<!-- Generator: Adobe Illustrator 16.0.0, SVG Export Plug-In . SVG Version: 6.00 Build 0)  -->
<!DOCTYPE svg PUBLIC "-//W3C//DTD SVG 1.1//EN" "http://www.w3.org/Graphics/SVG/1.1/DTD/svg11.dtd">
<svg version="1.1" id="Layer_1" xmlns="http://www.w3.org/2000/svg" xmlns:xlink="http://www.w3.org/1999/xlink" x="0px" y="0px"
	 width="437px" height="346px" viewBox="0 0 437 346" enable-background="new 0 0 437 346" xml:space="preserve">
<path fill="#66362D" d="M18.478,281.813h148.9V160.109H92.764c-14.565,0-28.18,7.231-36.333,19.3l-30.437,45.046
	c-4.898,7.251-7.516,15.8-7.516,24.55V281.813z"/>
<path fill="#A2B2D6" d="M426,328.743c0,2.914-103.782,5.275-231.805,5.275c-128.021,0-181.571-2.361-181.571-5.275
	c0-2.912,53.55-5.274,181.571-5.274C322.218,323.469,426,325.831,426,328.743z"/>
<path fill="#0F222C" d="M81.605,271.862c16.382,0,29.662,13.28,29.662,29.663c0,16.382-13.279,29.662-29.662,29.662h-8.223v-59.325
	H81.605z"/>
<path fill="#0F222C" d="M236.453,271.862c16.382,0,29.662,13.28,29.662,29.663c0,16.382-13.28,29.662-29.662,29.662h-8.224v-59.325
	H236.453z"/>
<path fill="#0F222C" d="M81.605,271.862c16.382,0,29.662,13.28,29.662,29.663c0,16.382-13.279,29.662-29.662,29.662h-8.223v-59.325
	H81.605z"/>
<circle fill="#0F222C" cx="137.716" cy="295.988" r="29.662"/>
<path fill="#0F222C" d="M304.296,266.327c16.381,0,29.661,13.28,29.661,29.661c0,16.383-13.28,29.663-29.661,29.663h-8.225v-59.324
	H304.296z"/>
<circle fill="#0F222C" cx="296.072" cy="295.988" r="29.662"/>
<path fill="#445B7D" d="M18.478,301.525h270.604v-19.712H18.478c-3.233,0-5.854,2.619-5.854,5.853v8.005
	C12.624,298.904,15.245,301.525,18.478,301.525z"/>
<path fill="#F2F2F2" d="M131.641,232.124v-58.318H92.764c-10.03,0-19.371,4.962-24.984,13.272l-30.436,45.046H131.641z"/>
<rect x="149.447" y="160.109" fill="#44231A" width="17.931" height="121.705"/>
<path fill="#0F222C" d="M226.859,266.327c19.439,0,35.198,15.759,35.198,35.198h-70.396
	C191.662,282.086,207.42,266.327,226.859,266.327z"/>
<path fill="#0F222C" d="M72.012,266.327c19.438,0,35.198,15.759,35.198,35.198H36.814C36.814,282.086,52.572,266.327,72.012,266.327
	z"/>
<circle fill="#445B7D" cx="228.23" cy="301.525" r="29.662"/>
<circle fill="#F2F2F2" cx="228.23" cy="301.525" r="14.595"/>
<circle fill="#445B7D" cx="73.382" cy="301.525" r="29.662"/>
<circle fill="#F2F2F2" cx="73.382" cy="301.525" r="14.595"/>
<rect x="289.082" y="260.277" fill="#B14C29" width="12.712" height="12.099"/>
<rect x="276.37" y="260.277" fill="#D2672D" width="12.712" height="12.099"/>
<rect x="367.647" y="260.277" fill="#B14C29" width="12.713" height="12.099"/>
<g>
	<path fill="#CE3836" d="M116.223,243.384h11.701c2.053,0,3.717-1.665,3.717-3.718v-2.66h-19.135v2.66
		C112.506,241.719,114.17,243.384,116.223,243.384z"/>
	<path fill="#222846" d="M116.223,241.805h11.701c2.053,0,3.717-1.664,3.717-3.718v-1.081h-19.135v1.081
		C112.506,240.141,114.17,241.805,116.223,241.805z"/>
</g>
<path fill="#F2F2F2" d="M30.035,266.327c0-6.383-5.174-11.557-11.558-11.557v23.113C24.861,277.884,30.035,272.71,30.035,266.327z"
	/>
<path fill="#445B7D" d="M380.36,281.813h-91.278c-3.232,0-5.854,2.619-5.854,5.853v8.005c0,3.233,2.621,5.854,5.854,5.854h91.278
	c3.232,0,5.854-2.621,5.854-5.854v-8.005C386.214,284.433,383.593,281.813,380.36,281.813z"/>
<circle fill="#F2F2F2" cx="295.438" cy="291.668" r="4.188"/>
<circle fill="#F2F2F2" cx="304.745" cy="291.668" r="2.094"/>
<circle fill="#F2F2F2" cx="374.004" cy="291.668" r="4.188"/>
<circle fill="#F2F2F2" cx="364.697" cy="291.668" r="2.094"/>
<rect x="228.229" y="107.707" fill="#AD8F64" width="152.131" height="52.542"/>
<rect x="167.378" y="160.109" fill="#BCA284" width="121.704" height="121.705"/>
<rect x="167.378" y="211.614" fill="#635545" width="121.704" height="18.693"/>
<rect x="215.534" y="211.614" fill="#AF987E" width="25.392" height="18.693"/>
<rect x="218.883" y="160.109" fill="#635545" width="18.694" height="121.705"/>
<rect x="289.082" y="160.109" fill="#635545" width="91.278" height="121.705"/>
<rect x="289.082" y="211.614" fill="#AF987E" width="91.278" height="18.693"/>
<rect x="321.656" y="211.614" fill="#AD8F64" width="25.392" height="18.693"/>
<polygon fill="#AF987E" points="289.082,160.249 380.36,160.249 426,114.883 334.721,114.883 "/>
<rect x="325.005" y="160.109" fill="#AF987E" width="18.694" height="121.705"/>
<polygon fill="#AD8F64" points="325.005,160.109 343.699,160.109 388.925,114.883 370.23,114.883 "/>
<polygon fill="#AB7A45" points="237.577,160.109 218.883,160.109 173.243,114.47 191.938,114.47 "/>
<polygon fill="#BCA284" points="289.082,160.109 167.378,160.109 121.739,114.47 243.443,114.47 "/>
<path fill="#667240" d="M265.151,124.063c-10.992-0.749-20.995-5.132-28.822-11.961l-10.385,10.385
	c10.51,9.464,24.175,15.49,39.207,16.275V124.063z"/>
<path fill="#445B7D" d="M271.691,32.934v13.35c5.633,0.617,10.783,2.849,14.982,6.222l9.438-9.438
	C289.446,37.328,280.983,33.628,271.691,32.934z"/>
<path fill="#66362D" d="M239.625,71.987c0.616-5.632,2.849-10.782,6.222-14.982l-9.438-9.438
	c-5.739,6.666-9.439,15.128-10.134,24.42H239.625z"/>
<path fill="#66362D" d="M250.347,52.506c4.199-3.373,9.35-5.606,14.982-6.222v-13.35c-9.292,0.694-17.755,4.394-24.421,10.134
	L250.347,52.506z"/>
<path fill="#66362D" d="M245.847,93.333c-3.373-4.2-5.605-9.351-6.222-14.983h-13.351c0.694,9.292,4.395,17.755,10.134,24.421
	L245.847,93.333z"/>
<path fill="#66362D" d="M265.329,104.054c-5.633-0.616-10.783-2.849-14.982-6.222l-9.438,9.438
	c6.666,5.74,15.129,9.44,24.421,10.134V104.054z"/>
<path fill="#66362D" d="M297.396,78.35c-0.617,5.632-2.849,10.783-6.222,14.983l9.438,9.438c5.739-6.667,9.439-15.129,10.133-24.421
	H297.396z"/>
<path fill="#66362D" d="M286.674,97.832c-4.199,3.373-9.35,5.606-14.982,6.222v13.351c9.292-0.695,17.755-4.394,24.421-10.134
	L286.674,97.832z"/>
<path fill="#667240" d="M231.578,107.35c-6.828-7.827-11.212-17.83-11.961-28.821h-14.698c0.785,15.031,6.81,28.696,16.274,39.206
	L231.578,107.35z"/>
<path fill="#445B7D" d="M271.87,11.578v14.699c10.991,0.749,20.994,5.132,28.82,11.961l10.386-10.386
	C300.566,18.389,286.901,12.364,271.87,11.578z"/>
<path fill="#667240" d="M300.691,112.101c-7.827,6.829-17.83,11.213-28.821,11.962v14.698c15.031-0.785,28.696-6.811,39.206-16.275
	L300.691,112.101z"/>
<path fill="#667240" d="M317.403,78.529c-0.749,10.991-5.133,20.994-11.961,28.82l10.385,10.385
	c9.465-10.51,15.488-24.174,16.273-39.206H317.403z"/>
<path fill="#445B7D" d="M305.441,42.989c6.828,7.826,11.213,17.829,11.961,28.82h14.698c-0.785-15.031-6.81-28.695-16.274-39.205
	L305.441,42.989z"/>
</svg>
