<?xml version="1.0" encoding="utf-8"?>
<!-- Generator: Adobe Illustrator 16.0.0, SVG Export Plug-In . SVG Version: 6.00 Build 0)  -->
<!DOCTYPE svg PUBLIC "-//W3C//DTD SVG 1.1//EN" "http://www.w3.org/Graphics/SVG/1.1/DTD/svg11.dtd">
<svg version="1.1" id="Layer_1" xmlns="http://www.w3.org/2000/svg" xmlns:xlink="http://www.w3.org/1999/xlink" x="0px" y="0px"
	 width="171.5px" height="159.667px" viewBox="0 0 171.5 159.667" enable-background="new 0 0 171.5 159.667" xml:space="preserve">
<path opacity="0.3" fill="#A8AAAD" d="M159.911,74.204c0,37.817-30.659,68.477-68.477,68.477c-37.822,0-68.481-30.659-68.481-68.477
	c0-2.539,0.138-5.042,0.409-7.507C27.1,32.406,56.147,5.723,91.435,5.723c35.278,0,64.325,26.678,68.067,60.964
	C159.772,69.157,159.911,71.665,159.911,74.204z"/>
<path fill="#455E7C" d="M152.734,74.204c0,33.854-27.445,61.301-61.3,61.301c-33.858,0-61.304-27.446-61.304-61.301
	c0-2.273,0.124-4.513,0.366-6.721c3.346-30.697,29.35-54.583,60.938-54.583c31.582,0,57.584,23.882,60.934,54.575
	C152.611,69.686,152.734,71.93,152.734,74.204z"/>
<g>
	<path fill="#FBFCFC" d="M159.777,61.217c7.558-8.146,8.542-28.305,8.542-28.305l-19.102-2.191c0,0,1.36,18.357-11.34,28.384
		C137.878,59.104,152.22,69.363,159.777,61.217z"/>
	<path fill="#B2B3B3" d="M153.005,47.569c0,0,3.886,0.398,0.261,7.528c-3.625,7.128-2.236,9.225-2.236,9.225
		c-5.907-0.417-13.191-2.017-21.015-4.081c0,0-1.164-2.618,3.244-6.878c4.408-4.26-1.405-8.406-1.405-8.406L153.005,47.569z"/>
	<path fill="#A09F9F" d="M153.005,47.569l-21.151-2.612c0,0,3.286,2.344,3.044,5.318c6.212-0.621,12.52,0.275,18.084,2.911
		c0.32,0.16,0.632,0.331,0.938,0.509C156.361,47.917,153.005,47.569,153.005,47.569z"/>
</g>
<path opacity="0.7" fill="#A3B3D6" d="M109.535,112.164c24.155-21.566,41.136-22.146,42.891-31.771
	c1.933-10.609-27.039-4.939-30.173-3.985c-3.134,0.954-40.593,24.108-40.593,24.108c-1.106,0.67-0.74,2.265,0.62,2.689
	C82.28,103.205,107.413,114.06,109.535,112.164z"/>
<path fill="#597377" d="M107.49,102.482l-27.174-8.436c-1.83,2.395-2.646,6.505-0.571,8.154l27.608,8.976
	C107.019,108.415,106.81,106.128,107.49,102.482z"/>
<g>
	<g enable-background="new    ">
		<path fill="#597377" d="M143.595,61.201c-3.028-0.546-6.067-1.091-9.101-1.636c-4.118-0.741-8.237-1.481-12.356-2.223
			c-0.29-0.052-0.581-0.116-0.873-0.157c-1.548-0.218-2.646,1.237-3.163,2.328c-0.67,1.413-0.932,3.176-0.309,4.641
			c0.321,0.754,0.894,1.298,1.787,1.458c3.683,0.662,7.364,1.325,11.048,1.987c3.62,0.651,7.236,1.326,10.862,1.954
			c0.063,0.011,0.125,0.022,0.188,0.034c-0.984-0.178-1.5-1.111-1.717-1.896c-0.25-0.903-0.209-1.87-0.004-2.776
			c0.209-0.923,0.607-1.839,1.25-2.594C141.752,61.682,142.625,61.026,143.595,61.201z"/>
		<g>
			<path fill="#38424A" d="M143.039,61.189c1.553-0.201,2.634,1.519,2.412,3.838c-0.222,2.324-1.662,4.369-3.216,4.57
				c-1.557,0.201-2.638-1.518-2.415-3.842C140.042,63.436,141.482,61.39,143.039,61.189z"/>
		</g>
	</g>
</g>
<path fill="#4B5660" d="M147.604,77.345c-2.631,11.167-13.522,8.942-22.127,16.555l-18.011,17.168l-0.113,0.108
	c-2.181-1.233-4.065-6.77-2.708-9.576c0.139-0.372,0.289-0.748,0.452-1.128c4.713-10.97,19.615-25.261,33.998-33.396
	c0.689-0.39,1.376-0.766,2.062-1.126c0.001,0,0.002,0,0.002,0c0.044,0.021,0.089,0.042,0.132,0.063
	C146.08,68.322,147.818,73.524,147.604,77.345z"/>
<path fill="#8EA2A5" d="M141.159,65.949c0,0-0.001,0-0.002,0c-0.178,0.125-23.08,16.171-36.512,35.651l-0.248-0.077l-24.081-7.477
	c0,0,13.92-18.951,33.637-32.76c0.874-0.613,2.018-0.832,3.101-0.601l23.646,5.164L141.159,65.949z"/>
<g>
	<path fill="#ACB9BC" d="M141.291,66.013c-15.183,11.328-25.856,22.126-34.865,33.474c-2.005,2.726-2.293,6.189-0.706,9.125
		c0.023,0.042,0.046,0.083,0.068,0.123c0.578,1.04,1.234,1.845,1.679,2.333l-0.113,0.108c-5.219-4.859-2.591-9.996-2.256-10.704
		c12.482-17.863,35.064-34.215,35.603-34.624l0.459,0.101C141.203,65.97,141.248,65.991,141.291,66.013z"/>
</g>
<path fill="#4F676A" d="M98.758,76.75c-2.797,1.944-10.328,10.057-15.264,16.35l20.381,6.212
	c3.241-4.842,11.132-13.285,14.94-16.935C110.456,81.01,103.47,79.031,98.758,76.75z"/>
<g>
	<polygon fill="#CCCCCC" points="95.053,80.917 95.019,81.48 98.903,82.646 98.793,81.993 	"/>
	<path fill="#C0C0C0" d="M101.493,79.088l0.25,0.575l-2.84,2.982l-0.11-0.653C99.267,81.024,100.26,80.158,101.493,79.088z"/>
	<path fill="#EBEBEB" d="M97.913,78.146c-0.496,0.344-1.985,1.656-2.86,2.771l3.74,1.076c0.574-0.858,2.025-2.257,2.7-2.904
		L97.913,78.146z"/>
</g>
<g>
	<polygon fill="#CCCCCC" points="99.687,82.219 99.652,82.784 103.537,83.949 103.428,83.296 	"/>
	<path fill="#C0C0C0" d="M106.128,80.392l0.248,0.574l-2.839,2.983l-0.109-0.653C103.9,82.327,104.894,81.461,106.128,80.392z"/>
	<path fill="#EBEBEB" d="M102.547,79.449c-0.495,0.345-1.986,1.655-2.86,2.77l3.741,1.077c0.573-0.858,2.024-2.257,2.7-2.904
		L102.547,79.449z"/>
</g>
<g>
	<polygon fill="#CCCCCC" points="104.32,83.523 104.286,84.087 108.17,85.252 108.061,84.599 	"/>
	<path fill="#C0C0C0" d="M110.761,81.696l0.25,0.574l-2.841,2.982l-0.109-0.653C108.534,83.631,109.527,82.764,110.761,81.696z"/>
	<path fill="#EBEBEB" d="M107.181,80.752c-0.495,0.344-1.985,1.655-2.86,2.771l3.74,1.076c0.574-0.857,2.026-2.257,2.7-2.903
		L107.181,80.752z"/>
</g>
<polygon fill="#EDECE4" points="108.954,84.826 108.92,85.391 112.805,86.556 112.694,85.902 "/>
<path fill="#EDECE4" d="M115.395,82.998l0.249,0.574l-2.839,2.984l-0.11-0.654C113.168,84.934,114.161,84.067,115.395,82.998z"/>
<path fill="#FEFDF3" d="M111.814,82.055c-0.496,0.345-1.985,1.656-2.86,2.771l3.74,1.076c0.574-0.857,2.025-2.257,2.7-2.904
	L111.814,82.055z"/>
<g>
	<polygon fill="#CCCCCC" points="91.667,84.602 91.632,85.167 95.518,86.333 95.408,85.679 	"/>
	<path fill="#C0C0C0" d="M98.107,82.775l0.25,0.574l-2.84,2.983l-0.109-0.654C95.881,84.71,96.874,83.844,98.107,82.775z"/>
	<path fill="#EBEBEB" d="M94.527,81.832c-0.495,0.344-1.985,1.655-2.86,2.77l3.741,1.077c0.574-0.858,2.025-2.257,2.699-2.904
		L94.527,81.832z"/>
</g>
<g>
	<polygon fill="#CCCCCC" points="96.301,85.906 96.267,86.469 100.151,87.635 100.041,86.982 	"/>
	<path fill="#C0C0C0" d="M102.741,84.078l0.249,0.574l-2.839,2.983l-0.11-0.653C100.515,86.013,101.509,85.147,102.741,84.078z"/>
	<path fill="#EBEBEB" d="M99.161,83.135c-0.495,0.345-1.985,1.655-2.86,2.771l3.74,1.076c0.574-0.858,2.025-2.258,2.7-2.904
		L99.161,83.135z"/>
</g>
<g>
	<polygon fill="#CCCCCC" points="100.935,87.208 100.9,87.773 104.784,88.938 104.675,88.285 	"/>
	<path fill="#C0C0C0" d="M107.375,85.381l0.25,0.574l-2.841,2.983l-0.109-0.653C105.148,87.316,106.142,86.451,107.375,85.381z"/>
	<path fill="#EBEBEB" d="M103.795,84.439c-0.495,0.344-1.986,1.655-2.86,2.77l3.74,1.076c0.574-0.857,2.025-2.257,2.7-2.903
		L103.795,84.439z"/>
</g>
<polygon fill="#EDECE4" points="105.568,88.512 105.533,89.077 109.419,90.242 109.31,89.588 "/>
<path fill="#EDECE4" d="M112.009,86.685l0.25,0.574l-2.84,2.982l-0.109-0.653C109.782,88.62,110.775,87.753,112.009,86.685z"/>
<path fill="#FEFDF3" d="M108.429,85.741c-0.495,0.345-1.986,1.656-2.86,2.771l3.741,1.076c0.574-0.857,2.025-2.257,2.699-2.903
	L108.429,85.741z"/>
<g>
	<polygon fill="#CCCCCC" points="88.281,88.289 88.247,88.852 92.131,90.018 92.021,89.365 	"/>
	<path fill="#C0C0C0" d="M94.722,86.46l0.25,0.574l-2.841,2.983l-0.109-0.653C92.495,88.396,93.488,87.53,94.722,86.46z"/>
	<path fill="#EBEBEB" d="M91.142,85.518c-0.496,0.345-1.986,1.656-2.86,2.771l3.74,1.076c0.574-0.858,2.026-2.258,2.7-2.904
		L91.142,85.518z"/>
</g>
<g>
	<polygon fill="#CCCCCC" points="92.915,89.591 92.881,90.156 96.766,91.321 96.656,90.667 	"/>
	<path fill="#C0C0C0" d="M99.356,87.764l0.249,0.574l-2.84,2.982l-0.109-0.653C97.128,89.7,98.122,88.833,99.356,87.764z"/>
	<path fill="#EBEBEB" d="M95.775,86.821c-0.495,0.345-1.986,1.655-2.86,2.771l3.741,1.076c0.574-0.857,2.024-2.257,2.7-2.903
		L95.775,86.821z"/>
</g>
<g>
	<polygon fill="#CCCCCC" points="97.549,90.895 97.515,91.459 101.399,92.625 101.289,91.971 	"/>
	<path fill="#C0C0C0" d="M103.989,89.067l0.25,0.574l-2.84,2.983l-0.11-0.653C101.763,91.002,102.756,90.136,103.989,89.067z"/>
	<path fill="#EBEBEB" d="M100.409,88.125c-0.495,0.345-1.985,1.655-2.86,2.771l3.74,1.076c0.574-0.858,2.025-2.258,2.7-2.904
		L100.409,88.125z"/>
</g>
<polygon fill="#EDECE4" points="102.183,92.198 102.148,92.762 106.032,93.928 105.924,93.275 "/>
<path fill="#EDECE4" d="M108.623,90.371l0.249,0.574l-2.84,2.983l-0.108-0.653C106.396,92.306,107.39,91.44,108.623,90.371z"/>
<path fill="#FEFDF3" d="M105.043,89.428c-0.496,0.344-1.986,1.654-2.86,2.77l3.741,1.077c0.574-0.858,2.024-2.258,2.699-2.904
	L105.043,89.428z"/>
<g opacity="0.37">
	<polygon fill="#FFFFFF" points="84.896,91.974 84.861,92.539 88.746,93.704 88.636,93.051 	"/>
	<path fill="#FFFFFF" d="M91.336,90.147l0.25,0.574l-2.84,2.982l-0.11-0.652C89.109,92.083,90.103,91.215,91.336,90.147z"/>
	<path fill="#FFFFFF" d="M87.756,89.204c-0.495,0.345-1.985,1.655-2.86,2.771l3.74,1.077c0.574-0.858,2.026-2.258,2.7-2.904
		L87.756,89.204z"/>
</g>
<g>
	<polygon fill="#EDECE4" points="89.529,93.278 89.495,93.842 93.38,95.007 93.271,94.354 	"/>
	<path fill="#EDECE4" d="M95.97,91.45l0.249,0.574l-2.839,2.983l-0.109-0.653C93.743,93.385,94.736,92.519,95.97,91.45z"/>
	<path fill="#EDECE4" d="M92.39,90.507c-0.496,0.345-1.986,1.655-2.86,2.771l3.741,1.076c0.574-0.857,2.024-2.257,2.699-2.904
		L92.39,90.507z"/>
</g>
<g>
	<polygon fill="#8EA2A5" points="94.163,94.581 94.129,95.145 98.013,96.31 97.903,95.658 	"/>
	<path fill="#8EA2A5" d="M100.604,92.752l0.249,0.575l-2.84,2.982l-0.109-0.652C98.376,94.689,99.37,93.823,100.604,92.752z"/>
	<path fill="#8EA2A5" d="M97.023,91.811c-0.495,0.344-1.986,1.654-2.86,2.77l3.74,1.077c0.574-0.858,2.025-2.258,2.7-2.905
		L97.023,91.811z"/>
</g>
<polygon fill="#EDECE4" points="98.796,95.883 98.763,96.449 102.647,97.614 102.537,96.96 "/>
<path fill="#EDECE4" d="M105.237,94.056l0.249,0.574l-2.839,2.983l-0.11-0.653C103.011,95.992,104.004,95.125,105.237,94.056z"/>
<path fill="#FEFDF3" d="M101.657,93.114c-0.496,0.344-1.985,1.655-2.861,2.77l3.741,1.077c0.574-0.858,2.025-2.258,2.7-2.904
	L101.657,93.114z"/>
<g>
	<path fill="#93A1A5" d="M135.496,66.307c-0.28,0.191-0.563,0.387-0.848,0.588c-5.054,3.568-10.67,8.663-14.79,12.974l-17.842-4.848
		l-0.895-0.243c3.959-4.438,9.699-9.149,14.661-12.525L135.496,66.307z"/>
	<path fill="#4F676A" d="M115.783,62.252l0.356,0.835l-14.123,11.933l-0.895-0.243C105.351,69.787,110.363,65.952,115.783,62.252z"
		/>
	<path fill="#005357" d="M134.648,66.895c-5.054,3.568-10.67,8.663-14.79,12.974l-17.842-4.848
		c4.359-4.276,9.824-9.053,14.123-11.933L134.648,66.895z"/>
	<path opacity="0.37" fill="#FFFFFF" d="M134.648,66.895l-9.209-1.894c-5.431,0.696-10.784,1.736-15.972,3.221
		c-2.332,1.972-4.68,4.113-6.805,6.17c8.195-1.405,16.518-1.889,24.885-1.854C129.901,70.486,132.334,68.531,134.648,66.895z"/>
	<path fill="#C0C0C0" d="M101.122,74.778c6.289-7.358,14.743-12.333,14.743-12.333l-0.082-0.192
		C115.783,62.252,106.409,67.852,101.122,74.778z"/>
</g>
<g>
	<path fill="#CCCCCC" d="M105.484,78.154l-0.026,0.438c0,0,1.564,0.79,4.961,1.403l0.026-0.448L105.484,78.154z"/>
	<path fill="#EBEBEB" d="M106.572,77.067l-1.088,1.087c1.373,0.667,3.062,1.106,4.961,1.394l1.26-1.188L106.572,77.067z"/>
	<polygon fill="#C0C0C0" points="110.445,79.548 111.705,78.359 111.672,78.908 110.419,79.996 	"/>
</g>
<path fill="#2A3238" d="M120.231,59.062l19.765,3.729c0,0,0.278-0.751,0.976-1.345l-19.798-3.565
	C121.174,57.882,120.25,58.249,120.231,59.062z"/>
<path fill="#FBFCFC" d="M121.521,58.702c0,0,1.218-10.813,11.022-14.494c7.671,0.522,14.035,2.139,20.461,3.361
	c0,0-10.943,1.69-13.202,14.447L121.521,58.702z"/>
<g opacity="0.5">
	<g>
		<path fill="#DBDADA" d="M132.872,45.616c-0.313,0.159-0.617,0.324-0.912,0.497l14.806,2.06c0.34-0.168,0.689-0.329,1.05-0.479
			L132.872,45.616z"/>
	</g>
	<g>
		<path fill="#DBDADA" d="M130.475,47.104c-0.229,0.171-0.453,0.347-0.67,0.528l14.431,2.093c0.238-0.179,0.486-0.351,0.738-0.518
			L130.475,47.104z"/>
	</g>
	<g>
		<path fill="#DBDADA" d="M128.663,48.677c-0.179,0.179-0.353,0.362-0.521,0.547l14.226,2.144c0.18-0.184,0.366-0.365,0.557-0.542
			L128.663,48.677z"/>
	</g>
	<g>
		<path fill="#DBDADA" d="M127.234,50.313c-0.142,0.185-0.28,0.372-0.414,0.562l14.088,2.199c0.143-0.188,0.287-0.375,0.437-0.559
			L127.234,50.313z"/>
	</g>
	<g>
		<path fill="#DBDADA" d="M125.746,52.572l14.004,2.258c0.112-0.193,0.228-0.384,0.346-0.572l-14.014-2.259
			C125.967,52.188,125.854,52.379,125.746,52.572z"/>
	</g>
	<g>
		<path fill="#DBDADA" d="M124.865,54.312l13.952,2.318c0.09-0.195,0.182-0.389,0.277-0.583l-13.956-2.318
			C125.045,53.922,124.954,54.116,124.865,54.312z"/>
	</g>
	<g>
		<path fill="#DBDADA" d="M124.139,56.088l13.936,2.38c0.07-0.198,0.144-0.396,0.219-0.591l-13.93-2.38
			C124.286,55.694,124.211,55.891,124.139,56.088z"/>
	</g>
	<g>
		<path fill="#DBDADA" d="M123.542,57.899l13.951,2.446c0.054-0.201,0.109-0.401,0.168-0.601l-13.937-2.443
			C123.661,57.5,123.602,57.7,123.542,57.899z"/>
	</g>
</g>
<path fill="#455E7C" d="M25.566,85.509c3.23-2.487,16.828,15.18,13.598,17.666c0,0-4.188,4.393-11.748-4.554
	S25.566,85.509,25.566,85.509z"/>
<path fill="#9A9289" d="M27.809,85.285c2.125-1.722,14.785,13.897,12.661,15.62c0,0-1.529,2.353-8.278-4.87
	C25.442,88.813,27.809,85.285,27.809,85.285z"/>
<path fill="#F2DBC0" d="M82.384,70.683c-3.083,0.261-4.7-0.657-5.438-2.073c-0.287-0.547-0.44-1.167-0.496-1.824
	c-0.198-2.348,0.917-4.472,5.191-4.835c3.16-0.268,7.075-0.54,9.048,1.049c0.697,0.565,1.156,1.361,1.248,2.473
	C92.297,69.729,86.662,70.319,82.384,70.683z"/>
<path opacity="0.3" fill="#FFFFFF" d="M81.642,61.95c-4.274,0.363-5.389,2.487-5.191,4.835c0.055,0.657,0.209,1.277,0.496,1.824
	c0.737,1.416,2.354,2.334,5.438,2.073c0.248-0.021,0.5-0.043,0.754-0.067c0.087-3.247,1.089-6.45,3.283-8.845
	C84.853,61.694,83.161,61.821,81.642,61.95z"/>
<path fill="#E0CBAF" d="M50.954,57.569c-0.502,1.753-1.306,3.995-0.87,5.833c0.452,1.883,1.663,3.592,2.136,5.511
	c0.774,3.159,0.095,5.86-1.152,8.435c-0.928,1.908-2.165,3.746-3.357,5.65c-2.939,4.7-8.578,14.819-11.661,19.428
	c-2.249-1.662-9.496-8.014-9.536-13.257c3.486-3.166,6.674-4.127,6.362-8.691c-0.286-4.224-1.442-7.155-0.367-11.375
	c2.366-9.319,14.188-13.322,14.408-23.243c0.047-2.037-0.521-6.197,0.848-8.124c0.337-0.473,0.789-0.815,1.394-0.954
	c4.829-1.123,6.865,5.474,6.575,9.026C55.365,50.334,52.187,53.261,50.954,57.569z"/>
<path opacity="0.3" fill="#FFFFFF" d="M34.152,82.979c-0.094-8.202-2.079-15.53,3.811-20.727c4.418-4.418,9.487-9.147,8.883-15.343
	c-0.992,9.167-12.055,13.212-14.336,22.195c-1.075,4.22,0.081,7.151,0.367,11.375c0.312,4.564-2.876,5.525-6.362,8.691
	c0.008,1.078,0.324,2.201,0.835,3.322C30.924,90.194,34.2,87.187,34.152,82.979z"/>
<path opacity="0.3" fill="#FFFFFF" d="M50.954,57.569c-0.502,1.753-1.306,3.995-0.87,5.833c0.452,1.883,1.663,3.592,2.136,5.511
	c0.774,3.159,0.095,5.86-1.152,8.435c0-0.004,0.004-0.011,0.004-0.015c1.923-7.291-0.914-10.78-1.963-13.572
	c-1.049-2.795,0.866-7.756,3.794-12.159c2.932-4.403,1.658-16.511-5.136-13.866c0.337-0.473,0.789-0.815,1.394-0.954
	c4.829-1.123,6.865,5.474,6.575,9.026C55.365,50.334,52.187,53.261,50.954,57.569z"/>
<path fill="#E0CBAF" d="M50.497,64.485c2.028,5.59,5.618,0.522,16.609,1.122c3.62,9.148,3.39,19.196,0.802,29.793
	c0,0-8.62,3.244-16.981,2.037c-9.35-1.35-8.771,1.062-14.878,4.988l-6.395-6.26L50.497,64.485z"/>
<path opacity="0.3" fill="#FFFFFF" d="M68.004,93.852c2.458-10.067,2.676-19.611-0.762-28.302
	c-10.44-0.569-13.851,4.246-15.777-1.065L38.758,83.799c-0.847,1.288-0.414,3.022,0.937,3.766
	c6.334,3.493,13.046,5.975,19.894,8.228C64.366,95.218,68.004,93.852,68.004,93.852z"/>
<path fill="#E8B072" d="M64.356,69.413c0.203-2.434,2.295-4.205,4.892-4.258c2.965-0.06,7.207,0.214,8.18,2.166
	c1.026,2.056,1.462,6.034-8.187,6.625c-2.6,0.159-5.005-1.885-4.896-4.355C64.348,69.533,64.352,69.473,64.356,69.413z"/>
<path fill="#E8B072" d="M65.996,75.515c0.629-1.176,1.766-1.997,3.081-2.22c2.911-0.494,8.408-0.95,10,2.233
	c0.938,1.877,1.025,5.107-8.755,6.401c-3.402,0.451-5.978-3.067-4.464-6.146C65.901,75.695,65.947,75.605,65.996,75.515z"/>
<path fill="#E8B072" d="M66.214,83.873c0.508-1.346,1.698-2.316,3.115-2.557c2.681-0.456,7.359-0.884,9.153,1.214
	c1.29,1.509,1.326,5.963-8.109,6.926c-2.909,0.297-5.178-2.511-4.264-5.289C66.142,84.071,66.176,83.973,66.214,83.873z"/>
<path fill="#E0CBAF" d="M66.559,87.15c3.053-0.21,8.31,0.138,9.599,1.942c1.23,1.723,0.745,5.76-9.022,6.433
	C61.488,94.754,61.242,88.498,66.559,87.15z"/>
<path fill="#F2DBC0" d="M79.662,89.423c0.229,3.165-3.313,4.389-6.833,4.688c-3.521,0.298-5.819-1.402-5.916-3.606
	c-0.079-1.823,2.172-3.83,5.692-4.129C76.125,86.077,79.442,86.402,79.662,89.423z"/>
<path fill="#E0CBAF" d="M72.5,86.386c-3.459,0.329-5.666,2.313-5.587,4.118c0.222,5.021,7.345,3.431,7.345,3.431
	C71.311,93.688,69.459,89.055,72.5,86.386z"/>
<path fill="#5D797E" d="M67.116,97.931l-26.255-11.16c-1.191-0.506-1.746-1.881-1.239-3.072l20.78-48.887
	c0.506-1.19,1.881-1.745,3.071-1.239l26.255,11.16c1.19,0.506,1.746,1.881,1.24,3.072L70.188,96.693
	C69.682,97.883,68.307,98.437,67.116,97.931z"/>
<path fill="#FFFCF4" d="M67.343,96.376L41.418,85.358c-1.167-0.497-1.711-1.845-1.215-3.011l20.222-47.574
	c0.496-1.167,1.844-1.711,3.01-1.215l25.925,11.02c1.166,0.497,1.71,1.844,1.214,3.01L70.354,95.162
	C69.857,96.329,68.509,96.873,67.343,96.376z"/>
<rect x="51.137" y="40.483" transform="matrix(0.9203 0.3912 -0.3912 0.9203 30.6284 -20.4034)" fill="#0C9999" width="28.504" height="48.97"/>
<rect x="51.45" y="41.019" transform="matrix(0.9203 0.3912 -0.3912 0.9203 30.6236 -20.4016)" fill="#455E7C" width="27.879" height="47.897"/>
<path fill="#C2E0E3" d="M73.161,72.692l-18.643-7.404c-0.753-0.299-1.121-1.152-0.822-1.904l3.071-7.732
	c0.299-0.753,1.151-1.121,1.904-0.821l18.643,7.404c0.753,0.299,1.121,1.151,0.821,1.904l-3.07,7.732
	C74.767,72.624,73.914,72.991,73.161,72.692z"/>
<path fill="#C2E0E3" d="M54.709,60.835l-1.012,2.549c-0.299,0.752,0.069,1.605,0.822,1.904l18.643,7.404
	c0.752,0.299,1.605-0.068,1.905-0.821l0.907-2.285C70.9,63.862,62.172,61.363,54.709,60.835z"/>
<polygon opacity="0.3" fill="#A3B3D6" points="84.192,56.366 49.108,67.638 57.777,47.244 87.586,48.381 "/>
<path fill="#CCCCCC" d="M80.934,42.314l-10.021-4.259c-0.248-0.106-0.535,0.01-0.64,0.258l-0.361,0.85
	c-0.105,0.249,0.01,0.535,0.258,0.64l10.02,4.259c0.248,0.105,0.535-0.01,0.64-0.258l0.361-0.851
	C81.298,42.706,81.183,42.419,80.934,42.314z"/>
<path fill="#2E2D2C" d="M57.618,92.727l-8.775-3.73c-0.151-0.064-0.326,0.007-0.39,0.157l-0.085,0.2
	c-0.064,0.15,0.006,0.325,0.157,0.39l8.776,3.729c0.151,0.064,0.325-0.006,0.389-0.157l0.085-0.2
	C57.839,92.965,57.769,92.792,57.618,92.727z"/>
<path fill="#F2DBC0" d="M87.297,74.351c0.338,3.98-3.559,4.318-6.737,4.588c-3.178,0.269-5.015-1.11-5.201-3.308
	c-0.187-2.198,1.33-4.591,4.508-4.861C83.044,70.5,86.96,70.372,87.297,74.351z"/>
<path fill="#F2DBC0" d="M83.855,81.957c0.332,3.98-3.245,4.668-5.976,4.896c-2.731,0.228-4.767-0.658-4.982-3.433
	c-0.171-2.199,1.548-4.792,4.279-5.02C79.909,78.172,83.524,77.976,83.855,81.957z"/>
<path fill="#FEFDF3" d="M79.29,72.748c0.459,1.306,0.759,3.069,0.444,4.396c-0.045,0.191,0.094,0.375,0.291,0.381
	c0.921,0.031,2.919-0.063,3.781-0.758c0.828-0.668,0.809-4.004-0.898-4.604c-1.126-0.164-2.36-0.063-3.398,0.18
	C79.33,72.384,79.229,72.574,79.29,72.748z"/>
<path fill="#FEFDF3" d="M76.802,80.522c0.284,1.321,0.362,3.037-0.077,4.293c-0.077,0.222,0.061,0.458,0.293,0.493
	c0.941,0.139,2.857,0.262,3.771-0.309c0.902-0.564,1.285-3.877-0.337-4.679c-1.073-0.292-2.279-0.345-3.323-0.239
	C76.911,80.104,76.756,80.308,76.802,80.522z"/>
<path fill="#FEFDF3" d="M75.019,87.986c0.144,1.059,0.166,2.773-0.041,3.858c-0.046,0.243,0.088,0.462,0.268,0.437
	c0.507-0.072,1.123-0.263,1.636-0.884c0.456-0.553,0.69-3.025-0.214-3.548c-0.405-0.275-0.89-0.395-1.403-0.316
	C75.105,87.557,74.99,87.771,75.019,87.986z"/>
<path fill="#FEFDF3" d="M46.921,45.486c0,0,0.793-1.145,0.989-1.985c0.195-0.84,0.094-5.099,0.094-5.099s-0.215-0.671-0.959-0.542
	C47.045,37.859,46.199,41.516,46.921,45.486z"/>
<path fill="#C2E0E3" d="M21.575,88.957l6.234-3.671c0,0,3.197,8.511,12.661,15.62l-5.288,4.043
	C35.182,104.948,25.992,102.882,21.575,88.957z"/>
<path fill="#C8D6D3" d="M39.158,103.18c0,0,0,0-0.003,0.008c0,0,0,0-0.003,0c-0.007,0.006-0.018,0.017-0.035,0.034h-0.003
	c-0.003,0.004-0.007,0.007-0.014,0.018c-0.128,0.139-0.485,0.516-1.078,1.07c-0.572,0.533-1.362,1.233-2.38,2.044
	c-0.918,0.734-2.026,1.559-3.322,2.432c-0.343,0.235-0.704,0.472-1.074,0.711c-1.854,1.194-4.047,2.452-6.579,3.689
	c-5.159,2.508-11.744,4.905-19.844,6.378V91.031c4.42,0.416,9.049,0.115,13.473-1.472c1.985-0.707,3.922-1.678,5.782-2.956
	c0.063-0.041,0.125-0.083,0.187-0.128c0.395-0.271,0.783-0.558,1.164-0.855c0.045-0.039,0.08-0.066,0.128-0.104
	c-0.221,0.308-0.315,0.738-0.287,1.264v0.004c0.052,1.174,0.679,2.819,1.646,4.618l0.003,0.004c0.003,0.01,0.007,0.014,0.01,0.021
	c0,0,0,0,0,0.007c0.78,1.454,1.781,3.01,2.879,4.5c0.395,0.533,0.804,1.061,1.219,1.573c0.004,0,0.004,0.003,0.007,0.007
	c0.003,0.007,0.003,0.01,0.01,0.01c0.01,0.008,0.014,0.014,0.021,0.021c0.003,0.003,0.003,0.003,0.007,0.006
	c0.235,0.291,0.471,0.579,0.713,0.859c0.648,0.759,1.306,1.465,1.965,2.1c0.017,0.014,0.038,0.032,0.052,0.046l0.052,0.051
	c0.007,0.008,0.01,0.011,0.017,0.014c0.751,0.729,1.489,1.342,2.179,1.809c0.202,0.132,0.409,0.264,0.603,0.374
	c0.188,0.101,0.375,0.198,0.551,0.274c0.065,0.03,0.121,0.052,0.18,0.077c0.003,0,0.011,0,0.014,0.003
	c0.028,0.011,0.059,0.023,0.087,0.031c0.038,0.014,0.063,0.027,0.101,0.034c0.055,0.018,0.104,0.038,0.16,0.048
	C38.299,103.43,38.777,103.41,39.158,103.18z"/>
<path opacity="0.2" fill="#FFFFFF" d="M25.93,89.322c-0.39-0.968-0.629-1.838-0.66-2.538V86.78
	c-0.028-0.526,0.066-0.956,0.287-1.264c-0.048,0.038-0.083,0.065-0.128,0.104c-0.381,0.298-0.769,0.585-1.164,0.855
	c-0.063,0.045-0.125,0.087-0.187,0.128c-1.86,1.278-3.797,2.249-5.782,2.956c-4.424,1.587-9.053,1.888-13.473,1.472v3.789
	C12.559,95.944,19.685,93.501,25.93,89.322z"/>
<path fill="#47607F" d="M39.158,103.18c0,0,0,0-0.003,0.008c0,0,0,0-0.003,0c-0.007,0.006-0.018,0.017-0.035,0.034h-0.003
	c-0.003,0.004-0.007,0.007-0.014,0.018c-0.128,0.139-0.485,0.516-1.078,1.07c-0.572,0.533-1.362,1.233-2.38,2.044
	c-0.918,0.734-2.026,1.559-3.322,2.432c-0.343,0.235-0.704,0.472-1.074,0.711c-1.854,1.194-4.047,2.452-6.579,3.689
	c-5.159,2.508-11.744,4.905-19.844,6.378v-2.917c7.435-1.486,13.709-3.821,18.67-6.149c2.539-1.195,4.732-2.384,6.558-3.457
	c0.336-0.198,0.658-0.389,0.967-0.579c1.174-0.714,2.172-1.365,2.99-1.909c0,0,0.003,0,0.003-0.003
	c0.166-0.115,0.319-0.222,0.468-0.319c0.079-0.055,0.159-0.11,0.235-0.162c0-0.003,0-0.003,0.003-0.003s0.003,0,0.003,0
	c1.199-0.822,1.854-1.311,1.933-1.263c0.188,0.101,0.375,0.198,0.551,0.274c0.065,0.03,0.121,0.052,0.18,0.077
	c0.003,0,0.011,0,0.014,0.003c0.028,0.011,0.059,0.023,0.087,0.031c0.038,0.014,0.063,0.027,0.101,0.034
	c0.055,0.018,0.104,0.038,0.16,0.048C38.299,103.43,38.777,103.41,39.158,103.18z"/>
<path fill="#E0CBAF" d="M86.848,128.683c0,0-1.937,1.115-1.863,5.573c0.003,0.603,0.051,1.266,0.146,1.992l-13.514-0.187
	l-2.219-0.033c0,0,0.047-0.257,0.059-0.683c0.004-0.015,0.004-0.033,0.004-0.048c0.051-1.633-0.367-5.603-5.24-7.738
	c-6.237-2.737-11.33-11.286-12.129-14.991c-0.767-3.556,4.513-10.755,7.4-10.739c0.118,0,0.231,0.011,0.337,0.035h0.004
	c0,0-3.904-18.48,2.252-30.768c1.09-2.282,3.255-3.03,5.049-2.648l0.044,0.011c2.235,0.495,3.867,2.771,2.025,6.028
	c0,0-5.646,11.268-2.11,22.998l3.64-2.029c1.544-0.858,3.475-0.562,4.688,0.728l1.843,1.943l2.311-0.972
	c1.567-0.652,3.372-0.213,4.461,1.082l1.369,1.634l2.231-0.261c1.783-0.209,3.486,0.836,4.094,2.531
	c0.445,1.247,0.841,2.881,0.947,4.865C92.679,107.006,94.447,121.638,86.848,128.683z"/>
<path opacity="0.3" fill="#FFFFFF" d="M69.143,72.24c-3.264,7.508-6.218,15.938-2.491,23.553
	c-2.556-11.098,2.553-21.306,2.553-21.306c1.641-2.901,0.524-5.022-1.318-5.802C68.875,69.595,69.644,70.735,69.143,72.24z"/>
<path opacity="0.3" fill="#FFFFFF" d="M92.679,107.006c-0.105-1.984-0.502-3.618-0.947-4.865c-0.568-1.582-2.09-2.598-3.739-2.556
	c6.551,9.289,1.537,25.738-3.132,28.604c-1.637,1.006-1.465,6.128-1.173,8.039l1.444,0.02c-0.095-0.727-0.143-1.39-0.146-1.992
	c-0.074-4.458,1.863-5.573,1.863-5.573C94.447,121.638,92.679,107.006,92.679,107.006z"/>
<path fill="#F2DBC0" d="M67.485,68.563c0,0-4.602-0.667-6.911,8.177c-2.714,10.388-0.359,28.264-0.216,29.442
	c0.003,0.036,0.007,0.055,0.007,0.055s-0.742-4.528-0.637-4.502c0,0-3.887-18.42,2.25-30.667c1.085-2.274,3.243-3.02,5.031-2.64
	l0.043,0.01L67.485,68.563z"/>
<path fill="#F2DBC0" d="M71.424,134.774c0.06,0.341-1.611,0.579-1.966,0.572c-0.063,0-0.084-0.011-0.048-0.029
	c0.018-0.008,0.033-0.015,0.052-0.019c0.051-1.633-0.367-5.603-5.24-7.738c-6.237-2.737-11.33-11.286-12.129-14.991
	c-0.767-3.556,4.513-10.755,7.4-10.739c0.118,0,0.231,0.011,0.337,0.035h0.004c0,0,0,0-0.004,0.005
	c-0.025,0.015-0.128,0.077-0.293,0.191c-1.365,0.924-6.957,5.052-6.384,10.229c0.326,2.945,4.388,9.194,7.914,11.927
	c3.533,2.737,8.281,3.926,9.513,7.195C70.921,132.308,71.204,133.482,71.424,134.774z"/>
<path fill="#F2DBC0" d="M59.831,101.868c0,0,0.634,7.46,3.105,13.196l-4.521-5.971C58.415,109.093,58.467,106.149,59.831,101.868z"
	/>
<path fill="#C2E0E3" d="M86.267,138.574l-14.304,1.376l-3.402,0.33l-0.251-1.79l-0.372-2.653c0.502-0.198,1.01-0.377,1.523-0.539
	c0.649-0.199,1.303-0.377,1.963-0.523c5.715-1.309,11.608-0.765,13.559-0.519c0.435,0.053,0.676,0.09,0.676,0.09l0.529,3.684
	L86.267,138.574z"/>
<path fill="#F7AE1A" d="M89.348,138.639c0,0,0,0.125-0.008,0.363c-0.021,0.586-0.08,1.844-0.238,3.638
	c-0.101,1.112-0.239,2.429-0.437,3.915c0,0.007-0.003,0.018-0.003,0.024c-0.356,2.691-0.894,5.927-1.718,9.517
	c-0.069,0.299-0.139,0.6-0.211,0.904H56.075c2.48-2.339,4.552-4.674,6.063-6.96c1.102-1.667,1.906-3.302,2.349-4.902
	c0.323-1.157,0.562-2.362,0.704-3.606c0.013-0.111,0.027-0.222,0.038-0.332c0.072-0.725,0.114-1.459,0.121-2.211
	c0,0,0.011,0,0.031-0.003c0.007,0,0.011-0.004,0.027-0.008c0.015-0.006,0.039-0.01,0.066-0.014c0.014-0.003,0.028-0.003,0.045-0.006
	c0.003,0,0.011,0,0.017-0.004c0.032-0.004,0.073-0.014,0.111-0.024c0.052-0.007,0.107-0.018,0.166-0.027
	c0.422-0.083,1.119-0.208,2.023-0.351h0.017c0.018-0.004,0.038-0.004,0.052-0.007c0.018,0,0.025-0.003,0.028-0.003h0.004
	c0.128-0.015,0.246-0.038,0.371-0.053h0.003c0.998-0.148,2.189-0.309,3.526-0.446c1.944-0.205,4.182-0.374,6.534-0.423h0.004
	c2.563-0.052,5.252,0.049,7.812,0.412h0.003C87.269,138.181,88.332,138.379,89.348,138.639z"/>
<path fill="#C8D6D3" d="M84.69,137.854c-2.098-0.215-4.246-0.275-6.314-0.233h-0.004c-2.352,0.049-4.59,0.218-6.534,0.423
	c-1.337,0.138-2.528,0.298-3.526,0.446h-0.003c-0.125,0.015-0.243,0.038-0.371,0.053h-0.004c-0.003,0-0.01,0.003-0.028,0.003
	c-0.014,0.003-0.034,0.003-0.052,0.007h-0.017c-0.904,0.143-1.601,0.268-2.023,0.351c-0.059,0.01-0.114,0.021-0.166,0.027
	c-0.038,0.011-0.08,0.021-0.111,0.024c-0.006,0.004-0.014,0.004-0.017,0.004c-0.018,0.003-0.031,0.003-0.045,0.006
	c-0.027,0.004-0.051,0.008-0.066,0.014c-0.017,0.004-0.02,0.008-0.027,0.008c-0.021,0.003-0.031,0.003-0.031,0.003
	c-0.007,0.752-0.049,1.486-0.121,2.211c-0.011,0.11-0.025,0.221-0.038,0.332c-0.142,1.244-0.381,2.449-0.704,3.606
	c-0.443,1.601-1.247,3.235-2.349,4.902c-1.51,2.286-3.582,4.621-6.063,6.96h26.541C84.547,150.775,85.555,144.27,84.69,137.854z"/>
<path fill="#AFB7B5" d="M86.191,138.033h-0.003c-0.494-0.07-0.994-0.128-1.498-0.179c0.865,6.416-0.143,12.921-2.074,19.146h4.116
	c0.072-0.305,0.142-0.605,0.211-0.904c0.824-3.59,1.362-6.825,1.718-9.517c0-0.007,0.003-0.018,0.003-0.024
	c0.198-1.486,0.336-2.803,0.437-3.915c0.159-1.794,0.218-3.052,0.238-3.638c0.008-0.238,0.008-0.363,0.008-0.363
	C88.332,138.379,87.269,138.181,86.191,138.033z"/>
<path fill="#47607F" d="M67.851,142.256c-0.007,0.09-0.014,0.183-0.021,0.27c-0.087,1.112-0.232,2.187-0.427,3.232
	c-0.322,1.795-1.056,3.665-2.116,5.578c-1.025,1.854-2.363,3.748-3.942,5.664h-5.27c2.48-2.339,4.552-4.674,6.063-6.96
	c1.102-1.667,1.906-3.302,2.349-4.902c0.323-1.157,0.562-2.362,0.704-3.606c0.013-0.111,0.027-0.222,0.038-0.332
	c0.072-0.725,0.114-1.459,0.121-2.211c0,0,0.011,0,0.031-0.003c0.007,0,0.011-0.004,0.027-0.008c0.015-0.006,0.039-0.01,0.066-0.014
	c0.014-0.003,0.028-0.003,0.045-0.006c0.003,0,0.011,0,0.017-0.004c0.032-0.004,0.073-0.014,0.111-0.024
	c0.052-0.007,0.107-0.018,0.166-0.027c0.63-0.104,1.722-0.295,2.041-0.351c0.018-0.004,0.038-0.004,0.052-0.007
	c0.018,0,0.025-0.003,0.028-0.003C67.972,139.82,67.944,141.057,67.851,142.256z"/>
<path fill="#FEFDF3" d="M64.618,70.72c0,0-1.228,2.206-1.727,4.325c0,0,1.773,2.308,4.377,1.53c0.98-1.42,1.858-3.565,1.942-4.699
	C69.21,71.876,67.15,72.844,64.618,70.72z"/>
<path fill="#FCCB8D" d="M52.904,80.881"/>
<path fill="#5E5C53" d="M95.138,8.208c0,0,22.365-1.086,32.073,20.37l7.066-0.896c0,0-6.582-16.924-23.522-20.919L95.138,8.208z"/>
<path fill="#424343" d="M120.414,10.92c-2.752-1.795-5.958-3.285-9.659-4.158L95.138,8.208c0,0,7.722-0.373,16.061,3.671
	C114.239,11.163,117.326,10.87,120.414,10.92z"/>
<polygon fill="#5E5C53" points="116.234,24.695 140.205,21.796 132.997,36.027 "/>
<path fill="#424343" d="M70.491,32.839l15.571,7.342c0,0,4.915-29.71,24.693-33.419L95.138,8.208
	C95.138,8.208,78.4,9.424,70.491,32.839z"/>
<g>
	<path fill="#455E7C" d="M123.508,73.72c-3.085,2.764-8.365,3.88-11.791,2.49c-3.427-1.389-3.703-4.756-0.617-7.521
		s8.365-3.879,11.792-2.49S126.594,70.956,123.508,73.72z"/>
</g>
<g>
	<polygon fill="#FFFFFF" points="111.572,74.41 111.194,69.798 114.029,69.199 114.26,72.002 124.099,69.924 124.247,71.732 	"/>
</g>
<text transform="matrix(0.9294 0.3691 -0.3691 0.9294 55.7617 64.1431)" fill="#FFFFFF" font-family="'JockeyOne-Regular'" font-size="11.873">PAY</text>
</svg>
