<?xml version="1.0" encoding="utf-8"?>
<!-- Generator: Adobe Illustrator 16.0.0, SVG Export Plug-In . SVG Version: 6.00 Build 0)  -->
<!DOCTYPE svg PUBLIC "-//W3C//DTD SVG 1.1//EN" "http://www.w3.org/Graphics/SVG/1.1/DTD/svg11.dtd">
<svg version="1.1" id="Layer_1" xmlns="http://www.w3.org/2000/svg" xmlns:xlink="http://www.w3.org/1999/xlink" x="0px" y="0px"
	 width="285.916px" height="274.648px" viewBox="0 0 285.916 274.648" enable-background="new 0 0 285.916 274.648"
	 xml:space="preserve">
<g>
	<path opacity="0.3" fill="#A8AAAD" d="M265.291,129.352c0,61.809-50.109,111.92-111.919,111.92
		c-61.818,0-111.928-50.111-111.928-111.92c0-4.15,0.226-8.241,0.668-12.271c6.109-56.046,53.585-99.657,111.26-99.657
		c57.66,0,105.136,43.604,111.251,99.642C265.066,121.104,265.291,125.201,265.291,129.352z"/>
	<path fill="#455E7C" d="M253.562,129.352c0,55.333-44.857,100.192-100.192,100.192c-55.339,0-100.198-44.859-100.198-100.192
		c0-3.716,0.202-7.377,0.598-10.985c5.469-50.173,47.97-89.213,99.6-89.213c51.618,0,94.12,39.034,99.594,89.2
		C253.361,121.968,253.562,125.636,253.562,129.352z"/>
	<g>
		<path fill="#FBFCFC" d="M265.074,108.126c12.352-13.313,13.961-46.263,13.961-46.263l-31.221-3.582
			c0,0,2.223,30.004-18.533,46.392C229.281,104.673,252.72,121.439,265.074,108.126z"/>
		<path fill="#B2B3B3" d="M254.003,85.818c0,0,6.352,0.651,0.428,12.304c-5.926,11.651-3.656,15.078-3.656,15.078
			c-9.654-0.682-21.561-3.296-34.348-6.669c0,0-1.902-4.279,5.303-11.242c7.205-6.963-2.297-13.74-2.297-13.74L254.003,85.818z"/>
		<path fill="#A09F9F" d="M254.003,85.818l-34.57-4.27c0,0,5.371,3.831,4.975,8.691c10.154-1.015,20.463,0.45,29.559,4.758
			c0.523,0.261,1.031,0.541,1.533,0.832C259.49,86.387,254.003,85.818,254.003,85.818z"/>
	</g>
	<path opacity="0.7" fill="#A3B3D6" d="M182.957,191.395c39.479-35.25,67.232-36.195,70.102-51.93
		c3.158-17.339-44.195-8.073-49.316-6.512c-5.121,1.559-66.347,39.403-66.347,39.403c-1.809,1.096-1.209,3.701,1.013,4.396
		C138.408,176.752,179.486,194.495,182.957,191.395z"/>
	<path fill="#597377" d="M179.612,175.571l-44.413-13.787c-2.99,3.914-4.324,10.631-0.934,13.328l45.125,14.668
		C178.843,185.268,178.501,181.532,179.612,175.571z"/>
	<g>
		<g enable-background="new    ">
			<path fill="#597377" d="M238.623,108.099c-4.949-0.892-9.916-1.784-14.873-2.674c-6.73-1.21-13.463-2.421-20.195-3.632
				c-0.475-0.085-0.951-0.189-1.428-0.257c-2.529-0.356-4.326,2.021-5.17,3.805c-1.096,2.309-1.521,5.19-0.504,7.585
				c0.523,1.233,1.459,2.122,2.92,2.384c6.02,1.082,12.037,2.165,18.057,3.247c5.918,1.064,11.828,2.168,17.756,3.193
				c0.102,0.018,0.203,0.036,0.307,0.056c-1.609-0.29-2.451-1.815-2.807-3.099c-0.408-1.476-0.342-3.056-0.006-4.538
				c0.342-1.508,0.992-3.005,2.043-4.239C235.611,108.886,237.039,107.813,238.623,108.099z"/>
			<g>
				<path fill="#38424A" d="M237.714,108.08c2.539-0.329,4.307,2.482,3.943,6.274c-0.361,3.798-2.717,7.141-5.256,7.47
					c-2.545,0.329-4.311-2.481-3.947-6.279C232.816,111.751,235.171,108.409,237.714,108.08z"/>
			</g>
		</g>
	</g>
	<path fill="#4B5660" d="M245.177,134.485c-4.299,18.254-22.102,14.615-36.166,27.059l-29.436,28.061l-0.186,0.176
		c-3.564-2.014-6.645-11.064-4.427-15.65c0.227-0.607,0.473-1.223,0.74-1.844c7.703-17.93,32.058-41.288,55.568-54.584
		c1.125-0.638,2.248-1.251,3.369-1.841c0.002,0,0.002,0,0.002,0c0.072,0.033,0.146,0.067,0.217,0.104
		C242.685,119.738,245.527,128.241,245.177,134.485z"/>
	<path fill="#8EA2A5" d="M234.642,115.86c0,0,0,0-0.002,0c-0.291,0.205-37.723,26.431-59.677,58.269l-0.405-0.127l-39.358-12.219
		c0,0,22.751-30.974,54.978-53.545c1.428-1.001,3.297-1.359,5.066-0.982l38.648,8.439L234.642,115.86z"/>
	<g>
		<path fill="#ACB9BC" d="M234.859,115.964c-24.816,18.515-42.262,36.166-56.985,54.71c-3.278,4.455-3.748,10.117-1.154,14.914
			c0.037,0.07,0.074,0.137,0.111,0.203c0.945,1.699,2.018,3.014,2.744,3.813l-0.186,0.176c-8.53-7.941-4.234-16.338-3.687-17.494
			c20.402-29.195,57.31-55.922,58.189-56.59l0.75,0.165C234.714,115.894,234.789,115.928,234.859,115.964z"/>
	</g>
	<path fill="#4F676A" d="M165.34,133.513c-4.57,3.177-16.88,16.437-24.947,26.722l33.312,10.152
		c5.297-7.914,18.194-21.713,24.42-27.678C184.46,140.477,173.042,137.243,165.34,133.513z"/>
	<g>
		<polygon fill="#CCCCCC" points="159.284,140.323 159.229,141.245 165.578,143.149 165.398,142.083 		"/>
		<path fill="#C0C0C0" d="M169.812,137.334l0.408,0.939l-4.642,4.875l-0.18-1.066C166.172,140.499,167.796,139.083,169.812,137.334z
			"/>
		<path fill="#EBEBEB" d="M163.96,135.795c-0.811,0.563-3.245,2.705-4.676,4.527l6.114,1.76c0.938-1.402,3.311-3.689,4.413-4.748
			L163.96,135.795z"/>
	</g>
	<g>
		<polygon fill="#CCCCCC" points="166.858,142.452 166.803,143.375 173.151,145.28 172.973,144.211 		"/>
		<path fill="#C0C0C0" d="M177.386,139.465l0.406,0.939l-4.641,4.875l-0.179-1.068C173.745,142.629,175.369,141.213,177.386,139.465
			z"/>
		<path fill="#EBEBEB" d="M171.533,137.924c-0.81,0.564-3.246,2.705-4.675,4.527l6.114,1.76c0.938-1.402,3.31-3.689,4.413-4.746
			L171.533,137.924z"/>
	</g>
	<g>
		<polygon fill="#CCCCCC" points="174.433,144.583 174.376,145.504 180.724,147.409 180.546,146.342 		"/>
		<path fill="#C0C0C0" d="M184.958,141.596l0.408,0.939l-4.643,4.873l-0.178-1.066C181.319,144.76,182.943,143.342,184.958,141.596z
			"/>
		<path fill="#EBEBEB" d="M179.107,140.055c-0.81,0.563-3.246,2.705-4.675,4.527l6.113,1.76c0.938-1.402,3.311-3.689,4.413-4.746
			L179.107,140.055z"/>
	</g>
	<polygon fill="#BEC232" points="182.005,146.713 181.949,147.635 188.298,149.542 188.119,148.471 	"/>
	<path fill="#A6A837" d="M192.533,143.725l0.406,0.939l-4.641,4.877l-0.18-1.07C188.892,146.889,190.517,145.473,192.533,143.725z"
		/>
	<path fill="#90BA3E" d="M186.681,142.184c-0.811,0.564-3.246,2.707-4.676,4.529l6.113,1.758c0.939-1.4,3.311-3.689,4.414-4.746
		L186.681,142.184z"/>
	<g>
		<polygon fill="#CCCCCC" points="153.751,146.346 153.694,147.27 160.044,149.174 159.865,148.106 		"/>
		<path fill="#C0C0C0" d="M164.277,143.36l0.408,0.939l-4.642,4.875l-0.179-1.068C160.638,146.524,162.261,145.108,164.277,143.36z"
			/>
		<path fill="#EBEBEB" d="M158.427,141.819c-0.811,0.563-3.246,2.705-4.676,4.527l6.114,1.76c0.938-1.402,3.311-3.688,4.412-4.746
			L158.427,141.819z"/>
	</g>
	<g>
		<polygon fill="#CCCCCC" points="161.324,148.477 161.269,149.399 167.618,151.305 167.438,150.237 		"/>
		<path fill="#C0C0C0" d="M171.852,145.491l0.407,0.938l-4.641,4.877l-0.18-1.068C168.212,148.653,169.836,147.237,171.852,145.491z
			"/>
		<path fill="#EBEBEB" d="M166,143.95c-0.81,0.563-3.246,2.705-4.676,4.527l6.114,1.76c0.938-1.402,3.31-3.689,4.413-4.746
			L166,143.95z"/>
	</g>
	<g>
		<polygon fill="#CCCCCC" points="168.898,150.606 168.843,151.53 175.19,153.434 175.012,152.366 		"/>
		<path fill="#C0C0C0" d="M179.425,147.622l0.408,0.938l-4.643,4.875l-0.179-1.068C175.785,150.784,177.408,149.368,179.425,147.622
			z"/>
		<path fill="#EBEBEB" d="M173.573,146.081c-0.81,0.563-3.246,2.705-4.675,4.525l6.113,1.76c0.938-1.4,3.311-3.688,4.413-4.744
			L173.573,146.081z"/>
	</g>
	<g>
		<polygon fill="#90BA3E" points="176.472,152.737 176.415,153.661 182.765,155.565 182.585,154.497 		"/>
		<path fill="#90BA3E" d="M187,149.75l0.406,0.939l-4.641,4.875l-0.18-1.068C183.359,152.915,184.982,151.497,187,149.75z"/>
		<path fill="#90BA3E" d="M181.147,148.209c-0.811,0.563-3.247,2.705-4.676,4.527l6.114,1.76c0.939-1.402,3.311-3.689,4.414-4.746
			L181.147,148.209z"/>
	</g>
	<g>
		<polygon fill="#CCCCCC" points="148.217,152.372 148.161,153.293 154.51,155.2 154.331,154.131 		"/>
		<path fill="#C0C0C0" d="M158.744,149.385l0.408,0.938l-4.643,4.877l-0.179-1.068C155.104,152.547,156.728,151.131,158.744,149.385
			z"/>
		<path fill="#EBEBEB" d="M152.893,147.844c-0.811,0.563-3.246,2.705-4.676,4.527l6.114,1.76c0.938-1.402,3.311-3.689,4.413-4.746
			L152.893,147.844z"/>
	</g>
	<g>
		<polygon fill="#CCCCCC" points="155.791,154.502 155.734,155.424 162.084,157.329 161.905,156.26 		"/>
		<path fill="#C0C0C0" d="M166.318,151.514l0.407,0.939l-4.642,4.875l-0.179-1.068C162.677,154.678,164.302,153.262,166.318,151.514
			z"/>
		<path fill="#EBEBEB" d="M160.466,149.973c-0.81,0.564-3.246,2.705-4.675,4.529l6.114,1.758c0.938-1.4,3.31-3.688,4.413-4.746
			L160.466,149.973z"/>
	</g>
	<g>
		<polygon fill="#CCCCCC" points="163.364,156.631 163.309,157.555 169.657,159.459 169.478,158.391 		"/>
		<path fill="#C0C0C0" d="M173.891,153.645l0.408,0.938l-4.642,4.877l-0.18-1.068C170.252,156.807,171.875,155.391,173.891,153.645z
			"/>
		<path fill="#EBEBEB" d="M168.039,152.104c-0.81,0.563-3.245,2.705-4.675,4.527l6.113,1.76c0.938-1.402,3.311-3.689,4.413-4.746
			L168.039,152.104z"/>
	</g>
	<g>
		<polygon fill="#90BA3E" points="170.938,158.762 170.882,159.684 177.23,161.59 177.053,160.522 		"/>
		<path fill="#90BA3E" d="M181.464,155.776l0.407,0.938l-4.641,4.877l-0.178-1.068C177.825,158.938,179.448,157.522,181.464,155.776
			z"/>
		<path fill="#90BA3E" d="M175.613,154.235c-0.811,0.563-3.246,2.705-4.676,4.527l6.115,1.76c0.938-1.402,3.31-3.689,4.411-4.746
			L175.613,154.235z"/>
	</g>
	<g>
		<polygon fill="#3C6C34" points="142.683,158.397 142.627,159.319 148.977,161.223 148.797,160.157 		"/>
		<path fill="#3B813D" d="M153.21,155.409l0.408,0.939l-4.642,4.875l-0.18-1.066C149.57,158.573,151.194,157.155,153.21,155.409z"/>
		<path fill="#7DB157" d="M147.358,153.868c-0.81,0.564-3.245,2.705-4.675,4.529l6.114,1.76c0.938-1.402,3.311-3.689,4.413-4.748
			L147.358,153.868z"/>
	</g>
	<g>
		<polygon fill="#90BA3E" points="150.257,160.526 150.201,161.45 156.55,163.354 156.371,162.286 		"/>
		<path fill="#90BA3E" d="M160.783,157.54l0.407,0.938l-4.641,4.877l-0.179-1.068C157.144,160.702,158.768,159.288,160.783,157.54z"
			/>
		<path fill="#90BA3E" d="M154.933,155.999c-0.811,0.563-3.247,2.705-4.676,4.527l6.114,1.76c0.938-1.402,3.31-3.689,4.412-4.746
			L154.933,155.999z"/>
	</g>
	<g>
		<polygon fill="#D3682D" points="157.831,162.657 157.774,163.579 164.123,165.483 163.944,164.417 		"/>
		<path fill="#D3682D" d="M168.357,159.668l0.407,0.939l-4.642,4.875l-0.179-1.066C164.717,162.833,166.341,161.417,168.357,159.668
			z"/>
		<path fill="#D3682D" d="M162.506,158.129c-0.81,0.563-3.246,2.703-4.675,4.527l6.113,1.76c0.938-1.402,3.311-3.689,4.413-4.748
			L162.506,158.129z"/>
	</g>
	<g>
		<polygon fill="#90BA3E" points="165.403,164.786 165.348,165.709 171.697,167.614 171.518,166.545 		"/>
		<path fill="#90BA3E" d="M175.931,161.799l0.407,0.938l-4.641,4.877l-0.18-1.068C172.291,164.961,173.914,163.547,175.931,161.799z
			"/>
		<path fill="#90BA3E" d="M170.079,160.258c-0.811,0.563-3.245,2.707-4.676,4.527l6.114,1.76c0.938-1.402,3.311-3.689,4.413-4.746
			L170.079,160.258z"/>
	</g>
	<g>
		<path fill="#93A1A5" d="M225.386,116.445c-0.457,0.313-0.92,0.632-1.385,0.961c-8.26,5.832-17.439,14.158-24.174,21.206
			l-29.162-7.924l-1.462-0.397c6.472-7.254,15.854-14.954,23.963-20.472L225.386,116.445z"/>
		<path fill="#4F676A" d="M193.167,109.818l0.582,1.366l-23.083,19.504l-1.462-0.397
			C176.115,122.133,184.308,115.865,193.167,109.818z"/>
		<path fill="#005357" d="M224.001,117.406c-8.26,5.832-17.439,14.158-24.174,21.206l-29.162-7.924
			c7.126-6.989,16.058-14.796,23.083-19.504L224.001,117.406z"/>
		<path opacity="0.37" fill="#FFFFFF" d="M224.001,117.406l-15.053-3.096c-8.875,1.137-17.625,2.838-26.104,5.265
			c-3.811,3.224-7.648,6.723-11.123,10.085c13.396-2.296,26.998-3.087,40.673-3.029
			C216.242,123.275,220.218,120.079,224.001,117.406z"/>
		<path fill="#C0C0C0" d="M169.204,130.29c10.28-12.027,24.096-20.158,24.096-20.158l-0.133-0.314
			C193.167,109.818,177.846,118.97,169.204,130.29z"/>
	</g>
	<g>
		<path fill="#CCCCCC" d="M176.335,135.809l-0.043,0.717c0,0,2.557,1.289,8.108,2.293l0.043-0.732L176.335,135.809z"/>
		<path fill="#EBEBEB" d="M178.112,134.032l-1.777,1.777c2.243,1.09,5.003,1.809,8.108,2.277l2.059-1.943L178.112,134.032z"/>
		<polygon fill="#C0C0C0" points="184.443,138.086 186.501,136.143 186.449,137.04 184.4,138.819 		"/>
	</g>
	<path fill="#2A3238" d="M200.437,104.604l32.305,6.096c0,0,0.455-1.228,1.596-2.198l-32.359-5.827
		C201.978,102.674,200.468,103.273,200.437,104.604z"/>
	<path fill="#FBFCFC" d="M202.546,104.014c0,0,1.99-17.672,18.016-23.689c12.537,0.854,22.939,3.496,33.441,5.493
		c0,0-17.887,2.762-21.578,23.613L202.546,104.014z"/>
	<g opacity="0.5">
		<g>
			<path fill="#DBDADA" d="M221.097,82.627c-0.51,0.26-1.008,0.529-1.49,0.813l24.199,3.367c0.557-0.275,1.127-0.538,1.715-0.782
				L221.097,82.627z"/>
		</g>
		<g>
			<path fill="#DBDADA" d="M217.179,85.059c-0.375,0.28-0.74,0.568-1.094,0.863l23.584,3.422c0.391-0.293,0.797-0.573,1.209-0.847
				L217.179,85.059z"/>
		</g>
		<g>
			<path fill="#DBDADA" d="M214.218,87.629c-0.291,0.293-0.576,0.592-0.85,0.895l23.25,3.504c0.295-0.301,0.598-0.597,0.91-0.886
				L214.218,87.629z"/>
		</g>
		<g>
			<path fill="#DBDADA" d="M211.884,90.303c-0.232,0.302-0.459,0.608-0.678,0.918l23.027,3.594c0.23-0.309,0.467-0.613,0.711-0.914
				L211.884,90.303z"/>
		</g>
		<g>
			<path fill="#DBDADA" d="M209.451,93.997l22.889,3.69c0.184-0.315,0.371-0.627,0.566-0.935L210,93.059
				C209.812,93.368,209.628,93.681,209.451,93.997z"/>
		</g>
		<g>
			<path fill="#DBDADA" d="M208.011,96.839l22.805,3.788c0.146-0.319,0.297-0.636,0.453-0.952l-22.811-3.789
				C208.306,96.202,208.156,96.52,208.011,96.839z"/>
		</g>
		<g>
			<path fill="#DBDADA" d="M206.824,99.743l22.777,3.891c0.115-0.323,0.234-0.646,0.357-0.966l-22.768-3.89
				C207.066,99.098,206.941,99.42,206.824,99.743z"/>
		</g>
		<g>
			<path fill="#DBDADA" d="M205.849,102.703l22.801,3.998c0.088-0.328,0.18-0.655,0.275-0.981l-22.777-3.994
				C206.042,102.051,205.945,102.377,205.849,102.703z"/>
		</g>
	</g>
	<path fill="#D88528" d="M45.713,147.831c5.279-4.064,27.504,24.811,22.225,28.873c0,0-6.845,7.18-19.202-7.441
		C36.378,154.639,45.713,147.831,45.713,147.831z"/>
	<path fill="#9A9289" d="M49.379,147.463c3.473-2.814,24.165,22.713,20.692,25.529c0,0-2.499,3.846-13.53-7.959
		S49.379,147.463,49.379,147.463z"/>
	<path fill="#FCCB8D" d="M138.578,123.597c-5.039,0.426-7.683-1.074-8.888-3.389c-0.468-0.894-0.72-1.907-0.81-2.98
		c-0.324-3.838,1.499-7.31,8.485-7.904c5.163-0.438,11.563-0.882,14.789,1.715c1.14,0.923,1.889,2.225,2.039,4.042
		C154.78,122.037,145.57,123.002,138.578,123.597z"/>
	<path opacity="0.5" fill="#E8B072" d="M137.366,109.324c-6.986,0.594-8.809,4.066-8.485,7.904c0.09,1.073,0.342,2.087,0.81,2.98
		c1.205,2.314,3.849,3.814,8.888,3.389c0.404-0.034,0.817-0.07,1.233-0.109c0.142-5.308,1.779-10.542,5.366-14.457
		C142.614,108.905,139.849,109.113,137.366,109.324z"/>
	<path fill="#FCCB8D" d="M87.208,102.164c-0.821,2.866-2.135,6.53-1.421,9.535c0.738,3.077,2.717,5.871,3.49,9.008
		c1.266,5.163,0.156,9.577-1.883,13.787c-1.518,3.119-3.538,6.123-5.487,9.234c-4.804,7.682-14.021,24.223-19.058,31.754
		c-3.676-2.717-15.52-13.098-15.585-21.666c5.697-5.176,10.908-6.748,10.398-14.207c-0.468-6.903-2.357-11.694-0.6-18.59
		c3.868-15.232,23.19-21.774,23.549-37.99c0.078-3.329-0.851-10.129,1.386-13.278c0.551-0.773,1.289-1.332,2.278-1.559
		c7.892-1.835,11.221,8.947,10.747,14.753C94.417,90.338,89.224,95.123,87.208,102.164z"/>
	<path opacity="0.3" fill="#FFFFFF" d="M59.747,143.696c-0.154-13.406-3.397-25.383,6.229-33.878
		c7.221-7.221,15.506-14.951,14.519-25.078c-1.622,14.982-19.704,21.594-23.432,36.277c-1.757,6.896,0.132,11.688,0.6,18.59
		c0.51,7.459-4.702,9.031-10.398,14.207c0.013,1.76,0.53,3.598,1.364,5.43C54.47,155.487,59.825,150.571,59.747,143.696z"/>
	<path opacity="0.5" fill="#E8B072" d="M87.208,102.164c-0.821,2.866-2.135,6.53-1.421,9.535c0.738,3.077,2.717,5.871,3.49,9.008
		c1.266,5.163,0.156,9.577-1.883,13.787c0-0.006,0.006-0.018,0.006-0.023c3.143-11.917-1.493-17.62-3.208-22.184
		c-1.715-4.569,1.416-12.677,6.201-19.873c4.792-7.196,2.71-26.986-8.395-22.663c0.551-0.773,1.289-1.332,2.278-1.559
		c7.892-1.835,11.221,8.947,10.747,14.753C94.417,90.338,89.224,95.123,87.208,102.164z"/>
	<g>
		<path fill="#FCCB8D" d="M86.46,113.468c3.314,9.137,9.182,0.853,27.146,1.833c5.916,14.952,5.541,31.374,1.312,48.694
			c0,0-14.089,5.303-27.755,3.33c-15.282-2.205-14.336,1.734-24.317,8.154l-10.452-10.232L86.46,113.468z"/>
		<path opacity="0.5" fill="#E8B072" d="M115.076,161.465c4.018-16.455,4.374-32.053-1.246-46.257
			c-17.064-0.931-22.638,6.939-25.787-1.74l-20.769,31.568c-1.384,2.104-0.676,4.939,1.531,6.154
			c10.354,5.709,21.324,9.764,32.515,13.447C109.129,163.7,115.076,161.465,115.076,161.465z"/>
		<path fill="#E8B072" d="M109.113,121.521c0.331-3.979,3.751-6.873,7.995-6.959c4.846-0.098,11.779,0.351,13.369,3.539
			c1.677,3.361,2.391,9.862-13.381,10.829c-4.249,0.26-8.181-3.08-8.002-7.118C109.099,121.717,109.105,121.62,109.113,121.521z"/>
		<path fill="#E8B072" d="M111.793,131.495c1.028-1.922,2.886-3.264,5.036-3.629c4.757-0.807,13.743-1.553,16.345,3.65
			c1.533,3.068,1.676,8.347-14.31,10.462c-5.56,0.736-9.769-5.012-7.296-10.045C111.639,131.789,111.713,131.643,111.793,131.495z"
			/>
		<path fill="#E8B072" d="M112.15,145.155c0.831-2.199,2.775-3.785,5.092-4.178c4.382-0.744,12.028-1.445,14.959,1.984
			c2.108,2.467,2.167,9.746-13.253,11.32c-4.755,0.484-8.464-4.104-6.969-8.645C112.031,145.479,112.088,145.319,112.15,145.155z"/>
		<path fill="#E8B072" d="M112.712,150.512c4.99-0.344,13.583,0.225,15.689,3.174c2.011,2.814,1.217,9.414-14.747,10.514
			C104.425,162.94,104.023,152.713,112.712,150.512z"/>
		<path fill="#FCCB8D" d="M134.129,154.227c0.375,5.172-5.415,7.174-11.169,7.662c-5.754,0.486-9.512-2.293-9.668-5.895
			c-0.129-2.98,3.549-6.26,9.303-6.75C128.349,148.756,133.769,149.29,134.129,154.227z"/>
		<path fill="#E8B072" d="M122.424,149.262c-5.655,0.539-9.26,3.781-9.132,6.732c0.363,8.205,12.006,5.605,12.006,5.605
			C120.48,161.198,117.454,153.625,122.424,149.262z"/>
	</g>
	<path fill="#5D797E" d="M113.624,168.133l-42.912-18.24c-1.946-0.828-2.853-3.076-2.025-5.021l33.964-79.903
		c0.827-1.945,3.075-2.852,5.021-2.025l42.912,18.24c1.946,0.827,2.854,3.075,2.026,5.021l-33.965,79.903
		C117.817,168.053,115.57,168.959,113.624,168.133z"/>
	<path fill="#FFFCF4" d="M113.994,165.592l-42.372-18.01c-1.907-0.813-2.796-3.016-1.985-4.922l33.052-77.755
		c0.811-1.907,3.014-2.796,4.92-1.986l42.372,18.011c1.906,0.811,2.796,3.013,1.985,4.92l-33.052,77.755
		C118.104,165.514,115.901,166.403,113.994,165.592z"/>
	
		<rect x="87.508" y="74.237" transform="matrix(0.9203 0.3912 -0.3912 0.9203 53.5322 -34.2419)" fill="#0C9999" width="46.588" height="80.038"/>
	
		<rect x="88.019" y="75.113" transform="matrix(0.9203 0.3912 -0.3912 0.9203 53.5238 -34.2388)" fill="#455E7C" width="45.565" height="78.286"/>
	<path fill="#D3682D" d="M123.504,126.881l-30.471-12.102c-1.23-0.489-1.832-1.883-1.343-3.112l5.019-12.638
		c0.489-1.23,1.882-1.832,3.112-1.342l30.471,12.102c1.23,0.489,1.832,1.882,1.342,3.113l-5.019,12.637
		C126.128,126.769,124.734,127.37,123.504,126.881z"/>
	<path fill="#D3682D" d="M93.345,107.501l-1.654,4.166c-0.489,1.229,0.112,2.623,1.343,3.112l30.471,12.102
		c1.23,0.489,2.624-0.112,3.112-1.343l1.483-3.734C119.808,112.449,105.542,108.364,93.345,107.501z"/>
	<polygon opacity="0.3" fill="#A3B3D6" points="141.534,100.197 84.191,118.62 98.36,85.288 147.081,87.146 	"/>
	<path fill="#CCCCCC" d="M136.209,77.23l-16.378-6.962c-0.405-0.173-0.874,0.017-1.046,0.422l-0.591,1.39
		c-0.172,0.406,0.017,0.874,0.422,1.046l16.377,6.961c0.406,0.172,0.875-0.017,1.046-0.422l0.591-1.391
		C136.804,77.87,136.615,77.402,136.209,77.23z"/>
	<path fill="#2E2D2C" d="M98.1,159.627l-14.343-6.098c-0.247-0.105-0.532,0.01-0.636,0.256l-0.139,0.328
		c-0.105,0.246,0.01,0.531,0.256,0.637l14.343,6.096c0.247,0.105,0.531-0.01,0.636-0.256l0.139-0.328
		C98.461,160.016,98.346,159.731,98.1,159.627z"/>
	<path fill="#FCCB8D" d="M146.609,129.593c0.553,6.505-5.817,7.058-11.012,7.5c-5.194,0.439-8.196-1.814-8.5-5.408
		c-0.305-3.593,2.173-7.504,7.368-7.945C139.659,123.299,146.058,123.089,146.609,129.593z"/>
	<path fill="#FCCB8D" d="M140.983,142.024c0.542,6.504-5.303,7.629-9.767,8c-4.464,0.373-7.792-1.076-8.143-5.609
		c-0.279-3.596,2.531-7.834,6.995-8.205C134.533,135.838,140.441,135.518,140.983,142.024z"/>
	<path fill="#FDE3D7" d="M133.521,126.973c0.751,2.134,1.242,5.017,0.726,7.184c-0.074,0.313,0.154,0.613,0.476,0.623
		c1.505,0.053,4.771-0.104,6.179-1.239c1.353-1.092,1.322-6.545-1.467-7.524c-1.841-0.269-3.858-0.104-5.555,0.293
		C133.586,126.378,133.421,126.688,133.521,126.973z"/>
	<path fill="#FDE3D7" d="M129.455,139.678c0.464,2.158,0.592,4.963-0.125,7.018c-0.126,0.361,0.099,0.748,0.479,0.805
		c1.539,0.227,4.669,0.428,6.163-0.504c1.475-0.922,2.1-6.338-0.552-7.648c-1.753-0.477-3.725-0.563-5.431-0.391
		C129.632,138.995,129.38,139.329,129.455,139.678z"/>
	<path fill="#FDE3D7" d="M126.541,151.877c0.235,1.73,0.271,4.533-0.067,6.307c-0.075,0.396,0.145,0.754,0.439,0.713
		c0.83-0.117,1.834-0.428,2.673-1.445c0.745-0.902,1.127-4.943-0.351-5.797c-0.662-0.451-1.455-0.645-2.293-0.518
		C126.681,151.176,126.493,151.526,126.541,151.877z"/>
	<path fill="#FDE3D7" d="M80.617,82.414c0,0,1.297-1.87,1.617-3.244c0.319-1.373,0.154-8.334,0.154-8.334s-0.352-1.098-1.568-0.887
		C80.819,69.949,79.436,75.926,80.617,82.414z"/>
	<path fill="#C2E0E3" d="M39.189,153.463l10.19-6c0,0,5.226,13.91,20.692,25.529L61.43,179.6
		C61.43,179.6,46.409,176.225,39.189,153.463z"/>
	<path fill="#D3682D" d="M67.929,176.711c0,0,0,0-0.006,0.014c0,0,0,0-0.005,0c-0.012,0.01-0.029,0.027-0.057,0.055h-0.005
		c-0.005,0.008-0.012,0.012-0.022,0.029c-0.209,0.227-0.793,0.844-1.761,1.75c-0.934,0.871-2.226,2.016-3.89,3.34
		c-1.5,1.201-3.313,2.549-5.43,3.975c-0.561,0.385-1.15,0.771-1.756,1.162c-3.029,1.953-6.614,4.008-10.753,6.029
		c-8.431,4.1-19.195,8.018-32.434,10.426v-46.637c7.225,0.68,14.79,0.188,22.021-2.406c3.245-1.154,6.41-2.74,9.451-4.83
		c0.102-0.068,0.204-0.137,0.306-0.209c0.646-0.443,1.28-0.912,1.903-1.398c0.073-0.063,0.13-0.107,0.209-0.17
		c-0.362,0.504-0.515,1.205-0.47,2.066v0.006c0.085,1.92,1.11,4.609,2.69,7.549l0.005,0.006c0.006,0.016,0.012,0.021,0.017,0.033
		c0,0,0,0,0,0.012c1.274,2.377,2.911,4.92,4.706,7.354c0.646,0.873,1.313,1.734,1.993,2.572c0.006,0,0.006,0.006,0.012,0.012
		c0.005,0.01,0.005,0.016,0.017,0.016c0.017,0.012,0.023,0.023,0.034,0.035c0.006,0.006,0.006,0.006,0.011,0.01
		c0.385,0.477,0.77,0.947,1.167,1.404c1.059,1.24,2.135,2.395,3.211,3.432c0.028,0.023,0.062,0.053,0.084,0.074l0.085,0.084
		c0.011,0.012,0.017,0.018,0.028,0.023c1.228,1.189,2.434,2.191,3.561,2.955c0.329,0.215,0.668,0.432,0.985,0.611
		c0.306,0.164,0.612,0.324,0.901,0.449c0.107,0.049,0.198,0.084,0.294,0.125c0.005,0,0.017,0,0.022,0.004
		c0.045,0.018,0.097,0.039,0.142,0.053c0.062,0.021,0.102,0.043,0.164,0.055c0.09,0.029,0.17,0.063,0.261,0.08
		C66.524,177.122,67.306,177.086,67.929,176.711z"/>
	<path opacity="0.2" fill="#FFFFFF" d="M46.307,154.061c-0.637-1.582-1.028-3.004-1.079-4.148v-0.006
		c-0.045-0.861,0.108-1.563,0.47-2.066c-0.079,0.063-0.136,0.107-0.209,0.17c-0.623,0.486-1.257,0.955-1.903,1.398
		c-0.102,0.072-0.204,0.141-0.306,0.209c-3.041,2.09-6.206,3.676-9.451,4.83c-7.231,2.594-14.796,3.086-22.021,2.406v6.193
		C24.454,164.885,36.101,160.893,46.307,154.061z"/>
	<path fill="#9C4E30" d="M67.929,176.711c0,0,0,0-0.006,0.014c0,0,0,0-0.005,0c-0.012,0.01-0.029,0.027-0.057,0.055h-0.005
		c-0.005,0.008-0.012,0.012-0.022,0.029c-0.209,0.227-0.793,0.844-1.761,1.75c-0.934,0.871-2.226,2.016-3.89,3.34
		c-1.5,1.201-3.313,2.549-5.43,3.975c-0.561,0.385-1.15,0.771-1.756,1.162c-3.029,1.953-6.614,4.008-10.753,6.029
		c-8.431,4.1-19.195,8.018-32.434,10.426v-4.77c12.151-2.428,22.406-6.244,30.515-10.051c4.15-1.953,7.735-3.895,10.719-5.65
		c0.549-0.322,1.076-0.635,1.58-0.945c1.919-1.166,3.55-2.23,4.887-3.119c0,0,0.005,0,0.005-0.006
		c0.271-0.188,0.521-0.363,0.765-0.521c0.13-0.09,0.26-0.182,0.385-0.266c0-0.006,0-0.006,0.005-0.006c0.006,0,0.006,0,0.006,0
		c1.959-1.342,3.029-2.141,3.159-2.063c0.306,0.164,0.612,0.324,0.901,0.449c0.107,0.049,0.198,0.084,0.294,0.125
		c0.005,0,0.017,0,0.022,0.004c0.045,0.018,0.097,0.039,0.142,0.053c0.062,0.021,0.102,0.043,0.164,0.055
		c0.09,0.029,0.17,0.063,0.261,0.08C66.524,177.122,67.306,177.086,67.929,176.711z"/>
	<path fill="#FCCB8D" d="M145.875,218.395c0,0-3.166,1.822-3.045,9.109c0.006,0.984,0.084,2.068,0.24,3.256l-22.086-0.305
		l-3.628-0.055c0,0,0.078-0.42,0.096-1.115c0.006-0.025,0.006-0.055,0.006-0.078c0.084-2.67-0.6-9.158-8.563-12.648
		c-10.194-4.473-18.519-18.445-19.826-24.502c-1.253-5.813,7.376-17.578,12.096-17.553c0.192,0,0.378,0.018,0.552,0.059h0.006
		c0,0-6.38-30.205,3.682-50.29c1.782-3.729,5.32-4.953,8.252-4.329l0.072,0.018c3.652,0.81,6.321,4.528,3.311,9.853
		c0,0-9.229,18.417-3.449,37.588l5.95-3.316c2.524-1.402,5.679-0.918,7.664,1.189l3.011,3.176l3.778-1.588
		c2.56-1.066,5.511-0.348,7.292,1.77l2.236,2.668l3.646-0.426c2.915-0.342,5.697,1.367,6.692,4.139
		c0.727,2.037,1.374,4.707,1.548,7.951C155.405,182.965,158.295,206.881,145.875,218.395z"/>
	<path opacity="0.3" fill="#FFFFFF" d="M116.937,126.142c-5.335,12.271-10.163,26.05-4.072,38.496
		c-4.178-18.139,4.173-34.823,4.173-34.823c2.681-4.742,0.856-8.208-2.154-9.482C116.498,121.819,117.756,123.683,116.937,126.142z"
		/>
	<path opacity="0.3" fill="#FFFFFF" d="M155.405,182.965c-0.174-3.244-0.821-5.914-1.548-7.951
		c-0.929-2.586-3.416-4.246-6.112-4.178c10.708,15.182,2.512,42.066-5.118,46.752c-2.676,1.645-2.396,10.016-1.919,13.139
		l2.361,0.033c-0.156-1.188-0.234-2.271-0.24-3.256c-0.12-7.287,3.045-9.109,3.045-9.109
		C158.295,206.881,155.405,182.965,155.405,182.965z"/>
	<path fill="#F2B675" d="M114.227,120.132c0,0-7.521-1.089-11.296,13.365c-4.435,16.978-0.586,46.197-0.353,48.121
		c0.006,0.059,0.012,0.09,0.012,0.09s-1.213-7.4-1.04-7.357c0,0-6.354-30.107,3.676-50.125c1.775-3.717,5.301-4.937,8.224-4.314
		l0.072,0.017L114.227,120.132z"/>
	<path fill="#F2B675" d="M120.665,228.35c0.096,0.557-2.633,0.947-3.214,0.936c-0.102,0-0.138-0.018-0.078-0.049
		c0.03-0.012,0.054-0.023,0.084-0.029c0.084-2.67-0.6-9.158-8.563-12.648c-10.194-4.473-18.519-18.445-19.826-24.502
		c-1.253-5.813,7.376-17.578,12.096-17.553c0.192,0,0.378,0.018,0.552,0.059h0.006c0,0,0,0-0.006,0.008
		c-0.042,0.023-0.21,0.125-0.479,0.311c-2.231,1.512-11.37,8.258-10.435,16.721c0.534,4.814,7.172,15.027,12.935,19.494
		c5.775,4.475,13.535,6.416,15.55,11.76C119.844,224.319,120.305,226.239,120.665,228.35z"/>
	<path fill="#F2B675" d="M101.717,174.567c0,0,1.037,12.193,5.077,21.568l-7.391-9.758
		C99.403,186.377,99.489,181.565,101.717,174.567z"/>
	<path fill="#C2E0E3" d="M144.925,234.559l-23.378,2.25l-5.56,0.539l-0.411-2.926l-0.607-4.336c0.821-0.324,1.651-0.617,2.489-0.881
		c1.061-0.326,2.13-0.617,3.208-0.855c9.341-2.139,18.973-1.25,22.163-0.848c0.711,0.086,1.104,0.146,1.104,0.146l0.864,6.021
		L144.925,234.559z"/>
	<path fill="#F7AE1A" d="M149.96,234.667c0,0,0,0.205-0.013,0.594c-0.033,0.959-0.13,3.014-0.39,5.947
		c-0.165,1.818-0.391,3.969-0.714,6.398c0,0.012-0.006,0.027-0.006,0.039c-0.582,4.4-1.461,9.688-2.809,15.555
		c-0.113,0.488-0.227,0.98-0.345,1.479H95.578c4.054-3.822,7.44-7.639,9.909-11.377c1.801-2.723,3.114-5.395,3.839-8.012
		c0.527-1.891,0.917-3.861,1.15-5.895c0.022-0.182,0.045-0.361,0.063-0.543c0.118-1.184,0.186-2.385,0.198-3.613
		c0,0,0.017,0,0.051-0.006c0.012,0,0.017-0.006,0.045-0.012c0.022-0.01,0.063-0.016,0.107-0.023c0.023-0.004,0.045-0.004,0.074-0.01
		c0.005,0,0.017,0,0.028-0.006c0.051-0.006,0.119-0.021,0.182-0.039c0.084-0.012,0.175-0.029,0.271-0.045
		c0.691-0.137,1.829-0.34,3.307-0.572h0.028c0.028-0.006,0.063-0.006,0.085-0.012c0.028,0,0.04-0.006,0.045-0.006h0.006
		c0.209-0.023,0.402-0.063,0.605-0.084h0.006c1.631-0.244,3.578-0.506,5.764-0.73c3.177-0.336,6.834-0.611,10.679-0.691h0.006
		c4.189-0.084,8.584,0.08,12.769,0.674h0.006C146.563,233.918,148.3,234.243,149.96,234.667z"/>
	<path fill="#D3682D" d="M142.348,233.383c-3.429-0.352-6.941-0.449-10.321-0.381h-0.006c-3.844,0.08-7.502,0.355-10.679,0.691
		c-2.186,0.225-4.133,0.486-5.764,0.73h-0.006c-0.204,0.021-0.396,0.061-0.605,0.084h-0.006c-0.005,0-0.017,0.006-0.045,0.006
		c-0.022,0.006-0.057,0.006-0.085,0.012h-0.028c-1.478,0.232-2.616,0.436-3.307,0.572c-0.096,0.016-0.187,0.033-0.271,0.045
		c-0.063,0.018-0.13,0.033-0.182,0.039c-0.011,0.006-0.023,0.006-0.028,0.006c-0.028,0.006-0.051,0.006-0.074,0.01
		c-0.045,0.008-0.085,0.014-0.107,0.023c-0.028,0.006-0.034,0.012-0.045,0.012c-0.034,0.006-0.051,0.006-0.051,0.006
		c-0.012,1.229-0.08,2.43-0.198,3.613c-0.018,0.182-0.04,0.361-0.063,0.543c-0.232,2.033-0.623,4.004-1.15,5.895
		c-0.725,2.617-2.038,5.289-3.839,8.012c-2.469,3.738-5.855,7.555-9.909,11.377h43.38
		C142.114,254.502,143.762,243.872,142.348,233.383z"/>
	<path fill="#D3682D" d="M144.801,233.676h-0.006c-0.808-0.115-1.626-0.209-2.447-0.293c1.414,10.488-0.234,21.119-3.39,31.295
		h6.727c0.118-0.498,0.231-0.99,0.345-1.479c1.348-5.867,2.227-11.154,2.809-15.555c0-0.012,0.006-0.027,0.006-0.039
		c0.323-2.43,0.549-4.58,0.714-6.398c0.26-2.934,0.356-4.988,0.39-5.947c0.013-0.389,0.013-0.594,0.013-0.594
		C148.3,234.243,146.563,233.918,144.801,233.676z"/>
	<path fill="#9C4E30" d="M114.825,240.579c-0.011,0.146-0.023,0.299-0.034,0.441c-0.142,1.818-0.379,3.574-0.696,5.283
		c-0.527,2.934-1.727,5.99-3.46,9.117c-1.676,3.029-3.862,6.125-6.443,9.258h-8.613c4.054-3.822,7.44-7.639,9.909-11.377
		c1.801-2.723,3.114-5.395,3.839-8.012c0.527-1.891,0.917-3.861,1.15-5.895c0.022-0.182,0.045-0.361,0.063-0.543
		c0.118-1.184,0.186-2.385,0.198-3.613c0,0,0.017,0,0.051-0.006c0.012,0,0.017-0.006,0.045-0.012
		c0.022-0.01,0.063-0.016,0.107-0.023c0.023-0.004,0.045-0.004,0.074-0.01c0.005,0,0.017,0,0.028-0.006
		c0.051-0.006,0.119-0.021,0.182-0.039c0.084-0.012,0.175-0.029,0.271-0.045c1.03-0.172,2.814-0.482,3.335-0.572
		c0.028-0.006,0.063-0.006,0.085-0.012c0.028,0,0.04-0.006,0.045-0.006C115.022,236.598,114.978,238.62,114.825,240.579z"/>
	<path fill="#FDE3D7" d="M109.541,123.658c0,0-2.006,3.604-2.823,7.068c0,0,2.899,3.772,7.155,2.501
		c1.602-2.321,3.037-5.827,3.173-7.68C117.047,125.548,113.68,127.129,109.541,123.658z"/>
	<path fill="#FCCB8D" d="M90.396,140.266"/>
	<g>
		<path fill="#80A63F" d="M159.423,21.485c0,0,36.555-1.775,52.422,33.293l11.551-1.464c0,0-10.758-27.661-38.447-34.191
			L159.423,21.485z"/>
		<path opacity="0.5" fill="#80A63F" d="M200.736,25.919c-4.498-2.935-9.738-5.37-15.787-6.796l-25.526,2.362
			c0,0,12.621-0.609,26.25,6C190.644,26.314,195.689,25.836,200.736,25.919z"/>
		<polygon fill="#80A63F" points="193.904,48.433 233.083,43.694 221.302,66.955 		"/>
	</g>
	<path fill="#90BA3E" d="M119.14,61.744l25.45,12c0,0,8.033-48.559,40.359-54.621l-25.526,2.362
		C159.423,21.485,132.067,23.474,119.14,61.744z"/>
	<g>
		<path fill="#90BA3E" d="M205.792,128.562c-5.043,4.518-13.672,6.341-19.271,4.069c-5.6-2.27-6.052-7.773-1.008-12.292
			c5.043-4.519,13.672-6.341,19.271-4.07C210.386,118.539,210.837,124.043,205.792,128.562z"/>
	</g>
	<g>
		<polygon fill="#FFFFFF" points="186.285,129.688 185.667,122.151 190.3,121.172 190.677,125.753 206.759,122.356 207.001,125.313 
					"/>
	</g>
	
		<text transform="matrix(0.9294 0.3691 -0.3691 0.9294 94.0049 111.7827)" fill="#FFFFFF" font-family="'JockeyOne-Regular'" font-size="19.4057" letter-spacing="1">PAY</text>
</g>
</svg>
