<?xml version="1.0" encoding="utf-8"?>
<!-- Generator: Adobe Illustrator 16.0.0, SVG Export Plug-In . SVG Version: 6.00 Build 0)  -->
<!DOCTYPE svg PUBLIC "-//W3C//DTD SVG 1.1//EN" "http://www.w3.org/Graphics/SVG/1.1/DTD/svg11.dtd">
<svg version="1.1" xmlns="http://www.w3.org/2000/svg" xmlns:xlink="http://www.w3.org/1999/xlink" x="0px" y="0px"
	 width="134.334px" height="200px" viewBox="0 0 134.334 200" enable-background="new 0 0 134.334 200" xml:space="preserve">
<g id="BG">
</g>
<g id="Objects">
	<path fill="#FFFFFF" d="M105.571,144.559c-0.665,0-1.267,0.338-1.717,0.889l-37.009-21.715c-1.525-0.895-3.897-0.759-5.305,0.303
		L7.399,164.887c-0.428-0.609-1.044-0.991-1.729-0.991c-1.293,0-2.342,1.365-2.342,3.05c0,3.049,4.301,4.986,6.515,6.436
		c3.768,2.469,7.536,4.935,11.304,7.401c4.35,2.848,8.699,5.697,13.049,8.545c3.241,2.122,6.48,4.242,9.721,6.366
		c0.71,0.464,1.42,0.93,2.13,1.394c1.679,1.1,4.338,0.907,5.93-0.426c1.195-1,2.39-2.001,3.585-3.003
		c3.027-2.534,6.054-5.07,9.082-7.604c4.028-3.373,8.054-6.746,12.082-10.118c4.195-3.514,8.39-7.026,12.584-10.539
		c3.53-2.958,7.061-5.914,10.591-8.871c1.256-1.052,2.513-2.102,3.767-3.156c1.094-0.915,2.607-1.843,3.48-2.929
		C108.475,148.787,108.506,144.559,105.571,144.559z"/>
	<path fill="#848484" d="M48.635,198.029c-0.981,0-1.946-0.246-2.714-0.749L9.716,173.573c-0.374-0.243-0.812-0.505-1.276-0.781
		c-2.255-1.345-5.343-3.186-5.343-5.847c0-1.81,1.154-3.281,2.573-3.281c0.662,0,1.297,0.324,1.772,0.901l53.958-40.716
		c1.472-1.109,3.966-1.25,5.562-0.315l36.842,21.616c0.494-0.533,1.116-0.822,1.767-0.822c1.048,0,1.839,0.494,2.291,1.435
		c0.664,1.384,0.416,3.638-0.533,4.822c-0.61,0.761-1.506,1.431-2.371,2.079c-0.408,0.305-0.795,0.593-1.141,0.883L52.126,196.84
		C51.189,197.623,49.898,198.029,48.635,198.029z M5.671,164.127c-1.164,0-2.111,1.265-2.111,2.818c0,2.398,2.837,4.09,5.117,5.448
		c0.469,0.28,0.912,0.545,1.293,0.794l36.205,23.706c1.598,1.047,4.135,0.862,5.655-0.41l51.691-43.289
		c0.357-0.3,0.745-0.592,1.159-0.9c0.843-0.631,1.717-1.282,2.289-1.998c0.756-0.944,1.137-2.956,0.476-4.333
		c-0.372-0.779-1.003-1.174-1.873-1.174c-0.569,0-1.115,0.286-1.538,0.804c-0.072,0.089-0.197,0.111-0.298,0.053l-37.006-21.712
		c-1.448-0.85-3.714-0.722-5.048,0.285L7.539,165.071c-0.05,0.038-0.113,0.054-0.175,0.044c-0.062-0.01-0.117-0.044-0.153-0.095
		C6.812,164.453,6.25,164.127,5.671,164.127z"/>
	<path fill="#FFFFFF" d="M45.624,194.42L4.919,167.769c-1.568-1.026-1.515-2.853,0.109-4.079l56.089-42.321
		c1.408-1.062,3.779-1.195,5.305-0.302l39.516,23.187c1.625,0.953,1.837,2.658,0.463,3.807l-54.848,45.937
		C49.961,195.329,47.302,195.521,45.624,194.42z"/>
	<path fill="#848484" d="M48.211,195.362c-0.981,0-1.946-0.244-2.715-0.748L4.792,167.961c-0.776-0.508-1.219-1.227-1.245-2.027
		c-0.03-0.876,0.46-1.763,1.342-2.429l56.089-42.321c1.471-1.11,3.966-1.251,5.561-0.314l39.515,23.185
		c0.873,0.511,1.411,1.271,1.479,2.083c0.064,0.77-0.283,1.516-0.982,2.101l-54.848,45.935
		C50.766,194.956,49.474,195.362,48.211,195.362z M45.75,194.228c1.599,1.047,4.135,0.862,5.655-0.409l54.848-45.935
		c0.58-0.485,0.869-1.092,0.819-1.707c-0.057-0.673-0.501-1.284-1.251-1.724l-39.518-23.187c-1.447-0.85-3.712-0.722-5.048,0.286
		L5.167,163.876c-0.761,0.572-1.183,1.317-1.159,2.045c0.021,0.642,0.39,1.23,1.038,1.655L45.75,194.228L45.75,194.228z"/>
	<g id="XMLID_13_">
		<polygon fill="#CAA2EE" points="51.501,189.433 11.03,163.217 61.404,124.961 100.901,148.348 		"/>
		<path fill="#272425" d="M51.501,189.663c-0.043,0-0.087-0.011-0.125-0.037L10.905,163.41c-0.063-0.041-0.103-0.111-0.105-0.186
			c-0.002-0.074,0.032-0.148,0.092-0.192l50.373-38.256c0.075-0.057,0.176-0.062,0.258-0.014l39.498,23.387
			c0.066,0.038,0.106,0.104,0.114,0.18c0.005,0.075-0.026,0.148-0.083,0.197L51.649,189.61
			C51.607,189.646,51.554,189.663,51.501,189.663z M11.433,163.202l40.052,25.944l49.018-40.767l-39.083-23.141L11.433,163.202z"/>
	</g>
	<g id="XMLID_12_">
		<path fill="#FFFFFF" d="M29.821,179.635c-0.999,0.796-2.628,0.907-3.636,0.249c-1.006-0.658-1.009-1.832-0.009-2.622
			c0.997-0.788,2.617-0.897,3.622-0.246C30.804,177.668,30.816,178.842,29.821,179.635z"/>
		<path fill="#272425" d="M27.76,180.541c-0.62,0-1.225-0.152-1.701-0.464c-0.53-0.346-0.835-0.839-0.861-1.388
			c-0.026-0.583,0.278-1.17,0.834-1.608c1.066-0.845,2.812-0.959,3.891-0.259c0.532,0.344,0.839,0.837,0.866,1.386
			c0.028,0.582-0.273,1.167-0.825,1.607l0,0C29.365,180.293,28.551,180.541,27.76,180.541z M28.225,176.819
			c-0.682,0-1.386,0.213-1.906,0.623c-0.444,0.351-0.678,0.787-0.658,1.227c0.018,0.396,0.249,0.76,0.651,1.021
			c0.929,0.606,2.439,0.501,3.365-0.235c0.441-0.354,0.672-0.787,0.651-1.224c-0.019-0.397-0.252-0.761-0.656-1.022
			C29.268,176.947,28.753,176.819,28.225,176.819z M29.821,179.635L29.821,179.635L29.821,179.635z"/>
	</g>
	<g id="XMLID_11_">
		<path fill="#FFFFFF" d="M84.305,136.17l-3.516-2.075c-0.218-0.128-0.238-0.357-0.042-0.512l0.006-0.005
			c0.195-0.154,0.53-0.174,0.749-0.046l3.514,2.073c0.221,0.129,0.241,0.36,0.047,0.516l-0.007,0.005
			C84.861,136.28,84.524,136.302,84.305,136.17z"/>
		<path fill="#272425" d="M84.638,136.485c-0.16,0-0.319-0.038-0.451-0.116l-3.516-2.075c-0.173-0.101-0.278-0.26-0.29-0.434
			c-0.012-0.172,0.068-0.338,0.22-0.459c0.273-0.217,0.717-0.245,1.017-0.067l3.514,2.071c0.174,0.102,0.28,0.262,0.292,0.438
			c0.011,0.169-0.069,0.338-0.219,0.459C85.051,136.422,84.844,136.485,84.638,136.485z M81.164,133.68
			c-0.101,0-0.202,0.027-0.269,0.078c-0.04,0.033-0.053,0.059-0.052,0.072s0.021,0.041,0.065,0.067l3.515,2.075l0,0
			c0.136,0.08,0.369,0.066,0.487-0.027c0.043-0.035,0.055-0.059,0.054-0.07c-0.002-0.016-0.022-0.046-0.067-0.071l-3.514-2.071
			C81.323,133.697,81.243,133.68,81.164,133.68z"/>
	</g>
	<path fill="#FFFFFF" d="M105.293,140.352c-0.663,0-1.268,0.338-1.717,0.889l-37.007-21.713c-1.526-0.895-3.898-0.762-5.305,0.301
		L7.122,160.681c-0.429-0.609-1.044-0.992-1.729-0.992c-1.292,0-2.341,1.366-2.341,3.052c0,3.05,4.301,4.984,6.514,6.435
		c3.768,2.468,7.535,4.935,11.304,7.403c4.35,2.848,8.699,5.695,13.049,8.544c3.24,2.12,6.48,4.243,9.721,6.364
		c0.71,0.464,1.42,0.93,2.131,1.395c1.678,1.099,4.338,0.908,5.929-0.425c1.195-1.002,2.391-2.003,3.586-3.004
		c3.027-2.535,6.053-5.07,9.081-7.605c4.027-3.371,8.054-6.745,12.082-10.117c4.194-3.514,8.39-7.026,12.583-10.54
		c3.532-2.957,7.061-5.912,10.591-8.87c1.256-1.051,2.513-2.104,3.768-3.154c1.093-0.916,2.609-1.844,3.479-2.931
		C108.196,144.58,108.228,140.352,105.293,140.352z"/>
	<path fill="#848484" d="M48.358,193.822c-0.982,0-1.946-0.243-2.715-0.747L9.439,169.369c-0.374-0.245-0.812-0.507-1.276-0.784
		c-2.255-1.345-5.343-3.186-5.343-5.845c0-1.811,1.154-3.283,2.573-3.283c0.663,0,1.297,0.326,1.772,0.901l53.959-40.715
		c1.472-1.11,3.965-1.251,5.561-0.315l36.843,21.616c0.493-0.532,1.114-0.824,1.765-0.824c1.05,0,1.842,0.497,2.292,1.436
		c0.664,1.385,0.416,3.639-0.534,4.823c-0.609,0.76-1.505,1.431-2.373,2.079c-0.406,0.306-0.792,0.593-1.138,0.884l-51.691,43.29
		C50.912,193.417,49.621,193.822,48.358,193.822z M5.393,159.92c-1.164,0-2.11,1.265-2.11,2.82c0,2.397,2.837,4.09,5.117,5.449
		c0.469,0.277,0.911,0.543,1.293,0.791l36.204,23.708c1.599,1.046,4.136,0.862,5.656-0.41l51.691-43.292
		c0.354-0.298,0.745-0.589,1.158-0.899c0.844-0.63,1.715-1.282,2.288-1.997c0.757-0.944,1.14-2.957,0.479-4.334
		c-0.373-0.778-1.005-1.174-1.875-1.174c-0.566,0-1.114,0.285-1.537,0.805c-0.072,0.089-0.198,0.11-0.297,0.054l-37.008-21.714
		c-1.448-0.851-3.713-0.721-5.049,0.285L7.261,160.866c-0.05,0.037-0.113,0.053-0.175,0.044c-0.062-0.011-0.117-0.044-0.153-0.097
		C6.534,160.245,5.973,159.92,5.393,159.92z"/>
	<path fill="#C6C6C6" d="M45.347,190.216L4.641,163.563c-1.568-1.027-1.515-2.854,0.11-4.079l56.088-42.321
		c1.408-1.063,3.779-1.197,5.304-0.302l39.517,23.186c1.625,0.954,1.837,2.657,0.465,3.808l-54.85,45.935
		C49.684,191.122,47.024,191.313,45.347,190.216z"/>
	<path fill="#848484" d="M47.934,191.156c-0.981,0-1.946-0.244-2.714-0.748l0,0L4.515,163.755c-0.777-0.507-1.22-1.228-1.247-2.025
		c-0.029-0.879,0.46-1.765,1.344-2.431l56.088-42.32c1.472-1.11,3.966-1.252,5.562-0.316l39.515,23.186
		c0.871,0.512,1.409,1.27,1.478,2.084c0.063,0.77-0.286,1.515-0.983,2.099l-54.848,45.937
		C50.488,190.752,49.196,191.156,47.934,191.156z M63.767,116.498c-1.017,0-2.045,0.29-2.788,0.849L4.889,159.669
		c-0.76,0.574-1.182,1.32-1.159,2.046c0.022,0.643,0.391,1.229,1.038,1.654l40.705,26.652c1.599,1.048,4.135,0.864,5.655-0.409
		l54.847-45.937c0.581-0.484,0.87-1.091,0.82-1.707c-0.057-0.671-0.5-1.282-1.251-1.723l-39.517-23.186
		C65.384,116.684,64.58,116.498,63.767,116.498z"/>
	<g id="XMLID_6_">
		<polygon fill="#5B5B5B" points="51.224,185.227 10.753,159.01 61.126,120.756 100.625,144.142 		"/>
	</g>
	<path fill="#FFFFFF" d="M29.543,175.429c-0.999,0.796-2.627,0.908-3.636,0.249c-1.006-0.656-1.008-1.831-0.008-2.622
		c0.997-0.79,2.617-0.898,3.621-0.247C30.526,173.462,30.539,174.635,29.543,175.429z"/>
	<path fill="#808080" d="M27.482,176.334c-0.62,0-1.225-0.15-1.701-0.462c-0.53-0.347-0.835-0.84-0.86-1.389
		c-0.026-0.582,0.277-1.17,0.834-1.61c1.066-0.842,2.812-0.958,3.891-0.259c0.531,0.345,0.839,0.838,0.866,1.387
		c0.028,0.581-0.272,1.169-0.825,1.609l0,0C29.088,176.086,28.273,176.334,27.482,176.334z M27.947,172.612
		c-0.682,0-1.386,0.214-1.905,0.626c-0.445,0.351-0.679,0.785-0.659,1.224c0.018,0.397,0.249,0.76,0.651,1.022
		c0.93,0.608,2.439,0.501,3.365-0.236c0.441-0.352,0.672-0.787,0.651-1.225c-0.02-0.396-0.252-0.757-0.655-1.02
		C28.99,172.739,28.476,172.612,27.947,172.612z M29.543,175.429h0.001H29.543z"/>
	<path fill="#FFFFFF" d="M84.025,131.965l-3.513-2.074c-0.22-0.131-0.239-0.36-0.045-0.514l0.007-0.006
		c0.195-0.154,0.53-0.173,0.748-0.043l3.513,2.069c0.221,0.129,0.242,0.361,0.049,0.516l-0.008,0.007
		C84.582,132.074,84.247,132.094,84.025,131.965z"/>
	<path fill="#808080" d="M84.361,132.28c-0.161,0-0.32-0.038-0.452-0.116l0,0l-3.516-2.075c-0.172-0.103-0.278-0.26-0.291-0.436
		c-0.01-0.17,0.07-0.338,0.222-0.456c0.273-0.219,0.716-0.245,1.016-0.068l3.514,2.071c0.174,0.102,0.28,0.261,0.292,0.436
		c0.012,0.171-0.067,0.338-0.218,0.458C84.773,132.218,84.568,132.28,84.361,132.28z M84.145,131.766
		c0.137,0.08,0.369,0.068,0.488-0.026c0.042-0.033,0.053-0.058,0.052-0.071c-0.001-0.016-0.022-0.044-0.067-0.071l-3.513-2.07
		c-0.135-0.08-0.368-0.068-0.487,0.026c-0.04,0.032-0.055,0.057-0.053,0.07c0.001,0.015,0.021,0.041,0.064,0.066L84.145,131.766z"/>
	<g id="XMLID_141_">
		<path fill="#768EB0" d="M70.636,143.535l-6.111-3.259c-0.281-0.149-0.539-0.407-0.729-0.703c-0.201-0.313-0.328-0.673-0.332-0.998
			l-0.078-6.72c-0.005-0.32,0.11-0.546,0.299-0.652c0.189-0.106,0.452-0.096,0.743,0.062l6.155,3.305
			c0.277,0.149,0.53,0.402,0.718,0.694c0.206,0.319,0.335,0.688,0.338,1.017l0.034,6.676c0.001,0.308-0.109,0.525-0.29,0.634
			C71.194,143.7,70.93,143.691,70.636,143.535z"/>
	</g>
	<g id="XMLID_140_">
		<path fill="#52617D" d="M64.493,125.131l-7.509-4.042c-0.346-0.187-0.663-0.501-0.898-0.866c-0.249-0.383-0.407-0.819-0.414-1.213
			l-0.141-8.17c-0.006-0.389,0.132-0.661,0.363-0.788c0.232-0.127,0.553-0.108,0.913,0.086l7.573,4.109
			c0.341,0.186,0.652,0.496,0.886,0.856c0.253,0.39,0.413,0.837,0.417,1.239l0.076,8.101c0.004,0.372-0.13,0.636-0.351,0.763
			C65.179,125.338,64.854,125.324,64.493,125.131z"/>
	</g>
	<g id="XMLID_139_">
		<path fill="#52617D" d="M37.896,84.057l-7.839-4.305c-0.362-0.198-0.696-0.534-0.947-0.922c-0.265-0.409-0.437-0.874-0.454-1.293
			l-0.323-8.709c-0.015-0.413,0.123-0.704,0.359-0.84c0.236-0.135,0.569-0.116,0.943,0.092l7.909,4.38
			c0.356,0.198,0.685,0.53,0.933,0.912c0.27,0.417,0.445,0.894,0.457,1.322l0.252,8.632c0.012,0.397-0.121,0.678-0.346,0.813
			C38.606,84.279,38.272,84.263,37.896,84.057z"/>
	</g>
	<g id="XMLID_138_">
		<path fill="#768EB0" d="M128.708,94.919l-7.479-4.234c-0.346-0.195-0.655-0.526-0.876-0.908c-0.234-0.402-0.375-0.859-0.361-1.272
			l0.275-8.564c0.013-0.407,0.17-0.693,0.412-0.826c0.244-0.134,0.572-0.114,0.931,0.089l7.541,4.309
			c0.342,0.193,0.644,0.521,0.865,0.896c0.238,0.411,0.379,0.879,0.362,1.3l-0.34,8.491c-0.016,0.389-0.165,0.666-0.399,0.799
			C129.397,95.138,129.065,95.122,128.708,94.919z"/>
	</g>
	<g id="XMLID_137_">
		<path fill="#768EB0" d="M71.761,45.715l-7.953-4.559c-0.367-0.21-0.702-0.567-0.951-0.979c-0.261-0.433-0.427-0.926-0.432-1.37
			l-0.104-9.228c-0.005-0.439,0.145-0.748,0.39-0.892c0.247-0.143,0.589-0.122,0.969,0.098l8.025,4.642
			c0.362,0.208,0.691,0.561,0.936,0.966c0.268,0.441,0.435,0.947,0.438,1.4l0.03,9.146c0.002,0.419-0.143,0.717-0.377,0.86
			C72.488,45.95,72.144,45.933,71.761,45.715z"/>
	</g>
	<g id="XMLID_136_">
		<path fill="#768EB0" d="M41.01,69.597L26.555,61.56c-0.669-0.372-1.288-1.002-1.754-1.729c-0.492-0.767-0.814-1.639-0.846-2.427
			l-0.657-16.442c-0.032-0.786,0.223-1.34,0.66-1.598c0.438-0.257,1.058-0.219,1.757,0.175l14.697,8.301
			c0.66,0.373,1.267,1,1.725,1.722c0.5,0.787,0.821,1.686,0.842,2.492l0.417,16.178c0.019,0.739-0.227,1.261-0.643,1.514
			C42.319,70.01,41.704,69.981,41.01,69.597z"/>
	</g>
	<g id="XMLID_135_">
		<path fill="#768EB0" d="M106.778,45.378L92.58,37.187c-0.657-0.38-1.25-1.023-1.686-1.763c-0.458-0.782-0.741-1.672-0.733-2.473
			l0.15-16.768c0.006-0.802,0.291-1.365,0.747-1.627c0.454-0.263,1.079-0.225,1.764,0.178l14.432,8.466
			c0.646,0.38,1.229,1.019,1.656,1.756c0.464,0.802,0.746,1.718,0.726,2.542l-0.382,16.493c-0.018,0.752-0.293,1.286-0.725,1.543
			C108.078,45.801,107.457,45.771,106.778,45.378z"/>
	</g>
	<g id="XMLID_134_">
		<path fill="#98B9E2" d="M49.799,35.086l-14.779-8.459c-0.684-0.391-1.315-1.055-1.789-1.82c-0.5-0.807-0.825-1.727-0.853-2.555
			L31.81,4.933c-0.028-0.828,0.237-1.411,0.688-1.683c0.451-0.271,1.087-0.232,1.801,0.185l15.031,8.746
			c0.675,0.392,1.294,1.053,1.759,1.813c0.507,0.828,0.832,1.775,0.847,2.625l0.317,17.032c0.014,0.778-0.242,1.328-0.67,1.594
			C51.139,35.522,50.507,35.491,49.799,35.086z"/>
	</g>
	<g id="XMLID_133_">
		<path fill="#98B9E2" d="M60.809,107.977l-14.182-7.722c-0.656-0.359-1.259-0.963-1.709-1.661
			c-0.477-0.736-0.782-1.576-0.801-2.329l-0.407-15.794c-0.019-0.755,0.242-1.286,0.677-1.534c0.437-0.247,1.05-0.21,1.734,0.168
			l14.415,7.972c0.646,0.359,1.238,0.96,1.681,1.654c0.481,0.756,0.788,1.619,0.796,2.394l0.175,15.541
			c0.007,0.709-0.244,1.212-0.659,1.453C62.098,108.373,61.489,108.344,60.809,107.977z"/>
	</g>
	<g id="XMLID_132_">
		<path fill="#768EB0" d="M82.048,114.52l-11.769-6.432c-0.543-0.297-1.039-0.801-1.405-1.381c-0.385-0.612-0.629-1.31-0.634-1.938
			l-0.096-13.104c-0.005-0.625,0.221-1.064,0.589-1.269c0.368-0.205,0.879-0.175,1.445,0.138l11.928,6.607
			c0.536,0.297,1.022,0.796,1.384,1.372c0.392,0.628,0.636,1.343,0.633,1.987l-0.064,12.927c-0.003,0.591-0.22,1.012-0.571,1.212
			C83.122,114.852,82.611,114.827,82.048,114.52z"/>
	</g>
	<g id="XMLID_131_">
		<path fill="#52617D" d="M78.179,89.552L54.988,76.653c-1.077-0.598-2.064-1.615-2.8-2.787c-0.777-1.237-1.274-2.647-1.3-3.919
			l-0.54-26.802c-0.026-1.292,0.411-2.201,1.14-2.624c0.729-0.424,1.749-0.362,2.886,0.287l23.818,13.602
			c1.064,0.608,2.031,1.631,2.748,2.809c0.78,1.281,1.265,2.744,1.261,4.056l-0.087,26.097c-0.004,1.183-0.428,2.019-1.116,2.423
			C80.283,90.214,79.284,90.167,78.179,89.552z"/>
	</g>
	<g id="XMLID_130_">
		<path fill="#98B9E2" d="M111.098,92.539L92.952,82.326c-0.841-0.473-1.601-1.276-2.159-2.202c-0.588-0.976-0.95-2.089-0.94-3.092
			l0.193-21.046c0.01-1.01,0.376-1.721,0.959-2.052c0.585-0.331,1.389-0.282,2.271,0.225l18.529,10.65
			c0.831,0.478,1.574,1.281,2.121,2.206c0.591,1.006,0.946,2.156,0.917,3.187l-0.574,20.608c-0.026,0.937-0.381,1.601-0.934,1.921
			C112.76,93.064,111.966,93.026,111.098,92.539z"/>
	</g>
	<g id="XMLID_129_">
		<path fill="#52617D" d="M100.629,113.116l-11.689-6.443c-0.54-0.3-1.028-0.803-1.386-1.387c-0.378-0.612-0.611-1.311-0.607-1.942
			l0.094-13.132c0.002-0.626,0.236-1.067,0.607-1.272c0.372-0.205,0.884-0.174,1.446,0.14l11.843,6.621
			c0.532,0.296,1.012,0.798,1.365,1.375c0.385,0.629,0.618,1.347,0.605,1.992l-0.252,12.956c-0.01,0.593-0.233,1.014-0.588,1.216
			C101.699,113.449,101.188,113.426,100.629,113.116z"/>
	</g>
	<g id="XMLID_128_">
		<path fill="#98B9E2" d="M108.612,129.539l-9.409-5.141c-0.435-0.237-0.827-0.64-1.112-1.103c-0.301-0.49-0.484-1.044-0.476-1.545
			l0.161-10.433c0.008-0.497,0.198-0.846,0.5-1.01c0.301-0.163,0.712-0.138,1.163,0.11l9.51,5.252
			c0.429,0.238,0.813,0.636,1.095,1.094c0.306,0.499,0.492,1.07,0.478,1.581l-0.264,10.321c-0.012,0.473-0.194,0.807-0.481,0.97
			C109.476,129.805,109.063,129.785,108.612,129.539z"/>
	</g>
	<g id="XMLID_127_">
		<path fill="#52617D" d="M121.774,111.457l-9.488-5.288c-0.439-0.243-0.831-0.658-1.116-1.134
			c-0.302-0.504-0.479-1.076-0.469-1.591l0.274-10.733c0.012-0.512,0.207-0.872,0.515-1.039c0.306-0.167,0.725-0.143,1.179,0.113
			l9.592,5.406c0.432,0.242,0.818,0.651,1.1,1.124c0.306,0.513,0.487,1.1,0.469,1.628l-0.375,10.616
			c-0.019,0.486-0.207,0.831-0.5,0.998C122.647,111.729,122.229,111.711,121.774,111.457z"/>
	</g>
	<g id="XMLID_126_">
		<path fill="#98B9E2" d="M78.202,126.212l-6.158-3.33c-0.284-0.154-0.542-0.414-0.732-0.714c-0.201-0.315-0.327-0.676-0.33-0.998
			l-0.035-6.718c-0.001-0.32,0.116-0.543,0.307-0.647c0.192-0.105,0.457-0.09,0.751,0.07l6.201,3.375
			c0.279,0.153,0.534,0.409,0.722,0.704c0.205,0.321,0.334,0.688,0.333,1.021l-0.008,6.67c0,0.306-0.113,0.522-0.296,0.629
			C78.765,126.383,78.498,126.37,78.202,126.212z"/>
	</g>
	<g id="XMLID_125_">
		<path fill="#52617D" d="M117.83,64.088l-6.3-3.623c-0.291-0.167-0.551-0.451-0.739-0.777c-0.199-0.344-0.314-0.734-0.306-1.087
			l0.211-7.315c0.011-0.347,0.141-0.591,0.346-0.706c0.203-0.113,0.479-0.097,0.779,0.078l6.347,3.677
			c0.285,0.165,0.539,0.444,0.726,0.765c0.202,0.351,0.322,0.751,0.31,1.11l-0.255,7.262c-0.014,0.334-0.14,0.57-0.334,0.685
			C118.411,64.275,118.133,64.262,117.83,64.088z"/>
	</g>
	<g id="XMLID_124_">
		<path fill="#52617D" d="M82.838,42.211l-11.331-6.524c-0.523-0.301-1.001-0.813-1.353-1.401c-0.372-0.622-0.605-1.329-0.608-1.965
			L69.463,19.04c-0.005-0.633,0.213-1.079,0.567-1.285c0.356-0.208,0.847-0.177,1.392,0.14l11.479,6.695
			c0.516,0.301,0.983,0.808,1.331,1.391c0.378,0.635,0.612,1.361,0.609,2.013l-0.066,13.111c-0.002,0.601-0.213,1.025-0.55,1.23
			C83.873,42.548,83.381,42.523,82.838,42.211z"/>
	</g>
	<g id="XMLID_123_">
		<path fill="#768EB0" d="M92.652,86.932l-6.308-3.538c-0.291-0.163-0.555-0.438-0.747-0.757c-0.204-0.336-0.33-0.717-0.328-1.062
			l0.041-7.14c0.001-0.34,0.125-0.578,0.325-0.689c0.198-0.111,0.472-0.095,0.773,0.076l6.353,3.589
			c0.287,0.162,0.545,0.434,0.736,0.747c0.209,0.343,0.338,0.733,0.333,1.084l-0.087,7.088c-0.002,0.327-0.122,0.558-0.313,0.668
			C93.231,87.115,92.955,87.103,92.652,86.932z"/>
	</g>
</g>
</svg>
