<?xml version="1.0" encoding="utf-8"?>
<!-- Generator: Adobe Illustrator 16.0.0, SVG Export Plug-In . SVG Version: 6.00 Build 0)  -->
<!DOCTYPE svg PUBLIC "-//W3C//DTD SVG 1.1//EN" "http://www.w3.org/Graphics/SVG/1.1/DTD/svg11.dtd">
<svg version="1.1" id="Capa_1" xmlns="http://www.w3.org/2000/svg" xmlns:xlink="http://www.w3.org/1999/xlink" x="0px" y="0px"
	 width="200px" height="165px" viewBox="0 0 200 165" enable-background="new 0 0 200 165" xml:space="preserve">
<path fill="#083D5C" stroke="#24346C" stroke-miterlimit="10" d="M72.062,157.795c0,1.706-1.385,3.092-3.095,3.092H9.91
	c-1.707,0-3.093-1.386-3.093-3.092V77.644c0-1.707,1.387-3.093,3.093-3.093h59.056c1.71,0,3.095,1.387,3.095,3.093V157.795z"/>
<g>
	<path fill="#FFFFFF" d="M66.721,153.238c0,1.43-1.159,2.586-2.589,2.586H14.746c-1.429,0-2.586-1.156-2.586-2.586V82.482
		c0-1.43,1.158-2.588,2.586-2.588h49.386c1.43,0,2.589,1.158,2.589,2.588V153.238z"/>
	<g>
		<path fill="#D1D3D4" d="M62.427,89.221c0,0.365-0.292,0.658-0.656,0.658H17.107c-0.362,0-0.658-0.293-0.658-0.658l0,0
			c0-0.361,0.296-0.655,0.658-0.655h44.664C62.135,88.565,62.427,88.859,62.427,89.221L62.427,89.221z"/>
		<path fill="#D1D3D4" d="M62.427,95.885c0,0.361-0.292,0.655-0.656,0.655H17.107c-0.362,0-0.658-0.294-0.658-0.655l0,0
			c0-0.363,0.296-0.659,0.658-0.659h44.664C62.135,95.226,62.427,95.521,62.427,95.885L62.427,95.885z"/>
		<path fill="#D1D3D4" d="M62.427,102.547c0,0.363-0.292,0.656-0.656,0.656H17.107c-0.362,0-0.658-0.293-0.658-0.656l0,0
			c0-0.363,0.296-0.656,0.658-0.656h44.664C62.135,101.891,62.427,102.184,62.427,102.547L62.427,102.547z"/>
		<path fill="#D1D3D4" d="M62.427,109.21c0,0.363-0.292,0.656-0.656,0.656H17.107c-0.362,0-0.658-0.293-0.658-0.656l0,0
			c0-0.362,0.296-0.657,0.658-0.657h44.664C62.135,108.553,62.427,108.848,62.427,109.21L62.427,109.21z"/>
		<path fill="#D1D3D4" d="M62.427,115.873c0,0.362-0.292,0.656-0.656,0.656H17.107c-0.362,0-0.658-0.294-0.658-0.656l0,0
			c0-0.364,0.296-0.658,0.658-0.658h44.664C62.135,115.215,62.427,115.509,62.427,115.873L62.427,115.873z"/>
		<path fill="#D1D3D4" d="M62.427,122.535c0,0.361-0.292,0.655-0.656,0.655H17.107c-0.362,0-0.658-0.294-0.658-0.655l0,0
			c0-0.363,0.296-0.656,0.658-0.656h44.664C62.135,121.879,62.427,122.172,62.427,122.535L62.427,122.535z"/>
		<path fill="#D1D3D4" d="M62.427,129.196c0,0.364-0.292,0.658-0.656,0.658H17.107c-0.362,0-0.658-0.294-0.658-0.658l0,0
			c0-0.362,0.296-0.656,0.658-0.656h44.664C62.135,128.54,62.427,128.834,62.427,129.196L62.427,129.196z"/>
		<path fill="#D1D3D4" d="M62.427,135.86c0,0.362-0.292,0.656-0.656,0.656H17.107c-0.362,0-0.658-0.294-0.658-0.656l0,0
			c0-0.361,0.296-0.656,0.658-0.656h44.664C62.135,135.204,62.427,135.499,62.427,135.86L62.427,135.86z"/>
		<path fill="#D1D3D4" d="M62.427,142.522c0,0.363-0.292,0.657-0.656,0.657H17.107c-0.362,0-0.658-0.294-0.658-0.657l0,0
			c0-0.362,0.296-0.656,0.658-0.656h44.664C62.135,141.866,62.427,142.16,62.427,142.522L62.427,142.522z"/>
		<path fill="#D1D3D4" d="M62.427,149.186c0,0.362-0.292,0.656-0.656,0.656H17.107c-0.362,0-0.658-0.294-0.658-0.656l0,0
			c0-0.362,0.296-0.656,0.658-0.656h44.664C62.135,148.529,62.427,148.823,62.427,149.186L62.427,149.186z"/>
	</g>
</g>
<path fill="#688FB5" stroke="#24346C" stroke-miterlimit="10" d="M59.124,81.955c0,1.709-1.385,3.095-3.091,3.095H22.847
	c-1.708,0-3.093-1.386-3.093-3.095V71.271c0-1.709,1.385-3.095,3.093-3.095h33.186c1.707,0,3.091,1.386,3.091,3.095V81.955z"/>
<path fill="#47607E" d="M49.983,79.644c-3.373,0.565-6.714,0.544-10.058-0.26c-3.04-0.733-6.433-2.207-8.479-4.683
	c-1.691-2.044-2.556-4.254-2.81-6.525h-5.79c-1.708,0-3.093,1.386-3.093,3.095v10.685c0,1.709,1.385,3.095,3.093,3.095h33.186
	c1.707,0,3.091-1.386,3.091-3.095V75.63C56.513,77.64,53.448,79.065,49.983,79.644z"/>
<path fill="#688FB5" d="M39.439,57.208c-5.437,0-9.842,4.407-9.842,9.845c0,5.434,4.405,9.842,9.842,9.842
	c5.436,0,9.843-4.409,9.843-9.842C49.282,61.616,44.875,57.208,39.439,57.208z M39.439,70.708c-2.484,0-4.499-2.014-4.499-4.499
	c0-2.486,2.015-4.5,4.499-4.5c2.485,0,4.5,2.015,4.5,4.5C43.939,68.694,41.924,70.708,39.439,70.708z"/>
<path fill="#FFFFFF" d="M56.593,69.77c0,0.257-0.209,0.469-0.468,0.469H31.283c-0.258,0-0.468-0.212-0.468-0.469l0,0
	c0-0.26,0.21-0.469,0.468-0.469h24.842C56.384,69.301,56.593,69.51,56.593,69.77L56.593,69.77z"/>
<path fill="#323C47" d="M194.871,63.348c0.081-0.921,0.129-1.853,0.129-2.795c0-0.943-0.048-1.874-0.129-2.794
	c-6.334-2.345-7.147-5.299-2.847-10.446c-0.762-1.606-1.664-3.131-2.682-4.571c-6.564,1.246-8.67-0.861-7.428-7.427
	c-1.438-1.017-2.966-1.917-4.569-2.681c-5.145,4.303-8.099,3.487-10.446-2.844c-0.918-0.083-1.85-0.132-2.795-0.132
	c-0.941,0-1.869,0.049-2.792,0.131c-2.345,6.333-5.298,7.148-10.449,2.846c-1.604,0.763-3.132,1.664-4.569,2.682
	c1.244,6.566-0.858,8.67-7.426,7.426c-1.016,1.438-1.918,2.964-2.68,4.569c4.302,5.147,3.487,8.102-2.847,10.448
	c-0.08,0.919-0.133,1.85-0.133,2.793c0,0.942,0.053,1.872,0.133,2.794c6.334,2.345,7.148,5.299,2.847,10.447
	c0.762,1.604,1.664,3.129,2.68,4.569c6.567-1.244,8.67,0.861,7.426,7.426c1.438,1.018,2.965,1.918,4.569,2.681
	c5.151-4.302,8.104-3.486,10.449,2.846c0.923,0.083,1.851,0.132,2.792,0.132c0.945,0,1.877-0.049,2.795-0.132
	c2.348-6.332,5.302-7.146,10.446-2.844c1.604-0.763,3.131-1.665,4.569-2.68c-1.242-6.566,0.863-8.672,7.428-7.429
	c1.018-1.438,1.92-2.964,2.682-4.569C187.724,68.646,188.537,65.692,194.871,63.348z M164.104,82.616
	c-12.184,0-22.063-9.878-22.063-22.063s9.88-22.065,22.063-22.065c12.187,0,22.067,9.88,22.067,22.065
	S176.291,82.616,164.104,82.616z"/>
<path fill="#266295" d="M164.104,42.4c-10.022,0-18.152,8.126-18.152,18.153c0,10.026,8.13,18.152,18.152,18.152
	c10.027,0,18.152-8.126,18.152-18.152C182.257,50.526,174.132,42.4,164.104,42.4z M164.104,73.263
	c-7.016,0-12.709-5.691-12.709-12.71s5.693-12.71,12.709-12.71c7.019,0,12.711,5.692,12.711,12.71S171.123,73.263,164.104,73.263z"
	/>
<g>
	<path fill="#B5B6B6" d="M194.871,63.348c0.081-0.921,0.129-1.853,0.129-2.795c0-0.943-0.048-1.874-0.129-2.794
		c-6.334-2.345-7.147-5.299-2.847-10.446c-0.762-1.606-1.664-3.131-2.682-4.571c-6.564,1.246-8.67-0.861-7.428-7.427
		c-1.438-1.017-2.966-1.917-4.569-2.681c-5.145,4.303-8.099,3.487-10.446-2.844c-0.709-0.064-1.43-0.1-2.151-0.117v8.832
		c11.888,0.341,21.424,10.078,21.424,22.048c0,11.972-9.536,21.708-21.424,22.047v8.832c0.722-0.017,1.442-0.053,2.151-0.116
		c2.348-6.332,5.302-7.146,10.446-2.844c1.604-0.763,3.131-1.665,4.569-2.68c-1.242-6.566,0.863-8.672,7.428-7.429
		c1.018-1.438,1.92-2.964,2.682-4.569C187.724,68.646,188.537,65.692,194.871,63.348z"/>
	<path fill="#B5B6B6" d="M164.748,42.432v5.444c6.718,0.335,12.067,5.874,12.067,12.676c0,6.803-5.35,12.343-12.067,12.677v5.443
		c9.724-0.341,17.509-8.31,17.509-18.121C182.257,50.743,174.472,42.773,164.748,42.432z"/>
</g>
<path fill="#083D5C" stroke="#24346C" stroke-miterlimit="10" d="M129.692,144.844c0,2.028-1.645,3.675-3.676,3.675H55.848
	c-2.028,0-3.675-1.646-3.675-3.675V49.614c0-2.028,1.646-3.675,3.675-3.675h70.168c2.031,0,3.676,1.647,3.676,3.675V144.844z"/>
<g>
	<path fill="#FFFFFF" d="M123.347,139.432c0,1.697-1.377,3.072-3.075,3.072H61.593c-1.698,0-3.073-1.375-3.073-3.072V55.362
		c0-1.698,1.375-3.074,3.073-3.074h58.678c1.698,0,3.075,1.376,3.075,3.074V139.432z"/>
	<g>
		<path fill="#D1D3D4" d="M118.246,63.369c0,0.433-0.347,0.781-0.779,0.781H64.399c-0.43,0-0.782-0.348-0.782-0.781l0,0
			c0-0.431,0.353-0.78,0.782-0.78h53.068C117.899,62.589,118.246,62.938,118.246,63.369L118.246,63.369z"/>
		<path fill="#D1D3D4" d="M118.246,71.286c0,0.431-0.347,0.779-0.779,0.779H64.399c-0.43,0-0.782-0.348-0.782-0.779l0,0
			c0-0.432,0.353-0.782,0.782-0.782h53.068C117.899,70.504,118.246,70.854,118.246,71.286L118.246,71.286z"/>
		<path fill="#D1D3D4" d="M118.246,79.202c0,0.431-0.347,0.779-0.779,0.779H64.399c-0.43,0-0.782-0.348-0.782-0.779l0,0
			c0-0.432,0.353-0.78,0.782-0.78h53.068C117.899,78.422,118.246,78.771,118.246,79.202L118.246,79.202z"/>
		<path fill="#D1D3D4" d="M118.246,87.118c0,0.433-0.347,0.78-0.779,0.78H64.399c-0.43,0-0.782-0.348-0.782-0.78l0,0
			c0-0.43,0.353-0.78,0.782-0.78h53.068C117.899,86.338,118.246,86.688,118.246,87.118L118.246,87.118z"/>
		<path fill="#D1D3D4" d="M118.246,95.036c0,0.43-0.347,0.78-0.779,0.78H64.399c-0.43,0-0.782-0.351-0.782-0.78l0,0
			c0-0.433,0.353-0.782,0.782-0.782h53.068C117.899,94.254,118.246,94.604,118.246,95.036L118.246,95.036z"/>
		<path fill="#D1D3D4" d="M118.246,102.951c0,0.43-0.347,0.779-0.779,0.779H64.399c-0.43,0-0.782-0.35-0.782-0.779l0,0
			c0-0.432,0.353-0.779,0.782-0.779h53.068C117.899,102.172,118.246,102.52,118.246,102.951L118.246,102.951z"/>
		<path fill="#D1D3D4" d="M118.246,110.866c0,0.432-0.347,0.782-0.779,0.782H64.399c-0.43,0-0.782-0.351-0.782-0.782l0,0
			c0-0.431,0.353-0.78,0.782-0.78h53.068C117.899,110.086,118.246,110.436,118.246,110.866L118.246,110.866z"/>
		<path fill="#D1D3D4" d="M118.246,118.783c0,0.431-0.347,0.78-0.779,0.78H64.399c-0.43,0-0.782-0.35-0.782-0.78l0,0
			c0-0.43,0.353-0.78,0.782-0.78h53.068C117.899,118.003,118.246,118.354,118.246,118.783L118.246,118.783z"/>
		<path fill="#D1D3D4" d="M118.246,126.699c0,0.431-0.347,0.781-0.779,0.781H64.399c-0.43,0-0.782-0.351-0.782-0.781l0,0
			c0-0.431,0.353-0.779,0.782-0.779h53.068C117.899,125.92,118.246,126.269,118.246,126.699L118.246,126.699z"/>
		<path fill="#D1D3D4" d="M118.246,134.616c0,0.431-0.347,0.779-0.779,0.779H64.399c-0.43,0-0.782-0.349-0.782-0.779l0,0
			c0-0.43,0.353-0.78,0.782-0.78h53.068C117.899,133.836,118.246,134.187,118.246,134.616L118.246,134.616z"/>
	</g>
</g>
<path fill="#688FB5" stroke="#24346C" stroke-miterlimit="10" d="M114.321,54.737c0,2.03-1.645,3.675-3.673,3.675h-39.43
	c-2.03,0-3.676-1.645-3.676-3.675V42.041c0-2.03,1.646-3.675,3.676-3.675h39.43c2.028,0,3.673,1.646,3.673,3.675V54.737z"/>
<path fill="#47607E" d="M103.462,51.99c-4.008,0.671-7.979,0.647-11.952-0.311c-3.61-0.869-7.643-2.622-10.074-5.562
	c-2.009-2.429-3.037-5.055-3.337-7.752h-6.879c-2.03,0-3.676,1.646-3.676,3.675v12.697c0,2.03,1.646,3.675,3.676,3.675h39.43
	c2.028,0,3.673-1.645,3.673-3.675v-7.516C111.22,49.608,107.577,51.303,103.462,51.99z"/>
<path fill="#688FB5" d="M90.933,25.333c-6.459,0-11.693,5.236-11.693,11.696c0,6.457,5.234,11.694,11.693,11.694
	s11.695-5.237,11.695-11.694C102.628,30.569,97.392,25.333,90.933,25.333z M90.933,41.372c-2.951,0-5.346-2.393-5.346-5.345
	c0-2.953,2.395-5.348,5.346-5.348c2.953,0,5.348,2.395,5.348,5.348C96.28,38.979,93.886,41.372,90.933,41.372z"/>
<path fill="#FFFFFF" d="M111.314,40.259c0,0.306-0.249,0.556-0.557,0.556H81.243c-0.307,0-0.557-0.25-0.557-0.556l0,0
	c0-0.31,0.25-0.558,0.557-0.558h29.515C111.065,39.701,111.314,39.949,111.314,40.259L111.314,40.259z"/>
<path fill="#47607E" d="M147.686,23.081c0.044-0.494,0.071-0.993,0.071-1.497c0-0.506-0.027-1.005-0.071-1.499
	c-3.388-1.255-3.825-2.838-1.523-5.594c-0.407-0.86-0.892-1.677-1.437-2.447c-3.515,0.666-4.643-0.462-3.978-3.978
	c-0.771-0.544-1.587-1.027-2.448-1.435c-2.757,2.304-4.336,1.867-5.592-1.524c-0.495-0.044-0.994-0.07-1.498-0.07
	s-1.002,0.026-1.496,0.07c-1.254,3.392-2.839,3.828-5.597,1.525c-0.859,0.407-1.677,0.89-2.447,1.435
	c0.665,3.517-0.461,4.644-3.978,3.978c-0.543,0.771-1.026,1.588-1.434,2.447c2.304,2.756,1.867,4.339-1.525,5.596
	c-0.045,0.492-0.072,0.991-0.072,1.497c0,0.504,0.027,1.002,0.072,1.496c3.393,1.256,3.829,2.838,1.525,5.595
	c0.407,0.861,0.891,1.677,1.434,2.448c3.517-0.667,4.643,0.462,3.978,3.978c0.771,0.544,1.588,1.026,2.447,1.436
	c2.758-2.304,4.343-1.867,5.597,1.525c0.494,0.043,0.992,0.069,1.496,0.069s1.003-0.026,1.498-0.071
	c1.256-3.391,2.835-3.826,5.592-1.523c0.861-0.409,1.678-0.89,2.448-1.436c-0.665-3.516,0.463-4.645,3.978-3.978
	c0.545-0.771,1.029-1.587,1.437-2.448C143.86,25.918,144.298,24.336,147.686,23.081z M131.21,33.4c-6.525,0-11.82-5.29-11.82-11.816
	c0-6.527,5.295-11.819,11.82-11.819s11.816,5.292,11.816,11.819C143.026,28.11,137.735,33.4,131.21,33.4z"/>
<path fill="#5D5E5E" d="M131.21,11.861c-5.369,0-9.723,4.353-9.723,9.723c0,5.368,4.354,9.721,9.723,9.721s9.721-4.353,9.721-9.721
	C140.931,16.213,136.579,11.861,131.21,11.861z M131.21,28.39c-3.76,0-6.807-3.047-6.807-6.806c0-3.76,3.047-6.809,6.807-6.809
	s6.807,3.048,6.807,6.809C138.017,25.343,134.97,28.39,131.21,28.39z"/>
<g>
	<g>
		<path fill="#F6C0A6" d="M740.144-31.144c-16.637-1.878-24.83-6.796-26.232-7.709h-29.625c-1.402,0.913-9.596,5.831-26.232,7.709
			c0,0-31.711,1.185-30.82,58.675c0,0,23.861,10.765,71.864,10.674c48.003,0.091,71.866-10.674,71.866-10.674
			C771.854-29.959,740.144-31.144,740.144-31.144z"/>
		<path fill="#FFFFFF" d="M658.054-31.144c0,0-31.711,1.185-30.82,58.675c0,0,23.861,10.765,71.864,10.674
			c48.003,0.091,71.866-10.674,71.866-10.674c0.891-57.49-30.82-58.675-30.82-58.675s-30.879-2.192-41.046,10.954
			C699.098-20.189,689.3-36.358,658.054-31.144z"/>
		<g>
			<rect x="683.972" y="-54.838" fill="#F6C0A6" width="30.252" height="22"/>
			<path fill="#D1D3D4" d="M683.972-48.565v0.005c0.334,0.396,0.672,0.785,1.028,1.156c0.947,0.975,1.929,1.916,2.985,2.769
				c0.035,0.029,0.061,0.05,0.095,0.076c0.341,0.249,0.686,0.494,1.034,0.731c0.537,0.357,1.074,0.718,1.631,1.047
				c0.807,0.478,1.623,0.942,2.465,1.356c0.27,0.104,1.063,0.434,1.304,0.517c0.815,0.274,1.628,0.549,2.462,0.766
				c0.854,0.224,1.711,0.448,2.578,0.615c-0.225-0.045,2.287,0.375,1.686,0.322c2.037,0.227,4.088,0.381,6.139,0.342
				c0.881-0.018,1.762-0.033,2.639-0.104c0.281-0.021,1.594-0.217,1.727-0.217c0.837-0.183,1.664-0.415,2.48-0.682v-14.972h-30.252
				v6.206C684.06-48.499,684.079-48.452,683.972-48.565z"/>
		</g>
		<path fill="#F6C0A6" d="M733.514-94.608c0,26.056-15.409,47.177-34.416,47.177s-34.416-21.121-34.416-47.177
			c0-26.055,15.409-42.386,34.416-42.386S733.514-120.663,733.514-94.608z"/>
		<path opacity="0.5" fill="#FFFFFF" d="M680.753-115.894c0.01-0.061,0.023-0.121,0.03-0.181c4.863-5.712,11.575-8.89,18.982-8.89
			c14.85,0,26.888,12.758,26.888,33.114c0,13.566-5.35,25.413-13.313,31.812C713.341-60.038,668.341-65.402,680.753-115.894z"/>
		<path fill="#E6E7E8" d="M693.737-57.81c-11.725-7.389-18.117-19.935-19.741-33.434c-1.524-12.681,1.703-26.709,9.749-36.735
			c2.791-3.478,6.361-6.426,10.32-8.621c-16.621,2.627-29.384,18.28-29.384,41.991c0,26.056,15.409,47.177,34.416,47.177
			c5.522,0,10.737-1.785,15.362-4.952C707.261-52.142,700.042-53.834,693.737-57.81z"/>
		<path fill="#003A54" d="M682.837-38c-3.213,1.748-11.174,5.319-24.783,6.856c0,0-31.711,1.185-30.82,58.675
			c0,0,23.861,10.765,71.864,10.674c48.003,0.091,71.866-10.674,71.866-10.674c0.891-57.49-30.82-58.675-30.82-58.675
			c-13.615-1.537-21.577-5.11-24.787-6.859c0,0,16.908,37.678-16.259,71.587C699.098,33.584,667.042,0.55,682.837-38z"/>
		<path fill="#00B9C5" d="M672.724-10.665c0.016,0.074,0.026,0.148,0.042,0.223c0.12,0.588,0.245,1.175,0.378,1.76
			c0.086-0.037,0.17-0.077,0.26-0.111C673.167-9.409,672.942-10.034,672.724-10.665z"/>
		<path fill="#00142A" d="M740.144-31.144c-13.615-1.537-21.577-5.11-24.787-6.859c0,0,2.357,17.813-16.259,71.587
			c0,0-16.196-45.539-16.261-71.584c-3.213,1.748-11.174,5.319-24.783,6.856c0,0-1.076,10.954,5.838,25.922
			c0,0,4.805-2.588,7.392-1.849l-7.474,5.487c0,0,11.724,19.42,28.91,39.788h14.414c0,0,19.52-27.364,28.967-43.796
			c0,0-2.297-2.596-9.381-4.807c0,0,4.347-1.477,9.381-0.737C736.101-11.135,741.608-20.189,740.144-31.144z"/>
		<path fill="#00B9C5" d="M699.098,38.205"/>
		<path fill="#BE1E2D" d="M699.098,33.584c-8.075-22.916-8.456-27.628-8.456-27.628l3.215-16.621l9.223,0.236l4.625,16.756
			C707.704,6.327,701.392,28.179,699.098,33.584z"/>
		<g>
			<path fill="#BE1E2D" d="M691.323-20.189h14.76c0,0,0.65,7.89-5.047,11.507h-5.439C695.597-8.683,689.642-14.177,691.323-20.189z"
				/>
			<path fill="#D1D3D4" d="M706.083-20.189h-2.629c0.21,0.55,0.334,1.141,0.334,1.758c0,2.726-2.274,4.998-4.998,4.998h-0.086
				c-2.725,0-4.996-2.272-4.996-4.998c0-0.617,0.121-1.208,0.334-1.758h-2.719c-1.682,6.013,4.273,11.507,4.273,11.507h5.439
				C706.733-12.3,706.083-20.189,706.083-20.189z"/>
		</g>
		<path fill="#3C2415" d="M699.388-126.969c0,0,30.32-18.041,33.262,42.912c0,0,10.607-29.789-8.168-52.542
			c0,0-19.689-21.11-50.58-2.113c0,0-6.412,3.884-11.916,2.113c0,0,2.831,5.139,7.125,6.178c0,0-5.117,3.796-11.117,2.588
			c0,0,2.801,7.247,6.688,8.201c0,0-7.772,13.578,0.864,35.575C665.546-84.057,665.306-142.512,699.388-126.969z"/>
		<path fill="#BCBEC0" d="M731.577-117.021c0,0-0.105-0.297-0.303-0.855c-0.201-0.558-0.471-1.387-0.896-2.402
			c-0.383-1.028-0.951-2.238-1.595-3.619c-0.354-0.675-0.729-1.393-1.13-2.146c-0.449-0.728-0.867-1.521-1.379-2.301
			c-0.533-0.767-1.031-1.602-1.664-2.381c-0.303-0.399-0.611-0.804-0.924-1.216c-0.337-0.39-0.678-0.788-1.025-1.19
			c-0.172-0.2-0.348-0.402-0.521-0.606c-0.189-0.191-0.381-0.382-0.573-0.574c-0.385-0.384-0.763-0.782-1.165-1.164
			c-0.846-0.716-1.658-1.505-2.602-2.162c-0.891-0.726-1.906-1.301-2.895-1.936c-1.051-0.527-2.084-1.117-3.207-1.538l-0.826-0.344
			c-0.275-0.124-0.572-0.188-0.855-0.285c-0.576-0.171-1.146-0.371-1.73-0.522c-0.594-0.125-1.186-0.249-1.779-0.373l-0.444-0.094
			l-0.448-0.064c-0.309-0.041-0.632-0.095-0.931-0.125c-1.184-0.147-2.423-0.225-3.634-0.251c-1.215,0.002-2.424,0.048-3.598,0.206
			c-0.297,0.032-0.582,0.095-0.873,0.141l-0.434,0.073l-0.434,0.095c-0.598,0.133-1.207,0.252-1.789,0.391
			c-0.577,0.144-1.148,0.289-1.717,0.432c-0.564,0.167-1.127,0.329-1.686,0.492c-2.215,0.696-4.321,1.489-6.258,2.38
			c-0.479,0.233-0.949,0.464-1.417,0.691c-0.466,0.224-0.899,0.493-1.346,0.724c-0.886,0.462-1.729,0.988-2.56,1.452
			c-1.646,0.96-3.25,1.744-4.752,2.238c-1.494,0.512-2.912,0.649-4.042,0.533c-0.28-0.043-0.549-0.06-0.794-0.121
			c-0.242-0.069-0.469-0.133-0.68-0.194c-0.408-0.153-0.744-0.312-1.012-0.444c-0.502-0.317-0.771-0.486-0.771-0.486
			s0.285,0.134,0.82,0.385c0.275,0.095,0.621,0.207,1.029,0.306c0.207,0.033,0.432,0.067,0.67,0.105
			c0.234,0.036,0.494,0.021,0.76,0.039c1.074-0.001,2.364-0.271,3.742-0.865c1.379-0.592,2.842-1.468,4.405-2.508
			c1.554-1.044,3.299-2.226,5.261-3.242c1.959-1.015,4.1-1.957,6.381-2.728c0.573-0.186,1.15-0.373,1.734-0.561
			c0.591-0.167,1.188-0.336,1.789-0.507c0.596-0.158,1.188-0.294,1.787-0.444l0.469-0.107l0.479-0.087
			c0.32-0.056,0.641-0.128,0.963-0.165c1.287-0.183,2.584-0.247,3.884-0.26c1.301,0.018,2.587,0.079,3.907,0.237
			c0.326,0.037,0.627,0.092,0.943,0.135l0.488,0.075l0.479,0.105c0.639,0.139,1.279,0.281,1.916,0.42
			c0.631,0.17,1.244,0.389,1.865,0.582c0.305,0.108,0.622,0.182,0.918,0.315l0.891,0.381c1.209,0.459,2.309,1.12,3.414,1.724
			c1.041,0.707,2.105,1.358,3.031,2.154c0.979,0.732,1.826,1.578,2.674,2.385c0.406,0.42,0.783,0.858,1.168,1.279
			c0.19,0.211,0.381,0.422,0.568,0.63c0.174,0.222,0.346,0.441,0.516,0.659c0.341,0.438,0.678,0.866,1.009,1.292
			c0.302,0.445,0.598,0.884,0.89,1.315c0.602,0.85,1.061,1.744,1.553,2.567c0.469,0.839,0.857,1.674,1.25,2.453
			c0.35,0.799,0.662,1.566,0.965,2.282c0.272,0.727,0.512,1.412,0.732,2.046c0.227,0.63,0.367,1.235,0.529,1.767
			c0.332,1.062,0.477,1.919,0.613,2.495C731.509-117.33,731.577-117.021,731.577-117.021z"/>
		<path fill="#BCBEC0" d="M727.536-115.251c0,0-0.092-0.27-0.264-0.771c-0.178-0.501-0.409-1.25-0.779-2.164
			c-0.184-0.458-0.363-0.971-0.604-1.514c-0.24-0.542-0.5-1.128-0.777-1.754c-0.309-0.613-0.635-1.26-0.98-1.946
			c-0.379-0.665-0.77-1.368-1.191-2.089c-0.902-1.411-1.902-2.925-3.141-4.372c-0.586-0.752-1.283-1.436-1.968-2.158
			c-0.35-0.355-0.737-0.672-1.104-1.022c-0.186-0.171-0.373-0.344-0.561-0.517c-0.201-0.157-0.402-0.316-0.604-0.474
			c-1.58-1.323-3.427-2.393-5.372-3.276l-0.738-0.319c-0.246-0.108-0.49-0.218-0.75-0.289c-0.514-0.167-1.027-0.332-1.541-0.497
			c-0.521-0.147-1.059-0.239-1.586-0.361c-0.261-0.053-0.542-0.127-0.781-0.163l-0.842-0.122c-2.138-0.288-4.373-0.368-6.477-0.099
			c-0.266,0.023-0.523,0.071-0.781,0.12l-0.387,0.067l-0.178,0.032l-0.203,0.045c-0.539,0.122-1.074,0.24-1.607,0.359
			c-0.514,0.135-1.025,0.27-1.533,0.402c-0.507,0.135-1.008,0.303-1.507,0.451c-1.981,0.638-3.858,1.369-5.587,2.186
			c-1.721,0.838-3.259,1.755-4.729,2.642c-1.465,0.885-2.887,1.618-4.229,2.083c-1.332,0.484-2.607,0.621-3.62,0.52
			c-1.028-0.078-1.755-0.465-2.228-0.698c-0.445-0.292-0.686-0.446-0.686-0.446s0.254,0.124,0.73,0.354
			c0.248,0.09,0.557,0.197,0.92,0.286c0.186,0.031,0.387,0.062,0.6,0.099c0.211,0.027,0.443,0.02,0.682,0.033
			c0.961-0.003,2.114-0.257,3.34-0.815c1.226-0.55,2.522-1.363,3.908-2.318c1.375-0.967,2.933-2.044,4.676-2.981
			c1.748-0.934,3.658-1.801,5.701-2.506c0.514-0.171,1.023-0.358,1.555-0.516c0.529-0.154,1.064-0.312,1.602-0.47
			c0.529-0.134,1.061-0.27,1.596-0.405l0.203-0.05l0.23-0.043l0.43-0.083c0.287-0.054,0.576-0.11,0.865-0.139
			c2.318-0.313,4.646-0.258,6.991,0.039l0.841,0.131c0.316,0.05,0.582,0.126,0.875,0.188c0.572,0.139,1.15,0.247,1.715,0.409
			c0.556,0.186,1.111,0.37,1.664,0.556c0.281,0.082,0.547,0.202,0.813,0.321l0.795,0.354c2.104,0.96,4.031,2.212,5.678,3.651
			c0.209,0.176,0.416,0.35,0.627,0.524c0.191,0.19,0.385,0.377,0.577,0.563c0.382,0.376,0.774,0.735,1.122,1.126
			c0.686,0.793,1.378,1.548,1.953,2.361c1.23,1.566,2.156,3.201,2.98,4.711c0.383,0.771,0.744,1.514,1.068,2.225
			c0.292,0.725,0.57,1.413,0.83,2.06c0.225,0.659,0.434,1.276,0.627,1.846c0.185,0.571,0.313,1.113,0.45,1.591
			c0.288,0.956,0.404,1.727,0.524,2.245C727.479-115.53,727.536-115.251,727.536-115.251z"/>
		<path fill="#BCBEC0" d="M663.093-126.59c0.173,0.354,0.374,0.688,0.606,0.999c0.112,0.158,0.239,0.304,0.354,0.454
			c0.133,0.14,0.258,0.284,0.393,0.417c0.143,0.126,0.277,0.257,0.422,0.377l0.446,0.335l0.476,0.285
			c0.162,0.088,0.332,0.153,0.498,0.231c0.159,0.084,0.344,0.121,0.512,0.178c0.174,0.054,0.344,0.112,0.525,0.134l0.531,0.095
			l0.541,0.027l0.27,0.015l0.273-0.023l0.539-0.041c0.18-0.016,0.361-0.065,0.541-0.092l0.537-0.096l3.592-0.635l-3.178,1.938
			c-0.176,0.107-0.449,0.329-0.672,0.523c-0.215,0.232-0.454,0.428-0.645,0.69c-0.412,0.482-0.773,1.021-1.113,1.57l-0.469,0.857
			c-0.158,0.284-0.264,0.603-0.4,0.899c-0.274,0.596-0.479,1.229-0.69,1.857c-0.237,0.615-0.364,1.279-0.528,1.926
			c-0.074,0.326-0.172,0.645-0.227,0.977c-0.051,0.332-0.105,0.665-0.166,0.995c-0.111,0.663-0.26,1.32-0.303,2l-0.205,2.021
			c-0.051,0.675-0.071,1.358-0.109,2.036c-0.023,0.681-0.099,1.36-0.068,2.045c0.01,0.684-0.004,1.369-0.004,2.056l-0.004,1.027
			c0,0.345,0.033,0.688,0.043,1.03l0.071,2.064c0.031,0.688,0.024,1.382,0.089,2.069c0.104,1.378,0.174,2.764,0.219,4.16
			c-0.354-1.345-0.68-2.699-0.976-4.064c-0.165-0.68-0.267-1.369-0.37-2.059l-0.316-2.072c-0.114-0.69-0.168-1.388-0.219-2.086
			c-0.053-0.699-0.115-1.398-0.159-2.098c-0.065-0.7-0.026-1.406-0.038-2.109c0.008-0.704-0.018-1.41,0.018-2.114l0.178-2.117
			c0.037-0.706,0.178-1.408,0.283-2.112c0.055-0.353,0.115-0.704,0.18-1.052c0.063-0.351,0.172-0.695,0.258-1.043
			c0.187-0.692,0.338-1.392,0.607-2.068l0.362-1.019c0.116-0.342,0.308-0.66,0.456-0.989c0.166-0.326,0.301-0.663,0.496-0.976
			l0.574-0.938c0.418-0.605,0.855-1.206,1.396-1.73c0.245-0.278,0.56-0.508,0.842-0.759c0.324-0.232,0.598-0.441,1.039-0.651
			l0.412,1.304l-0.627,0.06c-0.209,0.015-0.416,0.05-0.627,0.042l-0.633-0.024l-0.316-0.014l-0.316-0.051l-0.625-0.105l-0.611-0.184
			c-0.205-0.054-0.4-0.141-0.591-0.234c-0.188-0.096-0.387-0.169-0.56-0.293c-0.177-0.115-0.357-0.222-0.525-0.348l-0.483-0.396
			c-0.146-0.146-0.29-0.295-0.432-0.444c-0.132-0.155-0.253-0.323-0.378-0.482c-0.232-0.335-0.445-0.681-0.609-1.047
			C663.313-125.826,663.175-126.203,663.093-126.59z"/>
		<path fill="#D5D7D8" d="M682.837-38c0,0-13.775,4.966-7.12,22.061c0,0,1.554-18.12,23.573,2.032c0,0,1.467-15.245-6.941-18.479
			C692.349-32.386,682.837-33.818,682.837-38z"/>
		<path fill="#D5D7D8" d="M715.675-38c0,0,12.398,4.707,5.502,20.028c0,0-6.838-15.893-21.887,4.064c0,0-2.137-16.77,6.871-18.479
			C706.161-32.386,715.675-33.818,715.675-38z"/>
	</g>
</g>
<path fill="#F7941E" d="M44.043,37.27c0,0-1.059,7.615,4.718,11.197c0,0-12.146,2.305-15.326-5.045L44.043,37.27z"/>
<path fill="#536F8D" d="M44.043,37.27c0,0-1.059,7.615,4.718,11.197c0,0-12.146,2.305-15.326-5.045L44.043,37.27z"/>
<ellipse transform="matrix(-0.9215 0.3884 -0.3884 -0.9215 69.4388 44.9134)" fill="#688FB5" cx="30.181" cy="29.474" rx="24.655" ry="17.638"/>
<path fill="#536F8D" d="M7.033,37.855c3.696,6.665,14.167,8.729,24.119,4.534c10.451-4.404,16.369-14.035,13.219-21.512
	c-3.152-7.476-14.178-9.966-24.628-5.562c-0.787,0.332-1.543,0.697-2.277,1.083c1.782-1.209,3.746-2.286,5.865-3.179
	c12.547-5.288,25.786-2.297,29.57,6.679c3.782,8.977-3.322,20.541-15.87,25.829c-12.549,5.288-25.786,2.298-29.569-6.679
	C7.295,38.655,7.158,38.257,7.033,37.855z"/>
<ellipse transform="matrix(-0.9215 0.3884 -0.3884 -0.9215 57.2073 40.7206)" fill="#FFFFFF" cx="24.488" cy="26.142" rx="12.726" ry="6.565"/>
<g>
	<g>
		<circle fill="#FFFFFF" cx="40.233" cy="29.354" r="2.735"/>
		<path fill="#D1D3D4" d="M39.676,26.677c0.17-0.035,0.345-0.055,0.524-0.058c1.51-0.018,2.749,1.192,2.767,2.702
			c0.018,1.511-1.191,2.75-2.701,2.768c-0.461,0.006-0.899-0.105-1.284-0.303C40.704,30.746,40.922,28.141,39.676,26.677z"/>
	</g>
	<g>
		<circle fill="#FFFFFF" cx="30.18" cy="29.474" r="2.735"/>
		<path fill="#D1D3D4" d="M29.623,26.797c0.169-0.036,0.345-0.056,0.525-0.058c1.51-0.018,2.748,1.191,2.767,2.703
			c0.018,1.51-1.192,2.75-2.703,2.767c-0.46,0.006-0.897-0.105-1.282-0.303C30.65,30.867,30.869,28.261,29.623,26.797z"/>
	</g>
	<g>
		<circle fill="#FFFFFF" cx="20.127" cy="29.593" r="2.735"/>
		<path fill="#D1D3D4" d="M19.571,26.916c0.17-0.035,0.343-0.056,0.524-0.058c1.51-0.019,2.749,1.192,2.767,2.702
			c0.018,1.512-1.191,2.75-2.702,2.768c-0.462,0.006-0.898-0.105-1.282-0.303C20.597,30.986,20.816,28.38,19.571,26.916z"/>
	</g>
</g>
</svg>
