<?xml version="1.0" encoding="utf-8"?>
<!-- Generator: Adobe Illustrator 16.0.0, SVG Export Plug-In . SVG Version: 6.00 Build 0)  -->
<!DOCTYPE svg PUBLIC "-//W3C//DTD SVG 1.1//EN" "http://www.w3.org/Graphics/SVG/1.1/DTD/svg11.dtd">
<svg version="1.1" id="Layer_1" xmlns="http://www.w3.org/2000/svg" xmlns:xlink="http://www.w3.org/1999/xlink" x="0px" y="0px"
	 width="181.5px" height="200px" viewBox="0 0 181.5 200" enable-background="new 0 0 181.5 200" xml:space="preserve">
<g>
	<polygon fill="#F7F7F7" points="143.963,57.793 128.201,54.203 145.435,52.877 162.115,56.214 	"/>
</g>
<g>
	<polygon fill="#8F8F8F" points="138.294,162.352 124.571,151.268 128.201,54.203 143.963,57.793 	"/>
</g>
<g>
	<polygon fill="#DBDBDB" points="162.115,56.214 154.698,157.396 138.294,162.352 143.963,57.793 	"/>
</g>
<g>
	<polygon fill="#DBDBDB" points="135.324,77.352 131.314,164.459 113.203,169.928 115.418,79.852 	"/>
</g>
<g>
	<polygon fill="#8F8F8F" points="113.203,169.928 100.802,157.719 101.598,74.233 115.418,79.852 	"/>
</g>
<g>
	<polygon fill="#F7F7F7" points="115.418,79.852 101.598,74.233 120.341,72.144 135.324,77.352 	"/>
</g>
<g>
	<polygon fill="#8F8F8F" points="85.365,178.335 74.644,164.817 73.224,99.144 84.728,107.394 	"/>
</g>
<g>
	<polygon fill="#DBDBDB" points="106.526,103.693 105.476,172.261 85.365,178.335 84.728,107.394 	"/>
</g>
<g>
	<polygon fill="#F7F7F7" points="84.728,107.394 73.224,99.144 93.575,96.068 106.526,103.693 	"/>
</g>
<g>
	<polygon fill="#8F8F8F" points="54.31,187.712 45.727,172.666 42.807,121.142 51.679,131.967 	"/>
</g>
<g>
	<polygon fill="#DBDBDB" points="75.72,127.09 76.768,180.931 54.31,187.712 51.679,131.967 	"/>
</g>
<g>
	<polygon fill="#F7F7F7" points="51.679,131.967 42.807,121.142 65.049,117.113 75.72,127.09 	"/>
</g>
<g>
	<polygon fill="#F7F7F7" points="15.405,153.949 9.648,140.53 34.145,135.559 42.15,147.879 	"/>
</g>
<g>
	<polygon fill="#8F8F8F" points="19.443,198.242 13.588,181.388 9.648,140.53 15.405,153.949 	"/>
</g>
<g>
	<polygon fill="#DBDBDB" points="42.15,147.879 44.681,190.622 19.443,198.242 15.405,153.949 	"/>
</g>
<g>
	<polygon fill="#3C5168" points="166.729,45.038 149.625,42.597 142.926,33.672 159.891,35.371 	"/>
</g>
<g>
	<polygon fill="#547191" points="131.967,43.535 116.628,41.045 133.698,21.379 150.418,21.985 	"/>
</g>
<g>
	<polygon fill="#8F9ABA" points="141.803,9.807 125.35,10.26 157.631,3.078 176,2 	"/>
</g>
<g>
	<polygon fill="#3C5168" points="150.418,21.985 133.698,21.379 125.35,10.26 141.803,9.807 	"/>
</g>
<g>
	<polygon fill="#8F9ABA" points="84.691,46.172 72.488,43.215 116.628,41.045 131.967,43.535 	"/>
</g>
<g>
	<polygon fill="#547191" points="31.629,116.239 24.257,106.395 72.488,43.215 84.691,46.172 	"/>
</g>
<g>
	<polygon fill="#6A90B4" points="176,2 166.729,45.038 159.891,35.371 136.295,65.056 91.979,69.512 41.198,137.505 12.248,143.55 
		10.031,119.898 31.629,116.239 84.691,46.172 131.967,43.535 150.418,21.985 141.803,9.807 	"/>
</g>
<g>
	<polygon fill="#8F9ABA" points="12.248,143.55 6.716,130.949 4.583,109.361 10.031,119.898 	"/>
</g>
<g>
	<polygon fill="#8F9ABA" points="10.031,119.898 4.583,109.361 24.257,106.395 31.629,116.239 	"/>
</g>
<polygon fill="#8BBBE5" points="89.027,57.974 134.156,54.649 176,2 141.803,9.807 150.418,21.985 131.967,43.535 84.691,46.172 
	31.629,116.239 10.031,119.898 10.441,124.279 11.286,133.109 36.881,126.501 "/>
</svg>
