<?xml version="1.0" encoding="utf-8"?>
<!-- Generator: Adobe Illustrator 16.0.0, SVG Export Plug-In . SVG Version: 6.00 Build 0)  -->
<!DOCTYPE svg PUBLIC "-//W3C//DTD SVG 1.1//EN" "http://www.w3.org/Graphics/SVG/1.1/DTD/svg11.dtd">
<svg version="1.1" xmlns="http://www.w3.org/2000/svg" xmlns:xlink="http://www.w3.org/1999/xlink" x="0px" y="0px" width="200px"
	 height="175px" viewBox="0 0 200 175" enable-background="new 0 0 200 175" xml:space="preserve">
<g id="Layer_4">
</g>
<g id="Layer_1">
	<polygon fill="#DDBA9E" points="38.078,129.949 29.248,129.949 31.553,133.885 41.877,144.102 54.742,130.629 	"/>
	<path fill="#DDBA9E" d="M48.279,117.242l-11.564-0.011c0,0,3.792,11.168-10.166,13.341l16.389,2.761l16.104-2.767
		C46.851,129.793,48.279,117.242,48.279,117.242z"/>
	<ellipse fill="#EFD4B8" cx="42.349" cy="97.715" rx="16.335" ry="21.181"/>
	<path fill="#DDBA9E" d="M42.237,76.719l0.071,42.177c-9.025,0.004-16.412-9.296-16.412-20.996S33.213,76.715,42.237,76.719z"/>
	<path fill="#282828" d="M49.547,82.557c0,0-12.146,5.879-18.89,6.542c0,0-4.909,0.761-4.482,6.411
		c0.428,5.651,1.932,12.6,2.257,13.479c0.536,1.449,2.669,12.982-0.608,16.875c0,0,1.567-10.683-1.804-13.816
		c0,0-5.557-8.738-6.125-18.282c0,0,0.047-15.956,8.642-23.174c0,0,10.732-9.687,25.785-1.757c0,0,7.835,3.04,11.254,14.863
		c0,0,2.326,4.938-2.944,16.668s-4.843,12.774-5.317,14.816c0,0-0.902,7.168,2.991,11.489c0,0-9.171-9.482-5.514-15.227
		c3.655-5.748,4.14-12.99,4-14.286C58.79,97.157,57.809,83.837,49.547,82.557z"/>
	<path fill="#D3AF95" d="M37.134,119.412l14.023,7.737c0,0-3.332-3.175-2.898-9.683c0,0-5.559,3.045-11.409,0.246
		C36.85,117.713,37.088,118.709,37.134,119.412z"/>
	<g>
		
			<rect x="60.391" y="103.111" transform="matrix(-0.7771 -0.6294 0.6294 -0.7771 40.1842 231.5499)" fill="#282828" width="1.412" height="11.096"/>
		<rect x="43.761" y="112.088" fill="#282828" width="14.394" height="1.327"/>
	</g>
	<g>
		<g>
			<g>
				<path fill="#767575" d="M65.179,98.65h-1.461c0-13.607-9.044-24.677-20.92-24.677S22.406,85.043,22.406,98.65h-0.242
					c0-14.412,7.952-26.138,20.634-26.138C55.478,72.513,65.179,84.239,65.179,98.65z"/>
			</g>
		</g>
		<g>
			<g>
				<path fill="#767575" d="M66.749,103.944c0,0.807-0.653,1.46-1.461,1.46h-2.296c-0.807,0-1.46-0.653-1.46-1.46v-8.644
					c0-0.809,0.653-1.461,1.46-1.461h2.296c0.808,0,1.461,0.652,1.461,1.461V103.944z"/>
			</g>
		</g>
		<g>
			<circle fill="#767575" cx="42.233" cy="112.751" r="2.19"/>
		</g>
	</g>
	<path fill="#4A627F" d="M22.627,155.611c0.006,0.002,0.012,0.016,0.019,0.018l0.99,16.803h37.596l0.806-16.748l6.065,16.748h14.057
		c-0.035-0.119-0.071-0.234-0.115-0.354l-11.23-32.818c-0.061-0.165-0.129-0.327-0.205-0.48c-1.817-4.889-6.537-8.399-12.038-8.399
		l-9.168,1.655c-4.621,0.834-9.355,0.838-13.979,0.013l-9.354-1.668c-5.5,0-10.221,3.511-12.038,8.399
		c-0.076,0.153-0.145,0.315-0.204,0.48l-11.23,32.818c-0.043,0.119-0.081,0.234-0.116,0.354h14.055L22.627,155.611z"/>
</g>
<g id="Layer_2">
	<path fill="#DDBA9E" d="M173.902,124.447l-7.619-2.814c-5.703-1.876-4.477-5.158-4.477-5.158h-5.866h-0.091h-5.865
		c0,0,1.227,3.282-4.479,5.158l-7.617,2.814l18.007-0.189L173.902,124.447z"/>
	<path fill="#DDBA9E" d="M140.545,92.564c0.079,2.342-0.396,4.383-1.608,4.424c-1.208,0.042-2.084-1.828-2.167-4.168
		c-0.081-2.341,0.848-4.273,2.057-4.314C140.037,88.463,140.464,90.226,140.545,92.564z"/>
	<path fill="#EFD4B8" d="M171.283,92.095c-0.081,2.343,0.398,4.383,1.606,4.424c1.21,0.041,2.086-1.828,2.167-4.17
		c0.081-2.339-0.849-4.271-2.058-4.313C171.789,87.993,171.365,89.755,171.283,92.095z"/>
	<path fill="#EFD4B8" d="M172.24,93.814c0,13.307-7.359,24.092-16.438,24.092s-16.44-10.785-16.44-24.092
		c0-13.304,7.361-24.644,16.44-24.644S172.24,80.511,172.24,93.814z"/>
	<path fill="#DDBA9E" d="M155.947,69.17v48.736c-9.121,0.004-16.586-10.523-16.586-23.771
		C139.361,80.603,146.283,69.404,155.947,69.17z"/>
	<path fill="#232323" d="M137.75,89.908c-0.284-3.324-0.559-8.387,1.216-13.445c1.124-3.206,2.642-7.622,5.776-8.934
		c3.888-1.626,1.186,1.021,9.291-0.579c3.464-0.684,6.686-2.422,12.294-0.827c0,0,5.51,2.237,7.143,14.754
		c0.002,0.018,0.006,0.036,0.008,0.054c0.064,0.344,0.729,4.064,0.47,8.697c-0.045,0.81-0.832,4.708-1.484,5.188
		c-1.007,0.742-1.02-0.144-1.113-0.186c-0.334-0.151,0.439-4.745,0.39-5.109c-0.292-2.097-1.774-8.727-5.198-10.382
		c-0.019-0.009-2.146-0.722-5.671,0.991c-6.801,3.307-9.989,0.405-10.876,0.152c-0.059-0.017-1.09-0.623-1.145-0.649
		c-0.668-0.322-4.568-1.934-6.513,1.664c-0.022,0.039-0.045,0.076-0.07,0.112c-0.258,0.364-1.99,2.854-2.622,8.524
		c-0.04,0.338,0.751,4.422,0.658,4.834c0,0.004-1,0.494-1.156-0.146C139.105,94.455,137.898,91.666,137.75,89.908z"/>
	<rect x="137.889" y="124.447" fill="#E8E8E8" width="37.617" height="28.689"/>
	<path fill="#767575" d="M158.146,127.862c-0.1,0.194-0.527,0.339-0.959,0.339h-2.869c-0.434,0-0.858-0.145-0.959-0.339
		l-1.643-3.194c-0.32-0.619,0.118-1.201,1.024-1.201h6.022c0.907,0,1.344,0.582,1.023,1.201L158.146,127.862z"/>
	<path fill="#D3AF95" d="M155.85,118.097l-8.722,7.199l-7.849-2.982l11.215-2.12l-0.857-1.785c0,0,0.67-0.45,0.396-1.763
		C150.033,116.646,152.673,118.109,155.85,118.097z"/>
	<path fill="#FFFFFF" d="M150.065,117.654c0.066,0.012,5.805,5.813,5.805,5.813l-8.72,5.017l-2.002-7.405L150.065,117.654z"/>
	<path fill="#FFFFFF" d="M161.726,117.654c-0.068,0.012-5.895,5.813-5.895,5.813l8.807,5.017l1.818-7.411L161.726,117.654z"/>
	
		<rect x="171.222" y="95.478" transform="matrix(-0.7768 -0.6298 0.6298 -0.7768 240.439 291.8372)" fill="#767575" width="1.442" height="15.653"/>
	<rect x="157.027" y="108.229" fill="#767575" width="10.778" height="1.356"/>
	<path fill="#767575" d="M176.553,89.554h-1.491c0-13.89-6.812-20.831-18.934-20.831c-12.12,0-16.767,11.94-16.767,25.828h-0.248
		c0-14.709,4.073-27.318,17.015-27.318C169.072,67.233,176.553,74.843,176.553,89.554z"/>
	<g>
		<path fill="#767575" d="M178.951,96.997c0,0.824-0.668,1.491-1.491,1.491h-2.343c-0.824,0-1.491-0.667-1.491-1.491v-8.821
			c0-0.822,0.667-1.49,1.491-1.49h2.343c0.823,0,1.491,0.668,1.491,1.49V96.997z"/>
	</g>
	<g>
		<circle fill="#767575" cx="155.773" cy="108.908" r="2.235"/>
	</g>
	<polygon fill="#252A26" points="156.098,171.358 156.067,170.785 155.931,170.314 155.404,171.358 	"/>
	<g>
		<polygon fill="#767575" points="155.15,172.309 155.841,172.309 155.843,172.33 161.16,172.33 161.037,170.507 161.006,170.07 
			160.998,169.952 160.708,165.688 159.854,153.143 159.854,153.141 159.845,153.008 158.855,138.325 158.146,127.796 
			153.343,127.796 152.634,138.325 151.71,152.022 151.706,152.109 151.7,152.172 150.989,162.605 150.482,170.07 150.451,170.507 
			150.327,172.33 155.138,172.33 		"/>
		<polygon fill="#767575" points="155.15,172.317 155.138,172.317 155.843,172.317 155.841,172.317 		"/>
	</g>
	<path fill="#6B90B4" d="M186.407,128.832c0-0.002,0-0.002,0-0.004c-0.01-0.061-0.014-0.067-0.019-0.096
		c-0.035-0.254-0.164-0.651-0.225-0.803c-1.229-1.375-13.043-6.532-19.823-6.822l0,0l-3.23,16.664l-2.624,13.559l-1.871,9.65l0,0
		l-2.171,8.057l-0.233,1.178l-0.536,1.071l-0.226-0.751l-0.243-0.465l-3.441-17.771l-0.055-0.276l-2.653-13.697l-3.796-17.302
		c-0.018,0-0.142,0.009-0.159,0.011c-1.206,0.056-2.009,0.306-3.442,0.642c-0.026,0.005-0.052,0.014-0.079,0.02
		c-0.315,0.076-0.637,0.156-0.958,0.239l-0.002,0.003c-6.42,1.694-13.789,5.32-14.743,6.389l0,0l-0.24,0.56l-11.415,43.444h13.645
		l0.204-0.645l5.652-15.541l2.656-6.758l0,0c0.243,1.931,0.424,4.324,0.559,6.951c0.198,3.847,0.289,8.189,0.317,12.305
		c0.008,1.258,0.01,2.493,0.008,3.688l18.271-0.021v0.021h19.459c-0.006-1.32-0.006-2.704,0-4.117v-0.002
		c0.021-4.1,0.108-8.461,0.295-12.353c0.129-2.663,0.307-5.104,0.543-7.094l2.628,6.69l5.653,15.539l0.398,1.336h13.686
		L186.407,128.832z"/>
	<path fill="#A1A1AA" d="M155.85,171.281l-6.703-33.048l-3.774-17.312c-2.288,0-4.066,0.83-4.697,0.99l-1.008,12.932l3.531,1.217
		l-4.835,2.04L155.85,171.281z"/>
	<path fill="#A1A1AA" d="M155.675,171.281l7.247-33.048l3.354-17.243c1.452,0.021,4.548,0.738,5.036,0.905l0.996,12.948
		l-3.497,1.217l4.789,2.04L155.675,171.281z"/>
</g>
<g id="Layer_3">
	<path fill="#939393" d="M117.231,29.417h15.052c7.503,0,13.637,6.116,13.637,13.62v0.913c0,7.505-6.134,13.669-13.637,13.669
		h-4.873l3.057,8.081l-11.64-8.081h-1.596c-7.504,0-13.637-6.165-13.637-13.669v-0.913
		C103.595,35.533,109.728,29.417,117.231,29.417z"/>
	<g>
		<path fill="#C2C0C0" d="M99.446,42.032c0-2.124,0.418-4.185,1.245-6.131c0.797-1.875,1.937-3.559,3.388-5.006
			c1.448-1.447,3.135-2.583,5.012-3.378c1.799-0.763,3.698-1.178,5.65-1.235v-0.823c0-11.65-9.521-21.144-21.172-21.144H70.205
			c-11.651,0-21.173,9.493-21.173,21.144v1.418c0,11.65,9.522,21.189,21.173,21.189h7.562L73.023,60.61l18.069-12.545h2.476
			c2.237,0,4.395-0.352,6.423-1.003c-0.362-1.336-0.545-2.714-0.545-4.117V42.032z"/>
	</g>
	<circle fill="#FFFFFF" cx="65.41" cy="25.33" r="4.204"/>
	<circle fill="#FFFFFF" cx="80.21" cy="25.33" r="4.204"/>
	<circle fill="#FFFFFF" cx="95.011" cy="25.33" r="4.204"/>
</g>
</svg>
