<?xml version="1.0" encoding="utf-8"?>
<!-- Generator: Adobe Illustrator 16.0.0, SVG Export Plug-In . SVG Version: 6.00 Build 0)  -->
<!DOCTYPE svg PUBLIC "-//W3C//DTD SVG 1.1//EN" "http://www.w3.org/Graphics/SVG/1.1/DTD/svg11.dtd">
<svg version="1.1" id="Layer_1" xmlns="http://www.w3.org/2000/svg" xmlns:xlink="http://www.w3.org/1999/xlink" x="0px" y="0px"
	 width="200px" height="146.667px" viewBox="-1.833 9.665 200 146.667" enable-background="new -1.833 9.665 200 146.667"
	 xml:space="preserve">
<g>
	<g>
		<path fill="#C8D6D3" d="M111.503,51.194c-10.191-2.249-12.311-17.597,1.202-30.522L111.503,51.194z"/>
	</g>
	<g>
		<path fill="#C8D6D3" d="M112.631,38.026c0.064,0.002,0.132-0.018,0.187-0.063c0.121-0.096,0.144-0.273,0.046-0.397l-5.66-7.131
			c-0.098-0.122-0.274-0.143-0.396-0.045c-0.121,0.097-0.144,0.274-0.046,0.396l5.66,7.132
			C112.474,37.986,112.552,38.022,112.631,38.026z"/>
	</g>
	<g>
		<path fill="#C8D6D3" d="M112.35,45.163c0.067,0.002,0.137-0.021,0.191-0.067c0.12-0.101,0.136-0.279,0.035-0.397l-6.24-7.392
			c-0.102-0.119-0.28-0.135-0.398-0.033c-0.118,0.101-0.135,0.279-0.033,0.397l6.241,7.393
			C112.199,45.125,112.274,45.16,112.35,45.163z"/>
	</g>
	<path fill="#C8D6D3" d="M111.503,51.194c10.336-1.441,13.655-16.573,1.202-30.522L111.503,51.194z"/>
</g>
<g>
	<g>
		<path fill="#C8D6D3" d="M125.961,52.56c-10.698-5.847-8.07-23.753,11.304-33.846L125.961,52.56z"/>
	</g>
	<g>
		<path fill="#C8D6D3" d="M131.521,38.155c0.071,0.024,0.153,0.023,0.229-0.007c0.168-0.069,0.248-0.262,0.18-0.43l-4.022-9.848
			c-0.068-0.167-0.263-0.248-0.43-0.18c-0.17,0.068-0.249,0.261-0.182,0.431l4.022,9.846
			C131.358,38.062,131.432,38.127,131.521,38.155z"/>
	</g>
	<g>
		<path fill="#C8D6D3" d="M128.879,46.069c0.073,0.024,0.158,0.023,0.236-0.012c0.169-0.074,0.243-0.27,0.169-0.436l-4.59-10.328
			c-0.074-0.166-0.268-0.242-0.437-0.167c-0.167,0.073-0.24,0.269-0.167,0.435l4.591,10.329
			C128.72,45.979,128.794,46.042,128.879,46.069z"/>
	</g>
	<path fill="#C8D6D3" d="M125.961,52.56c12.066,1.754,20.726-14.139,11.304-33.846L125.961,52.56z"/>
</g>
<g>
	<path fill="#C8D6D3" d="M69.876,64.005c-11,3.904-22.104-9.399-16.943-29.666L69.876,64.005z"/>
</g>
<g>
	<path fill="#D6D7D9" d="M63.145,50.848c0.063-0.036,0.114-0.094,0.141-0.168c0.059-0.164-0.027-0.345-0.192-0.404l-9.594-3.413
		c-0.165-0.06-0.344,0.026-0.404,0.191c-0.059,0.164,0.027,0.345,0.192,0.404l9.595,3.413
		C62.971,50.901,63.067,50.892,63.145,50.848z"/>
</g>
<g>
	<path fill="#D6D7D9" d="M67.105,57.782c0.067-0.038,0.118-0.1,0.144-0.179c0.053-0.165-0.038-0.343-0.204-0.397l-10.3-3.314
		c-0.167-0.054-0.344,0.037-0.398,0.203c-0.053,0.167,0.038,0.344,0.205,0.398l10.3,3.315
		C66.939,57.837,67.031,57.824,67.105,57.782z"/>
</g>
<path fill="#C8D6D3" d="M69.876,64.005c8.952-7.492,3.134-23.813-16.943-29.666L69.876,64.005z"/>
<g>
	<g>
		<path fill="#EBEBEB" d="M88.673,125.316c-0.079-0.153-0.069-0.344,0.039-0.493c17.815-24.195,41.608-35.702,58.429-41.093
			c18.223-5.842,32.437-5.963,32.579-5.963c0.257-0.002,0.467,0.207,0.469,0.466c0,0.258-0.209,0.468-0.467,0.47
			c-0.141,0.001-14.235,0.123-32.327,5.927c-16.681,5.352-40.271,16.763-57.929,40.748c-0.153,0.206-0.446,0.251-0.654,0.099
			C88.752,125.434,88.706,125.378,88.673,125.316z"/>
	</g>
	<g>
		<path fill="#EBEBEB" d="M170.848,79.41l-0.083-0.742c7.03-0.658,22.094-6.891,23.973,1.16
			C196.253,86.304,178.217,78.357,170.848,79.41z"/>
	</g>
	<g>
		<g>
			<path fill="#EBEBEB" d="M165.602,79.708c4.606-0.772,16.208,3.954,16.325,8.855c0.057,2.391-2.847,2-5.439,0.045
				c-1.727-1.304-3.358-2.46-6.32-6.2c-2.645-3.341-6.967-2.087-6.967-2.087L165.602,79.708z"/>
		</g>
		<g>
			<path fill="#EBEBEB" d="M165.602,79.708c4.598-0.94,15.626-9.884,15.326-14.75c-0.145-2.373-2.969-0.916-5.354,1.966
				c-1.591,1.921-3.104,3.663-5.703,8.439c-2.324,4.266-7.048,4.868-7.048,4.868L165.602,79.708z"/>
		</g>
	</g>
	<g>
		<g>
			<path fill="#EBEBEB" d="M153.95,82.401c5.272-0.841,19.725,5.659,20.708,11.985c0.481,3.086-2.994,2.483-6.378-0.13
				c-2.255-1.741-4.374-3.287-8.5-8.217c-3.686-4.402-8.546-2.931-8.546-2.931L153.95,82.401z"/>
		</g>
		<g>
			<path fill="#EBEBEB" d="M153.95,82.401c5.234-1.056,16.636-12.215,15.441-18.504c-0.585-3.066-3.646-1.285-5.95,2.353
				c-1.535,2.424-3.008,4.618-5.233,10.692c-1.988,5.423-7.431,6.036-7.431,6.036L153.95,82.401z"/>
		</g>
	</g>
	<g>
		<g>
			<path fill="#EBEBEB" d="M131.294,90.63c4.636-1.126,19.774,5.282,22.434,12.067c1.297,3.31-2.079,2.804-5.926,0.128
				c-2.563-1.784-4.946-3.367-10.12-8.512c-4.619-4.596-8.698-2.806-8.698-2.806L131.294,90.63z"/>
		</g>
		<g>
			<path fill="#EBEBEB" d="M131.294,90.63c4.541-1.357,11.98-13.875,9.139-20.609c-1.387-3.285-3.722-1.236-4.844,2.786
				c-0.745,2.68-1.498,5.11-1.873,11.756c-0.335,5.935-5.19,6.823-5.19,6.823L131.294,90.63z"/>
		</g>
	</g>
	<g>
		<g>
			<path fill="#EBEBEB" d="M141.875,86.501c5.411-1.082,21.985,6.205,24.285,13.561c1.12,3.59-2.672,2.954-6.77-0.022
				c-2.731-1.984-5.279-3.748-10.624-9.409c-4.774-5.058-9.62-3.246-9.62-3.246L141.875,86.501z"/>
		</g>
		<g>
			<path fill="#EBEBEB" d="M141.875,86.501c5.328-1.336,15.161-14.575,12.646-21.882c-1.226-3.564-4.112-1.427-5.823,2.86
				c-1.143,2.857-2.262,5.446-3.406,12.572c-1.022,6.364-6.657,7.187-6.657,7.187L141.875,86.501z"/>
		</g>
	</g>
</g>
<g>
	<g>
		<path fill="#EBEBEB" d="M106.801,130.718c0.078-0.154,0.069-0.346-0.04-0.494C88.948,106.027,65.156,94.521,48.334,89.13
			c-18.223-5.839-32.437-5.961-32.579-5.961c-0.258-0.002-0.469,0.206-0.47,0.466c-0.001,0.258,0.208,0.468,0.466,0.468
			c0.141,0.002,14.236,0.126,32.328,5.928c16.682,5.352,40.272,16.763,57.931,40.747c0.153,0.209,0.446,0.252,0.652,0.101
			C106.722,130.834,106.77,130.779,106.801,130.718z"/>
	</g>
	<g>
		<path fill="#EBEBEB" d="M24.625,84.81l0.084-0.742c-7.03-0.655-22.093-6.889-23.975,1.162
			C-0.778,91.703,17.257,83.76,24.625,84.81z"/>
	</g>
	<g>
		<g>
			<path fill="#EBEBEB" d="M29.872,85.11c-4.605-0.773-16.209,3.954-16.324,8.853c-0.056,2.392,2.846,2.003,5.438,0.045
				c1.728-1.302,3.361-2.457,6.322-6.196c2.645-3.341,6.967-2.089,6.967-2.089L29.872,85.11z"/>
		</g>
		<g>
			<path fill="#EBEBEB" d="M29.872,85.11c-4.597-0.943-15.625-9.885-15.327-14.751c0.145-2.372,2.968-0.917,5.355,1.966
				c1.591,1.921,3.101,3.663,5.703,8.439c2.324,4.267,7.046,4.868,7.046,4.868L29.872,85.11z"/>
		</g>
	</g>
	<g>
		<g>
			<path fill="#EBEBEB" d="M41.525,87.803c-5.273-0.839-19.724,5.661-20.709,11.987c-0.48,3.086,2.995,2.482,6.379-0.13
				c2.255-1.742,4.374-3.289,8.5-8.218c3.686-4.4,8.544-2.931,8.544-2.931L41.525,87.803z"/>
		</g>
		<g>
			<path fill="#EBEBEB" d="M41.525,87.803c-5.237-1.055-16.637-12.214-15.442-18.503c0.583-3.066,3.647-1.285,5.951,2.352
				c1.535,2.424,3.008,4.62,5.233,10.692c1.988,5.425,7.43,6.038,7.43,6.038L41.525,87.803z"/>
		</g>
	</g>
	<g>
		<g>
			<path fill="#EBEBEB" d="M64.18,96.031c-4.636-1.125-19.775,5.282-22.434,12.07c-1.297,3.308,2.079,2.8,5.925,0.126
				c2.563-1.786,4.948-3.367,10.12-8.512c4.621-4.597,8.7-2.806,8.7-2.806L64.18,96.031z"/>
		</g>
		<g>
			<path fill="#EBEBEB" d="M64.18,96.031c-4.542-1.356-11.981-13.873-9.139-20.61c1.387-3.285,3.722-1.234,4.843,2.786
				c0.748,2.681,1.499,5.111,1.874,11.757c0.335,5.936,5.191,6.827,5.191,6.827L64.18,96.031z"/>
		</g>
	</g>
	<g>
		<g>
			<path fill="#EBEBEB" d="M53.599,91.902c-5.41-1.083-21.985,6.205-24.285,13.561c-1.123,3.59,2.673,2.954,6.77-0.021
				c2.731-1.985,5.28-3.746,10.625-9.411c4.773-5.058,9.619-3.246,9.619-3.246L53.599,91.902z"/>
		</g>
		<g>
			<path fill="#EBEBEB" d="M53.599,91.902c-5.328-1.336-15.161-14.573-12.647-21.882c1.227-3.564,4.111-1.426,5.823,2.861
				c1.142,2.857,2.262,5.446,3.406,12.571c1.023,6.364,6.656,7.188,6.656,7.188L53.599,91.902z"/>
		</g>
	</g>
</g>
<path fill="#688FB5" d="M177.13,70.81c-25.183,0.977-45.102,13.35-58.68,36.753c-5.446-7.333-10.895-14.666-16.339-21.998
	c12.161-28.233,32.937-45.536,60.731-50.29C167.605,47.121,172.368,58.964,177.13,70.81z"/>
<path fill="#8BBCE5" d="M171.973,63.977c-2.954-7.146-5.905-14.294-8.859-21.44c-2.266,0.33-4.869-1.168-5.869-3.486
	c-22.383,5.777-39.136,19.458-50.907,41.428c1.115,1.555,1.102,4.574,0.07,6.847c3.346,4.559,6.688,9.121,10.032,13.682
	c1.094-2.023,2.954-2.32,4.069-0.767c12.492-18.454,28.714-28.818,49.445-31.72C168.955,66.201,169.841,64.11,171.973,63.977z"/>
<path fill="#FFFFFF" d="M144.77,59.773c3.243,6.186,3.525,14.96-2.194,18.848c-5.411,3.678-12.637-0.223-16.221-5.572
	c-4.006-5.979-4.034-15.921,1.229-20.481C133.362,47.563,141.599,53.727,144.77,59.773z"/>
<path opacity="0.3" fill="#A3B3D6" enable-background="new    " d="M157.555,55.051c0.879,1.909,0.162,3.794-1.561,4.301
	c-1.723,0.507-3.824-0.504-4.729-2.351c-0.904-1.847-0.254-3.882,1.498-4.452C154.514,51.979,156.678,53.141,157.555,55.051z"/>
<path fill="#158093" d="M117.291,84.079c0.956,1.389,2.615,1.24,3.768-0.265c1.149-1.504,1.348-3.848,0.383-5.311
	s-2.722-1.434-3.865,0.141C116.433,80.221,116.332,82.688,117.291,84.079z"/>
<g>
	<path fill="#688FB5" d="M137.76,71.991c-1.125,0.706-2.315,1.2-3.58,1.488c-0.657-1.098-0.985-1.647-1.641-2.746
		c0.753-0.131,1.527-0.339,2.325-0.624c0.8-0.285,1.459-0.601,1.978-0.964c0.425-0.3,0.708-0.573,0.84-0.826
		c0.135-0.252,0.122-0.517-0.033-0.792c-0.108-0.19-0.271-0.301-0.492-0.333c-0.22-0.032-0.547-0.016-0.977,0.057
		c-0.432,0.071-0.998,0.199-1.693,0.385c-0.782,0.209-1.461,0.307-2.036,0.287c-0.574-0.02-1.064-0.156-1.476-0.415
		c-0.41-0.257-0.793-0.683-1.148-1.277c-0.545-0.91-0.715-1.843-0.504-2.796c0.214-0.953,0.806-1.931,1.803-2.888
		c-0.271-0.464-0.404-0.698-0.675-1.164c0.628-0.494,0.944-0.735,1.583-1.211c0.265,0.463,0.397,0.695,0.661,1.16
		c1.058-0.688,2.265-1.135,3.619-1.322c0.176,1.249,0.265,1.872,0.447,3.11c-1.401,0.173-2.523,0.594-3.376,1.223
		c-0.407,0.3-0.657,0.571-0.757,0.806c-0.101,0.234-0.087,0.46,0.037,0.675c0.108,0.186,0.257,0.294,0.444,0.328
		c0.19,0.032,0.472,0.014,0.852-0.053s0.89-0.188,1.529-0.356c1.312-0.325,2.37-0.338,3.152-0.087c0.783,0.249,1.419,0.82,1.9,1.694
		c0.547,0.986,0.708,1.95,0.494,2.898c-0.211,0.946-0.801,1.812-1.751,2.634c0.378,0.663,0.567,0.994,0.947,1.657
		c-0.63,0.406-0.939,0.613-1.557,1.037C138.311,72.943,138.126,72.625,137.76,71.991z"/>
</g>
<g>
	<g>
		<ellipse fill="#3B4F66" cx="142.424" cy="134.183" rx="15.005" ry="2.231"/>
		<ellipse fill="#3B4F66" cx="142.424" cy="134.183" rx="14.12" ry="1.817"/>
		<path fill="#3B4F66" d="M127.418,138.735c0,1.233,6.719,2.232,15.004,2.232c8.286,0,15.007-0.999,15.007-2.232v-4.552
			c0,1.233-6.721,2.23-15.007,2.23c-8.285,0-15.004-0.997-15.004-2.23V138.735z"/>
	</g>
	<g>
		<ellipse fill="#3B4F66" cx="142.047" cy="128.656" rx="15.005" ry="2.233"/>
		<ellipse fill="#3B4F66" cx="142.047" cy="128.656" rx="14.12" ry="1.819"/>
		<path fill="#3B4F66" d="M127.042,133.208c0,1.233,6.72,2.233,15.005,2.233c8.287,0,15.007-1,15.007-2.233v-4.554
			c0,1.232-6.72,2.233-15.007,2.233c-8.285,0-15.005-1.001-15.005-2.233V133.208z"/>
	</g>
	<g>
		<ellipse fill="#3B4F66" cx="143.335" cy="123.575" rx="15.004" ry="2.233"/>
		<ellipse fill="#3B4F66" cx="143.335" cy="123.574" rx="14.12" ry="1.818"/>
		<path fill="#3B4F66" d="M128.333,128.129c0,1.233,6.718,2.232,15.005,2.232s15.004-0.999,15.004-2.232v-4.554
			c0,1.232-6.717,2.232-15.004,2.232s-15.005-1-15.005-2.232V128.129z"/>
	</g>
	<g>
		<ellipse fill="#3B4F66" cx="142.202" cy="118.531" rx="15.005" ry="2.233"/>
		<ellipse fill="#3B4F66" cx="142.202" cy="118.531" rx="14.12" ry="1.819"/>
		<path fill="#3B4F66" d="M127.195,123.085c0,1.233,6.72,2.231,15.007,2.231c8.285,0,15.005-0.998,15.005-2.231v-4.555
			c0,1.233-6.72,2.233-15.005,2.233c-8.287,0-15.007-1-15.007-2.233V123.085z"/>
	</g>
	<g>
		<ellipse fill="#3B4F66" cx="142.225" cy="113.354" rx="15.005" ry="2.233"/>
		<ellipse fill="#3B4F66" cx="142.225" cy="113.354" rx="14.121" ry="1.819"/>
		<path fill="#3B4F66" d="M127.22,117.908c0,1.233,6.72,2.232,15.005,2.232c8.287,0,15.007-0.999,15.007-2.232v-4.555
			c0,1.233-6.72,2.233-15.007,2.233c-8.285,0-15.005-1-15.005-2.233V117.908z"/>
	</g>
	<g>
		<ellipse fill="#3B4F66" cx="140.52" cy="108.194" rx="15.004" ry="2.232"/>
		<ellipse fill="#3B4F66" cx="140.52" cy="108.195" rx="14.12" ry="1.819"/>
		<path fill="#3B4F66" d="M125.514,112.75c0,1.232,6.721,2.231,15.006,2.231c8.287,0,15.005-0.999,15.005-2.231v-4.556
			c0,1.233-6.718,2.232-15.005,2.232c-8.285,0-15.006-0.999-15.006-2.232V112.75z"/>
	</g>
	<g>
		<ellipse fill="#3B4F66" cx="140.144" cy="102.644" rx="15.005" ry="2.233"/>
		<ellipse fill="#3B4F66" cx="140.144" cy="102.644" rx="14.121" ry="1.819"/>
		<path fill="#3B4F66" d="M125.137,107.198c0,1.233,6.721,2.231,15.006,2.231c8.287,0,15.006-0.998,15.006-2.231v-4.556
			c0,1.233-6.719,2.234-15.006,2.234c-8.285,0-15.006-1.001-15.006-2.234V107.198z"/>
	</g>
	<g>
		<ellipse fill="#3B4F66" cx="141.293" cy="97.438" rx="15.005" ry="2.232"/>
		<ellipse fill="#3B4F66" cx="141.293" cy="97.438" rx="14.123" ry="1.818"/>
		<path fill="#3B4F66" d="M126.288,101.993c0,1.233,6.719,2.232,15.006,2.232s15.005-0.999,15.005-2.232v-4.556
			c0,1.234-6.718,2.233-15.005,2.233s-15.006-0.999-15.006-2.233V101.993z"/>
	</g>
	<g>
		<ellipse fill="#3B4F66" cx="140.396" cy="92.346" rx="15.004" ry="2.232"/>
		<ellipse fill="#3B4F66" cx="140.396" cy="92.346" rx="14.12" ry="1.818"/>
		<path fill="#3B4F66" d="M125.391,96.898c0,1.234,6.718,2.231,15.005,2.231s15.004-0.997,15.004-2.231v-4.554
			c0,1.233-6.717,2.232-15.004,2.232s-15.005-0.999-15.005-2.232V96.898z"/>
	</g>
	<g>
		<ellipse fill="#3B4F66" cx="140.396" cy="87.283" rx="15.004" ry="2.231"/>
		<ellipse fill="#3B4F66" cx="140.396" cy="87.283" rx="14.12" ry="1.817"/>
		<path fill="#3B4F66" d="M125.391,91.837c0,1.231,6.718,2.23,15.005,2.23s15.004-0.999,15.004-2.23v-4.555
			c0,1.231-6.717,2.231-15.004,2.231s-15.005-1-15.005-2.231V91.837z"/>
	</g>
	<g>
		<ellipse fill="#3B4F66" cx="139.668" cy="82.171" rx="15.004" ry="2.233"/>
		<ellipse fill="#3B4F66" cx="139.669" cy="82.171" rx="14.121" ry="1.819"/>
		<ellipse fill="#3B4F66" cx="139.669" cy="82.054" rx="10.302" ry="1.129"/>
		<ellipse fill="#3B4F66" cx="139.669" cy="82.17" rx="10.302" ry="1.012"/>
		<path fill="#3B4F66" d="M124.664,86.726c0,1.233,6.719,2.232,15.006,2.232s15.005-0.999,15.005-2.232V82.17
			c0,1.234-6.718,2.234-15.005,2.234s-15.006-1-15.006-2.234V86.726z"/>
	</g>
	<path fill="#3B4F66" d="M157.207,122.721v-4.19c0-0.102-0.05-0.2-0.139-0.297c0.106-0.108,0.162-0.214,0.162-0.327v-4.554
		c0-0.374-0.62-0.725-1.706-1.033v-4.126c0-0.215-0.21-0.423-0.596-0.619c0.141-0.124,0.219-0.25,0.219-0.378v-4.347
		c0.74-0.265,1.148-0.555,1.148-0.858v-4.555c0-0.266-0.314-0.523-0.896-0.762v-4.33c0-0.087-0.035-0.173-0.099-0.255
		c0.063-0.085,0.099-0.169,0.099-0.254v-4.554c0-0.242-0.256-0.471-0.727-0.688V82.17c0-1.232-6.718-2.23-15.005-2.23
		s-15.006,0.998-15.006,2.23v4.556c0,0.241,0.257,0.471,0.729,0.686v4.426c0,0.085,0.035,0.169,0.101,0.253
		c-0.065,0.082-0.101,0.168-0.101,0.255v4.554c0,0.268,0.317,0.524,0.897,0.763v4.123c-0.739,0.265-1.15,0.555-1.15,0.858v4.556
		c0,0.213,0.21,0.422,0.593,0.621c-0.141,0.121-0.217,0.247-0.217,0.375v4.556c0,0.373,0.619,0.724,1.707,1.034v4.124
		c0,0.101,0.049,0.199,0.138,0.296c-0.104,0.109-0.163,0.218-0.163,0.328v4.554c0,0.302,0.405,0.591,1.137,0.854v3.813
		c-0.826,0.277-1.289,0.582-1.289,0.904v4.554c0,0.213,0.203,0.418,0.576,0.611c-0.13,0.118-0.2,0.241-0.2,0.365v4.551
		c0,1.234,6.719,2.232,15.004,2.232c8.286,0,15.007-0.998,15.007-2.232v-4.551c0-0.213-0.203-0.418-0.576-0.614
		c0.13-0.117,0.199-0.238,0.199-0.362v-4.174c0.824-0.278,1.287-0.585,1.287-0.905v-4.554
		C158.339,123.272,157.934,122.984,157.207,122.721z"/>
</g>
<g>
	<ellipse fill="#A3B3D6" cx="178.177" cy="140.726" rx="15.004" ry="2.23"/>
	<ellipse fill="#3B4F66" cx="178.177" cy="140.727" rx="14.12" ry="1.816"/>
	<path fill="#A3B3D6" d="M193.18,145.278c0,1.233-6.717,2.231-15.004,2.231s-15.004-0.998-15.004-2.231v-4.553
		c0,1.231,6.717,2.23,15.004,2.23s15.004-0.999,15.004-2.23V145.278z"/>
	<ellipse fill="#3B4F66" cx="178.153" cy="135.545" rx="15.005" ry="2.233"/>
	<ellipse fill="#95A5C1" cx="178.153" cy="135.545" rx="14.121" ry="1.819"/>
	<path fill="#A3B3D6" d="M193.158,140.1c0,1.233-6.719,2.231-15.006,2.231c-8.286,0-15.005-0.998-15.005-2.231v-4.555
		c0,1.232,6.719,2.233,15.005,2.233c8.287,0,15.006-1.001,15.006-2.233V140.1z"/>
	<ellipse fill="#3B4F66" cx="179.86" cy="130.388" rx="15.004" ry="2.23"/>
	<ellipse fill="#95A5C1" cx="179.861" cy="130.388" rx="14.121" ry="1.816"/>
	<path fill="#A3B3D6" d="M194.864,134.94c0,1.232-6.718,2.232-15.005,2.232c-8.286,0-15.005-1-15.005-2.232v-4.553
		c0,1.233,6.719,2.23,15.005,2.23c8.287,0,15.005-0.997,15.005-2.23V134.94z"/>
	<ellipse fill="#3B4F66" cx="180.234" cy="124.834" rx="15.005" ry="2.233"/>
	<ellipse fill="#95A5C1" cx="180.236" cy="124.834" rx="14.121" ry="1.819"/>
	<path fill="#A3B3D6" d="M195.239,129.389c0,1.233-6.718,2.232-15.005,2.232c-8.284,0-15.004-0.999-15.004-2.232v-4.555
		c0,1.233,6.72,2.233,15.004,2.233c8.287,0,15.005-1,15.005-2.233V129.389z"/>
	<ellipse fill="#3B4F66" cx="179.41" cy="119.729" rx="15.005" ry="2.233"/>
	<ellipse fill="#95A5C1" cx="179.085" cy="119.631" rx="14.12" ry="1.819"/>
	<path fill="#A3B3D6" d="M194.414,124.185c0,1.233-6.716,2.231-15.004,2.231c-8.287,0-15.004-0.998-15.004-2.231v-4.556
		c0,1.233,6.717,2.234,15.004,2.234c8.288,0,15.004-1.001,15.004-2.234V124.185z"/>
	<ellipse fill="#3B4F66" cx="179.982" cy="114.537" rx="15.004" ry="2.232"/>
	<ellipse fill="#95A5C1" cx="179.982" cy="114.537" rx="14.121" ry="1.818"/>
	<path fill="#A3B3D6" d="M194.986,119.091c0,1.233-6.719,2.234-15.004,2.234c-8.286,0-15.006-1.001-15.006-2.234v-4.554
		c0,1.234,6.72,2.232,15.006,2.232c8.285,0,15.004-0.998,15.004-2.232V119.091z"/>
	<ellipse fill="#3B4F66" cx="180.236" cy="109.476" rx="15.004" ry="2.233"/>
	<ellipse fill="#95A5C1" cx="179.982" cy="109.476" rx="14.121" ry="1.819"/>
	<path fill="#A3B3D6" d="M195.312,114.03c0,1.233-6.718,2.23-15.005,2.23c-8.286,0-15.005-0.997-15.005-2.23v-4.556
		c0,1.234,6.719,2.234,15.005,2.234c8.287,0,15.005-1,15.005-2.234V114.03z"/>
	<ellipse fill="#3B4F66" cx="180.708" cy="104.364" rx="15.006" ry="2.233"/>
	<ellipse fill="#95A5C1" cx="180.708" cy="104.365" rx="14.121" ry="1.819"/>
	<ellipse fill="#3B4F66" cx="180.708" cy="104.248" rx="10.304" ry="1.127"/>
	<ellipse fill="#95A5C1" cx="180.708" cy="104.364" rx="10.304" ry="1.012"/>
	<path fill="#A3B3D6" d="M195.713,108.919c0,1.233-6.72,2.231-15.006,2.231s-15.004-0.998-15.004-2.231v-4.556
		c0,1.233,6.718,2.234,15.004,2.234s15.006-1.001,15.006-2.234V108.919z"/>
</g>
<path fill="#688FB5" d="M70.242,130.604c-10.792-18.701-26.493-28.89-47.547-32.948c7.714-14.295,15.427-28.589,23.141-42.885
	c26.146,14.755,41.227,37.816,46.323,67.208C84.853,124.852,77.546,127.728,70.242,130.604z"/>
<path fill="#8BBCE5" d="M73.707,127.015c4.547-1.977,9.093-3.954,13.64-5.933c-0.509-2.318,0.243-4.777,1.791-5.552
	c-6.231-23.286-18.621-41.11-38.9-54.23c-1.617,2.701-4.539,3.979-6.61,2.952c-4.783,8.514-9.565,17.029-14.348,25.545
	c1.857,0.49,2.006,3.147,0.39,5.848c17.334,5.26,30.034,14.404,39.796,29.734C71.014,124.606,72.949,125.311,73.707,127.015z"/>
<path fill="#FFFFFF" d="M70.762,103.81c-4.489,3.757-13.512,6.75-18.187,3.455c-5.375-3.787,0.624-14.747,3.931-18.809
	c3.921-4.813,14.106-11.825,19.319-4.519C80.321,90.237,75.865,99.538,70.762,103.81z"/>
<path fill="#04688B" d="M77.072,115.019c-1.367,0.819-3.073,0.273-3.873-1.178c-0.8-1.447-0.353-3.391,1.06-4.385
	c1.413-0.995,3.225-0.527,3.978,1.097C78.991,112.18,78.439,114.198,77.072,115.019z"/>
<path opacity="0.3" fill="#A3B3D6" enable-background="new    " d="M45.819,81.359c-1.42,2.127-1.353,4.451,0.101,5.253
	c1.455,0.805,3.771-0.088,5.225-2.05c1.455-1.962,1.473-4.388-0.015-5.352C49.641,78.245,47.239,79.234,45.819,81.359z"/>
<g>
	<path fill="#688FB5" d="M58.366,100.369c-0.82-0.835-1.431-1.827-1.829-3.018c1.013-1.1,1.519-1.651,2.531-2.751
		c0.183,0.76,0.452,1.498,0.801,2.222c0.349,0.725,0.724,1.281,1.129,1.679c0.334,0.329,0.628,0.52,0.886,0.572
		c0.256,0.055,0.506-0.037,0.75-0.277c0.167-0.165,0.255-0.362,0.261-0.593s-0.044-0.552-0.158-0.971
		c-0.112-0.415-0.291-0.958-0.53-1.625c-0.27-0.753-0.417-1.447-0.44-2.075c-0.022-0.631,0.077-1.214,0.297-1.758
		c0.221-0.544,0.605-1.116,1.154-1.713c0.839-0.911,1.717-1.4,2.626-1.433c0.909-0.032,1.851,0.388,2.798,1.272
		c0.418-0.425,0.626-0.64,1.043-1.062c0.489,0.597,0.729,0.901,1.203,1.514c-0.41,0.406-0.616,0.607-1.027,1.013
		c0.705,1.013,1.2,2.24,1.488,3.639c-1.12,0.446-1.682,0.677-2.809,1.162c-0.296-1.414-0.773-2.521-1.426-3.283
		c-0.311-0.364-0.582-0.563-0.81-0.606c-0.227-0.046-0.438,0.032-0.631,0.231c-0.167,0.171-0.259,0.365-0.275,0.579
		c-0.017,0.212,0.022,0.513,0.115,0.903c0.094,0.389,0.25,0.895,0.467,1.521c0.425,1.283,0.553,2.354,0.411,3.198
		c-0.141,0.844-0.592,1.605-1.343,2.298c-0.847,0.78-1.729,1.191-2.657,1.271c-0.928,0.078-1.842-0.198-2.76-0.826
		c-0.587,0.58-0.881,0.869-1.469,1.447c-0.483-0.437-0.728-0.652-1.222-1.078C57.511,101.24,57.796,100.947,58.366,100.369z"/>
</g>
<path fill="#04688B" d="M61.225,118.14c3.316,3.648,6.321,7.79,9.017,12.463c7.304-2.876,14.611-5.752,21.916-8.625
	c-3.997-23.05-14.135-42.204-30.933-56.512V118.14z"/>
<g>
	<path fill="#999999" d="M123.317,144.749H73.13c-4.829,0-4.903-3.915-4.903-8.745V49.37c0-4.83,3.915-8.746,8.744-8.746h46.347
		c4.828,0,8.745,3.915,8.745,8.746v86.634C132.061,140.832,128.146,144.749,123.317,144.749z"/>
	<path fill="#999999" d="M118.126,144.749H71.78c-4.829,0-8.744-3.915-8.744-8.745V49.37c0-4.83,3.916-8.746,8.744-8.746h46.347
		c4.828,0,8.745,3.915,8.745,8.746v86.634C126.872,140.832,122.956,144.749,118.126,144.749z"/>
	<path fill="#999999" d="M71.78,143.979c-4.398,0-7.976-3.576-7.976-7.976V49.37c0-4.399,3.577-7.977,7.976-7.977h46.347
		c4.397,0,7.976,3.578,7.976,7.977v86.634c0,4.399-3.578,7.976-7.976,7.976H71.78L71.78,143.979z"/>
</g>
<g>
	<path fill="#BFBFBF" d="M118.126,42.162H71.78c-3.974,0-7.207,3.233-7.207,7.208v51.445c0,16.181,60.762-5.729,60.762-25.871V49.37
		C125.334,45.394,122.102,42.162,118.126,42.162z"/>
</g>
<path fill="#455E7C" d="M71.78,60.478c-2.281,0-4.135-1.855-4.135-4.135v-7.356c0-2.281,1.854-4.136,4.135-4.136h46.731
	c2.278,0,4.135,1.854,4.135,4.136v7.356c0,2.28-1.856,4.135-4.135,4.135H71.78z"/>
<path fill="#455E7C" d="M72.079,61.247c-2.449,0-4.435-1.986-4.435-4.435v-6.758c0-2.449,1.986-4.435,4.435-4.435h46.132
	c2.448,0,4.435,1.985,4.435,4.435v6.76c0,2.447-1.986,4.433-4.435,4.433H72.079z"/>
<path fill="#C2E0E3" d="M118.104,60.861H71.433c-2.296,0-4.159-1.862-4.159-4.159v-7.309c0-2.298,1.863-4.161,4.159-4.161h46.67
	c2.297,0,4.157,1.863,4.157,4.161v7.309C122.26,59,120.401,60.861,118.104,60.861z"/>
<path fill="#B0CACC" d="M115.909,45.233H71.395c-2.28,0-4.135,1.855-4.135,4.137c0,0,0.007,4.053,0.014,4.143
	C67.273,62.391,115.909,54.62,115.909,45.233z"/>
<g>
	<circle fill="#FDFDFE" cx="74.928" cy="73.814" r="6.141"/>
	<circle fill="#FDFDFE" cx="74.589" cy="73.476" r="6.142"/>
</g>
<g>
	<circle fill="#FDFDFE" cx="88.391" cy="73.814" r="6.141"/>
	<circle fill="#FDFDFE" cx="88.052" cy="73.476" r="6.142"/>
</g>
<g>
	<circle fill="#FDFDFE" cx="101.855" cy="73.814" r="6.141"/>
	<circle fill="#FDFDFE" cx="101.515" cy="73.476" r="6.141"/>
</g>
<g>
	<circle fill="#C8D6D3" cx="115.317" cy="73.814" r="6.141"/>
	<circle fill="#C8D6D3" cx="114.978" cy="73.476" r="6.142"/>
</g>
<g>
	<circle fill="#688FB5" cx="74.928" cy="88.597" r="6.142"/>
	<circle fill="#688FB5" cx="74.589" cy="88.259" r="6.142"/>
</g>
<g>
	<circle fill="#688FB5" cx="88.391" cy="88.597" r="6.142"/>
	<circle fill="#688FB5" cx="88.052" cy="88.259" r="6.142"/>
</g>
<g>
	<circle fill="#688FB5" cx="101.855" cy="88.597" r="6.142"/>
	<circle fill="#688FB5" cx="101.515" cy="88.258" r="6.141"/>
</g>
<g>
	<circle fill="#C8D6D3" cx="115.317" cy="88.597" r="6.142"/>
	<circle fill="#C8D6D3" cx="114.978" cy="88.259" r="6.142"/>
</g>
<g>
	<circle fill="#688FB5" cx="74.928" cy="103.495" r="6.142"/>
	<circle fill="#688FB5" cx="74.589" cy="103.155" r="6.142"/>
</g>
<g>
	<circle fill="#688FB5" cx="88.391" cy="103.495" r="6.142"/>
	<circle fill="#688FB5" cx="88.052" cy="103.155" r="6.142"/>
</g>
<g>
	<circle fill="#688FB5" cx="101.855" cy="103.495" r="6.142"/>
	<circle fill="#688FB5" cx="101.515" cy="103.155" r="6.141"/>
</g>
<g>
	<circle fill="#C8D6D3" cx="115.317" cy="103.495" r="6.142"/>
	<circle fill="#C8D6D3" cx="114.978" cy="103.155" r="6.142"/>
</g>
<g>
	<circle fill="#688FB5" cx="74.928" cy="118.391" r="6.142"/>
	<circle fill="#688FB5" cx="74.589" cy="118.052" r="6.142"/>
</g>
<g>
	<circle fill="#688FB5" cx="88.391" cy="118.391" r="6.142"/>
	<circle fill="#688FB5" cx="88.052" cy="118.052" r="6.142"/>
</g>
<g>
	<circle fill="#688FB5" cx="101.855" cy="118.391" r="6.142"/>
	<circle fill="#688FB5" cx="101.515" cy="118.051" r="6.141"/>
</g>
<circle fill="#04688B" cx="115.317" cy="118.391" r="6.142"/>
<circle fill="#C8D6D3" cx="114.979" cy="118.052" r="6.142"/>
<g>
	<circle fill="#688FB5" cx="101.855" cy="133.287" r="6.142"/>
	<circle fill="#688FB5" cx="101.515" cy="132.948" r="6.141"/>
</g>
<circle fill="#04688B" cx="115.317" cy="133.287" r="6.142"/>
<circle fill="#C8D6D3" cx="114.978" cy="132.948" r="6.142"/>
<g>
	<path fill="#688FB5" d="M88.391,127.145H74.928c-3.391,0-6.142,2.752-6.142,6.145c0,3.389,2.751,6.14,6.142,6.14h13.462
		c3.393,0,6.142-2.751,6.142-6.14C94.533,129.896,91.784,127.145,88.391,127.145z"/>
	<path fill="#688FB5" d="M88.052,126.807H74.589c-3.393,0-6.142,2.75-6.142,6.143c0,3.394,2.749,6.141,6.142,6.141h13.463
		c3.393,0,6.142-2.747,6.142-6.141C94.195,129.557,91.444,126.807,88.052,126.807z"/>
</g>
<text transform="matrix(1 0 0 1 73.2124 135.0625)" fill="#FFFFFF" font-family="'ArialMT'" font-size="5.3767">0</text>
<text transform="matrix(1 0 0 1 73.2124 120.0078)" fill="#FFFFFF" font-family="'ArialMT'" font-size="5.3767">1</text>
<text transform="matrix(1 0 0 1 86.6821 120.0078)" fill="#FFFFFF" font-family="'ArialMT'" font-size="5.3767">2</text>
<text transform="matrix(1 0 0 1 100.1528 120.0869)" fill="#FFFFFF" font-family="'ArialMT'" font-size="5.3767">3</text>
<text transform="matrix(1 0 0 1 113.3999 120.0479)" fill="#04688B" font-family="'ArialMT'" font-size="5.3767">+</text>
<text transform="matrix(1 0 0 1 73.2124 105.2686)" fill="#FFFFFF" font-family="'ArialMT'" font-size="5.3767">4</text>
<text transform="matrix(1 0 0 1 86.6821 105.2686)" fill="#FFFFFF" font-family="'ArialMT'" font-size="5.3767">5</text>
<text transform="matrix(1 0 0 1 100.1528 105.3477)" fill="#FFFFFF" font-family="'ArialMT'" font-size="5.3767">6</text>
<text transform="matrix(1 0 0 1 113.6587 105.3076)" fill="#04688B" font-family="'ArialMT'" font-size="5.3767">–</text>
<text transform="matrix(1 0 0 1 73.2124 90.5303)" fill="#FFFFFF" font-family="'ArialMT'" font-size="5.3767">7</text>
<text transform="matrix(1 0 0 1 86.6821 90.5303)" fill="#FFFFFF" font-family="'ArialMT'" font-size="5.3767">8</text>
<text transform="matrix(1 0 0 1 100.1528 90.6094)" fill="#FFFFFF" font-family="'ArialMT'" font-size="5.3767">9</text>
<text transform="matrix(1 0 0 1 113.7573 90.1846)" fill="#04688B" font-family="'ArialMT'" font-size="5.3767">x</text>
<text transform="matrix(1 0 0 1 71.6558 75.791)" fill="#04688B" font-family="'ArialMT'" font-size="5.3767">AC</text>
<text transform="matrix(1 0 0 1 85.9009 75.791)" fill="#04688B" font-family="'ArialMT'" font-size="5.3767">M</text>
<text transform="matrix(1 0 0 1 99.4019 75.8691)" fill="#04688B" font-family="'ArialMT'" font-size="5.3767">%</text>
<text transform="matrix(1 0 0 1 100.9761 135.0811)" fill="#FFFFFF" font-family="'ArialMT'" font-size="5.3767">,</text>
<text transform="matrix(1 0 0 1 113.3999 135.042)" fill="#04688B" font-family="'ArialMT'" font-size="5.3767">=</text>
<g>
	<path fill="#4D6987" d="M119.58,78.515c1.81,5.483,7.2,13.072,11.497,13.179c5.294,0.661,8.427-4.488,10.864-6.171
		c3.963-2.735,4.471-7.087,1.841-10.179c-1.675-1.973-4.073-1.103-5.463,1.009c-2.485,3.777-2.163,3.951-6.729,8.664l-10.211-8.038
		L119.58,78.515z"/>
</g>
<path fill="#072528" d="M140.823,56.623c-1.709,1.991-1.849,3.654-0.615,6.411c1.342,2.999,3.383-5.998,3.383-5.998L140.823,56.623z
	"/>
<g>
	<path fill="#E0CBAF" d="M140.48,60.544c0.974-5.875,10.547-6.27,11.465-0.747c1.181,7.096-6.063,9.511-12.341,8.397
		c-0.496-0.089-0.944-0.81-0.835-1.463L140.48,60.544z"/>
	<path fill="#E0CBAF" d="M147.226,67.018c0.015,1.999-0.062,6.671-0.062,6.671l-4.45-0.199l-0.584-4.798
		C142.934,66.882,147.215,65.796,147.226,67.018z"/>
</g>
<path fill="#E0CBAF" d="M147.364,63.848l0.879-3.902c0.735-3.56-6.633-5.415-7.689-0.596l-1.777,7.381
	c-0.182,0.627-0.083,1.295,0.271,1.854l0.436,0.689c0.493,0.777,1.529,1.106,2.438,0.772l3.102-1.144
	c0.821-0.302,1.425-0.966,1.604-1.767l0.263-1.166c0.462,1.381,2.224-1.453,2.226-2.272
	C149.116,62.977,148.569,62.546,147.364,63.848z"/>
<path fill="#424343" d="M153.973,56.833c-3.984,0.055-7.451-7.16-7.97-5.341c-0.521,1.82-5.459,1.3-6.414,3.987
	c-0.952,2.686,1.733,3.217,4.767,2.339s4.18,0.509,3.561,2.723c-0.364,1.297-1.161,2.437-1.759,3.16
	c-0.185,0.222,0.044,0.544,0.316,0.451l0.89-0.304c1.206-1.3,1.752-0.87,1.75-0.149c-0.004,0.678-1.208,2.729-1.886,2.636v0.004
	l-0.008,2.831C153.986,66.571,157.96,56.778,153.973,56.833z"/>
<g>
	<path fill="#5E5C53" d="M152.866,95.498c2.889,3.156,2.518,6.909,0.433,8.731c-2.087,1.824-3.51,23.674-3.51,23.674
		s4.522,5.046-0.187,23.242h-7.861l0.605-1.499l5.491-1.094c0,0-1.583-14.772-2.662-18.863c-1.686-4.765-4.893-24.82-4.376-34.19
		C142.805,93.448,152.866,95.498,152.866,95.498z"/>
	<path fill="#5E5C53" d="M153.685,95.635c3.64,3.154,4.16,6.901,2.509,8.721c-1.652,1.821,1.734,23.431,1.734,23.431
		s5.309,2.515,1.952,23.427h-8.673l1.405-1.771l4.886-0.821c0,0-3.267-15.545-4.087-18.838c-0.498-2.573-6.825-12.376-9.92-34.148
		C145.007,93.586,153.685,95.635,153.685,95.635z"/>
</g>
<path fill="#4D6987" d="M154.154,85.425c0.361-2.502,0.869-6.886-0.934-9.717c-2.796-4.389-11.426-2.994-13.824-0.615
	c-2.66,2.636-3.072,5.854-2.881,9.212c0.287,5.032,3.105,23.119,3.105,23.119c3.243,4.952,15.796-5.511,17.086-8.804
	C155.151,95.344,152.833,94.589,154.154,85.425z"/>
<path fill="#E0CBAF" d="M121.377,76.979l-7.35-7c0,0-0.831,0.503,0.563,2.036c1.393,1.535,1.51,1.736,1.51,1.736
	s-1.446,1.572-0.522,3.241c0.923,1.67,4.002,1.522,4.002,1.522L121.377,76.979z"/>
<path fill="#3E536B" d="M156.707,98.62c-1.556-3.278-3.873-4.033-2.553-13.197c0.141-0.974,0.301-2.229,0.341-3.572l-7.015-5.641
	c0.258,3.512,2.021,7.12,2.263,14.661c0.106,3.313,0.079,10.608-0.893,15.274C152.343,103.893,156.009,100.399,156.707,98.62z"/>
<path fill="#4D6987" d="M153.381,106.483c3.496-5.084,4.338-11.03,4.456-14.701c0.099-3.151-1.39-7.056-1.463-10.019
	c-0.116-4.814-3.743-8.269-7.789-8.756c-2.572-0.309-1.751,3.987-0.951,6.189c1.479,4.098,2.651,5.009,4.092,11.409l-0.648,15.339
	L153.381,106.483z"/>
<linearGradient id="SVGID_1_" gradientUnits="userSpaceOnUse" x1="203.0718" y1="-98.4473" x2="214.1269" y2="-98.4473" gradientTransform="matrix(1 0 0 -1 -56 11.332)">
	<stop  offset="0" style="stop-color:#FCD2C5"/>
	<stop  offset="0.6367" style="stop-color:#F9BAA5"/>
	<stop  offset="1" style="stop-color:#F7AA92"/>
</linearGradient>
<path fill="url(#SVGID_1_)" d="M151.078,105.944c-0.063,1.759-2.751,3.016-2.391,4.533c0.63,2.655,2.865,3.494,3.858,3.005
	c1.197-0.591,0.625-2.713,0.572-4.399c-0.05-1.688,0.264-2.6,0.264-2.6L151.078,105.944z"/>
<circle fill="#8BBCE5" cx="62.304" cy="138.867" r="11.998"/>
<circle fill="#455E7C" cx="62.306" cy="138.867" r="10.712"/>
<circle fill="#678EB5" cx="62.304" cy="138.865" r="9.059"/>
<g>
	<path fill="#8BBCE5" d="M62.94,143.701v1.057H61.83v-1.057c-1.787-0.15-2.978-1.058-3.114-2.788h1.828
		c0.123,0.769,0.583,1.256,1.286,1.418v-2.747c-1.733-0.557-2.75-1.274-2.75-2.816c0-1.667,1.258-2.545,2.75-2.738v-1.056h1.111
		v1.056c1.815,0.178,2.722,1.301,2.902,2.777h-1.829c-0.082-0.703-0.392-1.219-1.071-1.408v2.613
		c2.112,0.667,2.952,1.52,2.952,3.022C65.893,142.59,64.633,143.538,62.94,143.701z M61.831,137.797v-2.411
		c-0.594,0.137-0.974,0.526-0.974,1.165C60.856,137.229,61.181,137.552,61.831,137.797z M62.94,142.359
		c0.705-0.106,1.111-0.473,1.111-1.19c0-0.584-0.257-1.03-1.111-1.342V142.359z"/>
</g>
<circle fill="#8BBCE5" cx="41.333" cy="142.197" r="11.998"/>
<circle fill="#455E7C" cx="41.335" cy="142.199" r="10.712"/>
<circle fill="#678EB5" cx="41.333" cy="142.198" r="9.059"/>
<g>
	<path fill="#8BBCE5" d="M41.97,147.033v1.056h-1.111v-1.056c-1.786-0.149-2.978-1.057-3.114-2.789h1.828
		c0.123,0.77,0.583,1.257,1.287,1.42v-2.747c-1.734-0.557-2.749-1.275-2.749-2.816c0-1.668,1.257-2.547,2.749-2.738v-1.056h1.111
		v1.056c1.815,0.178,2.722,1.299,2.902,2.777h-1.829c-0.083-0.704-0.393-1.219-1.071-1.408v2.611
		c2.111,0.667,2.952,1.52,2.952,3.023C44.922,145.921,43.663,146.871,41.97,147.033z M40.86,141.129v-2.41
		c-0.594,0.136-0.974,0.526-0.974,1.163C39.886,140.562,40.209,140.884,40.86,141.129z M41.97,145.691
		c0.705-0.107,1.11-0.474,1.11-1.192c0-0.583-0.256-1.029-1.11-1.341V145.691z"/>
</g>
<circle fill="#8BBCE5" cx="134.912" cy="136.189" r="11.998"/>
<circle fill="#455E7C" cx="134.914" cy="136.19" r="10.711"/>
<circle fill="#678EB5" cx="134.912" cy="136.189" r="9.06"/>
<g>
	<path fill="#8BBCE5" d="M135.548,141.024v1.056h-1.109v-1.056c-1.786-0.149-2.979-1.057-3.114-2.79h1.829
		c0.12,0.771,0.583,1.259,1.285,1.422v-2.748c-1.734-0.556-2.75-1.275-2.75-2.816c0-1.668,1.258-2.546,2.75-2.739v-1.056h1.111
		v1.056c1.816,0.18,2.722,1.3,2.9,2.778h-1.829c-0.083-0.704-0.393-1.218-1.071-1.408v2.612c2.112,0.667,2.952,1.52,2.952,3.023
		C138.5,139.912,137.24,140.861,135.548,141.024z M134.439,135.121v-2.412c-0.595,0.138-0.976,0.527-0.976,1.164
		C133.463,134.552,133.789,134.875,134.439,135.121z M135.548,139.683c0.704-0.105,1.111-0.473,1.111-1.19
		c0-0.584-0.257-1.03-1.111-1.342V139.683z"/>
</g>
</svg>
