<?xml version="1.0" encoding="utf-8"?>
<!-- Generator: Adobe Illustrator 16.0.0, SVG Export Plug-In . SVG Version: 6.00 Build 0)  -->
<!DOCTYPE svg PUBLIC "-//W3C//DTD SVG 1.1//EN" "http://www.w3.org/Graphics/SVG/1.1/DTD/svg11.dtd">
<svg version="1.1" id="Layer_1" xmlns="http://www.w3.org/2000/svg" xmlns:xlink="http://www.w3.org/1999/xlink" x="0px" y="0px"
	 width="200px" height="191.5px" viewBox="-14.25 -11.667 200 191.5" enable-background="new -14.25 -11.667 200 191.5"
	 xml:space="preserve">
<path opacity="0.3" fill="#A8AAAD" enable-background="new    " d="M173.467,77.696c0,45.268-36.7,81.969-81.97,81.969
	c-45.273,0-81.972-36.7-81.972-81.969c0-3.039,0.165-6.035,0.489-8.985C14.489,27.664,49.258-4.277,91.5-4.277
	c42.228,0,76.996,31.934,81.477,72.975C173.3,71.655,173.467,74.657,173.467,77.696z"/>
<path fill="#86B9DB" d="M164.875,77.696c0,40.524-32.853,73.379-73.378,73.379c-40.528,0-73.381-32.854-73.381-73.379
	c0-2.72,0.148-5.402,0.438-8.045C22.559,32.906,53.687,4.313,91.497,4.313c37.805,0,68.93,28.588,72.94,65.328
	C164.729,72.288,164.875,74.974,164.875,77.696z"/>
<g>
	<path fill="#FBFCFC" d="M173.306,62.15c9.048-9.751,10.224-33.881,10.224-33.881l-22.864-2.623c0,0,1.628,21.974-13.573,33.976
		C147.093,59.621,164.261,71.901,173.306,62.15z"/>
	<path fill="#B2B3B3" d="M165.199,45.813c0,0,4.651,0.476,0.313,9.011c-4.34,8.532-2.678,11.043-2.678,11.043
		c-7.069-0.5-15.788-2.415-25.153-4.885c0,0-1.394-3.134,3.883-8.234c5.275-5.099-1.683-10.062-1.683-10.062L165.199,45.813z"/>
	<path fill="#A09F9F" d="M165.199,45.813l-25.318-3.127c0,0,3.935,2.806,3.645,6.366c7.435-0.743,14.986,0.329,21.646,3.485
		c0.384,0.192,0.756,0.396,1.122,0.609C169.217,46.23,165.199,45.813,165.199,45.813z"/>
</g>
<path opacity="0.7" fill="#A3B3D6" enable-background="new    " d="M113.165,123.133c28.913-25.813,49.241-26.508,51.341-38.029
	c2.314-12.699-32.366-5.912-36.117-4.77c-3.751,1.142-48.59,28.857-48.59,28.857c-1.324,0.802-0.887,2.711,0.741,3.219
	C80.54,112.411,110.625,125.405,113.165,123.133z"/>
<path fill="#597377" d="M110.717,111.544l-32.527-10.097c-2.19,2.866-3.167,7.785-0.684,9.761l33.048,10.742
	C110.153,118.648,109.903,115.911,110.717,111.544z"/>
<g>
	<g enable-background="new    ">
		<path fill="#597377" d="M153.937,62.131c-3.626-0.653-7.265-1.307-10.896-1.958c-4.929-0.887-9.859-1.773-14.789-2.662
			c-0.349-0.062-0.697-0.138-1.045-0.188c-1.854-0.261-3.168,1.48-3.787,2.787c-0.802,1.691-1.116,3.801-0.37,5.555
			c0.384,0.903,1.07,1.554,2.14,1.745c4.409,0.792,8.813,1.586,13.225,2.378c4.333,0.779,8.661,1.587,13.002,2.339
			c0.075,0.013,0.149,0.026,0.224,0.041c-1.177-0.213-1.795-1.33-2.055-2.27c-0.299-1.081-0.25-2.239-0.004-3.323
			c0.25-1.104,0.727-2.201,1.496-3.105C151.729,62.707,152.774,61.921,153.937,62.131z"/>
		<g>
			<path fill="#38424A" d="M153.271,62.117c1.857-0.241,3.152,1.818,2.888,4.594c-0.268,2.782-1.99,5.229-3.852,5.471
				c-1.863,0.24-3.156-1.817-2.89-4.599C149.682,64.807,151.407,62.357,153.271,62.117z"/>
		</g>
	</g>
</g>
<path fill="#4B5660" d="M158.733,81.456c-3.148,13.367-16.186,10.703-26.486,19.816l-21.559,20.551l-0.135,0.128
	c-2.611-1.475-4.866-8.103-3.243-11.461c0.167-0.445,0.347-0.896,0.543-1.351c5.642-13.133,23.479-30.238,40.696-39.976
	c0.824-0.467,1.646-0.917,2.468-1.348c0.001,0,0.002,0,0.002,0c0.053,0.025,0.106,0.05,0.158,0.075
	C156.909,70.655,158.991,76.882,158.733,81.456z"/>
<path fill="#8EA2A5" d="M151.02,67.815c0,0-0.001,0-0.002,0c-0.215,0.149-27.628,19.357-43.707,42.675l-0.297-0.093l-28.824-8.949
	c0,0,16.663-22.686,40.264-39.215c1.047-0.734,2.415-0.996,3.713-0.719l28.304,6.182L151.02,67.815z"/>
<g>
	<path fill="#ACB9BC" d="M151.178,67.891c-18.175,13.56-30.949,26.485-41.734,40.068c-2.399,3.263-2.745,7.408-0.844,10.924
		c0.026,0.05,0.054,0.099,0.08,0.146c0.692,1.245,1.477,2.209,2.01,2.793l-0.136,0.128c-6.247-5.814-3.101-11.964-2.7-12.812
		c14.941-21.383,41.973-40.956,42.617-41.445l0.55,0.121C151.072,67.839,151.126,67.865,151.178,67.891z"/>
</g>
<path fill="#4F676A" d="M100.265,80.744c-3.348,2.326-12.363,12.039-18.271,19.571l24.396,7.437
	c3.88-5.797,13.325-15.903,17.883-20.272C114.268,85.841,105.906,83.474,100.265,80.744z"/>
<g>
	<polygon fill="#CCCCCC" points="95.829,85.732 95.79,86.406 100.438,87.801 100.307,87.02 	"/>
	<path fill="#C0C0C0" d="M103.538,83.542l0.3,0.688l-3.4,3.569l-0.131-0.781C100.874,85.859,102.063,84.823,103.538,83.542z"/>
	<path fill="#EBEBEB" d="M99.254,82.415c-0.595,0.412-2.377,1.981-3.425,3.317l4.478,1.288c0.688-1.028,2.425-2.702,3.231-3.478
		L99.254,82.415z"/>
</g>
<g>
	<polygon fill="#CCCCCC" points="101.377,87.29 101.335,87.967 105.985,89.361 105.854,88.58 	"/>
	<path fill="#C0C0C0" d="M109.087,85.103l0.297,0.688l-3.398,3.57l-0.131-0.781C106.421,87.42,107.61,86.382,109.087,85.103z"/>
	<path fill="#EBEBEB" d="M104.8,83.974c-0.593,0.412-2.377,1.981-3.423,3.315l4.478,1.29c0.687-1.027,2.423-2.703,3.232-3.477
		L104.8,83.974z"/>
</g>
<g>
	<polygon fill="#CCCCCC" points="106.923,88.851 106.882,89.526 111.53,90.92 111.4,90.139 	"/>
	<path fill="#C0C0C0" d="M114.633,86.664l0.3,0.688l-3.402,3.569l-0.13-0.781C111.967,88.98,113.156,87.943,114.633,86.664z"/>
	<path fill="#EBEBEB" d="M110.348,85.534c-0.593,0.412-2.378,1.982-3.425,3.317l4.478,1.288c0.687-1.026,2.426-2.702,3.232-3.476
		L110.348,85.534z"/>
</g>
<polygon fill="#EDECE4" points="112.47,90.41 112.429,91.087 117.079,92.482 116.946,91.699 "/>
<path fill="#EDECE4" d="M120.179,88.222l0.3,0.688l-3.399,3.572l-0.131-0.783C117.514,90.54,118.703,89.501,120.179,88.222z"/>
<path fill="#FEFDF3" d="M115.894,87.094c-0.594,0.412-2.376,1.981-3.424,3.315l4.477,1.289c0.687-1.026,2.424-2.701,3.232-3.477
	L115.894,87.094z"/>
<g>
	<polygon fill="#CCCCCC" points="91.777,90.143 91.734,90.82 96.387,92.215 96.256,91.432 	"/>
	<path fill="#C0C0C0" d="M99.486,87.956l0.299,0.687l-3.398,3.57l-0.131-0.783C96.821,90.272,98.009,89.234,99.486,87.956z"/>
	<path fill="#EBEBEB" d="M95.2,86.826c-0.592,0.412-2.376,1.981-3.423,3.317l4.479,1.289c0.687-1.028,2.424-2.703,3.23-3.477
		L95.2,86.826z"/>
</g>
<g>
	<polygon fill="#CCCCCC" points="97.323,91.704 97.284,92.376 101.932,93.772 101.801,92.992 	"/>
	<path fill="#C0C0C0" d="M105.032,89.514l0.298,0.688l-3.398,3.569l-0.131-0.78C102.368,91.832,103.558,90.795,105.032,89.514z"/>
	<path fill="#EBEBEB" d="M100.748,88.385c-0.594,0.414-2.377,1.982-3.425,3.318l4.478,1.288c0.687-1.026,2.425-2.703,3.231-3.478
		L100.748,88.385z"/>
</g>
<g>
	<polygon fill="#CCCCCC" points="102.872,93.262 102.829,93.938 107.478,95.333 107.347,94.551 	"/>
	<path fill="#C0C0C0" d="M110.58,91.075l0.299,0.688l-3.401,3.57l-0.131-0.781C107.914,93.39,109.104,92.355,110.58,91.075z"/>
	<path fill="#EBEBEB" d="M106.294,89.948c-0.593,0.411-2.378,1.979-3.422,3.314l4.475,1.289c0.688-1.026,2.425-2.702,3.233-3.475
		L106.294,89.948z"/>
</g>
<polygon fill="#EDECE4" points="108.417,94.823 108.375,95.5 113.026,96.894 112.896,96.11 "/>
<path fill="#EDECE4" d="M116.126,92.636l0.299,0.688l-3.398,3.57l-0.13-0.784C113.461,94.953,114.65,93.915,116.126,92.636z"/>
<path fill="#FEFDF3" d="M111.843,91.506c-0.595,0.412-2.379,1.982-3.426,3.315l4.479,1.288c0.686-1.025,2.424-2.7,3.229-3.474
	L111.843,91.506z"/>
<g>
	<polygon fill="#CCCCCC" points="87.724,94.555 87.683,95.229 92.332,96.625 92.201,95.844 	"/>
	<path fill="#C0C0C0" d="M95.435,92.367l0.299,0.688l-3.401,3.57l-0.131-0.78C92.769,94.684,93.957,93.648,95.435,92.367z"/>
	<path fill="#EBEBEB" d="M91.148,91.239c-0.594,0.413-2.377,1.981-3.424,3.316l4.477,1.289c0.688-1.027,2.425-2.703,3.233-3.478
		L91.148,91.239z"/>
</g>
<g>
	<polygon fill="#CCCCCC" points="93.271,96.116 93.229,96.791 97.88,98.185 97.749,97.403 	"/>
	<path fill="#C0C0C0" d="M100.979,93.927l0.3,0.687l-3.399,3.57l-0.131-0.781C98.313,96.247,99.504,95.208,100.979,93.927z"/>
	<path fill="#EBEBEB" d="M96.694,92.798c-0.594,0.412-2.378,1.981-3.424,3.317l4.479,1.287c0.688-1.024,2.422-2.7,3.23-3.474
		L96.694,92.798z"/>
</g>
<g>
	<polygon fill="#CCCCCC" points="98.817,97.675 98.778,98.35 103.426,99.747 103.295,98.963 	"/>
	<path fill="#C0C0C0" d="M106.525,95.487l0.299,0.688l-3.398,3.571l-0.131-0.783C103.863,97.803,105.051,96.767,106.525,95.487z"/>
	<path fill="#EBEBEB" d="M102.241,94.36c-0.593,0.413-2.376,1.982-3.424,3.316l4.478,1.288c0.688-1.026,2.424-2.702,3.23-3.477
		L102.241,94.36z"/>
</g>
<polygon fill="#EDECE4" points="104.365,99.236 104.323,99.91 108.972,101.305 108.842,100.525 "/>
<path fill="#EDECE4" d="M112.073,97.048l0.299,0.687l-3.4,3.57l-0.13-0.78C109.408,99.365,110.598,98.328,112.073,97.048z"/>
<path fill="#FEFDF3" d="M107.788,95.918c-0.595,0.413-2.378,1.98-3.423,3.317l4.477,1.289c0.688-1.027,2.424-2.704,3.231-3.477
	L107.788,95.918z"/>
<g opacity="0.37">
	<polygon fill="#FFFFFF" points="83.672,98.966 83.629,99.643 88.28,101.039 88.149,100.255 	"/>
	<path fill="#FFFFFF" d="M91.381,96.78l0.299,0.688l-3.399,3.569l-0.131-0.781C88.715,99.098,89.905,98.057,91.381,96.78z"/>
	<path fill="#FFFFFF" d="M87.096,95.652c-0.593,0.411-2.377,1.98-3.424,3.316l4.478,1.289c0.686-1.027,2.425-2.702,3.231-3.477
		L87.096,95.652z"/>
</g>
<g>
	<polygon fill="#EDECE4" points="89.219,100.528 89.177,101.202 93.827,102.597 93.698,101.816 	"/>
	<path fill="#EDECE4" d="M96.929,98.34l0.297,0.687l-3.398,3.57l-0.129-0.781C94.262,100.656,95.45,99.62,96.929,98.34z"/>
	<path fill="#EDECE4" d="M92.643,97.211c-0.593,0.413-2.378,1.98-3.424,3.316l4.479,1.288c0.687-1.025,2.421-2.701,3.23-3.476
		L92.643,97.211z"/>
</g>
<g>
	<polygon fill="#8EA2A5" points="94.765,102.088 94.724,102.762 99.374,104.158 99.241,103.375 	"/>
	<path fill="#8EA2A5" d="M102.474,99.897l0.299,0.69l-3.398,3.569l-0.131-0.781C99.808,102.216,100.998,101.181,102.474,99.897z"/>
	<path fill="#8EA2A5" d="M98.189,98.772c-0.595,0.413-2.379,1.979-3.425,3.316l4.477,1.287c0.687-1.026,2.423-2.702,3.232-3.476
		L98.189,98.772z"/>
</g>
<polygon fill="#EDECE4" points="100.31,103.645 100.271,104.324 104.919,105.719 104.788,104.936 "/>
<path fill="#EDECE4" d="M108.019,101.459l0.301,0.687l-3.4,3.57l-0.131-0.78C105.357,103.776,106.544,102.738,108.019,101.459z"/>
<path fill="#FEFDF3" d="M103.735,100.333c-0.594,0.411-2.377,1.979-3.426,3.314l4.479,1.289c0.688-1.026,2.425-2.702,3.23-3.476
	L103.735,100.333z"/>
<path fill="#93A1A5" d="M144.241,68.243c-0.336,0.229-0.673,0.463-1.015,0.704c-6.051,4.271-12.772,10.37-17.705,15.53
	l-21.357-5.803l-1.07-0.291c4.739-5.312,11.609-10.952,17.549-14.993L144.241,68.243z"/>
<path fill="#4F676A" d="M120.644,63.389l0.426,1l-16.905,14.284l-1.07-0.291C108.157,72.409,114.156,67.818,120.644,63.389z"/>
<path fill="#B7B7B7" d="M143.227,68.947c-6.051,4.271-12.772,10.37-17.705,15.53l-21.357-5.803
	c5.219-5.118,11.76-10.837,16.905-14.284L143.227,68.947z"/>
<path opacity="0.37" fill="#FFFFFF" enable-background="new    " d="M143.227,68.947l-11.023-2.267
	c-6.502,0.833-12.91,2.078-19.12,3.856c-2.791,2.36-5.601,4.923-8.145,7.385c9.81-1.682,19.771-2.261,29.787-2.219
	C137.543,73.245,140.456,70.905,143.227,68.947z"/>
<path fill="#C0C0C0" d="M103.095,78.383c7.527-8.808,17.648-14.763,17.648-14.763l-0.1-0.229
	C120.644,63.389,109.424,70.092,103.095,78.383z"/>
<g>
	<path fill="#CCCCCC" d="M108.316,82.423l-0.031,0.524c0,0,1.871,0.946,5.938,1.681l0.03-0.537L108.316,82.423z"/>
	<path fill="#EBEBEB" d="M109.618,81.123l-1.302,1.301c1.644,0.799,3.664,1.324,5.938,1.669l1.509-1.422L109.618,81.123z"/>
	<polygon fill="#C0C0C0" points="114.254,84.092 115.763,82.669 115.723,83.328 114.224,84.629 	"/>
</g>
<path fill="#2A3238" d="M125.968,59.571l23.66,4.464c0,0,0.332-0.899,1.169-1.61l-23.699-4.267
	C127.098,58.158,125.991,58.597,125.968,59.571z"/>
<path fill="#FBFCFC" d="M127.513,59.14c0,0,1.456-12.943,13.193-17.35c9.183,0.625,16.8,2.561,24.491,4.023
	c0,0-13.099,2.023-15.803,17.293L127.513,59.14z"/>
<g opacity="0.5">
	<g>
		<path fill="#DBDADA" d="M141.1,43.476c-0.374,0.19-0.738,0.388-1.091,0.595l17.722,2.466c0.407-0.201,0.825-0.394,1.259-0.573
			L141.1,43.476z"/>
	</g>
	<g>
		<path fill="#DBDADA" d="M138.23,45.257c-0.273,0.205-0.543,0.416-0.802,0.631l17.274,2.506c0.285-0.215,0.582-0.42,0.884-0.621
			L138.23,45.257z"/>
	</g>
	<g>
		<path fill="#DBDADA" d="M136.062,47.14c-0.214,0.214-0.422,0.433-0.623,0.655l17.029,2.566c0.215-0.22,0.438-0.437,0.665-0.648
			L136.062,47.14z"/>
	</g>
	<g>
		<path fill="#DBDADA" d="M134.352,49.098c-0.171,0.221-0.335,0.445-0.496,0.672l16.863,2.632c0.172-0.226,0.344-0.449,0.524-0.669
			L134.352,49.098z"/>
	</g>
	<g>
		<path fill="#DBDADA" d="M132.57,51.803l16.763,2.702c0.133-0.231,0.273-0.46,0.414-0.685l-16.775-2.704
			C132.834,51.343,132.699,51.571,132.57,51.803z"/>
	</g>
	<g>
		<path fill="#DBDADA" d="M131.516,53.885l16.7,2.775c0.108-0.233,0.218-0.465,0.331-0.698l-16.704-2.775
			C131.731,53.418,131.621,53.65,131.516,53.885z"/>
	</g>
	<g>
		<path fill="#DBDADA" d="M130.646,56.01l16.682,2.849c0.083-0.236,0.172-0.473,0.262-0.707l-16.676-2.849
			C130.823,55.539,130.732,55.775,130.646,56.01z"/>
	</g>
	<g>
		<path fill="#DBDADA" d="M129.932,58.178l16.7,2.928c0.063-0.24,0.13-0.48,0.201-0.719l-16.683-2.925
			C130.074,57.701,130.003,57.94,129.932,58.178z"/>
	</g>
</g>
<path fill="#455E7C" d="M12.652,91.228c3.867-2.977,20.144,18.171,16.278,21.147c0,0-5.014,5.258-14.063-5.453
	C5.818,96.213,12.652,91.228,12.652,91.228z"/>
<path fill="#9A9289" d="M15.338,90.959c2.543-2.061,17.698,16.636,15.155,18.698c0,0-1.831,2.815-9.909-5.83
	C12.504,95.182,15.338,90.959,15.338,90.959z"/>
<path fill="#F2DBC0" d="M80.665,73.481c-3.69,0.313-5.625-0.786-6.509-2.481c-0.343-0.655-0.526-1.397-0.593-2.183
	c-0.237-2.811,1.097-5.353,6.213-5.788c3.782-0.32,8.469-0.646,10.831,1.256c0.835,0.676,1.385,1.629,1.494,2.96
	C92.531,72.339,85.785,73.045,80.665,73.481z"/>
<path opacity="0.3" fill="#FFFFFF" enable-background="new    " d="M79.776,63.028c-5.115,0.435-6.451,2.977-6.213,5.788
	c0.066,0.786,0.25,1.528,0.593,2.183c0.883,1.695,2.818,2.794,6.509,2.481c0.297-0.025,0.599-0.051,0.903-0.08
	c0.104-3.887,1.304-7.721,3.93-10.588C83.62,62.721,81.595,62.873,79.776,63.028z"/>
<path fill="#E0CBAF" d="M43.043,57.783c-0.601,2.099-1.563,4.783-1.042,6.982c0.542,2.254,1.991,4.3,2.557,6.597
	c0.926,3.781,0.113,7.014-1.379,10.097c-1.111,2.284-2.592,4.482-4.018,6.763c-3.518,5.627-10.269,17.739-13.959,23.256
	c-2.692-1.989-11.366-9.593-11.414-15.868c4.173-3.79,7.989-4.94,7.615-10.404c-0.342-5.056-1.726-8.564-0.439-13.616
	c2.833-11.155,16.983-15.946,17.247-27.823c0.056-2.438-0.624-7.417,1.015-9.724c0.404-0.566,0.945-0.976,1.669-1.142
	c5.78-1.344,8.217,6.552,7.87,10.804C48.323,49.123,44.519,52.626,43.043,57.783z"/>
<path opacity="0.3" fill="#FFFFFF" enable-background="new    " d="M22.93,88.2c-0.112-9.818-2.488-18.589,4.562-24.811
	c5.288-5.289,11.356-10.949,10.633-18.365c-1.188,10.973-14.43,15.815-17.161,26.567c-1.286,5.052,0.097,8.56,0.44,13.616
	c0.373,5.462-3.443,6.612-7.615,10.402c0.009,1.29,0.387,2.635,1,3.977C19.066,96.836,22.988,93.237,22.93,88.2z"/>
<path opacity="0.3" fill="#FFFFFF" enable-background="new    " d="M43.043,57.783c-0.601,2.099-1.563,4.783-1.042,6.982
	c0.542,2.254,1.991,4.3,2.557,6.597c0.926,3.781,0.113,7.014-1.379,10.097c0-0.005,0.005-0.013,0.005-0.019
	c2.302-8.727-1.094-12.903-2.35-16.246c-1.255-3.346,1.037-9.284,4.541-14.554c3.51-5.27,1.985-19.764-6.147-16.598
	c0.403-0.566,0.944-0.976,1.668-1.142c5.78-1.344,8.217,6.552,7.87,10.804C48.323,49.123,44.519,52.626,43.043,57.783z"/>
<path fill="#E0CBAF" d="M42.496,66.062c2.427,6.692,6.725,0.625,19.881,1.343c4.333,10.95,4.058,22.978,0.96,35.663
	c0,0-10.319,3.884-20.328,2.438c-11.191-1.616-10.499,1.271-17.809,5.972l-7.655-7.494L42.496,66.062z"/>
<path opacity="0.3" fill="#FFFFFF" enable-background="new    " d="M63.452,101.214c2.942-12.05,3.203-23.474-0.912-33.877
	c-12.497-0.681-16.58,5.083-18.886-1.275l-15.21,23.119c-1.014,1.542-0.495,3.617,1.122,4.508
	c7.583,4.181,15.617,7.153,23.813,9.849C59.097,102.85,63.452,101.214,63.452,101.214z"/>
<path fill="#E8B072" d="M59.085,71.961c0.243-2.914,2.747-5.034,5.856-5.096c3.549-0.073,8.627,0.255,9.792,2.592
	c1.228,2.461,1.75,7.223-9.8,7.93c-3.112,0.19-5.991-2.256-5.86-5.212C59.076,72.105,59.08,72.033,59.085,71.961z"/>
<path fill="#E8B072" d="M61.048,79.266c0.753-1.408,2.114-2.391,3.688-2.658c3.484-0.592,10.064-1.138,11.97,2.672
	c1.123,2.249,1.228,6.113-10.48,7.663c-4.072,0.54-7.155-3.672-5.343-7.356C60.934,79.48,60.989,79.373,61.048,79.266z"/>
<path fill="#E8B072" d="M61.309,89.269c0.608-1.61,2.032-2.771,3.729-3.06c3.209-0.546,8.809-1.059,10.957,1.453
	c1.543,1.806,1.587,7.139-9.707,8.291c-3.483,0.355-6.198-3.007-5.104-6.331C61.223,89.506,61.263,89.39,61.309,89.269z"/>
<path fill="#E0CBAF" d="M61.722,93.192c3.654-0.251,9.947,0.167,11.49,2.324c1.473,2.063,0.891,6.896-10.799,7.701
	C55.652,102.294,55.358,94.805,61.722,93.192z"/>
<path fill="#F2DBC0" d="M77.407,95.914c0.273,3.788-3.966,5.253-8.179,5.61c-4.215,0.358-6.966-1.678-7.082-4.315
	c-0.095-2.183,2.6-4.584,6.813-4.942C73.172,91.909,77.143,92.296,77.407,95.914z"/>
<path fill="#E0CBAF" d="M68.833,92.278c-4.14,0.394-6.783,2.769-6.688,4.929c0.266,6.011,8.792,4.108,8.792,4.108
	C67.411,101.018,65.193,95.473,68.833,92.278z"/>
<path fill="#5D797E" d="M62.389,106.097L30.961,92.739c-1.426-0.605-2.089-2.252-1.483-3.678l24.874-58.518
	c0.606-1.424,2.252-2.089,3.677-1.483l31.428,13.358c1.425,0.606,2.09,2.252,1.484,3.678l-24.874,58.52
	C65.46,106.039,63.815,106.704,62.389,106.097z"/>
<path fill="#FFFCF4" d="M62.66,104.236L31.627,91.047c-1.397-0.596-2.048-2.208-1.454-3.604l24.206-56.948
	c0.594-1.397,2.207-2.048,3.603-1.454l31.031,13.191c1.396,0.595,2.049,2.208,1.455,3.603l-24.204,56.947
	C65.669,104.181,64.056,104.831,62.66,104.236z"/>
<rect x="43.264" y="37.33" transform="matrix(-0.9203 -0.3912 0.3912 -0.9203 89.7691 151.5656)" fill="#0C9999" width="34.12" height="58.617"/>
<rect x="43.632" y="37.974" transform="matrix(-0.9203 -0.3912 0.3912 -0.9203 89.7601 151.5673)" fill="#455E7C" width="33.372" height="57.333"/>
<path fill="#C2E0E3" d="M69.625,75.886l-22.316-8.862c-0.901-0.358-1.342-1.379-0.984-2.28l3.676-9.255
	c0.358-0.901,1.377-1.342,2.279-0.983l22.316,8.863c0.901,0.358,1.341,1.377,0.982,2.279l-3.674,9.256
	C71.547,75.804,70.526,76.244,69.625,75.886z"/>
<path fill="#C2E0E3" d="M47.537,61.693l-1.211,3.051c-0.358,0.9,0.083,1.922,0.984,2.28l22.316,8.862
	c0.899,0.358,1.92-0.082,2.279-0.982l1.086-2.735C66.918,65.316,56.471,62.325,47.537,61.693z"/>
<polygon opacity="0.3" fill="#A3B3D6" enable-background="new    " points="82.829,56.344 40.833,69.836 51.209,45.425 
	86.892,46.786 "/>
<path fill="#CCCCCC" d="M78.929,39.523l-11.995-5.098c-0.297-0.127-0.641,0.012-0.766,0.309l-0.432,1.018
	c-0.126,0.298,0.012,0.64,0.309,0.766l11.994,5.099c0.297,0.125,0.64-0.013,0.766-0.309l0.432-1.019
	C79.365,39.992,79.228,39.649,78.929,39.523z"/>
<path fill="#2E2D2C" d="M51.02,99.869l-10.504-4.465c-0.181-0.076-0.39,0.008-0.466,0.188l-0.102,0.239
	c-0.076,0.18,0.007,0.389,0.188,0.467l10.505,4.465c0.181,0.075,0.389-0.009,0.466-0.188l0.102-0.239
	C51.284,100.153,51.201,99.947,51.02,99.869z"/>
<path fill="#F2DBC0" d="M86.546,77.872c0.404,4.764-4.261,5.168-8.065,5.492c-3.804,0.322-6.003-1.328-6.225-3.96
	c-0.224-2.63,1.592-5.495,5.397-5.818C81.455,73.262,86.143,73.109,86.546,77.872z"/>
<path fill="#F2DBC0" d="M82.426,86.976c0.397,4.765-3.885,5.588-7.154,5.861s-5.707-0.788-5.963-4.11
	c-0.205-2.632,1.853-5.735,5.122-6.009C77.703,82.445,82.029,82.21,82.426,86.976z"/>
<path fill="#FEFDF3" d="M76.961,75.953c0.55,1.563,0.908,3.673,0.532,5.261c-0.054,0.229,0.113,0.45,0.348,0.457
	c1.103,0.037,3.494-0.076,4.526-0.907c0.991-0.8,0.969-4.793-1.075-5.511c-1.348-0.196-2.825-0.076-4.068,0.215
	C77.009,75.517,76.888,75.745,76.961,75.953z"/>
<path fill="#FEFDF3" d="M73.983,85.258c0.34,1.582,0.434,3.636-0.092,5.139c-0.093,0.266,0.073,0.549,0.351,0.591
	c1.126,0.166,3.419,0.313,4.513-0.369c1.08-0.676,1.539-4.642-0.403-5.602c-1.285-0.35-2.729-0.413-3.978-0.286
	C74.114,84.758,73.928,85.002,73.983,85.258z"/>
<path fill="#FEFDF3" d="M71.849,94.194c0.172,1.267,0.198,3.319-0.049,4.616c-0.055,0.293,0.105,0.555,0.321,0.524
	c0.607-0.087,1.344-0.314,1.958-1.059c0.546-0.662,0.826-3.62-0.256-4.246c-0.484-0.33-1.065-0.473-1.679-0.379
	C71.952,93.68,71.814,93.936,71.849,94.194z"/>
<path fill="#FEFDF3" d="M38.215,43.32c0,0,0.949-1.371,1.185-2.376c0.233-1.005,0.112-6.103,0.112-6.103s-0.257-0.803-1.148-0.649
	C38.363,34.19,37.351,38.568,38.215,43.32z"/>
<path fill="#C2E0E3" d="M7.875,95.355l7.462-4.393c0,0,3.827,10.186,15.155,18.695l-6.33,4.841
	C24.164,114.499,13.163,112.024,7.875,95.355z"/>
<path fill="#C8D6D3" d="M28.922,112.38c0,0,0,0-0.003,0.01c0,0,0,0-0.004,0c-0.008,0.008-0.021,0.021-0.042,0.042H28.87
	c-0.003,0.004-0.008,0.007-0.016,0.02c-0.153,0.166-0.581,0.618-1.291,1.282c-0.685,0.638-1.63,1.475-2.849,2.446
	c-1.099,0.878-2.425,1.867-3.977,2.912c-0.411,0.28-0.842,0.563-1.285,0.851c-2.22,1.429-4.844,2.935-7.875,4.415
	c-6.176,3.002-14.058,5.872-23.753,7.635V97.838c5.291,0.497,10.832,0.137,16.127-1.763c2.376-0.847,4.694-2.009,6.921-3.538
	c0.076-0.049,0.149-0.1,0.224-0.153c0.473-0.323,0.937-0.667,1.393-1.022c0.054-0.047,0.096-0.08,0.153-0.125
	c-0.264,0.368-0.377,0.883-0.343,1.514v0.005c0.062,1.405,0.813,3.374,1.97,5.526l0.003,0.005c0.004,0.012,0.008,0.017,0.012,0.025
	c0,0,0,0,0,0.009c0.934,1.74,2.132,3.603,3.447,5.387c0.473,0.638,0.962,1.271,1.458,1.883c0.005,0,0.005,0.002,0.009,0.008
	c0.003,0.009,0.003,0.012,0.012,0.012c0.012,0.011,0.017,0.018,0.025,0.024c0.003,0.005,0.003,0.005,0.008,0.008
	c0.282,0.348,0.564,0.694,0.854,1.028c0.776,0.909,1.563,1.754,2.352,2.514c0.021,0.018,0.045,0.039,0.062,0.056l0.062,0.061
	c0.009,0.01,0.012,0.015,0.021,0.017c0.898,0.873,1.782,1.606,2.607,2.166c0.242,0.157,0.49,0.316,0.722,0.448
	c0.225,0.121,0.449,0.235,0.66,0.327c0.078,0.036,0.145,0.063,0.215,0.094c0.004,0,0.013,0,0.017,0.002
	c0.033,0.014,0.071,0.027,0.104,0.037c0.045,0.018,0.075,0.033,0.121,0.042c0.066,0.021,0.125,0.045,0.192,0.056
	C27.894,112.68,28.466,112.656,28.922,112.38z"/>
<path opacity="0.2" fill="#FFFFFF" enable-background="new    " d="M13.088,95.792c-0.467-1.158-0.753-2.2-0.79-3.037V92.75
	c-0.034-0.631,0.079-1.146,0.343-1.514c-0.057,0.045-0.099,0.078-0.153,0.125c-0.457,0.355-0.92,0.699-1.393,1.022
	c-0.076,0.054-0.149,0.104-0.224,0.153c-2.227,1.529-4.545,2.691-6.921,3.538c-5.295,1.899-10.836,2.26-16.127,1.763v4.534
	C-2.917,103.719,5.613,100.795,13.088,95.792z"/>
<path fill="#47607F" d="M28.922,112.38c0,0,0,0-0.003,0.01c0,0,0,0-0.004,0c-0.008,0.008-0.021,0.021-0.042,0.042H28.87
	c-0.003,0.004-0.008,0.007-0.016,0.02c-0.153,0.166-0.581,0.618-1.291,1.282c-0.685,0.638-1.63,1.475-2.849,2.446
	c-1.099,0.878-2.425,1.867-3.977,2.912c-0.411,0.28-0.842,0.563-1.285,0.851c-2.22,1.429-4.844,2.935-7.875,4.415
	c-6.176,3.002-14.058,5.872-23.753,7.635v-3.491c8.899-1.778,16.41-4.574,22.348-7.361c3.04-1.431,5.664-2.853,7.85-4.139
	c0.403-0.236,0.788-0.465,1.158-0.691c1.405-0.855,2.6-1.635,3.579-2.286c0,0,0.004,0,0.004-0.003
	c0.199-0.138,0.382-0.267,0.56-0.382c0.094-0.067,0.191-0.132,0.281-0.195c0-0.003,0-0.003,0.003-0.003c0.004,0,0.004,0,0.004,0
	c1.435-0.983,2.22-1.568,2.313-1.513c0.225,0.122,0.449,0.238,0.66,0.33c0.078,0.035,0.145,0.061,0.215,0.092
	c0.004,0,0.013,0,0.017,0.004c0.033,0.012,0.071,0.026,0.104,0.036c0.045,0.019,0.075,0.032,0.121,0.042
	c0.066,0.02,0.125,0.043,0.192,0.056C27.894,112.68,28.466,112.656,28.922,112.38z"/>
<path fill="#E0CBAF" d="M86.008,142.909c0,0-2.318,1.335-2.229,6.669c0.003,0.724,0.061,1.517,0.174,2.386l-16.176-0.224
	l-2.657-0.04c0,0,0.057-0.308,0.071-0.816c0.005-0.019,0.005-0.04,0.005-0.059c0.061-1.955-0.439-6.707-6.272-9.262
	c-7.466-3.276-13.563-13.51-14.519-17.945c-0.918-4.256,5.402-12.874,8.858-12.854c0.14,0,0.276,0.012,0.403,0.042h0.005
	c0,0-4.673-22.121,2.695-36.831c1.305-2.731,3.896-3.627,6.043-3.17l0.053,0.014c2.675,0.592,4.629,3.316,2.424,7.215
	c0,0-6.758,13.488-2.526,27.529l4.357-2.429c1.848-1.027,4.16-0.673,5.611,0.871l2.207,2.325l2.766-1.161
	c1.875-0.782,4.036-0.257,5.34,1.293l1.638,1.956l2.672-0.312c2.133-0.25,4.172,1,4.9,3.029c0.532,1.492,1.005,3.448,1.134,5.823
	C92.988,116.96,95.104,134.475,86.008,142.909z"/>
<path opacity="0.3" fill="#FFFFFF" enable-background="new    " d="M64.815,75.346c-3.907,8.986-7.443,19.077-2.982,28.192
	c-3.059-13.284,3.057-25.503,3.057-25.503c1.964-3.473,0.627-6.012-1.578-6.945C64.494,72.178,65.415,73.543,64.815,75.346z"/>
<path opacity="0.3" fill="#FFFFFF" enable-background="new    " d="M92.988,116.96c-0.125-2.375-0.602-4.331-1.134-5.823
	c-0.68-1.894-2.501-3.11-4.475-3.06c7.841,11.119,1.839,30.81-3.75,34.239c-1.959,1.204-1.753,7.336-1.404,9.623l1.729,0.023
	c-0.114-0.87-0.17-1.663-0.175-2.386c-0.088-5.334,2.231-6.669,2.231-6.669C95.104,134.475,92.988,116.96,92.988,116.96z"/>
<path fill="#F2DBC0" d="M62.831,70.944c0,0-5.509-0.799-8.272,9.788c-3.249,12.435-0.43,33.831-0.259,35.242
	c0.004,0.044,0.009,0.066,0.009,0.066s-0.889-5.421-0.763-5.39c0,0-4.653-22.049,2.693-36.708c1.299-2.722,3.882-3.616,6.022-3.161
	l0.052,0.013L62.831,70.944z"/>
<path fill="#F2DBC0" d="M67.545,150.199c0.072,0.408-1.928,0.693-2.353,0.686c-0.075,0-0.101-0.013-0.057-0.035
	c0.021-0.01,0.039-0.018,0.062-0.022c0.062-1.954-0.438-6.708-6.272-9.263c-7.466-3.275-13.563-13.51-14.519-17.944
	c-0.918-4.256,5.402-12.874,8.858-12.855c0.141,0,0.276,0.014,0.403,0.042h0.004c0,0,0,0-0.004,0.007
	c-0.03,0.017-0.153,0.092-0.351,0.229c-1.635,1.105-8.328,6.047-7.643,12.244c0.391,3.524,5.253,11.006,9.473,14.275
	c4.23,3.278,9.913,4.701,11.388,8.613C66.943,147.248,67.282,148.653,67.545,150.199z"/>
<path fill="#F2DBC0" d="M53.668,110.811c0,0,0.759,8.928,3.717,15.795l-5.412-7.146C51.974,119.459,52.035,115.935,53.668,110.811z"
	/>
<path fill="#C2E0E3" d="M85.313,154.748l-17.123,1.648l-4.072,0.395l-0.3-2.144l-0.445-3.175c0.601-0.237,1.209-0.451,1.823-0.646
	c0.777-0.238,1.56-0.451,2.349-0.627c6.842-1.566,13.896-0.916,16.23-0.622c0.521,0.065,0.81,0.109,0.81,0.109l0.633,4.411
	L85.313,154.748z"/>
<path fill="#F7AE1A" d="M89,154.827c0,0,0,0.148-0.01,0.433c-0.025,0.702-0.096,2.209-0.284,4.356
	c-0.12,1.33-0.285,2.906-0.522,4.686c0,0.009-0.003,0.022-0.003,0.029c-0.427,3.221-1.071,7.093-2.059,11.392
	c-0.082,0.357-0.166,0.718-0.252,1.082H49.173c2.968-2.8,5.448-5.596,7.257-8.331c1.319-1.996,2.281-3.953,2.812-5.868
	c0.387-1.385,0.673-2.827,0.843-4.315c0.016-0.134,0.032-0.267,0.046-0.397c0.085-0.868,0.136-1.746,0.145-2.646
	c0,0,0.013,0,0.037-0.005c0.009,0,0.014-0.005,0.033-0.009c0.018-0.008,0.046-0.012,0.079-0.017
	c0.016-0.005,0.033-0.005,0.054-0.007c0.003,0,0.013,0,0.021-0.005c0.038-0.005,0.087-0.018,0.132-0.029
	c0.063-0.009,0.128-0.022,0.199-0.033c0.505-0.099,1.339-0.249,2.421-0.419h0.02c0.022-0.005,0.046-0.005,0.063-0.01
	c0.022,0,0.03-0.002,0.034-0.002h0.004c0.153-0.02,0.295-0.047,0.445-0.063h0.003c1.195-0.178,2.621-0.37,4.221-0.535
	c2.328-0.246,5.006-0.447,7.822-0.505h0.004c3.068-0.063,6.287,0.058,9.352,0.493h0.003C86.513,154.278,87.785,154.514,89,154.827z"
	/>
<path fill="#C8D6D3" d="M83.425,153.886c-2.512-0.258-5.083-0.329-7.558-0.279h-0.004c-2.816,0.058-5.495,0.261-7.822,0.507
	c-1.601,0.165-3.026,0.355-4.22,0.533h-0.004c-0.149,0.019-0.291,0.045-0.444,0.063h-0.005c-0.004,0-0.012,0.004-0.034,0.004
	c-0.017,0.003-0.041,0.003-0.062,0.009h-0.021c-1.082,0.17-1.917,0.32-2.421,0.419c-0.071,0.012-0.136,0.026-0.198,0.033
	c-0.046,0.013-0.097,0.025-0.133,0.028c-0.007,0.005-0.017,0.005-0.02,0.005c-0.022,0.004-0.038,0.004-0.054,0.007
	c-0.032,0.005-0.062,0.01-0.079,0.018c-0.021,0.004-0.024,0.01-0.033,0.01c-0.025,0.003-0.037,0.003-0.037,0.003
	c-0.008,0.9-0.059,1.779-0.145,2.646c-0.013,0.132-0.03,0.264-0.046,0.397c-0.17,1.489-0.456,2.932-0.843,4.317
	c-0.53,1.915-1.492,3.872-2.812,5.866c-1.808,2.737-4.288,5.531-7.257,8.333h31.771C83.254,169.353,84.461,161.566,83.425,153.886z"
	/>
<path fill="#AFB7B5" d="M85.222,154.1h-0.003c-0.591-0.084-1.19-0.153-1.793-0.214c1.036,7.68-0.171,15.467-2.482,22.918h4.927
	c0.086-0.365,0.169-0.725,0.252-1.082c0.987-4.299,1.63-8.17,2.056-11.392c0-0.009,0.005-0.021,0.005-0.029
	c0.236-1.779,0.401-3.355,0.523-4.686c0.188-2.147,0.259-3.654,0.283-4.356C89,154.975,89,154.827,89,154.827
	C87.785,154.514,86.513,154.278,85.222,154.1z"/>
<path fill="#47607F" d="M63.269,159.155c-0.008,0.108-0.017,0.219-0.025,0.323c-0.104,1.332-0.278,2.617-0.512,3.868
	c-0.385,2.149-1.263,4.389-2.533,6.678c-1.227,2.22-2.829,4.486-4.718,6.78h-6.308c2.968-2.8,5.448-5.596,7.257-8.331
	c1.319-1.996,2.281-3.953,2.812-5.868c0.387-1.385,0.673-2.827,0.843-4.315c0.016-0.134,0.032-0.267,0.046-0.397
	c0.085-0.868,0.136-1.746,0.145-2.646c0,0,0.013,0,0.037-0.005c0.009,0,0.014-0.005,0.033-0.009
	c0.018-0.008,0.046-0.012,0.079-0.017c0.016-0.005,0.033-0.005,0.054-0.007c0.003,0,0.013,0,0.021-0.005
	c0.038-0.005,0.087-0.018,0.132-0.029c0.063-0.009,0.128-0.022,0.199-0.033c0.754-0.124,2.062-0.353,2.443-0.419
	c0.021-0.005,0.045-0.005,0.062-0.01c0.022,0,0.03-0.002,0.034-0.002C63.414,156.239,63.38,157.72,63.269,159.155z"/>
<path fill="#FEFDF3" d="M59.398,73.525c0,0-1.47,2.641-2.067,5.177c0,0,2.122,2.763,5.239,1.832c1.173-1.7,2.224-4.268,2.325-5.625
	C64.896,74.91,62.43,76.067,59.398,73.525z"/>
<path fill="#FCCB8D" d="M45.376,85.688"/>
<path fill="#5E5C53" d="M95.933-1.302c0,0,26.771-1.3,38.392,24.383l8.458-1.073c0,0-7.879-20.259-28.156-25.041L95.933-1.302z"/>
<path fill="#424343" d="M126.187,1.944c-3.293-2.148-7.131-3.933-11.561-4.977L95.933-1.302c0,0,9.241-0.447,19.225,4.394
	C118.795,2.235,122.491,1.884,126.187,1.944z"/>
<polygon fill="#5E5C53" points="121.185,18.433 149.878,14.962 141.249,31.998 "/>
<path fill="#424343" d="M66.429,28.181l18.639,8.789c0,0,5.884-35.563,29.559-40.003L95.933-1.302
	C95.933-1.302,75.896,0.153,66.429,28.181z"/>
<g>
	<path fill="#455E7C" d="M129.892,77.116c-3.694,3.309-10.015,4.645-14.115,2.981c-4.103-1.663-4.433-5.693-0.738-9.003
		c3.693-3.31,10.013-4.643,14.116-2.98C133.255,69.776,133.585,73.808,129.892,77.116z"/>
</g>
<g>
	<polygon fill="#FFFFFF" points="115.604,77.942 115.149,72.422 118.545,71.705 118.821,75.06 130.6,72.572 130.776,74.737 	"/>
</g>
<text transform="matrix(0.9294 0.3691 -0.3691 0.9294 48.7988 65.6519)" fill="#FFFFFF" font-family="'ArialMT'" font-size="14.2123">PAY</text>
</svg>
