<?xml version="1.0" encoding="utf-8"?>
<!-- Generator: Adobe Illustrator 16.0.0, SVG Export Plug-In . SVG Version: 6.00 Build 0)  -->
<!DOCTYPE svg PUBLIC "-//W3C//DTD SVG 1.1//EN" "http://www.w3.org/Graphics/SVG/1.1/DTD/svg11.dtd">
<svg version="1.1" id="Layer_1" xmlns="http://www.w3.org/2000/svg" xmlns:xlink="http://www.w3.org/1999/xlink" x="0px" y="0px"
	 width="200px" height="181.563px" viewBox="92 93.437 200 181.563" enable-background="new 92 93.437 200 181.563"
	 xml:space="preserve">
<radialGradient id="SVGID_1_" cx="316.7725" cy="-897.8164" r="22.8445" gradientTransform="matrix(1 0 0 -0.1594 -56 124.2285)" gradientUnits="userSpaceOnUse">
	<stop  offset="0.0194" style="stop-color:#D6D7D9"/>
	<stop  offset="0.8614" style="stop-color:#D6D7D9;stop-opacity:0.1413"/>
	<stop  offset="1" style="stop-color:#D6D7D9;stop-opacity:0"/>
</radialGradient>
<ellipse opacity="0.6" fill="url(#SVGID_1_)" enable-background="new    " cx="260.772" cy="267.34" rx="23.286" ry="4.023"/>
<radialGradient id="SVGID_2_" cx="248.9141" cy="-896.707" r="22.8425" gradientTransform="matrix(1 0 0 -0.1594 -56 124.7188)" gradientUnits="userSpaceOnUse">
	<stop  offset="0.0194" style="stop-color:#D6D7D9"/>
	<stop  offset="0.8614" style="stop-color:#D6D7D9;stop-opacity:0.1413"/>
	<stop  offset="1" style="stop-color:#D6D7D9;stop-opacity:0"/>
</radialGradient>
<ellipse opacity="0.6" fill="url(#SVGID_2_)" enable-background="new    " cx="192.914" cy="267.654" rx="23.286" ry="4.023"/>
<radialGradient id="SVGID_3_" cx="181.1318" cy="-896.707" r="22.8425" gradientTransform="matrix(1 0 0 -0.1594 -56 124.7188)" gradientUnits="userSpaceOnUse">
	<stop  offset="0.0194" style="stop-color:#D6D7D9"/>
	<stop  offset="0.8614" style="stop-color:#D6D7D9;stop-opacity:0.1413"/>
	<stop  offset="1" style="stop-color:#D6D7D9;stop-opacity:0"/>
</radialGradient>
<ellipse opacity="0.6" fill="url(#SVGID_3_)" enable-background="new    " cx="125.131" cy="267.654" rx="23.287" ry="4.023"/>
<radialGradient id="SVGID_4_" cx="248.0996" cy="-1263.0703" r="28.891" gradientTransform="matrix(1 0 0 -0.1594 -56 -37.4707)" gradientUnits="userSpaceOnUse">
	<stop  offset="0.0194" style="stop-color:#D6D7D9"/>
	<stop  offset="0.8614" style="stop-color:#D6D7D9;stop-opacity:0.1413"/>
	<stop  offset="1" style="stop-color:#D6D7D9;stop-opacity:0"/>
</radialGradient>
<ellipse opacity="0.6" fill="url(#SVGID_4_)" enable-background="new    " cx="192.099" cy="163.863" rx="29.438" ry="5.085"/>
<g>
	<g>
		<path fill="#3A4F66" d="M126.873,188.476c0,1.007-0.816,1.818-1.82,1.818c-1.005,0-1.819-0.812-1.819-1.818
			c0-1.005,0.813-1.817,1.819-1.817C126.057,186.658,126.873,187.471,126.873,188.476z"/>
		<path fill="#3A4F66" d="M132.527,188.476c0,1.007-0.814,1.818-1.82,1.818s-1.819-0.812-1.819-1.818
			c0-1.005,0.813-1.817,1.819-1.817S132.527,187.471,132.527,188.476z"/>
		<path fill="#3A4F66" d="M138.182,188.476c0,1.007-0.813,1.818-1.819,1.818c-1.004,0-1.82-0.812-1.82-1.818
			c0-1.005,0.816-1.817,1.82-1.817C137.368,186.658,138.182,187.471,138.182,188.476z"/>
		<path fill="#3A4F66" d="M143.837,188.476c0,1.007-0.815,1.818-1.82,1.818c-1.004,0-1.818-0.812-1.818-1.818
			c0-1.005,0.814-1.817,1.818-1.817C143.022,186.658,143.837,187.471,143.837,188.476z"/>
		<path fill="#3A4F66" d="M149.491,188.476c0,1.007-0.814,1.818-1.82,1.818c-1.004,0-1.818-0.812-1.818-1.818
			c0-1.005,0.814-1.817,1.818-1.817C148.677,186.658,149.491,187.471,149.491,188.476z"/>
		<path fill="#3A4F66" d="M155.146,188.476c0,1.007-0.814,1.818-1.818,1.818c-1.005,0-1.819-0.812-1.819-1.818
			c0-1.005,0.813-1.817,1.819-1.817C154.332,186.658,155.146,187.471,155.146,188.476z"/>
		<path fill="#3A4F66" d="M160.802,188.476c0,1.007-0.814,1.818-1.819,1.818c-1.006,0-1.82-0.812-1.82-1.818
			c0-1.005,0.814-1.817,1.82-1.817C159.988,186.658,160.802,187.471,160.802,188.476z"/>
		<path fill="#3A4F66" d="M166.458,188.476c0,1.007-0.814,1.818-1.821,1.818c-1.005,0-1.819-0.812-1.819-1.818
			c0-1.005,0.814-1.817,1.819-1.817C165.644,186.658,166.458,187.471,166.458,188.476z"/>
		<path fill="#3A4F66" d="M172.111,188.476c0,1.007-0.813,1.818-1.819,1.818c-1.005,0-1.819-0.812-1.819-1.818
			c0-1.005,0.815-1.817,1.819-1.817C171.298,186.658,172.111,187.471,172.111,188.476z"/>
		<path fill="#3A4F66" d="M177.767,188.476c0,1.007-0.814,1.818-1.818,1.818c-1.004,0-1.819-0.812-1.819-1.818
			c0-1.005,0.815-1.817,1.819-1.817S177.767,187.471,177.767,188.476z"/>
		<path fill="#3A4F66" d="M183.422,188.476c0,1.007-0.814,1.818-1.818,1.818c-1.006,0-1.82-0.812-1.82-1.818
			c0-1.005,0.814-1.817,1.82-1.817C182.608,186.658,183.422,187.471,183.422,188.476z"/>
		<path fill="#3A4F66" d="M189.078,188.476c0,1.007-0.816,1.818-1.819,1.818c-1.006,0-1.821-0.812-1.821-1.818
			c0-1.005,0.814-1.817,1.821-1.817C188.262,186.658,189.078,187.471,189.078,188.476z"/>
		<path fill="#3A4F66" d="M194.731,188.476c0,1.007-0.813,1.818-1.819,1.818c-1.003,0-1.819-0.812-1.819-1.818
			c0-1.005,0.816-1.817,1.819-1.817C193.919,186.658,194.731,187.471,194.731,188.476z"/>
		<path fill="#3A4F66" d="M200.388,188.476c0,1.007-0.814,1.818-1.819,1.818c-1.004,0-1.819-0.812-1.819-1.818
			c0-1.005,0.815-1.817,1.819-1.817C199.573,186.658,200.388,187.471,200.388,188.476z"/>
		<path fill="#3A4F66" d="M206.042,188.476c0,1.007-0.814,1.818-1.819,1.818s-1.82-0.812-1.82-1.818c0-1.005,0.815-1.817,1.82-1.817
			S206.042,187.471,206.042,188.476z"/>
		<path fill="#3A4F66" d="M211.698,188.476c0,1.007-0.815,1.818-1.819,1.818c-1.006,0-1.82-0.812-1.82-1.818
			c0-1.005,0.814-1.817,1.82-1.817C210.883,186.658,211.698,187.471,211.698,188.476z"/>
		<path fill="#3A4F66" d="M217.354,188.476c0,1.007-0.816,1.818-1.82,1.818c-1.005,0-1.819-0.812-1.819-1.818
			c0-1.005,0.814-1.817,1.819-1.817C216.537,186.658,217.354,187.471,217.354,188.476z"/>
		<path fill="#3A4F66" d="M223.007,188.476c0,1.007-0.814,1.818-1.819,1.818c-1.006,0-1.818-0.812-1.818-1.818
			c0-1.005,0.813-1.817,1.818-1.817C222.192,186.658,223.007,187.471,223.007,188.476z"/>
		<path fill="#3A4F66" d="M228.662,188.476c0,1.007-0.814,1.818-1.818,1.818c-1.007,0-1.82-0.812-1.82-1.818
			c0-1.005,0.813-1.817,1.82-1.817C227.848,186.658,228.662,187.471,228.662,188.476z"/>
		<path fill="#3A4F66" d="M234.317,188.476c0,1.007-0.814,1.818-1.82,1.818c-1.004,0-1.818-0.812-1.818-1.818
			c0-1.005,0.814-1.817,1.818-1.817C233.503,186.658,234.317,187.471,234.317,188.476z"/>
		<path fill="#3A4F66" d="M239.972,188.476c0,1.007-0.813,1.818-1.816,1.818c-1.007,0-1.821-0.812-1.821-1.818
			c0-1.005,0.814-1.817,1.821-1.817C239.158,186.658,239.972,187.471,239.972,188.476z"/>
		<path fill="#3A4F66" d="M245.628,188.476c0,1.007-0.815,1.818-1.819,1.818c-1.005,0-1.82-0.812-1.82-1.818
			c0-1.005,0.815-1.817,1.82-1.817C244.813,186.658,245.628,187.471,245.628,188.476z"/>
		<path fill="#3A4F66" d="M251.283,188.476c0,1.007-0.815,1.818-1.819,1.818c-1.007,0-1.819-0.812-1.819-1.818
			c0-1.005,0.813-1.817,1.819-1.817C250.468,186.658,251.283,187.471,251.283,188.476z"/>
		<path fill="#3A4F66" d="M256.938,188.476c0,1.007-0.814,1.818-1.818,1.818s-1.82-0.812-1.82-1.818c0-1.005,0.816-1.817,1.82-1.817
			S256.938,187.471,256.938,188.476z"/>
		<path fill="#3A4F66" d="M262.592,188.476c0,1.007-0.813,1.818-1.818,1.818s-1.82-0.812-1.82-1.818c0-1.005,0.815-1.817,1.82-1.817
			C261.779,186.658,262.592,187.471,262.592,188.476z"/>
	</g>
	<g>
		<circle fill="#3A4F66" cx="192.912" cy="171.512" r="1.82"/>
		<path fill="#3A4F66" d="M192.912,178.988c-1.003,0-1.819-0.819-1.819-1.821c0-1.006,0.816-1.821,1.819-1.821
			c1.007,0,1.819,0.815,1.819,1.821C194.731,178.169,193.919,178.988,192.912,178.988z"/>
		<circle fill="#3A4F66" cx="192.912" cy="182.822" r="1.82"/>
		<path fill="#3A4F66" d="M192.912,195.95c-1.003,0-1.819-0.815-1.819-1.821c0-1.002,0.816-1.817,1.819-1.817
			c1.007,0,1.819,0.815,1.819,1.817C194.731,195.135,193.919,195.95,192.912,195.95z"/>
		<path fill="#3A4F66" d="M192.912,201.606c-1.003,0-1.819-0.815-1.819-1.817c0-1.007,0.816-1.821,1.819-1.821
			c1.007,0,1.819,0.814,1.819,1.821C194.731,200.791,193.919,201.606,192.912,201.606z"/>
		<path fill="#3A4F66" d="M192.912,207.261c-1.003,0-1.819-0.813-1.819-1.818c0-1.007,0.816-1.819,1.819-1.819
			c1.007,0,1.819,0.813,1.819,1.819C194.731,206.447,193.919,207.261,192.912,207.261z"/>
	</g>
	<g>
		<path fill="#3A4F66" d="M260.773,195.95c-1.005,0-1.82-0.815-1.82-1.821c0-1.002,0.815-1.817,1.82-1.817s1.818,0.815,1.818,1.817
			C262.592,195.135,261.779,195.95,260.773,195.95z"/>
		<path fill="#3A4F66" d="M260.773,201.606c-1.005,0-1.82-0.815-1.82-1.817c0-1.007,0.815-1.821,1.82-1.821s1.818,0.814,1.818,1.821
			C262.592,200.791,261.779,201.606,260.773,201.606z"/>
		<path fill="#3A4F66" d="M260.773,207.261c-1.005,0-1.82-0.813-1.82-1.818c0-1.007,0.815-1.819,1.82-1.819s1.818,0.813,1.818,1.819
			C262.592,206.447,261.779,207.261,260.773,207.261z"/>
	</g>
	<g>
		<path fill="#3A4F66" d="M125.052,195.95c-1.005,0-1.819-0.815-1.819-1.821c0-1.002,0.813-1.817,1.819-1.817
			c1.004,0,1.82,0.815,1.82,1.817C126.873,195.135,126.057,195.95,125.052,195.95z"/>
		<path fill="#3A4F66" d="M125.052,201.606c-1.005,0-1.819-0.815-1.819-1.817c0-1.007,0.813-1.821,1.819-1.821
			c1.004,0,1.82,0.814,1.82,1.821C126.873,200.791,126.057,201.606,125.052,201.606z"/>
		<path fill="#3A4F66" d="M125.052,207.261c-1.005,0-1.819-0.813-1.819-1.818c0-1.007,0.813-1.819,1.819-1.819
			c1.004,0,1.82,0.813,1.82,1.819C126.873,206.447,126.057,207.261,125.052,207.261z"/>
		<path fill="#3A4F66" d="M192.912,212.917c-1.003,0-1.819-0.816-1.819-1.821c0-1.006,0.816-1.819,1.819-1.819
			c1.007,0,1.819,0.813,1.819,1.819C194.731,212.101,193.919,212.917,192.912,212.917z"/>
		<path fill="#3A4F66" d="M260.773,212.917c-1.005,0-1.82-0.816-1.82-1.821c0-1.006,0.815-1.819,1.82-1.819s1.818,0.813,1.818,1.819
			C262.592,212.101,261.779,212.917,260.773,212.917z"/>
		<path fill="#3A4F66" d="M125.052,212.917c-1.005,0-1.819-0.816-1.819-1.821c0-1.006,0.813-1.819,1.819-1.819
			c1.004,0,1.82,0.813,1.82,1.819C126.873,212.101,126.057,212.917,125.052,212.917z"/>
	</g>
</g>
<path fill="#AFC9CB" d="M218.874,260.036h-51.92c-1.037,0-1.875-0.843-1.875-1.878v-40.146c0-1.036,0.839-1.877,1.875-1.877h51.92
	c1.035,0,1.875,0.842,1.875,1.877v40.146C220.749,259.193,219.909,260.036,218.874,260.036z"/>
<path fill="#456785" d="M169.548,253.639c-0.041,0-0.075-0.035-0.075-0.072V219.82c0-0.039,0.034-0.073,0.075-0.073h46.73
	c0.04,0,0.074,0.034,0.074,0.073v33.746c0,0.037-0.034,0.072-0.074,0.072H169.548z"/>
<path fill="#688FB5" d="M169.548,253.639c-0.041,0-0.075-0.035-0.075-0.072l46.805-33.819c0.04,0,0.074,0.034,0.074,0.073v33.746
	c0,0.037-0.034,0.072-0.074,0.072H169.548z"/>
<path fill="#456785" d="M197.787,260.036h-4.875h-4.874c0,3.081-2.39,4.811-7.185,5.693h12.058h12.061
	C200.177,264.847,197.787,263.117,197.787,260.036z"/>
<path fill="#AFC9CB" d="M210.49,267.653c0-1.064-0.863-1.924-1.925-1.924h-31.304c-1.063,0-1.923,0.859-1.923,1.924H210.49z"/>
<path fill="#AFC9CB" d="M286.734,260.036h-51.922c-1.035,0-1.875-0.843-1.875-1.878v-40.146c0-1.036,0.841-1.877,1.875-1.877h51.922
	c1.036,0,1.872,0.842,1.872,1.877v40.146C288.607,259.193,287.771,260.036,286.734,260.036z"/>
<path fill="#456785" d="M237.409,253.639c-0.041,0-0.074-0.035-0.074-0.072V219.82c0-0.039,0.033-0.073,0.074-0.073h46.731
	c0.041,0,0.069,0.034,0.069,0.073v33.746c0,0.037-0.028,0.072-0.069,0.072H237.409z"/>
<path fill="#688FB5" d="M237.409,253.639c-0.041,0-0.074-0.035-0.074-0.072l46.806-33.819c0.041,0,0.069,0.034,0.069,0.073v33.746
	c0,0.037-0.028,0.072-0.069,0.072H237.409z"/>
<path fill="#456785" d="M265.648,260.036h-4.875h-4.875c0,3.081-2.389,4.811-7.186,5.693h12.061h12.061
	C268.039,264.847,265.648,263.117,265.648,260.036z"/>
<path fill="#AFC9CB" d="M278.35,267.653c0-1.064-0.862-1.924-1.925-1.924h-31.304c-1.063,0-1.923,0.859-1.923,1.924H278.35z"/>
<path fill="#AFC9CB" d="M151.013,260.036h-51.92c-1.037,0-1.875-0.843-1.875-1.878v-40.146c0-1.036,0.839-1.877,1.875-1.877h51.921
	c1.036,0,1.875,0.842,1.875,1.877v40.146C152.889,259.193,152.049,260.036,151.013,260.036z"/>
<path fill="#456785" d="M101.687,253.639c-0.041,0-0.073-0.035-0.073-0.072V219.82c0-0.039,0.032-0.073,0.073-0.073h46.73
	c0.041,0,0.075,0.034,0.075,0.073v33.746c0,0.037-0.034,0.072-0.075,0.072H101.687z"/>
<path fill="#688FB5" d="M101.687,253.639c-0.041,0-0.073-0.035-0.073-0.072l46.803-33.819c0.041,0,0.075,0.034,0.075,0.073v33.746
	c0,0.037-0.034,0.072-0.075,0.072H101.687z"/>
<path fill="#456785" d="M129.927,260.036h-4.875h-4.875c0,3.081-2.388,4.811-7.184,5.693h12.059h12.06
	C132.316,264.847,129.927,263.117,129.927,260.036z"/>
<path fill="#AFC9CB" d="M142.627,267.653c0-1.064-0.861-1.924-1.923-1.924H109.4c-1.062,0-1.924,0.859-1.924,1.924H142.627z"/>
<path fill="#AFC9CB" d="M225.612,154.856h-65.812c-1.313,0-2.376-1.064-2.376-2.374V101.59c0-1.309,1.063-2.374,2.376-2.374h65.812
	c1.313,0,2.376,1.065,2.376,2.374v50.892C227.988,153.792,226.926,154.856,225.612,154.856z"/>
<path fill="#456785" d="M163.091,146.749c-0.052,0-0.094-0.043-0.094-0.093v-42.771c0-0.05,0.042-0.091,0.094-0.091h59.231
	c0.052,0,0.094,0.041,0.094,0.091v42.771c0,0.05-0.042,0.093-0.094,0.093H163.091z"/>
<path fill="#688FB5" d="M163.091,146.749c-0.052,0-0.094-0.043-0.094-0.093l59.325-42.861c0.052,0,0.094,0.041,0.094,0.091v42.771
	c0,0.05-0.042,0.093-0.094,0.093H163.091z"/>
<path fill="#456785" d="M198.887,154.856h-6.181h-6.179c0,3.905-3.029,6.097-9.106,7.214h15.286h15.285
	C201.914,160.953,198.887,158.761,198.887,154.856z"/>
<path fill="#AFC9CB" d="M214.985,164.51c0-1.347-1.093-2.44-2.44-2.44h-39.676c-1.347,0-2.44,1.093-2.44,2.44H214.985z"/>
<path fill="#C9D7D4" d="M663.918,36.986c-45.574,26.268-82.859,90.738-82.859,143.27c0,0.201,0.006,0.398,0.006,0.598
	l165.709-95.771c0-0.114,0.004-0.23,0.004-0.345C746.777,32.207,709.488,10.719,663.918,36.986z"/>
<path fill="#A4B4D6" d="M702.561,46.889l0.98,60.956c0.02,1.088-0.55,2.104-1.486,2.654l-66.904,39.432
	c-1.996,1.178-4.52-0.238-4.558-2.555l-0.972-60.3c-0.018-1.08,0.542-2.087,1.469-2.642l66.891-40.089
	C699.979,43.148,702.521,44.562,702.561,46.889z"/>
<path fill="#465F7D" d="M703.898,47.633l0.981,60.958c0.019,1.086-0.551,2.1-1.487,2.652l-66.902,39.432
	c-1.997,1.178-4.521-0.238-4.559-2.555l-0.972-60.3c-0.017-1.08,0.542-2.088,1.47-2.643l66.891-40.089
	C701.316,43.893,703.859,45.306,703.898,47.633z"/>
<path fill="#688FB5" d="M700.132,54.062l0.843,52.229c0.016,0.931-0.473,1.798-1.274,2.273l-60.108,35.65
	c-1.71,1.008-3.873-0.205-3.904-2.189l-1.393-51.621c-0.016-0.925,0.465-1.788,1.258-2.263l60.659-36.259
	C697.922,50.856,700.102,52.068,700.132,54.062z"/>
<path fill="#A4B4D6" d="M758.641,142.597l-52.668-30.703c-0.94-0.547-2.103-0.547-3.043-0.002l-67.139,39.031
	c-2.004,1.164-2.006,4.057-0.003,5.225l52.103,30.37c0.934,0.545,2.086,0.551,3.022,0.016l67.707-38.698
	C760.641,146.679,760.652,143.769,758.641,142.597z"/>
<g>
	<path fill="#B0CACC" d="M758.646,141.064l-52.668-30.701c-0.941-0.547-2.104-0.549-3.043-0.002l-67.139,39.029
		c-2.004,1.164-2.005,4.059-0.003,5.225l52.104,30.372c0.933,0.545,2.084,0.549,3.021,0.014l67.707-38.698
		C760.646,145.146,760.659,142.236,758.646,141.064z"/>
</g>
<path fill="#E0E1F1" d="M734.077,154.636l-17.032-9.928c-0.304-0.176-0.68-0.178-0.984,0l-21.709,12.621
	c-0.648,0.377-0.649,1.313-0.002,1.689l16.85,9.822c0.302,0.176,0.674,0.176,0.978,0.004l21.896-12.516
	C734.723,155.957,734.729,155.015,734.077,154.636z"/>
<g>
	<path fill="#686868" d="M714.4,139.322l15.598-9.014c0.73-0.424,0.982-1.359,0.561-2.094l0,0c-0.425-0.73-1.361-0.982-2.094-0.559
		l-17.126,9.895"/>
	<path fill="#686868" d="M710.381,138.076l-45.555,26.326c-0.732,0.424-0.983,1.361-0.561,2.094l0,0
		c0.424,0.732,1.361,0.982,2.094,0.559l47.086-27.209"/>
	<path fill="#686868" d="M710.668,136.371l15.596-9.014c0.733-0.424,0.984-1.361,0.561-2.092l0,0
		c-0.424-0.732-1.36-0.984-2.094-0.561l-17.125,9.895"/>
	<path fill="#686868" d="M706.646,135.125l-45.556,26.326c-0.731,0.424-0.983,1.361-0.56,2.094l0,0
		c0.423,0.732,1.359,0.982,2.093,0.559l47.085-27.209"/>
	<path fill="#686868" d="M706.509,134.007l15.597-9.012c0.731-0.424,0.982-1.361,0.559-2.094l0,0
		c-0.423-0.732-1.359-0.982-2.092-0.561l-17.127,9.898"/>
	<path fill="#686868" d="M702.488,132.763l-45.557,26.326c-0.732,0.424-0.982,1.359-0.56,2.092l0,0
		c0.424,0.732,1.36,0.984,2.093,0.563l47.084-27.209"/>
	<path fill="#686868" d="M702.551,131.287l15.598-9.014c0.73-0.422,0.981-1.359,0.56-2.092l0,0c-0.424-0.732-1.36-0.982-2.093-0.559
		l-17.127,9.895"/>
	<path fill="#686868" d="M698.531,130.042l-45.557,26.324c-0.732,0.424-0.982,1.361-0.56,2.094l0,0
		c0.424,0.732,1.36,0.982,2.093,0.561l47.086-27.211"/>
	<path fill="#686868" d="M698.338,128.835l15.598-9.014c0.73-0.424,0.981-1.359,0.56-2.092l0,0c-0.425-0.732-1.36-0.982-2.095-0.561
		l-17.125,9.895"/>
	<path fill="#686868" d="M694.316,127.589l-45.555,26.326c-0.732,0.424-0.982,1.361-0.56,2.094l0,0
		c0.423,0.732,1.36,0.982,2.092,0.561l47.087-27.211"/>
</g>
<path opacity="0.14" fill="#FFFFFF" enable-background="new    " d="M703.083,110.359l-67.138,39.029
	c-2.004,1.164-2.006,4.059-0.004,5.225l52.104,30.372c0.934,0.545,2.085,0.549,3.021,0.014l0.494-0.283l13.592-74.709
	C704.452,109.876,703.718,109.99,703.083,110.359z"/>
<polygon fill="#8BBCE5" points="658.538,74.401 651.059,137.412 665.521,128.835 673.447,65.489 "/>
<polyline fill="#8BBCE5" points="682.393,60.142 675.527,122.9 680.857,119.738 688.047,56.761 "/>
<path fill="#3D5066" d="M642.755,109.251c-0.729,0.422-1.409,1.055-1.989,1.803c0.063-0.455,0.104-0.906,0.104-1.346
	c0-4.062-2.885-5.724-6.408-3.693c-2.488,1.435-4.652,4.341-5.713,7.359c-0.684-0.809-1.859-0.93-3.193-0.162
	c-2.099,1.211-3.816,4.18-3.816,6.6c0,0.193,0.015,0.373,0.035,0.549c-0.012,0.008-0.022,0.014-0.035,0.02
	c-2.303,1.328-4.188,4.586-4.188,7.238c0,2.654,1.885,3.738,4.188,2.414l21.017-11.98c2.099-1.209,3.815-4.178,3.815-6.6
	C646.572,109.033,644.855,108.042,642.755,109.251z"/>
<path fill="#FFFFFF" d="M643.658,109.771c-0.729,0.42-1.409,1.053-1.99,1.801c0.064-0.455,0.104-0.906,0.104-1.346
	c0-4.063-2.883-5.725-6.408-3.693c-2.488,1.434-4.652,4.344-5.713,7.359c-0.683-0.809-1.859-0.93-3.192-0.162
	c-2.099,1.211-3.817,4.18-3.817,6.602c0,0.191,0.016,0.373,0.036,0.547c-0.012,0.008-0.024,0.012-0.036,0.02
	c-2.303,1.326-4.187,4.584-4.187,7.238s1.884,3.74,4.187,2.412l21.018-11.979c2.099-1.211,3.816-4.18,3.816-6.6
	S645.757,108.56,643.658,109.771z"/>
<path fill="#3D5066" d="M621.564,97.553c-0.729,0.42-1.41,1.055-1.99,1.803c0.064-0.455,0.104-0.905,0.104-1.346
	c0-4.063-2.883-5.726-6.408-3.693c-2.488,1.435-4.651,4.343-5.711,7.359c-0.684-0.809-1.861-0.93-3.195-0.162
	c-2.098,1.209-3.816,4.18-3.816,6.601c0,0.191,0.016,0.371,0.036,0.549c-0.013,0.006-0.024,0.012-0.036,0.018
	c-2.302,1.328-4.186,4.586-4.186,7.238c0,2.656,1.884,3.74,4.186,2.414l21.018-11.98c2.099-1.21,3.815-4.181,3.815-6.601
	C625.38,97.334,623.663,96.344,621.564,97.553z"/>
<path fill="#FFFFFF" d="M622.466,98.07c-0.729,0.42-1.409,1.057-1.989,1.803c0.063-0.455,0.104-0.906,0.104-1.346
	c0-4.063-2.883-5.726-6.408-3.693c-2.488,1.436-4.652,4.344-5.713,7.359c-0.684-0.81-1.859-0.93-3.193-0.162
	c-2.099,1.211-3.816,4.18-3.816,6.599c0,0.193,0.015,0.375,0.035,0.549c-0.012,0.008-0.022,0.012-0.035,0.02
	c-2.303,1.326-4.188,4.586-4.188,7.238c0,2.654,1.885,3.74,4.188,2.412l21.016-11.979c2.1-1.21,3.817-4.179,3.817-6.599
	S624.566,96.861,622.466,98.07z"/>
<path fill="#516E8D" d="M627.029,69.665c-0.25-1.029-0.692-1.855-1.293-2.459l2.597-1.223l-1.49-0.764l-2.129-0.826l-0.952,1.735
	c-0.777-0.162-1.652-0.102-2.589,0.175l1.491-1.968l-1.491-0.764l-2.849,1.642v2.544c-1.201,0.865-2.318,1.992-3.293,3.278
	l-0.495-0.797l-1.491-0.764l-1.415,2.321l1.927,1.495c-0.943,1.687-1.632,3.502-1.967,5.273l-2.244,1.294v3.178l2.062-1.188
	c0.169,1.66,0.776,2.919,1.688,3.711l-0.979,1.782l1.49,0.764l0.555-0.084l0.87-1.565c0.976,0.162,2.093,0,3.293-0.519v2.261
	l1.491,0.764l1.356-2.406v-2.448c0.952-0.815,1.841-1.786,2.626-2.863l1.617,1.256l1.492,0.765l-0.454-3.254l-1.259-0.989
	c1.094-2.023,1.828-4.219,2.017-6.287l1.431-0.824l1.49-2.413l-1.49-0.765L627.029,69.665z M619.391,81.264
	c-2.24,1.291-4.072,0.235-4.072-2.347s1.832-5.751,4.072-7.042c2.239-1.291,4.072-0.235,4.072,2.347S621.631,79.973,619.391,81.264z
	"/>
<g>
	<g>
		<path fill="#465F7D" d="M628.52,70.429c-0.248-1.028-0.692-1.855-1.291-2.459l1.104-1.988l-2.129-0.826l-0.952,1.735
			c-0.775-0.162-1.652-0.102-2.588,0.176v-2.732l-2.85,1.642v2.544c-1.201,0.865-2.317,1.992-3.293,3.278l-1.985-1.562l-1.414,2.321
			l1.925,1.496c-0.943,1.687-1.632,3.502-1.967,5.273l-2.245,1.293v3.178l2.062-1.188c0.168,1.66,0.775,2.92,1.688,3.711
			l-0.979,1.782l2.045,0.68l0.871-1.564c0.975,0.161,2.092,0,3.293-0.519v2.26l2.849-1.642v-2.449
			c0.952-0.815,1.841-1.786,2.626-2.863l1.618,1.257l1.036-2.49l-1.258-0.989c1.094-2.023,1.828-4.219,2.018-6.287l1.43-0.824
			v-3.178L628.52,70.429z M620.881,82.028c-2.24,1.291-4.072,0.235-4.072-2.347s1.832-5.751,4.072-7.042s4.073-0.235,4.073,2.347
			S623.121,80.737,620.881,82.028z"/>
	</g>
</g>
<polygon fill="#516E8D" points="609.346,79.857 610.835,80.621 610.836,83.799 609.346,83.035 "/>
<path fill="#516E8D" d="M656.816,42.23c-0.35-1.445-0.974-2.607-1.814-3.455l3.648-1.72l-2.094-1.074l-2.992-1.16l-1.338,2.438
	c-1.09-0.227-2.322-0.143-3.638,0.248l2.095-2.765l-2.095-1.074l-4.004,2.307v3.575c-1.687,1.215-3.257,2.8-4.628,4.606l-0.695-1.12
	l-2.096-1.074l-1.988,3.263l2.707,2.102c-1.326,2.37-2.294,4.922-2.765,7.41l-3.154,1.818v4.467l2.897-1.67
	c0.238,2.333,1.09,4.103,2.373,5.217l-1.375,2.504l2.095,1.074l0.778-0.119l1.222-2.198c1.371,0.227,2.942,0,4.629-0.729v3.177
	l2.097,1.075l1.907-3.382V62.53c1.339-1.146,2.586-2.51,3.69-4.022l2.273,1.765l2.096,1.074l-0.639-4.572l-1.769-1.39
	c1.538-2.843,2.569-5.929,2.834-8.835l2.01-1.159l2.095-3.392l-2.095-1.074L656.816,42.23z M646.083,58.532
	c-3.147,1.815-5.724,0.33-5.724-3.299s2.574-8.082,5.724-9.897c3.147-1.814,5.724-0.33,5.724,3.299
	C651.807,52.264,649.23,56.717,646.083,58.532z"/>
<g>
	<g>
		<path fill="#465F7D" d="M658.913,43.304c-0.351-1.445-0.974-2.606-1.815-3.455l1.555-2.794l-2.992-1.159l-1.338,2.437
			c-1.09-0.226-2.321-0.143-3.637,0.248v-3.839l-4.004,2.307v3.575c-1.687,1.215-3.258,2.8-4.627,4.606l-2.791-2.194l-1.988,3.263
			l2.707,2.102c-1.326,2.37-2.293,4.922-2.766,7.41l-3.156,1.819v4.466l2.896-1.67c0.239,2.333,1.09,4.104,2.373,5.217l-1.375,2.504
			l2.874,0.956l1.222-2.198c1.371,0.227,2.942,0,4.63-0.729v3.178l4.002-2.308v-3.441c1.338-1.146,2.586-2.51,3.691-4.023
			l2.271,1.765l1.459-3.497l-1.77-1.391c1.538-2.843,2.568-5.928,2.835-8.835l2.011-1.159v-4.466L658.913,43.304z M648.178,59.606
			c-3.148,1.814-5.724,0.33-5.724-3.298c0-3.629,2.575-8.083,5.724-9.896c3.148-1.815,5.725-0.331,5.725,3.298
			C653.902,53.338,651.326,57.792,648.178,59.606z"/>
	</g>
</g>
<polygon fill="#516E8D" points="631.964,56.555 634.061,57.63 634.061,62.096 631.964,61.022 "/>
<path fill="#A4B4D6" d="M669.488,39.54v69.868c0,2.48,2.684,4.031,4.832,2.793l63.193-36.423c0.998-0.576,1.612-1.64,1.612-2.792
	V3.117c0-2.48-2.685-4.031-4.832-2.793l-63.192,36.424C670.102,37.323,669.488,38.388,669.488,39.54z"/>
<path fill="#E0E1F1" d="M671.975,40.972v69.434c0,2.48,2.685,4.029,4.832,2.791l63.194-36.421c0.998-0.575,1.613-1.64,1.613-2.792
	V4.549c0-2.48-2.685-4.031-4.832-2.792L673.588,38.18C672.59,38.755,671.975,39.82,671.975,40.972z"/>
<g>
	<path fill="#516E8D" d="M695.275,35.062v20.093c0,0.851,0.92,1.384,1.66,0.958l21.705-12.509c0.342-0.198,0.553-0.563,0.553-0.959
		V22.552c0-0.852-0.922-1.385-1.659-0.959l-21.704,12.51C695.486,34.3,695.275,34.666,695.275,35.062z"/>
</g>
<path fill="#FFFFFF" d="M681.042,80.364L681.042,80.364c0,1.111,1.202,1.806,2.164,1.251l52.042-29.994
	c0.447-0.258,0.723-0.735,0.723-1.251l0,0c0-1.111-1.201-1.805-2.164-1.25l-52.043,29.994
	C681.316,79.372,681.042,79.848,681.042,80.364z"/>
<path fill="#FFFFFF" d="M681.042,87.313L681.042,87.313c0,1.111,1.202,1.806,2.164,1.251l52.042-29.994
	c0.447-0.258,0.723-0.735,0.723-1.251l0,0c0-1.111-1.201-1.805-2.164-1.25l-52.043,29.994
	C681.316,86.319,681.042,86.797,681.042,87.313z"/>
<path fill="#FFFFFF" d="M681.042,94.262L681.042,94.262c0,1.111,1.202,1.807,2.164,1.25l52.042-29.994
	c0.447-0.257,0.723-0.734,0.723-1.25l0,0c0-1.111-1.201-1.805-2.164-1.25l-52.043,29.994
	C681.316,93.27,681.042,93.746,681.042,94.262z"/>
<g>
	<path fill="#C3E0E3" d="M706.971,39.199c-1.74,1.002-3.164,0.183-3.164-1.823c0-2.004,1.424-4.465,3.164-5.467
		c1.738-1.003,3.162-0.183,3.162,1.822S708.709,38.196,706.971,39.199z"/>
	<path fill="#C3E0E3" d="M701.059,48.986v1.027c0,0.715,0.774,1.162,1.395,0.805l11.258-6.488c0.288-0.166,0.465-0.473,0.465-0.805
		l0,0c0-3.218-3.482-5.23-6.271-3.624l-2.393,1.378C702.758,42.868,701.059,45.807,701.059,48.986z"/>
</g>
<text transform="matrix(0.8633 -0.5046 0 1 690.8594 69.8594)" fill="#688FB5" font-family="'BebasNeueBold'" font-size="7.6862">Information</text>
<text transform="matrix(0.8633 -0.5046 0 1 685.1162 79.8145)" fill="#9291C7" font-family="'BebasNeueBold'" font-size="2.7733">name</text>
<text transform="matrix(0.8633 -0.5046 0 1 685.1162 86.8496)" fill="#9291C7" font-family="'BebasNeueBold'" font-size="2.7733">e-mail</text>
<text transform="matrix(0.8633 -0.5046 0 1 685.6934 93.4365)" fill="#9291C7" font-family="'BebasNeueBold'" font-size="2.7733">password</text>
<polygon fill="#688FB5" points="722.919,77.606 722.919,94.219 750.943,78.066 750.943,61.455 "/>
<polygon fill="#465F7D" points="722.919,77.606 721.052,76.473 721.052,93.084 722.919,94.219 "/>
<polygon fill="#465F7D" points="750.943,61.455 722.919,77.606 721.052,76.473 749.076,60.32 "/>
<polygon fill="#688FB5" points="763.01,88.915 763.01,96.707 761.318,97.68 747.799,87.94 747.799,91.836 746.107,92.811 
	742.729,81.121 746.107,76.973 747.799,75.999 747.799,80.146 "/>
<polygon fill="#FFFFFF" points="761.318,89.889 761.318,97.68 746.107,88.915 746.107,92.811 741.038,82.095 746.107,76.973 
	746.107,81.121 "/>
<text transform="matrix(0.8633 -0.5046 0 1 723.8965 87.5386)" fill="#FFFFFF" font-family="'BebasNeueBold'" font-size="7.091" letter-spacing="1">SUBMIT</text>
<path opacity="0.32" fill="#FFFFFF" enable-background="new    " d="M672.445,41.509v66.204c0,2.479,69.578-102.594,69.578-102.594
	c0-2.478-2.684-4.027-4.83-2.789L674.057,38.72C673.061,39.295,672.445,40.358,672.445,41.509z"/>
<path fill="#516E8D" d="M752.516,15.564c-0.729,0.419-1.41,1.055-1.99,1.802c0.064-0.456,0.104-0.908,0.104-1.347
	c0-4.062-2.884-5.724-6.407-3.693c-2.49,1.435-4.654,4.343-5.714,7.36c-0.683-0.81-1.86-0.931-3.192-0.162
	c-2.1,1.209-3.817,4.18-3.817,6.6c0,0.193,0.017,0.374,0.036,0.548c-0.012,0.007-0.023,0.011-0.036,0.019
	c-2.304,1.327-4.187,4.584-4.187,7.238c0,2.655,1.883,3.74,4.187,2.413l21.017-11.979c2.101-1.209,3.817-4.179,3.817-6.599
	C756.332,15.343,754.613,14.354,752.516,15.564z"/>
<path fill="#FFFFFF" d="M753.417,16.082c-0.729,0.42-1.409,1.055-1.987,1.803c0.063-0.457,0.104-0.908,0.104-1.347
	c0-4.063-2.885-5.724-6.408-3.692c-2.488,1.434-4.652,4.343-5.713,7.358c-0.684-0.808-1.86-0.929-3.193-0.162
	c-2.099,1.21-3.816,4.18-3.816,6.6c0,0.193,0.016,0.374,0.037,0.548c-0.014,0.007-0.024,0.012-0.037,0.019
	c-2.303,1.327-4.188,4.584-4.188,7.239c0,2.654,1.885,3.739,4.188,2.413l21.017-11.979c2.101-1.21,3.817-4.18,3.817-6.6
	C757.234,15.861,755.518,14.872,753.417,16.082z"/>
</svg>
