<?xml version="1.0" encoding="utf-8"?>
<!-- Generator: Adobe Illustrator 16.0.0, SVG Export Plug-In . SVG Version: 6.00 Build 0)  -->
<!DOCTYPE svg PUBLIC "-//W3C//DTD SVG 1.1//EN" "http://www.w3.org/Graphics/SVG/1.1/DTD/svg11.dtd">
<svg version="1.1" xmlns="http://www.w3.org/2000/svg" xmlns:xlink="http://www.w3.org/1999/xlink" x="0px" y="0px" width="142.5px"
	 height="200px" viewBox="0 0 142.5 200" enable-background="new 0 0 142.5 200" xml:space="preserve">
<g id="Background">
</g>
<g id="shadow">
	<path fill="#CCCCCC" d="M119.457,178.767h-2.123c1.313-0.801,2.185-2.206,2.185-3.807l0,0c0-2.491-2.108-4.513-4.708-4.513H21.316
		c-2.602,0-4.71,2.021-4.71,4.513l0,0c0,2.49,2.108,4.512,4.71,4.512h5.662c-1.313,0.8-2.184,2.205-2.184,3.808l0,0
		c0,2.027,1.396,3.743,3.321,4.312h-8.839c-2.601,0-4.709,2.02-4.709,4.51l0,0c0,2.493,2.108,4.513,4.709,4.513h89.952
		c2.602,0,4.709-2.02,4.709-4.513l0,0c0-2.027-1.396-3.742-3.319-4.312h8.838c2.602,0,4.71-2.02,4.71-4.51l0,0
		C124.167,180.786,122.059,178.767,119.457,178.767z"/>
</g>
<g id="object">
	<g>
		<polygon fill="#98B9E2" points="59.004,51.494 38.42,61.819 27.346,79.786 22.93,77.795 32.694,54.449 59.812,36.569 		"/>
	</g>
	<polygon id="XMLID_10_" fill="#426362" points="58.215,180.988 57.609,184.253 51.08,186.445 48.725,182.645 52.292,179.917 
		58.82,177.724 	"/>
	<polygon id="XMLID_9_" fill="#353535" points="72.235,99.657 58.719,179.993 52.605,180.225 48.974,124.366 47.257,96.621 	"/>
	<polygon id="XMLID_7_" fill="#353535" points="90.727,98.802 82.041,177.549 76.435,178.067 70.502,117.727 65.797,99.938 	"/>
	<polygon fill="#426362" points="82.468,176.757 76.406,177.318 76.682,180.705 83.021,183.53 85.776,179.864 	"/>
	<polygon fill="#484F5B" points="48.725,101.105 45.959,91.828 48.725,81.303 90.727,82.835 90.727,98.802 	"/>
	<path fill="#98B9E2" d="M93.347,103.423c-0.069,2.265-0.255,4.545-0.588,6.864c-0.129,0.902-0.309,1.87-0.905,2.478
		c-0.943,0.96-2.496,0.538-3.457-0.405c-0.959-0.943-1.548-2.28-2.357-3.393c-2.833-3.896-7.772-4.507-12.189-4.827
		c-3.229-0.235-6.46-0.471-9.69-0.706c-2.947-0.214-5.946-0.424-8.815,0.356c-5.508,1.497-10.486,6.569-16.065,5.414
		c-0.215-0.045,2.88-3.882,3.189-4.174c1.746-1.641,0.874-1.963,1.558-4.626c0.972-3.783,1.512-10.473,1.931-15.768
		c0.762-9.647,2.822-18.128,5.345-27.284c1.253-4.544,2.388-9.167,4.112-13.492c1.351-3.388,3.772-8.35,6.748-9.918
		c1.007-0.53,2.125-0.611,3.216-0.685c3.312-0.223,6.623-0.445,9.933-0.668c1.207-0.08,2.463-0.151,3.571,0.422
		c1.664,0.861,2.625,2.952,3.466,4.904c3.774,8.758,6.233,18.252,7.672,28.077c1.005,6.871,1.31,13.891,2.21,20.671
		C92.986,92.349,93.52,97.833,93.347,103.423z"/>
	<path fill="#FFFFF1" d="M70.244,56.914c-0.069,2.53,0.194,5.049,0.456,7.549c0.746,7.127,1.886,14.181,3.037,21.217
		c0.585,3.583,1.183,7.164,1.755,10.749c0.265,1.662,0.317,3.84,0.858,5.385c0.074,0.207,1.746,2.328,1.045,2.543
		c-5.507,1.702-11.279-3.545-16.8-1.911c-2.798,0.83-5.625,3.381-8.286,1.922c-0.325-0.179-0.651-0.438-0.811-0.848
		c-0.227-0.585-0.062-1.282,0.107-1.894c0.843-3.063,1.884-5.938,1.948-9.204c0.064-3.341,0.25-6.718,0.646-10.018
		c0.698-5.831,2.192-11.346,3.674-16.809c2.738-10.098,5.476-20.192,8.214-30.289c0.146-0.54,0.301-1.099,0.58-1.493
		c0.334-0.472,0.796-0.641,1.239-0.78c2.137-0.667,4.552-1.25,6.716-0.817c0.585,3.112-1.325,8.62-2.021,11.556
		C71.589,48.045,70.37,52.293,70.244,56.914z"/>
	<g>
		<circle fill="#52617D" cx="23.131" cy="110.566" r="20.133"/>
	</g>
	<g>
		<circle fill="#FFFFFF" cx="23.131" cy="110.566" r="17.448"/>
	</g>
	<g opacity="0.07">
		<g>
			<path fill="#2E4661" d="M35.105,97.988c2.576,3.042,4.131,6.976,4.131,11.274c0,9.636-7.812,17.449-17.448,17.449
				c-4.636,0-8.85-1.81-11.975-4.76c3.201,3.778,7.979,6.175,13.317,6.175c9.637,0,17.448-7.812,17.448-17.448
				C40.579,105.679,38.476,101.17,35.105,97.988z"/>
		</g>
	</g>
	<polygon fill="#999999" points="19.661,109.28 25.354,113.125 14.802,122.613 	"/>
	<polygon fill="#6596C1" points="19.909,108.913 25.603,112.76 30.461,99.425 	"/>
	<g>
		<g>
			<circle fill="#7995B2" cx="39.152" cy="110.657" r="0.713"/>
			<circle fill="#7995B2" cx="7.495" cy="110.657" r="0.713"/>
		</g>
		<g>
			<circle fill="#7995B2" cx="23.316" cy="94.829" r="0.713"/>
			<circle fill="#7995B2" cx="23.331" cy="126.486" r="0.712"/>
		</g>
	</g>
	<g>
		<path fill="#52617D" d="M27.096,91.479h-6.442v-1.184c0-1.637,1.328-2.965,2.965-2.965h0.513c1.638,0,2.965,1.328,2.965,2.965
			V91.479z"/>
		<path fill="#52617D" d="M29.509,83.866c-0.727-1.566-2.313-2.52-4.021-2.554c-0.975-0.021-1.952,0-2.927,0
			c-1.408,0-2.739,0.449-3.672,1.551c-0.939,1.108-1.07,2.381-1.07,3.766c0,1.201-0.184,2.604,1.017,3.335
			c0.704,0.429,1.586,0.321,2.377,0.321c2.162,0,4.325,0,6.487,0c0.026,0.002,0.055,0.002,0.084,0c0.043,0,0.084-0.003,0.122-0.01
			c0.813-0.083,1.519-0.524,1.848-1.301c0.201-0.477,0.177-0.968,0.177-1.474C29.931,86.27,30.041,85.013,29.509,83.866z
			 M27.784,88.959c-1.543,0-3.087,0-4.63,0c-0.89,0-1.779,0-2.669,0c-0.637,0-1.271-0.032-1.338-0.854
			c-0.063-0.769-0.016-1.576,0-2.347c0.028-1.438,0.979-2.702,2.397-3.039c0.799-0.189,1.713-0.082,2.527-0.082
			c0.93,0,1.931-0.108,2.79,0.314c1.313,0.647,1.742,1.905,1.742,3.271C28.604,87.009,28.969,88.891,27.784,88.959z"/>
	</g>
	<polygon fill="#EBCEB1" points="26.682,78.376 23.86,76.937 20.697,81.636 22.253,84.615 25.153,84.637 25.211,81.995 
		25.739,82.265 25.964,83.107 26.797,82.803 	"/>
	<g>
		<polygon fill="#98B9E2" points="72.809,42.726 85.213,71.819 84.187,93.098 89.002,93.959 94.187,68.945 81.802,38.586 		"/>
	</g>
	<polygon fill="#EBCEB1" points="87.649,92.24 90.727,93.099 89.868,98.752 86.677,99.902 84.506,97.937 86.268,95.936 
		85.691,95.774 84.948,96.246 84.538,95.452 	"/>
	<g>
		<path fill="#768EB0" d="M97.964,128.312c-9.188,0-17.825-3.579-24.322-10.076c-6.497-6.495-10.074-15.132-10.074-24.319
			c0-9.188,3.577-17.827,10.074-24.323c6.497-6.496,15.134-10.074,24.322-10.074s17.825,3.579,24.321,10.074
			c6.496,6.497,10.073,15.135,10.073,24.323c0,9.188-3.577,17.824-10.073,24.319C115.789,124.732,107.152,128.312,97.964,128.312z
			 M97.964,68.298c-14.126,0-25.617,11.492-25.617,25.618c0,14.124,11.491,25.617,25.617,25.617s25.618-11.493,25.618-25.617
			C123.582,79.79,112.09,68.298,97.964,68.298z"/>
	</g>
	<polygon fill="#52617D" points="139.271,72.548 131.524,64.799 98.584,97.39 85.565,84.566 77.816,92.314 98.492,112.795 
		98.906,112.383 98.996,112.474 	"/>
	<path fill="#D2C3A8" d="M68.607,33.446c0.09,0.08,0.195,0.143,0.319,0.182c0.24,0.08,0.506,0.052,0.76,0.021
		c1.032-0.122,2.064-0.244,3.098-0.366c-0.342-3.162,1.51-3.878,3.31-5.914c1.828-2.062,1.265-4.843,1.16-7.367
		c-0.029-0.702-0.062-1.428-0.359-2.064c-0.523-1.12-1.735-1.737-2.915-2.104c-3.008-0.934-6.447-0.704-9.099,1
		c-0.705,0.454-1.361,1.023-1.746,1.771c-0.588,1.152-0.438,2.524-0.271,3.808c0.251,1.97,0.834,3.906,1.949,5.568
		c1.039,1.547,3.016,2.289,3.245,4.146C68.117,32.606,68.262,33.146,68.607,33.446z"/>
	<g>
		<path fill="#3C3732" d="M62.948,20.122c0.176,0.793,0.546,1.599,0.353,2.39c-1.264-0.43-2.086-1.721-2.534-3.033
			c-0.204-0.595-0.348-1.225-0.3-1.855c0.051-0.631,0.322-1.262,0.821-1.618c0.692-0.497,1.938-0.3,2.134,0.598
			C63.625,17.513,62.683,18.925,62.948,20.122z"/>
		<path fill="#3C3732" d="M56.244,13.14c0.03-0.954,0.391-1.803,1.244-2.379c0.734-0.495,1.58-0.905,2.025-1.693
			c0.348-0.613,0.396-1.369,0.738-1.981c0.622-1.111,1.969-1.438,3.142-1.815c2.934-0.94,4.512-2.029,7.615-0.822
			c2.208,0.855,5.062,0.971,7.112,2.221c0.853,0.523,1.583,1.361,2.179,2.295c2.071,3.238,2.57,7.789,1.222,11.165
			c-0.303,0.756-0.686,1.452-1.099,2.117c-0.817,1.332-1.695,2.969-3.146,3.62c-0.089-0.629-0.558-0.974-0.703-1.59
			c-0.106-0.444-0.07-0.908-0.049-1.365c0.089-1.775,0.634-4.582-1.139-5.462c-2.243-1.114-6.445-0.109-8.605,0.833
			c-1.909,0.833-5.131,1.919-7.171,1.024C57.717,18.479,56.178,15.172,56.244,13.14z"/>
	</g>
</g>
</svg>
