<?xml version="1.0" encoding="utf-8"?>
<!-- Generator: Adobe Illustrator 16.0.0, SVG Export Plug-In . SVG Version: 6.00 Build 0)  -->
<!DOCTYPE svg PUBLIC "-//W3C//DTD SVG 1.1//EN" "http://www.w3.org/Graphics/SVG/1.1/DTD/svg11.dtd">
<svg version="1.1" id="Capa_1" xmlns="http://www.w3.org/2000/svg" xmlns:xlink="http://www.w3.org/1999/xlink" x="0px" y="0px"
	 width="162px" height="200px" viewBox="0 0 162 200" enable-background="new 0 0 162 200" xml:space="preserve">
<path fill="#8CBBE4" d="M5.634,181.778c0,0.333,0.271,0.603,0.602,0.603h48.306c0.334,0,0.604-0.27,0.604-0.603v-22.347
	c0-0.332-0.271-0.602-0.604-0.602H6.236c-0.332,0-0.602,0.27-0.602,0.602V181.778z"/>
<path fill="#FFFFFF" d="M15.98,170.609c0,0.297,0.243,0.537,0.54,0.537h6.649c0.296,0,0.539-0.24,0.539-0.537v-5.93
	c0-0.298-0.243-0.538-0.539-0.538h-6.649c-0.297,0-0.54,0.24-0.54,0.538V170.609z"/>
<g>
	<g>
		<path fill="#FFFFFF" d="M42.012,174.671c0,0.297,0.242,0.538,0.54,0.538h8.121c0.298,0,0.539-0.241,0.539-0.538l0,0
			c0-0.299-0.241-0.541-0.539-0.541h-8.121C42.254,174.13,42.012,174.372,42.012,174.671L42.012,174.671z"/>
		<path fill="#FFFFFF" d="M42.012,176.748c0,0.298,0.242,0.541,0.54,0.541h8.121c0.298,0,0.539-0.243,0.539-0.541l0,0
			c0-0.298-0.241-0.54-0.539-0.54h-8.121C42.254,176.208,42.012,176.45,42.012,176.748L42.012,176.748z"/>
		<path fill="#FFFFFF" d="M42.012,178.826c0,0.298,0.242,0.54,0.54,0.54h8.121c0.298,0,0.539-0.242,0.539-0.54l0,0
			c0-0.298-0.241-0.54-0.539-0.54h-8.121C42.254,178.286,42.012,178.528,42.012,178.826L42.012,178.826z"/>
	</g>
</g>
<rect x="26.175" y="158.83" fill="#6B90B4" width="8.431" height="9.233"/>
<path opacity="0.5" fill="#FFFFFF" d="M48.964,164.285c-2.069-2.043-5.661-1.083-5.61-2.869c0.046-1.538,9.185-0.756,9.185-0.756
	c0.186,0,0.338,0.152,0.338,0.339c0,0,0.791,8.876-0.278,9.281C51.433,170.723,50.995,166.29,48.964,164.285z"/>
<path fill="#8CBBE4" d="M10.585,158.428c0,0.334,0.27,0.603,0.602,0.603h38.405c0.333,0,0.603-0.269,0.603-0.603V111.19
	c0-0.333-0.27-0.602-0.603-0.602H11.187c-0.332,0-0.602,0.269-0.602,0.602V158.428z"/>
<g>
	<path fill="#FFFFFF" d="M13.819,155.738c0,0.409,0.332,0.74,0.743,0.74h9.143c0.41,0,0.741-0.331,0.741-0.74v-8.155
		c0-0.41-0.331-0.741-0.741-0.741h-9.143c-0.411,0-0.743,0.331-0.743,0.741V155.738z"/>
	<g>
		<g>
			<path fill="#FFFFFF" d="M36.523,149.74c0,0.336,0.273,0.611,0.612,0.611h9.204c0.337,0,0.611-0.275,0.611-0.611l0,0
				c0-0.341-0.274-0.613-0.611-0.613h-9.204C36.796,149.127,36.523,149.399,36.523,149.74L36.523,149.74z"/>
			<path fill="#FFFFFF" d="M36.523,152.093c0,0.34,0.273,0.612,0.612,0.612h9.204c0.337,0,0.611-0.272,0.611-0.612l0,0
				c0-0.337-0.274-0.613-0.611-0.613h-9.204C36.796,151.479,36.523,151.756,36.523,152.093L36.523,152.093z"/>
			<path fill="#FFFFFF" d="M36.523,154.449c0,0.338,0.273,0.611,0.612,0.611h9.204c0.337,0,0.611-0.273,0.611-0.611l0,0
				c0-0.339-0.274-0.613-0.611-0.613h-9.204C36.796,153.836,36.523,154.11,36.523,154.449L36.523,154.449z"/>
		</g>
	</g>
</g>
<rect x="25.69" y="110.573" fill="#6B90B4" width="8.431" height="10.438"/>
<path opacity="0.5" fill="#FFFFFF" d="M43.218,117.239c-2.354-2.323-6.44-1.233-6.382-3.263c0.051-1.75,10.448-0.859,10.448-0.859
	c0.214,0,0.385,0.172,0.385,0.383c0,0,0.9,10.099-0.317,10.561C46.026,124.561,45.53,119.521,43.218,117.239z"/>
<path opacity="0.5" fill="#FFFFFF" d="M11.789,176.462c2.354,2.323,6.439,1.233,6.381,3.264c-0.051,1.749-10.448,0.858-10.448,0.858
	c-0.214,0-0.385-0.171-0.385-0.383c0,0-0.899-10.099,0.317-10.561C8.98,169.141,9.477,174.181,11.789,176.462z"/>
<rect x="56.607" y="82.478" fill="#4A627F" width="21.736" height="6.18"/>
<polygon fill="#4A627F" points="56.585,182.338 56.585,82.463 63.28,82.463 63.292,189.033 3,189.033 3,182.338 "/>
<circle fill="#6B90B4" cx="59.556" cy="184.038" r="14.238"/>
<circle fill="#FFFFFF" cx="59.556" cy="184.038" r="7.767"/>
<path fill="#A6B2DB" d="M49.225,184.038c0,5.706,4.625,10.33,10.332,10.33c5.705,0,10.33-4.624,10.33-10.33
	s-4.625-10.332-10.33-10.332C53.85,173.706,49.225,178.332,49.225,184.038z M53.202,184.038c0-3.51,2.844-6.355,6.355-6.355
	c3.509,0,6.354,2.846,6.354,6.355c0,3.511-2.845,6.355-6.354,6.355C56.046,190.394,53.202,187.549,53.202,184.038z"/>
<g>
	<polygon fill="#98B9E2" points="106.569,52.327 84.647,63.322 72.853,82.458 68.15,80.337 78.548,55.474 107.43,36.432 	"/>
</g>
<polygon id="XMLID_9_" fill="#353635" points="120.659,103.62 106.266,189.178 99.755,189.425 95.888,129.936 94.059,100.387 "/>
<polygon id="XMLID_7_" fill="#353635" points="140.354,102.709 131.104,186.575 125.134,187.126 118.814,122.864 113.804,103.92 "/>
<polygon fill="#49505C" points="95.622,105.163 92.676,95.282 95.622,84.073 140.354,85.705 140.354,102.709 "/>
<path fill="#98B9E2" d="M143.145,107.631c-0.074,2.412-0.271,4.84-0.627,7.311c-0.137,0.961-0.328,1.991-0.964,2.64
	c-1.004,1.021-2.658,0.572-3.682-0.433c-1.021-1.004-1.647-2.428-2.51-3.613c-3.017-4.149-8.277-4.8-12.98-5.14
	c-3.439-0.252-6.881-0.503-10.32-0.753c-3.139-0.227-6.333-0.452-9.389,0.379c-5.866,1.595-11.168,6.997-17.108,5.767
	c-0.229-0.048,3.067-4.135,3.396-4.446c1.859-1.747,0.93-2.091,1.658-4.927c1.036-4.028,1.611-11.153,2.057-16.792
	c0.811-10.273,3.005-19.306,5.693-29.057c1.333-4.839,2.542-9.763,4.379-14.369c1.439-3.608,4.017-8.893,7.187-10.563
	c1.072-0.564,2.263-0.65,3.425-0.729c3.527-0.237,7.054-0.474,10.578-0.712c1.285-0.085,2.623-0.16,3.804,0.45
	c1.772,0.917,2.796,3.144,3.69,5.223c4.021,9.327,6.639,19.438,8.171,29.902c1.071,7.317,1.396,14.793,2.354,22.015
	C142.76,95.838,143.328,101.678,143.145,107.631z"/>
<path fill="#FFFEF2" d="M118.54,58.099c-0.074,2.694,0.206,5.377,0.485,8.04c0.794,7.59,2.009,15.103,3.233,22.596
	c0.624,3.816,1.261,7.629,1.87,11.448c0.282,1.769,0.337,4.088,0.913,5.735c0.079,0.221,1.859,2.479,1.113,2.708
	c-5.864,1.812-12.012-3.775-17.891-2.036c-2.981,0.884-5.991,3.602-8.826,2.048c-0.345-0.19-0.692-0.467-0.863-0.904
	c-0.241-0.621-0.066-1.364,0.114-2.017c0.898-3.261,2.006-6.324,2.074-9.802c0.068-3.558,0.266-7.154,0.688-10.669
	c0.742-6.209,2.334-12.083,3.912-17.901c2.917-10.755,5.833-21.505,8.748-32.258c0.155-0.575,0.321-1.171,0.618-1.591
	c0.355-0.502,0.848-0.683,1.319-0.83c2.275-0.71,4.848-1.331,7.152-0.871c0.623,3.315-1.411,9.18-2.151,12.307
	C119.972,48.653,118.674,53.178,118.54,58.099z"/>
<polygon fill="#EBCEB2" points="72.146,80.956 69.14,79.423 65.772,84.428 67.429,87.601 70.517,87.624 70.58,84.811 71.141,85.098 
	71.381,85.995 72.269,85.671 "/>
<g>
	<polygon fill="#98B9E2" points="121.271,42.989 134.481,73.973 133.39,96.634 138.517,97.552 144.039,70.912 130.849,38.58 	"/>
</g>
<path fill="#D2C3A8" d="M116.797,33.105c0.096,0.085,0.207,0.152,0.339,0.194c0.256,0.085,0.539,0.056,0.81,0.022
	c1.099-0.13,2.198-0.26,3.3-0.39c-0.365-3.368,1.607-4.13,3.524-6.298c1.947-2.196,1.348-5.158,1.235-7.846
	c-0.031-0.748-0.066-1.521-0.382-2.198c-0.557-1.193-1.848-1.85-3.104-2.241c-3.204-0.995-6.867-0.75-9.691,1.065
	c-0.751,0.483-1.45,1.089-1.859,1.886c-0.627,1.227-0.467,2.688-0.288,4.056c0.267,2.098,0.888,4.16,2.074,5.93
	c1.106,1.647,3.213,2.438,3.457,4.416C116.274,32.211,116.429,32.786,116.797,33.105z"/>
<g>
	<path fill="#3D3833" d="M110.77,18.916c0.188,0.844,0.582,1.703,0.376,2.545c-1.347-0.458-2.222-1.833-2.698-3.23
		c-0.219-0.634-0.371-1.305-0.32-1.976c0.054-0.672,0.344-1.344,0.875-1.723c0.737-0.529,2.064-0.319,2.272,0.637
		C111.49,16.137,110.488,17.641,110.77,18.916z"/>
	<path fill="#3D3833" d="M103.63,11.479c0.031-1.016,0.416-1.92,1.325-2.534c0.782-0.527,1.683-0.963,2.157-1.803
		c0.37-0.652,0.421-1.457,0.785-2.109c0.662-1.183,2.098-1.531,3.346-1.933c3.125-1.001,4.805-2.161,8.11-0.875
		c2.352,0.911,5.392,1.034,7.574,2.365c0.908,0.557,1.686,1.45,2.32,2.444c2.206,3.449,2.737,8.295,1.302,11.891
		c-0.323,0.806-0.73,1.547-1.171,2.255c-0.869,1.419-1.806,3.162-3.351,3.855c-0.094-0.67-0.594-1.037-0.748-1.693
		c-0.113-0.473-0.075-0.967-0.053-1.454c0.096-1.89,0.676-4.88-1.213-5.816c-2.388-1.187-6.864-0.117-9.165,0.887
		c-2.032,0.888-5.464,2.044-7.636,1.091C105.198,17.166,103.559,13.644,103.63,11.479z"/>
</g>
<polygon id="XMLID_1_" fill="#767778" points="106.044,190.567 105.398,194.045 98.445,196.379 95.937,192.331 99.736,189.427 
	106.688,187.092 "/>
<polygon fill="#767778" points="131.546,186.062 125.09,186.659 125.383,190.266 132.135,193.273 135.068,189.37 "/>
<path fill="#FFFFFF" d="M11.187,110.589h4.389v0.15c0,6.608-0.054,26.263,0.203,29.469c0.187,2.308,0.312,4.676,1.272,6.815
	c0.853,1.902,2.781,3.287,4.838,3.586c3.098,0.453,22.017,0.188,28.306,0.174v7.645c0,0.334-0.27,0.603-0.603,0.603H11.187
	c-0.332,0-0.602-0.269-0.602-0.603V111.19C10.585,110.857,10.855,110.589,11.187,110.589z"/>
<g>
	<path fill="#8E8D8D" d="M157.043,155.04c0,0.521-0.422,0.944-0.943,0.944h-38.117c-0.52,0-0.944-0.424-0.944-0.944v-46.936
		c0-0.522,0.425-0.948,0.944-0.948H156.1c0.521,0,0.943,0.426,0.943,0.948V155.04z"/>
	<rect x="119.62" y="109.758" fill="#D6D6D6" width="34.526" height="43.627"/>
	<path fill="#353635" d="M129.273,100.387v10.18h15.68v-10.18H129.273z M142.938,108.724h-11.65v-6.659h11.65V108.724z"/>
	<rect x="127.477" y="108.285" fill="#A6B2DB" width="19.271" height="4.065"/>
	<path fill="#8E8D8D" d="M130.026,122.305c0,0.099-0.08,0.179-0.182,0.179h-5.94c-0.098,0-0.179-0.08-0.179-0.179v-5.76
		c0-0.1,0.081-0.182,0.179-0.182h5.94c0.102,0,0.182,0.082,0.182,0.182V122.305z"/>
	<g>
		<path fill="#6B90B4" d="M150.777,118.016c0,0.413-0.383,0.748-0.857,0.748h-15.592c-0.473,0-0.857-0.335-0.857-0.748l0,0
			c0-0.413,0.385-0.747,0.857-0.747h15.592C150.395,117.269,150.777,117.603,150.777,118.016L150.777,118.016z"/>
		<path fill="#6B90B4" d="M150.777,120.833c0,0.412-0.383,0.748-0.857,0.748h-15.592c-0.473,0-0.857-0.336-0.857-0.748l0,0
			c0-0.413,0.385-0.748,0.857-0.748h15.592C150.395,120.085,150.777,120.42,150.777,120.833L150.777,120.833z"/>
	</g>
	<path fill="#8E8D8D" d="M130.026,131.519c0,0.1-0.08,0.179-0.182,0.179h-5.94c-0.098,0-0.179-0.079-0.179-0.179v-5.76
		c0-0.1,0.081-0.181,0.179-0.181h5.94c0.102,0,0.182,0.081,0.182,0.181V131.519z"/>
	<g>
		<path fill="#6B90B4" d="M150.777,127.229c0,0.413-0.383,0.746-0.857,0.746h-15.592c-0.473,0-0.857-0.333-0.857-0.746l0,0
			c0-0.414,0.385-0.748,0.857-0.748h15.592C150.395,126.481,150.777,126.815,150.777,127.229L150.777,127.229z"/>
		<path fill="#6B90B4" d="M150.777,130.046c0,0.414-0.383,0.748-0.857,0.748h-15.592c-0.473,0-0.857-0.334-0.857-0.748l0,0
			c0-0.412,0.385-0.747,0.857-0.747h15.592C150.395,129.299,150.777,129.634,150.777,130.046L150.777,130.046z"/>
	</g>
	<path fill="#8E8D8D" d="M130.026,140.732c0,0.099-0.08,0.181-0.182,0.181h-5.94c-0.098,0-0.179-0.082-0.179-0.181v-5.76
		c0-0.102,0.081-0.182,0.179-0.182h5.94c0.102,0,0.182,0.08,0.182,0.182V140.732z"/>
	<g>
		<path fill="#6B90B4" d="M150.777,136.443c0,0.412-0.383,0.747-0.857,0.747h-15.592c-0.473,0-0.857-0.335-0.857-0.747l0,0
			c0-0.413,0.385-0.747,0.857-0.747h15.592C150.395,135.696,150.777,136.03,150.777,136.443L150.777,136.443z"/>
		<path fill="#6B90B4" d="M150.777,139.262c0,0.41-0.383,0.746-0.857,0.746h-15.592c-0.473,0-0.857-0.336-0.857-0.746l0,0
			c0-0.414,0.385-0.748,0.857-0.748h15.592C150.395,138.514,150.777,138.848,150.777,139.262L150.777,139.262z"/>
	</g>
	<path fill="#8E8D8D" d="M130.026,149.944c0,0.102-0.08,0.181-0.182,0.181h-5.94c-0.098,0-0.179-0.079-0.179-0.181v-5.76
		c0-0.099,0.081-0.18,0.179-0.18h5.94c0.102,0,0.182,0.081,0.182,0.18V149.944z"/>
	<g>
		<path fill="#6B90B4" d="M150.777,145.659c0,0.41-0.383,0.746-0.857,0.746h-15.592c-0.473,0-0.857-0.336-0.857-0.746l0,0
			c0-0.414,0.385-0.75,0.857-0.75h15.592C150.395,144.909,150.777,145.245,150.777,145.659L150.777,145.659z"/>
		<path fill="#6B90B4" d="M150.777,148.473c0,0.414-0.383,0.748-0.857,0.748h-15.592c-0.473,0-0.857-0.334-0.857-0.748l0,0
			c0-0.41,0.385-0.746,0.857-0.746h15.592C150.395,147.727,150.777,148.063,150.777,148.473L150.777,148.473z"/>
	</g>
	<path fill="#E4D0DA" d="M156.1,107.156h-5.987c0.555,2.563,0.846,5.189,0.846,7.838c0,9.823-3.952,19.353-10.894,26.294
		c-6.17,6.17-14.381,9.973-23.026,10.742v3.01c0,0.521,0.425,0.944,0.944,0.944H156.1c0.521,0,0.943-0.424,0.943-0.944v-46.936
		C157.043,107.582,156.621,107.156,156.1,107.156z"/>
	<path fill="#FFFFFF" d="M125.285,115.558c2.32-2.291,6.354-1.213,6.295-3.217c-0.05-1.727-10.305-0.85-10.305-0.85
		c-0.211,0-0.379,0.17-0.379,0.38c0,0-0.889,9.963,0.313,10.415C122.516,122.781,123.005,117.81,125.285,115.558z"/>
</g>
<polygon fill="#EBCEB2" points="137.075,95.721 140.354,96.637 139.439,102.656 136.041,103.881 133.729,101.788 135.604,99.657 
	134.991,99.484 134.199,99.988 133.763,99.142 "/>
</svg>
