<?xml version="1.0" encoding="utf-8"?>
<!-- Generator: Adobe Illustrator 16.0.0, SVG Export Plug-In . SVG Version: 6.00 Build 0)  -->
<!DOCTYPE svg PUBLIC "-//W3C//DTD SVG 1.1//EN" "http://www.w3.org/Graphics/SVG/1.1/DTD/svg11.dtd">
<svg version="1.1" id="Слой_1" xmlns="http://www.w3.org/2000/svg" xmlns:xlink="http://www.w3.org/1999/xlink" x="0px" y="0px"
	 width="135.414px" height="200px" viewBox="0 0 135.414 200" enable-background="new 0 0 135.414 200" xml:space="preserve">
<g>
	<circle fill="#F6B225" cx="119.59" cy="81.397" r="2.673"/>
	<path fill="#455E7C" d="M131.961,24.898v171.781H3.305V24.898c0-4.493,3.648-8.133,8.144-8.133h112.373
		C128.315,16.765,131.961,20.405,131.961,24.898z"/>
	<path fill="#3B5268" d="M131.961,24.898v171.781h-6.062V30.151c0-4.494-3.647-8.135-8.142-8.135H5.384
		c-0.552,0-1.093,0.055-1.608,0.161c1.118-3.158,4.136-5.411,7.673-5.411h112.373C128.315,16.765,131.961,20.405,131.961,24.898z"/>
	<rect x="13.65" y="29.461" fill="#FFFFFF" width="107.969" height="149.738"/>
	<rect x="17.27" y="33.182" opacity="0.1822" fill="#DBDDDC" enable-background="new    " width="100.73" height="54.714"/>
	
		<rect x="17.15" y="32.962" fill="none" stroke="#DBDDDC" stroke-width="1.0706" stroke-miterlimit="10" width="100.968" height="142.735"/>
	<path fill="#E6E6E5" d="M96.356,15.952v11.936H38.91V15.952c0-2.947,2.388-5.328,5.327-5.328H91.03
		C93.969,10.624,96.356,13.006,96.356,15.952z"/>
	<circle fill="#8BBCE5" cx="67.633" cy="9.634" r="6.463"/>
	<circle fill="#E2E1F1" cx="67.635" cy="9.634" r="2.697"/>
	<path fill="#A3B3D6" d="M96.356,18.202v9.688H38.91V17.783c0.805,0.412,1.611,0.924,2.101,1.101
		c1.89,0.677,3.856,1.181,5.822,1.573c4.441,0.868,8.982,1.047,13.499,1.226c5.899,0.228,11.993,0.177,17.937-0.412
		C84.387,20.662,90.291,19.073,96.356,18.202z"/>
	<path opacity="0.5" fill="#455E7C" enable-background="new    " d="M104.324,31.662H31.271c-1.547,0-2.797-1.253-2.797-2.797
		v-0.394c0-1.544,1.25-2.795,2.797-2.795h73.053c1.541,0,2.795,1.251,2.795,2.795v0.394
		C107.119,30.408,105.865,31.662,104.324,31.662z"/>
	<path fill="#DBDDDC" d="M73.847,80.789H31.413c-0.41,0-0.743-0.333-0.743-0.745v-0.105c0-0.409,0.333-0.743,0.743-0.743h42.434
		c0.413,0,0.742,0.333,0.742,0.743v0.105C74.589,80.456,74.26,80.789,73.847,80.789z"/>
	<path fill="#DBDDDC" d="M73.847,84.824H31.413c-0.41,0-0.743-0.333-0.743-0.742v-0.104c0-0.412,0.333-0.743,0.743-0.743h42.434
		c0.413,0,0.742,0.331,0.742,0.743v0.104C74.589,84.492,74.26,84.824,73.847,84.824z"/>
	<path fill="#DBDDDC" d="M73.847,88.936H31.413c-0.41,0-0.743-0.334-0.743-0.743v-0.104c0-0.412,0.333-0.744,0.743-0.744h42.434
		c0.413,0,0.742,0.332,0.742,0.744v0.104C74.589,88.602,74.26,88.936,73.847,88.936z"/>
	<path fill="#DBDDDC" d="M103.343,117.104H60.909c-0.409,0-0.743-0.335-0.743-0.745v-0.104c0-0.409,0.333-0.743,0.743-0.743h42.434
		c0.412,0,0.742,0.334,0.742,0.743v0.104C104.085,116.769,103.755,117.104,103.343,117.104z"/>
	<path fill="#DBDDDC" d="M103.343,121.139H60.909c-0.409,0-0.743-0.333-0.743-0.742v-0.104c0-0.411,0.333-0.744,0.743-0.744h42.434
		c0.412,0,0.742,0.333,0.742,0.744v0.104C104.085,120.806,103.755,121.139,103.343,121.139z"/>
	<path fill="#DBDDDC" d="M103.343,125.249H60.909c-0.409,0-0.743-0.333-0.743-0.741v-0.104c0-0.412,0.333-0.743,0.743-0.743h42.434
		c0.412,0,0.742,0.331,0.742,0.743v0.104C104.085,124.916,103.755,125.249,103.343,125.249z"/>
	<path fill="#DBDDDC" d="M73.65,150.603H31.215c-0.409,0-0.743-0.335-0.743-0.746v-0.104c0-0.41,0.334-0.743,0.743-0.743H73.65
		c0.412,0,0.741,0.333,0.741,0.743v0.104C74.392,150.268,74.063,150.603,73.65,150.603z"/>
	<path fill="#DBDDDC" d="M73.65,154.637H31.215c-0.409,0-0.743-0.332-0.743-0.742v-0.104c0-0.411,0.334-0.743,0.743-0.743H73.65
		c0.412,0,0.741,0.332,0.741,0.743v0.104C74.392,154.305,74.063,154.637,73.65,154.637z"/>
	<path fill="#DBDDDC" d="M73.65,158.748H31.215c-0.409,0-0.743-0.333-0.743-0.742v-0.104c0-0.412,0.334-0.742,0.743-0.742H73.65
		c0.412,0,0.741,0.33,0.741,0.742v0.104C74.392,158.415,74.063,158.748,73.65,158.748z"/>
	<g>
		<path fill="#939393" d="M111.624,86.946c0,8.307-6.712,15.376-15.578,15.262c-8.266-0.168-14.954-6.916-14.954-15.262
			c0-8.432,6.835-15.265,15.265-15.265C104.789,71.681,111.624,78.514,111.624,86.946z"/>
		<rect x="95.315" y="87.799" fill="#E2BE6D" width="2.461" height="2.151"/>
		<path fill="#A3B3D6" d="M100.873,101.527c-2.881,0.948-6.531,0.82-8.644,0.106l0.924-3.728h6.82L100.873,101.527z"/>
		<path fill="#F7D789" d="M97.13,88.272h-1.18c-2.52,0-4.564-2.044-4.564-4.565v-4.794h10.311v4.794
			C101.696,86.228,99.652,88.272,97.13,88.272z"/>
		<rect x="93.411" y="81.978" fill="#15151E" width="1.582" height="0.288"/>
		<rect x="98.07" y="81.978" fill="#15151E" width="1.582" height="0.288"/>
		<ellipse fill="#FFB18A" cx="94.124" cy="84.413" rx="0.889" ry="0.426"/>
		<ellipse fill="#FFB18A" cx="98.975" cy="84.399" rx="0.888" ry="0.426"/>
		<g>
			<path fill="#FFE1D9" d="M95.639,86.605l0.106-0.216c0.34,0.167,0.724,0.198,1.052,0.083c0.343-0.12,0.621-0.408,0.706-0.735
				l0.234,0.061C97.52,86.62,96.531,87.045,95.639,86.605z"/>
		</g>
		<g>
			<path fill="#CEA657" d="M95.834,84.795l0.168-0.136c0.181,0.137,0.422,0.214,0.648,0.211c0.239-0.004,0.473-0.102,0.591-0.249
				l0.204,0.102C97.119,85.122,96.351,85.189,95.834,84.795z"/>
		</g>
		<path fill="#15151E" d="M101.735,78.956c0-1.185-0.961-2.147-2.147-2.147h-6.046c-2.137,0-2.178,2.276-2.178,2.276l0.021,2.942
			h0.758V80.63h5.515l0.011-1.732l1.2,1.732h2.088v1.54h0.759L101.735,78.956z"/>
		<path fill="#BCD9E2" d="M103.594,94.784c-0.578-1.516-1.335-3.036-2.076-4.688c-0.45-0.977-1.551-0.976-1.551-0.976l-2.054,0.001
			c-0.343,0.744-1.766,0.794-2.423,0.002l-2.441,0.001c0,0-1.129,0.027-1.583,0.907c-0.813,1.617-1.637,3.103-2.281,4.593
			c0.002,0.014,1.059,1.041,1.059,1.041c0.691-0.993,2.699-3.222,2.843-3.419l0.065,5.719l6.784,0.005l0.02-5.595
			c0.383,0.507,1.947,2.477,2.533,3.404C102.492,95.786,103.672,95.016,103.594,94.784z"/>
		<path fill="#161616" d="M95.669,83.516c0,0.789-0.64,1.428-1.427,1.428c-0.79,0-1.429-0.639-1.429-1.428
			c0-0.789,0.639-1.428,1.429-1.428C95.029,82.088,95.669,82.727,95.669,83.516z M94.242,82.324c-0.658,0-1.192,0.533-1.192,1.191
			c0,0.658,0.534,1.191,1.192,1.191c0.657,0,1.19-0.533,1.19-1.191C95.433,82.857,94.899,82.324,94.242,82.324z"/>
		<path fill="#161616" d="M100.277,83.516c0,0.789-0.639,1.428-1.428,1.428s-1.428-0.639-1.428-1.428
			c0-0.789,0.639-1.428,1.428-1.428S100.277,82.727,100.277,83.516z M98.85,82.324c-0.657,0-1.191,0.533-1.191,1.191
			c0,0.658,0.534,1.191,1.191,1.191c0.658,0,1.192-0.533,1.192-1.191C100.042,82.857,99.508,82.324,98.85,82.324z"/>
		<rect x="95.61" y="83.308" fill="#161616" width="1.931" height="0.238"/>
		<rect x="100.248" y="83.308" fill="#161616" width="1.082" height="0.238"/>
		<g>
			<ellipse fill="#F7D789" cx="102.217" cy="83.112" rx="0.934" ry="1.45"/>
			<ellipse fill="#E2BE6D" cx="102.23" cy="83.112" rx="0.521" ry="0.809"/>
		</g>
		<rect x="91.675" y="83.308" fill="#161616" width="1.258" height="0.238"/>
		<g>
			<ellipse fill="#F7D789" cx="90.979" cy="83.093" rx="0.969" ry="1.45"/>
			<ellipse fill="#E2BE6D" cx="90.978" cy="83.093" rx="0.541" ry="0.809"/>
		</g>
		
			<rect x="98.351" y="99.508" transform="matrix(-0.5089 -0.8608 0.8608 -0.5089 64.3372 236.1315)" fill="#8E8E8E" width="2.345" height="0.412"/>
		<rect x="93.857" y="89.123" fill="#5F85AA" width="0.793" height="8.84"/>
		<circle fill="#A97C50" cx="94.273" cy="98.222" r="0.166"/>
		<rect x="98.426" y="89.118" fill="#5F85AA" width="0.794" height="8.783"/>
		
			<rect x="96.927" y="93.933" transform="matrix(0.1492 -0.9888 0.9888 0.1492 -10.3405 180.3286)" fill="#455E7C" width="5.381" height="4.48"/>
		<g>
			<g>
				
					<rect x="98.275" y="93.046" transform="matrix(0.9887 0.15 -0.15 0.9887 15.1045 -13.6973)" fill="#262262" width="0.143" height="0.455"/>
				
					<rect x="98.702" y="93.112" transform="matrix(0.989 0.148 -0.148 0.989 14.903 -13.5917)" fill="#262262" width="0.145" height="0.453"/>
				
					<rect x="99.13" y="93.177" transform="matrix(0.9893 0.1457 -0.1457 0.9893 14.6662 -13.4561)" fill="#262262" width="0.144" height="0.453"/>
				
					<rect x="99.557" y="93.241" transform="matrix(0.9885 0.1513 -0.1513 0.9885 15.2885 -13.9979)" fill="#262262" width="0.145" height="0.453"/>
			</g>
			<g>
				
					<rect x="99.985" y="93.306" transform="matrix(0.9875 0.1579 -0.1579 0.9875 16.0195 -14.6223)" fill="#262262" width="0.145" height="0.453"/>
				
					<rect x="100.414" y="93.369" transform="matrix(0.9887 0.15 -0.15 0.9887 15.1771 -14.0145)" fill="#262262" width="0.143" height="0.454"/>
				
					<rect x="100.841" y="93.434" transform="matrix(0.9888 0.149 -0.149 0.9888 15.0822 -13.9907)" fill="#262262" width="0.144" height="0.452"/>
				
					<rect x="101.267" y="93.499" transform="matrix(0.9888 0.149 -0.149 0.9888 15.0966 -14.0536)" fill="#262262" width="0.144" height="0.453"/>
			</g>
			<g>
				
					<rect x="101.695" y="93.563" transform="matrix(0.9888 0.149 -0.149 0.9888 15.111 -14.1167)" fill="#262262" width="0.144" height="0.453"/>
			</g>
		</g>
		<g>
			
				<rect x="99.119" y="93.633" transform="matrix(0.1478 -0.989 0.989 0.1478 -9.0407 179.7348)" fill="#F9E79D" width="1.315" height="2.962"/>
			
				<rect x="98.549" y="94.747" transform="matrix(0.9888 0.149 -0.149 0.9888 15.2409 -13.8133)" fill="#939598" width="2.513" height="0.119"/>
			
				<rect x="98.509" y="95.015" transform="matrix(0.9888 0.1493 -0.1493 0.9888 15.3159 -13.8319)" fill="#939598" width="2.515" height="0.118"/>
			
				<rect x="98.468" y="95.283" transform="matrix(0.9888 0.1491 -0.1491 0.9888 15.3344 -13.8066)" fill="#939598" width="2.514" height="0.118"/>
		</g>
		<path fill="#EFCA78" d="M103.599,94.799c0,0-1.544,0.341-1.536,0.367l-3.358,1.738c0,0.002,0.061,0.834,0.074,1.19
			c0,0,3.62-0.907,4.846-2.105C103.826,95.829,103.834,95.671,103.599,94.799z"/>
		<path fill="#EFCA78" d="M98.539,95.777c-0.8,0.019-0.606,0.025-0.961-0.019c-0.049-0.007-0.084,0.033-0.093,0.082
			c-0.052,0.368,0.29,0.457,0.74,0.47l0.091,0.139l-1.079-0.208c-0.104-0.02-0.205,0.048-0.225,0.152l-0.02,0.1
			c-0.02,0.102,0.045,0.198,0.144,0.222c-0.179-0.034-0.263,0.033-0.283,0.141l-0.021,0.1c-0.021,0.109,0.037,0.202,0.205,0.234
			c-0.101-0.014-0.195,0.052-0.215,0.153l-0.02,0.1c-0.03,0.157,0.086,0.212,0.223,0.239c-0.093-0.002-0.175,0.062-0.193,0.155
			l-0.018,0.097c-0.021,0.104,0.048,0.206,0.152,0.226c1.471,0.285-0.04-0.01,1.487,0.285c0.182,0.035,0.359-0.059,0.435-0.219
			C99.249,96.369,99.326,96.539,98.539,95.777z"/>
		<g>
			<path fill="#15151E" d="M93.518,83.13l0.094,0.133c0.229-0.109,0.527-0.156,0.787-0.12c-0.253,0.015-0.395,0.287-0.257,0.491
				h0.552c0.102-0.152,0.054-0.355-0.109-0.449c0.254,0.085,0.49,0.269,0.587,0.456l0.164-0.058
				C95.037,83.017,94.183,82.771,93.518,83.13z"/>
			<path fill="#15151E" d="M99.602,83.271l0.093-0.131c-0.665-0.361-1.52-0.115-1.816,0.454l0.163,0.056
				c0.098-0.187,0.334-0.371,0.588-0.456c-0.163,0.094-0.211,0.296-0.109,0.449h0.551c0.138-0.205-0.003-0.477-0.255-0.491
				C99.074,83.116,99.372,83.164,99.602,83.271z"/>
		</g>
		<polygon fill="#DCEEF4" points="94.654,89.118 95.314,88.523 96.495,89.59 97.779,88.496 98.426,89.118 96.495,91.792 		"/>
		<path fill="#EFCA78" d="M89.185,94.623c0,0,1.527,0.408,1.518,0.434c0.963,0.855,3.273,3.831,3.273,3.831l-0.518,0.894
			c-1.541-1.143-3.162-2.808-4.333-4.058C88.929,95.554,88.909,95.482,89.185,94.623z"/>
		
			<rect x="92.514" y="99.507" transform="matrix(0.508 -0.8614 0.8614 0.508 -39.7954 129.7583)" fill="#8E8E8E" width="2.343" height="0.414"/>
	</g>
	<text transform="matrix(1 0 0 1 34.165 52.46)" font-family="'MyriadPro-Regular'" font-size="10.1216">Students Profile</text>
	<g>
		<path fill="#939393" d="M54.113,119.736c0,8.273-6.683,15.313-15.513,15.2c-8.232-0.169-14.893-6.888-14.893-15.2
			c0-8.396,6.807-15.201,15.202-15.201C47.307,104.535,54.113,111.34,54.113,119.736z"/>
		<path fill="#424242" d="M34.912,118.283c-0.364,0.008-0.656,0.304-0.656,0.669c0,0.363,0.292,0.658,0.656,0.666V118.283z"/>
		<path fill="#565656" d="M35.548,119.11c0-0.366-0.292-0.66-0.654-0.668v0.711c-0.359,0.01-0.647,0.305-0.647,0.666
			c0,0.364,0.292,0.661,0.656,0.667v-0.71C35.261,119.765,35.548,119.472,35.548,119.11z"/>
		<path fill="#282828" d="M34.899,120.864c0.363,0.006,0.656,0.303,0.656,0.667s-0.293,0.66-0.656,0.667V120.864z"/>
		<path fill="#424242" d="M34.899,120.344c0.363,0.008,0.656,0.303,0.656,0.668c0,0.363-0.293,0.659-0.656,0.667V120.344z"/>
		<path fill="#424242" d="M34.924,119.777c-0.363,0.006-0.655,0.303-0.655,0.666c0,0.365,0.292,0.661,0.655,0.667V119.777z"/>
		<path fill="#565656" d="M35.545,120.413c0-0.117-0.032-0.226-0.087-0.322c-0.121,0.203-0.329,0.342-0.568,0.351v0.013
			c-0.35,0.021-0.629,0.311-0.629,0.665c0,0.366,0.292,0.661,0.655,0.668v-0.709C35.267,121.059,35.545,120.769,35.545,120.413z"/>
		<path fill="#424242" d="M35.439,119.433c-0.097,0.197-0.334,0.321-0.548,0.33v0.69c0.363-0.007,0.655-0.303,0.655-0.667
			C35.546,119.655,35.505,119.535,35.439,119.433z"/>
		<path fill="#424242" d="M34.917,121.084c-0.363,0.006-0.655,0.302-0.655,0.666s0.292,0.661,0.655,0.667V121.084z"/>
		<path fill="#E8AC25" d="M34.88,117.815c0.363,0.009,0.656,0.303,0.656,0.667s-0.292,0.66-0.656,0.668V117.815z"/>
		<path fill="#282828" d="M34.926,121.68c-0.364,0.007-0.655,0.302-0.655,0.666c0,0.366,0.291,0.662,0.655,0.668V121.68z"/>
		<path fill="#424242" d="M43.013,118.27c0.365,0.007,0.656,0.304,0.656,0.667c0,0.365-0.291,0.66-0.656,0.667V118.27z"/>
		<path fill="#565656" d="M43.031,119.138v-0.709c-0.362,0.007-0.654,0.302-0.654,0.666c0,0.362,0.287,0.655,0.646,0.667v0.709
			c0.363-0.006,0.655-0.302,0.655-0.666C43.679,119.442,43.391,119.148,43.031,119.138z"/>
		<path fill="#424242" d="M43.035,119.765v-0.017c-0.215-0.01-0.452-0.132-0.548-0.331c-0.068,0.103-0.107,0.223-0.107,0.354
			c0,0.354,0.274,0.641,0.622,0.665v0.66c0.362-0.006,0.655-0.302,0.655-0.667C43.656,120.077,43.381,119.788,43.035,119.765z"/>
		<path fill="#282828" d="M43.026,120.85c-0.363,0.006-0.655,0.303-0.655,0.666c0,0.366,0.292,0.66,0.655,0.668V120.85z"/>
		<path fill="#424242" d="M43.026,120.329c-0.363,0.008-0.655,0.303-0.655,0.667s0.292,0.661,0.655,0.668V120.329z"/>
		<path fill="#565656" d="M43.036,120.44v-0.014c-0.24-0.008-0.447-0.146-0.57-0.348c-0.053,0.093-0.086,0.203-0.086,0.32
			c0,0.355,0.279,0.645,0.629,0.665v0.707c0.362-0.005,0.656-0.302,0.656-0.666C43.665,120.749,43.387,120.461,43.036,120.44z"/>
		<path fill="#424242" d="M43.009,121.068c0.362,0.007,0.654,0.303,0.654,0.667s-0.292,0.661-0.654,0.667V121.068z"/>
		<path fill="#E8AC25" d="M43.045,117.801c-0.363,0.008-0.656,0.304-0.656,0.668c0,0.365,0.293,0.661,0.656,0.667V117.801z"/>
		<path fill="#282828" d="M43,121.665c0.364,0.007,0.655,0.303,0.655,0.667c0,0.365-0.291,0.661-0.655,0.667V121.665z"/>
		<rect x="37.753" y="120.954" fill="#EABEA0" width="2.455" height="1.389"/>
		<g>
			<ellipse fill="#F7CCAD" cx="44.115" cy="116.461" rx="1.009" ry="1.279"/>
			<ellipse fill="#EABEA0" cx="44.193" cy="116.461" rx="0.563" ry="0.714"/>
		</g>
		<g>
			<ellipse fill="#F7CCAD" cx="33.781" cy="116.461" rx="1.009" ry="1.279"/>
			<ellipse fill="#EABEA0" cx="33.781" cy="116.461" rx="0.563" ry="0.714"/>
		</g>
		<path fill="#F7CCAD" d="M44.241,115.599c0,3.177-2.354,5.75-5.26,5.75s-5.26-2.573-5.26-5.75c0-3.185,2.6-5.768,5.26-5.75
			C41.683,109.865,44.241,112.414,44.241,115.599z"/>
		<ellipse fill="#FFB18A" cx="36.551" cy="117.387" rx="0.886" ry="0.614"/>
		<ellipse fill="#FFB18A" cx="41.46" cy="117.387" rx="0.886" ry="0.614"/>
		<g>
			<path fill="#FCE8E3" d="M38.076,119.372l0.106-0.216c0.767,0.379,1.58,0.007,1.754-0.651l0.234,0.063
				C39.952,119.386,38.966,119.811,38.076,119.372z"/>
		</g>
		<g>
			<path fill="#EABEA0" d="M38.224,117.566l0.167-0.135c0.181,0.137,0.42,0.213,0.647,0.21c0.238-0.004,0.47-0.103,0.59-0.248
				l0.203,0.103C39.505,117.893,38.738,117.959,38.224,117.566z"/>
		</g>
		<path fill="#BCD9E2" d="M44.04,122.938c-0.141-0.327-0.704-1.157-1.774-1.06v0.001h-2.621c-0.102,0.264-0.336,0.472-0.706,0.472
			c-0.368,0-0.604-0.208-0.706-0.472c-4,0-0.875,0-2.775,0v0.008c-0.806,0.091-1.035,0.701-1.183,0.97
			c-0.851,1.591-1.71,3.051-2.389,4.519c0,0.015,1.029,1.066,1.029,1.066c0.553-0.755,1.971-2.585,2.648-3.465l7.023,0.007
			c0.413,0.657,1.74,2.74,2.281,3.644l1.125-0.963C45.455,126.14,44.738,124.604,44.04,122.938z"/>
		<polygon fill="#DCEEF4" points="37.095,121.888 37.749,121.259 38.917,122.339 40.197,121.248 40.862,121.891 39.643,123.549 
			38.917,122.339 38.201,123.496 		"/>
		<path fill="#455E7C" d="M41.908,121.874h-0.899l-0.712,3.109l-2.601-0.005l-0.711-3.106h-0.897l-0.551,3.105l0.06,5.723
			l6.767,0.004c0.004-0.066,0.232-5.652,0.232-5.72L41.908,121.874z"/>
		<path fill="#455E7C" d="M43.302,134.292c-1.623,0.483-3.315,0.685-4.881,0.633c-1.044-0.019-2.428-0.216-3.73-0.595l0.908-3.688
			H42.4L43.302,134.292z"/>
		<circle fill="#FFFFFF" cx="38.929" cy="125.517" r="0.231"/>
		<path fill="#FFFFFF" d="M39.16,126.513c0,0.126-0.104,0.229-0.231,0.229c-0.128,0-0.231-0.104-0.231-0.229
			c0-0.13,0.104-0.232,0.231-0.232C39.057,126.28,39.16,126.383,39.16,126.513z"/>
		<circle fill="#FFFFFF" cx="38.929" cy="127.505" r="0.231"/>
		<rect x="35.59" y="130.117" fill="#FFFFFF" width="6.842" height="0.771"/>
		<g>
			<path fill="#F7CCAD" d="M35.304,130.332c-0.466-0.591-1.496-1.806-1.967-2.441c0.015-0.023-1.36-0.704-1.36-0.704
				c-0.443,0.783-0.439,0.857-0.282,1.063c0.796,1.306,2.053,2.096,3.184,3.261C34.878,131.51,35.3,130.353,35.304,130.332z"/>
		</g>
		
			<rect x="34.844" y="130.114" transform="matrix(0.8362 0.5484 -0.5484 0.8362 77.4219 2.2564)" fill="#FFFFFF" width="0.178" height="1.286"/>
		<path fill="#565656" d="M35.662,115.433L35.662,115.433c-0.034-0.331,1.889-0.511,1.922-0.2l0.015,0.153
			C36.944,115.236,36.288,115.149,35.662,115.433z"/>
		<path fill="#565656" d="M42.228,115.335L42.228,115.335c0.013-0.322-1.917-0.4-1.93-0.077l-0.005,0.156
			C40.94,115.222,41.59,115.092,42.228,115.335z"/>
		<g>
			<path fill="#32323F" d="M42.034,115.959c-0.55-0.514-1.437-0.488-1.864-0.018l0.142,0.097c0.123-0.136,0.348-0.243,0.581-0.281
				c-0.269,0.198-0.106,0.602,0.196,0.602c0.335,0,0.437-0.399,0.213-0.586c0.222,0.047,0.445,0.153,0.609,0.291L42.034,115.959z"/>
			<path fill="#32323F" d="M37.772,115.959c-0.55-0.514-1.437-0.488-1.864-0.018l0.143,0.097c0.122-0.136,0.346-0.243,0.581-0.281
				c-0.271,0.198-0.108,0.602,0.195,0.602c0.334,0,0.438-0.399,0.212-0.586c0.222,0.047,0.446,0.153,0.611,0.291L37.772,115.959z"/>
		</g>
		<path fill="#282828" d="M38.98,109.849c-3.763-0.048-6.068,4.224-5.063,7.306l0.864-2.227l1.949-0.275l0.357-1.507l0.233,1.424
			l5.694-0.806l1.189,2.583C44.568,114.18,43.167,109.9,38.98,109.849z"/>
		<g>
			<path fill="#F7CCAD" d="M34.904,131.372c0.467-1.408,0.25-1.217,1.862-1.129c0.222,0.01,0.258,0.364-0.015,0.354l-0.616,0.01
				l0.586,0.194l0,0l0.953,0.317c0.221,0.072,0.11,0.405-0.11,0.332l-0.955-0.317l-0.016,0.049l1.119,0.37
				c0.22,0.074,0.109,0.405-0.111,0.332l-1.119-0.371l-0.016,0.049l0.955,0.315c0.22,0.074,0.109,0.406-0.11,0.333l-0.954-0.316
				l-0.015,0.046l0.753,0.25c0.222,0.074,0.11,0.408-0.111,0.336c-5.323-1.769,3.508,1.159-1.807-0.604
				C34.951,131.846,34.828,131.601,34.904,131.372z"/>
		</g>
		
			<rect x="39.672" y="126.71" transform="matrix(0.1931 -0.9812 0.9812 0.1931 -92.3401 145.5913)" fill="#B1B1B2" width="5.36" height="4.46"/>
		<g>
			<g>
				
					<rect x="41.144" y="125.773" transform="matrix(0.9817 0.1902 -0.1902 0.9817 24.7217 -5.5397)" fill="#FFFFFF" width="0.144" height="0.451"/>
				
					<rect x="41.567" y="125.857" transform="matrix(0.9817 0.1902 -0.1902 0.9817 24.7455 -5.6187)" fill="#FFFFFF" width="0.144" height="0.452"/>
				
					<rect x="41.989" y="125.939" transform="matrix(0.9832 0.1825 -0.1825 0.9832 23.7251 -5.5565)" fill="#FFFFFF" width="0.145" height="0.453"/>
				
					<rect x="42.412" y="126.023" transform="matrix(0.9819 0.1896 -0.1896 0.9819 24.7074 -5.765)" fill="#FFFFFF" width="0.144" height="0.451"/>
			</g>
			<g>
				
					<rect x="42.834" y="126.105" transform="matrix(0.983 0.1837 -0.1837 0.983 23.9335 -5.7314)" fill="#FFFFFF" width="0.144" height="0.453"/>
				
					<rect x="43.256" y="126.189" transform="matrix(0.9804 0.1968 -0.1968 0.9804 25.7215 -6.0542)" fill="#FFFFFF" width="0.144" height="0.452"/>
				
					<rect x="43.679" y="126.273" transform="matrix(0.9804 0.1968 -0.1968 0.9804 25.7462 -6.1358)" fill="#FFFFFF" width="0.144" height="0.451"/>
				
					<rect x="44.101" y="126.356" transform="matrix(0.981 0.1942 -0.1942 0.981 25.4209 -6.1684)" fill="#FFFFFF" width="0.146" height="0.451"/>
			</g>
			<g>
				
					<rect x="44.524" y="126.439" transform="matrix(0.9817 0.1902 -0.1902 0.9817 24.9102 -6.1705)" fill="#FFFFFF" width="0.144" height="0.451"/>
			</g>
		</g>
		
			<rect x="39.245" y="127.186" transform="matrix(0.1509 -0.9885 0.9885 0.1509 -92.3366 151.3262)" fill="#384D63" width="5.36" height="4.461"/>
		<g>
			<g>
				
					<rect x="40.593" y="126.302" transform="matrix(0.9878 0.1556 -0.1556 0.9878 20.1849 -4.7868)" fill="#FFFFFF" width="0.144" height="0.451"/>
				
					<rect x="41.02" y="126.366" transform="matrix(0.9886 0.1505 -0.1505 0.9886 19.522 -4.7426)" fill="#FFFFFF" width="0.143" height="0.451"/>
				
					<rect x="41.445" y="126.43" transform="matrix(0.9888 0.1495 -0.1495 0.9888 19.4021 -4.7834)" fill="#FFFFFF" width="0.144" height="0.451"/>
				
					<rect x="41.87" y="126.495" transform="matrix(0.9888 0.149 -0.149 0.9888 19.35 -4.8349)" fill="#FFFFFF" width="0.144" height="0.451"/>
			</g>
			<g>
				
					<rect x="42.296" y="126.561" transform="matrix(0.9886 0.1505 -0.1505 0.9886 19.5659 -4.9326)" fill="#FFFFFF" width="0.143" height="0.451"/>
				
					<rect x="42.722" y="126.626" transform="matrix(0.9888 0.1495 -0.1495 0.9888 19.4458 -4.9722)" fill="#FFFFFF" width="0.144" height="0.451"/>
				
					<rect x="43.148" y="126.69" transform="matrix(0.9888 0.149 -0.149 0.9888 19.3932 -5.0231)" fill="#FFFFFF" width="0.144" height="0.451"/>
				
					<rect x="43.573" y="126.756" transform="matrix(0.9888 0.1495 -0.1495 0.9888 19.4748 -5.098)" fill="#FFFFFF" width="0.144" height="0.451"/>
			</g>
			<g>
				
					<rect x="44" y="126.822" transform="matrix(0.9877 0.1561 -0.1561 0.9877 20.3773 -5.323)" fill="#FFFFFF" width="0.144" height="0.451"/>
			</g>
		</g>
		<g>
			
				<rect x="41.43" y="126.886" transform="matrix(0.1511 -0.9885 0.9885 0.1511 -91.1602 150.5668)" fill="#A3A9AA" width="1.312" height="2.949"/>
		</g>
		<path fill="#F7CCAD" d="M45.986,127.656c0,0-1.184,0.282-1.174,0.307l-3.322,1.659c-0.006-0.323-0.162-0.445-0.562-0.826
			c-0.726,0.021-0.55,0.024-0.873-0.014c-0.045-0.005-0.078,0.031-0.083,0.075c-0.045,0.336,0.267,0.415,0.676,0.424l0.082,0.127
			l-0.982-0.184c-0.095-0.019-0.186,0.044-0.204,0.137l-0.017,0.093c-0.017,0.093,0.042,0.179,0.131,0.2
			c-0.161-0.03-0.237,0.029-0.256,0.129l-0.016,0.092c-0.018,0.099,0.033,0.183,0.186,0.211c-0.091-0.012-0.178,0.048-0.195,0.14
			l-0.017,0.093c-0.025,0.141,0.078,0.19,0.204,0.215c-0.083-0.002-0.158,0.059-0.174,0.143l-0.016,0.088
			c-0.017,0.095,0.045,0.187,0.14,0.205c1.338,0.25-0.036-0.01,1.353,0.25c0.192,0.035,0.373-0.091,0.403-0.243
			c0.392-0.104,3.632-0.989,4.772-2.117C46.243,128.698,46.228,128.523,45.986,127.656z"/>
	</g>
	<g>
		<path fill="#939393" d="M111.502,153.252c0.028,8.334-6.679,15.449-15.572,15.364c-8.292-0.138-15.024-6.884-15.053-15.256
			c-0.03-8.458,6.803-15.337,15.259-15.365C104.593,137.965,111.472,144.796,111.502,153.252z"/>
		<path fill="#A3B3D6" d="M100.93,156.345l0.025,7.469c0,0.071-0.004,0.144-0.016,0.213v0.001c-0.081,0.522-0.451,0.952-0.948,1.123
			c-0.147,0.051-0.308,0.078-0.473,0.078l-5.861,0.021c-0.796,0.002-1.444-0.627-1.447-1.406l-0.025-7.468
			c-0.003-0.78,0.641-1.414,1.437-1.416l5.861-0.021c0.187,0,0.365,0.035,0.529,0.098
			C100.548,155.24,100.928,155.749,100.93,156.345z"/>
		<rect x="94.87" y="154.092" transform="matrix(1 -0.004 0.004 1 -0.6126 0.3811)" fill="#AA6322" width="2.471" height="2.159"/>
		<path fill="#414042" d="M100.753,167.919c-2.886,0.962-6.549,0.846-8.67,0.138l0.913-3.742l6.843-0.025L100.753,167.919z"/>
		<path fill="#3B5268" d="M101.359,156.459c-0.454-0.985-1.554-0.982-1.559-0.982l-2.452,0.006c-0.272,0.382-1.8,0.751-2.469,0.015
			l-1.681-0.02c0,0-0.589-0.058-1.324,1.267c-0.313,0.563-1.217,2.397-1.217,2.397l1.659,1.204c0,0,0.578-0.844,0.623-0.903
			l0.055,4.991l6.859-0.027l-0.054-5.645c0.116,0.155,0.996,1.29,1.197,1.556c0.426-0.497,1.034-0.922,1.581-1.328
			C102.508,158.833,101.679,157.167,101.359,156.459z"/>
		<path fill="#F2F2F2" d="M99.961,164.738l-0.484,0.7c-0.103,0.123-0.268,0.061-0.282-0.099l-1.104-10.393
			c0.568-0.009,1.063-0.004,1.063-0.004L99.961,164.738z"/>
		<path fill="#F2F2F2" d="M92.458,164.259l0.604,0.554c0.108,0.088,0.274,0.021,0.288-0.112l0.974-9.742
			c0,0-0.792-0.019-1.033,0.043L92.458,164.259z"/>
		<path fill="#BC7835" d="M97.377,154.505l-2.478,0.008c-2.538-0.033-3.225-1.431-3.231-3.208l-0.022-6.238l8.918-0.032l0.022,6.239
			C100.593,153.052,99.156,154.497,97.377,154.505z"/>
		<path fill="#493426" d="M91.658,148.433L91.658,148.433c-0.002-0.544,2.69-0.52,2.692-0.01l0.001,0.255
			C93.462,148.324,92.564,148.075,91.658,148.433z"/>
		<path fill="#493426" d="M98.845,148.406L98.845,148.406c-0.002-0.527-2.695-0.519-2.694,0.01l0.002,0.256
			C97.045,148.312,97.939,148.056,98.845,148.406z"/>
		<g>
			<ellipse opacity="0.23" fill="#B5AB99" cx="92.956" cy="151.006" rx="0.822" ry="0.67"/>
			<ellipse opacity="0.23" fill="#B5AB99" cx="97.729" cy="150.989" rx="0.822" ry="0.671"/>
		</g>
		<g>
			<path fill="#FFE6E9" d="M94.19,152.79l0.119-0.243c0.85,0.416,1.77,0.016,1.965-0.736l0.262,0.068
				C96.296,152.799,95.191,153.28,94.19,152.79z"/>
		</g>
		<g>
			<path fill="#995C2E" d="M94.214,151.075l0.188-0.142c0.46,0.321,1.119,0.262,1.389-0.044l0.229,0.104
				C95.661,151.4,94.803,151.486,94.214,151.075z"/>
		</g>
		<g>
			<path fill="#15151E" d="M98.353,149.358c-0.557-0.515-1.449-0.487-1.88-0.011l0.145,0.096c0.124-0.138,0.35-0.246,0.583-0.284
				c-0.271,0.199-0.105,0.605,0.2,0.604c0.337-0.001,0.438-0.404,0.212-0.591c0.223,0.047,0.448,0.153,0.615,0.29L98.353,149.358z"
				/>
			<path fill="#15151E" d="M94.059,149.374c-0.558-0.516-1.448-0.489-1.878-0.012l0.144,0.097c0.122-0.138,0.349-0.248,0.584-0.284
				c-0.271,0.199-0.106,0.605,0.199,0.604c0.337,0,0.438-0.404,0.211-0.593c0.226,0.048,0.45,0.153,0.616,0.293L94.059,149.374z"/>
		</g>
		<path fill="#15151E" d="M101.551,146.463c-0.001-0.317-0.272-0.595-0.627-0.555c0.273-0.133,0.461-0.414,0.46-0.74
			c-0.001-0.594-0.609-0.986-1.148-0.753c0.327-0.812-0.495-1.619-1.302-1.271c-0.205-0.68-0.974-1.004-1.602-0.684
			c-0.47-0.892-1.741-0.898-2.224-0.016c-0.631-0.494-1.562-0.193-1.787,0.576c-0.803-0.341-1.629,0.465-1.293,1.278
			c-0.54-0.228-1.146,0.168-1.145,0.761c0.001,0.313,0.176,0.582,0.43,0.721c0,0-0.588,0.037-0.585,0.577
			c0.001,0.296,0.23,0.535,0.52,0.556c0.056,0.955,0.322,1.912,0.411,2.622c0.084-1.715,0.146-2.34,0.146-2.34
			c0.862-1.904,1.567-0.344,2.833-0.324c1.156,0.02,2.011-1.035,3.372-0.474c1.055,0.434,2.022,1.978,2.246,3.206
			c0.296-0.201,0.778-1.328,0.771-2.579C101.319,147.005,101.552,146.762,101.551,146.463z"/>
		<path fill="#BC7835" d="M99.361,166.795C101.017,165.848,100.121,166.359,99.361,166.795
			C99.36,166.794,99.36,166.795,99.361,166.795z"/>
		<path fill="#BC7835" d="M104.09,161.944c-0.381-0.915-0.927-1.98-1.534-2.987l-1.724,1.136c0.773,0.946,1.845,2.19,1.845,2.19
			h0.001h-0.001c-0.501,0.544-2.057,1.815-2.735,2.455c-0.212-0.231-0.882-0.339-1.2-0.397c-0.134-0.022-0.188-0.015-0.234,0.068
			l-0.003,0.004c-0.046,0.085-0.015,0.19,0.07,0.235c0.279,0.133,0.472,0.192,0.583,0.417l-0.735,0.437
			c0.087,0.142,0.715,0.922,0.938,1.291c0.244-0.14,0.56-0.319,0.963-0.553c0.15-0.086,0.229-0.248,0.222-0.41
			c1.271-1.053,2.628-1.722,3.573-2.958C104.274,162.707,104.269,162.38,104.09,161.944z"/>
		<path fill="#BC7835" d="M100.933,151.368L100.933,151.368c-0.313,0.001-0.569-0.204-0.57-0.457l-0.005-1.488
			c-0.001-0.253,0.254-0.461,0.567-0.462l0,0c0.312-0.001,0.57,0.204,0.57,0.457l0.005,1.489
			C101.501,151.159,101.246,151.367,100.933,151.368z"/>
		<path fill="#AA6322" d="M100.599,150.763l-0.003-1.194c-0.002-0.359,0.674-0.362,0.675-0.002l0.004,1.194
			C101.275,151.123,100.6,151.123,100.599,150.763z"/>
		
			<rect x="97.608" y="165.84" transform="matrix(-0.5114 -0.8593 0.8593 -0.5114 6.6194 335.8582)" fill="#58595B" width="2.352" height="0.415"/>
		<path fill="#BC7835" d="M93.175,166.676C92.429,166.168,91.448,165.504,93.175,166.676
			C93.174,166.676,93.174,166.676,93.175,166.676z"/>
		<path fill="#BC7835" d="M94.141,164.319l-0.002-0.004c-0.039-0.087-0.106-0.105-0.229-0.087c-0.235,0.025-0.947,0.104-1.153,0.245
			c-0.639-0.659-1.572-1.57-2.033-2.1c0.278-0.378,1.002-1.353,1.63-2.085l-1.695-1.173c-0.569,0.896-1.088,1.837-1.479,2.679
			c-0.201,0.424-0.213,0.721-0.074,0.891c0.748,1.15,1.848,1.884,2.911,2.827c-0.053,0.179,0.011,0.379,0.174,0.491
			c0.424,0.287,0.746,0.507,0.985,0.671c0.059-0.106,0.597-1.038,0.836-1.353l-0.57-0.401c0.129-0.217,0.325-0.262,0.614-0.372
			C94.142,164.509,94.18,164.406,94.141,164.319z"/>
		
			<rect x="92.183" y="165.883" transform="matrix(0.5055 -0.8628 0.8628 0.5055 -97.1417 162.6732)" fill="#58595B" width="2.351" height="0.415"/>
		<polygon fill="#D6BBF9" points="94.309,155.488 94.872,154.837 96.052,155.921 97.338,154.813 98.005,155.482 96.788,157.138 
			96.052,155.921 95.343,157.098 		"/>
		<polygon fill="#D6BBF9" points="92.285,160.378 90.582,159.213 90.84,158.748 92.6,159.934 		"/>
		<polygon fill="#D6BBF9" points="100.8,160.068 102.525,158.862 102.782,159.331 101.146,160.485 		"/>
		<rect x="95.479" y="165.135" fill="#58595B" width="0.116" height="3.45"/>
		<circle fill="#58595B" cx="95.537" cy="164.739" r="0.217"/>
	</g>
</g>
</svg>
