<?xml version="1.0" encoding="utf-8"?>
<!-- Generator: Adobe Illustrator 16.0.0, SVG Export Plug-In . SVG Version: 6.00 Build 0)  -->
<!DOCTYPE svg PUBLIC "-//W3C//DTD SVG 1.1//EN" "http://www.w3.org/Graphics/SVG/1.1/DTD/svg11.dtd">
<svg version="1.1" id="Layer_1" xmlns="http://www.w3.org/2000/svg" xmlns:xlink="http://www.w3.org/1999/xlink" x="0px" y="0px"
	 width="196.333px" height="156.332px" viewBox="0 0 196.333 156.332" enable-background="new 0 0 196.333 156.332"
	 xml:space="preserve">
<g>
	<g>
		<path fill="#C8D6D3" d="M110.108,51.826c-9.634-2.126-11.637-16.634,1.137-28.853L110.108,51.826z"/>
	</g>
	<g>
		<path fill="#C8D6D3" d="M111.175,39.379c0.061,0.002,0.124-0.017,0.176-0.059c0.115-0.091,0.135-0.259,0.043-0.375l-5.35-6.742
			c-0.092-0.115-0.26-0.135-0.375-0.043s-0.135,0.26-0.044,0.375l5.351,6.742C111.026,39.341,111.099,39.375,111.175,39.379z"/>
	</g>
	<g>
		<path fill="#C8D6D3" d="M110.909,46.125c0.064,0.002,0.129-0.019,0.182-0.063c0.113-0.095,0.127-0.264,0.032-0.376l-5.899-6.988
			c-0.096-0.112-0.264-0.127-0.377-0.031c-0.112,0.095-0.127,0.264-0.031,0.376l5.899,6.988
			C110.765,46.089,110.837,46.122,110.909,46.125z"/>
	</g>
	<path fill="#C8D6D3" d="M110.108,51.826c9.772-1.362,12.909-15.667,1.137-28.853L110.108,51.826z"/>
</g>
<g>
	<g>
		<path fill="#C8D6D3" d="M63.678,117.72c-6.211,16.107-31.834,15.758-49.613-9.549L63.678,117.72z"/>
	</g>
	<g>
		<path fill="#C8D6D3" d="M42.426,112.604c0.021-0.105,0.005-0.219-0.053-0.32c-0.128-0.223-0.414-0.301-0.638-0.172l-13.069,7.482
			c-0.225,0.129-0.301,0.414-0.174,0.637c0.128,0.225,0.414,0.303,0.638,0.174l13.07-7.482
			C42.323,112.853,42.401,112.735,42.426,112.604z"/>
	</g>
	<g>
		<path fill="#C8D6D3" d="M54.025,114.839c0.021-0.111,0.003-0.23-0.061-0.334c-0.135-0.219-0.422-0.287-0.642-0.152l-13.64,8.367
			c-0.22,0.137-0.289,0.424-0.154,0.643c0.135,0.221,0.423,0.289,0.643,0.154l13.639-8.369
			C53.927,115.077,54.001,114.962,54.025,114.839z"/>
	</g>
	<path fill="#C8D6D3" d="M63.678,117.72c0.212-17.262-23.709-26.449-49.613-9.549L63.678,117.72z"/>
</g>
<radialGradient id="SVGID_1_" cx="98.4932" cy="139.5586" r="83.6498" gradientTransform="matrix(1 0 0 0.1594 0 117.3166)" gradientUnits="userSpaceOnUse">
	<stop  offset="0.0194" style="stop-color:#D6D7D9"/>
	<stop  offset="0.8614" style="stop-color:#D6D7D9;stop-opacity:0.1413"/>
	<stop  offset="1" style="stop-color:#D6D7D9;stop-opacity:0"/>
</radialGradient>
<ellipse fill="url(#SVGID_1_)" cx="98.493" cy="139.56" rx="85.223" ry="14.723"/>
<g>
	<g>
		<path fill="#EBEBEB" d="M118.681,116.774c-0.152-0.057-0.268-0.197-0.285-0.371c-2.799-28.266,6.631-51.401,15.034-65.831
			c9.103-15.633,19.009-24.712,19.108-24.802c0.18-0.163,0.46-0.15,0.625,0.03c0.163,0.181,0.15,0.461-0.031,0.625
			c-0.098,0.089-9.919,9.096-18.953,24.618c-8.33,14.313-17.678,37.253-14.902,65.273c0.024,0.242-0.154,0.459-0.396,0.482
			C118.81,116.808,118.742,116.798,118.681,116.774z"/>
	</g>
	<g>
		<path fill="#EBEBEB" d="M147.347,32.536l-0.529-0.467c4.521-4.91,11.156-18.818,17.572-14.355
			C169.548,21.303,151.856,27.137,147.347,32.536z"/>
	</g>
	<g>
		<g>
			<path fill="#EBEBEB" d="M143.851,36.067c2.744-3.457,13.887-7.479,17.068-4.11c1.551,1.644-0.734,3.205-3.791,3.472
				c-2.038,0.178-3.916,0.399-8.363-0.354c-3.971-0.673-6.213,2.943-6.213,2.943L143.851,36.067z"/>
		</g>
		<g>
			<path fill="#EBEBEB" d="M143.851,36.067c2.634-3.569,4.72-16.829,1.432-20.058c-1.604-1.575-2.666,1.234-2.519,4.77
				c0.099,2.356,0.14,4.535,1.335,9.536c1.067,4.466-1.869,7.877-1.869,7.877L143.851,36.067z"/>
		</g>
	</g>
	<g>
		<g>
			<path fill="#EBEBEB" d="M137.37,45.332c3.173-3.927,17.436-8.506,22.129-4.686c2.29,1.862-0.532,3.638-4.561,3.944
				c-2.687,0.204-5.154,0.458-11.17-0.392c-5.373-0.759-7.856,3.348-7.856,3.348L137.37,45.332z"/>
		</g>
		<g>
			<path fill="#EBEBEB" d="M137.37,45.332c3.01-4.055,3.955-19.105-0.863-22.766c-2.35-1.785-3.373,1.404-2.689,5.417
				c0.455,2.674,0.81,5.146,3.089,10.819c2.036,5.067-1.398,8.942-1.398,8.942L137.37,45.332z"/>
		</g>
	</g>
	<g>
		<g>
			<path fill="#EBEBEB" d="M126.667,65.446c2.543-3.724,17.231-8.802,23.392-5.719c3.005,1.504,0.314,3.284-4.081,3.838
				c-2.929,0.368-5.604,0.767-12.492,0.426c-6.152-0.304-7.885,3.534-7.885,3.534L126.667,65.446z"/>
		</g>
		<g>
			<path fill="#EBEBEB" d="M126.667,65.446c2.331-3.827-0.365-17.325-6.623-20.257c-3.053-1.431-3.395,1.487-1.638,5.021
				c1.171,2.354,2.181,4.537,6.122,9.442c3.52,4.381,0.672,8.078,0.672,8.078L126.667,65.446z"/>
		</g>
	</g>
	<g>
		<g>
			<path fill="#EBEBEB" d="M131.485,55.85c3.113-4.185,19.367-9.553,25.638-5.842c3.058,1.811-0.009,3.767-4.771,4.268
				c-3.174,0.334-6.079,0.709-13.416,0.113c-6.553-0.531-8.811,3.806-8.811,3.806L131.485,55.85z"/>
		</g>
		<g>
			<path fill="#EBEBEB" d="M131.485,55.85c2.896-4.309,1.426-19.829-4.965-23.37c-3.116-1.728-3.789,1.6-2.279,5.694
				c1.006,2.729,1.858,5.255,5.563,10.984c3.309,5.116-0.127,9.259-0.127,9.259L131.485,55.85z"/>
		</g>
	</g>
</g>
<g>
	<g>
		<path fill="#C8D6D3" d="M123.776,53.117c-10.113-5.526-7.629-22.454,10.685-31.995L123.776,53.117z"/>
	</g>
	<g>
		<path fill="#C8D6D3" d="M129.031,39.501c0.068,0.023,0.145,0.022,0.217-0.007c0.159-0.065,0.235-0.247,0.171-0.406l-3.803-9.309
			c-0.065-0.159-0.248-0.235-0.407-0.171c-0.159,0.065-0.235,0.247-0.171,0.407l3.803,9.308
			C128.877,39.412,128.948,39.474,129.031,39.501z"/>
	</g>
	<g>
		<path fill="#C8D6D3" d="M126.534,46.982c0.07,0.023,0.15,0.022,0.225-0.011c0.158-0.07,0.229-0.255,0.158-0.412l-4.339-9.763
			c-0.07-0.157-0.254-0.229-0.411-0.158c-0.158,0.069-0.229,0.254-0.159,0.411l4.339,9.764
			C126.384,46.896,126.453,46.956,126.534,46.982z"/>
	</g>
	<path fill="#C8D6D3" d="M123.776,53.117c11.406,1.659,19.591-13.365,10.685-31.995L123.776,53.117z"/>
</g>
<g>
	<g>
		<path fill="#EBEBEB" d="M104.913,110.679c-0.152,0.057-0.331,0.025-0.457-0.094C83.884,90.999,75.925,67.318,72.871,50.901
			c-3.309-17.784-1.731-31.129-1.715-31.262c0.03-0.242,0.25-0.414,0.493-0.385c0.243,0.03,0.415,0.251,0.385,0.493
			c-0.016,0.131-1.577,13.365,1.712,31.022c3.033,16.279,10.928,39.76,31.319,59.174c0.178,0.168,0.185,0.449,0.016,0.625
			C105.033,110.62,104.976,110.657,104.913,110.679z"/>
	</g>
	<g>
		<path fill="#EBEBEB" d="M71.639,28.153l-0.705-0.009c0.22-6.672-3.833-21.539,3.94-22.346
			C81.126,5.15,71.532,21.119,71.639,28.153z"/>
	</g>
	<g>
		<g>
			<path fill="#EBEBEB" d="M71.296,33.109c-0.178-4.409,5.638-14.73,10.247-14.255c2.248,0.232,1.537,2.906-0.605,5.104
				c-1.428,1.465-2.706,2.859-6.566,5.19c-3.447,2.083-2.785,6.285-2.785,6.285L71.296,33.109z"/>
		</g>
		<g>
			<path fill="#EBEBEB" d="M71.296,33.109c-0.335-4.423-7.41-15.829-12.009-16.128c-2.243-0.146-1.213,2.675,1.206,5.257
				c1.613,1.721,3.066,3.345,7.236,6.353c3.724,2.686,3.726,7.187,3.726,7.187L71.296,33.109z"/>
		</g>
	</g>
	<g>
		<g>
			<path fill="#EBEBEB" d="M72.435,44.358c-0.16-5.045,7.655-17.824,13.706-17.995c2.95-0.083,1.971,3.104-0.881,5.966
				c-1.9,1.908-3.604,3.711-8.716,6.994c-4.566,2.934-3.766,7.665-3.766,7.665L72.435,44.358z"/>
		</g>
		<g>
			<path fill="#EBEBEB" d="M72.435,44.358c-0.366-5.036-9.475-17.055-15.514-16.683c-2.945,0.182-1.639,3.267,1.498,5.859
				c2.09,1.729,3.974,3.37,9.404,6.181c4.85,2.51,4.777,7.687,4.777,7.687L72.435,44.358z"/>
		</g>
	</g>
	<g>
		<g>
			<path fill="#EBEBEB" d="M77.458,66.583c-0.504-4.481,7.307-17.916,13.987-19.603c3.257-0.822,2.382,2.283-0.586,5.571
				c-1.979,2.191-3.746,4.239-9.186,8.478c-4.859,3.786-3.667,7.824-3.667,7.824L77.458,66.583z"/>
		</g>
		<g>
			<path fill="#EBEBEB" d="M77.458,66.583c-0.733-4.421-11.587-12.886-18.242-11.022c-3.246,0.909-1.601,3.344,2.037,4.873
				c2.424,1.02,4.614,2.014,10.801,3.157c5.527,1.021,5.784,5.68,5.784,5.68L77.458,66.583z"/>
		</g>
	</g>
	<g>
		<g>
			<path fill="#EBEBEB" d="M74.843,56.167c-0.373-5.202,8.436-19.879,15.608-21.16c3.498-0.626,2.452,2.857-0.828,6.347
				c-2.187,2.325-4.142,4.505-10.089,8.843c-5.312,3.875-4.19,8.635-4.19,8.635L74.843,56.167z"/>
		</g>
		<g>
			<path fill="#EBEBEB" d="M74.843,56.167c-0.618-5.154-11.864-15.952-19.016-14.463c-3.489,0.727-1.827,3.687,1.99,5.802
				c2.544,1.41,4.838,2.769,11.384,4.689c5.847,1.717,5.949,7.098,5.949,7.098L74.843,56.167z"/>
		</g>
	</g>
</g>
<g>
	<g>
		<path fill="#EBEBEB" d="M77.724,123.999c0.145-0.074,0.244-0.227,0.241-0.398c-0.364-28.404-12.31-50.345-22.267-63.75
			C44.912,45.328,34.057,37.408,33.949,37.33c-0.198-0.143-0.474-0.099-0.618,0.1c-0.143,0.198-0.099,0.475,0.1,0.617
			c0.107,0.078,10.87,7.935,21.576,22.356C64.877,73.699,76.72,95.458,77.08,123.61c0.003,0.244,0.204,0.439,0.448,0.438
			C77.598,124.046,77.665,124.028,77.724,123.999z"/>
	</g>
	<g>
		<path fill="#EBEBEB" d="M39.861,43.475l0.473-0.523c-5.04-4.377-13.182-17.46-19.06-12.311
			C16.546,34.783,34.777,38.611,39.861,43.475z"/>
	</g>
	<g>
		<g>
			<path fill="#EBEBEB" d="M43.728,46.594c-3.112-3.13-14.633-5.888-17.419-2.186c-1.359,1.806,1.085,3.104,4.154,3.028
				c2.045-0.05,3.937-0.039,8.271-1.282c3.872-1.111,6.502,2.233,6.502,2.233L43.728,46.594z"/>
		</g>
		<g>
			<path fill="#EBEBEB" d="M43.728,46.594c-3.015-3.254-6.563-16.199-3.655-19.773c1.418-1.744,2.786,0.93,3.033,4.46
				c0.165,2.353,0.366,4.522-0.265,9.625c-0.564,4.557,2.734,7.62,2.734,7.62L43.728,46.594z"/>
		</g>
	</g>
	<g>
		<g>
			<path fill="#EBEBEB" d="M51.199,55.08c-3.59-3.549-18.273-6.512-22.514-2.193c-2.068,2.106,0.935,3.557,4.973,3.413
				c2.691-0.097,5.172-0.119,11.056-1.633c5.256-1.353,8.18,2.452,8.18,2.452L51.199,55.08z"/>
		</g>
		<g>
			<path fill="#EBEBEB" d="M51.199,55.08c-3.442-3.693-6.057-18.546-1.676-22.72c2.136-2.035,3.509,1.021,3.276,5.084
				c-0.155,2.708-0.232,5.205-1.866,11.097c-1.459,5.263,2.385,8.73,2.385,8.73L51.199,55.08z"/>
		</g>
	</g>
	<g>
		<g>
			<path fill="#EBEBEB" d="M64.074,73.878c-2.942-3.418-18.104-6.829-23.883-3.08c-2.819,1.829,0.053,3.299,4.482,3.359
				c2.952,0.041,5.655,0.139,12.462-0.966c6.08-0.987,8.229,2.634,8.229,2.634L64.074,73.878z"/>
		</g>
		<g>
			<path fill="#EBEBEB" d="M64.074,73.878c-2.743-3.544-1.565-17.259,4.327-20.868c2.874-1.762,3.54,1.101,2.187,4.807
				c-0.901,2.471-1.662,4.752-5.033,10.065c-3.011,4.746,0.23,8.103,0.23,8.103L64.074,73.878z"/>
		</g>
	</g>
	<g>
		<g>
			<path fill="#EBEBEB" d="M58.217,64.878c-3.56-3.812-20.31-7.338-26.128-2.952c-2.838,2.14,0.427,3.742,5.215,3.71
				c3.191-0.021,6.12,0.028,13.345-1.38c6.453-1.258,9.179,2.802,9.179,2.802L58.217,64.878z"/>
		</g>
		<g>
			<path fill="#EBEBEB" d="M58.217,64.878c-3.358-3.959-3.624-19.547,2.333-23.777c2.905-2.063,3.944,1.169,2.899,5.405
				c-0.697,2.824-1.262,5.43-4.305,11.535c-2.719,5.453,1.156,9.188,1.156,9.188L58.217,64.878z"/>
		</g>
	</g>
</g>
<g>
	<path fill="#C8D6D3" d="M70.758,63.937c-10.399,3.691-20.895-8.885-16.017-28.043L70.758,63.937z"/>
</g>
<g>
	<path fill="#D6D7D9" d="M64.394,51.499c0.06-0.034,0.108-0.089,0.133-0.159c0.055-0.155-0.026-0.326-0.182-0.382l-9.069-3.226
		c-0.156-0.056-0.326,0.025-0.382,0.181c-0.055,0.155,0.026,0.326,0.182,0.382l9.07,3.226C64.23,51.55,64.321,51.541,64.394,51.499z
		"/>
</g>
<g>
	<path fill="#D6D7D9" d="M68.138,58.054c0.063-0.035,0.112-0.094,0.136-0.168c0.05-0.156-0.036-0.325-0.193-0.376l-9.737-3.133
		c-0.157-0.051-0.325,0.035-0.376,0.192c-0.05,0.157,0.036,0.325,0.193,0.376l9.737,3.134
		C67.981,58.106,68.068,58.094,68.138,58.054z"/>
</g>
<path fill="#C8D6D3" d="M70.758,63.937c8.462-7.082,2.962-22.511-16.017-28.043L70.758,63.937z"/>
<g>
	<g>
		<path fill="#EBEBEB" d="M88.527,121.896c-0.075-0.146-0.066-0.326,0.036-0.467c16.841-22.873,39.333-33.75,55.235-38.846
			c17.226-5.521,30.662-5.636,30.797-5.636c0.244-0.001,0.441,0.196,0.443,0.44c0,0.244-0.197,0.443-0.441,0.444
			c-0.133,0.001-13.457,0.117-30.56,5.603c-15.769,5.059-38.069,15.846-54.761,38.52c-0.145,0.195-0.422,0.238-0.619,0.094
			C88.601,122.007,88.557,121.954,88.527,121.896z"/>
	</g>
	<g>
		<path fill="#EBEBEB" d="M166.208,78.499l-0.078-0.701c6.645-0.622,20.885-6.514,22.662,1.097
			C190.224,85.015,173.175,77.505,166.208,78.499z"/>
	</g>
	<g>
		<g>
			<path fill="#EBEBEB" d="M161.249,78.781c4.354-0.73,15.322,3.738,15.432,8.371c0.053,2.26-2.691,1.891-5.141,0.043
				c-1.633-1.232-3.176-2.326-5.975-5.861c-2.5-3.158-6.586-1.973-6.586-1.973L161.249,78.781z"/>
		</g>
		<g>
			<path fill="#EBEBEB" d="M161.249,78.781c4.346-0.889,14.771-9.343,14.488-13.943c-0.137-2.243-2.807-0.866-5.063,1.858
				c-1.504,1.816-2.934,3.463-5.391,7.978c-2.197,4.033-6.662,4.602-6.662,4.602L161.249,78.781z"/>
		</g>
	</g>
	<g>
		<g>
			<path fill="#EBEBEB" d="M150.233,81.327c4.984-0.795,18.646,5.35,19.576,11.33c0.455,2.918-2.83,2.348-6.029-0.123
				c-2.132-1.645-4.135-3.107-8.035-7.766c-3.484-4.162-8.078-2.771-8.078-2.771L150.233,81.327z"/>
		</g>
		<g>
			<path fill="#EBEBEB" d="M150.233,81.327c4.949-0.998,15.727-11.547,14.598-17.492c-0.553-2.898-3.447-1.215-5.625,2.224
				c-1.451,2.291-2.844,4.366-4.947,10.107c-1.88,5.127-7.025,5.706-7.025,5.706L150.233,81.327z"/>
		</g>
	</g>
	<g>
		<g>
			<path fill="#EBEBEB" d="M128.817,89.106c4.383-1.064,18.693,4.994,21.207,11.408c1.226,3.129-1.965,2.65-5.601,0.121
				c-2.423-1.688-4.677-3.184-9.567-8.047c-4.367-4.344-8.223-2.652-8.223-2.652L128.817,89.106z"/>
		</g>
		<g>
			<path fill="#EBEBEB" d="M128.817,89.106c4.293-1.283,11.326-13.117,8.639-19.483c-1.311-3.105-3.518-1.168-4.578,2.634
				c-0.706,2.533-1.417,4.83-1.771,11.113c-0.317,5.611-4.907,6.451-4.907,6.451L128.817,89.106z"/>
		</g>
	</g>
	<g>
		<g>
			<path fill="#EBEBEB" d="M138.82,85.202c5.114-1.023,20.782,5.867,22.957,12.82c1.06,3.393-2.526,2.793-6.4-0.021
				c-2.582-1.877-4.991-3.543-10.043-8.896c-4.513-4.781-9.093-3.068-9.093-3.068L138.82,85.202z"/>
		</g>
		<g>
			<path fill="#EBEBEB" d="M138.82,85.202c5.036-1.262,14.332-13.777,11.954-20.685c-1.159-3.369-3.887-1.349-5.504,2.704
				c-1.08,2.701-2.139,5.148-3.221,11.884c-0.967,6.017-6.292,6.794-6.292,6.794L138.82,85.202z"/>
		</g>
	</g>
</g>
<g>
	<g>
		<path fill="#EBEBEB" d="M105.663,127.001c0.074-0.145,0.066-0.326-0.037-0.467c-16.84-22.873-39.331-33.75-55.233-38.846
			c-17.226-5.52-30.663-5.635-30.797-5.635c-0.244-0.002-0.443,0.195-0.444,0.439s0.196,0.443,0.44,0.443
			c0.133,0.002,13.458,0.119,30.56,5.604c15.769,5.059,38.07,15.846,54.762,38.52c0.146,0.197,0.422,0.238,0.618,0.094
			C105.589,127.112,105.633,127.06,105.663,127.001z"/>
	</g>
	<g>
		<path fill="#EBEBEB" d="M27.981,83.604l0.08-0.701c-6.646-0.621-20.885-6.513-22.664,1.098
			C3.967,90.12,21.016,82.612,27.981,83.604z"/>
	</g>
	<g>
		<g>
			<path fill="#EBEBEB" d="M32.941,83.888c-4.353-0.732-15.323,3.738-15.431,8.369c-0.053,2.26,2.69,1.893,5.14,0.043
				c1.633-1.232,3.177-2.324,5.976-5.859c2.5-3.158,6.586-1.973,6.586-1.973L32.941,83.888z"/>
		</g>
		<g>
			<path fill="#EBEBEB" d="M32.941,83.888c-4.346-0.891-14.771-9.344-14.489-13.944c0.137-2.243,2.806-0.867,5.063,1.858
				c1.504,1.816,2.932,3.463,5.391,7.978c2.196,4.033,6.661,4.602,6.661,4.602L32.941,83.888z"/>
		</g>
	</g>
	<g>
		<g>
			<path fill="#EBEBEB" d="M43.957,86.433c-4.985-0.793-18.646,5.352-19.577,11.332c-0.454,2.916,2.831,2.346,6.03-0.123
				c2.132-1.646,4.135-3.109,8.036-7.768c3.484-4.16,8.077-2.771,8.077-2.771L43.957,86.433z"/>
		</g>
		<g>
			<path fill="#EBEBEB" d="M43.957,86.433c-4.95-0.998-15.727-11.546-14.597-17.491c0.551-2.899,3.447-1.215,5.625,2.223
				c1.451,2.292,2.843,4.367,4.947,10.108c1.879,5.127,7.024,5.707,7.024,5.707L43.957,86.433z"/>
		</g>
	</g>
	<g>
		<g>
			<path fill="#EBEBEB" d="M65.373,94.212c-4.383-1.064-18.694,4.994-21.207,11.41c-1.226,3.127,1.965,2.648,5.601,0.119
				c2.423-1.688,4.677-3.182,9.566-8.045c4.368-4.346,8.224-2.654,8.224-2.654L65.373,94.212z"/>
		</g>
		<g>
			<path fill="#EBEBEB" d="M65.373,94.212c-4.294-1.283-11.326-13.115-8.639-19.483c1.311-3.105,3.518-1.167,4.578,2.634
				c0.707,2.533,1.417,4.83,1.772,11.113c0.317,5.611,4.907,6.453,4.907,6.453L65.373,94.212z"/>
		</g>
	</g>
	<g>
		<g>
			<path fill="#EBEBEB" d="M55.37,90.308c-5.114-1.023-20.782,5.867-22.957,12.82c-1.061,3.393,2.527,2.793,6.4-0.021
				c2.582-1.877,4.991-3.541,10.043-8.896c4.512-4.781,9.093-3.068,9.093-3.068L55.37,90.308z"/>
		</g>
		<g>
			<path fill="#EBEBEB" d="M55.37,90.308c-5.036-1.262-14.332-13.776-11.955-20.685c1.16-3.369,3.887-1.348,5.505,2.705
				c1.079,2.701,2.138,5.148,3.22,11.884c0.967,6.016,6.292,6.795,6.292,6.795L55.37,90.308z"/>
		</g>
	</g>
</g>
<linearGradient id="SVGID_2_" gradientUnits="userSpaceOnUse" x1="112.3848" y1="81.0947" x2="234.4951" y2="25.0846">
	<stop  offset="0.0194" style="stop-color:#04191E"/>
	<stop  offset="0.5594" style="stop-color:#0E2F41"/>
	<stop  offset="1" style="stop-color:#073C5B"/>
</linearGradient>
<path fill="url(#SVGID_2_)" d="M172.146,70.37c-23.805,0.923-42.635,12.62-55.47,34.743c-5.149-6.932-10.298-13.863-15.446-20.795
	c11.496-26.689,31.136-43.045,57.41-47.539C163.142,47.976,167.644,59.172,172.146,70.37z"/>
<path fill="#3B4F66" d="M167.272,63.91c-2.793-6.755-5.583-13.512-8.375-20.268c-2.142,0.312-4.604-1.105-5.549-3.296
	c-21.158,5.461-36.996,18.394-48.123,39.163c1.054,1.469,1.041,4.324,0.066,6.471c3.162,4.311,6.322,8.623,9.484,12.934
	c1.033-1.912,2.793-2.193,3.846-0.725c11.809-17.445,27.144-27.242,46.742-29.985C164.419,66.013,165.257,64.036,167.272,63.91z"/>
<path fill="#073C5B" d="M141.556,59.937c3.066,5.847,3.333,14.142-2.074,17.817c-5.117,3.477-11.947-0.21-15.334-5.267
	c-3.787-5.653-3.814-15.051,1.162-19.361C130.772,48.394,138.558,54.221,141.556,59.937z"/>
<path opacity="0.3" fill="#A3B3D6" d="M153.642,55.472c0.83,1.805,0.154,3.587-1.475,4.066c-1.629,0.48-3.615-0.476-4.471-2.222
	c-0.856-1.746-0.24-3.67,1.416-4.209C150.767,52.569,152.812,53.667,153.642,55.472z"/>
<path fill="#158093" d="M115.579,82.913c0.904,1.314,2.473,1.172,3.561-0.25c1.087-1.422,1.274-3.637,0.363-5.02
	c-0.912-1.383-2.574-1.356-3.655,0.133C114.768,79.265,114.673,81.597,115.579,82.913z"/>
<g>
	<path fill="#04688B" d="M134.929,71.486c-1.063,0.667-2.188,1.134-3.383,1.407c-0.621-1.038-0.932-1.557-1.551-2.595
		c0.711-0.124,1.443-0.321,2.198-0.59s1.379-0.568,1.868-0.911c0.402-0.284,0.67-0.542,0.795-0.781
		c0.127-0.239,0.115-0.489-0.032-0.749c-0.103-0.179-0.257-0.284-0.465-0.315c-0.208-0.03-0.517-0.015-0.923,0.054
		c-0.408,0.067-0.944,0.188-1.602,0.364c-0.739,0.198-1.381,0.29-1.924,0.271s-1.006-0.148-1.395-0.392
		c-0.388-0.243-0.75-0.645-1.086-1.207c-0.514-0.86-0.675-1.742-0.475-2.643c0.201-0.901,0.762-1.825,1.703-2.73
		c-0.255-0.439-0.382-0.66-0.637-1.1c0.593-0.467,0.892-0.695,1.496-1.145c0.25,0.438,0.375,0.657,0.625,1.096
		c1-0.651,2.141-1.073,3.421-1.25c0.166,1.18,0.251,1.769,0.423,2.94c-1.324,0.163-2.386,0.561-3.191,1.156
		c-0.385,0.284-0.622,0.54-0.716,0.762c-0.095,0.222-0.082,0.435,0.036,0.638c0.102,0.176,0.242,0.278,0.42,0.31
		c0.179,0.03,0.445,0.013,0.805-0.05c0.359-0.062,0.84-0.177,1.445-0.336c1.24-0.307,2.24-0.32,2.98-0.083
		c0.74,0.236,1.341,0.776,1.797,1.602c0.516,0.932,0.668,1.844,0.467,2.739c-0.2,0.895-0.758,1.713-1.656,2.49
		c0.357,0.627,0.536,0.94,0.895,1.567c-0.594,0.383-0.888,0.579-1.471,0.98C135.45,72.386,135.276,72.086,134.929,71.486z"/>
</g>
<path fill="#04688B" d="M133.649,45.741c-13.982,8.193-24.932,21.19-32.42,38.577c5.148,6.932,10.297,13.863,15.446,20.795
	c10.386-17.9,24.698-28.972,42.393-33.037C144.862,65.202,137.479,54.614,133.649,45.741z"/>
<g>
	
		<linearGradient id="SVGID_3_" gradientUnits="userSpaceOnUse" x1="-535.6777" y1="43.5322" x2="-472.7773" y2="43.5322" gradientTransform="matrix(-0.8944 0.4473 0.4473 0.8944 -341.0421 286.7509)">
		<stop  offset="0.0194" style="stop-color:#04191E"/>
		<stop  offset="0.5594" style="stop-color:#0E2F41"/>
		<stop  offset="1" style="stop-color:#073C5B"/>
	</linearGradient>
	<path fill="url(#SVGID_3_)" d="M103.161,104.188c5.557,4.92,11.114,9.838,16.672,14.758c15.638-13.115,32.882-17.08,52.895-13.869
		c-0.699-2.646-1.844-5.795-3.35-9.111c-1.777-0.123-2.752,2.17-2.193,5.066c-8.074-0.443-15.51,0.219-22.546,2.139
		c4.086-3.107,2.5-12.996,1.038-17.209c-1.561-4.5-6.314-11.617-11.788-11.58c3.143-1.938,6.435-3.661,9.88-5.177
		c-3.154-0.475-6.4,0.092-9.654,2.051C121.515,79.058,111.214,90.163,103.161,104.188z M142.769,93.851
		c-0.738,0.928-1.602,1.609-2.601,2.088c0.318,0.699,0.478,1.049,0.795,1.75c-0.577,0.217-0.863,0.33-1.435,0.563
		c-0.334-0.705-0.5-1.057-0.834-1.762c-1.02,0.26-1.921,0.211-2.72-0.16c-0.798-0.369-1.449-1.02-1.949-1.988
		c-0.443-0.857-0.597-1.68-0.448-2.477c0.147-0.797,0.607-1.703,1.4-2.707c0.396-0.484,0.7-0.885,0.908-1.199
		c0.207-0.314,0.34-0.57,0.395-0.766c0.055-0.193,0.035-0.395-0.058-0.602c-0.107-0.238-0.27-0.375-0.485-0.41
		c-0.217-0.035-0.522,0.057-0.916,0.277c-0.826,0.465-1.609,1.293-2.329,2.453c-0.845-0.793-1.269-1.182-2.12-1.941
		c0.71-1.15,1.547-2.078,2.5-2.75c-0.233-0.492-0.35-0.74-0.584-1.232c0.619-0.391,0.932-0.582,1.559-0.955
		c0.233,0.512,0.35,0.77,0.583,1.281c1.128-0.479,2.101-0.547,2.897-0.223c0.796,0.322,1.418,1.041,1.867,2.123
		c0.295,0.707,0.451,1.34,0.471,1.895c0.021,0.553-0.082,1.105-0.305,1.656s-0.578,1.121-1.063,1.701
		c-0.429,0.514-0.764,0.939-0.998,1.273s-0.385,0.604-0.453,0.811c-0.069,0.205-0.056,0.408,0.039,0.609
		c0.14,0.291,0.331,0.453,0.576,0.488c0.246,0.037,0.568-0.037,0.972-0.221c0.489-0.223,1.003-0.596,1.547-1.125
		c0.545-0.529,1.022-1.1,1.431-1.715C141.954,91.894,142.226,92.546,142.769,93.851z M117.916,114.638
		c-3.397-3.229-6.796-6.457-10.192-9.686c1.203-1.896,1.33-4.322,0.207-5.512c5.604-8,11.891-14.738,18.994-20.232
		c-2.438,4.763-1.323,11.548,1.121,15.773c2.482,4.293,8.398,9.217,13.355,9.176c-6.662,2.229-12.99,5.646-19.189,10.402
		C121.089,113.37,119.143,113.368,117.916,114.638z"/>
	<path fill="#20506C" d="M107.724,104.952c3.396,3.229,6.795,6.457,10.192,9.686c1.227-1.27,3.173-1.268,4.296-0.078
		c6.199-4.756,12.527-8.174,19.189-10.402c-4.957,0.041-10.873-4.883-13.355-9.176c-2.444-4.225-3.559-11.01-1.121-15.773
		c-7.104,5.494-13.391,12.232-18.994,20.232C109.054,100.63,108.927,103.056,107.724,104.952z M119.223,98.55
		c1.194-1.199,2.956-1.031,3.888,0.313c0.934,1.342,0.702,3.213-0.479,4.24c-1.18,1.027-2.873,0.961-3.82-0.209
		C117.863,101.724,118.028,99.749,119.223,98.55z"/>
	
		<linearGradient id="SVGID_4_" gradientUnits="userSpaceOnUse" x1="-567.4727" y1="41.7021" x2="-515.262" y2="41.7021" gradientTransform="matrix(-0.8944 0.4473 0.4473 0.8944 -341.0421 286.7509)">
		<stop  offset="0.0194" style="stop-color:#04191E"/>
		<stop  offset="0.5594" style="stop-color:#0E2F41"/>
		<stop  offset="1" style="stop-color:#073C5B"/>
	</linearGradient>
	<path fill="url(#SVGID_4_)" d="M143.769,69.206c-3.445,1.516-6.737,3.239-9.88,5.177c5.474-0.037,10.228,7.08,11.788,11.58
		c1.462,4.213,3.048,14.102-1.038,17.209c7.036-1.92,14.472-2.582,22.546-2.139c-0.559-2.896,0.416-5.189,2.193-5.066
		C164.136,84.415,154.491,70.817,143.769,69.206z M157.466,83.116c0.573,2.348-0.24,4.391-1.791,4.633s-3.32-1.299-3.977-3.512
		s0.113-4.373,1.747-4.748C155.08,79.113,156.894,80.771,157.466,83.116z"/>
	<path fill="#073C5B" d="M119.223,98.55c1.194-1.199,2.956-1.031,3.888,0.313c0.934,1.342,0.702,3.213-0.479,4.24
		c-1.18,1.027-2.873,0.961-3.82-0.209C117.863,101.724,118.028,99.749,119.223,98.55z"/>
	<path fill="#073C5B" d="M157.466,83.116c0.573,2.348-0.24,4.391-1.791,4.633s-3.32-1.299-3.977-3.512s0.113-4.373,1.747-4.748
		C155.08,79.113,156.894,80.771,157.466,83.116z"/>
	<path fill="#20506C" d="M140.963,97.688c-0.577,0.217-0.863,0.33-1.435,0.563c-0.334-0.705-0.5-1.057-0.834-1.762
		c-1.02,0.26-1.921,0.211-2.72-0.16c-0.798-0.369-1.449-1.02-1.949-1.988c-0.443-0.857-0.597-1.68-0.448-2.477
		c0.147-0.797,0.607-1.703,1.4-2.707c0.396-0.484,0.7-0.885,0.908-1.199c0.207-0.314,0.34-0.57,0.395-0.766
		c0.055-0.193,0.035-0.395-0.058-0.602c-0.107-0.238-0.27-0.375-0.485-0.41c-0.217-0.035-0.522,0.057-0.916,0.277
		c-0.826,0.465-1.609,1.293-2.329,2.453c-0.845-0.793-1.269-1.182-2.12-1.941c0.71-1.15,1.547-2.078,2.5-2.75
		c-0.233-0.492-0.35-0.74-0.584-1.232c0.619-0.391,0.932-0.582,1.559-0.955c0.233,0.512,0.35,0.77,0.583,1.281
		c1.128-0.479,2.101-0.547,2.897-0.223c0.796,0.322,1.418,1.041,1.867,2.123c0.295,0.707,0.451,1.34,0.471,1.895
		c0.021,0.553-0.082,1.105-0.305,1.656s-0.578,1.121-1.063,1.701c-0.429,0.514-0.764,0.939-0.998,1.273s-0.385,0.604-0.453,0.811
		c-0.069,0.205-0.056,0.408,0.039,0.609c0.14,0.291,0.331,0.453,0.576,0.488c0.246,0.037,0.568-0.037,0.972-0.221
		c0.489-0.223,1.003-0.596,1.547-1.125c0.545-0.529,1.022-1.1,1.431-1.715c0.543,1.307,0.814,1.959,1.357,3.264
		c-0.738,0.928-1.602,1.609-2.601,2.088C140.486,96.638,140.646,96.987,140.963,97.688z"/>
</g>
<g>
	<g>
		
			<linearGradient id="SVGID_5_" gradientUnits="userSpaceOnUse" x1="387.3564" y1="-243.8691" x2="391.1742" y2="-252.5526" gradientTransform="matrix(-0.9845 0.1752 -0.1752 -0.9845 499.177 -205.4527)">
			<stop  offset="0" style="stop-color:#073C5B"/>
			<stop  offset="0.1449" style="stop-color:#083A58"/>
			<stop  offset="0.3569" style="stop-color:#0C354D"/>
			<stop  offset="0.61" style="stop-color:#0E2D3D"/>
			<stop  offset="0.8927" style="stop-color:#092027"/>
			<stop  offset="0.9806" style="stop-color:#04191E"/>
		</linearGradient>
		<path fill="url(#SVGID_5_)" d="M135.134,114.177c2.936-15.908,25.478-19.799,45.031,0.668L135.134,114.177z"/>
	</g>
	<g>
		<path fill="#D6D7D9" d="M154.583,115.409c-0.001,0.102,0.031,0.205,0.097,0.289c0.147,0.186,0.411,0.209,0.587,0.055l10.303-9.064
			c0.176-0.156,0.199-0.432,0.051-0.619c-0.146-0.186-0.41-0.209-0.586-0.055l-10.302,9.064
			C154.636,115.165,154.585,115.286,154.583,115.409z"/>
	</g>
	<g>
		<path fill="#D6D7D9" d="M144.056,115.255c-0.002,0.105,0.033,0.211,0.105,0.297c0.152,0.18,0.416,0.197,0.588,0.037l10.663-9.979
			c0.172-0.16,0.187-0.438,0.034-0.619s-0.416-0.197-0.588-0.037l-10.663,9.979C144.104,115.017,144.058,115.136,144.056,115.255z"
			/>
	</g>
	
		<linearGradient id="SVGID_6_" gradientUnits="userSpaceOnUse" x1="398.0039" y1="-257.7124" x2="380.7244" y2="-265.9545" gradientTransform="matrix(-0.9845 0.1752 -0.1752 -0.9845 499.177 -205.4527)">
		<stop  offset="0.0194" style="stop-color:#04191E"/>
		<stop  offset="0.8361" style="stop-color:#0B3751"/>
		<stop  offset="1" style="stop-color:#073C5B"/>
	</linearGradient>
	<path fill="url(#SVGID_6_)" d="M135.134,114.177c2.51,15.99,24.938,20.547,45.031,0.668L135.134,114.177z"/>
</g>
<g>
	<g>
		<ellipse fill="#3B4F66" cx="139.338" cy="130.278" rx="14.185" ry="2.109"/>
		<ellipse fill="#3B4F66" cx="139.338" cy="130.278" rx="13.349" ry="1.717"/>
		<path fill="#3B4F66" d="M125.153,134.581c0,1.166,6.352,2.111,14.184,2.111c7.834,0,14.186-0.945,14.186-2.111v-4.303
			c0,1.166-6.352,2.109-14.186,2.109c-7.832,0-14.184-0.943-14.184-2.109V134.581z"/>
	</g>
	<g>
		<ellipse fill="#3B4F66" cx="138.982" cy="125.052" rx="14.185" ry="2.111"/>
		<ellipse fill="#3B4F66" cx="138.982" cy="125.052" rx="13.349" ry="1.719"/>
		<path fill="#3B4F66" d="M124.798,129.356c0,1.166,6.352,2.111,14.184,2.111c7.834,0,14.186-0.945,14.186-2.111v-4.305
			c0,1.166-6.352,2.111-14.186,2.111c-7.832,0-14.184-0.945-14.184-2.111V129.356z"/>
	</g>
	<g>
		<ellipse fill="#3B4F66" cx="140.2" cy="120.249" rx="14.184" ry="2.111"/>
		<ellipse fill="#3B4F66" cx="140.199" cy="120.249" rx="13.349" ry="1.719"/>
		<path fill="#3B4F66" d="M126.017,124.554c0,1.166,6.35,2.111,14.184,2.111s14.184-0.945,14.184-2.111v-4.305
			c0,1.166-6.35,2.111-14.184,2.111s-14.184-0.945-14.184-2.111V124.554z"/>
	</g>
	<g>
		<ellipse fill="#3B4F66" cx="139.127" cy="115.481" rx="14.185" ry="2.111"/>
		<ellipse fill="#3B4F66" cx="139.127" cy="115.481" rx="13.349" ry="1.719"/>
		<path fill="#3B4F66" d="M124.942,119.786c0,1.166,6.352,2.111,14.186,2.111c7.832,0,14.184-0.945,14.184-2.111v-4.305
			c0,1.166-6.352,2.111-14.184,2.111c-7.834,0-14.186-0.945-14.186-2.111V119.786z"/>
	</g>
	<g>
		<ellipse fill="#3B4F66" cx="139.15" cy="110.587" rx="14.185" ry="2.111"/>
		<ellipse fill="#3B4F66" cx="139.15" cy="110.587" rx="13.349" ry="1.719"/>
		<path fill="#3B4F66" d="M124.966,114.892c0,1.166,6.352,2.111,14.184,2.111c7.834,0,14.186-0.945,14.186-2.111v-4.305
			c0,1.166-6.352,2.111-14.186,2.111c-7.832,0-14.184-0.945-14.184-2.111V114.892z"/>
	</g>
	<g>
		<ellipse fill="#3B4F66" cx="137.537" cy="105.71" rx="14.185" ry="2.111"/>
		<ellipse fill="#3B4F66" cx="137.537" cy="105.71" rx="13.349" ry="1.719"/>
		<path fill="#3B4F66" d="M123.353,110.015c0,1.166,6.352,2.111,14.184,2.111c7.834,0,14.186-0.945,14.186-2.111v-4.305
			c0,1.166-6.352,2.111-14.186,2.111c-7.832,0-14.184-0.945-14.184-2.111V110.015z"/>
	</g>
	<g>
		<ellipse fill="#3B4F66" cx="137.182" cy="100.462" rx="14.185" ry="2.111"/>
		<ellipse fill="#3B4F66" cx="137.182" cy="100.462" rx="13.349" ry="1.719"/>
		<path fill="#3B4F66" d="M122.997,104.767c0,1.166,6.352,2.111,14.184,2.111c7.834,0,14.186-0.945,14.186-2.111v-4.305
			c0,1.166-6.352,2.111-14.186,2.111c-7.832,0-14.184-0.945-14.184-2.111V104.767z"/>
	</g>
	<g>
		<ellipse fill="#3B4F66" cx="138.269" cy="95.542" rx="14.184" ry="2.111"/>
		<ellipse fill="#3B4F66" cx="138.269" cy="95.542" rx="13.35" ry="1.719"/>
		<path fill="#3B4F66" d="M124.085,99.847c0,1.166,6.35,2.111,14.184,2.111s14.184-0.945,14.184-2.111v-4.305
			c0,1.166-6.35,2.111-14.184,2.111s-14.184-0.945-14.184-2.111V99.847z"/>
	</g>
	<g>
		<ellipse fill="#3B4F66" cx="137.421" cy="90.728" rx="14.184" ry="2.111"/>
		<ellipse fill="#3B4F66" cx="137.42" cy="90.728" rx="13.349" ry="1.719"/>
		<path fill="#3B4F66" d="M123.237,95.032c0,1.166,6.35,2.109,14.184,2.109s14.184-0.943,14.184-2.109v-4.305
			c0,1.166-6.35,2.111-14.184,2.111s-14.184-0.945-14.184-2.111V95.032z"/>
	</g>
	<g>
		<ellipse fill="#3B4F66" cx="137.421" cy="85.942" rx="14.184" ry="2.109"/>
		<ellipse fill="#3B4F66" cx="137.42" cy="85.942" rx="13.349" ry="1.717"/>
		<path fill="#3B4F66" d="M123.237,90.247c0,1.164,6.35,2.109,14.184,2.109s14.184-0.945,14.184-2.109v-4.305
			c0,1.164-6.35,2.109-14.184,2.109s-14.184-0.945-14.184-2.109V90.247z"/>
	</g>
	<g>
		<ellipse fill="#3B4F66" cx="136.733" cy="81.11" rx="14.184" ry="2.111"/>
		<ellipse fill="#3B4F66" cx="136.734" cy="81.11" rx="13.349" ry="1.719"/>
		<ellipse fill="#3B4F66" cx="136.734" cy="80.999" rx="9.739" ry="1.068"/>
		<ellipse fill="#3B4F66" cx="136.734" cy="81.11" rx="9.739" ry="0.957"/>
		<path fill="#3B4F66" d="M122.55,85.415c0,1.166,6.35,2.111,14.184,2.111s14.184-0.945,14.184-2.111V81.11
			c0,1.166-6.35,2.111-14.184,2.111s-14.184-0.945-14.184-2.111V85.415z"/>
	</g>
	<path fill="#3B4F66" d="M153.312,119.442v-3.961c0-0.096-0.047-0.189-0.131-0.281c0.1-0.102,0.154-0.203,0.154-0.309v-4.305
		c0-0.354-0.586-0.686-1.613-0.977v-3.9c0-0.203-0.199-0.4-0.563-0.586c0.133-0.117,0.207-0.236,0.207-0.357v-4.109
		c0.699-0.25,1.086-0.523,1.086-0.811v-4.305c0-0.252-0.299-0.496-0.848-0.721v-4.094c0-0.082-0.033-0.162-0.094-0.24
		c0.061-0.08,0.094-0.16,0.094-0.24v-4.305c0-0.229-0.242-0.445-0.688-0.65V81.11c0-1.166-6.35-2.11-14.184-2.11
		s-14.184,0.944-14.184,2.11v4.305c0,0.227,0.242,0.445,0.688,0.648v4.184c0,0.08,0.033,0.16,0.094,0.24
		c-0.061,0.078-0.094,0.158-0.094,0.24v4.305c0,0.252,0.299,0.496,0.848,0.721v3.898c-0.699,0.25-1.088,0.523-1.088,0.811v4.305
		c0,0.203,0.199,0.4,0.561,0.588c-0.133,0.115-0.205,0.234-0.205,0.355v4.305c0,0.354,0.586,0.686,1.613,0.979v3.898
		c0,0.096,0.047,0.189,0.131,0.281c-0.1,0.102-0.154,0.205-0.154,0.309v4.305c0,0.285,0.383,0.559,1.074,0.807v3.604
		c-0.781,0.262-1.219,0.551-1.219,0.855v4.305c0,0.201,0.193,0.395,0.545,0.578c-0.123,0.111-0.189,0.227-0.189,0.344v4.303
		c0,1.166,6.352,2.111,14.184,2.111c7.834,0,14.186-0.945,14.186-2.111v-4.303c0-0.201-0.193-0.395-0.545-0.58
		c0.123-0.111,0.189-0.225,0.189-0.342v-3.947c0.779-0.262,1.217-0.551,1.217-0.855v-4.305
		C154.384,119.964,154.001,119.692,153.312,119.442z"/>
</g>
<g>
	<ellipse fill="#A3B3D6" cx="54.953" cy="134.712" rx="14.184" ry="2.109"/>
	<ellipse fill="#3B4F66" cx="54.953" cy="134.712" rx="13.349" ry="1.717"/>
	<path fill="#A3B3D6" d="M69.137,139.015c0,1.166-6.351,2.111-14.184,2.111s-14.184-0.945-14.184-2.111v-4.303
		c0,1.164,6.35,2.109,14.184,2.109s14.184-0.945,14.184-2.109V139.015z"/>
	<ellipse fill="#3B4F66" cx="54.93" cy="129.815" rx="14.184" ry="2.111"/>
	<ellipse fill="#95A5C1" cx="54.93" cy="129.815" rx="13.349" ry="1.719"/>
	<path fill="#A3B3D6" d="M69.114,134.12c0,1.166-6.351,2.111-14.184,2.111s-14.184-0.945-14.184-2.111v-4.305
		c0,1.166,6.351,2.111,14.184,2.111s14.184-0.945,14.184-2.111V134.12z"/>
	<ellipse fill="#3B4F66" cx="56.543" cy="124.94" rx="14.184" ry="2.109"/>
	<ellipse fill="#95A5C1" cx="56.544" cy="124.94" rx="13.349" ry="1.717"/>
	<path fill="#A3B3D6" d="M70.728,129.243c0,1.166-6.351,2.111-14.184,2.111s-14.184-0.945-14.184-2.111v-4.303
		c0,1.166,6.351,2.109,14.184,2.109s14.184-0.943,14.184-2.109V129.243z"/>
	<ellipse fill="#3B4F66" cx="56.899" cy="119.69" rx="14.184" ry="2.111"/>
	<ellipse fill="#95A5C1" cx="56.899" cy="119.69" rx="13.349" ry="1.719"/>
	<path fill="#A3B3D6" d="M71.083,123.995c0,1.166-6.35,2.111-14.184,2.111s-14.184-0.945-14.184-2.111v-4.305
		c0,1.166,6.351,2.111,14.184,2.111s14.184-0.945,14.184-2.111V123.995z"/>
	<ellipse fill="#3B4F66" cx="56.119" cy="114.864" rx="14.184" ry="2.111"/>
	<ellipse fill="#95A5C1" cx="55.812" cy="114.771" rx="13.349" ry="1.719"/>
	<path fill="#A3B3D6" d="M70.303,119.075c0,1.166-6.351,2.111-14.184,2.111c-7.834,0-14.184-0.945-14.184-2.111v-4.305
		c0,1.166,6.35,2.111,14.184,2.111c7.833,0,14.184-0.945,14.184-2.111V119.075z"/>
	<ellipse fill="#3B4F66" cx="56.66" cy="109.956" rx="14.184" ry="2.111"/>
	<ellipse fill="#95A5C1" cx="56.659" cy="109.956" rx="13.349" ry="1.719"/>
	<path fill="#A3B3D6" d="M70.844,114.261c0,1.166-6.351,2.111-14.184,2.111s-14.184-0.945-14.184-2.111v-4.305
		c0,1.166,6.351,2.111,14.184,2.111s14.184-0.945,14.184-2.111V114.261z"/>
	<ellipse fill="#3B4F66" cx="56.899" cy="105.171" rx="14.184" ry="2.111"/>
	<ellipse fill="#95A5C1" cx="56.659" cy="105.171" rx="13.349" ry="1.719"/>
	<path fill="#A3B3D6" d="M71.151,109.476c0,1.166-6.351,2.109-14.184,2.109s-14.184-0.943-14.184-2.109v-4.305
		c0,1.166,6.351,2.111,14.184,2.111s14.184-0.945,14.184-2.111V109.476z"/>
	<ellipse fill="#3B4F66" cx="57.347" cy="100.339" rx="14.184" ry="2.111"/>
	<ellipse fill="#95A5C1" cx="57.346" cy="100.339" rx="13.349" ry="1.719"/>
	<ellipse fill="#3B4F66" cx="57.347" cy="100.229" rx="9.739" ry="1.066"/>
	<ellipse fill="#95A5C1" cx="57.347" cy="100.339" rx="9.739" ry="0.957"/>
	<path fill="#A3B3D6" d="M71.531,104.644c0,1.166-6.351,2.111-14.184,2.111s-14.184-0.945-14.184-2.111v-4.305
		c0,1.166,6.351,2.111,14.184,2.111s14.184-0.945,14.184-2.111V104.644z"/>
</g>
<g>
	<ellipse fill="#A3B3D6" cx="173.136" cy="136.462" rx="14.184" ry="2.109"/>
	<ellipse fill="#3B4F66" cx="173.136" cy="136.462" rx="13.349" ry="1.717"/>
	<path fill="#A3B3D6" d="M187.319,140.765c0,1.166-6.35,2.111-14.184,2.111s-14.184-0.945-14.184-2.111v-4.303
		c0,1.164,6.35,2.109,14.184,2.109s14.184-0.945,14.184-2.109V140.765z"/>
	<ellipse fill="#3B4F66" cx="173.113" cy="131.565" rx="14.184" ry="2.111"/>
	<ellipse fill="#95A5C1" cx="173.113" cy="131.565" rx="13.349" ry="1.719"/>
	<path fill="#A3B3D6" d="M187.297,135.87c0,1.166-6.351,2.111-14.185,2.111c-7.833,0-14.184-0.945-14.184-2.111v-4.305
		c0,1.166,6.351,2.111,14.184,2.111c7.834,0,14.185-0.945,14.185-2.111V135.87z"/>
	<ellipse fill="#3B4F66" cx="174.726" cy="126.69" rx="14.184" ry="2.109"/>
	<ellipse fill="#95A5C1" cx="174.727" cy="126.69" rx="13.349" ry="1.717"/>
	<path fill="#A3B3D6" d="M188.91,130.993c0,1.166-6.351,2.111-14.185,2.111c-7.833,0-14.184-0.945-14.184-2.111v-4.303
		c0,1.166,6.351,2.109,14.184,2.109c7.834,0,14.185-0.943,14.185-2.109V130.993z"/>
	<ellipse fill="#3B4F66" cx="175.081" cy="121.44" rx="14.184" ry="2.111"/>
	<ellipse fill="#95A5C1" cx="175.082" cy="121.44" rx="13.349" ry="1.719"/>
	<path fill="#A3B3D6" d="M189.265,125.745c0,1.166-6.35,2.111-14.184,2.111c-7.833,0-14.184-0.945-14.184-2.111v-4.305
		c0,1.166,6.351,2.111,14.184,2.111c7.834,0,14.184-0.945,14.184-2.111V125.745z"/>
	<ellipse fill="#3B4F66" cx="174.302" cy="116.614" rx="14.184" ry="2.111"/>
	<ellipse fill="#95A5C1" cx="173.994" cy="116.521" rx="13.349" ry="1.719"/>
	<path fill="#A3B3D6" d="M188.485,120.825c0,1.166-6.35,2.111-14.184,2.111s-14.184-0.945-14.184-2.111v-4.305
		c0,1.166,6.35,2.111,14.184,2.111s14.184-0.945,14.184-2.111V120.825z"/>
	<ellipse fill="#3B4F66" cx="174.842" cy="111.706" rx="14.184" ry="2.111"/>
	<ellipse fill="#95A5C1" cx="174.842" cy="111.706" rx="13.349" ry="1.719"/>
	<path fill="#A3B3D6" d="M189.026,116.011c0,1.166-6.351,2.111-14.184,2.111c-7.834,0-14.185-0.945-14.185-2.111v-4.305
		c0,1.166,6.351,2.111,14.185,2.111c7.833,0,14.184-0.945,14.184-2.111V116.011z"/>
	<ellipse fill="#3B4F66" cx="175.082" cy="106.921" rx="14.184" ry="2.111"/>
	<ellipse fill="#95A5C1" cx="174.842" cy="106.921" rx="13.349" ry="1.719"/>
	<path fill="#A3B3D6" d="M189.334,111.226c0,1.166-6.351,2.109-14.185,2.109c-7.833,0-14.184-0.943-14.184-2.109v-4.305
		c0,1.166,6.351,2.111,14.184,2.111c7.834,0,14.185-0.945,14.185-2.111V111.226z"/>
	<ellipse fill="#3B4F66" cx="175.529" cy="102.089" rx="14.185" ry="2.111"/>
	<ellipse fill="#95A5C1" cx="175.529" cy="102.089" rx="13.349" ry="1.719"/>
	<ellipse fill="#3B4F66" cx="175.529" cy="101.979" rx="9.739" ry="1.066"/>
	<ellipse fill="#95A5C1" cx="175.529" cy="102.089" rx="9.739" ry="0.957"/>
	<path fill="#A3B3D6" d="M189.714,106.394c0,1.166-6.352,2.111-14.185,2.111s-14.185-0.945-14.185-2.111v-4.305
		c0,1.166,6.352,2.111,14.185,2.111s14.185-0.945,14.185-2.111V106.394z"/>
</g>
<linearGradient id="SVGID_7_" gradientUnits="userSpaceOnUse" x1="69.1582" y1="100.7373" x2="3.263" y2="46.9916">
	<stop  offset="0.0194" style="stop-color:#04191E"/>
	<stop  offset="0.5594" style="stop-color:#0E2F41"/>
	<stop  offset="1" style="stop-color:#073C5B"/>
</linearGradient>
<path fill="url(#SVGID_7_)" d="M71.103,126.894c-10.201-17.678-25.044-27.309-44.947-31.146
	c7.292-13.514,14.583-27.026,21.875-40.54c24.716,13.948,38.972,35.747,43.79,63.532C84.915,121.456,78.008,124.175,71.103,126.894z
	"/>
<path fill="#3B4F66" d="M74.379,123.501c4.298-1.869,8.596-3.738,12.894-5.609c-0.481-2.191,0.23-4.516,1.693-5.248
	C83.075,90.632,71.363,73.782,52.193,61.38c-1.529,2.553-4.291,3.761-6.249,2.79c-4.521,8.049-9.042,16.098-13.563,24.149
	c1.755,0.463,1.897,2.975,0.369,5.527c16.386,4.973,28.391,13.617,37.62,28.109C71.833,121.224,73.662,121.89,74.379,123.501z"/>
<path fill="#073C5B" d="M71.594,101.565c-4.243,3.551-12.773,6.381-17.191,3.266c-5.081-3.58,0.589-13.941,3.715-17.779
	c3.707-4.551,13.335-11.18,18.263-4.273C80.631,88.735,76.419,97.528,71.594,101.565z"/>
<path fill="#04688B" d="M77.56,112.161c-1.292,0.775-2.905,0.258-3.661-1.113c-0.757-1.369-0.334-3.205,1.002-4.146
	s3.048-0.498,3.76,1.037C79.374,109.476,78.852,111.386,77.56,112.161z"/>
<path opacity="0.3" fill="#A3B3D6" d="M48.016,80.343c-1.342,2.01-1.278,4.207,0.096,4.965c1.375,0.76,3.565-0.084,4.939-1.938
	c1.375-1.855,1.392-4.147-0.015-5.059C51.629,77.398,49.358,78.334,48.016,80.343z"/>
<g opacity="0.3">
	<path fill="#A3B3D6" d="M59.877,98.312c-0.775-0.789-1.353-1.727-1.729-2.852c0.958-1.039,1.436-1.561,2.393-2.6
		c0.173,0.717,0.427,1.416,0.757,2.1c0.33,0.684,0.685,1.211,1.067,1.586c0.316,0.311,0.594,0.492,0.837,0.541
		c0.243,0.051,0.479-0.035,0.709-0.262c0.158-0.156,0.241-0.342,0.247-0.559c0.006-0.219-0.042-0.523-0.149-0.918
		c-0.106-0.393-0.275-0.906-0.501-1.537c-0.255-0.711-0.395-1.367-0.416-1.961c-0.021-0.596,0.072-1.148,0.281-1.662
		s0.572-1.055,1.091-1.619c0.793-0.861,1.623-1.324,2.483-1.355c0.859-0.031,1.75,0.367,2.645,1.203
		c0.395-0.402,0.592-0.604,0.986-1.004c0.462,0.566,0.689,0.852,1.137,1.432c-0.388,0.383-0.582,0.574-0.971,0.957
		c0.666,0.957,1.134,2.117,1.407,3.439c-1.059,0.422-1.59,0.641-2.656,1.1c-0.279-1.338-0.731-2.385-1.348-3.104
		c-0.294-0.344-0.55-0.533-0.765-0.574c-0.215-0.043-0.414,0.031-0.597,0.219c-0.158,0.162-0.245,0.344-0.26,0.547
		c-0.016,0.201,0.021,0.486,0.109,0.854s0.236,0.846,0.441,1.438c0.402,1.213,0.523,2.225,0.389,3.023s-0.559,1.518-1.27,2.172
		c-0.801,0.738-1.635,1.127-2.512,1.201s-1.741-0.188-2.609-0.781c-0.555,0.549-0.833,0.822-1.388,1.369
		c-0.457-0.414-0.688-0.617-1.155-1.02C59.069,99.136,59.338,98.86,59.877,98.312z"/>
</g>
<path fill="#04688B" d="M62.579,115.112c3.135,3.449,5.975,7.363,8.524,11.781c6.905-2.719,13.812-5.438,20.717-8.154
	C88.042,96.95,78.458,78.844,62.579,65.318V115.112z"/>
<g>
	<path fill="#455E7C" d="M121.276,140.265H73.833c-4.565,0-4.635-3.701-4.635-8.266V50.102c0-4.565,3.701-8.267,8.266-8.267h43.813
		c4.564,0,8.266,3.701,8.266,8.267v81.897C129.542,136.563,125.841,140.265,121.276,140.265z"/>
	<path fill="#455E7C" d="M116.37,140.265H72.557c-4.565,0-8.266-3.701-8.266-8.266V50.102c0-4.565,3.701-8.267,8.266-8.267h43.813
		c4.564,0,8.266,3.701,8.266,8.267v81.897C124.636,136.563,120.935,140.265,116.37,140.265z"/>
	<path fill="#455E7C" d="M72.557,139.538c-4.158,0-7.54-3.381-7.54-7.539V50.102c0-4.158,3.382-7.54,7.54-7.54h43.813
		c4.156,0,7.539,3.382,7.539,7.54v81.897c0,4.158-3.383,7.539-7.539,7.539H72.557z"/>
</g>
<g>
	<path fill="#506D8C" d="M116.37,43.288H72.557c-3.757,0-6.813,3.057-6.813,6.814v48.633c0,15.295,57.439-5.416,57.439-24.457
		V50.102C123.183,46.344,120.127,43.288,116.37,43.288z"/>
</g>
<path fill="#455E7C" d="M72.557,60.603c-2.156,0-3.909-1.754-3.909-3.909v-6.955c0-2.156,1.753-3.909,3.909-3.909h44.176
	c2.154,0,3.908,1.753,3.908,3.909v6.955c0,2.155-1.754,3.909-3.908,3.909H72.557z"/>
<path fill="#455E7C" d="M72.84,61.329c-2.315,0-4.192-1.877-4.192-4.192v-6.389c0-2.315,1.877-4.192,4.192-4.192h43.61
	c2.314,0,4.191,1.877,4.191,4.192v6.39c0,2.314-1.877,4.191-4.191,4.191H72.84z"/>
<path fill="#C2E0E3" d="M116.347,60.965H72.229c-2.171,0-3.932-1.76-3.932-3.932v-6.909c0-2.172,1.761-3.933,3.932-3.933h44.117
	c2.172,0,3.932,1.761,3.932,3.933v6.909C120.278,59.206,118.519,60.965,116.347,60.965z"/>
<path fill="#B0CACC" d="M114.273,46.192h-42.08c-2.155,0-3.909,1.754-3.909,3.91c0,0,0.007,3.832,0.013,3.916
	C68.297,62.411,114.273,55.065,114.273,46.192z"/>
<g>
	<circle fill="#FDFDFE" cx="75.533" cy="73.21" r="5.806"/>
	<circle fill="#FDFDFE" cx="75.213" cy="72.89" r="5.806"/>
</g>
<g>
	<circle fill="#FDFDFE" cx="88.26" cy="73.21" r="5.806"/>
	<circle fill="#FDFDFE" cx="87.939" cy="72.89" r="5.806"/>
</g>
<g>
	<circle fill="#FDFDFE" cx="100.987" cy="73.21" r="5.806"/>
	<circle fill="#FDFDFE" cx="100.666" cy="72.89" r="5.805"/>
</g>
<g>
	<circle fill="#C8D6D3" cx="113.713" cy="73.21" r="5.806"/>
	<circle fill="#C8D6D3" cx="113.393" cy="72.89" r="5.806"/>
</g>
<g opacity="0.3">
	<circle fill="#A3B3D6" cx="75.533" cy="87.185" r="5.806"/>
	<circle fill="#A3B3D6" cx="75.213" cy="86.864" r="5.806"/>
</g>
<g opacity="0.3">
	<circle fill="#A3B3D6" cx="88.26" cy="87.185" r="5.806"/>
	<circle fill="#A3B3D6" cx="87.939" cy="86.864" r="5.806"/>
</g>
<g opacity="0.3">
	<circle fill="#A3B3D6" cx="100.987" cy="87.185" r="5.806"/>
	<circle fill="#A3B3D6" cx="100.666" cy="86.864" r="5.805"/>
</g>
<g>
	<circle fill="#C8D6D3" cx="113.713" cy="87.185" r="5.806"/>
	<circle fill="#C8D6D3" cx="113.393" cy="86.864" r="5.806"/>
</g>
<g opacity="0.3">
	<circle fill="#A3B3D6" cx="75.533" cy="101.267" r="5.806"/>
	<circle fill="#A3B3D6" cx="75.213" cy="100.946" r="5.806"/>
</g>
<g opacity="0.3">
	<circle fill="#A3B3D6" cx="88.26" cy="101.267" r="5.806"/>
	<circle fill="#A3B3D6" cx="87.939" cy="100.946" r="5.806"/>
</g>
<g opacity="0.3">
	<circle fill="#A3B3D6" cx="100.987" cy="101.267" r="5.806"/>
	<circle fill="#A3B3D6" cx="100.666" cy="100.946" r="5.805"/>
</g>
<g>
	<circle fill="#C8D6D3" cx="113.713" cy="101.267" r="5.806"/>
	<circle fill="#C8D6D3" cx="113.393" cy="100.946" r="5.806"/>
</g>
<g opacity="0.3">
	<circle fill="#A3B3D6" cx="75.533" cy="115.349" r="5.806"/>
	<circle fill="#A3B3D6" cx="75.213" cy="115.028" r="5.806"/>
</g>
<g opacity="0.3">
	<circle fill="#A3B3D6" cx="88.26" cy="115.349" r="5.806"/>
	<circle fill="#A3B3D6" cx="87.939" cy="115.028" r="5.806"/>
</g>
<g opacity="0.3">
	<circle fill="#A3B3D6" cx="100.987" cy="115.349" r="5.806"/>
	<circle fill="#A3B3D6" cx="100.666" cy="115.028" r="5.805"/>
</g>
<circle fill="#04688B" cx="113.713" cy="115.349" r="5.806"/>
<circle fill="#C8D6D3" cx="113.394" cy="115.028" r="5.806"/>
<g opacity="0.3">
	<circle fill="#A3B3D6" cx="100.987" cy="129.431" r="5.806"/>
	<circle fill="#A3B3D6" cx="100.666" cy="129.11" r="5.805"/>
</g>
<circle fill="#04688B" cx="113.713" cy="129.431" r="5.806"/>
<circle fill="#C8D6D3" cx="113.393" cy="129.11" r="5.806"/>
<g opacity="0.3">
	<path fill="#A3B3D6" d="M88.26,123.624H75.533c-3.206,0-5.806,2.6-5.806,5.807c0,3.205,2.6,5.805,5.806,5.805H88.26
		c3.207,0,5.806-2.6,5.806-5.805C94.066,126.224,91.467,123.624,88.26,123.624z"/>
	<path fill="#A3B3D6" d="M87.939,123.304H75.213c-3.207,0-5.806,2.6-5.806,5.807s2.599,5.805,5.806,5.805h12.727
		c3.207,0,5.806-2.598,5.806-5.805S91.146,123.304,87.939,123.304z"/>
</g>
<text transform="matrix(1 0 0 1 73.9106 131.1074)" fill="#FFFFFF" font-family="'OpenSans-Semibold'" font-size="5.0827">0</text>
<text transform="matrix(1 0 0 1 73.9106 116.877)" fill="#FFFFFF" font-family="'OpenSans-Semibold'" font-size="5.0827">1</text>
<text transform="matrix(1 0 0 1 86.6445 116.877)" fill="#FFFFFF" font-family="'OpenSans-Semibold'" font-size="5.0827">2</text>
<text transform="matrix(1 0 0 1 99.3779 116.9512)" fill="#FFFFFF" font-family="'OpenSans-Semibold'" font-size="5.0827">3</text>
<text transform="matrix(1 0 0 1 111.9014 116.9141)" fill="#04688B" font-family="'OpenSans-Semibold'" font-size="5.0827">+</text>
<text transform="matrix(1 0 0 1 73.9106 102.9434)" fill="#FFFFFF" font-family="'OpenSans-Semibold'" font-size="5.0827">4</text>
<text transform="matrix(1 0 0 1 86.6445 102.9434)" fill="#FFFFFF" font-family="'OpenSans-Semibold'" font-size="5.0827">5</text>
<text transform="matrix(1 0 0 1 99.3779 103.0176)" fill="#FFFFFF" font-family="'OpenSans-Semibold'" font-size="5.0827">6</text>
<text transform="matrix(1 0 0 1 112.1455 102.9805)" fill="#04688B" font-family="'OpenSans-Semibold'" font-size="5.0827">–</text>
<text transform="matrix(1 0 0 1 73.9106 89.0107)" fill="#FFFFFF" font-family="'OpenSans-Semibold'" font-size="5.0827">7</text>
<text transform="matrix(1 0 0 1 86.6445 89.0107)" fill="#FFFFFF" font-family="'OpenSans-Semibold'" font-size="5.0827">8</text>
<text transform="matrix(1 0 0 1 99.3779 89.0859)" fill="#FFFFFF" font-family="'OpenSans-Semibold'" font-size="5.0827">9</text>
<text transform="matrix(1 0 0 1 112.2393 88.6846)" fill="#04688B" font-family="'OpenSans-Semibold'" font-size="5.0827">x</text>
<text transform="matrix(1 0 0 1 72.4395 75.0786)" fill="#04688B" font-family="'OpenSans-Semibold'" font-size="5.0827">AC</text>
<text transform="matrix(1 0 0 1 85.9053 75.0786)" fill="#04688B" font-family="'OpenSans-Semibold'" font-size="5.0827">M</text>
<text transform="matrix(1 0 0 1 98.6689 75.1528)" fill="#04688B" font-family="'OpenSans-Semibold'" font-size="5.0827">%</text>
<text transform="matrix(1 0 0 1 100.1563 131.126)" fill="#FFFFFF" font-family="'OpenSans-Semibold'" font-size="5.0827">,</text>
<text transform="matrix(1 0 0 1 111.9014 131.0889)" fill="#04688B" font-family="'OpenSans-Semibold'" font-size="5.0827">=</text>
<circle opacity="0.3" fill="#A8AAAD" cx="95.615" cy="18.838" r="15.841"/>
<circle fill="#EBEBEB" cx="95.615" cy="18.838" r="14.937"/>
<path fill="#424343" d="M95.615,34.678c8.75,0,15.841-7.092,15.841-15.84s-7.092-15.84-15.841-15.84H96.5
	c8.749,0,15.84,7.092,15.84,15.84s-7.092,15.84-15.84,15.84H95.615z"/>
<circle fill="#158093" cx="95.832" cy="19.055" r="11.417"/>
<linearGradient id="SVGID_8_" gradientUnits="userSpaceOnUse" x1="95.6147" y1="7.6372" x2="95.6147" y2="24.762">
	<stop  offset="0" style="stop-color:#D6D7D9"/>
	<stop  offset="0.3131" style="stop-color:#DDDDDF"/>
	<stop  offset="0.7697" style="stop-color:#F0F0F0"/>
	<stop  offset="0.9806" style="stop-color:#FFFFFF"/>
</linearGradient>
<circle fill="url(#SVGID_8_)" cx="95.615" cy="18.838" r="11.201"/>
<path fill="#D6D7D9" d="M85.299,19.723c0-6.187,5.015-11.201,11.201-11.201c2.869,0,5.483,1.079,7.464,2.852
	c-2.051-2.292-5.031-3.736-8.349-3.736c-6.186,0-11.201,5.016-11.201,11.201c0,3.318,1.444,6.298,3.737,8.349
	C86.378,25.206,85.299,22.59,85.299,19.723z"/>
<g>
	<path fill="#424343" d="M95.615,11.157L95.615,11.157c-0.489,0-0.885-0.396-0.885-0.886V9.579c0-0.489,0.396-0.886,0.885-0.886l0,0
		c0.489,0,0.886,0.396,0.886,0.886v0.692C96.501,10.76,96.104,11.157,95.615,11.157z"/>
	<path fill="#424343" d="M90.183,13.407L90.183,13.407c-0.346,0.346-0.907,0.346-1.253,0l-0.489-0.49
		c-0.346-0.346-0.346-0.906,0-1.252l0,0c0.346-0.347,0.907-0.347,1.253,0l0.489,0.489C90.529,12.5,90.529,13.061,90.183,13.407z"/>
	<path fill="#424343" d="M87.934,18.838L87.934,18.838c0,0.489-0.396,0.886-0.886,0.886h-0.692c-0.489,0-0.886-0.396-0.886-0.886
		l0,0c0-0.489,0.397-0.886,0.886-0.886h0.692C87.537,17.953,87.934,18.349,87.934,18.838z"/>
	<path fill="#424343" d="M90.183,24.27L90.183,24.27c0.346,0.346,0.346,0.907,0,1.253l-0.489,0.489
		c-0.346,0.347-0.907,0.347-1.253,0l0,0c-0.346-0.346-0.346-0.906,0-1.253l0.489-0.489C89.276,23.924,89.837,23.924,90.183,24.27z"
		/>
	<path fill="#424343" d="M95.615,26.52L95.615,26.52c0.489,0,0.886,0.396,0.886,0.886v0.692c0,0.489-0.397,0.886-0.886,0.886l0,0
		c-0.489,0-0.885-0.396-0.885-0.886v-0.692C94.729,26.917,95.126,26.52,95.615,26.52z"/>
	<path fill="#424343" d="M101.047,24.27L101.047,24.27c0.346-0.346,0.907-0.346,1.253,0l0.489,0.489
		c0.347,0.347,0.347,0.907,0,1.253l0,0c-0.346,0.347-0.907,0.347-1.253,0l-0.489-0.489C100.7,25.177,100.7,24.616,101.047,24.27z"/>
	<path fill="#424343" d="M103.297,18.838L103.297,18.838c0-0.489,0.396-0.886,0.886-0.886h0.692c0.489,0,0.886,0.396,0.886,0.886
		l0,0c0,0.489-0.396,0.886-0.886,0.886h-0.692C103.693,19.724,103.297,19.328,103.297,18.838z"/>
	<path fill="#424343" d="M101.047,13.407L101.047,13.407c-0.347-0.346-0.347-0.907,0-1.253l0.489-0.489
		c0.346-0.347,0.907-0.347,1.253,0l0,0c0.347,0.346,0.347,0.906,0,1.252l-0.489,0.49C101.954,13.752,101.393,13.752,101.047,13.407z
		"/>
</g>
<g>
	<path fill="#5E5C53" d="M94.951,18.838l0.233-9.157c0.006-0.238,0.204-0.427,0.442-0.42c0.23,0.006,0.414,0.192,0.42,0.42
		l0.232,9.157c0.009,0.366-0.28,0.671-0.646,0.681c-0.367,0.009-0.671-0.28-0.681-0.647C94.951,18.862,94.951,18.849,94.951,18.838z
		"/>
	<path fill="#5E5C53" d="M96.084,18.37l4.722,5.05c0.162,0.174,0.152,0.446-0.021,0.609c-0.167,0.155-0.425,0.152-0.589,0
		l-5.05-4.722c-0.268-0.25-0.282-0.67-0.032-0.938c0.25-0.269,0.671-0.282,0.938-0.032C96.063,18.347,96.074,18.359,96.084,18.37z"
		/>
</g>
<g>
	
		<image overflow="visible" opacity="0.2" width="237" height="227" xlink:href="CC926DE0.png"  transform="matrix(0.24 0 0 0.24 116.1143 54.814)">
	</image>
	<g>
		<g>
			<path fill="#B0CACC" d="M172.728,105.077c-3.377-9.18-16.843-15.854-28.006-14.695c0,0,0.453-24.059-10.607-19.125
				c0,0,13.3-9.293,28.189,8.374C173.138,92.483,172.728,105.077,172.728,105.077z"/>
			<path fill="#B0CACC" d="M139.163,69.236c6.648,0.664,7.626,13.564,7.769,18.101c8.112-0.15,18.958,3.514,25.118,11.832
				c0.975,3.627,0.678,5.908,0.678,5.908c-3.377-9.18-16.843-15.854-28.006-14.695c0,0,0.453-24.059-10.607-19.125
				C134.114,71.256,135.977,69.567,139.163,69.236z"/>
			<path fill="#B0CACC" d="M153.021,89.521c0,0-0.594-8.008-7.676-7.598l0.293,6.305L153.021,89.521z"/>
			<path fill="#B0CACC" d="M169.245,97.108c0,0,0.676-1.449,1.555-2.533c0.961,2.867,1.447,5.34,1.689,7.162L169.245,97.108z"/>
		</g>
	</g>
</g>
<g>
	<path fill="#4D6987" d="M117.742,77.653c1.712,5.184,6.808,12.358,10.87,12.459c5.004,0.625,7.965-4.244,10.27-5.834
		c3.746-2.586,4.226-6.7,1.74-9.623c-1.585-1.865-3.851-1.042-5.164,0.954c-2.35,3.571-2.046,3.735-6.362,8.19l-9.653-7.599
		L117.742,77.653z"/>
</g>
<path fill="#072528" d="M137.824,56.958c-1.614,1.882-1.747,3.454-0.581,6.061c1.268,2.835,3.198-5.67,3.198-5.67L137.824,56.958z"
	/>
<g>
	<path fill="#E0CBAF" d="M137.5,60.665c0.921-5.554,9.97-5.927,10.839-0.706c1.115,6.708-5.732,8.991-11.666,7.938
		c-0.469-0.084-0.893-0.765-0.789-1.383L137.5,60.665z"/>
	<path fill="#E0CBAF" d="M143.878,66.785c0.014,1.89-0.059,6.306-0.059,6.306l-4.207-0.188l-0.551-4.536
		C139.82,66.656,143.868,65.63,143.878,66.785z"/>
</g>
<path fill="#E0CBAF" d="M144.009,63.788l0.829-3.689c0.696-3.365-6.27-5.119-7.269-0.563l-1.68,6.978
	c-0.171,0.593-0.078,1.224,0.256,1.753l0.412,0.651c0.467,0.735,1.445,1.046,2.304,0.73l2.933-1.081
	c0.776-0.286,1.346-0.913,1.516-1.67l0.248-1.102c0.436,1.305,2.102-1.374,2.104-2.148
	C145.664,62.965,145.147,62.558,144.009,63.788z"/>
<path fill="#424343" d="M150.257,57.157c-3.768,0.052-7.045-6.769-7.535-5.049c-0.492,1.72-5.16,1.229-6.063,3.769
	c-0.9,2.539,1.639,3.041,4.506,2.211s3.951,0.481,3.365,2.574c-0.344,1.226-1.098,2.304-1.662,2.987
	c-0.174,0.21,0.04,0.514,0.298,0.426l0.843-0.287c1.139-1.229,1.655-0.822,1.653-0.141c-0.003,0.641-1.142,2.579-1.782,2.492v0.004
	l-0.008,2.676C150.267,66.363,154.025,57.105,150.257,57.157z"/>
<g>
	<path fill="#5E5C53" d="M149.21,93.708c2.73,2.984,2.379,6.531,0.407,8.254s-3.317,22.379-3.317,22.379s4.275,4.771-0.176,21.971
		h-7.432l0.572-1.418l5.192-1.033c0,0-1.496-13.965-2.517-17.832c-1.594-4.504-4.625-23.463-4.137-32.32
		C139.698,91.769,149.21,93.708,149.21,93.708z"/>
	<path fill="#5E5C53" d="M149.984,93.837c3.44,2.982,3.933,6.525,2.371,8.244c-1.562,1.721,1.639,22.15,1.639,22.15
		s5.019,2.377,1.846,22.145h-8.199l1.329-1.674l4.619-0.775c0,0-3.088-14.697-3.865-17.809c-0.469-2.432-6.451-11.699-9.377-32.281
		C141.78,91.901,149.984,93.837,149.984,93.837z"/>
</g>
<path fill="#4D6987" d="M150.427,84.185c0.341-2.365,0.822-6.509-0.883-9.185c-2.643-4.149-10.801-2.83-13.068-0.581
	c-2.515,2.492-2.904,5.534-2.723,8.708c0.271,4.758,2.935,21.855,2.935,21.855c3.066,4.682,14.931-5.209,16.153-8.322
	C151.369,93.562,149.179,92.847,150.427,84.185z"/>
<path fill="#E0CBAF" d="M119.442,76.201l-6.947-6.617c0,0-0.785,0.475,0.531,1.925c1.316,1.451,1.428,1.641,1.428,1.641
	s-1.367,1.486-0.494,3.064c0.873,1.579,3.782,1.439,3.782,1.439L119.442,76.201z"/>
<path fill="#3E536B" d="M152.841,96.659c-1.472-3.098-3.662-3.813-2.414-12.475c0.133-0.92,0.285-2.109,0.322-3.377l-6.631-5.333
	c0.243,3.32,1.91,6.73,2.139,13.859c0.101,3.131,0.074,10.029-0.845,14.438C148.716,101.642,152.181,98.341,152.841,96.659z"/>
<path fill="#4D6987" d="M149.696,104.093c3.305-4.807,4.102-10.428,4.212-13.898c0.095-2.979-1.313-6.67-1.382-9.471
	c-0.109-4.55-3.539-7.816-7.364-8.277c-2.431-0.292-1.653,3.77-0.899,5.852c1.399,3.873,2.507,4.734,3.868,10.785l-0.612,14.5
	L149.696,104.093z"/>
<linearGradient id="SVGID_9_" gradientUnits="userSpaceOnUse" x1="143.7324" y1="107.208" x2="154.1812" y2="107.208">
	<stop  offset="0" style="stop-color:#FCD2C5"/>
	<stop  offset="0.6367" style="stop-color:#F9BAA5"/>
	<stop  offset="1" style="stop-color:#F7AA92"/>
</linearGradient>
<path fill="url(#SVGID_9_)" d="M147.519,103.583c-0.059,1.662-2.6,2.85-2.26,4.285c0.595,2.51,2.709,3.303,3.648,2.84
	c1.131-0.557,0.59-2.563,0.541-4.158c-0.048-1.596,0.248-2.457,0.248-2.457L147.519,103.583z"/>
<circle fill="#8BBCE5" cx="63.599" cy="134.705" r="11.342"/>
<circle fill="#455E7C" cx="63.601" cy="134.705" r="10.126"/>
<circle fill="#678EB5" cx="63.599" cy="134.704" r="8.564"/>
<g>
	<path fill="#8BBCE5" d="M64.201,139.275v0.998h-1.05v-0.998c-1.689-0.142-2.815-0.999-2.944-2.637h1.728
		c0.116,0.728,0.551,1.189,1.216,1.343v-2.598c-1.639-0.525-2.599-1.205-2.599-2.662c0-1.577,1.189-2.407,2.599-2.589v-0.998h1.05
		v0.998c1.716,0.169,2.573,1.229,2.743,2.626h-1.729c-0.078-0.665-0.371-1.152-1.012-1.331v2.469c1.996,0.631,2.79,1.437,2.79,2.858
		C66.992,138.225,65.801,139.121,64.201,139.275z M63.152,133.694v-2.28c-0.562,0.129-0.921,0.498-0.921,1.101
		C62.231,133.156,62.538,133.462,63.152,133.694z M64.201,138.007c0.666-0.101,1.05-0.447,1.05-1.126
		c0-0.552-0.243-0.974-1.05-1.268V138.007z"/>
</g>
<circle fill="#8BBCE5" cx="43.775" cy="137.854" r="11.342"/>
<circle fill="#455E7C" cx="43.777" cy="137.854" r="10.126"/>
<circle fill="#678EB5" cx="43.775" cy="137.854" r="8.564"/>
<g>
	<path fill="#8BBCE5" d="M44.377,142.425v0.998h-1.05v-0.998c-1.689-0.142-2.815-0.999-2.944-2.637h1.728
		c0.116,0.728,0.551,1.189,1.216,1.343v-2.598c-1.639-0.525-2.599-1.205-2.599-2.662c0-1.577,1.189-2.407,2.599-2.589v-0.998h1.05
		v0.998c1.716,0.169,2.573,1.229,2.743,2.626h-1.729c-0.078-0.665-0.371-1.152-1.012-1.331v2.469c1.996,0.631,2.79,1.437,2.79,2.858
		C47.168,141.374,45.977,142.271,44.377,142.425z M43.328,136.844v-2.28c-0.562,0.129-0.921,0.498-0.921,1.101
		C42.407,136.306,42.713,136.611,43.328,136.844z M44.377,141.156c0.666-0.101,1.05-0.447,1.05-1.126
		c0-0.552-0.243-0.974-1.05-1.268V141.156z"/>
</g>
<circle fill="#8BBCE5" cx="132.237" cy="132.174" r="11.342"/>
<circle fill="#455E7C" cx="132.239" cy="132.175" r="10.126"/>
<circle fill="#678EB5" cx="132.237" cy="132.174" r="8.564"/>
<g>
	<path fill="#8BBCE5" d="M132.839,136.745v0.998h-1.05v-0.998c-1.688-0.142-2.815-0.999-2.944-2.637h1.729
		c0.115,0.728,0.551,1.189,1.216,1.343v-2.598c-1.639-0.525-2.599-1.205-2.599-2.662c0-1.577,1.189-2.407,2.599-2.589v-0.998h1.05
		v0.998c1.717,0.169,2.572,1.229,2.742,2.626h-1.729c-0.078-0.665-0.371-1.152-1.012-1.331v2.469c1.996,0.631,2.79,1.437,2.79,2.858
		C135.63,135.694,134.438,136.591,132.839,136.745z M131.79,131.164v-2.28c-0.562,0.129-0.922,0.498-0.922,1.101
		C130.868,130.626,131.175,130.932,131.79,131.164z M132.839,135.477c0.666-0.101,1.05-0.447,1.05-1.126
		c0-0.552-0.243-0.974-1.05-1.268V135.477z"/>
</g>
</svg>
