<?xml version="1.0" encoding="utf-8"?>
<!-- Generator: Adobe Illustrator 16.0.0, SVG Export Plug-In . SVG Version: 6.00 Build 0)  -->
<!DOCTYPE svg PUBLIC "-//W3C//DTD SVG 1.1//EN" "http://www.w3.org/Graphics/SVG/1.1/DTD/svg11.dtd">
<svg version="1.1" id="Layer_1" xmlns="http://www.w3.org/2000/svg" xmlns:xlink="http://www.w3.org/1999/xlink" x="0px" y="0px"
	 width="200px" height="100px" viewBox="0 0 200 100" enable-background="new 0 0 200 100" xml:space="preserve">
<g>
	
		<rect x="35.596" y="7.092" fill="none" stroke="#DBDDDF" stroke-width="1.1714" stroke-miterlimit="10" width="159.102" height="85.935"/>
	
		<line fill="none" stroke="#DBDDDF" stroke-width="1.1714" stroke-miterlimit="10" x1="35.596" y1="85.215" x2="194.697" y2="85.215"/>
	
		<line fill="none" stroke="#DBDDDF" stroke-width="1.1714" stroke-miterlimit="10" x1="35.596" y1="77.402" x2="194.697" y2="77.402"/>
	
		<line fill="none" stroke="#DBDDDF" stroke-width="1.1714" stroke-miterlimit="10" x1="35.596" y1="69.59" x2="194.697" y2="69.59"/>
	
		<line fill="none" stroke="#DBDDDF" stroke-width="1.1714" stroke-miterlimit="10" x1="35.596" y1="61.777" x2="194.697" y2="61.777"/>
	
		<line fill="none" stroke="#DBDDDF" stroke-width="1.1714" stroke-miterlimit="10" x1="35.596" y1="53.966" x2="194.697" y2="53.966"/>
	
		<line fill="none" stroke="#DBDDDF" stroke-width="1.1714" stroke-miterlimit="10" x1="35.596" y1="46.152" x2="194.697" y2="46.152"/>
	
		<line fill="none" stroke="#DBDDDF" stroke-width="1.1714" stroke-miterlimit="10" x1="35.596" y1="38.341" x2="194.697" y2="38.341"/>
	
		<line fill="none" stroke="#DBDDDF" stroke-width="1.1714" stroke-miterlimit="10" x1="35.596" y1="30.529" x2="194.697" y2="30.529"/>
	
		<line fill="none" stroke="#DBDDDF" stroke-width="1.1714" stroke-miterlimit="10" x1="35.596" y1="22.716" x2="194.697" y2="22.716"/>
	
		<line fill="none" stroke="#DBDDDF" stroke-width="1.1714" stroke-miterlimit="10" x1="35.596" y1="14.904" x2="194.697" y2="14.904"/>
	
		<line fill="none" stroke="#DBDDDF" stroke-width="1.1714" stroke-miterlimit="10" x1="180.233" y1="7.092" x2="180.233" y2="93.026"/>
	
		<line fill="none" stroke="#DBDDDF" stroke-width="1.1714" stroke-miterlimit="10" x1="165.769" y1="7.092" x2="165.769" y2="93.026"/>
	
		<line fill="none" stroke="#DBDDDF" stroke-width="1.1714" stroke-miterlimit="10" x1="151.306" y1="7.092" x2="151.306" y2="93.026"/>
	
		<line fill="none" stroke="#DBDDDF" stroke-width="1.1714" stroke-miterlimit="10" x1="136.842" y1="7.092" x2="136.842" y2="93.026"/>
	
		<line fill="none" stroke="#DBDDDF" stroke-width="1.1714" stroke-miterlimit="10" x1="122.377" y1="7.092" x2="122.377" y2="93.026"/>
	
		<line fill="none" stroke="#DBDDDF" stroke-width="1.1714" stroke-miterlimit="10" x1="107.915" y1="7.092" x2="107.915" y2="93.026"/>
	<line fill="none" stroke="#DBDDDF" stroke-width="1.1714" stroke-miterlimit="10" x1="93.45" y1="7.092" x2="93.45" y2="93.026"/>
	
		<line fill="none" stroke="#DBDDDF" stroke-width="1.1714" stroke-miterlimit="10" x1="78.987" y1="7.092" x2="78.987" y2="93.026"/>
	
		<line fill="none" stroke="#DBDDDF" stroke-width="1.1714" stroke-miterlimit="10" x1="64.523" y1="7.092" x2="64.523" y2="93.026"/>
	
		<line fill="none" stroke="#DBDDDF" stroke-width="1.1714" stroke-miterlimit="10" x1="50.059" y1="7.092" x2="50.059" y2="93.026"/>
</g>
<rect x="36.069" y="25.617" fill="#516E8D" width="13.99" height="66.744"/>
<rect x="50.059" y="36.645" fill="#8BBCE5" width="14.464" height="55.695"/>
<rect x="64.523" y="57.268" fill="#A4B4D6" width="14.463" height="35.072"/>
<g>
	<rect x="78.987" y="11.499" fill="#C3E0E3" width="14.463" height="80.841"/>
</g>
<rect x="93.45" y="36.645" fill="#516E8D" width="14.465" height="55.695"/>
<rect x="107.915" y="60.78" fill="#8BBCE5" width="14.462" height="31.56"/>
<rect x="122.377" y="22.381" fill="#A4B4D6" width="14.465" height="69.959"/>
<g>
	<rect x="136.842" y="44.434" fill="#C3E0E3" width="14.464" height="47.906"/>
</g>
<rect x="151.306" y="53.369" fill="#516E8D" width="14.463" height="38.971"/>
<rect x="165.769" y="76.648" fill="#8BBCE5" width="14.465" height="15.691"/>
<rect x="180.233" y="34.669" fill="#A4B4D6" width="14.464" height="57.671"/>
<text transform="matrix(1 0 0 1 4.8564 9.8164)" fill="#3D5066" font-family="'Montserrat-Regular'" font-size="7.3058">100%</text>
<text transform="matrix(1 0 0 1 8.604 26.1006)" fill="#3D5066" font-family="'Montserrat-Regular'" font-size="7.3058">80%</text>
<text transform="matrix(1 0 0 1 8.604 43.1416)" fill="#3D5066" font-family="'Montserrat-Regular'" font-size="7.3058">60%</text>
<text transform="matrix(1 0 0 1 8.604 60.1836)" fill="#3D5066" font-family="'Montserrat-Regular'" font-size="7.3058">40%</text>
<text transform="matrix(1 0 0 1 8.604 77.2256)" fill="#3D5066" font-family="'Montserrat-Regular'" font-size="7.3058">20%</text>
<text transform="matrix(1 0 0 1 12.3521 94.2656)" fill="#3D5066" font-family="'Montserrat-Regular'" font-size="7.3058">0%</text>
<g>
	<line fill="none" stroke="#898B8E" stroke-width="3.4868" stroke-miterlimit="10" x1="34.739" y1="7.932" x2="25.364" y2="7.932"/>
	
		<line fill="none" stroke="#898B8E" stroke-width="3.4868" stroke-miterlimit="10" x1="34.739" y1="24.951" x2="25.364" y2="24.951"/>
	<line fill="none" stroke="#898B8E" stroke-width="3.4868" stroke-miterlimit="10" x1="34.739" y1="41.97" x2="25.364" y2="41.97"/>
	
		<line fill="none" stroke="#898B8E" stroke-width="3.4868" stroke-miterlimit="10" x1="34.739" y1="58.988" x2="25.364" y2="58.988"/>
	
		<line fill="none" stroke="#898B8E" stroke-width="3.4868" stroke-miterlimit="10" x1="34.739" y1="76.008" x2="25.364" y2="76.008"/>
	
		<line fill="none" stroke="#898B8E" stroke-width="3.4868" stroke-miterlimit="10" x1="34.739" y1="93.026" x2="25.364" y2="93.026"/>
</g>
<polyline fill="none" stroke="#363538" stroke-width="3.4868" stroke-linecap="square" stroke-miterlimit="10" points="
	34.903,7.932 34.903,93.026 194.697,93.026 "/>
</svg>
